<svg width="230" height="226" viewBox="0 0 230 226" fill="none" xmlns="http://www.w3.org/2000/svg">
<path d="M27.5738 121.231V110.031H28.5498L36.2778 119.759H35.7658V110.031H36.9338V121.231H35.9578L28.2458 111.503H28.7578V121.231H27.5738ZM45.6134 121.231V119.375L45.5654 119.071V115.967C45.5654 115.253 45.3627 114.703 44.9574 114.319C44.5627 113.935 43.9707 113.743 43.1814 113.743C42.6374 113.743 42.12 113.834 41.6294 114.015C41.1387 114.197 40.7227 114.437 40.3814 114.735L39.8694 113.887C40.296 113.525 40.808 113.247 41.4054 113.055C42.0027 112.853 42.632 112.751 43.2934 112.751C44.3814 112.751 45.2187 113.023 45.8054 113.567C46.4027 114.101 46.7014 114.917 46.7014 116.015V121.231H45.6134ZM42.7174 121.311C42.088 121.311 41.5387 121.21 41.0694 121.007C40.6107 120.794 40.2587 120.506 40.0134 120.143C39.768 119.77 39.6454 119.343 39.6454 118.863C39.6454 118.426 39.7467 118.031 39.9494 117.679C40.1627 117.317 40.504 117.029 40.9734 116.815C41.4534 116.591 42.0934 116.479 42.8934 116.479H45.7894V117.327H42.9254C42.1147 117.327 41.5494 117.471 41.2294 117.759C40.92 118.047 40.7654 118.405 40.7654 118.831C40.7654 119.311 40.952 119.695 41.3254 119.983C41.6987 120.271 42.2214 120.415 42.8934 120.415C43.5334 120.415 44.0827 120.271 44.5414 119.983C45.0107 119.685 45.352 119.258 45.5654 118.703L45.8214 119.487C45.608 120.042 45.2347 120.485 44.7014 120.815C44.1787 121.146 43.5174 121.311 42.7174 121.311ZM56.2304 121.311C55.537 121.311 54.881 121.215 54.2624 121.023C53.6437 120.821 53.1584 120.57 52.8064 120.271L53.3184 119.375C53.6597 119.631 54.097 119.855 54.6304 120.047C55.1637 120.229 55.7237 120.319 56.3104 120.319C57.1104 120.319 57.6864 120.197 58.0384 119.951C58.3904 119.695 58.5664 119.359 58.5664 118.943C58.5664 118.634 58.465 118.394 58.2624 118.223C58.0704 118.042 57.8144 117.909 57.4944 117.823C57.1744 117.727 56.817 117.647 56.4224 117.583C56.0277 117.519 55.633 117.445 55.2384 117.359C54.8544 117.274 54.5024 117.151 54.1824 116.991C53.8624 116.821 53.601 116.591 53.3984 116.303C53.2064 116.015 53.1104 115.631 53.1104 115.151C53.1104 114.693 53.2384 114.282 53.4944 113.919C53.7504 113.557 54.1237 113.274 54.6144 113.071C55.1157 112.858 55.7237 112.751 56.4384 112.751C56.9824 112.751 57.5264 112.826 58.0704 112.975C58.6144 113.114 59.0624 113.301 59.4144 113.535L58.9184 114.447C58.545 114.191 58.145 114.01 57.7184 113.903C57.2917 113.786 56.865 113.727 56.4384 113.727C55.681 113.727 55.121 113.861 54.7584 114.127C54.4064 114.383 54.2304 114.714 54.2304 115.119C54.2304 115.439 54.3264 115.69 54.5184 115.871C54.721 116.053 54.9824 116.197 55.3024 116.303C55.633 116.399 55.9904 116.479 56.3744 116.543C56.769 116.607 57.1584 116.687 57.5424 116.783C57.937 116.869 58.2944 116.991 58.6144 117.151C58.945 117.301 59.2064 117.519 59.3984 117.807C59.601 118.085 59.7024 118.453 59.7024 118.911C59.7024 119.402 59.5637 119.829 59.2864 120.191C59.0197 120.543 58.625 120.821 58.1024 121.023C57.5904 121.215 56.9664 121.311 56.2304 121.311ZM63.7906 121.231L60.0626 112.831H61.2466L64.6706 120.623H64.1106L67.5826 112.831H68.7026L64.9586 121.231H63.7906ZM75.3165 121.231V119.375L75.2685 119.071V115.967C75.2685 115.253 75.0658 114.703 74.6605 114.319C74.2658 113.935 73.6738 113.743 72.8845 113.743C72.3405 113.743 71.8232 113.834 71.3325 114.015C70.8418 114.197 70.4258 114.437 70.0845 114.735L69.5725 113.887C69.9992 113.525 70.5112 113.247 71.1085 113.055C71.7058 112.853 72.3352 112.751 72.9965 112.751C74.0845 112.751 74.9218 113.023 75.5085 113.567C76.1058 114.101 76.4045 114.917 76.4045 116.015V121.231H75.3165ZM72.4205 121.311C71.7912 121.311 71.2418 121.21 70.7725 121.007C70.3138 120.794 69.9618 120.506 69.7165 120.143C69.4712 119.77 69.3485 119.343 69.3485 118.863C69.3485 118.426 69.4498 118.031 69.6525 117.679C69.8658 117.317 70.2072 117.029 70.6765 116.815C71.1565 116.591 71.7965 116.479 72.5965 116.479H75.4925V117.327H72.6285C71.8178 117.327 71.2525 117.471 70.9325 117.759C70.6232 118.047 70.4685 118.405 70.4685 118.831C70.4685 119.311 70.6552 119.695 71.0285 119.983C71.4018 120.271 71.9245 120.415 72.5965 120.415C73.2365 120.415 73.7858 120.271 74.2445 119.983C74.7138 119.685 75.0552 119.258 75.2685 118.703L75.5245 119.487C75.3112 120.042 74.9378 120.485 74.4045 120.815C73.8818 121.146 73.2205 121.311 72.4205 121.311ZM80.386 119.055L80.418 117.599L85.65 112.831H87.042L83.346 116.367L82.706 116.911L80.386 119.055ZM79.49 121.231V109.359H80.626V121.231H79.49ZM86.002 121.231L82.498 116.863L83.234 115.983L87.394 121.231H86.002ZM89.0994 121.231V112.831H90.2354V121.231H89.0994ZM89.6754 110.975C89.4407 110.975 89.2434 110.895 89.0834 110.735C88.9234 110.575 88.8434 110.383 88.8434 110.159C88.8434 109.935 88.9234 109.749 89.0834 109.599C89.2434 109.439 89.4407 109.359 89.6754 109.359C89.91 109.359 90.1074 109.434 90.2674 109.583C90.4274 109.733 90.5074 109.919 90.5074 110.143C90.5074 110.378 90.4274 110.575 90.2674 110.735C90.118 110.895 89.9207 110.975 89.6754 110.975ZM101.92 121.311C101.194 121.311 100.538 121.146 99.9518 120.815C99.3651 120.474 98.8958 119.989 98.5438 119.359C98.2024 118.719 98.0318 117.941 98.0318 117.023C98.0318 116.106 98.2024 115.333 98.5438 114.703C98.8851 114.063 99.3491 113.578 99.9358 113.247C100.522 112.917 101.184 112.751 101.92 112.751C102.72 112.751 103.434 112.933 104.064 113.295C104.704 113.647 105.205 114.149 105.568 114.799C105.93 115.439 106.112 116.181 106.112 117.023C106.112 117.877 105.93 118.623 105.568 119.263C105.205 119.903 104.704 120.405 104.064 120.767C103.434 121.13 102.72 121.311 101.92 121.311ZM97.5838 124.335V112.831H98.6718V115.359L98.5598 117.039L98.7198 118.735V124.335H97.5838ZM101.84 120.303C102.437 120.303 102.97 120.17 103.44 119.903C103.909 119.626 104.282 119.242 104.56 118.751C104.837 118.25 104.976 117.674 104.976 117.023C104.976 116.373 104.837 115.802 104.56 115.311C104.282 114.821 103.909 114.437 103.44 114.159C102.97 113.882 102.437 113.743 101.84 113.743C101.242 113.743 100.704 113.882 100.224 114.159C99.7544 114.437 99.3811 114.821 99.1038 115.311C98.8371 115.802 98.7038 116.373 98.7038 117.023C98.7038 117.674 98.8371 118.25 99.1038 118.751C99.3811 119.242 99.7544 119.626 100.224 119.903C100.704 120.17 101.242 120.303 101.84 120.303ZM111.852 121.311C111.041 121.311 110.31 121.13 109.66 120.767C109.02 120.394 108.513 119.887 108.14 119.247C107.766 118.597 107.58 117.855 107.58 117.023C107.58 116.181 107.766 115.439 108.14 114.799C108.513 114.159 109.02 113.658 109.66 113.295C110.3 112.933 111.03 112.751 111.852 112.751C112.684 112.751 113.42 112.933 114.06 113.295C114.71 113.658 115.217 114.159 115.58 114.799C115.953 115.439 116.14 116.181 116.14 117.023C116.14 117.855 115.953 118.597 115.58 119.247C115.217 119.887 114.71 120.394 114.06 120.767C113.409 121.13 112.673 121.311 111.852 121.311ZM111.852 120.303C112.46 120.303 112.998 120.17 113.468 119.903C113.937 119.626 114.305 119.242 114.572 118.751C114.849 118.25 114.988 117.674 114.988 117.023C114.988 116.362 114.849 115.786 114.572 115.295C114.305 114.805 113.937 114.426 113.468 114.159C112.998 113.882 112.465 113.743 111.868 113.743C111.27 113.743 110.737 113.882 110.268 114.159C109.798 114.426 109.425 114.805 109.148 115.295C108.87 115.786 108.732 116.362 108.732 117.023C108.732 117.674 108.87 118.25 109.148 118.751C109.425 119.242 109.798 119.626 110.268 119.903C110.737 120.17 111.265 120.303 111.852 120.303ZM121.947 121.311C121.115 121.311 120.368 121.13 119.707 120.767C119.056 120.394 118.544 119.887 118.171 119.247C117.797 118.597 117.611 117.855 117.611 117.023C117.611 116.181 117.797 115.439 118.171 114.799C118.544 114.159 119.056 113.658 119.707 113.295C120.368 112.933 121.115 112.751 121.947 112.751C122.661 112.751 123.307 112.89 123.883 113.167C124.459 113.445 124.912 113.861 125.243 114.415L124.395 114.991C124.107 114.565 123.749 114.25 123.323 114.047C122.896 113.845 122.432 113.743 121.931 113.743C121.333 113.743 120.795 113.882 120.315 114.159C119.835 114.426 119.456 114.805 119.179 115.295C118.901 115.786 118.763 116.362 118.763 117.023C118.763 117.685 118.901 118.261 119.179 118.751C119.456 119.242 119.835 119.626 120.315 119.903C120.795 120.17 121.333 120.303 121.931 120.303C122.432 120.303 122.896 120.202 123.323 119.999C123.749 119.797 124.107 119.487 124.395 119.071L125.243 119.647C124.912 120.191 124.459 120.607 123.883 120.895C123.307 121.173 122.661 121.311 121.947 121.311ZM121.083 111.519L119.019 109.535H120.075L122.107 111.215H121.211L123.243 109.535H124.299L122.235 111.519H121.083ZM130.902 121.311C130.027 121.311 129.259 121.13 128.598 120.767C127.936 120.394 127.419 119.887 127.046 119.247C126.672 118.597 126.486 117.855 126.486 117.023C126.486 116.191 126.662 115.455 127.014 114.815C127.376 114.175 127.867 113.674 128.486 113.311C129.115 112.938 129.819 112.751 130.598 112.751C131.387 112.751 132.086 112.933 132.694 113.295C133.312 113.647 133.798 114.149 134.15 114.799C134.502 115.439 134.678 116.181 134.678 117.023C134.678 117.077 134.672 117.135 134.662 117.199C134.662 117.253 134.662 117.311 134.662 117.375H127.35V116.527H134.054L133.606 116.863C133.606 116.255 133.472 115.717 133.206 115.247C132.95 114.767 132.598 114.394 132.15 114.127C131.702 113.861 131.184 113.727 130.598 113.727C130.022 113.727 129.504 113.861 129.046 114.127C128.587 114.394 128.23 114.767 127.974 115.247C127.718 115.727 127.59 116.277 127.59 116.895V117.071C127.59 117.711 127.728 118.277 128.006 118.767C128.294 119.247 128.688 119.626 129.19 119.903C129.702 120.17 130.283 120.303 130.934 120.303C131.446 120.303 131.92 120.213 132.358 120.031C132.806 119.85 133.19 119.573 133.51 119.199L134.15 119.935C133.776 120.383 133.307 120.725 132.742 120.959C132.187 121.194 131.574 121.311 130.902 121.311ZM139.646 121.311C138.857 121.311 138.249 121.098 137.822 120.671C137.395 120.245 137.182 119.642 137.182 118.863V110.975H138.318V118.799C138.318 119.29 138.441 119.669 138.686 119.935C138.942 120.202 139.305 120.335 139.774 120.335C140.275 120.335 140.691 120.191 141.022 119.903L141.422 120.719C141.198 120.922 140.926 121.071 140.606 121.167C140.297 121.263 139.977 121.311 139.646 121.311ZM135.678 113.775V112.831H140.878V113.775H135.678ZM147.778 112.751C148.461 112.751 149.058 112.885 149.57 113.151C150.093 113.407 150.498 113.802 150.786 114.335C151.085 114.869 151.234 115.541 151.234 116.351V121.231H150.098V116.463C150.098 115.578 149.874 114.911 149.426 114.463C148.989 114.005 148.37 113.775 147.57 113.775C146.973 113.775 146.45 113.898 146.002 114.143C145.565 114.378 145.223 114.725 144.978 115.183C144.743 115.631 144.626 116.175 144.626 116.815V121.231H143.49V112.831H144.578V115.135L144.402 114.703C144.669 114.095 145.095 113.621 145.682 113.279C146.269 112.927 146.967 112.751 147.778 112.751ZM154.303 121.231V112.831H155.439V121.231H154.303ZM154.879 110.975C154.644 110.975 154.447 110.895 154.287 110.735C154.127 110.575 154.047 110.383 154.047 110.159C154.047 109.935 154.127 109.749 154.287 109.599C154.447 109.439 154.644 109.359 154.879 109.359C155.113 109.359 155.311 109.434 155.471 109.583C155.631 109.733 155.711 109.919 155.711 110.143C155.711 110.378 155.631 110.575 155.471 110.735C155.321 110.895 155.124 110.975 154.879 110.975ZM165.043 121.311C164.35 121.311 163.694 121.215 163.075 121.023C162.456 120.821 161.971 120.57 161.619 120.271L162.131 119.375C162.472 119.631 162.91 119.855 163.443 120.047C163.976 120.229 164.536 120.319 165.123 120.319C165.923 120.319 166.499 120.197 166.851 119.951C167.203 119.695 167.379 119.359 167.379 118.943C167.379 118.634 167.278 118.394 167.075 118.223C166.883 118.042 166.627 117.909 166.307 117.823C165.987 117.727 165.63 117.647 165.235 117.583C164.84 117.519 164.446 117.445 164.051 117.359C163.667 117.274 163.315 117.151 162.995 116.991C162.675 116.821 162.414 116.591 162.211 116.303C162.019 116.015 161.923 115.631 161.923 115.151C161.923 114.693 162.051 114.282 162.307 113.919C162.563 113.557 162.936 113.274 163.427 113.071C163.928 112.858 164.536 112.751 165.251 112.751C165.795 112.751 166.339 112.826 166.883 112.975C167.427 113.114 167.875 113.301 168.227 113.535L167.731 114.447C167.358 114.191 166.958 114.01 166.531 113.903C166.104 113.786 165.678 113.727 165.251 113.727C164.494 113.727 163.934 113.861 163.571 114.127C163.219 114.383 163.043 114.714 163.043 115.119C163.043 115.439 163.139 115.69 163.331 115.871C163.534 116.053 163.795 116.197 164.115 116.303C164.446 116.399 164.803 116.479 165.187 116.543C165.582 116.607 165.971 116.687 166.355 116.783C166.75 116.869 167.107 116.991 167.427 117.151C167.758 117.301 168.019 117.519 168.211 117.807C168.414 118.085 168.515 118.453 168.515 118.911C168.515 119.402 168.376 119.829 168.099 120.191C167.832 120.543 167.438 120.821 166.915 121.023C166.403 121.215 165.779 121.311 165.043 121.311ZM175.863 121.231V119.375L175.815 119.071V115.967C175.815 115.253 175.613 114.703 175.207 114.319C174.813 113.935 174.221 113.743 173.431 113.743C172.887 113.743 172.37 113.834 171.879 114.015C171.389 114.197 170.973 114.437 170.631 114.735L170.119 113.887C170.546 113.525 171.058 113.247 171.655 113.055C172.253 112.853 172.882 112.751 173.543 112.751C174.631 112.751 175.469 113.023 176.055 113.567C176.653 114.101 176.951 114.917 176.951 116.015V121.231H175.863ZM172.967 121.311C172.338 121.311 171.789 121.21 171.319 121.007C170.861 120.794 170.509 120.506 170.263 120.143C170.018 119.77 169.895 119.343 169.895 118.863C169.895 118.426 169.997 118.031 170.199 117.679C170.413 117.317 170.754 117.029 171.223 116.815C171.703 116.591 172.343 116.479 173.143 116.479H176.039V117.327H173.175C172.365 117.327 171.799 117.471 171.479 117.759C171.17 118.047 171.015 118.405 171.015 118.831C171.015 119.311 171.202 119.695 171.575 119.983C171.949 120.271 172.471 120.415 173.143 120.415C173.783 120.415 174.333 120.271 174.791 119.983C175.261 119.685 175.602 119.258 175.815 118.703L176.071 119.487C175.858 120.042 175.485 120.485 174.951 120.815C174.429 121.146 173.767 121.311 172.967 121.311ZM182.693 121.311C181.904 121.311 181.296 121.098 180.869 120.671C180.442 120.245 180.229 119.642 180.229 118.863V110.975H181.365V118.799C181.365 119.29 181.488 119.669 181.733 119.935C181.989 120.202 182.352 120.335 182.821 120.335C183.322 120.335 183.738 120.191 184.069 119.903L184.469 120.719C184.245 120.922 183.973 121.071 183.653 121.167C183.344 121.263 183.024 121.311 182.693 121.311ZM178.725 113.775V112.831H183.925V113.775H178.725ZM192.66 124.335C192.074 123.365 191.615 122.245 191.284 120.975C190.964 119.695 190.804 118.319 190.804 116.847C190.804 115.375 190.964 113.999 191.284 112.719C191.615 111.429 192.074 110.309 192.66 109.359H193.748C193.119 110.458 192.655 111.626 192.356 112.863C192.068 114.09 191.924 115.418 191.924 116.847C191.924 118.277 192.068 119.61 192.356 120.847C192.655 122.074 193.119 123.237 193.748 124.335H192.66ZM197.346 121.231V110.511L197.858 111.055H194.706V110.031H198.498V121.231H197.346ZM206.216 112.751C206.898 112.751 207.496 112.885 208.008 113.151C208.53 113.407 208.936 113.802 209.224 114.335C209.522 114.869 209.672 115.541 209.672 116.351V121.231H208.536V116.463C208.536 115.578 208.312 114.911 207.864 114.463C207.426 114.005 206.808 113.775 206.008 113.775C205.41 113.775 204.888 113.898 204.44 114.143C204.002 114.378 203.661 114.725 203.416 115.183C203.181 115.631 203.064 116.175 203.064 116.815V121.231H201.928V109.359H203.064V115.135L202.84 114.703C203.106 114.095 203.533 113.621 204.12 113.279C204.706 112.927 205.405 112.751 206.216 112.751ZM212.884 124.335H211.796C212.436 123.237 212.9 122.074 213.188 120.847C213.487 119.61 213.636 118.277 213.636 116.847C213.636 115.418 213.487 114.09 213.188 112.863C212.9 111.626 212.436 110.458 211.796 109.359H212.884C213.492 110.309 213.956 111.429 214.276 112.719C214.596 113.999 214.756 115.375 214.756 116.847C214.756 118.319 214.596 119.695 214.276 120.975C213.956 122.245 213.492 123.365 212.884 124.335ZM218.118 114.495C217.883 114.495 217.68 114.41 217.51 114.239C217.35 114.069 217.27 113.861 217.27 113.615C217.27 113.359 217.35 113.151 217.51 112.991C217.68 112.831 217.883 112.751 218.118 112.751C218.352 112.751 218.55 112.831 218.71 112.991C218.88 113.151 218.966 113.359 218.966 113.615C218.966 113.861 218.88 114.069 218.71 114.239C218.55 114.41 218.352 114.495 218.118 114.495ZM218.118 121.311C217.883 121.311 217.68 121.226 217.51 121.055C217.35 120.885 217.27 120.677 217.27 120.431C217.27 120.175 217.35 119.967 217.51 119.807C217.68 119.647 217.883 119.567 218.118 119.567C218.352 119.567 218.55 119.647 218.71 119.807C218.88 119.967 218.966 120.175 218.966 120.431C218.966 120.677 218.88 120.885 218.71 121.055C218.55 121.226 218.352 121.311 218.118 121.311ZM78.6885 145.231V144.415L86.4645 134.607L86.5925 135.055H78.8005V134.031H87.6805V134.847L79.9205 144.655L79.7765 144.207H87.8725V145.231H78.6885ZM95.2384 145.231V143.375L95.1904 143.071V139.967C95.1904 139.253 94.9877 138.703 94.5824 138.319C94.1877 137.935 93.5957 137.743 92.8064 137.743C92.2624 137.743 91.745 137.834 91.2544 138.015C90.7637 138.197 90.3477 138.437 90.0064 138.735L89.4944 137.887C89.921 137.525 90.433 137.247 91.0304 137.055C91.6277 136.853 92.257 136.751 92.9184 136.751C94.0064 136.751 94.8437 137.023 95.4304 137.567C96.0277 138.101 96.3264 138.917 96.3264 140.015V145.231H95.2384ZM92.3424 145.311C91.713 145.311 91.1637 145.21 90.6944 145.007C90.2357 144.794 89.8837 144.506 89.6384 144.143C89.393 143.77 89.2704 143.343 89.2704 142.863C89.2704 142.426 89.3717 142.031 89.5744 141.679C89.7877 141.317 90.129 141.029 90.5984 140.815C91.0784 140.591 91.7184 140.479 92.5184 140.479H95.4144V141.327H92.5504C91.7397 141.327 91.1744 141.471 90.8544 141.759C90.545 142.047 90.3904 142.405 90.3904 142.831C90.3904 143.311 90.577 143.695 90.9504 143.983C91.3237 144.271 91.8464 144.415 92.5184 144.415C93.1584 144.415 93.7077 144.271 94.1664 143.983C94.6357 143.685 94.977 143.258 95.1904 142.703L95.4464 143.487C95.233 144.042 94.8597 144.485 94.3264 144.815C93.8037 145.146 93.1424 145.311 92.3424 145.311ZM102.639 145.231V144.415L107.295 139.855C107.722 139.439 108.042 139.077 108.255 138.767C108.469 138.447 108.613 138.149 108.687 137.871C108.762 137.594 108.799 137.333 108.799 137.087C108.799 136.437 108.575 135.925 108.127 135.551C107.69 135.178 107.039 134.991 106.175 134.991C105.514 134.991 104.927 135.093 104.415 135.295C103.914 135.498 103.482 135.813 103.119 136.239L102.303 135.535C102.741 135.023 103.301 134.629 103.983 134.351C104.666 134.074 105.429 133.935 106.271 133.935C107.029 133.935 107.685 134.058 108.239 134.303C108.794 134.538 109.221 134.885 109.519 135.343C109.829 135.802 109.983 136.341 109.983 136.959C109.983 137.322 109.93 137.679 109.823 138.031C109.727 138.383 109.546 138.757 109.279 139.151C109.023 139.535 108.645 139.973 108.143 140.463L103.871 144.655L103.551 144.207H110.495V145.231H102.639ZM120.225 145.311C119.425 145.311 118.705 145.13 118.065 144.767C117.435 144.405 116.939 143.903 116.577 143.263C116.214 142.613 116.033 141.866 116.033 141.023C116.033 140.17 116.214 139.423 116.577 138.783C116.939 138.143 117.435 137.647 118.065 137.295C118.705 136.933 119.425 136.751 120.225 136.751C120.961 136.751 121.617 136.917 122.193 137.247C122.779 137.578 123.243 138.063 123.585 138.703C123.937 139.333 124.113 140.106 124.113 141.023C124.113 141.93 123.942 142.703 123.601 143.343C123.259 143.983 122.795 144.474 122.209 144.815C121.633 145.146 120.971 145.311 120.225 145.311ZM120.305 144.303C120.902 144.303 121.435 144.17 121.905 143.903C122.385 143.626 122.758 143.242 123.025 142.751C123.302 142.25 123.441 141.674 123.441 141.023C123.441 140.362 123.302 139.786 123.025 139.295C122.758 138.805 122.385 138.426 121.905 138.159C121.435 137.882 120.902 137.743 120.305 137.743C119.718 137.743 119.19 137.882 118.721 138.159C118.251 138.426 117.878 138.805 117.601 139.295C117.323 139.786 117.185 140.362 117.185 141.023C117.185 141.674 117.323 142.25 117.601 142.751C117.878 143.242 118.251 143.626 118.721 143.903C119.19 144.17 119.718 144.303 120.305 144.303ZM123.473 145.231V142.703L123.585 141.007L123.425 139.311V133.359H124.561V145.231H123.473ZM131.292 145.311C130.418 145.311 129.65 145.13 128.988 144.767C128.327 144.394 127.81 143.887 127.436 143.247C127.063 142.597 126.876 141.855 126.876 141.023C126.876 140.191 127.052 139.455 127.404 138.815C127.767 138.175 128.258 137.674 128.876 137.311C129.506 136.938 130.21 136.751 130.988 136.751C131.778 136.751 132.476 136.933 133.084 137.295C133.703 137.647 134.188 138.149 134.54 138.799C134.892 139.439 135.068 140.181 135.068 141.023C135.068 141.077 135.063 141.135 135.052 141.199C135.052 141.253 135.052 141.311 135.052 141.375H127.74V140.527H134.444L133.996 140.863C133.996 140.255 133.863 139.717 133.596 139.247C133.34 138.767 132.988 138.394 132.54 138.127C132.092 137.861 131.575 137.727 130.988 137.727C130.412 137.727 129.895 137.861 129.436 138.127C128.978 138.394 128.62 138.767 128.364 139.247C128.108 139.727 127.98 140.277 127.98 140.895V141.071C127.98 141.711 128.119 142.277 128.396 142.767C128.684 143.247 129.079 143.626 129.58 143.903C130.092 144.17 130.674 144.303 131.324 144.303C131.836 144.303 132.311 144.213 132.748 144.031C133.196 143.85 133.58 143.573 133.9 143.199L134.54 143.935C134.167 144.383 133.698 144.725 133.132 144.959C132.578 145.194 131.964 145.311 131.292 145.311ZM140.037 145.311C139.247 145.311 138.639 145.098 138.213 144.671C137.786 144.245 137.573 143.642 137.573 142.863V134.975H138.709V142.799C138.709 143.29 138.831 143.669 139.077 143.935C139.333 144.202 139.695 144.335 140.165 144.335C140.666 144.335 141.082 144.191 141.413 143.903L141.813 144.719C141.589 144.922 141.317 145.071 140.997 145.167C140.687 145.263 140.367 145.311 140.037 145.311ZM136.069 137.775V136.831H141.269V137.775H136.069ZM147.152 145.311C146.277 145.311 145.509 145.13 144.848 144.767C144.186 144.394 143.669 143.887 143.296 143.247C142.922 142.597 142.736 141.855 142.736 141.023C142.736 140.191 142.912 139.455 143.264 138.815C143.626 138.175 144.117 137.674 144.736 137.311C145.365 136.938 146.069 136.751 146.848 136.751C147.637 136.751 148.336 136.933 148.944 137.295C149.562 137.647 150.048 138.149 150.4 138.799C150.752 139.439 150.928 140.181 150.928 141.023C150.928 141.077 150.922 141.135 150.912 141.199C150.912 141.253 150.912 141.311 150.912 141.375H143.6V140.527H150.304L149.856 140.863C149.856 140.255 149.722 139.717 149.456 139.247C149.2 138.767 148.848 138.394 148.4 138.127C147.952 137.861 147.434 137.727 146.848 137.727C146.272 137.727 145.754 137.861 145.296 138.127C144.837 138.394 144.48 138.767 144.224 139.247C143.968 139.727 143.84 140.277 143.84 140.895V141.071C143.84 141.711 143.978 142.277 144.256 142.767C144.544 143.247 144.938 143.626 145.44 143.903C145.952 144.17 146.533 144.303 147.184 144.303C147.696 144.303 148.17 144.213 148.608 144.031C149.056 143.85 149.44 143.573 149.76 143.199L150.4 143.935C150.026 144.383 149.557 144.725 148.992 144.959C148.437 145.194 147.824 145.311 147.152 145.311ZM155.896 145.311C155.107 145.311 154.499 145.098 154.072 144.671C153.645 144.245 153.432 143.642 153.432 142.863V134.975H154.568V142.799C154.568 143.29 154.691 143.669 154.936 143.935C155.192 144.202 155.555 144.335 156.024 144.335C156.525 144.335 156.941 144.191 157.272 143.903L157.672 144.719C157.448 144.922 157.176 145.071 156.856 145.167C156.547 145.263 156.227 145.311 155.896 145.311ZM151.928 137.775V136.831H157.128V137.775H151.928ZM165.004 145.231V143.375L164.956 143.071V139.967C164.956 139.253 164.753 138.703 164.348 138.319C163.953 137.935 163.361 137.743 162.572 137.743C162.028 137.743 161.511 137.834 161.02 138.015C160.529 138.197 160.113 138.437 159.772 138.735L159.26 137.887C159.687 137.525 160.199 137.247 160.796 137.055C161.393 136.853 162.023 136.751 162.684 136.751C163.772 136.751 164.609 137.023 165.196 137.567C165.793 138.101 166.092 138.917 166.092 140.015V145.231H165.004ZM162.108 145.311C161.479 145.311 160.929 145.21 160.46 145.007C160.001 144.794 159.649 144.506 159.404 144.143C159.159 143.77 159.036 143.343 159.036 142.863C159.036 142.426 159.137 142.031 159.34 141.679C159.553 141.317 159.895 141.029 160.364 140.815C160.844 140.591 161.484 140.479 162.284 140.479H165.18V141.327H162.316C161.505 141.327 160.94 141.471 160.62 141.759C160.311 142.047 160.156 142.405 160.156 142.831C160.156 143.311 160.343 143.695 160.716 143.983C161.089 144.271 161.612 144.415 162.284 144.415C162.924 144.415 163.473 144.271 163.932 143.983C164.401 143.685 164.743 143.258 164.956 142.703L165.212 143.487C164.999 144.042 164.625 144.485 164.092 144.815C163.569 145.146 162.908 145.311 162.108 145.311Z" fill="#1A1A1A"/>
<path d="M71.4739 182.519C70.0659 182.519 68.8339 182.311 67.7779 181.895C66.7219 181.463 65.8979 180.863 65.3059 180.095C64.7139 179.311 64.4179 178.399 64.4179 177.359C64.4179 176.319 64.7059 175.439 65.2819 174.719C65.8739 173.983 66.6979 173.431 67.7539 173.063C68.8099 172.679 70.0499 172.487 71.4739 172.487C72.9139 172.487 74.1619 172.679 75.2179 173.063C76.2899 173.431 77.1139 173.983 77.6899 174.719C78.2819 175.439 78.5779 176.319 78.5779 177.359C78.5779 178.399 78.2819 179.311 77.6899 180.095C77.0979 180.863 76.2659 181.463 75.1939 181.895C74.1379 182.311 72.8979 182.519 71.4739 182.519ZM71.4739 179.663C72.4499 179.663 73.2179 179.447 73.7779 179.015C74.3539 178.583 74.6419 177.991 74.6419 177.239C74.6419 176.487 74.3539 175.903 73.7779 175.487C73.2179 175.055 72.4499 174.839 71.4739 174.839C70.5139 174.839 69.7539 175.055 69.1939 175.487C68.6339 175.903 68.3539 176.487 68.3539 177.239C68.3539 177.991 68.6339 178.583 69.1939 179.015C69.7539 179.447 70.5139 179.663 71.4739 179.663ZM71.4739 174.455C70.1779 174.455 69.0419 174.279 68.0659 173.927C67.1059 173.575 66.3539 173.063 65.8099 172.391C65.2819 171.703 65.0179 170.887 65.0179 169.943C65.0179 168.951 65.2899 168.103 65.8339 167.399C66.3779 166.679 67.1379 166.127 68.1139 165.743C69.0899 165.343 70.2099 165.143 71.4739 165.143C72.7699 165.143 73.8979 165.343 74.8579 165.743C75.8339 166.127 76.5939 166.679 77.1379 167.399C77.6979 168.103 77.9779 168.951 77.9779 169.943C77.9779 170.887 77.7059 171.703 77.1619 172.391C76.6339 173.063 75.8819 173.575 74.9059 173.927C73.9299 174.279 72.7859 174.455 71.4739 174.455ZM71.4739 172.175C72.2899 172.175 72.9299 171.991 73.3939 171.623C73.8739 171.255 74.1139 170.751 74.1139 170.111C74.1139 169.439 73.8659 168.919 73.3699 168.551C72.8899 168.183 72.2579 167.999 71.4739 167.999C70.7059 167.999 70.0819 168.183 69.6019 168.551C69.1219 168.919 68.8819 169.439 68.8819 170.111C68.8819 170.751 69.1139 171.255 69.5779 171.623C70.0419 171.991 70.6739 172.175 71.4739 172.175ZM87.5576 182.519C86.1816 182.519 84.9496 182.183 83.8616 181.511C82.7736 180.823 81.9176 179.831 81.2936 178.535C80.6696 177.239 80.3576 175.671 80.3576 173.831C80.3576 171.991 80.6696 170.423 81.2936 169.127C81.9176 167.831 82.7736 166.847 83.8616 166.175C84.9496 165.487 86.1816 165.143 87.5576 165.143C88.9496 165.143 90.1816 165.487 91.2536 166.175C92.3416 166.847 93.1976 167.831 93.8216 169.127C94.4456 170.423 94.7576 171.991 94.7576 173.831C94.7576 175.671 94.4456 177.239 93.8216 178.535C93.1976 179.831 92.3416 180.823 91.2536 181.511C90.1816 182.183 88.9496 182.519 87.5576 182.519ZM87.5576 179.231C88.2136 179.231 88.7816 179.047 89.2616 178.679C89.7576 178.311 90.1416 177.727 90.4136 176.927C90.7016 176.127 90.8456 175.095 90.8456 173.831C90.8456 172.567 90.7016 171.535 90.4136 170.735C90.1416 169.935 89.7576 169.351 89.2616 168.983C88.7816 168.615 88.2136 168.431 87.5576 168.431C86.9176 168.431 86.3496 168.615 85.8536 168.983C85.3736 169.351 84.9896 169.935 84.7016 170.735C84.4296 171.535 84.2936 172.567 84.2936 173.831C84.2936 175.095 84.4296 176.127 84.7016 176.927C84.9896 177.727 85.3736 178.311 85.8536 178.679C86.3496 179.047 86.9176 179.231 87.5576 179.231ZM103.847 182.519C102.471 182.519 101.239 182.183 100.151 181.511C99.0627 180.823 98.2067 179.831 97.5827 178.535C96.9587 177.239 96.6467 175.671 96.6467 173.831C96.6467 171.991 96.9587 170.423 97.5827 169.127C98.2067 167.831 99.0627 166.847 100.151 166.175C101.239 165.487 102.471 165.143 103.847 165.143C105.239 165.143 106.471 165.487 107.543 166.175C108.631 166.847 109.487 167.831 110.111 169.127C110.735 170.423 111.047 171.991 111.047 173.831C111.047 175.671 110.735 177.239 110.111 178.535C109.487 179.831 108.631 180.823 107.543 181.511C106.471 182.183 105.239 182.519 103.847 182.519ZM103.847 179.231C104.503 179.231 105.071 179.047 105.551 178.679C106.047 178.311 106.431 177.727 106.703 176.927C106.991 176.127 107.135 175.095 107.135 173.831C107.135 172.567 106.991 171.535 106.703 170.735C106.431 169.935 106.047 169.351 105.551 168.983C105.071 168.615 104.503 168.431 103.847 168.431C103.207 168.431 102.639 168.615 102.143 168.983C101.663 169.351 101.279 169.935 100.991 170.735C100.719 171.535 100.583 172.567 100.583 173.831C100.583 175.095 100.719 176.127 100.991 176.927C101.279 177.727 101.663 178.311 102.143 178.679C102.639 179.047 103.207 179.231 103.847 179.231ZM120.789 182.231V165.431H128.061C129.565 165.431 130.861 165.679 131.949 166.175C133.037 166.655 133.877 167.351 134.469 168.263C135.061 169.175 135.357 170.263 135.357 171.527C135.357 172.775 135.061 173.855 134.469 174.767C133.877 175.663 133.037 176.351 131.949 176.831C130.861 177.311 129.565 177.551 128.061 177.551H122.949L124.677 175.847V182.231H120.789ZM131.469 182.231L127.269 176.135H131.421L135.669 182.231H131.469ZM124.677 176.279L122.949 174.455H127.845C129.045 174.455 129.941 174.199 130.533 173.687C131.125 173.159 131.421 172.439 131.421 171.527C131.421 170.599 131.125 169.879 130.533 169.367C129.941 168.855 129.045 168.599 127.845 168.599H122.949L124.677 166.751V176.279ZM143.957 182.519C142.613 182.519 141.325 182.343 140.093 181.991C138.861 181.623 137.869 181.151 137.117 180.575L138.437 177.647C139.157 178.159 140.005 178.583 140.981 178.919C141.973 179.239 142.973 179.399 143.981 179.399C144.749 179.399 145.365 179.327 145.829 179.183C146.309 179.023 146.661 178.807 146.885 178.535C147.109 178.263 147.221 177.951 147.221 177.599C147.221 177.151 147.045 176.799 146.693 176.543C146.341 176.271 145.877 176.055 145.301 175.895C144.725 175.719 144.085 175.559 143.381 175.415C142.693 175.255 141.997 175.063 141.293 174.839C140.605 174.615 139.973 174.327 139.397 173.975C138.821 173.623 138.349 173.159 137.981 172.583C137.629 172.007 137.453 171.271 137.453 170.375C137.453 169.415 137.709 168.543 138.221 167.759C138.749 166.959 139.533 166.327 140.573 165.863C141.629 165.383 142.949 165.143 144.533 165.143C145.589 165.143 146.629 165.271 147.653 165.527C148.677 165.767 149.581 166.135 150.365 166.631L149.165 169.583C148.381 169.135 147.597 168.807 146.813 168.599C146.029 168.375 145.261 168.263 144.509 168.263C143.757 168.263 143.141 168.351 142.661 168.527C142.181 168.703 141.837 168.935 141.629 169.223C141.421 169.495 141.317 169.815 141.317 170.183C141.317 170.615 141.493 170.967 141.845 171.239C142.197 171.495 142.661 171.703 143.237 171.863C143.813 172.023 144.445 172.183 145.133 172.343C145.837 172.503 146.533 172.687 147.221 172.895C147.925 173.103 148.565 173.383 149.141 173.735C149.717 174.087 150.181 174.551 150.533 175.127C150.901 175.703 151.085 176.431 151.085 177.311C151.085 178.255 150.821 179.119 150.293 179.903C149.765 180.687 148.973 181.319 147.917 181.799C146.877 182.279 145.557 182.519 143.957 182.519ZM153.742 182.231V165.431H161.374C163.198 165.431 164.806 165.783 166.198 166.487C167.59 167.175 168.678 168.143 169.462 169.391C170.246 170.639 170.638 172.119 170.638 173.831C170.638 175.527 170.246 177.007 169.462 178.271C168.678 179.519 167.59 180.495 166.198 181.199C164.806 181.887 163.198 182.231 161.374 182.231H153.742ZM157.63 179.039H161.182C162.302 179.039 163.27 178.831 164.086 178.415C164.918 177.983 165.558 177.375 166.006 176.591C166.47 175.807 166.702 174.887 166.702 173.831C166.702 172.759 166.47 171.839 166.006 171.071C165.558 170.287 164.918 169.687 164.086 169.271C163.27 168.839 162.302 168.623 161.182 168.623H157.63V179.039ZM181.682 167.735L178.49 169.487V168.863L181.682 170.591L180.506 172.559L177.53 170.783L177.866 170.567L177.914 173.903H175.658L175.682 170.567L176.018 170.783L173.042 172.559L171.89 170.591L175.082 168.863V169.487L171.89 167.735L173.042 165.767L176.018 167.567L175.682 167.759L175.658 164.423H177.914L177.866 167.759L177.53 167.567L180.506 165.767L181.682 167.735Z" fill="#1A1A1A"/>
<path d="M74.5 73H1V225H229V73H163" stroke="#1A1A1A"/>
<path d="M132.287 10.3133C132.287 10.3133 132.287 10.2941 132.287 10.2749C132.287 10.2749 132.287 10.2941 132.287 10.3133ZM124.405 36.8905C121.674 37.2354 124.47 44.2103 126.485 44.0762C127.412 44.2295 128.322 43.4246 128.452 42.3133C128.679 39.8222 126.355 37.2929 124.421 36.8905H124.405ZM135.603 27.7504C135.018 28.8618 135.587 30.2223 135.895 31.3337C136.334 32.5217 136.871 33.8246 137.829 34.5336C139.081 35.4917 140.869 34.0738 140.592 32.3492C140.56 30.7205 136.854 25.9684 135.587 27.7313L135.603 27.7504ZM154.813 62.4139C153.513 60.3636 152.067 58.4666 150.718 56.4546C149.434 54.5001 148.036 52.6606 146.671 50.7827C146.102 50.1504 145.159 48.6749 144.152 47.7169C145.582 46.2797 146.882 44.651 148.004 42.869C150.214 38.8067 151.839 33.8247 151.628 28.9193C151.059 25.1827 149.288 21.8486 147.5 18.7636C145.598 15.7552 143.112 13.3791 140.917 10.6965C138.008 7.55399 135.164 4.29652 132.06 1.42227C131.198 0.54083 129.915 -0.877105 129.004 0.732475C128.208 3.16601 129.167 5.88693 129.459 8.35878C129.931 11.3863 130.321 14.4139 130.857 17.4223C127.883 19.3576 125.006 21.4846 122.227 23.8031C120.504 25.2019 118.505 26.4666 117.124 28.4019C113.499 26.6199 109.55 26.1792 105.714 25.3935C100.871 24.4546 104.414 31.851 105.438 34.2079C108.607 40.3205 111.663 46.8355 116.669 51.1085C119.87 54.251 124.112 55.1325 128.175 55.2857C133.051 54.9983 137.894 53.0055 141.958 49.7097C142.218 50.0546 142.526 50.3612 142.786 50.6103C143.485 51.3768 144.119 52.2007 144.769 53.0055C147.597 56.7803 150.506 60.4977 153.123 64.4833C153.432 65.3264 154.83 67.051 153.822 67.7408C150.88 69.772 147.337 67.5684 144.184 67.5109C142.201 67.3768 141.876 69.1588 142.51 70.9983C143.112 73.3935 143.762 75.7695 144.184 78.2031C145.403 84.9671 143.892 85.4462 139.975 80.7516C138.317 78.4138 136.838 75.9228 135.245 73.5276C134.579 72.2438 133.409 71.324 132.19 72.2629C128.387 74.4665 124.6 76.7085 120.618 78.3947C116.652 79.9085 112.443 80.8666 108.217 81.154C106.803 81.0199 106.348 82.3612 106.088 83.7408C105.178 87.3815 104.528 91.1372 103.472 94.7204C100.969 102.692 100.172 100.948 97.8482 94.2223C97.1169 91.5588 96.7431 88.7611 96.483 85.9827C96.3855 85.1971 96.4018 84.2965 95.9629 83.645C95.5566 83.0127 94.8415 82.7252 94.2077 83.051C93.3138 83.53 93.0375 84.7755 92.5662 85.6953C91.0384 88.8378 90.0633 92.3827 88.048 95.1612C87.4954 88.857 88.8606 82.457 90.1445 76.3444C90.4208 75.0989 90.8434 73.7959 90.6321 72.4929C89.7382 69.6186 87.6092 67.4917 86.0814 65.0773C83.9848 62.0115 82.3108 58.5815 80.8156 55.0749C79.7591 52.5264 78.459 49.5755 77.9389 46.6246C76.8175 39.6306 83.0422 46.5288 84.4562 48.6175C86.7315 51.6642 94.9715 65.4989 98.6446 63.9468C101.294 62.2222 103.715 60.0187 106.478 58.5049C109.274 56.7229 112.508 55.324 115.482 53.8103C116.685 51.0127 110.216 53.5037 109.241 53.9636C105.259 55.669 101.603 58.1983 97.9133 60.6318C93.1675 56.6462 90.0958 50.6294 86.2277 45.6091C83.5298 41.6618 75.7611 36.5456 75.2085 45.0151C75.1597 48.0618 76.2649 50.9169 77.2238 53.6762C79.0115 58.5624 80.8968 63.4486 83.6598 67.6833C84.9112 69.657 86.3252 71.4773 87.5766 73.451C86.1952 80.5025 84.4886 87.7072 84.8787 95.0078C85.09 98.6102 87.9667 100.469 90.2096 97.5947C91.8673 95.4102 92.7775 92.6318 93.8989 90.045C94.5327 94.548 95.7842 100.565 99.2297 103.171C105.617 106.352 107.535 89.1444 108.705 84.3731C113.434 84.2582 118.261 83.3576 122.682 81.3264C126.306 79.5827 129.687 77.3983 133.116 75.0222C135.538 78.8162 137.553 83.2809 141.015 85.8869C142.494 87.0175 144.656 87.5157 146.004 85.8869C148.686 82.5145 145.842 74.4282 144.899 70.4617C148.036 71.0941 151.774 72.742 154.781 70.6726C155.805 69.9827 156.699 68.8522 156.699 67.3767C156.682 65.5181 155.691 63.9085 154.813 62.4522V62.4139ZM134.563 49.9588C132.759 50.6486 130.662 51.3576 128.679 51.5684C125.916 51.645 123.023 51.4534 120.488 50.0163C117.449 47.9851 114.946 44.881 112.996 41.5085C110.737 37.2738 107.909 32.9815 106.153 28.3636C109.778 28.7276 113.402 29.2833 117.042 30.2222C118.456 32.2342 119.74 29.245 121.041 28.4785C123.657 26.4282 126.453 24.0714 129.167 22.1169C130.288 21.2355 131.458 20.4115 132.629 19.6258C133.067 19.3001 133.441 18.8402 133.506 18.2079C133.36 15.5636 132.661 12.9384 132.304 10.3324C131.979 8.10968 131.328 5.98275 131.02 3.75999C135.408 7.99472 139.438 12.7468 143.242 17.7289C144.851 19.7792 146.297 22.4618 147.337 25.0486C147.955 26.5624 148.637 28.1528 148.637 29.8965C147.76 39.4965 142.364 47.0845 134.579 49.9779L134.563 49.9588Z" fill="#8FA5BC"/>
</svg>
