<svg width="327" height="92" viewBox="0 0 327 92" fill="none" xmlns="http://www.w3.org/2000/svg">
<path d="M193.517 15.4258C190.672 17.3789 187.787 19.2914 184.96 21.2848C182.779 22.9165 180.607 24.5683 178.406 26.1798C177.901 26.5732 177.386 26.9566 176.89 27.3701C176.618 27.5366 176.522 27.9954 176.881 28.1201C177.08 28.1727 177.291 28.0854 177.472 28.0078C178.186 27.707 178.89 27.3962 179.585 27.0552C180.299 26.7245 181.004 26.3636 181.689 25.9925C181.226 30.0169 181.303 34.0982 181.17 38.1468C181.161 38.8568 181.152 39.5667 181.133 40.2765C180.708 39.8609 180.283 39.4554 179.869 39.0399C178.317 37.5896 176.827 36.07 175.256 34.6294C173.781 33.4401 171.199 29.7162 169.241 31.8408C166.056 35.3096 163.533 39.3271 160.536 42.9484C158.798 45.0959 157.228 47.3656 155.639 49.6251C155.251 50.1701 154.835 50.6947 154.447 51.2397C154.184 51.5363 154.067 52.0548 154.494 52.2504C155.232 52.46 156.679 51.1488 158.037 49.7264C157.855 55.2845 158.964 60.7694 159.502 66.2869C159.521 66.3571 159.55 66.4075 159.58 66.4579C159.268 66.5438 159.035 66.7808 159.281 67.104C159.628 67.3686 160.108 67.3248 160.517 67.4102C162.135 67.5913 163.753 67.7424 165.372 67.8235C167.491 67.9111 169.612 67.8587 171.72 68.0462C173.698 68.242 175.666 68.3377 177.648 68.2435C181.099 68.1884 184.506 67.6528 187.93 67.4074C193.663 67.1621 199.389 66.7866 205.13 66.7414C208.402 66.6041 211.669 66.8167 214.941 66.7093C216.112 66.6245 217.381 66.7011 218.468 66.1952C219.253 65.7954 219.356 64.8067 218.955 64.1414C219.245 63.3551 219.1 62.1831 219.3 61.4456C219.3 61.4156 219.301 61.3956 219.311 61.3658C221.826 60.2284 224.428 59.3423 227.078 58.5767C230.905 57.3365 234.947 57.1992 238.938 57.1312C242.75 57.0008 246.594 57.461 250.198 58.718C251.573 59.126 252.989 59.4344 254.271 60.0912C254.817 60.3883 255.343 60.7152 255.868 61.0521C256.801 61.6443 258.135 62.8618 259.1 61.6743C260.201 60.0785 257.904 59.0685 256.834 58.3144C255.148 57.2224 253.235 56.6674 251.312 56.1323C253.331 51.6382 256.969 47.9853 260.7 44.8237C268.034 38.4387 277.89 35.7369 287.497 36.0421C291.995 36.1807 296.685 36.2518 300.942 38.0075C302.266 38.5148 303.788 39.1146 304.997 39.9805C305.96 40.5531 307.089 42.1179 308.263 41.0831C309.898 39.1443 305.301 36.6041 303.821 35.8548C301.189 34.4404 298.278 33.6924 295.309 33.5837C291.443 33.2833 287.562 33.3427 283.699 33.5824C272.251 34.0933 262.319 38.8143 254.953 47.639C253.673 49.1725 252.481 50.8071 251.648 52.6264C251.525 52.8648 250.843 54.4761 250.435 55.8609C250.067 55.7561 249.708 55.6514 249.34 55.5366C248.622 55.3172 247.884 55.1576 247.156 55.0081C247.198 54.8986 247.229 54.789 247.231 54.659C247.201 52.3584 247.041 50.0361 246.861 47.7236C246.796 47.3827 246.822 46.903 246.585 46.6199C248.083 46.0194 249.338 44.9456 250.541 43.8912C253.343 41.4575 255.377 38.1138 255.975 34.4312C256.383 30.7662 255.513 26.8946 253.665 23.7102C251.673 20.744 248.186 18.9984 244.701 18.543C242.204 18.3304 239.655 19.0073 237.43 20.1284C232.849 22.4989 229.455 27.3651 229.257 32.5629C229.074 38.181 231.146 43.3885 236.556 45.7292C237.638 46.3333 238.845 46.6191 240.052 46.8448C240.008 47.1143 239.985 47.384 239.932 47.5733C239.724 49.0207 239.455 50.4673 239.276 51.9251C239.208 52.5343 239.076 53.4326 239.247 54.1349C238.887 54.1302 238.537 54.0957 238.177 54.091C231.81 53.888 227.168 54.7576 221.663 58.1261C221.22 58.4204 220.312 58.9886 219.574 59.629C219.859 57.6526 220.105 55.6756 220.191 53.6766C220.195 53.3866 220.232 52.8371 220.26 52.2274C220.875 53.3955 221.377 55.5722 223.074 54.9943C224.251 54.4996 223.958 53.2056 223.52 52.2798C223.104 51.2143 222.647 50.1683 222.161 49.1419C221.059 46.9473 220.199 44.6459 219.148 42.432C217.864 39.6351 215.997 36.3605 213.082 39.7928C211.462 41.2818 209.872 42.8012 208.381 44.4219C208.188 44.6594 207.579 45.3215 207.01 46.0342C207.021 45.9643 207.032 45.8945 207.042 45.8246C208.121 39.8181 209.189 33.8015 210.158 27.7737C210.413 28.137 210.679 28.5005 210.934 28.8739C211.471 29.8709 212.27 30.7314 213.43 29.9765C214.987 28.6567 212.76 26.8475 212.066 25.6083C210.476 23.3274 208.825 21.0857 207.043 18.9423C205.9 17.6073 204.575 16.4399 203.301 15.2332C202.084 14.1973 200.855 12.5911 199.125 12.5786C197.108 13.1324 195.243 14.2482 193.517 15.4258ZM238.48 43.9541C235.013 42.1387 233.258 40.2157 232.509 36.2956C231.416 31.1509 233.44 26.2669 237.828 23.3738C242.065 20.5688 247.217 21.206 250.618 24.9906C252.378 27.2637 253.1 30.2334 253.343 33.0568C253.492 37.7292 250.19 41.7265 246.663 44.4707C245.997 45.0021 245.166 45.0313 244.355 45.0907C242.403 45.2453 240.258 44.8573 238.49 43.9442L238.48 43.9541ZM241.466 54.2539C241.734 53.6073 241.745 52.7474 241.773 52.1377C241.725 51.267 241.898 48.679 241.569 47.0946C243.027 47.2636 244.496 47.3128 245.902 46.861C245.583 47.5869 245.494 49.0659 245.398 49.4747C245.206 51.1923 244.943 52.9091 244.991 54.6398C243.823 54.4746 242.645 54.3392 241.466 54.2539ZM169.185 65.303C169.115 65.302 169.045 65.3211 168.965 65.3201C169.056 64.5312 169.066 63.7213 169.136 62.9421C169.24 59.6032 169.323 56.254 169.127 52.9111C169.391 52.6046 169.753 52.4193 170.125 52.2941C171.129 51.9971 172.114 51.6499 173.137 51.4133C173.918 55.9138 173.628 60.5604 173.998 65.1356C172.388 65.1547 170.788 65.1338 169.186 65.293L169.185 65.303ZM176.259 65.0651C176.183 61.7138 175.986 58.371 175.65 55.0363C175.369 53.5425 175.427 50.633 174.018 49.8046C172.962 49.4608 171.686 49.9042 170.614 50.0403C169.622 50.2274 168.598 50.484 167.8 51.1537C166.092 52.4716 166.866 55.2719 166.881 57.1522C167.02 58.8242 167.248 60.4773 167.416 62.1496C167.532 63.2512 167.618 64.3524 167.733 65.454C165.61 65.6764 163.496 65.9689 161.373 66.2312C161.437 65.912 161.431 65.5819 161.465 65.2524C161.51 61.8126 161.155 58.3477 160.579 54.9599C160.263 53.1357 159.927 51.3111 159.32 49.5631C159.213 49.2916 159.137 48.9706 158.961 48.7283C159.742 47.8584 160.422 47.0672 160.787 46.6919C164.489 42.7098 167.776 38.3723 170.726 33.8104C173.633 36.3385 176.247 39.1627 179.285 41.6225C179.821 41.9396 180.441 42.6977 181.086 43.0661C180.932 49.5447 180.677 56.0219 180.933 62.4958C181.004 63.1968 180.994 63.9467 181.226 64.6098C179.573 64.8083 177.92 64.9767 176.259 65.0751L176.259 65.0651ZM215.263 41.2613C216.579 43.8287 217.663 46.5831 218.878 49.2991C218.731 49.8172 218.694 50.3768 218.587 50.9055C218.274 52.6515 217.902 54.3768 217.659 56.1338C217.352 58.23 217.004 60.3256 216.807 62.4432C216.773 62.7228 216.739 63.0424 216.735 63.3624C215.516 63.2765 214.286 63.2605 213.077 63.1747C210.218 63.0774 207.358 63.0602 204.497 63.0929C205.462 58.095 206.029 53.022 206.754 47.981C207.671 47.4529 208.53 46.8041 209.398 46.1953C211.489 44.6224 213.299 43.0459 215.273 41.2614L215.263 41.2613ZM202.285 17.9502C204.331 19.857 206.032 22.0594 207.703 24.3014C207.601 24.4401 207.499 24.5987 207.437 24.7979C206.596 27.9272 206.223 31.1627 205.672 34.3458C205.119 37.6288 204.377 40.8794 203.934 44.1739C203.122 50.4539 202.949 56.7922 202.977 63.1231C200.756 63.1541 198.535 63.2052 196.314 63.2763C192.832 63.4409 189.349 63.6156 185.884 63.9804C184.632 64.1541 183.389 64.328 182.137 64.4916C182.282 64.0935 182.359 63.5745 182.402 63.325C183.277 56.0458 183.843 48.7225 184.168 41.3962C184.379 35.9384 184.411 30.4684 184.762 25.0125C184.765 24.7525 184.698 24.5316 184.601 24.3403C186.254 23.3418 187.877 22.3029 189.54 21.3244C191.032 20.3938 192.515 19.4331 193.958 18.4218C195.694 17.2543 197.263 15.8046 199.165 14.8993C200.344 15.7647 201.269 16.9169 202.295 17.9404L202.285 17.9502ZM191.594 36.4325C191.648 34.563 191.593 32.6022 191.017 30.8245C190.89 30.5628 190.743 30.3109 190.485 30.1475C189.451 29.694 189.442 31.194 189.313 31.8524C189.094 33.2997 188.726 34.725 188.666 36.1943C188.663 38.0044 191.32 38.2191 191.594 36.4325ZM195.886 31.668C195.861 33.6078 195.355 35.5414 195.49 37.4734C195.71 39.0263 197.992 38.9061 198.032 37.3365C198.119 36.0375 197.746 34.7625 197.583 33.4803C197.405 32.5379 197.287 31.5863 196.919 30.6914C196.822 30.4601 196.716 30.1487 196.447 30.0652C195.778 29.9465 195.992 31.2394 195.896 31.6581L195.886 31.668ZM200.883 31.9032C200.619 32.9698 200.276 34.0154 200.062 35.0927C199.847 36.21 201.348 36.9596 202.118 36.1496C202.868 35.3793 202.265 34.0613 202.258 33.1012C202.115 32.5593 202.31 30.6116 201.365 30.9794C201.053 31.1653 200.978 31.5844 200.883 31.9032ZM189.273 56.4439C189.282 54.9839 188.741 50.3865 187.683 49.5126C186.966 49.2333 186.831 50.4316 186.754 50.9107C186.589 52.1086 186.473 53.3072 186.367 54.5159C186.314 55.5253 186.007 56.8414 186.888 57.583C187.798 58.3549 189.297 57.6344 189.283 56.4441L189.273 56.4439ZM193.46 50.508C193.172 52.6844 192.704 54.8485 192.615 57.0375C192.643 58.7281 195.123 58.7604 195.185 57.071C195.208 54.5211 195.082 51.9193 194.595 49.4127C194.539 49.1019 194.182 48.8573 193.929 49.114C193.604 49.4898 193.567 50.0293 193.47 50.5081L193.46 50.508ZM199.204 51.0529C199.05 52.901 198.646 54.7159 198.522 56.5645C198.495 57.1142 198.989 57.5806 199.519 57.5875C200.059 57.5946 200.544 57.1409 200.542 56.5908C200.47 54.4197 200.308 52.2374 200.016 50.0834C199.98 49.8129 199.829 49.1309 199.445 49.4359C199.228 49.9331 199.291 50.524 199.204 51.0529ZM212.202 57.4328C212.202 55.8827 211.852 54.348 211.491 52.8432C211.377 52.4016 211.294 51.8505 210.898 51.5753C210.242 51.2267 209.851 52.0717 209.824 52.6114C209.603 54.2587 209.241 55.9241 209.339 57.5955C209.409 58.3765 210.182 58.9366 210.943 58.8465C211.644 58.7557 212.202 58.1429 212.202 57.4328ZM214.681 52.1647C214.467 53.942 214.234 55.7291 214.041 57.5168C213.978 58.516 215.33 59.0837 216.02 58.3626C216.679 57.7012 216.222 56.6651 216.193 55.8447C216.055 54.8728 215.938 53.8912 215.791 52.9192C215.696 52.4879 215.683 51.9877 215.418 51.6242C214.992 51.2786 214.696 51.7748 214.68 52.1747L214.681 52.1647Z" fill="#F2B199"/>
<path d="M286.471 57.6468C280.691 50.34 269.907 56.6792 268.938 64.5862C265.866 65.3933 263.704 68.0207 262.939 71.0201C262.022 74.4461 262.001 78.7175 264.475 81.5091C264.51 81.5329 264.548 81.5664 264.585 81.6C264.579 81.6216 264.561 81.6352 264.555 81.6567C264.502 81.9113 264.723 82.052 264.95 82.0692C265.197 82.0827 265.454 82.0942 265.699 82.0978C267.405 82.1758 269.113 82.2127 270.815 82.2202C275.065 82.1838 279.105 82.1676 283.39 82.308C289.47 82.2544 295.527 81.5025 301.614 81.3764C306.272 81.2408 310.934 81.3288 315.59 81.1834C317.128 81.1309 318.672 81.1588 320.211 81.1162C320.343 81.1112 320.457 81.0688 320.569 81.0166C320.85 80.9929 321.128 80.9595 321.407 80.9261C322.335 80.8793 323.211 80.3537 323.56 79.4715C324.692 76.4725 324.33 72.5908 323.045 69.6816C323.594 68.0379 323.468 66.2288 323.254 64.5388C322.886 60.3119 318.675 55.065 314.128 57.5215C313.997 53.4119 311.441 49.6176 308.002 47.4706C305.038 45.5171 301.361 45.4631 297.972 46.0563C292.063 46.9936 287.934 52.0887 286.473 57.6566L286.471 57.6468ZM320.145 69.9565C319.502 71.0583 318.621 72.033 317.485 72.6393C316.952 72.8848 316.142 73.4383 315.67 72.837C315.175 71.9649 314.977 70.3024 315.733 69.525C317.075 68.7769 319.015 68.8506 320.145 69.9565ZM304.722 49.5806C307.034 50.6315 308.776 52.5867 310.026 54.7386C310.757 56.0948 310.905 57.6549 311.144 59.1568C311.312 59.8169 311.421 60.5904 311.987 61.0413C313.279 61.9325 314.198 60.3088 315.2 59.7487C316.482 59.0022 317.947 59.8396 318.831 60.83C320.371 62.5289 320.802 64.9205 320.795 67.1524C318.39 65.8243 314.468 66.2962 313.31 69.0558C312.722 70.8091 312.852 73.0653 314.099 74.5151C316.408 76.7683 319.919 74.1657 321.54 72.2231C322.185 73.9827 322.378 75.9315 322.165 77.7853C322.044 79.0005 321.595 78.9955 320.521 79.1315C320.112 79.2308 319.528 79.1602 319.008 79.2097C318.493 79.1768 317.975 79.1341 317.463 79.1209C315.932 79.1009 314.404 79.1005 312.866 79.102C307.371 79.1752 301.864 78.8227 296.373 79.1292C291.769 79.2338 287.186 79.7622 282.579 79.8472C277.958 79.8634 273.329 79.9933 268.735 80.5746C267.607 80.7416 266.414 80.7885 265.335 81.1598C265.283 80.9967 265.221 80.8355 265.169 80.7234C263.274 76.6589 264.215 69.1341 269.016 67.5756C269.212 68.8007 269.464 70.1066 270.218 71.1118C271.717 73.1242 274.752 73.017 275.632 70.5047C276.508 67.8198 274.075 65.1324 271.577 64.4842C272.336 60.3962 277.707 56.2527 281.806 58.0687C282.832 58.5835 283.826 59.1962 284.627 60.0193C285.172 60.627 285.774 61.5293 286.707 61.3492C287.694 61.1891 287.982 60.0947 288.295 59.2907C288.902 57.4728 289.547 55.6473 290.578 54.0224C292.089 51.6124 294.47 49.7573 297.271 49.1249C299.714 48.694 302.397 48.5629 304.719 49.5609L304.722 49.5806ZM271.614 67.7361C272.284 68.1466 272.762 68.8283 272.968 69.5828C272.964 69.7161 272.912 69.8688 272.844 69.9938C271.895 69.7188 271.795 68.5669 271.616 67.7459L271.614 67.7361Z" fill="#F2B199"/>
<path d="M99.3866 41.7217C98.3233 40.4278 97.3008 39.0843 96.0958 37.9185C93.882 35.8995 93.1171 36.2696 91.0525 38.1428C90.2426 38.8924 89.472 39.7024 88.7512 40.5331C88.5484 40.7404 88.3953 40.9785 88.2621 41.2267C87.5582 40.7475 86.7237 40.3266 86.3085 39.9512C84.2668 38.5345 81.757 37.7317 79.2784 37.6094C78.5782 37.6203 78.0109 38.1829 77.8621 38.851C77.6536 39.5084 77.3752 40.1448 77.1368 40.7917C76.7304 42.0466 76.204 43.2998 75.8374 44.5751C74.2089 42.9138 72.317 41.509 70.3528 40.2833C69.3211 39.6398 67.6096 38.9774 66.793 40.2469C65.817 42.2344 64.7905 44.2612 64.3819 46.456C64.3131 47.8952 64.4942 49.3477 64.6255 50.7896C65.0268 55.2952 65.438 59.8109 66.2902 64.2524C66.8587 67.4401 67.2266 70.6751 68.1662 73.7777C68.2049 73.8782 68.2937 73.9693 68.3931 74.0206C68.3718 74.1204 68.3904 74.2206 68.4491 74.3214C68.5473 74.4627 68.7165 74.5249 68.8769 74.497C69.3476 74.4431 69.7996 74.299 70.2608 74.205C76.6214 72.6677 82.9727 71.0704 89.5016 70.4354C97.0138 69.5432 104.682 69.7231 112.202 70.5712C117.383 71.2888 122.436 72.6447 127.468 74.0104C129.462 74.5264 131.442 75.2623 133.352 76.0572C134.613 76.7737 135.584 75.9163 135.98 74.7114C136.817 72.6321 137.096 70.3855 137.525 68.2009C138.277 64.2304 139.346 60.464 140.586 56.5799C140.918 54.184 137.844 51.4037 136.244 49.8627C135.583 49.154 134.644 49.0318 133.828 49.5412C132.87 50.0888 131.843 50.6454 131.122 51.4961C131.061 51.5953 131.019 51.7048 130.968 51.8141C130.919 51.7135 130.88 51.613 130.851 51.5426C130.092 49.9825 129.191 48.4907 128.381 46.96C127.171 43.884 124.581 45.4003 122.388 46.3919C122.005 46.6069 121.701 46.9029 121.457 47.2398C120.031 45.3611 115.946 41.8875 115.073 41.3161C113.59 40.7667 112.037 42.5667 110.857 43.2913C110.514 43.4969 110.221 43.7231 109.968 43.9598C109.775 43.4573 109.281 42.9608 108.966 42.5966C108.167 41.7562 107.256 41.0142 106.275 40.3814C105.758 40.0846 105.172 39.787 104.562 39.829C103.601 39.8665 103.11 40.7302 102.531 41.3727C101.942 42.0751 101.412 42.8182 100.903 43.5717C100.873 43.5313 100.834 43.4808 100.804 43.4404C100.352 42.8544 99.8791 42.2982 99.4065 41.722L99.3866 41.7217ZM78.151 70.4075C76.3046 70.8835 74.4577 71.3994 72.6498 71.9959C71.4437 72.4602 70.0992 72.7928 68.9999 73.4985C69.0658 73.0493 68.9835 72.4582 68.9776 72.1381C68.7637 69.3651 68.5399 66.5919 68.1857 63.8371C67.6178 59.8393 67.2605 55.7943 66.9029 51.7693C66.375 46.232 65.7915 47.2645 68.4389 42.1085C70.3848 43.204 72.1971 44.5777 73.878 46.0497C74.313 46.4354 74.8553 47.0325 75.4321 47.2801C75.4305 47.4001 75.429 47.5201 75.4273 47.65C75.7665 50.7847 76.2558 53.9114 76.5248 57.0551C76.9294 61.3108 77.7055 65.4512 78.1 69.7167C78.138 69.8673 78.1445 70.1374 78.1608 70.4176L78.151 70.4075ZM78.8033 70.236C78.9338 67.1274 78.5645 64.0023 78.2848 60.9084C77.8555 56.2424 77.6267 51.549 77.1574 46.8825C77.5194 44.427 78.6593 42.1417 79.4896 39.8223C81.2039 40.2747 82.8553 40.9463 84.435 41.7469C85.2596 42.1677 86.0737 42.6184 86.8674 43.1087C87.1252 43.2821 87.4327 43.4761 87.751 43.6103C86.9074 50.7899 87.0827 58.0528 87.7391 65.242C87.8336 65.6632 87.9006 67.4343 88.2378 68.4187C85.0619 68.8474 81.9137 69.4564 78.8034 70.226L78.8033 70.236ZM134.868 51.0749C136.358 52.5744 137.887 54.2045 138.752 56.1559C137.58 59.3809 136.646 62.689 136.092 66.0921C135.455 68.964 135.315 71.9925 134.18 74.7179C131.965 73.549 129.698 72.4793 127.277 71.8277C127.731 71.4636 127.67 70.8228 127.787 70.2942C127.965 68.8864 128.192 67.5693 128.521 66.0935C129.201 63.0321 130.029 60.1526 130.829 57.0528C131.289 55.5486 131.65 53.9632 132.468 52.6037C133.186 51.983 134.022 51.5239 134.868 51.0649L134.868 51.0749ZM129.522 52.2753C129.788 52.5288 130.054 52.8423 130.371 53.0665C129.174 55.9611 128.752 59.1659 127.753 62.1231C127.134 64.3352 126.505 66.5472 126.046 68.7914C125.935 69.6401 125.643 70.5463 125.792 71.3983C123.461 70.6879 121.099 70.0771 118.716 69.556C119.686 66.4584 119.929 63.1712 120.57 59.9893C121.002 57.5547 121.494 55.1409 122.045 52.7279C122.383 51.3322 122.581 49.9447 123.229 48.633C123.525 48.1668 124.225 48.1559 124.688 47.912C125.16 47.7481 125.633 47.5642 126.134 47.4708C127.213 49.105 128.21 50.8181 129.542 52.2656L129.522 52.2753ZM114.487 43.3486C115.752 44.4852 117.109 45.513 118.486 46.521C118.823 46.7154 120.01 47.711 120.914 48.1828C120.605 48.9088 120.424 49.7266 120.225 50.444C118.824 56.6263 118.082 62.9471 116.751 69.1403C114.417 68.6799 112.061 68.3292 109.704 68.0784C109.974 65.7417 109.955 63.3613 110.036 61.0121C110.275 56.4649 110.285 51.8946 110.694 47.3596C110.76 46.9104 110.836 46.4613 111.051 46.0541C111.345 45.7779 111.707 45.5726 112.021 45.3067C112.869 44.6777 113.668 43.988 114.497 43.3488L114.487 43.3486ZM104.623 42.01C105.845 42.636 106.924 43.5201 107.912 44.4631C108.197 44.8268 108.542 45.2013 108.941 45.2865C108.407 46.3597 108.271 47.608 108.203 48.9972C108.101 55.2764 107.878 61.5841 107.567 67.8606C105.589 67.7048 103.599 67.6188 101.599 67.6228C100.599 67.6097 99.6092 67.6168 98.609 67.6238C98.6757 67.1046 98.7029 66.5549 98.7863 66.296C99.1173 63.9201 99.4771 61.6346 99.7286 59.2177C100.074 55.0018 100.868 50.8018 101.314 46.5673C101.624 45.7912 102.252 45.1594 102.721 44.4854C103.382 43.634 103.902 42.8607 104.613 42.0099L104.623 42.01ZM98.393 44.289C98.7586 44.6338 99.1612 45.1991 99.6165 45.5651C99.2345 46.4802 99.3109 47.5312 99.1281 48.509C98.8632 50.4157 98.5171 52.4213 98.2919 54.3486C97.8592 57.6232 97.6863 60.9212 97.3934 64.2077C97.3951 64.8478 97.2034 66.5054 97.2983 67.6667C94.507 67.7504 91.7237 67.9841 88.959 68.3281C88.8619 65.0366 89.0859 61.6592 89.089 58.349C89.1046 54.8489 89.0704 51.3381 89.4261 47.8325C89.9046 41.8082 88.9153 43.2854 93.6183 39.2464C95.4297 40.6901 96.7847 42.6179 98.383 44.2889L98.393 44.289ZM73.3759 65.3948C73.3851 63.9248 73.2142 62.4525 73.1434 60.9814C72.9745 60.1291 73.3076 58.3533 71.9758 58.486C71.5248 58.5601 71.2288 59.0163 71.3131 59.4574C71.4308 60.3991 71.6188 61.3216 71.8367 62.2545C72.0452 63.1373 72.2536 64.0301 72.4822 64.9031C72.578 65.2244 72.6327 65.6352 72.8593 65.8981C73.206 66.1527 73.4121 65.6853 73.3859 65.395L73.3759 65.3948ZM102.438 59.263C101.991 61.3174 101.994 63.4376 101.727 65.5243C101.569 66.1023 101.77 66.7949 102.428 66.9235C102.917 67.0199 103.471 66.6971 103.558 66.1782C103.847 63.9618 104.505 61.8101 104.714 59.5827C104.833 58.1841 102.706 57.8964 102.438 59.273L102.438 59.263ZM51.5894 66.521C51.4777 65.8795 50.5801 65.6878 50.2329 66.2433C49.9268 66.7094 50.2796 67.264 50.4233 67.7459C50.6189 68.0885 51.4632 70.8298 51.9548 69.9461C52.0495 68.8172 51.7446 67.6532 51.5892 66.531L51.5894 66.521ZM55.8539 68.5068C55.9147 67.6775 55.8156 66.8361 55.8466 65.9965C55.8385 65.0763 56.0904 63.3994 54.6782 63.561C54.1669 63.6544 53.8001 64.1796 53.9034 64.691C54.1576 65.9044 54.5723 67.08 54.8667 68.2839C54.6781 68.9415 55.7247 69.2051 55.8539 68.5068Z" fill="#D9695F"/>
<path d="M41.2486 6.28718C34.4724 4.2353 27.5159 7.15126 25.1259 14.0112C24.2417 16.5864 23.8851 19.5081 24.7508 22.1349C25.3812 24.0594 26.6838 25.6885 28.1306 27.0758C29.5335 28.355 31.3689 29.0086 33.1524 29.5482C33.4082 29.8404 33.8461 29.8568 34.1961 29.9571C34.432 30.0093 34.658 30.0415 34.9 30.0857C33.8209 31.3387 32.8613 35.4459 32.6666 36.2377C32.6059 37.0177 32.0905 38.7192 32.2495 39.8394C24.733 40.3709 17.3555 42.1325 10.2707 45.3523C9.24431 45.8194 3.5382 48.2365 4.02917 49.4309C4.1551 49.513 4.32713 49.4672 4.45717 49.4273C5.23936 49.202 6.00361 48.9006 6.75189 48.5873C9.86701 47.288 12.9281 46.0606 16.149 45.0034C29.7732 40.2052 45.0089 40.5205 58.5547 45.4322C59.0805 45.5647 59.6388 45.2711 59.8252 44.7733C60.2664 43.4537 58.5747 43.0582 57.6571 42.6814C54.7 41.5729 51.5684 41.0961 48.4709 40.5574C45.6073 40.107 42.7495 39.8485 39.8976 39.732C40.9794 37.643 41.3363 31.9573 40.7017 30.4047C43.97 30.0335 47.1612 28.6663 49.2254 26.1021C55.5425 17.9276 50.4144 8.82113 41.2366 6.30316L41.2486 6.28718ZM39.3271 31.0855C38.6734 32.9709 38.4337 34.9547 38.016 36.8924C37.8533 37.7082 37.6846 38.5321 37.6599 39.3641C37.6538 39.4721 37.7158 39.5561 37.7357 39.6461C36.6557 39.6352 35.5717 39.6463 34.4916 39.6853C34.5377 39.5574 34.5779 39.4374 34.6119 39.3254C35.2213 37.732 35.6827 36.1024 35.9002 34.4145C36.0171 33.3266 36.4088 31.407 35.9798 30.2466C36.2638 30.2849 36.5477 30.3231 36.8317 30.3614C37.7136 30.4861 38.6156 30.5009 39.5256 30.4717C39.4554 30.6816 39.4072 30.8956 39.3211 31.0935L39.3271 31.0855ZM47.3008 24.4684C46.1893 26.2975 42.0671 28.7539 39.9332 28.664C37.2272 28.6197 34.5878 27.9874 32.1829 26.7433C30.6494 26.104 29.3585 24.8589 28.4397 23.4681C26.0287 20.018 26.8709 15.1347 29.2138 11.8667C31.2964 8.82855 35.2512 7.85998 38.7408 8.39301C46.7257 9.70194 52.3153 16.9788 47.3069 24.4604L47.3008 24.4684ZM33.9734 58.4209C33.818 57.7288 32.9805 57.162 32.5677 58.0777C32.4694 58.3416 32.3932 58.6095 32.311 58.8855C31.9177 60.3911 30.2284 64.1876 32.6059 64.6857C34.9897 64.9258 34.5382 59.8334 33.9814 58.4269L33.9734 58.4209ZM38.7378 60.237C38.2009 61.2346 37.72 62.2741 37.3911 63.3778C37.1203 64.2876 38.2216 65.1026 39.022 64.6033C39.2661 64.4615 39.4864 64.2017 39.5386 63.9157C39.6732 63.2038 39.7138 62.4839 39.7385 61.7519C39.743 61.1799 39.8015 60.5859 39.694 60.0299C39.4805 59.4817 38.9001 59.8712 38.7318 60.245L38.7378 60.237ZM36.8114 16.8873C36.4399 16.383 35.9873 16.9686 35.909 17.3725C35.6759 18.5983 33.6571 21.8846 35.6687 22.3203C37.4186 22.4718 36.8855 19.0694 36.9765 17.9495C36.9688 17.5935 36.9711 17.2075 36.8114 16.8873ZM42.7793 17.0685C42.3783 18.1682 41.9054 19.2638 41.6024 20.3995C41.4157 21.1473 41.947 21.9218 42.709 22.0064C44.6489 22.0881 44.179 19.6337 44.2041 18.3517C44.1387 17.6397 44.2395 16.8398 43.884 16.1975C43.2925 15.603 42.9117 16.5926 42.7713 17.0625L42.7793 17.0685Z" fill="#5CAA93"/>
</svg>
