<svg width="195" height="129" viewBox="0 0 195 129" fill="none" xmlns="http://www.w3.org/2000/svg">
<mask id="mask0_72_1431" style="mask-type:alpha" maskUnits="userSpaceOnUse" x="0" y="0" width="195" height="129">
<rect y="0.970703" width="195" height="127.51" fill="#D9D9D9"/>
</mask>
<g mask="url(#mask0_72_1431)">
<path d="M29.101 12.1668C29.5109 14.0485 26.4307 17.7996 25.3625 19.4399C23.841 21.5506 22.3381 23.6737 20.8042 25.772C17.7674 29.9378 14.4326 33.8807 10.9549 37.6874C9.64451 39.1297 8.24722 40.4914 6.76298 41.7541C5.76935 42.5898 4.65152 43.5616 3.26043 43.4006C1.48432 43.2026 -0.279377 42.7383 -1.87539 41.9275C-3.1609 41.3209 -4.316 40.4605 -5.48973 39.6682C-9.09785 38.0464 -12.4886 36.0162 -16.1278 34.4873C-17.1649 34.0293 -18.2082 33.6022 -19.2515 33.1565C-20.5184 32.618 -21.7728 32.0733 -23.0025 31.4481C-24.1079 30.8477 -25.2009 30.2349 -26.3001 29.6283C-27.9396 28.706 -29.6349 27.8209 -30.9515 26.4591C-31.4545 25.9763 -31.9327 25.4254 -32.1314 24.7383C-33.0754 21.6372 -29.6225 18.9509 -27.7284 16.9206C-25.0208 14.3642 -22.1268 12.0183 -19.2515 9.64757C-18.1461 8.73767 -17.0407 7.82158 -15.9539 6.88691C-11.1596 2.7645 -6.33431 -1.33316 -1.74498 -5.6846C-0.478102 -6.86685 0.78878 -8.04911 2.06808 -9.21898C2.6891 -9.78845 3.30391 -10.3517 3.92492 -10.915C4.85645 -11.7568 5.8004 -12.5801 6.75677 -13.3971C7.05486 -13.6695 7.42126 -13.9232 7.83735 -13.8799C8.27827 -13.818 8.59499 -13.4838 8.88687 -13.1743C9.30295 -12.7162 9.65693 -12.2025 10.0171 -11.7073C10.6133 -10.8964 11.1846 -10.0608 11.7249 -9.21279C11.874 -8.98377 12.0168 -8.75475 12.1534 -8.52572C14.3208 -5.0161 16.4509 -1.46314 19.0219 1.76175C21.1334 4.36766 23.4063 6.84359 25.8842 9.10287C26.5549 9.68471 27.2504 10.2232 27.9584 10.7617C28.4552 11.1207 28.9706 11.5417 29.101 12.173V12.1668Z" fill="#8FA5BC"/>
<path d="M116.292 58.8318C117.186 62.8862 116.969 67.1571 116.019 71.1805C115.758 72.2452 115.435 73.2912 114.957 74.2878C114.584 75.0987 114.137 75.8662 113.106 75.6619C111.324 75.4081 109.598 74.8573 107.828 74.5416C105.344 73.9597 102.754 73.6317 100.413 72.5918C99.4936 72.208 99.4315 71.521 99.4563 70.642C99.4563 69.5278 99.3631 68.4075 99.1458 67.3119C98.6055 64.0932 96.2767 61.6358 93.8858 59.587C92.0972 57.9405 90.0292 56.6592 87.9861 55.3655C86.7999 54.5051 87.1477 54.957 86.0361 55.5512C85.0983 56.1083 84.1109 56.5911 83.0925 56.9935C79.1552 58.4666 75.1061 59.6117 71.0012 60.5217C68.6103 61.0602 66.1945 61.4377 63.7787 61.8091C61.2574 62.2177 58.6305 62.4776 56.1526 61.7163C56.3079 62.2796 56.4135 62.8366 56.4197 62.9728C57.1463 68.6241 54.9665 74.0897 53.1407 79.3263C51.9421 82.9969 50.5697 87.0821 51.998 90.8765C53.3146 95.3455 58.6864 95.8531 62.6299 95.3579C65.3189 94.9927 67.9147 94.1571 70.4485 93.2101C71.2558 92.9377 72.0445 92.622 72.8021 92.2506C73.8889 92.1145 74.4913 93.5319 74.926 94.318C76.1867 97.3511 77.8262 100.248 78.6149 103.46C78.8074 104.451 79.5464 105.621 78.6708 106.475C78.2733 106.921 77.7517 107.218 77.2425 107.515C75.7768 108.369 74.2367 109.099 72.6531 109.706C69.5294 111 66.1883 111.513 62.8534 111.897C60.0402 112.343 57.1959 112.733 54.3393 112.615C50.9237 112.386 47.4584 112.089 44.1856 111.031C40.919 109.885 38.0127 107.861 35.5534 105.447C33.1936 102.959 31.2622 100.037 29.8028 96.9363C27.4057 91.7369 26.6791 85.968 26.7287 80.2919C26.8467 74.5354 27.505 68.7541 29.0389 63.1895C29.1507 62.7995 29.2625 62.4157 29.3805 62.0258C26.1388 60.6888 22.8971 59.3518 19.6988 57.9219C15.2585 55.9041 10.9983 53.5272 6.91824 50.8655C3.70757 48.8353 0.409958 46.8917 -2.34116 44.2486C-2.8566 43.772 -3.30995 43.1345 -2.78829 42.435C-2.24179 41.6118 -1.61456 40.8504 -1.01218 40.0705C2.80709 35.3415 6.26617 30.3339 9.96745 25.5121C12.9483 21.5258 16.0721 17.651 19.2206 13.7947C21.2886 11.2693 23.4001 8.76862 25.7227 6.4722C26.3561 5.90892 27.0703 5.01759 28.0143 5.23423C29.1507 5.7418 30.2375 6.62694 31.2622 7.27687C34.1251 9.2019 37.137 10.9041 40.0434 12.7672C43.1174 14.6737 46.3095 16.3883 49.4394 18.1957C54.333 21.0554 59.3136 23.7851 64.6233 25.803C66.8776 26.75 69.194 27.5547 71.4483 28.5017C74.9323 30.043 78.6087 31.5162 82.1547 32.816C89.5821 35.4467 97.2144 37.9103 104.108 41.7789C107.722 43.8958 110.877 46.836 113.094 50.3889C114.615 53.001 115.603 55.9041 116.298 58.8318H116.292Z" fill="#F26457"/>
<path d="M82.2727 82.2046C82.7012 84.2782 83.6948 86.3456 83.4651 88.4934C83.3533 89.23 82.5832 89.7933 81.8628 89.4652C80.9996 89.1929 80.6581 88.3077 80.3413 87.5464C79.9252 86.686 79.6706 85.7637 79.4098 84.8414C79.0496 83.5849 78.646 82.3346 78.3106 81.0657C77.7827 79.2644 77.112 77.5189 76.8823 75.6434C76.8015 75.0058 76.6649 74.3497 76.8139 73.7121C76.9568 73.087 77.5157 72.4804 78.205 72.5547C79.9252 72.8084 80.8071 76.9494 81.248 78.4226C81.5647 79.6915 81.9746 80.9295 82.2789 82.1984L82.2727 82.2046Z" fill="#5CAA93"/>
<path d="M89.4889 35.75C88.7127 32.2033 86.5888 29.0217 83.6203 26.9172C80.3848 24.5712 76.5345 24.3917 72.858 25.772C71.1254 26.4034 69.4114 27.1338 67.8154 28.0623C66.2504 28.9722 64.791 30.043 63.2881 31.0458C61.7666 32.0918 60.0713 32.8408 58.2889 33.3174C56.2582 33.9426 53.4885 34.2026 52.6687 36.4928C52.588 36.4371 52.5135 36.3876 52.4327 36.3319C50.3399 34.8339 47.4211 35.0444 45.2972 36.3752C43.3534 37.8112 41.8257 40.151 42.2045 42.6517C42.5523 45.0781 43.7633 47.3992 45.6823 48.9591C46.4275 49.5781 47.3031 49.9061 48.2284 50.0794C48.1601 52.3759 48.9426 54.6351 49.899 56.7025C52.6873 62.7067 60.0713 66.3215 66.4491 66.86C69.9889 67.0952 73.6095 66.9034 77.0127 65.8325C79.6272 64.9474 82.2044 63.8084 84.4214 62.1248C89.2219 58.3057 91.3272 51.9921 91.2651 46.0127C91.2899 44.2672 90.9794 42.5402 90.7434 40.8195C90.526 39.0863 90.0044 37.4213 89.4889 35.7562V35.75ZM90.1721 92.8882C90.495 92.1764 90.5509 91.3655 90.0479 90.697C89.9112 90.4865 89.669 90.3132 89.4082 90.2389C89.6566 89.1062 88.8493 87.8125 87.7998 87.9487C87.7687 87.7135 87.719 87.4845 87.6569 87.2678C87.3961 86.3951 86.3963 86.0051 85.5517 86.0361C84.8251 86.1042 84.1357 86.4013 83.5272 86.785C83.4961 86.8098 83.4588 86.8407 83.4278 86.8655C83.4961 87.404 83.5209 87.9487 83.465 88.4996C83.3533 89.2362 82.5832 89.7995 81.8628 89.4714C80.9996 89.1991 80.658 88.3139 80.3413 87.5526C80.273 87.404 80.2109 87.2555 80.1488 87.1007C80.0681 87.0574 79.9873 87.0202 79.9004 86.9955C79.3912 86.7912 78.8012 86.9522 78.5093 87.4226C77.7951 88.3077 77.969 89.5024 77.9007 90.5608C77.8821 90.7279 77.8448 90.9074 77.7082 91.0312C77.2362 91.4707 76.7394 91.8854 76.2364 92.294C76.0998 92.4363 75.2614 92.9625 74.4789 93.5072C74.6466 93.7981 74.7956 94.089 74.926 94.3242C76.1867 97.3572 77.8262 100.254 78.6149 103.467C78.6646 103.727 78.7577 104.005 78.8447 104.284C79.7327 103.956 80.6394 103.665 81.5026 103.281C83.3781 102.402 85.2225 101.399 86.7875 100.031C88.1848 98.8304 89.638 97.512 90.3025 95.7479C90.644 95.0423 90.8614 94.2314 90.526 93.4824C90.4453 93.2905 90.3335 93.0677 90.1783 92.9006L90.1721 92.8882ZM107.834 74.5416C105.71 74.0402 103.505 73.7245 101.444 72.9941C101.437 73.0189 101.431 73.0436 101.419 73.0622C100.878 73.9969 100.301 74.9192 99.655 75.7857C98.6552 77.0608 97.6057 78.2802 96.699 79.6358C95.842 80.6695 96.3512 81.8084 97.7299 81.2513C99.0402 80.7376 100.096 79.772 101.195 78.9116C100.692 79.8834 100.32 80.9047 99.9407 81.926C99.5867 83.0092 98.1397 85.0333 98.9967 86.0608C99.3259 86.3084 99.7047 86.1846 100.077 85.9308C100.009 86.0794 99.9531 86.2341 99.9096 86.3951C99.7171 87.0079 100.158 87.6764 100.823 87.6454C101.531 87.6454 102.17 87.2988 102.735 86.8779C102.878 87.3359 103.325 87.6578 103.977 87.664C104.17 87.6764 104.362 87.6516 104.542 87.5959C104.493 87.7816 104.487 87.9735 104.555 88.1654C105.288 89.1929 106.679 87.7568 107.263 87.175C108.411 85.9804 109.275 84.5505 110.113 83.133C110.833 82.0374 111.374 80.8304 111.815 79.5987C112.305 78.3669 112.703 77.098 112.883 75.7795C112.883 75.7362 112.895 75.6743 112.901 75.631C111.194 75.3648 109.529 74.8511 107.828 74.5478L107.834 74.5416Z" fill="#F2AB9B"/>
<path d="M72.4482 40.9061C71.5291 40.9804 70.8211 41.6984 70.2746 42.3793C69.9082 42.924 69.43 43.3882 69.2872 44.0567C69.0512 45.0162 69.6163 46.2418 70.6845 46.3346C72.2122 46.5327 74.0504 44.0939 74.0566 42.6888C74.1746 41.7479 73.4542 40.7638 72.4482 40.9061ZM80.4717 45.1647C79.9128 45.6847 79.4098 46.3036 79.3042 47.0836C79.2049 47.7892 79.3291 48.6867 79.9998 49.0705C80.4221 49.3862 80.9686 49.3552 81.4467 49.1943C82.6391 48.8477 83.3222 47.6468 83.6265 46.5203C83.9805 44.3229 81.8504 43.4935 80.4717 45.1647Z" fill="white"/>
<path d="M64.9897 43.7411C62.8286 42.5402 59.6055 43.2768 59.8601 46.1984C60.0402 47.9935 61.7666 49.4728 63.5676 49.4419C64.6668 49.4233 65.9461 49.151 66.592 48.173C67.567 46.6255 66.505 44.5086 64.9835 43.7349L64.9897 43.7411ZM88.6381 53.0134C87.9488 50.3023 83.2229 49.1014 81.5088 51.4536C79.7203 53.6881 81.4529 56.325 84.0053 56.7768C85.0424 57.0306 86.1851 56.9254 87.0856 56.325C88.1475 55.6379 88.9424 54.2947 88.6381 53.0134Z" fill="#D9695F"/>
<path d="M48.8432 41.3147C48.3588 40.7638 47.7316 40.3738 47.0671 40.0705C46.5889 39.8167 45.8437 39.5134 45.5394 40.1572C45.3966 40.4667 45.5022 40.8504 45.794 41.0299C46.3467 41.3704 46.9616 41.6118 47.4894 41.9955C47.8061 42.2431 48.1104 42.5155 48.4023 42.794C48.4334 42.825 48.4644 42.8621 48.4955 42.8931C47.9366 42.9116 47.2596 43.0726 47.0485 43.1283C46.5952 43.2397 45.763 43.3202 45.9617 43.9825C46.2784 44.6881 47.1044 44.0567 47.6198 43.9515C48.0732 43.803 48.5265 43.6544 48.9985 43.5739C49.0482 43.5739 49.0979 43.5554 49.1413 43.543C49.191 43.5801 49.2407 43.6173 49.2966 43.6482C50.4703 43.7906 49.2407 41.6489 48.8432 41.327V41.3147ZM87.6569 87.893C87.3899 88.2273 87.3775 88.7224 87.185 89.1062C86.9552 89.6138 86.6322 90.1832 86.2783 90.6413C86.092 90.9694 85.4213 91.3284 85.7815 91.7307C86.4522 92.3249 87.9985 89.1124 87.9612 88.5491C87.9861 88.3325 88.0233 87.7506 87.6569 87.893ZM89.2405 91.0127C89.3026 90.8146 89.4951 90.1709 89.1039 90.2575C89.0294 90.2947 88.9859 90.3875 88.9424 90.4556C88.7996 90.7094 88.6071 90.9694 88.4332 91.2108C88.1041 91.6874 87.7439 92.1454 87.2843 92.5044C87.0608 92.6963 86.626 92.9068 86.8434 93.2596C87.1291 93.6372 87.5638 93.2101 87.837 93.0182C88.4767 92.4982 88.9362 91.774 89.2343 91.0127H89.2405ZM89.9547 92.7273C89.8367 92.6901 89.7249 92.7458 89.6752 92.8387C89.1908 93.6124 88.6692 94.2871 87.9178 94.838C87.6321 95.0237 87.3154 95.296 87.5948 95.655C88.2531 96.3235 89.6442 94.25 89.8678 93.7052C89.9547 93.4391 90.3211 92.9006 89.9547 92.7273ZM102.959 80.7252C102.226 81.8641 101.735 83.1207 100.922 84.2163C100.711 84.5257 100.506 84.8414 100.288 85.1509C100.208 85.2685 100.009 85.4542 100.202 85.5718C100.264 85.6028 100.351 85.578 100.388 85.5223C100.512 85.4047 100.642 85.2933 100.76 85.1695C101.928 83.981 102.766 82.5264 103.499 81.0409C103.667 80.6943 103.17 80.4033 102.953 80.7252H102.959ZM105.927 81.8641C105.387 81.6351 105.219 82.6255 104.94 82.935C104.22 83.9625 103.592 85.0581 102.841 86.067C102.741 86.1784 102.617 86.3517 102.741 86.4879C103.108 86.8841 104.17 85.1571 104.455 84.8724C105.077 84.111 105.685 83.2568 106.089 82.3469C106.17 82.1674 106.107 81.957 105.927 81.8641ZM107.759 82.545C107.244 83.3311 106.797 84.1482 106.325 84.959C105.996 85.5161 105.648 86.1289 105.219 86.686C105.07 86.8717 104.716 87.2431 105.126 87.3793C106.02 87.1193 108.151 83.8449 108.467 82.8978C108.616 82.4645 108.014 82.1736 107.759 82.545Z" fill="#F26457"/>
<path d="M77.3667 49.1014C77.1617 48.9529 76.9071 48.7053 76.6339 48.761C76.4786 48.8353 76.5718 49.0024 76.6711 49.0829C77.5281 49.9928 78.3603 51.6207 76.6649 52.1406C76.224 52.3078 75.4042 52.1592 75.5347 52.8772C75.7955 53.6138 76.8326 52.9453 77.2983 52.7472C78.8198 51.9488 78.7329 50.0113 77.3729 49.1014H77.3667ZM68.0514 54.5113C67.5546 54.1647 67.1757 53.6695 66.828 53.1805C66.5671 52.7596 66.3498 52.2892 66.1883 51.8188C66.4243 51.6393 66.6168 51.4536 66.6913 51.3112C66.8031 51.1317 66.9273 50.8779 66.7907 50.6798C66.505 50.4013 66.0641 50.9212 65.7722 51.0265C65.3313 51.3236 64.1514 51.3545 64.2942 52.0664C64.4743 52.5801 65.1388 52.4254 65.735 52.1035C65.766 52.4687 65.9026 52.8463 65.9896 53.1867C66.3311 54.2576 67.0267 55.2665 68.0948 55.7184C68.5233 55.9041 69.4176 56.2631 69.5791 55.6007C69.6039 55.4336 69.5232 55.2479 69.3679 55.1675C68.9084 54.9384 68.5047 54.8146 68.0576 54.5052L68.0514 54.5113ZM71.3055 42.2122C70.5727 42.8002 69.6784 45.01 71.0633 45.2947C71.7154 45.4247 72.2495 44.9295 72.6593 44.5024C72.7587 44.4529 72.7525 44.2981 72.6593 44.2486C72.5103 44.1744 72.324 44.2301 72.1625 44.1744C71.7464 43.8525 72.3861 42.9054 72.8022 43.3511C72.8518 43.413 72.9139 43.4687 72.9388 43.5492C72.945 43.6235 72.9574 43.7163 73.0381 43.7473C73.1065 43.7782 73.1934 43.7349 73.2058 43.6606C73.2741 43.4997 73.3611 43.3387 73.417 43.1716C73.9324 41.5746 72.2867 41.2899 71.3055 42.2184V42.2122ZM81.2729 45.4618C80.4221 45.9508 79.6582 47.9378 80.9623 48.2906C81.3971 48.371 81.8131 48.1358 82.0988 47.8263C82.1858 47.7211 82.4714 47.4426 82.2044 47.3931C81.9498 47.4488 81.5089 47.455 81.571 47.0774C81.5958 46.7679 81.8877 46.4089 82.2168 46.4089C82.4031 46.4708 82.4093 46.7246 82.4776 46.8855C82.4155 47.1145 82.7944 47.1393 82.7633 46.9041C83.4216 45.6785 82.4838 44.7191 81.2667 45.4556L81.2729 45.4618Z" fill="black"/>
<path d="M114.802 36.2576C117.565 36.2328 118.062 39.402 117.236 41.4756C116.683 42.8683 115.087 43.5059 113.678 43.5925C112.491 43.6916 111.355 43.2645 110.237 42.9302C110.169 45.7156 107.884 46.5946 105.505 45.6228C104.691 48.5567 101.518 48.6372 99.2141 47.3807C98.1894 49.8195 95.6991 50.2651 93.3579 49.5904C92.4264 49.3428 91.588 48.6063 91.3396 47.6654C91.3209 47.5664 91.2899 47.4426 91.3023 47.3373C91.2154 47.2569 91.1657 47.1331 91.1967 46.9598C91.2154 46.935 91.2278 46.9164 91.2464 46.8917C91.2464 46.8669 91.2402 46.836 91.2402 46.8112C91.3582 45.4742 91.1533 44.1682 90.9732 42.8497C90.8552 42.0389 90.7372 41.228 90.5633 40.4295C89.0729 39.8724 87.9488 38.5788 87.0235 37.3284C85.5331 35.5086 84.8064 33.3298 83.9743 31.1819C83.7135 32.8037 82.1423 33.7507 81.2666 31.9371C80.7326 30.9282 80.5649 29.814 80.5401 28.6874C79.8321 30.4453 78.6708 32.0361 77.3232 33.3607C76.224 34.2459 75.0502 35.1867 73.6716 35.5829C73.0195 35.8057 72.1873 35.49 72.1687 34.7287C72.1252 34.1221 72.4171 33.5526 72.6531 33.0141C71.4359 34.0292 67.8464 35.8305 68.0017 32.9027C66.7534 34.2397 65.1077 35.1125 63.4993 35.9419C61.7853 36.8209 59.885 37.1922 58.0157 37.5884C56.8109 37.8422 55.5937 38.065 54.3579 38.1083C54.2399 38.1083 54.1343 38.0588 54.0598 37.9784C53.8797 37.9784 53.7058 37.9288 53.5878 37.7803C52.737 37.0685 51.8738 36.4618 50.8678 36.0038C48.5452 34.9268 45.6636 36.0224 44.0614 37.8669C42.2853 39.8786 41.8878 41.6056 42.6703 44.1744C42.8877 44.8862 43.2975 45.5052 43.6018 46.1737C43.6639 46.3098 43.5832 46.5141 43.4155 46.5017C43.4031 46.5017 43.3907 46.5017 43.3721 46.5017C43.3907 46.7122 43.105 46.9103 42.9746 47.0464C42.1735 47.6592 41.2357 48.1358 40.2297 48.2782C38.4784 48.4268 36.6092 47.9316 35.3112 46.7122C34.3486 47.684 33.1377 48.7424 31.6969 48.7486C30.6412 48.7858 29.8152 48.0863 29.0389 47.4673C27.7721 48.6929 25.2818 48.5444 23.8845 47.3807C23.1827 48.6186 22.0525 49.6461 20.8291 50.3394C19.5125 51.0946 17.842 50.9027 16.4757 50.3765C13.0353 49.1324 13.8364 44.6324 16.3018 42.7878C18.4133 41.2713 21.8413 42.0141 23.2138 44.1805C24.1764 42.4288 27.0765 41.5684 28.7595 42.5217C28.9396 41.977 29.1321 41.4013 29.5295 40.968C30.8523 39.6372 33.2681 39.532 34.7337 40.6833C35.0442 38.8821 36.516 37.5513 38.0064 36.6228C39.2485 35.8676 40.7514 35.7686 42.1549 36.0471C41.9934 34.3387 41.9748 32.6056 42.2108 30.9096C43.5832 22.9804 49.9673 16.085 57.0966 12.6744C61.8598 10.6008 67.7719 9.07811 72.8767 10.6441C75.3918 11.4117 77.7641 12.6992 79.6893 14.488C81.5709 13.8133 83.7445 14.2528 85.415 15.3484C90.4764 18.6909 93.2399 24.5031 94.4757 30.2658C95.1464 33.6269 95.4942 37.3408 94.7676 40.7576C94.8235 40.7576 94.8794 40.7576 94.9291 40.7576C95.5252 40.77 96.1276 40.8133 96.699 40.968C97.6926 41.228 98.5931 41.8098 99.3259 42.5217C99.9966 41.6365 100.984 41.0794 102.015 40.7081C103.195 40.2376 104.667 40.0767 105.685 40.9866C106.586 39.7796 108.262 39.4391 109.697 39.5506C110.473 37.6255 112.746 36.2143 114.82 36.2576H114.802Z" fill="black"/>
<path d="M25.6482 40.8009C24.3875 41.4137 23.7292 42.7569 23.2138 43.9948C23.0337 43.3759 22.866 42.7074 22.4251 42.2122C21.6861 41.3332 20.3447 41.1413 19.8106 42.3236C19.5436 42.825 19.7299 43.444 20.0776 43.8587C20.7794 44.7129 21.9531 44.9914 23.0213 44.8738C23.0213 44.8738 23.0213 44.88 23.0213 44.8862C22.6611 45.0471 22.3754 45.4309 22.1456 45.728C21.3259 46.9103 21.2948 48.402 21.3321 49.7885C21.3321 50.1351 21.8537 50.129 21.86 49.7885C21.8413 48.272 21.8662 46.5884 22.9405 45.3876C22.9592 45.3566 22.9902 45.3257 23.0337 45.2823C23.0896 45.9384 23.3566 46.5884 23.7727 47.0836C23.8721 47.1888 24.0397 47.195 24.1515 47.1083C24.4061 46.9041 24.1515 46.6193 24.0273 46.4151C23.7913 46.0499 23.6299 45.6537 23.5367 45.239C24.344 45.7466 25.1886 46.1984 25.8034 46.966C25.9152 47.0959 26.1326 47.0836 26.2506 46.966C26.5424 46.6193 26.0208 46.2851 25.8345 46.0251C25.2631 45.4433 24.549 45.01 23.7975 44.7005C25.0334 44.0506 26.3313 43.1407 26.7846 41.7541C27.0393 40.8504 26.5735 40.25 25.6668 40.7885L25.6482 40.8009ZM22.8412 44.2858C22.7418 44.2734 22.6486 44.261 22.5493 44.2486C21.9221 44.1991 21.2638 44.0753 20.7856 43.6358C20.1646 43.1716 20.1149 42.3112 20.9595 42.1008C22.1022 42.107 22.5244 43.3882 22.8474 44.2858H22.8412ZM23.5802 44.3105C24.1577 43.0788 24.8471 41.6056 26.2506 41.1723C26.3251 42.3855 24.5738 43.7844 23.5802 44.3105ZM114.392 43.902C114.063 42.8435 113.218 42.0327 112.299 41.4508C111.641 41.0237 110.883 40.8009 110.2 40.4171C110.169 40.3986 110.15 40.3676 110.119 40.3429C110.964 40.1572 111.833 39.8972 112.398 39.2101C112.995 38.4921 113.553 37.2727 112.833 36.4618C112.361 35.979 111.634 36.1957 111.125 36.499C110.237 37.0437 109.666 37.9722 109.386 38.9625C108.939 38.0588 108.262 37.1489 107.287 36.7837C106.604 36.6104 105.865 37.1675 105.94 37.8855C106.107 39.3525 107.741 40.2314 109.07 40.4667C108.685 41.1042 108.293 41.7479 108.057 42.4536C107.759 43.5925 107.884 44.8243 108.368 45.8951C108.461 46.1427 108.846 46.1427 108.939 45.8951C109.001 45.7713 108.933 45.6413 108.89 45.5237C108.3 44.0258 108.38 42.5898 109.181 41.1847C109.281 40.9618 109.386 40.7452 109.461 40.5162C109.486 40.5533 109.523 40.5905 109.56 40.6276C109.591 41.2156 109.622 41.8284 109.902 42.3607C110.07 42.6578 110.541 42.4226 110.405 42.1131C110.225 41.7603 110.132 41.3827 110.051 40.999C110.063 41.0052 110.076 41.0175 110.094 41.0237C111.765 41.9584 113.553 42.9921 113.914 45.0409C113.963 45.2266 114.168 45.3318 114.342 45.2823C114.504 45.239 114.628 45.0657 114.597 44.8986C114.535 44.5643 114.479 44.2239 114.379 43.8958L114.392 43.902ZM106.89 38.4983C106.66 38.1826 106.461 37.5265 107.002 37.4213C108.126 37.5636 108.728 39.0739 109.126 39.9962C108.275 39.6991 107.43 39.2411 106.89 38.4983ZM109.809 39.8353C110.014 38.7706 110.51 37.706 111.43 37.087C111.709 36.9385 112.082 36.6599 112.398 36.8456C112.734 37.1922 112.516 37.7308 112.342 38.1083C111.87 39.0616 110.815 39.6001 109.809 39.8353Z" fill="#F29966"/>
</g>
</svg>
