<svg width="74" height="69" viewBox="0 0 74 69" fill="none" xmlns="http://www.w3.org/2000/svg">
<path d="M30.9971 49.5728C37.6296 52.3772 45.3588 49.8391 50.9171 45.7531C56.0736 41.3719 58.7118 33.7336 55.7662 27.3977C53.4018 21.8413 48.2178 17.4456 42.3426 16.0037C35.2352 14.3832 27.5819 17.9615 23.1565 23.523C20.3059 27.2181 19.5296 32.3916 20.4306 36.9044C21.9348 42.922 25.433 46.9079 30.9971 49.5728ZM52.1193 10.0364C53.3463 8.18958 55.9032 4.40105 52.8835 3.01838C50.1203 2.27114 49.4502 5.96679 48.4725 7.7737C48.1276 8.58384 47.7814 9.42687 47.5178 10.273C47.2909 11.0218 46.9378 12.0457 47.4894 12.7417C49.3025 14.5725 51.1147 11.2496 52.1364 10.0206L52.1193 10.0364ZM61.5298 24.8508C63.4673 24.7269 65.3692 24.2394 67.1492 23.4838C68.8245 22.8725 70.8449 21.8791 70.1502 19.7451C69.8231 18.7942 68.7958 18.0142 67.7503 18.139C65.8566 18.4128 63.9985 19.0501 62.2826 19.8575C60.7812 20.6731 58.3922 21.3725 58.2177 23.3417C58.3907 24.8631 60.3549 24.9049 61.5469 24.835L61.5298 24.8508ZM60.0441 42.0827C59.7606 44.3112 66.5858 48.5554 68.6065 48.8463C71.4084 49.4468 73.235 45.7457 71.0254 43.9164C68.7949 42.2015 65.9536 41.336 63.1741 41.0163C62.1056 40.8768 60.2175 40.5745 60.0283 42.0657L60.0441 42.0827ZM46.2112 53.0328C45.8786 52.658 45.515 52.2325 44.9713 52.1954C42.3472 52.1285 44.8875 60.4248 45.2578 61.9701C45.6382 63.2524 46.1366 64.4733 46.989 65.5101C48.4722 67.3283 51.7125 65.9697 51.4542 63.6547C51.1648 61.2892 49.8217 59.2623 48.7787 57.1645C47.9909 55.735 47.2545 54.258 46.1947 53.0322L46.2112 53.0328ZM29.4469 54.6839C29.363 54.2856 29.2315 53.836 28.8946 53.5762C26.845 52.3128 26.0006 56.6769 25.3907 57.9379C24.698 60.4966 22.5121 63.6571 24.3831 66.1322C25.7902 67.7829 28.638 67.1832 29.2946 65.1335C29.9988 63.1351 29.7837 60.9864 29.7806 58.9117C29.7357 57.494 29.7074 56.0769 29.4633 54.6845L29.4469 54.6839ZM3.31021 48.2893C6.03698 48.2613 8.37108 46.4071 10.6667 45.1278C12.0228 44.2244 13.4742 43.4234 14.7827 42.4688C15.5636 41.9222 15.5994 40.9851 14.5494 40.797C11.6195 40.5209 8.69633 41.3647 5.87903 42.0314C4.56015 42.3929 3.13332 42.5527 1.96493 43.2985C-0.153014 44.6834 0.771181 48.1598 3.31021 48.2893ZM13.106 28.0145C14.3208 27.7808 15.6367 27.9296 16.7931 27.4961C17.7199 27.0209 17.2526 25.8506 16.5768 25.3803C15.4872 24.4992 14.2036 23.9399 12.8819 23.511C11.2152 23.0359 9.60855 22.2833 7.88535 21.9872C2.91885 21.4032 1.84105 30.1381 13.106 28.0145ZM26.2128 9.70972C27.2232 10.9336 27.9285 12.36 28.8545 13.6301C29.1503 14.1024 29.9859 14.2824 30.1595 13.6304C30.244 11.8553 29.6522 10.0546 29.4898 8.2537C29.196 6.00326 29.5174 2.78831 26.928 1.81717C23.9377 0.9625 22.1812 4.12288 23.7059 6.58478C24.3546 7.76202 25.3776 8.65711 26.2128 9.70972Z" fill="#F26457"/>
<path d="M32.4717 31.7637C32.9831 31.7832 33.4436 31.4055 33.4802 30.88C33.5162 30.371 33.1215 29.8949 32.5936 29.8749C32.0658 29.8548 31.6218 30.2331 31.5851 30.7586C31.5491 31.2676 31.9439 31.7437 32.4717 31.7637ZM39.8907 29.5597C40.5011 29.5829 41.0294 29.1584 41.0698 28.5343C41.109 27.943 40.6514 27.3823 40.0411 27.359C39.4307 27.3358 38.9024 27.7603 38.862 28.3844C38.8228 28.9757 39.2804 29.5364 39.8907 29.5597ZM40.9546 33.7C40.6727 32.866 39.3741 33.1294 39.4562 34.0052C39.5363 34.5022 39.6995 34.9859 39.7631 35.4823C40.2383 37.7396 38.1064 39.0581 36.8026 36.868C36.1578 36.0202 36.2556 34.328 35.1459 33.973C34.849 33.9617 34.6257 34.1837 34.5497 34.4443C34.4294 41.4703 43.1234 40.9119 40.9712 33.7006L40.9546 33.7Z" fill="white"/>
</svg>
