<svg width="360" height="360" viewBox="0 0 360 360" fill="none" xmlns="http://www.w3.org/2000/svg">
<path d="M360 0H0V360H360V0Z" fill="#F7F0F0"/>
<mask id="mask0_186_968" style="mask-type:luminance" maskUnits="userSpaceOnUse" x="0" y="0" width="360" height="360">
<path d="M360 0H0V360H360V0Z" fill="white"/>
</mask>
<g mask="url(#mask0_186_968)">
<path d="M374.947 352.238C376.2 359.006 370.728 364.738 364.709 366.854C356.998 369.504 348.797 370.404 340.754 371.542C326.34 373.45 311.774 373.298 297.259 373.133C272.138 373.5 247.003 374.4 221.918 375.811C204.307 377.136 186.653 377.136 169.02 377.726C151.15 378.59 133.358 380.75 115.459 381.11C101.376 381.218 87.2857 382.543 73.2169 381.744C66.9529 381.442 61.0128 379.382 55.0656 377.597C53.2584 377.071 51.4513 376.553 49.6153 376.164C47.3833 375.667 44.928 375.588 42.9192 374.414C42.7896 374.94 42.6817 375.43 42.6097 375.955C42.7033 376.373 42.3504 376.798 41.9256 376.798C40.4856 376.675 41.4864 373.277 41.5656 372.312C41.5224 370.994 42.3001 369.727 42.6097 368.453C48.4777 353.29 57.2184 343.073 72.2808 336.614C81.324 332.777 94.4208 329.839 103.068 335.83C104.429 330.53 107.978 324.518 113.213 322.344C118.937 320.047 123.329 320.746 128.318 324.187C130.032 324.187 131.666 323.143 133.351 322.776C137.261 321.437 141.739 321.674 145.354 323.762C145.166 317.635 145.836 311.472 148.061 305.726C151.416 295.913 157.277 287.114 165.067 280.274C175.399 271.109 187.632 263.52 201.197 260.374C213.235 257.782 226.411 258.394 237.492 264.118C245.542 268.668 251.352 276.415 254.758 284.89C262.512 261.612 286.322 259.61 296.086 282.658C298.303 278.921 300.953 275.393 303.847 272.16C311.796 263.239 321.761 255.715 333.396 252.461C346.666 248.926 361.584 249.703 370.555 261.425C375.574 266.465 373.579 280.253 373.435 287.129C373.039 294.206 372.658 301.284 372.643 308.376C372.672 317.138 372.881 325.908 373.363 334.656C373.759 340.531 374.436 346.37 374.954 352.231L374.947 352.238Z" fill="#5CAA93"/>
<path d="M370.447 102.139C370.31 109.044 368.791 134.388 357.451 128.513C353.059 135.482 343.944 139.284 335.916 137.441C331.985 136.67 328.054 135.425 324.85 132.948C320.789 129.701 317.347 125.402 315.742 120.413C301.723 127.339 281.707 124.186 273.218 110.225C269.474 104.227 270.317 96.8256 271.721 90.2304C273.067 82.8 276.43 76.032 279.67 69.2784C275.508 68.9832 271.296 67.7808 268.078 65.016C261.864 85.1832 236.707 91.6848 218.167 86.2056C215.366 98.3232 210.615 111.262 199.721 118.318C188.374 125.82 173.657 126.54 160.754 123.185C157.082 122.321 153.922 120.168 150.458 118.829C149.623 122.162 148.889 125.546 147.47 128.686C144.979 134.158 141.401 139.212 137.016 143.33C132.574 147.326 126.835 149.537 120.989 150.502C112.09 152.273 102.29 151.164 94.9249 145.534C92.4985 143.762 90.4752 141.523 88.092 139.702C82.0512 158.897 65.8296 156.881 50.7672 149.472C46.2384 159.811 37.656 168.019 27.7416 173.232C22.4208 176.148 16.2792 177.242 10.2528 176.954C0.179984 176.09 -10.224 172.159 -16.956 164.383C-21.492 167.054 -22.9464 159.314 -23.1192 156.211C-23.3496 155.945 -23.8176 155.261 -23.1696 155.225C-22.968 146.779 -21.8591 138.377 -21.5351 129.931C-21.1607 121.766 -21.024 113.594 -20.5848 105.437C-20.0232 90.576 -18.3456 75.8016 -17.172 60.9912C-16.308 48.8808 -17.6328 36.684 -16.7976 24.552C-16.416 16.2432 -15.8544 7.95597 -14.8968 -0.309629C-14.4576 -3.70803 -14.0616 -7.13523 -12.5784 -10.2384C-12.0168 -11.3472 -11.1888 -12.2904 -10.1448 -12.9528C-8.79119 -13.7592 -7.20722 -13.824 -5.68082 -14.04C6.32158 -15.8616 18.432 -16.5456 30.5568 -16.6464C67.8672 -16.8048 105.098 -19.116 142.322 -21.5136C155.174 -22.4496 168.012 -23.5872 180.886 -24.228C200.513 -24.8328 221.004 -24.2136 240.444 -24.4656C261.389 -24.408 282.319 -23.3856 303.221 -22.1616C317.794 -21.2112 332.446 -21.7512 346.99 -20.376C354.103 -19.3824 364.882 -18.4896 367.438 -10.5696C368.46 -6.77523 368.165 -2.76483 368.258 1.13757C368.114 20.16 367.445 39.1896 368.352 58.2048C368.741 72.8712 370.109 87.5016 370.447 102.168V102.139Z" fill="#F2CEA2"/>
</g>
<path d="M297.864 271.714C297.907 276.523 296.942 281.268 295.682 285.89C294.501 290.369 293.047 294.782 291.089 298.987C284.983 313.373 274.867 325.044 260.028 330.71C252.331 332.878 244.303 333.698 236.325 333.072C231.782 332.813 227.304 331.949 222.761 331.675C218.182 331.495 213.602 330.739 209.354 328.982C206.064 327.614 202.968 325.843 199.8 324.223C196.279 322.495 192.91 320.458 189.979 317.837C184.284 312.746 179.33 306.986 175.651 300.312C172.512 293.94 170.906 286.877 170.244 279.828C169.913 272.815 170.698 265.673 172.534 258.89C177.883 240.019 192.247 224.834 209.066 215.359C215.539 211.716 222.725 209.34 230.083 208.339C233.323 207.432 236.707 207.086 240.055 207.367C245.023 207.014 250.063 206.654 254.981 207.698C276.653 211.766 286.646 224.302 294.214 244.058C297.302 252.9 297.583 262.433 297.878 271.706L297.864 271.714Z" fill="#F29849"/>
<path d="M134.473 154.563C130.433 154.302 126.426 153.544 122.399 153.047C121.367 157.214 120.417 161.4 119.289 165.548C117.894 170.874 115.352 175.8 111.968 180.139C108.381 185.121 104.38 189.792 99.9452 194.035C96.5555 197.049 94.1534 200.872 92.1654 204.893C89.3428 206.849 85.9722 207.996 82.4742 208.168C80.6965 208.097 78.9252 208.129 77.1539 208.359C70.9926 208.945 64.7866 209.525 58.8291 211.283C58.8291 211.283 58.8164 211.283 58.8036 211.29C58.7909 211.29 58.7845 211.29 58.7718 211.302H58.759C48.66 214.259 38.4909 218.802 30.9469 226.301C29.4113 228.665 31.8899 232.392 33.5529 234.145C35.1267 235.929 36.4392 237.713 38.4272 239.121C40.0265 240.319 41.8551 238.802 43.4416 238.267C45.2639 237.49 47.1372 236.725 48.9467 235.897C54.9615 233.246 61.1548 231.118 67.4436 229.213C70.9989 228.047 74.3185 227.059 78.0268 226.129C81.6077 225.205 85.2778 224.753 88.8714 223.88C93.7074 222.727 98.3332 220.841 102.965 219.05C102.806 219.261 102.685 219.49 102.653 219.738C102.628 219.949 102.908 220.038 103.023 219.891C104.794 218.821 106.393 217.47 108.005 216.17C112.344 212.513 116.269 208.301 119.525 203.644C121.545 200.7 123.775 197.89 125.572 194.794C127.324 191.773 128.911 188.645 130.331 185.453C133.059 178.667 135.69 171.55 136.837 164.273C137.436 161.03 138.156 157.8 138.423 154.506C137.117 154.569 135.811 154.62 134.499 154.544L134.473 154.563Z" fill="#BF3434"/>
<path d="M101.736 265.244C101.901 265.837 101.819 266.48 101.774 267.086C101.506 270.775 101.067 274.458 100.111 278.039C98.6583 284.155 97.2437 290.278 95.9184 296.421C95.122 299.473 94.4147 302.582 93.1404 305.475C92.7836 306.329 92.4141 307.291 91.6558 307.877C91.076 308.323 90.3369 308.336 89.636 308.348C88.693 308.361 87.75 308.336 86.8197 308.202C83.3536 307.539 80.1359 306.794 76.7526 305.953C74.9749 305.341 69.2405 304.315 69.7629 301.824C70.6996 291.311 71.5534 280.81 73.4011 270.412C73.5859 269.22 73.7388 268.029 73.9363 266.844C73.6815 265.722 73.2928 264.645 72.6238 263.677C69.5272 261.415 65.1499 262.836 61.7729 263.753C53.4197 266.697 49.9344 276.032 48.8576 284.13C48.6919 285.627 48.5581 287.131 48.5327 288.641C48.813 291.68 47.6024 292.419 44.6651 292.375C37.9876 291.769 31.17 290.661 24.9131 288.278C22.855 287.182 23.747 282.014 23.7725 279.976C23.9764 276.044 24.7028 272.164 25.8242 268.392C27.9523 261.485 32.2022 254.897 38.5547 251.22C41.5111 249.57 44.6906 248.43 47.9338 247.48C52.2282 246.13 56.6947 245.11 61.2122 245.059C66.0419 245.206 70.2408 247.538 74.6309 249.226C80.3781 251.469 86.6414 252.794 91.7195 256.471C94.6441 258.599 97.9127 260.848 99.4101 264.257C100.264 263.843 101.474 264.206 101.736 265.257V265.244Z" fill="#8FA5BC"/>
<path d="M107.4 242.211C107.037 235.521 107.107 228.792 106.03 222.159C105.82 221.35 105.75 219.623 105.221 218.585C105.196 218.164 104.96 217.731 104.469 217.432C101.921 216.125 99.5567 214.552 97.3839 212.647C96.0459 211.493 94.5231 210.123 93.3444 208.722C92.9684 208.378 92.3503 207.282 91.6941 207.511C91.6112 207.549 91.5666 207.619 91.5475 207.715C91.1015 207.333 90.6046 207.033 89.9993 206.982C87.5653 206.887 85.1441 207.263 82.7483 207.664C82.4744 207.728 81.1554 207.849 79.9257 208.078C79.5944 208.021 79.1866 208.078 78.8999 208.059C78.1289 207.983 77.2496 208.378 76.8864 209.098C76.6761 209.486 76.5233 209.9 76.3831 210.321C75.7268 211.748 75.2362 213.271 74.5289 214.673C73.4776 216.667 72.0376 218.432 70.5785 220.146C67.9279 223.115 64.8823 225.594 61.8813 228.276C57.3256 232.322 52.636 236.547 48.1185 240.688C46.9334 241.701 45.5763 242.976 44.3911 244.084C43.8177 244.645 42.8365 245.327 42.8237 246.282C42.8174 249.596 48.0612 255.368 50.5843 257.458C57.7651 263.275 66.4497 267.156 75.4719 269.042C82.1558 270.373 88.9989 270.692 95.791 271.055C98.3779 271.1 102.583 271.61 104.272 269.246C104.832 268.194 105.1 267.009 105.419 265.869C107.254 258.146 107.668 250.131 107.381 242.217L107.4 242.211Z" fill="#F2E3B6"/>
<path d="M94.5675 233.73C97.5112 238.433 94.9498 244.498 90.8273 247.569C89.8589 248.334 88.6355 248.672 87.4886 249.067C85.832 249.557 84.0862 250.086 82.3468 249.78C78.3709 249.194 74.9875 246.346 73.4201 242.702C71.6552 239.924 71.4321 236.011 73.3181 233.227C76.4848 228.608 82.7226 226.626 88.0174 228.365C90.5852 229.442 92.9873 231.494 94.5675 233.73Z" fill="#687E8C"/>
<path d="M71.6488 243.052C69.0938 242.957 65.6212 241.198 68.4502 238.573C69.2785 237.866 70.3873 237.63 71.4449 237.604C71.8655 237.592 72.0566 238.184 71.7125 238.42C70.7376 239.006 69.1129 239.274 68.8708 240.561C70.075 241.905 72.1203 241.733 73.7578 241.733C78.0905 241.517 82.4423 240.918 86.5966 239.707C89.9417 238.56 93.3123 237.407 96.3898 235.636C100.996 232.335 96.6447 232.539 93.6628 232.571C93.2614 232.743 93.1085 232.118 93.5035 232.042C93.5991 231.991 93.701 231.959 93.8093 231.927C95.4341 231.57 97.3583 231.252 98.8238 232.233C101.035 233.928 96.7211 236.903 95.2047 237.483C87.9219 241.134 79.7471 242.861 71.636 243.039C71.636 243.039 71.7253 243.039 71.6424 243.039L71.6488 243.052Z" fill="#8FA5BC"/>
<path d="M110.242 134.696C111.032 139.124 110.662 143.961 107.731 147.573C105.826 150.205 103.029 151.912 100.315 153.594C98.1612 154.964 96.0394 156.372 93.9432 157.819C88.5974 161.31 83.9971 165.624 79.4669 170.071C73.1972 175.704 67.0231 181.445 61.193 187.536C58.6061 190.161 56.0575 192.837 53.4579 195.45C51.2597 197.304 48.5581 199.26 45.6336 199.521C45.933 199.795 45.5061 200.26 45.2066 199.961C38.4145 198.1 32.4251 193.736 27.8885 188.415C21.8355 180.814 18.5095 171.231 18.2993 161.534C18.14 151.759 21.8291 142.393 26.2892 133.855C28.462 129.503 31.7371 125.852 34.9611 122.252C37.2931 119.525 39.9692 117.123 42.7727 114.893C46.4173 111.784 51.043 110.344 55.2419 108.184C58.517 106.546 62.0915 105.661 65.6978 105.113C69.3041 104.495 72.9678 104.163 76.6251 104.367C87.7308 105.412 99.2189 110.643 105.202 120.405C107.693 124.801 109.439 129.701 110.235 134.696H110.242Z" fill="#435159"/>
<path d="M26.525 293.26C26.576 295.363 26.627 297.51 27.0666 299.575C27.7229 301.442 29.679 302.537 31.616 302.442C34.8782 302.614 38.0576 301.486 41.0651 300.327C41.6321 300.091 42.2948 299.766 42.4477 299.116C42.6261 298.09 42.556 297.039 42.658 296C42.7599 294.739 42.9574 293.458 43.0211 292.184C37.4523 291.61 31.8453 290.61 26.5696 288.807C26.474 290.374 26.7034 292.247 26.5313 293.267L26.525 293.26ZM76.7653 305.946C76.0771 305.711 74.7901 305.405 73.503 304.984C72.9041 307.565 71.7062 314.108 73.1144 312.038C73.2864 313.299 74.446 314.013 75.4336 314.669C77.4406 316.122 79.9638 315.803 82.2958 315.963C83.5192 316.064 84.9273 315.918 85.8703 315.058C86.5393 314.166 86.6031 312.936 86.877 311.878C87.0363 311.031 87.3931 310.018 87.7053 309.151C87.7818 308.89 87.922 308.603 88.043 308.31C87.6416 308.285 87.2338 308.259 86.8324 308.195C83.3662 307.533 80.1486 306.787 76.7653 305.946ZM29.3157 249.443C32.8138 250.265 33.8651 245.053 34.8145 242.651C35.3624 240.988 36.1207 239.471 36.9426 237.929C35.7002 236.77 34.6807 235.463 33.5275 234.157C32.2468 232.806 30.4945 230.283 30.4563 228.117C28.3154 227.238 26.3275 225.957 24.0529 225.205C20.4083 224.128 20.2489 226.594 22.0967 229.034C20.5612 228.882 18.1336 229.098 17.8341 230.984C17.7322 232.01 18.605 232.781 19.4461 233.201C18.1081 233.469 16.1584 234.476 16.8784 236.12C17.9297 237.904 21.2366 237.668 23.078 237.802C21.4978 238.917 18.4649 241.982 20.3127 243.893C22.2879 245.078 26.3912 242.988 28.4174 242.211C27.7611 244.167 27.0666 248.328 29.3094 249.449L29.3157 249.443ZM117.773 151.753C116.543 149.147 114.906 146.777 112.994 144.623C111.478 142.903 109.585 141.565 107.942 139.978C107.559 139.596 107.126 139.513 106.858 139.634C105.947 139.443 104.941 139.959 103.991 139.813C99.8879 138.933 95.5934 137.748 92.3566 134.945C91.3563 133.995 89.7888 134.537 89.8589 135.971C89.7506 138.099 90.751 140.87 88.0112 141.686C86.482 142.17 84.8699 141.96 83.328 141.654C81.4484 141.221 79.4605 140.896 77.8102 139.844C77.3324 139.507 76.899 139.118 76.4849 138.698C76.1599 138.373 75.8732 137.984 75.3762 137.939C74.1274 137.825 73.726 139.067 74.1529 140.061C74.5225 141.826 75.6948 143.585 75.3762 145.407C71.8973 147.643 66.9339 146.662 63.8691 144.113C63.1746 143.495 62.2379 142.508 61.2694 143.196C60.7979 143.559 60.7916 144.126 60.9063 144.649C61.1803 145.891 61.5307 147.114 61.792 148.357C62.3017 151.116 61.9003 156.908 57.8989 156.309C56.6246 156.175 55.5477 154.862 54.2479 155.219C52.9991 155.799 53.6745 157.226 54.2798 158.042C54.9488 159.227 55.5605 160.45 56.0192 161.737C57.9944 167.427 55.7899 172.652 49.6604 167.911C48.7938 167.153 47.3475 167.446 47.5896 168.804C47.9209 170.11 48.8384 171.18 49.2653 172.454C50.8264 176.768 51.0494 181.426 49.9408 185.879C49.6349 187.536 49.0423 189.18 48.4561 190.773C48.3733 191.047 48.2586 191.321 48.1694 191.608C45.0919 191.92 42.0081 193.806 40.9249 196.756C38.9242 203.076 44.1999 209.926 50.8327 209.595C54.8787 209.556 59.8486 208.25 61.3013 204C61.3778 203.637 61.5371 203.217 61.6772 202.796C61.7919 202.834 61.9003 202.879 62.0086 202.924C66.7682 204.618 71.8209 204.587 76.8098 204.561C78.0651 204.536 79.3203 204.478 80.5755 204.376C80.3079 205.185 80.0658 206.007 79.779 206.81C79.5306 207.588 79.1036 208.575 78.8742 209.423C78.4473 212.277 81.2254 214.603 83.7486 215.284C86.756 216.31 89.8653 214.832 91.9106 212.608C94.1789 209.461 94.6441 205.421 95.6444 201.758C95.7081 201.331 95.8801 200.789 96.0267 200.235C96.3007 200.101 96.5747 199.967 96.8486 199.833C101.78 197.514 106.737 194.914 110.484 190.856C116.887 184.612 120.997 175.952 121.169 166.956C121.233 161.706 120.443 156.353 117.779 151.747L117.773 151.753Z" fill="#F2D0C4"/>
<path d="M55.5224 106.425C56.4909 110.063 55.2739 114.129 53.8212 117.435C53.0184 119.468 52.0881 121.443 51.1005 123.399C48.6793 128.223 46.5639 133.288 43.6457 137.767C40.3835 143.215 36.2801 148.14 31.1446 151.912C29.7683 153.059 28.2072 153.926 26.6334 154.78C25.9262 155.124 25.289 155.633 24.5435 155.875C24.0975 155.971 23.6325 155.971 23.1801 155.907C22.8615 156.124 22.3453 156.137 21.9949 155.926C12.9026 152.747 11.0867 141.036 14.6102 133.078C17.248 126.394 23.4795 121.73 30.1952 119.621C33.0305 118.799 36.1081 118.723 39.0008 119.29C40.0457 114.766 41.868 110.286 44.9582 106.82C46.086 105.616 47.2712 104.399 48.7239 103.596C51.6994 102.271 54.5794 103.138 55.5224 106.406C55.5224 106.406 55.5224 106.419 55.5224 106.425Z" fill="#BF3434"/>
<path d="M61.1932 201.413C59.9762 200.795 58.7402 200.209 57.5041 199.636C57.3193 199.572 57.0772 199.438 56.8988 199.572C56.5547 199.897 57.0517 200.311 57.2747 200.553C58.2177 201.554 59.3965 202.382 60.7409 202.72C61.5118 202.898 61.9132 201.751 61.1932 201.407V201.413ZM53.6492 198.024C53.2988 197.673 52.445 197.578 52.0181 197.52C50.5207 197.062 44.6334 198.877 45.9778 201.006C46.6341 201.968 47.7427 201.369 48.4691 200.84C49.3611 200.279 50.2786 199.738 51.2981 199.457C51.4 199.425 51.5147 199.4 51.623 199.374C51.3618 199.859 51.1452 200.375 50.9222 200.859C50.6801 201.464 51.1134 202.203 51.7505 202.318C53.49 202.554 53.165 199.973 53.8595 198.935C54.1207 198.533 53.9551 198.196 53.6492 198.03V198.024ZM95.2687 200.305C94.7653 200.432 94.3639 200.579 93.835 200.712C90.9997 201.458 88.1771 202.191 85.2652 202.541C84.9976 202.592 84.8128 202.866 84.8383 203.134C84.8638 203.401 85.0996 203.637 85.3672 203.631C88.8015 203.688 92.1721 202.662 95.256 201.203C95.5236 201.05 95.9186 200.77 95.6956 200.426C95.5936 200.279 95.4152 200.247 95.2687 200.305ZM21.1094 233.418C20.7653 233.412 19.7841 233.042 19.6758 233.52C19.6758 233.635 19.7713 233.73 19.886 233.73C21.4407 233.717 22.8806 234.584 24.3843 234.928C24.9132 235.087 25.1936 234.272 24.6839 234.074C23.5561 233.603 22.3136 233.52 21.1094 233.424V233.418ZM25.7161 230.442C25.2509 230.162 22.9125 228.792 22.715 229.64C22.6959 229.926 22.9698 230.092 23.1865 230.219C23.8555 230.595 24.4799 231.029 25.1299 231.436C25.7861 231.812 26.3596 230.831 25.7161 230.436V230.442Z" fill="#F2AB9B"/>
<path d="M20.4466 125.037C19.8094 125.591 19.2042 126.171 18.6371 126.789C20.2746 126.681 21.9248 126.687 23.5623 126.872C31.3739 128.203 37.6754 133.753 42.0018 140.284C42.4924 139.551 42.9958 138.819 43.4545 138.06C41.9636 135.996 40.3133 134.04 38.5229 132.23C33.8015 127.636 27.1496 124.291 20.453 125.03L20.4466 125.037ZM37.5544 122.227C35.0249 120.755 32.215 120.105 29.3477 119.939C28.0097 120.405 26.6971 120.953 25.4356 121.615C29.8638 121.774 34.3112 122.972 37.7774 125.827C40.6829 128.286 43.6903 130.778 45.9267 133.881C46.4683 132.867 47.0035 131.848 47.5133 130.809C44.7735 127.369 41.3073 124.451 37.5544 122.227Z" fill="#F29966"/>
<path d="M107.082 176.061C108.502 177.628 107.107 182.018 106.081 183.643C104.272 186.236 100.837 187.498 97.7599 186.893C94.1025 186.517 90.9614 183.121 91.503 179.361C91.5794 178.622 91.7705 177.883 92.1146 177.22C92.2038 176.915 92.3694 176.622 92.6498 176.462C92.7963 176.29 93.0321 176.239 93.2488 176.22C94.1089 176.207 94.9564 176.399 95.8166 176.449C98.9068 176.762 102.035 176.698 105.1 176.169C105.769 176.182 106.451 175.73 107.082 176.054V176.061Z" fill="#BF3434"/>
<path d="M76.8291 166.204C76.6571 169.778 79.4287 172.99 82.9395 173.538C84.7427 173.996 86.7051 172.932 87.3996 171.231C88.4956 168.612 86.7306 165.675 84.9466 163.795C82.4808 161.285 76.8482 162.151 76.8291 166.204ZM102.985 147.471C97.9511 149.376 101.124 158.169 105.712 158.762C114.613 158.762 109.63 146.592 102.985 147.471Z" fill="white"/>
<path d="M72.2797 157.398C70.3045 157.946 69.0875 160.648 70.2598 162.4C71.2729 163.381 70.1898 158.303 74.0191 158.819C74.3632 158.819 74.6563 158.552 74.7009 158.214C74.7328 157.105 73.0251 157.252 72.2797 157.398ZM101.334 143.406C101.844 143.597 102.488 143.47 102.634 142.877C102.812 141.208 99.8752 141.527 98.9513 142.106C97.5941 142.909 96.855 144.935 97.6005 146.35C98.1548 146.649 98.0083 145.649 98.1995 145.362C98.4734 144.547 98.9896 143.827 99.7988 143.476C100.283 143.311 100.825 143.323 101.328 143.406H101.334ZM100.653 161.011C100.009 161.342 98.8812 161.941 99.1297 162.801C99.2253 162.961 99.4738 162.999 99.6012 162.827C101.844 160.96 104.17 162.457 103.086 165.248C102.851 166.019 101.417 166.656 102.143 167.504C103.004 168.198 103.615 166.86 104.042 166.28C105.922 163.846 103.877 159.705 100.659 161.005L100.653 161.011ZM85.2141 168.013C84.1373 168.498 82.8948 166.943 82.7036 165.987C82.7355 165.102 84.0035 165.146 84.5578 165.528C84.7043 165.618 84.8891 165.873 85.0866 165.713C85.214 165.618 85.2014 165.395 85.0548 165.318C84.7936 164.885 84.424 164.496 84.0035 164.197C80.7985 162.056 77.7401 164.19 78.2371 167.937C78.6449 170.103 80.9642 172.786 83.2771 172.881C86.3673 173.098 87.8391 169.906 86.1889 167.459C85.7429 167.058 85.6601 167.848 85.2141 168.013ZM108.821 152.76C108.547 152.371 108.165 152.702 108.095 153.053C107.916 153.346 107.534 153.473 107.203 153.441C106.4 153.391 105.622 152.855 105.387 152.059C105.234 151.377 105.973 150.797 106.616 150.957C106.871 151.001 107.113 151.237 107.381 151.129C107.572 151.154 107.674 150.937 107.578 150.785C107.031 149.249 105.144 148.14 103.564 148.79C102.131 149.287 101.812 150.944 101.965 152.295C102.188 154.741 104.036 157.449 106.706 157.443C109.388 157.628 110.401 154.678 108.821 152.76Z" fill="black"/>
<path d="M105.094 176.175C102.029 176.698 98.9068 176.761 95.8166 176.449C95.5171 176.43 95.2177 176.392 94.9246 176.354C94.9309 178.616 97.4669 179.75 99.4803 179.756C100.767 179.807 102.201 179.915 103.271 179.055C103.851 178.724 104.82 177.316 105.094 176.175Z" fill="white"/>
<path d="M96.0968 181.356C94.7716 181.744 93.3061 182.254 92.2166 183.165C93.3061 185.179 95.4214 186.657 97.7598 186.899C100.035 187.345 102.494 186.765 104.361 185.389C103.188 182.069 99.7542 180.291 96.0968 181.356Z" fill="#F2958C"/>
<path d="M82.4107 176.398C80.187 175.57 77.5364 175.831 75.5867 177.214C74.3251 177.692 73.312 178.692 72.7195 179.896C71.3368 182.719 73.4585 185.402 76.4277 185.491C78.7852 185.739 81.0918 184.822 82.8822 183.318C85.0804 181.534 85.7367 177.31 82.4107 176.398ZM118.149 152.479C116.563 152.76 115.072 153.703 114.033 154.92C113.147 155.939 112.102 156.952 111.714 158.29C110.911 160.89 112.918 163.789 115.671 163.827C117.754 164.05 119.513 162.865 120.851 161.361C120.456 158.271 119.615 155.257 118.149 152.479Z" fill="#F2958C"/>
<path d="M139.838 135.499C140.679 135.862 141.476 136.971 140.953 137.863C140.583 139.214 140.131 140.565 139.857 141.947C139.634 143.992 138.379 147.083 135.83 146.395C135.27 146.152 134.836 145.719 134.524 145.165C133.823 145.624 132.874 145.668 132.16 145.184C131.931 145.031 131.727 144.859 131.542 144.674C130.848 145.19 129.956 145.522 129.439 145.381C128.713 145.209 128.14 144.846 127.687 144.356C127.037 144.712 126.247 144.904 125.744 144.834C120.64 144.171 121.711 134.155 126.196 133.231C127.171 133.046 128.012 133.517 128.586 134.244C129.86 133.396 131.714 133.632 132.657 134.862C133.696 134.187 134.983 134.282 136.353 135.811C137.379 135.149 138.704 134.957 139.838 135.493V135.499Z" fill="#F2D0C4"/>
<path d="M128.293 134.473C128.012 134.671 127.738 134.887 127.496 135.13C125.795 137.334 125.19 141.017 126.84 143.4C127.267 143.954 128.172 143.495 127.987 142.826C127.84 142.183 127.586 141.711 127.42 141.049C127.082 139.029 127.573 136.907 128.618 135.149C129.121 134.945 128.764 134.206 128.293 134.467V134.473ZM132.625 135.321C132.141 135.136 131.848 135.646 131.638 135.99C130.415 138.15 129.414 141.342 130.427 143.731C130.752 144.324 131.714 143.986 131.6 143.33C131.517 142.941 131.421 142.552 131.402 142.151C131.345 140.144 131.74 138.073 132.734 136.321C132.944 136.009 133.065 135.499 132.632 135.327L132.625 135.321ZM136.448 136.646C135.926 136.55 135.607 137.353 135.378 137.736C134.41 139.564 134.046 141.75 134.486 143.782C134.664 144.509 135.811 144.356 135.786 143.604C135.767 143.17 135.741 142.731 135.773 142.298C135.767 140.494 136.27 138.742 136.525 136.958C136.582 136.85 136.55 136.71 136.442 136.646H136.448Z" fill="#F2AB9B"/>
<path d="M40.0522 293.547C36.1846 294.267 32.0622 294.095 28.3985 292.432C27.755 292.19 27.1688 291.839 26.5762 291.502C26.5953 292.19 26.6017 292.808 26.5253 293.26C26.5762 295.363 26.6272 297.51 27.0668 299.575C27.7231 301.441 29.6792 302.537 31.6162 302.442C34.8785 302.614 38.0579 301.486 41.0653 300.326C41.6324 300.091 42.295 299.766 42.448 299.116C42.6264 298.09 42.5562 297.039 42.6582 296C42.741 295.019 42.8684 294.025 42.9576 293.025C42.8175 293.05 42.6773 293.088 42.5371 293.146C41.7789 293.311 40.9188 293.42 40.0586 293.547H40.0522ZM80.5693 309.247C78.0016 308.788 75.4211 308.138 73.1464 306.781C73.14 306.781 73.1273 306.768 73.1209 306.768C72.5411 309.718 71.9613 313.72 73.1082 312.044C73.2802 313.305 74.4399 314.019 75.4275 314.675C77.4345 316.128 79.9576 315.809 82.2897 315.969C83.513 316.071 84.9211 315.924 85.8641 315.064C86.5331 314.172 86.5969 312.942 86.8709 311.885C87.0111 311.145 87.2978 310.292 87.5781 309.514C85.2652 309.871 82.8823 309.565 80.5757 309.253L80.5693 309.247Z" fill="white"/>
<path d="M42.8238 297.389C42.3268 297.153 41.7725 297.274 41.3966 297.663C39.7272 298.848 37.7456 299.269 35.7513 299.696C34.1265 300.046 32.4571 299.97 30.8451 299.581C30.0232 299.383 29.2267 299.103 28.443 298.785C28.0543 298.625 27.6593 298.46 27.2834 298.275C26.8501 298.058 26.6781 298.065 26.2639 298.37C24.2887 299.434 22.4028 300.62 20.6315 302.009C18.618 303.608 16.3815 305.43 15.6997 308.074C14.8077 312.152 17.1971 315.822 21.4533 316.198C27.1305 316.778 32.9542 315.427 37.9878 312.796C41.5495 310.98 45.3852 308.259 45.7802 303.946C45.7675 301.594 45.1431 298.568 42.8238 297.402V297.389ZM87.903 315.497C87.4634 314.561 86.9982 312.305 85.7048 312.394C84.5069 312.764 83.239 312.93 81.9901 313.063C79.2376 313.178 75.8415 313.051 73.6178 311.114C73.1845 310.566 72.3116 310.712 72.0058 311.311C71.4897 311.916 70.8653 312.732 70.4448 313.465C67.6858 318.04 66.4943 323.768 68.2019 328.941C69.4699 333.147 71.8401 335.485 76.313 335.887C79.2248 336.02 82.5763 335.721 84.5961 333.363C88.6357 328.98 89.9101 321.098 87.8966 315.504L87.903 315.497Z" fill="#F2958C"/>
<path d="M276.026 275.895C276.149 278.696 276.35 283.405 274.651 285.716C271.49 288.999 266.666 290.13 262.238 290.094C259.006 290.029 255.902 289.021 252.994 287.682C250.625 286.717 248.234 284.91 248.184 282.13C246.42 282.584 244.649 283.102 242.806 283.095C241.524 283.095 240.242 282.973 238.975 282.778C235.555 282.339 232.531 280.201 230.623 277.371C229.14 275.197 228.305 272.734 228.967 270.114C229.291 267.428 230.083 266.434 232.423 265.131C233.554 264.375 234.907 264.267 236.225 264.397C237.571 264.447 238.91 264.541 240.25 264.699C243.85 265.182 247.5 265.47 251.071 266.154C258.509 267.637 265.853 269.559 272.974 272.209C273.953 272.612 274.874 273.037 275.566 273.829C276.012 274.412 275.947 275.204 276.026 275.895Z" fill="#435159"/>
<path d="M236.693 285.212C235.08 285.09 233.431 284.888 231.963 284.146C231.358 283.93 231.091 283.254 230.681 282.8C230.047 281.907 228.557 282.318 227.621 282.534C225.979 282.973 224.439 283.693 222.941 284.499C221.184 285.378 219.478 286.558 218.571 288.358C217.354 290.288 218.556 292.808 220.421 293.809C221.847 294.536 223.488 294.637 225.058 294.687C228.19 294.601 231.379 294.493 234.461 293.715C236.268 293.363 237.485 291.822 237.78 290.058C237.96 288.755 237.852 287.408 237.686 286.105C237.636 285.579 237.262 285.061 236.686 285.191L236.693 285.212ZM269.763 298.835C269.352 297.755 269.143 296.343 268.035 295.753C267.747 295.623 267.379 295.674 267.07 295.695C264.895 295.803 262.793 295.789 260.618 295.472C260.273 294.918 259.452 295.17 259.33 295.76C258.811 296.826 258.185 297.848 257.695 298.928C255.809 303.579 253.836 312.126 260.633 313.515C262.346 313.847 264.24 313.789 265.766 312.882C268.373 311.046 270.324 308.101 270.497 304.868C270.547 302.838 270.447 300.757 269.763 298.827V298.835Z" fill="#8FA5BC"/>
<path d="M289.094 261.063C290.11 263.699 290.988 266.478 290.801 269.329C290.455 271.294 286.106 273.476 284.314 274.095C281.966 274.959 279.547 275.636 277.092 276.097C276.919 276.551 276.703 276.982 276.43 277.393C275.825 278.25 274.723 278.538 273.794 278.869C272.347 279.373 270.871 279.827 269.395 280.244C266.472 281.108 263.441 281.555 260.388 281.511C255.902 281.562 251.554 280.259 247.248 279.15C244.382 278.365 241.661 277.163 238.918 276.018C236.815 275.118 234.893 273.872 233.1 272.446C231.833 271.482 230.609 270.387 229.738 269.055C228.946 267.774 228.175 266.341 228.01 264.822C228.031 263.562 228.053 262.294 228.197 261.034C228.528 258.435 228.938 255.829 229.529 253.28C226.685 251.862 224.503 249.241 223.474 246.246C222.948 244.482 222.394 242.494 222.991 240.687C222.977 240.622 222.984 240.558 222.991 240.5C223.106 240.082 223.438 239.679 223.646 239.348C225.54 236.511 228.103 234.128 230.954 232.263C230.976 232.249 230.998 232.234 231.026 232.22C232.337 231.342 233.734 230.593 235.13 229.894C235.649 229.693 236.196 229.21 236.779 229.405C236.966 229.477 237.103 229.628 237.175 229.808C239.746 229.261 242.474 229.837 244.901 230.802C249.458 232.184 254.138 233.214 258.581 234.956C261.468 236.331 264.197 237.757 267.134 238.995C268.596 239.679 269.986 240.507 271.418 241.234C273.629 242.35 276.242 243.207 277.596 245.432C278.021 246.123 278.374 246.865 278.928 247.47C279.749 248.377 280.764 249.083 281.57 250.004C281.923 250.407 282.283 250.796 282.643 251.199C282.643 251.199 282.643 251.199 282.65 251.206C284.414 252.834 285.826 254.828 287.143 256.815C287.957 258.14 288.54 259.587 289.094 261.034V261.063Z" fill="#337F69"/>
<path d="M232.078 242.149C232.402 242.603 233.165 242.387 233.222 241.847C233.208 241.256 232.718 240.781 232.51 240.248C231.631 238.16 230.99 235.935 230.436 233.739C230.386 233.646 230.35 233.207 230.285 232.775C230.069 232.926 229.86 233.077 229.651 233.228C229.601 234.56 229.91 235.95 230.234 237.21C230.638 238.923 231.012 240.709 232.078 242.149ZM228.161 246.469C227.318 245.087 226.807 243.539 226.476 241.962C226.116 240.205 225.842 238.434 225.842 236.641C225.583 236.922 225.317 237.195 225.072 237.491C225.014 238.808 225.13 240.147 225.295 241.429C225.641 244.122 226.526 246.987 228.586 248.867C228.78 249.018 229.068 248.996 229.241 248.823C229.392 248.672 229.442 248.406 229.32 248.226C228.931 247.643 228.492 247.088 228.154 246.476L228.161 246.469ZM279.389 265.153C282.132 265.261 286.697 262.244 288.806 260.502C288.828 260.487 288.835 260.466 288.85 260.444C288.691 260.048 288.533 259.652 288.36 259.263C288.223 259.263 288.086 259.292 287.95 259.393C285.919 260.905 283.824 262.352 281.57 263.511C280.894 263.821 280.224 264.181 279.49 264.325C278.827 264.145 278.698 265.175 279.389 265.153ZM273.197 275.305C270.238 276.032 267.199 276.515 264.139 276.594C254.282 276.572 242.352 274.254 234.425 268.141C233.014 267.104 231.775 265.866 230.472 264.707C230.299 264.627 230.018 264.181 229.838 264.347C229.709 264.512 229.918 264.62 230.026 264.735C231.581 266.651 233.345 268.4 235.318 269.876C243.144 275.679 253.195 277.731 262.786 277.976C265.644 278.048 268.495 277.717 271.303 277.206C272.03 276.975 274.27 276.867 273.888 275.701C273.773 275.427 273.492 275.276 273.204 275.312L273.197 275.305ZM290.174 264.267C289.843 264.476 289.534 264.879 289.246 265.045C287.662 266.269 285.804 267.09 284.062 268.055C282.413 268.825 280.807 269.768 279.036 270.243C278.762 270.33 277.747 270.474 278.244 270.891C281.045 271.172 286.675 268.076 289.102 266.521C289.555 266.154 290.002 265.779 290.455 265.398C290.376 265.016 290.282 264.642 290.174 264.267ZM279.302 261.063C279.266 260.919 279.166 260.797 279.043 260.725C278.626 260.531 278.165 260.811 277.74 260.855C276.689 261.063 275.71 261.071 274.594 261.085C271.822 261.107 269.078 260.617 266.335 260.207C263.441 259.775 260.539 259.357 257.652 258.889C254.664 258.255 251.647 257.535 248.71 256.671C246.161 255.966 243.648 255.116 241.214 254.065C239.443 253.453 237.816 252.539 236.282 251.466C235.346 250.904 234.619 250.112 233.762 249.428C233.482 249.191 233.129 249.435 233.366 249.709C235.246 251.984 237.794 253.712 240.502 254.843C245.326 257.046 250.488 258.407 255.636 259.616C260.359 260.646 265.19 261.128 269.95 261.956C272.376 262.28 274.824 262.496 277.258 262.122C277.862 261.906 279.504 262.021 279.302 261.063ZM273.845 265.333C271.13 265.491 268.416 265.326 265.709 265.146C259.92 264.714 254.246 263.475 248.638 261.949C245.52 261.15 242.309 260.631 239.321 259.415C236.722 258.075 234.49 256.153 232.092 254.49C231.898 254.389 231.538 254 231.286 254.151C231.221 254.209 231.228 254.288 231.271 254.346C231.876 255.21 232.79 255.836 233.554 256.556C235.224 258.039 237.082 259.508 239.083 260.559C242.15 261.855 245.477 262.453 248.681 263.31C255.766 265.254 263.03 266.579 270.389 266.672C272.167 266.751 273.946 266.543 275.71 266.377C276.142 266.42 276.552 266.197 276.509 265.715C276.379 264.807 274.536 265.398 273.838 265.326L273.845 265.333ZM273.046 270.539C273.046 270.539 273.089 270.531 273.118 270.524C267.185 271.669 261.086 271.748 255.103 270.92C251.676 270.531 248.227 270.135 244.973 268.933C240.487 267.162 236.117 264.692 232.207 261.834C231.617 261.323 231.098 260.754 230.594 260.163C230.465 260.027 230.292 259.854 230.09 259.839C229.975 259.811 229.853 259.89 229.853 260.019C229.853 260.113 229.925 260.163 229.997 260.163C231.502 263.015 234.432 264.491 236.981 266.283C240.271 268.429 243.95 270.409 247.824 271.345C252.49 272.382 257.292 272.821 262.066 273.087C266.083 273.102 270.173 272.828 274.09 271.885C274.73 271.727 274.853 270.791 274.277 270.474C273.895 270.243 273.463 270.474 273.06 270.531L273.046 270.539Z" fill="white"/>
<path d="M279.533 263.288C278.841 262.575 277.726 264.577 277.481 265.117C277.034 266.399 277.049 267.687 276.97 269.048C276.898 270.92 276.768 272.792 276.825 274.671C276.833 275.154 277.531 275.197 277.603 274.722C277.898 272.195 278.071 269.66 278.208 267.118C278.266 266.586 278.273 265.873 278.51 265.318C278.77 264.836 279.158 264.433 279.533 264.037C279.734 263.828 279.741 263.49 279.533 263.281V263.288ZM230.947 248.499C230.522 249.594 230.321 250.796 230.076 251.948C230.047 252.258 229.867 252.668 230.054 252.942C230.515 253.259 230.486 252.33 230.652 252.078C231.033 250.983 231.401 249.882 231.739 248.773C231.89 248.283 231.134 248.024 230.947 248.499ZM264.967 299.943C264.557 299.591 259.956 299.684 260.798 300.606C262.08 300.836 263.412 300.959 264.708 301.196C265.486 301.297 265.723 300.159 264.967 299.943ZM265.111 303.083C264.046 302.96 262.973 303.155 261.95 303.435C261.85 303.471 261.749 303.522 261.691 303.623C261.518 303.954 261.857 304.191 262.166 304.148C263.059 304.206 264.002 304.443 264.902 304.587C265.889 304.71 266.09 303.227 265.111 303.083ZM225.554 285.925C225.187 285.659 224.957 286.091 225.13 286.422C225.389 287.048 225.698 287.624 226.145 288.2C226.346 288.452 226.713 288.503 226.973 288.308C227.786 287.682 226.058 286.328 225.554 285.932V285.925ZM228.73 284.78C228.398 284.636 228.031 284.42 227.657 284.492C227.246 284.65 227.541 285.075 227.779 285.248C228.146 285.615 228.449 286.04 228.773 286.436C229.363 287.156 230.422 286.22 229.774 285.551C229.457 285.248 229.118 284.967 228.722 284.773L228.73 284.78Z" fill="black"/>
<path d="M312.206 213.443C312.199 214.148 312.149 214.847 312.077 215.545C312.077 216.063 312.062 216.582 312.033 217.093C311.479 222.651 309.989 228.167 307.152 233.005C305.978 234.963 304.661 236.857 303.149 238.563C301.615 240.666 299.837 242.567 297.605 243.956C296.302 244.647 293.839 247.153 292.644 245.339C292.521 245.108 292.464 244.892 292.464 244.691C292.14 244.691 291.816 244.669 291.499 244.597C289.353 244.1 288.122 242.163 287.114 240.363C286.279 238.895 285.192 237.318 284.083 236.087C278.813 230.111 271.685 226.151 264.456 223.026C259.985 221.283 255.513 219.548 251.064 217.748C247.349 216.467 243.756 214.746 239.897 213.932C238.471 213.623 237.017 213.493 235.577 213.27C234.252 213.075 233.388 212.723 233.172 211.239C233.064 210.786 232.999 210.332 232.963 209.864C232.905 210.145 232.848 210.419 232.776 210.692C232.79 210.807 232.639 210.915 232.531 210.836C232.293 210.505 232.229 210.066 232.207 209.67C232.099 208.345 232.243 207.013 232.466 205.71C233.417 199.791 236.369 194.341 240.048 189.69C246.348 181.532 253.483 176.982 263.815 175.779C265.464 175.607 267.141 175.355 268.79 175.563C267.537 173.051 268.445 171.085 272.239 170.646C274.86 170.531 277.157 172.179 278.604 174.253C278.769 171.762 280.296 170.646 282.614 171.783C284.796 173.259 284.997 176.197 285.019 178.602C288.597 177.327 292.449 176.391 296.215 177.299C299.952 178.335 301.183 180.906 297.403 183.116C296.957 183.39 296.503 183.649 296.035 183.887C298.404 184.715 300.643 185.881 302.357 187.767C303.84 189.243 305.28 190.791 306.497 192.498C307.303 193.477 308.045 194.514 308.621 195.644C310.219 199.007 311.083 202.635 311.486 206.322C311.616 207.063 311.731 207.812 311.839 208.554C312.048 210.174 312.177 211.801 312.206 213.435V213.443Z" fill="#B3493B"/>
<path d="M262.238 290.094C260.928 290.065 259.639 289.856 258.379 289.561C258.393 290.85 258.883 292.758 258.941 293.341C259.113 294.003 259.265 294.745 259.51 295.429C259.805 295.105 260.352 295.047 260.618 295.472C262.793 295.789 264.895 295.804 267.07 295.696C267.379 295.674 267.753 295.616 268.034 295.753C268.085 295.782 268.114 295.832 268.164 295.861C268.726 293.953 268.61 291.03 268.502 289.259C266.472 289.856 264.319 290.108 262.245 290.087L262.238 290.094ZM230.623 277.372C230.623 277.372 230.616 277.357 230.609 277.35C230.609 277.386 230.587 277.415 230.587 277.458C230.213 279.056 229.802 280.655 229.514 282.267C229.989 282.289 230.414 282.426 230.681 282.807C231.091 283.261 231.357 283.938 231.962 284.154C233.431 284.888 235.08 285.09 236.693 285.219C237.017 285.147 237.269 285.291 237.449 285.515C237.564 285.047 237.657 284.564 237.787 284.111C237.881 283.614 237.981 283.117 238.075 282.62C235.029 281.951 232.358 279.963 230.63 277.386L230.623 277.372ZM222.919 244.136C222.12 245.346 221.407 246.822 221.025 247.419C219.571 250.134 218.239 252.971 216.151 255.267C214.812 256.823 213.105 258.025 212.061 259.818C211.485 260.862 210.614 262.1 211.046 263.332C211.341 264.008 212.184 264.195 212.781 263.807C212.969 265.196 214.365 265.225 215.179 264.296C215.143 264.577 215.122 264.865 215.143 265.153C215.165 265.499 215.273 265.837 215.539 266.075C216.842 267.241 218.707 264.26 219.305 263.296C219.766 264.649 221.227 266.348 222.343 264.534C222.667 263.814 222.523 262.971 222.559 262.201C222.581 260.919 222.444 259.624 222.631 258.356C222.768 257.514 223.257 256.794 223.675 256.067C224.661 254.461 225.77 252.942 226.75 251.329C225.274 249.94 224.136 248.175 223.481 246.26C223.279 245.576 223.07 244.856 222.926 244.129L222.919 244.136ZM294.43 285.724C294.07 282.836 293.184 279.877 292.493 277.033C291.909 274.794 291.182 272.583 290.196 270.481C288.871 272.079 285.761 273.599 284.313 274.103C283.068 274.556 281.808 274.952 280.533 275.305C281.037 276.479 281.65 277.595 282.01 278.833C282.751 280.727 283.349 282.671 283.781 284.665C284.234 286.422 284.688 288.337 284.011 290.094C283.248 292.412 281.506 295.897 282.283 298.28C283.277 300.03 285.091 298.532 285.883 297.395C286.042 298.827 286.149 300.685 287.359 301.636C288.518 302.262 289.418 300.916 289.706 299.944C290.649 301.592 292.413 300.8 292.795 299.195C293.724 300.102 294.804 299.058 294.977 298.043C297.511 298.655 295.992 293.262 295.754 291.93C295.365 289.849 294.876 287.79 294.437 285.716L294.43 285.724ZM234.835 225.87L234.9 225.884C234.9 225.884 234.864 225.877 234.85 225.87H234.835ZM292.658 239.903C292.147 239.788 291.622 239.737 291.096 239.737C291.305 239.017 291.492 238.283 291.658 237.548C291.787 236.843 293.623 230.248 293.385 228.073C293.407 227.929 293.429 227.778 293.45 227.634C293.515 227.058 293.645 226.446 293.429 225.891C292.867 224.869 291.924 224.077 291.413 223.011C289.951 219.937 289.886 216.388 290.239 213.047C290.232 212.435 290.606 211.672 290.333 211.11C290.124 210.8 289.771 210.678 289.425 210.807C289.109 210.937 288.965 211.275 288.749 211.52C288.072 212.118 287.237 212.795 286.301 212.852C284.45 212.536 283.197 210.714 282.809 208.971C282.333 206.451 282.708 203.896 283.097 201.39C283.255 200.778 282.794 200.051 282.11 200.31C281.765 200.454 281.578 200.85 281.383 201.152C281.088 201.628 280.793 202.103 280.476 202.571C279.23 204.306 276.142 207.467 274.262 204.867C273.586 203.319 273.182 201.635 273.233 199.914C273.305 198.848 273.521 197.804 273.679 196.746C273.679 196.739 273.679 196.731 273.679 196.717C273.866 196.328 273.888 195.947 273.47 195.644C273.175 195.471 272.758 195.536 272.556 195.824C271.836 196.803 271.267 197.956 270.23 198.647C268.862 199.568 266.566 199.676 266.45 197.552C266.429 196.948 266.58 196.35 266.738 195.767C266.853 195.371 267.026 194.924 266.738 194.557C265.874 193.686 265.342 194.809 264.91 195.464C264.571 195.961 264.182 196.508 263.743 197.048C262.282 198.913 257.162 201.339 258.307 196.854C258.573 195.219 259.502 193.844 260.172 192.376C260.453 191.684 259.653 191.087 259.099 191.605C258.278 192.397 257.335 193.06 256.428 193.744C254.109 195.508 251.654 196.948 248.954 198.056C248.947 197.927 248.832 197.804 248.681 197.833C247.658 198.143 247.01 199.18 246.204 199.842C244.555 201.39 242.971 203.032 241.733 204.932C240.638 206.538 239.587 208.165 238.723 209.893C237.478 208.532 235.483 207.913 233.676 208.446C230.796 209.274 229.385 212.291 228.852 215.02C227.556 219.995 229.485 224.847 234.842 225.884C234.857 225.884 234.878 225.884 234.893 225.891C234.821 228.807 235.173 231.745 236.081 234.755C237.967 241.328 242.172 247.312 248.177 250.732C250.272 251.92 252.59 252.647 254.844 253.475C258.862 254.951 263.023 255.628 267.336 255.577C271.699 255.577 276.192 255.123 280.361 253.748C280.397 253.813 280.433 253.878 280.469 253.943C281.75 256.067 284.357 256.887 286.718 256.895C289.145 256.938 291.398 255.915 293.299 254.468C294.53 253.604 295.704 252.56 296.467 251.25C297.158 249.904 297.691 248.428 297.864 246.923C298.116 243.517 296.107 240.479 292.644 239.917L292.658 239.903Z" fill="#F2D0C4"/>
<path d="M292.767 246.447C291.197 246.217 289.512 246.527 288.058 247.139C286.776 247.729 285.984 248.946 285.019 249.918C284.292 250.645 283.536 251.329 282.701 251.941C281.959 252.459 281.175 252.906 280.375 253.338C280.296 253.381 280.195 253.424 280.167 253.518C280.145 254.814 284.868 251.243 285.315 250.847C286.215 250.155 286.812 249.176 287.633 248.427C288.303 248.715 288.915 249.198 289.447 249.695C289.757 249.983 290.268 249.954 290.52 249.601C290.931 249.039 290.391 248.478 289.851 248.298C289.433 248.161 288.965 248.01 288.497 247.931C289.764 247.376 291.211 247.383 292.572 247.614C293.292 247.671 293.465 246.635 292.767 246.455V246.447ZM236.635 215.07C236.499 215.048 236.383 215.221 236.326 215.322C236.059 215.833 235.879 216.38 235.692 216.935C235.642 216.654 235.563 216.387 235.534 216.236C235.347 215.617 235.109 215.012 234.821 214.429C234.735 214.256 234.598 214.127 234.403 214.083C233.892 213.939 233.446 214.559 233.734 214.998C234.195 215.66 234.583 216.359 234.907 217.093C234.223 216.467 233.323 216.049 232.467 215.768C231.79 215.595 231.351 216.539 231.927 216.942C232.481 217.323 233.151 217.503 233.763 217.791C234.274 217.993 234.699 218.346 235.152 218.627C234.526 220.751 234.216 222.968 234.605 225.186C234.605 225.186 234.619 225.229 234.627 225.272C234.67 225.438 234.864 225.539 235.03 225.488C235.188 225.438 235.275 225.287 235.253 225.128C235.203 224.826 235.181 224.516 235.195 224.207C235.21 223.595 235.275 222.954 235.339 222.335C235.519 220.175 236.225 218.108 236.671 215.991C236.679 215.739 236.967 215.171 236.628 215.07H236.635ZM215.914 262.597C215.77 262.964 214.971 264.008 215.403 264.289C215.482 264.318 215.575 264.296 215.633 264.239C215.928 263.677 216.295 263.195 216.72 262.683C216.979 262.223 218.131 261.661 217.627 261.107C216.965 260.567 216.231 262.151 215.914 262.597ZM214.675 259.919C213.811 260.696 213.25 261.769 212.854 262.849C212.811 262.971 212.76 263.115 212.847 263.238C213.149 263.511 213.3 262.95 213.451 262.763C213.79 262.244 214.15 261.733 214.589 261.287C214.819 261.049 215.064 260.833 215.309 260.61C215.719 260.214 215.107 259.551 214.675 259.926V259.919ZM289.692 295.436C289.44 295.479 289.231 295.739 289.289 295.998C289.483 296.927 289.627 297.841 289.591 298.799C289.591 299.072 289.498 299.367 289.613 299.619C290.477 300.44 290.477 297.387 290.391 296.948C290.275 296.437 290.477 295.386 289.692 295.436ZM291.996 294.27C291.759 294.335 291.629 294.601 291.694 294.831C291.874 295.508 292.176 296.142 292.335 296.819C292.407 297.15 292.471 297.503 292.457 297.848C292.457 297.956 292.435 298.093 292.543 298.165C293.508 298.381 292.781 295.069 292.551 294.572C292.479 294.342 292.219 294.198 291.989 294.27H291.996ZM294.682 293.636C293.969 293.795 294.307 294.673 294.307 295.184C294.408 295.731 294.351 296.401 294.667 296.883C294.984 297.2 295.553 296.862 295.423 296.437C295.409 295.767 295.733 293.543 294.689 293.636H294.682Z" fill="#F2958C"/>
<path d="M253.282 213.767C251.698 213.255 250.092 214.242 248.897 215.199C246.838 216.812 245.311 221.859 248.645 222.882C249.689 223.17 250.74 222.738 251.69 222.327C253.591 221.564 255.074 219.699 255.427 217.683C255.593 216.121 254.851 214.321 253.289 213.774L253.282 213.767ZM265.579 222.63C264.65 223.415 263.844 224.423 263.563 225.632C263.21 227.065 263.477 228.973 264.989 229.607C268.502 230.499 271.93 227.137 272.239 223.753C272.34 219.491 267.653 220.362 265.579 222.63Z" fill="white"/>
<path d="M261.184 244.83C259.436 246.41 256.969 247.193 254.537 246.971C253.116 246.853 251.607 246.718 250.331 246.091C247.538 244.667 245.248 241.504 244.903 238.584C244.846 236.419 245.233 234.195 246.243 232.231C246.393 231.96 246.688 231.773 247.024 231.792C247.431 231.841 247.95 231.906 248.235 232.2C253.454 234.189 258.659 236.243 263.974 237.994C264.838 238.558 264.112 240.307 263.812 241.056C263.245 242.47 262.431 243.833 261.184 244.834L261.184 244.83Z" fill="#BF3434"/>
<path d="M261.405 238.694C261.744 238.461 262.245 237.991 262.535 237.499C258.335 236.068 254.195 234.482 250.061 232.899C250.026 232.969 249.983 233.039 249.959 233.111C249.897 233.305 249.857 233.497 249.842 233.698C249.534 236.879 252.755 239.161 255.919 239.494C257.749 239.811 259.816 239.735 261.405 238.698L261.405 238.694Z" fill="white"/>
<path d="M260.848 245.102C260.461 244.571 259.992 244.092 259.578 243.714C256.057 240.668 250.149 239.208 246.024 241.844C247.025 243.621 248.578 245.2 250.331 246.091C251.607 246.718 253.116 246.853 254.537 246.971C256.82 247.18 259.128 246.493 260.848 245.102Z" fill="#F2958C"/>
<path d="M258.005 223.523C257.148 222.911 256.018 223.263 255.175 223.731C253.21 224.977 253.944 228.159 255.579 229.383C256.169 229.823 256.975 229.088 256.579 228.469C255.103 226.338 254.513 224.336 257.847 224.099C258.286 224.214 258.451 223.595 258.005 223.523ZM253.987 205.256C253.8 205.465 253.541 205.667 253.455 205.955C253.433 206.163 253.663 206.221 253.815 206.127C254.837 205.796 256.378 205.631 256.932 206.79C257.163 207.157 257.163 207.69 257.566 207.927C257.904 208.122 258.365 207.985 258.545 207.647C258.804 206.97 258.351 206.214 258.027 205.631C257.163 204.27 255.154 204.378 253.98 205.256H253.987ZM273.701 210.771C273.363 210.879 272.203 211.319 272.873 211.715C273.197 211.7 273.521 211.643 273.852 211.657C275.659 211.722 276.48 212.427 276.891 214.177C277.15 214.847 278.23 214.667 278.273 213.954C278.547 211.477 275.875 209.979 273.708 210.771H273.701ZM252.857 214.638C250.762 214.127 249.048 216.099 248.263 217.82C247.428 219.275 247.169 221.6 249.293 221.975C250.726 222.054 252.144 221.067 252.763 219.8C252.929 219.599 252.9 219.253 252.634 219.152C252.259 219.037 251.734 219.555 251.439 219.145C251.287 218.375 251.734 217.619 252.411 217.244C252.576 217.172 252.979 216.999 253.087 217.23C253.167 217.439 253.051 217.77 253.339 217.835C253.469 217.863 253.613 217.791 253.656 217.662C254.34 216.726 254.146 214.919 252.864 214.631L252.857 214.638ZM268.74 221.37C267.106 221.939 265.968 223.35 265.284 224.891C264.543 226.064 264.694 228.087 266.249 228.469C267.019 228.62 267.811 228.296 268.467 227.907C268.855 227.591 270.303 226.496 269.201 226.23C269.05 226.201 268.841 226.237 268.74 226.1C268.639 225.632 268.762 225.107 268.935 224.667C269.1 224.286 269.431 223.955 269.835 223.811C269.979 223.767 270.223 223.688 270.353 223.825C270.468 224.034 270.634 224.351 270.936 224.192C271.296 224.221 271.239 223.739 271.375 223.515C271.613 222.795 271.267 221.989 270.713 221.521C270.151 221.075 269.374 221.175 268.74 221.37Z" fill="black"/>
<path d="M244.109 220.873C242.661 220.081 240.804 219.786 239.198 220.203C237.017 220.758 236.657 223.559 237.477 225.351C238.284 227.18 240.285 228.044 242.208 227.936C246.715 228.152 247.557 223.112 244.109 220.873ZM273.405 232.069C269.517 230.55 263.131 231.687 265.709 237.123C266.789 239.118 268.999 240.313 271.209 240.551C278.222 241.789 279.641 234.567 273.405 232.069Z" fill="#F2AB9B"/>
<g clip-path="url(#clip0_186_968)">
<path d="M218.595 108.707C220.574 116.616 222.458 124.657 221.504 132.8C219.721 146.036 215.627 153.955 206.028 163.492C202.678 167.245 198.851 170.549 194.265 172.815C185.209 178.117 174.57 180.759 164.007 180.617C157.377 180.549 150.782 178.931 144.815 176.158C142.775 175.305 140.726 174.433 138.953 173.112C134.724 169.774 130.399 166.446 127.029 162.245C125.04 159.691 123.523 156.831 121.835 154.082C119.434 150.32 118.048 146.08 117.405 141.714C116.26 135.169 114.798 128.531 115.3 121.855C115.572 119.331 116.375 116.899 116.832 114.404C117.239 112.376 117.38 110.286 118.148 108.346C120.72 102.64 123.111 96.7185 127.621 92.1376C133.935 85.2078 142.097 79.6669 151.224 76.8598C154.313 76.0314 157.377 75.008 160.566 74.623C163.746 74.2867 166.94 74.238 170.135 74.1844C173.35 74.0187 176.479 74.6912 179.608 75.2955C183.702 75.9242 187.604 77.2838 191.367 78.9407C193.341 79.7351 195.224 80.7146 196.872 82.0402C201.367 86.0996 207.063 89.0869 210.499 94.1357C212.196 96.7965 213.668 99.584 215.25 102.308C216.571 104.331 217.892 106.392 218.595 108.707Z" fill="#C1CBD9"/>
<path d="M151.083 82.0645C152.364 82.2254 153.419 81.3969 154.388 80.7049C157.06 78.8579 159.456 76.7088 161.842 74.5402C161.42 74.5743 160.993 74.584 160.571 74.6279C157.382 75.0129 154.323 76.0363 151.229 76.8647C148.813 77.6103 146.467 78.5558 144.202 79.6571C145.412 80.3443 147.055 80.7975 147.879 81.0801C148.913 81.4066 149.978 81.9573 151.083 82.0645ZM145.774 126.041C147.195 127.771 148.034 130.71 150.521 131.168C155.473 130.554 160.235 128.702 165.007 127.289C168.307 126.29 171.717 125.403 174.62 123.507C175.163 123.146 176.132 122.552 176.388 121.84C176.901 120.057 176.705 118.156 176.765 116.324C176.74 112.143 176.785 107.951 176.434 103.785C176.444 99.9788 173.249 99.2088 170.381 97.6445C168.507 96.5431 166.453 95.8219 164.449 94.9983C162.39 94.0334 160.22 93.2682 157.975 92.8345C156.222 92.6104 154.303 92.3228 152.595 92.8638C151.289 93.7166 150.546 95.2127 149.466 96.3141C148.09 97.9612 146.648 99.5597 145.242 101.182C143.097 103.692 141.173 106.373 139.179 108.99C137.376 111.338 136.778 112.459 138.486 115.13C140.902 118.78 143.313 122.435 145.779 126.056L145.774 126.041ZM184.043 132.786C185.781 134.297 187.258 136.08 189.026 137.547C189.398 137.81 189.92 137.791 190.246 137.469C190.739 137.011 190.462 136.358 190.086 135.924C188.765 134.043 187.187 132.352 185.49 130.788C183.235 128.692 180.728 126.753 178.056 125.12C177.624 124.789 176.544 124.75 176.835 125.525C178.875 128.263 181.562 130.437 184.038 132.791L184.043 132.786ZM151.304 83.2439C150.601 83.1074 150.455 83.9651 150.485 84.4671C150.49 86.0996 150.405 87.8004 151.073 89.3355C151.48 90.2809 152.962 89.8764 152.826 88.8677C152.65 87.3667 152.329 85.8901 152.032 84.4135C151.932 83.9944 151.786 83.3852 151.299 83.2439H151.304ZM211.162 110.417C210.845 110.793 210.941 111.338 210.885 111.792C210.75 113.795 210.77 115.763 210.639 117.776C210.549 120.724 209.69 123.663 209.469 126.611C209.464 127.898 211.443 128.015 211.624 126.753C212.297 122.03 212.764 117.274 212.337 112.508C212.226 111.836 212.402 109.672 211.162 110.413V110.417ZM177.724 100.934C178.674 101.124 179.598 100.486 180.487 100.218C183.445 99.0285 186.444 97.8589 189.101 96.1045C189.95 95.5928 189.297 94.355 188.378 94.7059C186.123 95.5928 183.948 96.6844 181.733 97.6688C180.397 98.2877 179.086 98.9651 177.815 99.701C177.277 99.9203 177.132 100.685 177.719 100.939L177.724 100.934ZM195.857 96.6601C197.891 98.7263 200.252 100.437 202.321 102.454C204.838 104.682 207.224 107.099 209.911 109.131C211.754 110.062 214.924 107.874 217.425 105.934C216.777 104.686 216.024 103.483 215.25 102.303C213.668 99.5792 212.196 96.7916 210.499 94.1308C207.063 89.0772 201.367 86.0948 196.872 82.0353C196.118 81.431 195.309 80.9144 194.471 80.4417C194.109 81.9573 193.783 83.4827 193.546 85.0129C192.753 90.6026 190.99 92.1864 195.852 96.6601H195.857ZM149.973 134.915C149.28 137.683 148.743 140.491 147.894 143.224C147.562 144.414 147.18 145.593 146.829 146.782C146.723 147.162 146.563 147.601 146.713 147.986C146.879 148.395 147.406 148.483 147.748 148.249C148.039 148.03 148.14 147.664 148.306 147.362C149.295 145.305 150.043 143.156 150.686 140.973C151.189 139.077 151.585 137.269 151.922 135.305C152.002 134.784 151.601 134.287 151.068 134.214C150.586 134.15 150.094 134.452 149.973 134.915ZM183.089 157.976C180.462 159.521 177.463 160.271 174.711 161.568C172.767 162.381 170.808 163.19 168.814 163.887C168.186 164.116 167.503 164.282 166.981 164.701C166.734 164.881 167.001 165.223 167.242 165.106C171.33 165.208 175.248 163.683 178.915 162.069C180.04 161.475 185.394 159.896 184.279 158.259C184.013 157.888 183.496 157.776 183.089 157.976ZM212.216 132.927C210.393 129.477 209.474 130.656 206.35 131.645C202.914 133.044 199.654 134.808 196.234 136.241C194.651 137.069 192.778 137.586 191.527 138.882C191.211 139.204 191.005 139.711 190.894 140.159C190.091 142.333 189.071 144.428 188.363 146.641C187.569 149.068 186.821 151.514 185.947 153.912C185.615 154.803 185.339 155.72 185.168 156.65C185.003 157.123 184.827 157.659 185.023 158.181C185.384 159.014 186.419 159.199 187.208 159.482C188.222 159.842 189.227 160.208 190.221 160.603C193.441 161.84 196.56 163.137 199.9 164.082C201.106 164.292 202.678 164.677 203.673 163.78C205.29 161.675 206.797 159.472 208.399 157.347C211.197 153.283 214.442 149.384 216.561 144.92C217.194 143.215 215.853 141.533 215.361 139.935C214.411 137.557 213.402 135.198 212.211 132.917L212.216 132.927ZM150.49 153.332C149.089 152.274 147.683 151.207 146.136 150.354C144.629 149.628 142.886 150.101 141.309 150.296C138.652 150.724 135.974 151.012 133.347 151.592C131.69 151.845 130.846 152.562 130.71 154.223C130.284 157.874 130.55 161.558 130.605 165.218C130.605 165.51 130.61 165.802 130.615 166.09C133.232 168.6 136.1 170.866 138.948 173.112C140.721 174.433 142.77 175.305 144.81 176.158C149.295 178.244 154.132 179.672 159.075 180.286C160.682 177.206 162.058 174.019 163.429 170.827C164.158 168.785 166.212 166.49 164.675 164.37C161.059 159.516 155.187 157.021 150.49 153.327V153.332ZM134.779 111.967C134.201 110.529 132.157 111.68 131.112 111.977C130.424 112.298 129.45 112.62 129.209 113.39C129.209 113.721 129.58 113.79 129.852 113.77C130.982 113.682 135.301 113.682 134.774 111.967H134.779ZM122.619 127.952C123.749 124.95 124.778 121.577 125.793 118.463C126.19 116.709 127.727 114.184 126.597 112.528C125.436 111.392 123.904 110.671 122.558 109.755C121.137 108.863 120.032 107.761 118.972 106.524C118.701 107.133 118.43 107.742 118.153 108.346C117.385 110.286 117.244 112.376 116.837 114.404C116.38 116.894 115.572 119.331 115.305 121.855C114.944 126.645 115.597 131.416 116.42 136.148C118.374 136.183 121.036 135.798 121.137 133.609C121.207 131.66 122.031 129.794 122.624 127.942L122.619 127.952ZM122.096 137.303C121.915 136.875 121.242 136.363 121.006 137.03C121.082 138.98 122.021 140.817 122.709 142.625C123.824 145.437 125.075 148.215 127.295 150.403C127.601 150.685 128.078 150.724 128.41 150.471C129.389 149.589 127.697 148.195 127.355 147.284C125.552 143.985 124.015 140.642 122.096 137.308V137.303Z" fill="#435159"/>
</g>
<path d="M146.023 30V13.2H153.295C154.799 13.2 156.095 13.448 157.183 13.944C158.271 14.424 159.111 15.12 159.703 16.032C160.295 16.944 160.591 18.032 160.591 19.296C160.591 20.544 160.295 21.624 159.703 22.536C159.111 23.448 158.271 24.152 157.183 24.648C156.095 25.128 154.799 25.368 153.295 25.368H148.183L149.911 23.616V30H146.023ZM149.911 24.048L148.183 22.2H153.079C154.279 22.2 155.175 21.944 155.767 21.432C156.359 20.92 156.655 20.208 156.655 19.296C156.655 18.368 156.359 17.648 155.767 17.136C155.175 16.624 154.279 16.368 153.079 16.368H148.183L149.911 14.52V24.048ZM163.337 30V12.192H167.081V30H163.337ZM178.476 30V27.48L178.236 26.928V22.416C178.236 21.616 177.988 20.992 177.492 20.544C177.012 20.096 176.268 19.872 175.26 19.872C174.572 19.872 173.892 19.984 173.22 20.208C172.564 20.416 172.004 20.704 171.54 21.072L170.196 18.456C170.9 17.96 171.748 17.576 172.74 17.304C173.732 17.032 174.74 16.896 175.764 16.896C177.732 16.896 179.26 17.36 180.348 18.288C181.436 19.216 181.98 20.664 181.98 22.632V30H178.476ZM174.54 30.192C173.532 30.192 172.668 30.024 171.948 29.688C171.228 29.336 170.676 28.864 170.292 28.272C169.908 27.68 169.716 27.016 169.716 26.28C169.716 25.512 169.9 24.84 170.268 24.264C170.652 23.688 171.252 23.24 172.068 22.92C172.884 22.584 173.948 22.416 175.26 22.416H178.692V24.6H175.668C174.788 24.6 174.18 24.744 173.844 25.032C173.524 25.32 173.364 25.68 173.364 26.112C173.364 26.592 173.548 26.976 173.916 27.264C174.3 27.536 174.82 27.672 175.476 27.672C176.1 27.672 176.66 27.528 177.156 27.24C177.652 26.936 178.012 26.496 178.236 25.92L178.812 27.648C178.54 28.48 178.044 29.112 177.324 29.544C176.604 29.976 175.676 30.192 174.54 30.192ZM186.766 34.848C186.094 34.848 185.43 34.744 184.774 34.536C184.118 34.328 183.582 34.04 183.166 33.672L184.534 31.008C184.822 31.264 185.15 31.464 185.518 31.608C185.902 31.752 186.278 31.824 186.646 31.824C187.174 31.824 187.59 31.696 187.894 31.44C188.214 31.2 188.502 30.792 188.758 30.216L189.43 28.632L189.718 28.224L194.35 17.088H197.95L192.118 30.792C191.702 31.832 191.222 32.648 190.678 33.24C190.15 33.832 189.558 34.248 188.902 34.488C188.262 34.728 187.55 34.848 186.766 34.848ZM188.974 30.504L183.214 17.088H187.078L191.542 27.888L188.974 30.504ZM199.934 30V16.8C199.934 15.344 200.366 14.184 201.23 13.32C202.094 12.44 203.326 12 204.926 12C205.47 12 205.99 12.056 206.486 12.168C206.998 12.28 207.43 12.456 207.782 12.696L206.798 15.408C206.59 15.264 206.358 15.152 206.102 15.072C205.846 14.992 205.574 14.952 205.286 14.952C204.742 14.952 204.318 15.112 204.014 15.432C203.726 15.736 203.582 16.2 203.582 16.824V18.024L203.678 19.632V30H199.934ZM197.942 20.256V17.376H206.894V20.256H197.942ZM214.207 30.192C213.135 30.192 212.175 29.984 211.327 29.568C210.495 29.152 209.847 28.52 209.383 27.672C208.919 26.808 208.687 25.712 208.687 24.384V17.088H212.431V23.832C212.431 24.904 212.655 25.696 213.103 26.208C213.567 26.704 214.215 26.952 215.047 26.952C215.623 26.952 216.135 26.832 216.583 26.592C217.031 26.336 217.383 25.952 217.639 25.44C217.895 24.912 218.023 24.256 218.023 23.472V17.088H221.767V30H218.215V26.448L218.863 27.48C218.431 28.376 217.791 29.056 216.943 29.52C216.111 29.968 215.199 30.192 214.207 30.192ZM225.236 30V12.192H228.98V30H225.236ZM240.303 16.896C241.327 16.896 242.239 17.104 243.039 17.52C243.855 17.92 244.495 18.544 244.959 19.392C245.423 20.224 245.655 21.296 245.655 22.608V30H241.911V23.184C241.911 22.144 241.679 21.376 241.215 20.88C240.767 20.384 240.127 20.136 239.295 20.136C238.703 20.136 238.167 20.264 237.687 20.52C237.223 20.76 236.855 21.136 236.583 21.648C236.327 22.16 236.199 22.816 236.199 23.616V30H232.455V17.088H236.031V20.664L235.359 19.584C235.823 18.72 236.487 18.056 237.351 17.592C238.215 17.128 239.199 16.896 240.303 16.896ZM255.55 30.192C254.078 30.192 252.782 29.904 251.662 29.328C250.558 28.752 249.702 27.968 249.094 26.976C248.486 25.968 248.182 24.824 248.182 23.544C248.182 22.248 248.478 21.104 249.07 20.112C249.678 19.104 250.502 18.32 251.542 17.76C252.582 17.184 253.758 16.896 255.07 16.896C256.334 16.896 257.47 17.168 258.478 17.712C259.502 18.24 260.31 19.008 260.902 20.016C261.494 21.008 261.79 22.2 261.79 23.592C261.79 23.736 261.782 23.904 261.766 24.096C261.75 24.272 261.734 24.44 261.718 24.6H251.23V22.416H259.75L258.31 23.064C258.31 22.392 258.174 21.808 257.902 21.312C257.63 20.816 257.254 20.432 256.774 20.16C256.294 19.872 255.734 19.728 255.094 19.728C254.454 19.728 253.886 19.872 253.39 20.16C252.91 20.432 252.534 20.824 252.262 21.336C251.99 21.832 251.854 22.424 251.854 23.112V23.688C251.854 24.392 252.006 25.016 252.31 25.56C252.63 26.088 253.07 26.496 253.63 26.784C254.206 27.056 254.878 27.192 255.646 27.192C256.334 27.192 256.934 27.088 257.446 26.88C257.974 26.672 258.454 26.36 258.886 25.944L260.878 28.104C260.286 28.776 259.542 29.296 258.646 29.664C257.75 30.016 256.718 30.192 255.55 30.192ZM268.627 30.192C267.523 30.192 266.459 30.064 265.435 29.808C264.427 29.536 263.627 29.2 263.035 28.8L264.283 26.112C264.875 26.48 265.571 26.784 266.371 27.024C267.187 27.248 267.987 27.36 268.771 27.36C269.635 27.36 270.243 27.256 270.595 27.048C270.963 26.84 271.147 26.552 271.147 26.184C271.147 25.88 271.003 25.656 270.715 25.512C270.443 25.352 270.075 25.232 269.611 25.152C269.147 25.072 268.635 24.992 268.075 24.912C267.531 24.832 266.979 24.728 266.419 24.6C265.859 24.456 265.347 24.248 264.883 23.976C264.419 23.704 264.043 23.336 263.755 22.872C263.483 22.408 263.347 21.808 263.347 21.072C263.347 20.256 263.579 19.536 264.043 18.912C264.523 18.288 265.211 17.8 266.107 17.448C267.003 17.08 268.075 16.896 269.323 16.896C270.203 16.896 271.099 16.992 272.011 17.184C272.923 17.376 273.683 17.656 274.291 18.024L273.043 20.688C272.419 20.32 271.787 20.072 271.147 19.944C270.523 19.8 269.915 19.728 269.323 19.728C268.491 19.728 267.883 19.84 267.499 20.064C267.115 20.288 266.923 20.576 266.923 20.928C266.923 21.248 267.059 21.488 267.331 21.648C267.619 21.808 267.995 21.936 268.459 22.032C268.923 22.128 269.427 22.216 269.971 22.296C270.531 22.36 271.091 22.464 271.651 22.608C272.211 22.752 272.715 22.96 273.163 23.232C273.627 23.488 274.003 23.848 274.291 24.312C274.579 24.76 274.723 25.352 274.723 26.088C274.723 26.888 274.483 27.6 274.003 28.224C273.523 28.832 272.827 29.312 271.915 29.664C271.019 30.016 269.923 30.192 268.627 30.192ZM281.377 30.192C280.273 30.192 279.209 30.064 278.185 29.808C277.177 29.536 276.377 29.2 275.785 28.8L277.033 26.112C277.625 26.48 278.321 26.784 279.121 27.024C279.937 27.248 280.737 27.36 281.521 27.36C282.385 27.36 282.993 27.256 283.345 27.048C283.713 26.84 283.897 26.552 283.897 26.184C283.897 25.88 283.753 25.656 283.465 25.512C283.193 25.352 282.825 25.232 282.361 25.152C281.897 25.072 281.385 24.992 280.825 24.912C280.281 24.832 279.729 24.728 279.169 24.6C278.609 24.456 278.097 24.248 277.633 23.976C277.169 23.704 276.793 23.336 276.505 22.872C276.233 22.408 276.097 21.808 276.097 21.072C276.097 20.256 276.329 19.536 276.793 18.912C277.273 18.288 277.961 17.8 278.857 17.448C279.753 17.08 280.825 16.896 282.073 16.896C282.953 16.896 283.849 16.992 284.761 17.184C285.673 17.376 286.433 17.656 287.041 18.024L285.793 20.688C285.169 20.32 284.537 20.072 283.897 19.944C283.273 19.8 282.665 19.728 282.073 19.728C281.241 19.728 280.633 19.84 280.249 20.064C279.865 20.288 279.673 20.576 279.673 20.928C279.673 21.248 279.809 21.488 280.081 21.648C280.369 21.808 280.745 21.936 281.209 22.032C281.673 22.128 282.177 22.216 282.721 22.296C283.281 22.36 283.841 22.464 284.401 22.608C284.961 22.752 285.465 22.96 285.913 23.232C286.377 23.488 286.753 23.848 287.041 24.312C287.329 24.76 287.473 25.352 287.473 26.088C287.473 26.888 287.233 27.6 286.753 28.224C286.273 28.832 285.577 29.312 284.665 29.664C283.769 30.016 282.673 30.192 281.377 30.192ZM304.5 30V27.48L304.26 26.928V22.416C304.26 21.616 304.012 20.992 303.516 20.544C303.036 20.096 302.292 19.872 301.284 19.872C300.596 19.872 299.916 19.984 299.244 20.208C298.588 20.416 298.028 20.704 297.564 21.072L296.22 18.456C296.924 17.96 297.772 17.576 298.764 17.304C299.756 17.032 300.764 16.896 301.788 16.896C303.756 16.896 305.284 17.36 306.372 18.288C307.46 19.216 308.004 20.664 308.004 22.632V30H304.5ZM300.564 30.192C299.556 30.192 298.692 30.024 297.972 29.688C297.252 29.336 296.7 28.864 296.316 28.272C295.932 27.68 295.74 27.016 295.74 26.28C295.74 25.512 295.924 24.84 296.292 24.264C296.676 23.688 297.276 23.24 298.092 22.92C298.908 22.584 299.972 22.416 301.284 22.416H304.716V24.6H301.692C300.812 24.6 300.204 24.744 299.868 25.032C299.548 25.32 299.388 25.68 299.388 26.112C299.388 26.592 299.572 26.976 299.94 27.264C300.324 27.536 300.844 27.672 301.5 27.672C302.124 27.672 302.684 27.528 303.18 27.24C303.676 26.936 304.036 26.496 304.26 25.92L304.836 27.648C304.564 28.48 304.068 29.112 303.348 29.544C302.628 29.976 301.7 30.192 300.564 30.192ZM319.24 16.896C320.264 16.896 321.176 17.104 321.976 17.52C322.792 17.92 323.432 18.544 323.896 19.392C324.36 20.224 324.592 21.296 324.592 22.608V30H320.848V23.184C320.848 22.144 320.616 21.376 320.152 20.88C319.704 20.384 319.064 20.136 318.232 20.136C317.64 20.136 317.104 20.264 316.624 20.52C316.16 20.76 315.792 21.136 315.52 21.648C315.264 22.16 315.136 22.816 315.136 23.616V30H311.392V17.088H314.968V20.664L314.296 19.584C314.76 18.72 315.424 18.056 316.288 17.592C317.152 17.128 318.136 16.896 319.24 16.896ZM333.624 30.192C332.408 30.192 331.312 29.92 330.336 29.376C329.36 28.816 328.584 28.04 328.008 27.048C327.448 26.056 327.168 24.888 327.168 23.544C327.168 22.184 327.448 21.008 328.008 20.016C328.584 19.024 329.36 18.256 330.336 17.712C331.312 17.168 332.408 16.896 333.624 16.896C334.712 16.896 335.664 17.136 336.48 17.616C337.296 18.096 337.928 18.824 338.376 19.8C338.824 20.776 339.048 22.024 339.048 23.544C339.048 25.048 338.832 26.296 338.4 27.288C337.968 28.264 337.344 28.992 336.528 29.472C335.728 29.952 334.76 30.192 333.624 30.192ZM334.272 27.12C334.88 27.12 335.432 26.976 335.928 26.688C336.424 26.4 336.816 25.992 337.104 25.464C337.408 24.92 337.56 24.28 337.56 23.544C337.56 22.792 337.408 22.152 337.104 21.624C336.816 21.096 336.424 20.688 335.928 20.4C335.432 20.112 334.88 19.968 334.272 19.968C333.648 19.968 333.088 20.112 332.592 20.4C332.096 20.688 331.696 21.096 331.392 21.624C331.104 22.152 330.96 22.792 330.96 23.544C330.96 24.28 331.104 24.92 331.392 25.464C331.696 25.992 332.096 26.4 332.592 26.688C333.088 26.976 333.648 27.12 334.272 27.12ZM337.656 30V27.36L337.728 23.52L337.488 19.704V12.192H341.232V30H337.656ZM171.301 66.288C169.957 66.288 168.669 66.112 167.437 65.76C166.205 65.392 165.213 64.92 164.461 64.344L165.781 61.416C166.501 61.928 167.349 62.352 168.325 62.688C169.317 63.008 170.317 63.168 171.325 63.168C172.093 63.168 172.709 63.096 173.173 62.952C173.653 62.792 174.005 62.576 174.229 62.304C174.453 62.032 174.565 61.72 174.565 61.368C174.565 60.92 174.389 60.568 174.037 60.312C173.685 60.04 173.221 59.824 172.645 59.664C172.069 59.488 171.429 59.328 170.725 59.184C170.037 59.024 169.341 58.832 168.637 58.608C167.949 58.384 167.317 58.096 166.741 57.744C166.165 57.392 165.693 56.928 165.325 56.352C164.973 55.776 164.797 55.04 164.797 54.144C164.797 53.184 165.053 52.312 165.565 51.528C166.093 50.728 166.877 50.096 167.917 49.632C168.973 49.152 170.293 48.912 171.877 48.912C172.933 48.912 173.973 49.04 174.997 49.296C176.021 49.536 176.925 49.904 177.709 50.4L176.509 53.352C175.725 52.904 174.941 52.576 174.157 52.368C173.373 52.144 172.605 52.032 171.853 52.032C171.101 52.032 170.485 52.12 170.005 52.296C169.525 52.472 169.181 52.704 168.973 52.992C168.765 53.264 168.661 53.584 168.661 53.952C168.661 54.384 168.837 54.736 169.189 55.008C169.541 55.264 170.005 55.472 170.581 55.632C171.157 55.792 171.789 55.952 172.477 56.112C173.181 56.272 173.877 56.456 174.565 56.664C175.269 56.872 175.909 57.152 176.485 57.504C177.061 57.856 177.525 58.32 177.877 58.896C178.245 59.472 178.429 60.2 178.429 61.08C178.429 62.024 178.165 62.888 177.637 63.672C177.109 64.456 176.317 65.088 175.261 65.568C174.221 66.048 172.901 66.288 171.301 66.288ZM186.966 66.192C185.59 66.192 184.366 65.904 183.294 65.328C182.238 64.752 181.398 63.968 180.774 62.976C180.166 61.968 179.862 60.824 179.862 59.544C179.862 58.248 180.166 57.104 180.774 56.112C181.398 55.104 182.238 54.32 183.294 53.76C184.366 53.184 185.59 52.896 186.966 52.896C188.326 52.896 189.542 53.184 190.614 53.76C191.686 54.32 192.526 55.096 193.134 56.088C193.742 57.08 194.046 58.232 194.046 59.544C194.046 60.824 193.742 61.968 193.134 62.976C192.526 63.968 191.686 64.752 190.614 65.328C189.542 65.904 188.326 66.192 186.966 66.192ZM186.966 63.12C187.59 63.12 188.15 62.976 188.646 62.688C189.142 62.4 189.534 61.992 189.822 61.464C190.11 60.92 190.254 60.28 190.254 59.544C190.254 58.792 190.11 58.152 189.822 57.624C189.534 57.096 189.142 56.688 188.646 56.4C188.15 56.112 187.59 55.968 186.966 55.968C186.342 55.968 185.782 56.112 185.286 56.4C184.79 56.688 184.39 57.096 184.086 57.624C183.798 58.152 183.654 58.792 183.654 59.544C183.654 60.28 183.798 60.92 184.086 61.464C184.39 61.992 184.79 62.4 185.286 62.688C185.782 62.976 186.342 63.12 186.966 63.12ZM202.788 66.192C201.396 66.192 200.156 65.912 199.068 65.352C197.98 64.776 197.124 63.984 196.5 62.976C195.892 61.968 195.588 60.824 195.588 59.544C195.588 58.248 195.892 57.104 196.5 56.112C197.124 55.104 197.98 54.32 199.068 53.76C200.156 53.184 201.396 52.896 202.788 52.896C204.148 52.896 205.332 53.184 206.34 53.76C207.348 54.32 208.092 55.128 208.572 56.184L205.668 57.744C205.332 57.136 204.908 56.688 204.396 56.4C203.9 56.112 203.356 55.968 202.764 55.968C202.124 55.968 201.548 56.112 201.036 56.4C200.524 56.688 200.116 57.096 199.812 57.624C199.524 58.152 199.38 58.792 199.38 59.544C199.38 60.296 199.524 60.936 199.812 61.464C200.116 61.992 200.524 62.4 201.036 62.688C201.548 62.976 202.124 63.12 202.764 63.12C203.356 63.12 203.9 62.984 204.396 62.712C204.908 62.424 205.332 61.968 205.668 61.344L208.572 62.928C208.092 63.968 207.348 64.776 206.34 65.352C205.332 65.912 204.148 66.192 202.788 66.192ZM210.658 66V53.088H214.402V66H210.658ZM212.53 51.288C211.842 51.288 211.282 51.088 210.85 50.688C210.418 50.288 210.202 49.792 210.202 49.2C210.202 48.608 210.418 48.112 210.85 47.712C211.282 47.312 211.842 47.112 212.53 47.112C213.218 47.112 213.778 47.304 214.21 47.688C214.642 48.056 214.858 48.536 214.858 49.128C214.858 49.752 214.642 50.272 214.21 50.688C213.794 51.088 213.234 51.288 212.53 51.288ZM225.796 66V63.48L225.556 62.928V58.416C225.556 57.616 225.308 56.992 224.812 56.544C224.332 56.096 223.588 55.872 222.58 55.872C221.892 55.872 221.212 55.984 220.54 56.208C219.884 56.416 219.324 56.704 218.86 57.072L217.516 54.456C218.22 53.96 219.068 53.576 220.06 53.304C221.052 53.032 222.06 52.896 223.084 52.896C225.052 52.896 226.58 53.36 227.668 54.288C228.756 55.216 229.3 56.664 229.3 58.632V66H225.796ZM221.86 66.192C220.852 66.192 219.988 66.024 219.268 65.688C218.548 65.336 217.996 64.864 217.612 64.272C217.228 63.68 217.036 63.016 217.036 62.28C217.036 61.512 217.22 60.84 217.588 60.264C217.972 59.688 218.572 59.24 219.388 58.92C220.204 58.584 221.268 58.416 222.58 58.416H226.012V60.6H222.988C222.108 60.6 221.5 60.744 221.164 61.032C220.844 61.32 220.684 61.68 220.684 62.112C220.684 62.592 220.868 62.976 221.236 63.264C221.62 63.536 222.14 63.672 222.796 63.672C223.42 63.672 223.98 63.528 224.476 63.24C224.972 62.936 225.332 62.496 225.556 61.92L226.132 63.648C225.86 64.48 225.364 65.112 224.644 65.544C223.924 65.976 222.996 66.192 221.86 66.192ZM232.689 66V48.192H236.433V66H232.689ZM239.908 66V53.088H243.652V66H239.908ZM241.78 51.288C241.092 51.288 240.532 51.088 240.1 50.688C239.668 50.288 239.452 49.792 239.452 49.2C239.452 48.608 239.668 48.112 240.1 47.712C240.532 47.312 241.092 47.112 241.78 47.112C242.468 47.112 243.028 47.304 243.46 47.688C243.892 48.056 244.108 48.536 244.108 49.128C244.108 49.752 243.892 50.272 243.46 50.688C243.044 51.088 242.484 51.288 241.78 51.288ZM246.238 66V63.744L253.87 54.72L254.518 55.968H246.406V53.088H257.542V55.344L249.91 64.368L249.238 63.12H257.758V66H246.238ZM268.078 66V63.48L267.838 62.928V58.416C267.838 57.616 267.59 56.992 267.094 56.544C266.614 56.096 265.87 55.872 264.862 55.872C264.174 55.872 263.494 55.984 262.822 56.208C262.166 56.416 261.606 56.704 261.142 57.072L259.798 54.456C260.502 53.96 261.35 53.576 262.342 53.304C263.334 53.032 264.342 52.896 265.366 52.896C267.334 52.896 268.862 53.36 269.95 54.288C271.038 55.216 271.582 56.664 271.582 58.632V66H268.078ZM264.142 66.192C263.134 66.192 262.27 66.024 261.55 65.688C260.83 65.336 260.278 64.864 259.894 64.272C259.51 63.68 259.318 63.016 259.318 62.28C259.318 61.512 259.502 60.84 259.87 60.264C260.254 59.688 260.854 59.24 261.67 58.92C262.486 58.584 263.55 58.416 264.862 58.416H268.294V60.6H265.27C264.39 60.6 263.782 60.744 263.446 61.032C263.126 61.32 262.966 61.68 262.966 62.112C262.966 62.592 263.15 62.976 263.518 63.264C263.902 63.536 264.422 63.672 265.078 63.672C265.702 63.672 266.262 63.528 266.758 63.24C267.254 62.936 267.614 62.496 267.838 61.92L268.414 63.648C268.142 64.48 267.646 65.112 266.926 65.544C266.206 65.976 265.278 66.192 264.142 66.192ZM280.25 66.192C278.73 66.192 277.546 65.808 276.698 65.04C275.85 64.256 275.426 63.096 275.426 61.56V50.232H279.17V61.512C279.17 62.056 279.314 62.48 279.602 62.784C279.89 63.072 280.282 63.216 280.778 63.216C281.37 63.216 281.874 63.056 282.29 62.736L283.298 65.376C282.914 65.648 282.45 65.856 281.906 66C281.378 66.128 280.826 66.192 280.25 66.192ZM273.434 56.256V53.376H282.386V56.256H273.434ZM285.4 66V53.088H289.144V66H285.4ZM287.272 51.288C286.584 51.288 286.024 51.088 285.592 50.688C285.16 50.288 284.944 49.792 284.944 49.2C284.944 48.608 285.16 48.112 285.592 47.712C286.024 47.312 286.584 47.112 287.272 47.112C287.96 47.112 288.52 47.304 288.952 47.688C289.384 48.056 289.6 48.536 289.6 49.128C289.6 49.752 289.384 50.272 288.952 50.688C288.536 51.088 287.976 51.288 287.272 51.288ZM298.763 66.192C297.387 66.192 296.163 65.904 295.091 65.328C294.035 64.752 293.195 63.968 292.571 62.976C291.963 61.968 291.659 60.824 291.659 59.544C291.659 58.248 291.963 57.104 292.571 56.112C293.195 55.104 294.035 54.32 295.091 53.76C296.163 53.184 297.387 52.896 298.763 52.896C300.123 52.896 301.339 53.184 302.411 53.76C303.483 54.32 304.323 55.096 304.931 56.088C305.539 57.08 305.843 58.232 305.843 59.544C305.843 60.824 305.539 61.968 304.931 62.976C304.323 63.968 303.483 64.752 302.411 65.328C301.339 65.904 300.123 66.192 298.763 66.192ZM298.763 63.12C299.387 63.12 299.947 62.976 300.443 62.688C300.939 62.4 301.331 61.992 301.619 61.464C301.907 60.92 302.051 60.28 302.051 59.544C302.051 58.792 301.907 58.152 301.619 57.624C301.331 57.096 300.939 56.688 300.443 56.4C299.947 56.112 299.387 55.968 298.763 55.968C298.139 55.968 297.579 56.112 297.083 56.4C296.587 56.688 296.187 57.096 295.883 57.624C295.595 58.152 295.451 58.792 295.451 59.544C295.451 60.28 295.595 60.92 295.883 61.464C296.187 61.992 296.587 62.4 297.083 62.688C297.579 62.976 298.139 63.12 298.763 63.12ZM316.193 52.896C317.217 52.896 318.129 53.104 318.929 53.52C319.745 53.92 320.385 54.544 320.849 55.392C321.313 56.224 321.545 57.296 321.545 58.608V66H317.801V59.184C317.801 58.144 317.569 57.376 317.105 56.88C316.657 56.384 316.017 56.136 315.185 56.136C314.593 56.136 314.057 56.264 313.577 56.52C313.113 56.76 312.745 57.136 312.473 57.648C312.217 58.16 312.089 58.816 312.089 59.616V66H308.345V53.088H311.921V56.664L311.249 55.584C311.713 54.72 312.377 54.056 313.241 53.592C314.105 53.128 315.089 52.896 316.193 52.896Z" fill="#1A1A1A"/>
<defs>
<clipPath id="clip0_186_968">
<rect width="106.56" height="106.462" fill="white" transform="translate(115.2 74.16)"/>
</clipPath>
</defs>
</svg>
