<svg width="360" height="360" viewBox="0 0 360 360" fill="none" xmlns="http://www.w3.org/2000/svg">
<path d="M359.64 0H0V360H359.64V0Z" fill="#F7F0F0"/>
<mask id="mask0_186_883" style="mask-type:luminance" maskUnits="userSpaceOnUse" x="0" y="0" width="360" height="360">
<path d="M360 0H0.359619V360H360V0Z" fill="white"/>
</mask>
<g mask="url(#mask0_186_883)">
<path d="M366.395 134.157C365.913 106.956 368.042 79.8047 370.171 52.7039C371.178 38.8655 373.436 25.0343 372.544 11.1239C372.465 6.84707 370.854 2.38306 367.013 0.136664C358.08 -5.81773 346.988 -5.96175 336.659 -7.12095C313.29 -9.91455 289.769 -8.38815 266.299 -8.43135C234.083 -7.75455 201.881 -9.79933 169.664 -9.44653C152.049 -9.06493 134.434 -8.60415 116.826 -8.02815C108.151 -7.48095 99.4478 -7.28655 90.8165 -6.27135C87.4718 -6.83295 84.0697 -6.88336 80.689 -6.81856C73.302 -6.63136 65.9365 -5.72417 58.6934 -4.30577C52.0256 -2.93777 45.0847 -1.74975 39.165 1.78545C29.2893 7.74705 26.8005 15.0911 34.8061 23.8967C41.517 31.4495 51.8674 33.1414 61.4842 33.055C73.0574 33.379 84.6235 32.695 96.132 31.435C85.9398 36.1726 66.5911 43.7614 61.7935 54.2374C60.2183 59.7526 65.2245 63.9214 70.2307 64.7422C75.4886 66.0238 80.9839 64.9006 86.1195 63.3526C83.897 65.8438 85.0407 69.5374 87.9825 70.8118C89.3851 71.4382 90.874 71.7838 92.3773 72.079C100.915 73.6918 109.489 73.3318 118.171 72.8854C126.694 72.5038 135.139 71.2726 143.583 70.1062C132.499 77.767 122.062 86.3422 111.906 95.191C98.9156 106.675 85.3931 119.131 78.8764 135.583C77.294 140.177 75.5533 145.454 77.855 150.098C81.5305 157.349 89.9606 160.279 97.3188 162.295C123.529 168.566 158.789 162.749 183.517 152.568C174.296 161.618 165.622 171.237 157.933 181.634C155.832 184.449 153.761 187.286 151.732 190.159C150.668 191.628 149.776 193.284 149.402 195.069C148.157 207.756 169.98 193.536 174.577 191.095C172.066 195.717 168.571 200.318 168.305 205.733C168.247 210.074 172.455 212.493 176.411 211.665C184.798 209.865 191.415 203.177 197.385 197.381C191.041 210.153 186.207 223.754 183.546 237.78C182.438 247.608 179.525 261.9 186.474 270.014C191.875 274.946 199.946 273.103 205.607 269.589C225.516 257.385 241.757 227.181 253.136 206.892C249.044 221.817 245.39 237.009 243.585 252.417C242.88 259.466 241.786 266.695 243.139 273.715C243.951 278.381 247.138 281.945 252.13 280.195C261.754 276.242 269.68 254.894 273.075 245.311C273.205 249.847 271.809 262.073 277.786 262.965C279.548 263.275 281.26 262.274 282.354 260.949C284.792 257.904 286.015 254.095 287.518 250.538C289.367 245.865 291.122 241.164 292.733 236.397C292.589 250.236 293.229 264.312 297.293 277.632C299.868 286.646 304.767 295.02 314.383 297.576C326.978 300.197 337.594 290.181 345.276 281.433C357.569 266.846 364.625 248.443 368.07 229.795C370.919 215.935 370.465 201.715 369.48 187.675C368.416 169.833 366.589 152.035 366.43 134.15L366.395 134.157ZM47.5877 53.5318C45.0343 54.3742 42.4017 55.1014 40.0209 56.3974C37.5969 57.8302 35.2521 59.4502 33.1158 61.2862C32.2455 61.9846 32.0585 63.3238 32.7706 64.195C33.4395 65.0446 34.8348 65.2822 35.6764 64.5406C37.1581 63.2302 38.5392 61.8118 40.0065 60.4798C42.5959 57.9238 45.9549 56.455 48.8896 54.3742C49.2205 54.259 49.3571 53.8414 49.1845 53.539C48.7961 52.9846 48.1056 53.4454 47.5877 53.5246V53.5318ZM43.0059 47.0518C43.531 46.5838 43.1138 45.6766 42.4593 45.6982C41.1646 45.4318 40.0353 45.2734 38.7046 44.9854C33.8279 44.071 28.9728 42.6887 23.9594 42.7535C21.5138 42.8399 18.4641 42.8903 16.8313 45.0071C13.8319 49.6151 19.2265 52.747 23.3839 52.6174C27.9873 52.9774 32.5764 52.0558 36.8273 50.2918C38.8988 49.399 41.6321 48.9526 43.0059 47.059V47.0518ZM80.8976 85.399C81.3219 85.3342 82.6023 85.5358 82.4512 84.8446C82.3865 84.6934 82.1995 84.607 82.0413 84.679C81.6313 84.5782 81.2141 84.5278 80.8041 84.4558C80.5092 84.0958 80.0057 84.1246 79.5813 84.1462C72.7841 83.7214 65.7496 83.9086 59.4055 86.7742C56.5212 88.0486 53.3348 89.5966 51.7236 92.4982C50.0045 95.5222 52.5148 97.3078 55.4207 97.1566C61.8367 96.8614 66.9723 92.4262 72.3669 89.431C74.9204 88.1062 77.3515 86.5438 80.2071 85.8526C80.466 85.8094 80.7753 85.651 80.8976 85.399Z" fill="#F2958C"/>
</g>
<mask id="mask1_186_883" style="mask-type:luminance" maskUnits="userSpaceOnUse" x="0" y="0" width="360" height="360">
<path d="M360 0H0V360H360V0Z" fill="white"/>
</mask>
<g mask="url(#mask1_186_883)">
<path d="M181.323 219.514C183.395 231.566 183.014 243.259 181.74 255.247C179.935 269.129 175.598 281.909 167.154 293.184C165.449 296.05 162.047 296.87 160.766 293.105C160.104 290.261 160.205 287.309 160.069 284.407C144.633 312.912 110.798 337.118 77.5886 335.772C69.8995 335.311 62.5269 332.762 55.2765 330.322C42.9265 326.441 31.8568 319.637 21.42 312.098C9.2282 303.826 -1.17256 292.687 -6.68945 278.863C-15.774 255.276 -15.2848 224.755 -10.7318 200.189C-8.41572 190.008 -6.37298 180.446 -2.56798 170.878C3.1503 156.686 11.6594 143.755 21.046 131.738C32.6911 116.395 51.7952 103.968 70.741 100.289C81.631 98.5176 93.1179 98.1216 103.447 102.571C96.7215 93.2616 108.439 89.8344 112.905 98.5032C115.581 96.6384 118.228 93.996 121.716 94.0968C126.795 94.248 126.011 100.051 123.939 103.104C138.972 107.95 151.049 123.401 159.119 136.447C161.543 140.782 163.37 145.433 164.859 150.163C167.736 159.372 170.153 168.725 172.268 178.135C174.763 192.046 178.41 205.697 181.316 219.514H181.323Z" fill="#8FA5BC"/>
<path d="M158.99 294.818C164.428 307.872 167.384 321.825 160.774 335.081C159.328 338.385 157.091 341.28 154.3 343.548C154.602 344.491 154.71 345.585 154.897 346.349C155.602 352.951 150.322 355.161 144.741 355.831C139.756 356.645 134.678 356.688 129.636 356.529C129.47 357.393 129.305 358.257 129.132 359.121C127.492 367.286 125.874 375.429 123.831 383.501C123.011 386.381 122.436 389.448 120.717 391.953C117.423 395.942 112.495 398.491 108.216 400.536C101.908 403.841 94.8659 405.18 87.932 406.454C81.0053 407.376 74.014 408.189 67.0297 408.247C51.7019 407.671 36.6042 404.013 22.8012 397.274C16.4715 394.099 10.5949 390.067 4.75437 386.085C-4.81926 379.368 -13.4793 371.325 -20.6434 362.059C-25.1677 355.881 -27.9872 348.689 -29.8142 341.294C-30.6773 336.031 -25.9877 331.985 -22.643 328.586C-17.6584 323.712 -12.2422 319.313 -7.17847 314.525C-5.49536 313.005 -3.81223 311.479 -2.12911 309.945C-7.96967 309.65 -13.4075 307.123 -17.5433 303.005C-20.3629 300.369 -22.1539 297.237 -23.7075 293.76C-25.1605 290.505 -26.3761 286.214 -24.7936 282.773C-24.211 281.491 -23.2544 280.418 -22.2762 279.417C-20.8448 277.956 -19.3559 276.818 -17.7232 275.652C-15.9681 274.399 -14.4504 272.678 -12.7385 271.332C-9.26437 268.603 -5.68234 265.802 -2.0284 263.325C7.72505 256.723 16.4642 248.717 26.4119 242.409C30.8642 240.019 35.6691 237.528 40.8479 237.657C47.5013 238.19 53.8237 241.142 59.9232 243.554C66.519 246.125 73.1868 248.695 80.1278 250.164C87.3925 251.316 94.7076 251.337 101.951 250.567C108.288 249.71 115.236 247.989 121.112 251.352C124.529 252.497 128.478 252.439 131.226 255.233C132.074 255.917 132.829 256.73 133.599 257.522C136.642 260.769 140.015 263.721 142.813 267.185C145.669 270.842 148.531 274.507 151.07 278.395C154.185 283.622 156.616 289.231 159.011 294.818H158.99Z" fill="#F29849"/>
<path d="M118.998 258.465C119.213 261.59 118.753 264.888 117.688 267.847C115.689 272.167 110.704 274.896 106 274.586C104.116 274.428 102.332 273.737 100.526 273.218C98.2607 275.652 95.6066 278.964 91.9095 278.51C88.3994 277.869 85.3281 275.573 83.4004 272.613C77.4376 277.783 67.9287 274.226 66.6556 266.472C60.405 269.618 51.2414 262.951 54.586 255.981C55.1327 254.729 56.3699 252.151 58.0314 253.188C64.2316 252.518 70.1585 253.166 76.2724 252.396C82.5157 251.849 88.7663 252.41 94.9808 253.015C99.7713 253.281 104.562 253.649 109.259 254.671C111.524 255.117 113.812 255.413 116.07 255.866C117.458 256.075 118.847 256.968 119.005 258.465H118.998Z" fill="#F2E3B6"/>
<path d="M31.4901 284.27C26.6565 293.789 21.3123 300.622 11.4581 305.352C8.59539 306.749 5.6391 307.908 2.50303 308.556C1.48165 308.822 0.359629 308.894 -0.589822 309.384C-1.47454 310.219 0.712058 310.392 1.28029 310.363C9.1708 310.198 16.5794 306.057 22.4919 301.053C27.3686 297.014 30.7276 291.521 33.353 285.826C34.4679 284.371 32.5546 282.787 31.4901 284.263V284.27ZM131.448 307.793C130.693 300.117 130.06 292.392 128.895 284.767C128.838 284.09 128.248 283.118 127.528 283.73C126.96 284.688 127.385 285.941 127.356 287.006C127.73 293.745 128.514 300.65 129.111 307.404C129.542 322.862 130.456 338.349 129.399 353.801C129.399 355.046 131.211 355.104 131.384 353.938C132.391 346.579 132.405 339.106 132.319 331.69C132.031 323.726 131.909 315.756 131.448 307.8V307.793ZM149.783 345.233C149.553 344.7 148.92 344.361 148.352 344.541C146.05 345.312 143.698 345.866 141.324 346.349C139.174 346.81 136.965 346.874 134.779 347.061C134.074 346.896 133.894 347.681 134.398 348.07C135.462 349.013 137.066 349.013 138.44 349.041C140.332 349.092 150.898 348.07 149.783 345.226V345.233Z" fill="#B3493B"/>
<path d="M129.636 356.529C129.471 357.401 129.305 358.257 129.133 359.121C127.493 367.286 125.874 375.429 123.831 383.501C123.011 386.381 122.436 389.448 120.717 391.953C119.76 393.105 118.653 394.113 117.473 395.049C118.638 397.764 122.465 398.491 125.299 398.541C129.118 398.7 132.988 398.606 136.764 397.721C138.001 397.296 138.67 396.115 139.21 395.006C140.634 392.054 141.921 389.023 143.022 385.934C145.065 380.052 146.518 373.997 147.999 367.949C148.999 363.47 150.315 358.977 150.38 354.355C148.711 355.133 146.748 355.586 144.734 355.824C139.749 356.637 134.671 356.681 129.629 356.522L129.636 356.529ZM171.311 170.1C168.233 167.796 163.802 167.673 161.435 170.323C160.673 168.588 159.875 167.047 159.162 166.19C158.997 165.643 158.436 165.225 157.889 165.017C151.085 162.705 144.259 159.379 139.159 154.217C136.915 151.711 135.347 148.449 133.376 145.67C132.966 145.101 132.571 144.54 131.851 144.338C128.341 143.777 129.363 148.125 129.528 150.242C129.938 155.714 127.385 160.473 121.997 155.599C119.329 153.137 117.214 150.17 114.704 147.549C114.114 146.916 113.445 146.347 112.546 146.246C109.172 146.045 109.676 150.249 109.539 152.532C109.431 153.993 109.101 155.419 108.626 156.801C107.676 159.631 105.979 162.173 103.763 164.16C98.6997 169.488 98.707 157.226 98.4696 154.296C98.6422 152.013 95.2904 151.193 94.42 153.367C94.1323 154.62 93.8806 155.865 93.4346 157.075C91.9817 161.683 88.9607 165.506 85.3499 168.631C83.5014 170.258 81.4514 171.756 79.049 172.425C77.1933 168.293 78.8117 163.382 79.4447 159.105C79.8187 156.917 76.8768 155.455 75.3807 157.082C75.0067 157.464 74.7981 157.946 74.647 158.457C74.0356 160.214 73.1581 161.87 72.1367 163.425C69.3603 167.479 65.7711 170.928 61.7216 173.693C60.2327 174.506 57.6433 176.501 56.068 175.169C54.6295 173.412 54.5791 171.029 54.3705 168.869C54.1116 166.262 54.464 163.62 54.3201 161.028C53.831 158.961 50.7957 158.587 49.803 160.445C49.3715 161.445 48.8968 162.475 48.2423 163.382C42.8189 171.007 35.9066 178.099 27.2968 182.059C26.0884 182.729 25.1533 181.987 24.0744 181.454C21.1109 180.144 17.8382 179.885 14.6374 179.748C7.61004 179.388 0.6187 183.139 -2.73315 189.374C-10.2568 203.753 0.63303 221.076 16.0904 223.178C18.3058 223.517 20.6147 223.661 22.866 223.401C23.9881 226.404 25.6064 229.183 27.4046 231.84C26.1171 231.307 24.7937 231.026 23.5062 231.077C18.3921 231.537 13.2132 233.121 8.78965 235.742C4.75449 238.334 1.20131 242.33 -0.402685 246.816C-5.34414 248.861 -9.75335 252.065 -13.7238 255.621C-18.2696 259.603 -22.9162 264.204 -24.5993 270.209C-27.7138 278.777 -26.4838 288.468 -17.3418 292.485C-14.328 294.069 -10.8323 293.81 -7.64589 292.968C-2.72601 291.83 1.27318 288.597 4.7473 285.077C7.92652 281.693 10.3505 277.675 12.3429 273.506C13.2061 271.836 14.1555 270.18 14.997 268.488C16.6442 269.575 18.3633 270.504 20.3485 270.813C22.4488 271.26 24.7146 269.683 25.1102 267.617C27.2896 266.45 29.2461 262.188 28.6491 260.438C28.6491 260.417 28.6419 260.395 28.6275 260.373C30.7278 260.352 32.8065 258.595 33.3819 256.622C33.5401 255.945 33.5761 255.204 33.4682 254.484C36.8129 253.497 38.3809 250.085 38.201 246.542C46.8971 254.073 58.0532 258.077 69.1877 260.683C75.8554 262.224 82.5878 263.721 89.4426 264.24C95.5421 264.427 101.714 264.506 107.777 263.714C114.481 262.663 120.926 260.46 127.176 257.868C136.138 253.915 145.022 249.523 151.876 242.186C158.415 235.123 163.025 226.447 165.391 217.123C166.636 212.069 168.204 207.014 168.362 201.773C168.376 200.93 168.376 200.088 168.362 199.245C170.434 198.317 172.44 196.524 173.613 195.134C179.13 188.618 178.72 175.125 171.318 170.15L171.311 170.1Z" fill="#F2D0C4"/>
<path d="M15.2415 252.763C13.9611 252.814 14.3998 253.886 15.2702 254.246C19.0104 257.004 22.6572 260.446 23.7074 265.162C23.916 265.68 24.5202 265.961 25.0525 265.81C26.8578 265.169 25.2754 261.821 24.7575 260.604C22.8874 257.206 19.2838 253.375 15.2415 252.763ZM20.8446 247.543C20.3699 247.435 19.7441 247.27 19.3197 247.601C18.9601 247.889 19.219 248.357 19.593 248.479C20.9956 249.372 22.0746 250.466 23.2974 251.69C24.6856 253.188 25.5271 255.024 26.3471 256.867C26.7067 257.494 27.5196 257.753 28.1741 257.472C29.4113 256.961 29.0948 255.492 28.6345 254.527C27.3038 251.186 24.3763 248.393 20.8518 247.529L20.8446 247.543ZM24.1246 242.294C23.7865 242.309 23.3549 242.381 23.1391 242.669C23.1391 242.669 23.1247 242.698 23.1031 242.726C22.8945 242.993 23.0385 243.511 23.4341 243.576C26.6636 245.081 28.6344 248.263 30.3175 251.266C31.303 252.9 33.7988 251.633 33.0796 249.883C31.4396 246.334 28.3683 242.417 24.1246 242.294ZM1.06437 252.518C1.19384 251.057 1.58947 249.646 1.99227 248.242C2.45261 246.557 -0.00730768 245.707 -0.683431 247.313C-2.49602 250.949 -2.20116 258.091 1.60383 260.345C1.88435 260.388 2.17207 260.201 2.244 259.92C2.29435 259.387 1.82683 258.948 1.71894 258.43C1.17948 256.543 1.00683 254.491 1.06437 252.518ZM169.491 181.764C169.434 181.778 169.347 181.829 169.275 181.85C169.549 181.382 169.815 180.914 170.117 180.468C170.304 180.18 170.412 179.856 170.362 179.503C170.246 178.43 168.873 178.006 168.124 178.747C167.441 179.338 166.945 180.072 166.542 180.864C165.988 179.338 165.327 177.854 164.435 176.494C164.356 175.968 163.579 176.076 163.593 176.558C164.758 183.362 167.189 189.886 167.204 196.934C167.247 197.438 167.765 197.798 168.247 197.734C169.613 197.388 168.923 195.386 169.052 194.342C168.988 191.779 168.707 189.223 168.175 186.71C168.067 186.206 167.938 185.702 167.815 185.206C168.693 185.004 169.57 184.738 170.477 184.601C172.483 184.003 171.455 181.001 169.491 181.764ZM19.8808 203.22C19.9599 203.018 19.9168 202.86 19.8952 202.687C20.2476 202.464 20.3843 201.902 20.3267 201.47C19.8592 197.381 16.1908 194.364 12.5729 192.917C10.3359 191.966 8.50177 195.091 10.451 196.56C12.652 198.094 15.0113 199.404 17.1044 201.089C15.486 200.837 13.6518 200.88 12.9397 201.074C11.2854 201.283 10.6524 203.537 12.0119 204.538C12.4003 204.84 12.9613 205.027 13.4576 204.926C14.9609 204.595 16.4354 204.178 17.9675 204.005C18.5932 203.904 19.5211 203.846 19.8736 203.22H19.8808Z" fill="#F2AB9B"/>
<path d="M107.482 233.481C110.798 235.324 110.352 239.846 108.993 242.827C107.324 246.888 104.375 250.416 100.692 252.777C98.3184 254.462 95.2471 256.01 92.2765 255.369C85.7311 251.942 91.8089 242.949 95.1032 239.112C97.7718 236.131 103.303 231.804 107.482 233.481Z" fill="#BF3434"/>
<path d="M128.017 192.11C122.206 190.656 118.904 197.51 118.278 202.291C117.933 206.957 119.731 213.653 124.457 215.532C127.456 216.684 131.283 215.539 132.851 212.681C137.598 207.857 134.548 194.342 128.017 192.117V192.11ZM59.9159 191.995C57.9522 191.189 55.6433 191.34 53.5071 192.038C52.3778 192.29 51.3492 192.787 50.4357 193.493C50.2847 193.586 50.1192 193.673 49.9754 193.773C49.1122 194.421 48.3786 195.285 47.7456 196.279C47.5298 196.481 47.3356 196.682 47.1055 196.891C42.725 202.442 43.0919 212.652 46.7171 218.534C48.5585 221.594 50.7235 224.856 54.4566 225.641C58.7651 226.303 63.2317 224.201 66.0657 220.997C69.9498 216.173 69.993 208.361 68.9428 202.507C68.0725 197.676 64.7782 192.909 59.9159 192.002V191.995Z" fill="white"/>
<path d="M104.842 246.564C100.519 243.274 94.046 245.174 89.7878 248.098C88.9391 251.006 89.2483 253.786 92.2765 255.37C95.2471 256.01 98.3184 254.462 100.692 252.778C102.684 251.503 104.44 249.862 105.914 247.997C105.648 247.522 105.31 247.046 104.842 246.564Z" fill="#F2958C"/>
<path d="M158.364 218.001C157.58 214.358 155.055 210.297 150.919 210.319C142.317 209.433 132.736 213.919 129.226 222.084C126.435 228.197 132.081 234.655 138.231 235.08C143.007 235.555 147.999 234.072 151.84 231.221C155.767 228.132 159.371 223.257 158.364 218.001ZM54.9027 225.756C49.0046 225.144 41.1428 225.828 38.1794 231.775C36.4603 235.166 37.6471 239.169 40.1358 241.833C42.7971 244.526 46.5446 245.786 50.1266 246.758C56.1182 248.141 63.3182 247.572 67.5764 242.661C70.6549 239.148 70.4607 233.337 66.8211 230.292C63.5268 227.426 59.1105 226.433 54.9099 225.763L54.9027 225.756ZM42.5957 235.433C42.7324 236.556 43.3078 237.535 44.0055 238.413C44.3508 238.853 44.7176 239.285 45.1061 239.702C43.7322 238.795 42.308 237.182 42.5957 235.433Z" fill="#F2AB9B"/>
<path d="M50.3928 197.539C43.0346 205.445 46.0267 221.393 57.4561 223.488C61.0525 223.927 63.4981 221.285 64.4404 218.001C65.361 215.906 65.7134 213.552 65.548 211.277C65.5048 210.989 65.4977 210.701 65.2172 210.528C64.3468 210.146 64.0231 211.449 63.419 211.824C62.5414 212.551 61.0741 213.019 60.175 212.047C56.4563 209.304 59.1608 200.347 63.98 204.617C64.239 204.84 64.5266 205.164 64.728 205.466C64.8719 205.718 65.0014 206.078 65.3395 206.136C65.4833 206.417 65.9939 206.359 65.9939 205.97V205.898C66.929 203.277 65.7997 200.21 64.3684 197.957C61.1891 192.773 54.1187 193.19 50.4 197.546L50.3928 197.539ZM121.954 195.919C118.811 200.606 120.487 211.449 126.291 213.401C130.449 214.092 132.434 208.627 131.794 205.257C131.765 204.739 131.146 204.329 130.664 204.624C130.37 204.797 130.247 205.121 129.996 205.344C129.693 205.646 129.168 205.625 128.859 205.344C127.377 204.091 126.716 200.592 129.132 200.073C129.924 200.066 130.736 200.491 131.096 201.211C131.319 201.845 132.276 201.506 132.024 200.865C133.585 194.781 125.759 190.411 121.947 195.919H121.954ZM103.317 211.968C102.368 212.191 100.196 213.149 100.75 214.394C100.814 214.481 100.901 214.517 101.001 214.538C102.21 214.344 103.332 213.631 104.619 213.624C106.921 213.437 108.23 215.265 106.993 217.325C106.425 218.376 105.454 219.146 104.583 219.931C104.101 220.327 103.994 221.025 104.382 221.529C106.051 223.452 109.093 218.196 109.367 216.77C110.381 213.3 106.324 210.945 103.31 211.975L103.317 211.968ZM124.205 172.217C125.27 172.26 126.198 172.973 126.989 173.628C127.773 174.729 128.989 176.018 130.413 175.082C133.103 172.778 128.888 169.005 126.529 168.379C122.745 167.076 117.372 171.353 118.127 175.327C118.221 175.737 118.753 175.975 119.113 175.723C119.465 175.514 119.336 175.154 119.544 174.881C120.53 173.361 122.364 172.346 124.213 172.209L124.205 172.217Z" fill="black"/>
<path d="M90.4783 198.878C84.7313 170.525 48.9398 160.085 29.4833 181.944C15.6515 197.481 18.205 219.873 32.1159 232.394L30.6485 234.101C32.9214 235.915 34.5255 237.729 35.6332 239.385L37.942 236.707C40.6969 238.305 43.7395 239.587 47.0625 240.465C72.2086 246.909 95.7866 224.345 90.4783 198.885V198.878ZM77.4665 224.561C77.4665 224.561 77.4521 224.582 77.4306 224.597C72.4747 230.205 65.4258 233.813 57.8734 234.266C44.1639 235.375 30.6773 225.201 28.1598 211.572C25.0885 197.928 33.5473 183.283 46.8108 178.934C61.3403 173.793 77.8765 181.548 82.8971 196.257C82.9043 196.279 82.9115 196.293 82.9187 196.315C86.3137 205.826 84.2422 216.972 77.4665 224.553V224.561ZM5.94844 262.8L1.87729 267.53C0.57539 269.042 0.748038 271.325 2.25853 272.628C3.76902 273.931 6.0491 273.758 7.351 272.246L12.2565 266.551C11.2352 265.831 10.2138 265.14 9.13489 264.593C8.14948 263.909 7.04895 263.354 5.95564 262.793L5.94844 262.8Z" fill="#687E8C"/>
<path d="M417.78 247.435C428.224 252.237 425.641 256.889 421.527 265.536C417.557 273.456 412.565 280.829 407.264 287.921C398.424 299.599 389.03 310.874 378.09 320.652C374.911 323.712 371.53 326.585 367.768 328.91C363.194 331.682 357.878 334.663 352.368 333.367C346.305 331.898 343.133 325.461 342.478 319.694C335.638 327.931 327.906 335.412 319.361 341.849C306.658 351.813 293.675 362.037 278.225 367.329C256.308 374.846 236.557 366.127 240.621 340.473C229.436 351.691 217.23 361.879 203.794 370.289C192.228 377.611 179.144 383.493 165.204 383.169C157.796 382.932 149.977 382.277 143.619 378.122C132.973 371.246 132.074 361.346 136.699 350.33C122.364 358.704 106.295 364.457 89.723 365.587C73.2371 367.056 53.1188 360.813 64.3324 340.769C53.198 345.866 41.6751 350.028 30.0371 353.808C19.0249 357.127 2.64693 363.83 -8.49473 360.223C-18.838 355.305 -6.90514 342.079 -2.0428 337.133C7.84731 328.046 19.7442 321.314 31.8209 315.583C50.738 307.001 70.2162 299.678 90.0539 293.537C107.842 288.281 126.097 283.759 143.849 278.525C152.66 275.817 161.478 273.168 170.484 271.188C187.624 267.602 205.052 265.5 222.229 262.087C235.384 259.675 248.49 256.968 261.76 255.254C283.929 252.338 306.183 249.876 328.488 248.313C337.371 247.917 346.161 246.441 355.023 245.793C367.092 245.009 379.176 244.065 391.274 244.541C393.152 242.301 402.855 244.497 405.811 244.785C409.86 245.376 414.018 245.765 417.809 247.421L417.78 247.435Z" fill="#337F69"/>
<path d="M190.969 281.693C182.309 289.742 174.397 298.713 166.65 307.721C155.623 320.609 143.942 333.245 136.059 348.401C135.527 349.43 135.059 350.489 134.541 351.533C135.253 351.137 135.98 350.762 136.685 350.345C135.174 353.952 134.268 357.437 134.081 360.734C137.174 353.952 140.396 347.241 144.388 340.941C153.746 326.635 165.499 314.085 176.403 300.967C186.466 288.849 198.32 278.402 209.275 267.113C209.267 267.12 209.253 267.134 209.246 267.141C209.246 267.141 209.246 267.141 209.239 267.149C210.303 266.061 211.368 264.981 212.447 263.873C211.44 264.053 210.433 264.254 209.426 264.427C203.254 270.144 197.126 276.019 190.969 281.693ZM241.419 340.848C248.332 325.433 257.337 311.083 267.565 297.655C275.283 287.51 282.893 277.178 290.632 266.961C295.034 261.05 300.026 255.657 305.076 250.308C303.731 250.437 302.393 250.567 301.048 250.704C298.509 253.21 295.998 255.737 293.603 258.343C283.785 269.568 275.254 281.635 266.105 293.529C253.87 309.283 242.98 326.383 235.802 345.096C237.413 343.569 239.046 342.065 240.614 340.495C240.455 341.517 240.391 342.461 240.304 343.433C240.678 342.576 241.038 341.712 241.419 340.855V340.848ZM162.543 307.591C174.253 293.047 187.408 279.813 201.19 267.185C201.801 266.616 202.405 266.047 203.017 265.478C201.708 265.694 200.399 265.91 199.082 266.126C186.963 276.66 175.411 287.834 164.787 299.894C155.94 309.974 148.308 321.062 140.511 331.97C135.131 339.595 130.218 347.551 126.039 355.889C127.78 355.082 129.514 354.24 131.211 353.354C132.678 350.683 134.175 348.033 135.807 345.456C144.122 332.438 153.185 319.874 162.536 307.584L162.543 307.591ZM103.864 298.505C96.5202 305.014 89.7374 312.113 83.0984 319.341C74.4167 328.565 67.3894 339.012 61.1748 349.999C60.9878 352.094 61.2323 353.973 61.8869 355.615C66.5334 347.277 71.2806 338.875 77.0565 331.236C89.0181 316.022 102.641 302.083 117.509 289.706C119.775 287.791 122.055 285.89 124.342 284.011C123.047 284.364 121.753 284.717 120.458 285.069C114.833 289.411 109.259 293.882 103.857 298.505H103.864ZM62.4263 344.837C66.296 338.573 70.1442 332.302 74.4887 326.326C80.8471 317.772 88.7232 310.521 96.3979 303.177C102.541 297.331 108.863 291.708 115.488 286.43C114.02 286.826 112.553 287.229 111.086 287.633C104.31 293.047 97.8293 298.865 91.4925 304.776C80.6529 314.568 70.8347 325.533 63.5555 338.277C62.7643 339.581 61.9228 340.862 61.1172 342.166C62.1817 341.698 63.2607 341.258 64.318 340.776C63.5196 342.201 62.9154 343.548 62.4263 344.837ZM363.352 281.419C363.352 281.419 363.323 281.455 363.244 281.57C363.251 281.556 363.265 281.549 363.273 281.534C363.323 281.469 363.366 281.405 363.416 281.34C363.395 281.369 363.373 281.397 363.352 281.419ZM394.928 243.59C394.77 243.785 394.605 243.986 394.446 244.181C384.276 256.817 373.148 268.661 363.273 281.534C351.692 296.431 341.514 312.437 333.466 329.522C336.609 326.383 339.644 323.121 342.485 319.701C342.565 320.385 342.68 321.084 342.831 321.782C346.801 314.539 350.966 307.404 355.533 300.506C368.192 280.591 383.923 262.922 397.532 243.691C396.611 243.612 395.748 243.583 394.928 243.59ZM318.037 254.894C320.058 252.893 322.015 250.776 324 248.688C322.907 248.767 321.82 248.861 320.734 248.947C320.648 249.034 320.562 249.12 320.468 249.199C311.88 257.414 303.155 265.514 295.049 274.219C284.188 286.293 274.564 299.102 264.674 312.012C257.251 321.732 250.317 331.833 244.577 342.648C243.146 345.348 241.779 348.084 240.376 350.798C240.664 353.102 241.182 355.212 241.952 357.098C242.628 355.809 243.297 354.513 243.98 353.225C247.943 345.657 252.021 338.148 256.725 330.991C263.026 321.314 269.968 312.494 276.93 303.228C289.561 286.221 303.047 269.877 318.037 254.894ZM361.244 245.405C360.359 245.462 359.482 245.52 358.597 245.577C355.749 248.645 352.987 251.791 350.117 254.808C337.954 267.667 327.165 281.448 316.606 295.726C316.606 295.726 316.606 295.718 316.613 295.711C316.613 295.711 316.62 295.697 316.627 295.697C308.564 306.497 300.285 317.354 293.265 328.917C286.425 339.955 280.879 351.705 275.477 363.499C274.672 365.256 273.873 367.027 273.075 368.791C274.672 368.424 276.283 367.992 277.916 367.437C282.598 357.516 287.237 347.558 292.524 337.939C303.659 317.981 317.922 300.024 331.315 281.57C331.293 281.599 331.279 281.621 331.257 281.649C340.795 269.265 350.771 257.069 361.244 245.405Z" fill="#5CAA93"/>
<path d="M113.754 279.497C111.553 278.338 109.201 281.462 110.453 283.457C113.244 287.33 118.056 281.902 113.754 279.497ZM91.2336 295.078C90.9171 294.192 91.6723 293.141 91.1257 292.356C90.7157 291.946 90.1043 292.233 89.8741 292.687C88.6801 294.343 88.975 297.562 90.7012 298.742C91.5428 299.254 92.5498 298.26 92.0535 297.403C91.6579 296.676 91.4062 295.884 91.2264 295.078H91.2336ZM93.6863 293.17C93.341 294.61 93.1109 296.273 93.7367 297.684C93.9956 298.21 94.7005 298.404 95.2255 298.195C96.7144 297.468 95.4413 295.2 95.5564 293.89C96.1678 292.594 94.1035 291.802 93.6863 293.17ZM103.454 290.707C102.872 291.168 103.231 291.888 103.598 292.356C104.058 292.997 104.217 293.875 104.562 294.588C105.037 295.502 106.525 295.114 106.511 294.084C106.655 292.838 104.85 289.937 103.447 290.707H103.454ZM109.611 288.893C108.396 288.921 109.309 291.391 109.345 292.154C109.446 292.644 110 292.925 110.46 292.802C111.906 292.507 110.647 289.058 109.611 288.893Z" fill="black"/>
<path d="M104.785 271.922C110.287 274.421 113.495 280.915 112.733 286.834C110.884 290.628 105.864 291.521 102.26 292.788C98.1314 294.005 93.6862 294.545 89.4496 294.228C89.1403 294.372 88.7807 294.408 88.4498 294.3C87.4428 294.005 87.1192 293.026 86.8171 292.147C86.3136 290.498 85.9755 288.785 85.8892 287.05C84.7168 277.322 95.3406 267.466 104.785 271.922Z" fill="#BF3434"/>
<path d="M106.223 272.75C102.217 274.341 102.656 280.353 107.432 280.346C109.431 280.382 110.568 279.295 110.999 277.927C109.863 275.825 108.23 274.017 106.223 272.75ZM101.116 272.419C101.116 271.901 101.001 271.368 100.807 270.878C97.9516 270.655 95.1535 271.512 92.7655 273.11C92.8231 274.183 93.6575 275.263 94.4271 275.947C97.0525 277.985 101.016 275.544 101.116 272.419ZM88.2916 278.69C88.119 278.669 87.9032 278.669 87.6658 278.697C86.2561 281.239 85.5368 284.148 85.8892 287.057C85.8964 287.244 85.9396 287.431 85.954 287.618C86.2201 287.705 86.4863 287.784 86.8171 287.82C88.9894 288.137 91.8449 285.962 92.2405 283.817C92.6073 281.39 90.8091 278.827 88.2916 278.697V278.69ZM99.4981 282.427C97.592 282.701 95.6283 284.508 95.988 286.56C96.1822 288.021 97.2683 289.361 98.7716 289.555C103.411 289.944 104.454 282.449 99.4909 282.427H99.4981Z" fill="white"/>
</g>
<path d="M202.795 49.288C201.499 49.288 200.291 49.08 199.171 48.664C198.067 48.232 197.107 47.624 196.291 46.84C195.475 46.056 194.835 45.136 194.371 44.08C193.923 43.024 193.699 41.864 193.699 40.6C193.699 39.336 193.923 38.176 194.371 37.12C194.835 36.064 195.475 35.144 196.291 34.36C197.123 33.576 198.091 32.976 199.195 32.56C200.299 32.128 201.507 31.912 202.819 31.912C204.275 31.912 205.587 32.168 206.755 32.68C207.939 33.176 208.931 33.912 209.731 34.888L207.235 37.192C206.659 36.536 206.019 36.048 205.315 35.728C204.611 35.392 203.843 35.224 203.011 35.224C202.227 35.224 201.507 35.352 200.851 35.608C200.195 35.864 199.627 36.232 199.147 36.712C198.667 37.192 198.291 37.76 198.019 38.416C197.763 39.072 197.635 39.8 197.635 40.6C197.635 41.4 197.763 42.128 198.019 42.784C198.291 43.44 198.667 44.008 199.147 44.488C199.627 44.968 200.195 45.336 200.851 45.592C201.507 45.848 202.227 45.976 203.011 45.976C203.843 45.976 204.611 45.816 205.315 45.496C206.019 45.16 206.659 44.656 207.235 43.984L209.731 46.288C208.931 47.264 207.939 48.008 206.755 48.52C205.587 49.032 204.267 49.288 202.795 49.288ZM212.092 49V36.088H215.668V39.736L215.164 38.68C215.548 37.768 216.164 37.08 217.012 36.616C217.86 36.136 218.892 35.896 220.108 35.896V39.352C219.948 39.336 219.804 39.328 219.676 39.328C219.548 39.312 219.412 39.304 219.268 39.304C218.244 39.304 217.412 39.6 216.772 40.192C216.148 40.768 215.836 41.672 215.836 42.904V49H212.092ZM228.649 49.192C227.177 49.192 225.881 48.904 224.761 48.328C223.657 47.752 222.801 46.968 222.193 45.976C221.585 44.968 221.281 43.824 221.281 42.544C221.281 41.248 221.577 40.104 222.169 39.112C222.777 38.104 223.601 37.32 224.641 36.76C225.681 36.184 226.857 35.896 228.169 35.896C229.433 35.896 230.569 36.168 231.577 36.712C232.601 37.24 233.409 38.008 234.001 39.016C234.593 40.008 234.889 41.2 234.889 42.592C234.889 42.736 234.881 42.904 234.865 43.096C234.849 43.272 234.833 43.44 234.817 43.6H224.329V41.416H232.849L231.409 42.064C231.409 41.392 231.273 40.808 231.001 40.312C230.729 39.816 230.353 39.432 229.873 39.16C229.393 38.872 228.833 38.728 228.193 38.728C227.553 38.728 226.985 38.872 226.489 39.16C226.009 39.432 225.633 39.824 225.361 40.336C225.089 40.832 224.953 41.424 224.953 42.112V42.688C224.953 43.392 225.105 44.016 225.409 44.56C225.729 45.088 226.169 45.496 226.729 45.784C227.305 46.056 227.977 46.192 228.745 46.192C229.433 46.192 230.033 46.088 230.545 45.88C231.073 45.672 231.553 45.36 231.985 44.944L233.977 47.104C233.385 47.776 232.641 48.296 231.745 48.664C230.849 49.016 229.817 49.192 228.649 49.192ZM244.95 49V46.48L244.71 45.928V41.416C244.71 40.616 244.462 39.992 243.966 39.544C243.486 39.096 242.742 38.872 241.734 38.872C241.046 38.872 240.366 38.984 239.694 39.208C239.038 39.416 238.478 39.704 238.014 40.072L236.67 37.456C237.374 36.96 238.222 36.576 239.214 36.304C240.206 36.032 241.214 35.896 242.238 35.896C244.206 35.896 245.734 36.36 246.822 37.288C247.91 38.216 248.454 39.664 248.454 41.632V49H244.95ZM241.014 49.192C240.006 49.192 239.142 49.024 238.422 48.688C237.702 48.336 237.15 47.864 236.766 47.272C236.382 46.68 236.19 46.016 236.19 45.28C236.19 44.512 236.374 43.84 236.742 43.264C237.126 42.688 237.726 42.24 238.542 41.92C239.358 41.584 240.422 41.416 241.734 41.416H245.166V43.6H242.142C241.262 43.6 240.654 43.744 240.318 44.032C239.998 44.32 239.838 44.68 239.838 45.112C239.838 45.592 240.022 45.976 240.39 46.264C240.774 46.536 241.294 46.672 241.95 46.672C242.574 46.672 243.134 46.528 243.63 46.24C244.126 45.936 244.486 45.496 244.71 44.92L245.286 46.648C245.014 47.48 244.518 48.112 243.798 48.544C243.078 48.976 242.15 49.192 241.014 49.192ZM257.122 49.192C255.602 49.192 254.418 48.808 253.57 48.04C252.722 47.256 252.298 46.096 252.298 44.56V33.232H256.042V44.512C256.042 45.056 256.186 45.48 256.474 45.784C256.762 46.072 257.154 46.216 257.65 46.216C258.242 46.216 258.746 46.056 259.162 45.736L260.17 48.376C259.786 48.648 259.322 48.856 258.778 49C258.25 49.128 257.698 49.192 257.122 49.192ZM250.306 39.256V36.376H259.258V39.256H250.306ZM262.272 49V36.088H266.016V49H262.272ZM264.144 34.288C263.456 34.288 262.896 34.088 262.464 33.688C262.032 33.288 261.816 32.792 261.816 32.2C261.816 31.608 262.032 31.112 262.464 30.712C262.896 30.312 263.456 30.112 264.144 30.112C264.832 30.112 265.392 30.304 265.824 30.688C266.256 31.056 266.472 31.536 266.472 32.128C266.472 32.752 266.256 33.272 265.824 33.688C265.408 34.088 264.848 34.288 264.144 34.288ZM272.995 49L267.571 36.088H271.435L275.947 47.2H274.027L278.707 36.088H282.307L276.859 49H272.995ZM283.835 49V36.088H287.579V49H283.835ZM285.707 34.288C285.019 34.288 284.459 34.088 284.027 33.688C283.595 33.288 283.379 32.792 283.379 32.2C283.379 31.608 283.595 31.112 284.027 30.712C284.459 30.312 285.019 30.112 285.707 30.112C286.395 30.112 286.955 30.304 287.387 30.688C287.819 31.056 288.035 31.536 288.035 32.128C288.035 32.752 287.819 33.272 287.387 33.688C286.971 34.088 286.411 34.288 285.707 34.288ZM296.333 49.192C294.813 49.192 293.629 48.808 292.781 48.04C291.933 47.256 291.509 46.096 291.509 44.56V33.232H295.253V44.512C295.253 45.056 295.397 45.48 295.685 45.784C295.973 46.072 296.365 46.216 296.861 46.216C297.453 46.216 297.957 46.056 298.373 45.736L299.381 48.376C298.997 48.648 298.533 48.856 297.989 49C297.461 49.128 296.909 49.192 296.333 49.192ZM289.517 39.256V36.376H298.469V39.256H289.517ZM302.881 53.848C302.209 53.848 301.545 53.744 300.889 53.536C300.233 53.328 299.697 53.04 299.281 52.672L300.649 50.008C300.937 50.264 301.265 50.464 301.633 50.608C302.017 50.752 302.393 50.824 302.761 50.824C303.289 50.824 303.705 50.696 304.009 50.44C304.329 50.2 304.617 49.792 304.873 49.216L305.545 47.632L305.833 47.224L310.465 36.088H314.065L308.233 49.792C307.817 50.832 307.337 51.648 306.793 52.24C306.265 52.832 305.673 53.248 305.017 53.488C304.377 53.728 303.665 53.848 302.881 53.848ZM305.089 49.504L299.329 36.088H303.193L307.657 46.888L305.089 49.504ZM238.903 85V82.48L238.663 81.928V77.416C238.663 76.616 238.415 75.992 237.919 75.544C237.439 75.096 236.695 74.872 235.687 74.872C234.999 74.872 234.319 74.984 233.647 75.208C232.991 75.416 232.431 75.704 231.967 76.072L230.623 73.456C231.327 72.96 232.175 72.576 233.167 72.304C234.159 72.032 235.167 71.896 236.191 71.896C238.159 71.896 239.687 72.36 240.775 73.288C241.863 74.216 242.407 75.664 242.407 77.632V85H238.903ZM234.967 85.192C233.959 85.192 233.095 85.024 232.375 84.688C231.655 84.336 231.103 83.864 230.719 83.272C230.335 82.68 230.143 82.016 230.143 81.28C230.143 80.512 230.327 79.84 230.695 79.264C231.079 78.688 231.679 78.24 232.495 77.92C233.311 77.584 234.375 77.416 235.687 77.416H239.119V79.6H236.095C235.215 79.6 234.607 79.744 234.271 80.032C233.951 80.32 233.791 80.68 233.791 81.112C233.791 81.592 233.975 81.976 234.343 82.264C234.727 82.536 235.247 82.672 235.903 82.672C236.527 82.672 237.087 82.528 237.583 82.24C238.079 81.936 238.439 81.496 238.663 80.92L239.239 82.648C238.967 83.48 238.471 84.112 237.751 84.544C237.031 84.976 236.103 85.192 234.967 85.192ZM253.644 71.896C254.668 71.896 255.58 72.104 256.38 72.52C257.196 72.92 257.836 73.544 258.3 74.392C258.764 75.224 258.996 76.296 258.996 77.608V85H255.252V78.184C255.252 77.144 255.02 76.376 254.556 75.88C254.108 75.384 253.468 75.136 252.636 75.136C252.044 75.136 251.508 75.264 251.028 75.52C250.564 75.76 250.196 76.136 249.924 76.648C249.668 77.16 249.54 77.816 249.54 78.616V85H245.796V72.088H249.372V75.664L248.7 74.584C249.164 73.72 249.828 73.056 250.692 72.592C251.556 72.128 252.54 71.896 253.644 71.896ZM268.027 85.192C266.811 85.192 265.715 84.92 264.739 84.376C263.763 83.816 262.987 83.04 262.411 82.048C261.851 81.056 261.571 79.888 261.571 78.544C261.571 77.184 261.851 76.008 262.411 75.016C262.987 74.024 263.763 73.256 264.739 72.712C265.715 72.168 266.811 71.896 268.027 71.896C269.115 71.896 270.067 72.136 270.883 72.616C271.699 73.096 272.331 73.824 272.779 74.8C273.227 75.776 273.451 77.024 273.451 78.544C273.451 80.048 273.235 81.296 272.803 82.288C272.371 83.264 271.747 83.992 270.931 84.472C270.131 84.952 269.163 85.192 268.027 85.192ZM268.675 82.12C269.283 82.12 269.835 81.976 270.331 81.688C270.827 81.4 271.219 80.992 271.507 80.464C271.811 79.92 271.963 79.28 271.963 78.544C271.963 77.792 271.811 77.152 271.507 76.624C271.219 76.096 270.827 75.688 270.331 75.4C269.835 75.112 269.283 74.968 268.675 74.968C268.051 74.968 267.491 75.112 266.995 75.4C266.499 75.688 266.099 76.096 265.795 76.624C265.507 77.152 265.363 77.792 265.363 78.544C265.363 79.28 265.507 79.92 265.795 80.464C266.099 80.992 266.499 81.4 266.995 81.688C267.491 81.976 268.051 82.12 268.675 82.12ZM272.059 85V82.36L272.131 78.52L271.891 74.704V67.192H275.635V85H272.059ZM178.63 121V104.2H182.518V121H178.63ZM202.777 107.896C203.801 107.896 204.705 108.104 205.489 108.52C206.289 108.92 206.913 109.544 207.361 110.392C207.825 111.224 208.057 112.296 208.057 113.608V121H204.313V114.184C204.313 113.144 204.097 112.376 203.665 111.88C203.233 111.384 202.625 111.136 201.841 111.136C201.297 111.136 200.809 111.264 200.377 111.52C199.945 111.76 199.609 112.128 199.369 112.624C199.129 113.12 199.009 113.752 199.009 114.52V121H195.265V114.184C195.265 113.144 195.049 112.376 194.617 111.88C194.201 111.384 193.601 111.136 192.817 111.136C192.273 111.136 191.785 111.264 191.353 111.52C190.921 111.76 190.585 112.128 190.345 112.624C190.105 113.12 189.985 113.752 189.985 114.52V121H186.241V108.088H189.817V111.616L189.145 110.584C189.593 109.704 190.225 109.04 191.041 108.592C191.873 108.128 192.817 107.896 193.873 107.896C195.057 107.896 196.089 108.2 196.969 108.808C197.865 109.4 198.457 110.312 198.745 111.544L197.425 111.184C197.857 110.176 198.545 109.376 199.489 108.784C200.449 108.192 201.545 107.896 202.777 107.896ZM219.333 121V118.48L219.093 117.928V113.416C219.093 112.616 218.845 111.992 218.349 111.544C217.869 111.096 217.125 110.872 216.117 110.872C215.429 110.872 214.749 110.984 214.077 111.208C213.421 111.416 212.861 111.704 212.397 112.072L211.053 109.456C211.757 108.96 212.605 108.576 213.597 108.304C214.589 108.032 215.597 107.896 216.621 107.896C218.589 107.896 220.117 108.36 221.205 109.288C222.293 110.216 222.837 111.664 222.837 113.632V121H219.333ZM215.397 121.192C214.389 121.192 213.525 121.024 212.805 120.688C212.085 120.336 211.533 119.864 211.149 119.272C210.765 118.68 210.573 118.016 210.573 117.28C210.573 116.512 210.757 115.84 211.125 115.264C211.509 114.688 212.109 114.24 212.925 113.92C213.741 113.584 214.805 113.416 216.117 113.416H219.549V115.6H216.525C215.645 115.6 215.037 115.744 214.701 116.032C214.381 116.32 214.221 116.68 214.221 117.112C214.221 117.592 214.405 117.976 214.773 118.264C215.157 118.536 215.677 118.672 216.333 118.672C216.957 118.672 217.517 118.528 218.013 118.24C218.509 117.936 218.869 117.496 219.093 116.92L219.669 118.648C219.397 119.48 218.901 120.112 218.181 120.544C217.461 120.976 216.533 121.192 215.397 121.192ZM232.391 125.848C231.175 125.848 229.999 125.696 228.863 125.392C227.743 125.104 226.807 124.664 226.055 124.072L227.543 121.384C228.087 121.832 228.775 122.184 229.607 122.44C230.455 122.712 231.287 122.848 232.103 122.848C233.431 122.848 234.391 122.552 234.983 121.96C235.591 121.368 235.895 120.488 235.895 119.32V117.376L236.135 114.136L236.087 110.872V108.088H239.639V118.84C239.639 121.24 239.015 123.008 237.767 124.144C236.519 125.28 234.727 125.848 232.391 125.848ZM231.815 120.376C230.615 120.376 229.527 120.12 228.551 119.608C227.591 119.08 226.815 118.352 226.223 117.424C225.647 116.48 225.359 115.384 225.359 114.136C225.359 112.872 225.647 111.776 226.223 110.848C226.815 109.904 227.591 109.176 228.551 108.664C229.527 108.152 230.615 107.896 231.815 107.896C232.903 107.896 233.863 108.12 234.695 108.568C235.527 109 236.175 109.68 236.639 110.608C237.103 111.52 237.335 112.696 237.335 114.136C237.335 115.56 237.103 116.736 236.639 117.664C236.175 118.576 235.527 119.256 234.695 119.704C233.863 120.152 232.903 120.376 231.815 120.376ZM232.559 117.304C233.215 117.304 233.799 117.176 234.311 116.92C234.823 116.648 235.223 116.272 235.511 115.792C235.799 115.312 235.943 114.76 235.943 114.136C235.943 113.496 235.799 112.944 235.511 112.48C235.223 112 234.823 111.632 234.311 111.376C233.799 111.104 233.215 110.968 232.559 110.968C231.903 110.968 231.319 111.104 230.807 111.376C230.295 111.632 229.887 112 229.583 112.48C229.295 112.944 229.151 113.496 229.151 114.136C229.151 114.76 229.295 115.312 229.583 115.792C229.887 116.272 230.295 116.648 230.807 116.92C231.319 117.176 231.903 117.304 232.559 117.304ZM243.124 121V108.088H246.868V121H243.124ZM244.996 106.288C244.308 106.288 243.748 106.088 243.316 105.688C242.884 105.288 242.668 104.792 242.668 104.2C242.668 103.608 242.884 103.112 243.316 102.712C243.748 102.312 244.308 102.112 244.996 102.112C245.684 102.112 246.244 102.304 246.676 102.688C247.108 103.056 247.324 103.536 247.324 104.128C247.324 104.752 247.108 105.272 246.676 105.688C246.26 106.088 245.7 106.288 244.996 106.288ZM258.19 107.896C259.214 107.896 260.126 108.104 260.926 108.52C261.742 108.92 262.382 109.544 262.846 110.392C263.31 111.224 263.542 112.296 263.542 113.608V121H259.798V114.184C259.798 113.144 259.566 112.376 259.102 111.88C258.654 111.384 258.014 111.136 257.182 111.136C256.59 111.136 256.054 111.264 255.574 111.52C255.11 111.76 254.742 112.136 254.47 112.648C254.214 113.16 254.086 113.816 254.086 114.616V121H250.342V108.088H253.918V111.664L253.246 110.584C253.71 109.72 254.374 109.056 255.238 108.592C256.102 108.128 257.086 107.896 258.19 107.896ZM274.856 121V118.48L274.616 117.928V113.416C274.616 112.616 274.368 111.992 273.872 111.544C273.392 111.096 272.648 110.872 271.64 110.872C270.952 110.872 270.272 110.984 269.6 111.208C268.944 111.416 268.384 111.704 267.92 112.072L266.576 109.456C267.28 108.96 268.128 108.576 269.12 108.304C270.112 108.032 271.12 107.896 272.144 107.896C274.112 107.896 275.64 108.36 276.728 109.288C277.816 110.216 278.36 111.664 278.36 113.632V121H274.856ZM270.92 121.192C269.912 121.192 269.048 121.024 268.328 120.688C267.608 120.336 267.056 119.864 266.672 119.272C266.288 118.68 266.096 118.016 266.096 117.28C266.096 116.512 266.28 115.84 266.648 115.264C267.032 114.688 267.632 114.24 268.448 113.92C269.264 113.584 270.328 113.416 271.64 113.416H275.072V115.6H272.048C271.168 115.6 270.56 115.744 270.224 116.032C269.904 116.32 269.744 116.68 269.744 117.112C269.744 117.592 269.928 117.976 270.296 118.264C270.68 118.536 271.2 118.672 271.856 118.672C272.48 118.672 273.04 118.528 273.536 118.24C274.032 117.936 274.392 117.496 274.616 116.92L275.192 118.648C274.92 119.48 274.424 120.112 273.704 120.544C272.984 120.976 272.056 121.192 270.92 121.192ZM287.029 121.192C285.509 121.192 284.325 120.808 283.477 120.04C282.629 119.256 282.205 118.096 282.205 116.56V105.232H285.949V116.512C285.949 117.056 286.093 117.48 286.381 117.784C286.669 118.072 287.061 118.216 287.557 118.216C288.149 118.216 288.653 118.056 289.069 117.736L290.077 120.376C289.693 120.648 289.229 120.856 288.685 121C288.157 121.128 287.605 121.192 287.029 121.192ZM280.213 111.256V108.376H289.165V111.256H280.213ZM292.178 121V108.088H295.922V121H292.178ZM294.05 106.288C293.362 106.288 292.802 106.088 292.37 105.688C291.938 105.288 291.722 104.792 291.722 104.2C291.722 103.608 291.938 103.112 292.37 102.712C292.802 102.312 293.362 102.112 294.05 102.112C294.738 102.112 295.298 102.304 295.73 102.688C296.162 103.056 296.378 103.536 296.378 104.128C296.378 104.752 296.162 105.272 295.73 105.688C295.314 106.088 294.754 106.288 294.05 106.288ZM305.541 121.192C304.165 121.192 302.941 120.904 301.869 120.328C300.813 119.752 299.973 118.968 299.349 117.976C298.741 116.968 298.437 115.824 298.437 114.544C298.437 113.248 298.741 112.104 299.349 111.112C299.973 110.104 300.813 109.32 301.869 108.76C302.941 108.184 304.165 107.896 305.541 107.896C306.901 107.896 308.117 108.184 309.189 108.76C310.261 109.32 311.101 110.096 311.709 111.088C312.317 112.08 312.621 113.232 312.621 114.544C312.621 115.824 312.317 116.968 311.709 117.976C311.101 118.968 310.261 119.752 309.189 120.328C308.117 120.904 306.901 121.192 305.541 121.192ZM305.541 118.12C306.165 118.12 306.725 117.976 307.221 117.688C307.717 117.4 308.109 116.992 308.397 116.464C308.685 115.92 308.829 115.28 308.829 114.544C308.829 113.792 308.685 113.152 308.397 112.624C308.109 112.096 307.717 111.688 307.221 111.4C306.725 111.112 306.165 110.968 305.541 110.968C304.917 110.968 304.357 111.112 303.861 111.4C303.365 111.688 302.965 112.096 302.661 112.624C302.373 113.152 302.229 113.792 302.229 114.544C302.229 115.28 302.373 115.92 302.661 116.464C302.965 116.992 303.365 117.4 303.861 117.688C304.357 117.976 304.917 118.12 305.541 118.12ZM322.972 107.896C323.996 107.896 324.908 108.104 325.708 108.52C326.524 108.92 327.164 109.544 327.628 110.392C328.092 111.224 328.324 112.296 328.324 113.608V121H324.58V114.184C324.58 113.144 324.348 112.376 323.884 111.88C323.436 111.384 322.796 111.136 321.964 111.136C321.372 111.136 320.836 111.264 320.356 111.52C319.892 111.76 319.524 112.136 319.252 112.648C318.996 113.16 318.868 113.816 318.868 114.616V121H315.124V108.088H318.7V111.664L318.028 110.584C318.492 109.72 319.156 109.056 320.02 108.592C320.884 108.128 321.868 107.896 322.972 107.896Z" fill="#1A1A1A"/>
</svg>
