<svg width="302" height="102" viewBox="0 0 302 102" fill="none" xmlns="http://www.w3.org/2000/svg">
<path d="M219.379 69.1283C219.607 69.8793 220.678 70.0663 221.132 69.4023C221.529 68.4083 221.418 67.1952 221.527 66.1237C221.513 65.2489 221.715 64.2908 221.373 63.4613C220.074 62.2858 219.927 65.2898 219.722 66.0229C219.583 67.0482 219.12 68.1062 219.379 69.1283ZM222.308 67.8303C222.361 69.123 224.259 69.2841 224.542 68.0272C224.718 67.2479 224.692 66.4234 224.66 65.624C224.631 64.9309 224.564 63.8198 223.699 63.7185C222.867 63.6508 222.745 64.6007 222.672 65.2182C222.53 66.0842 222.281 66.9527 222.308 67.8303ZM228.202 69.1903C228.403 68.1791 228.537 67.3508 228.661 66.2695C228.685 65.8126 228.883 65.2891 228.675 64.8596C228.421 64.4594 227.854 64.5041 227.513 64.7842C226.645 65.8706 226.585 67.4285 226.171 68.7354C225.899 70.0608 227.879 70.5044 228.202 69.1903ZM183.864 74.3493C183.925 75.7231 185.995 75.7644 186.119 74.3925C186.144 73.0511 186.216 71.6148 185.746 70.3477C185.691 70.124 185.492 69.9474 185.265 69.8966C184.091 69.8183 184.318 71.5725 184.114 72.3587C184.004 73.0208 183.867 73.6898 183.876 74.3521L183.864 74.3493ZM187.777 75.7939C188.433 75.9408 189.072 75.5162 189.229 74.8779C189.55 73.3389 189.656 71.7517 189.86 70.1998C189.741 69.4337 188.63 69.2508 188.274 69.95C188.059 70.6677 187.803 71.3895 187.551 72.0988C187.214 73.2382 186.03 75.2573 187.765 75.7911L187.777 75.7939ZM192.983 76.0888C193.3 74.7998 193.393 73.4474 193.935 72.2218C194.199 71.9905 194.274 71.598 194.079 71.2902C192.699 69.7134 191.009 74.4449 190.576 75.3647C190.027 77.0374 192.525 77.7687 192.986 76.0762L192.983 76.0888ZM146.529 79.2948C146.595 80.4715 146.518 81.6954 146.843 82.8378C147.303 84.2615 149.48 83.7721 149.272 82.2862C148.997 80.0987 148.807 77.7716 147.942 75.7294C147.663 75.3235 147.028 75.2605 146.719 75.6929C146.208 76.7802 146.598 78.1086 146.519 79.2794L146.529 79.2948ZM149.923 82.1019C150.039 83.5275 152.115 83.4249 152.106 81.9968C152.017 80.5112 151.884 78.9892 151.391 77.532C151.27 77.1879 151.04 76.7402 150.619 76.7252C149.963 76.6971 149.972 77.4782 149.949 77.9351C149.929 79.317 149.799 80.7141 149.923 82.1019ZM154.885 82.5401C155.51 82.5878 156.039 82.1251 156.112 81.5077C156.262 80.1945 156.237 78.895 156.243 77.5759C156.231 77.2167 156.541 76.9031 156.331 76.5393C156.136 76.1126 155.619 75.9968 155.226 76.2124C154.435 76.7219 154.322 77.7529 154.17 78.6035C154.139 79.7981 153.112 82.2354 154.891 82.515L154.885 82.5401Z" fill="#F2B199"/>
<path d="M251.581 70.0752C254.072 72.916 257.459 74.9915 261.121 75.9559C263.26 76.5014 265.501 76.419 267.651 75.998C268.396 75.82 269.268 75.6727 270.005 75.3269C269.79 79.2637 270.04 83.2054 270.926 87.0938C271.024 87.5617 271.544 87.8522 272.001 87.7406C272.784 87.5384 272.724 86.7625 272.579 86.1382C271.837 81.8685 271.629 77.5159 271.976 73.1844C272.349 69.5114 273.121 65.9052 273.829 62.2836C274.088 60.914 274.282 59.5677 274.619 58.2139C274.681 57.9326 274.77 57.6395 274.846 57.3459C274.962 59.7096 275.584 62.0409 276.892 64.0245C279.769 68.9685 285.916 65.8374 286.832 61.1666C287.239 58.9775 286.886 56.7337 286.125 54.642C287.083 55.9548 288.095 57.231 289.322 58.309C293.041 61.493 297.619 62.879 300.1 57.52C301.13 54.6197 299.989 51.3017 298.337 48.8409C296.663 46.6371 293.985 45.2976 291.315 44.7577C291.276 44.7562 291.187 44.7271 291.136 44.7122C292.856 44.0428 294.516 43.2421 296.067 42.2569C298.067 41.0308 299.956 39.3236 300.614 37.0022C301.517 34.0326 300.589 30.568 297.115 30.0878C292.379 29.4565 287.831 32.7257 285.092 36.3345C284.836 36.6213 284.172 37.7434 283.904 38.6486C284.091 38.1658 284.252 37.682 284.349 37.1829C285.066 32.6206 283.608 23.0893 277.677 22.9153C275.666 22.7357 273.828 24.1355 272.972 25.882C271.832 28.3011 271.999 31.0277 272.833 33.5605C270.945 32.1995 268.756 31.2654 266.539 31.065C260.596 30.5553 258.756 38.4141 262.02 42.3414C263.921 44.3862 266.688 45.4068 269.506 45.8105C266.529 46.8705 263.486 48.9851 262.561 51.5155C261.09 55.8171 264.074 58.9731 268.49 58.1613C271.393 57.6658 273.363 56.8769 274.7 55.0713C274.601 55.2996 274.488 55.5402 274.389 55.7685C273.471 57.7835 272.91 59.928 272.349 62.0726C271.395 65.3754 270.696 68.7653 270.307 72.1798C269.73 71.0362 269.126 69.9045 268.43 68.8338C264.354 62.787 258.686 60.4958 251.594 59.9295C250.197 59.928 247.269 59.0431 246.985 61.0563C247.515 64.4285 249.309 67.578 251.633 70.0643L251.581 70.0752ZM280.475 40.3746C283.303 40.1728 286.389 42.34 286.613 45.2622C286.668 48.8999 282.863 51.6688 279.426 51.5767C276.276 51.4183 274.234 47.9758 274.98 45.0518C275.552 42.9592 278.2 40.3397 280.475 40.3746ZM281.682 64.2583C278.439 65.1792 277.038 59.2212 277.01 56.8867C277.039 55.4697 276.875 54.0195 277.07 52.6217C279.017 53.4564 281.415 53.3413 283.714 52.0622C283.884 52.6874 284.143 53.3548 284.158 53.639C284.618 55.4872 285.141 57.3764 284.963 59.3035C284.757 61.3197 283.726 63.5882 281.668 64.2835L281.682 64.2583ZM298.373 54.9919C298.599 56.1994 298.125 57.4319 297.326 58.3556C295.912 60.1583 293.3 59.1307 291.751 58.0404C289.05 56.2746 287.654 53.2176 285.304 51.0912C287.09 49.7152 288.139 47.6537 288.269 45.5959C288.604 45.6344 288.939 45.6729 289.284 45.7634C294.205 46.9819 297.8 49.6971 298.373 55.0047L298.373 54.9919ZM287.774 35.2117C289.539 33.7189 291.663 32.6265 293.944 32.1718C296.244 31.8983 298.916 32.3866 298.467 35.309C298.332 38.8492 294.767 40.7506 291.956 42.1908C290.81 42.7402 289.59 43.1966 288.383 43.6277C288.291 43.6629 288.225 43.7119 288.145 43.7734C287.762 41.941 286.583 40.2975 284.511 39.3678C285.22 37.7446 286.449 36.3732 287.787 35.2251L287.774 35.2117ZM283.835 38.7749C283.805 38.8769 283.802 38.967 283.785 39.0566C283.759 39.0556 283.747 39.0551 283.721 39.0413C283.735 39.016 283.761 39.0041 283.775 38.9789C283.804 38.9155 283.806 38.8511 283.834 38.7877L283.835 38.7749ZM275.897 25.1682C277.716 23.9224 280.107 25.3283 280.812 27.1858C282.019 29.7844 282.505 32.6391 282.615 35.4925C282.646 36.3704 282.675 37.3126 282.371 38.1648C282.261 38.3411 282.241 38.508 282.248 38.6758C280.819 38.5054 279.358 38.8109 278.078 39.4841C277.878 39.2961 277.678 39.108 277.531 38.8961C276.849 38.1224 276.216 37.1056 275.748 36.1467C274.368 32.9872 272.541 27.6835 275.897 25.1682ZM262.576 37.6182C262.919 29.3287 272.454 34.6806 274.972 38.8375C275.303 39.327 275.58 39.8661 275.937 40.331C276.06 40.4904 276.212 40.5735 276.365 40.6309C274.953 41.6988 273.721 43.1474 273.281 44.8453C273.164 44.8409 273.034 44.8618 272.907 44.8054C268.842 43.8901 262.515 42.9146 262.576 37.6054L262.576 37.6182ZM270.174 55.389C268.424 55.8253 265.593 56.7877 264.492 54.812C264.005 53.6718 264.174 52.2859 264.873 51.2682C266.61 49.1555 269.315 48.0852 271.903 47.3843C272.257 47.2688 272.74 47.1454 273.161 46.9551C273.359 48.8707 274.128 50.4083 275.278 51.4705C275.193 51.6607 275.095 51.8375 275.036 52.0415C274.832 52.2916 274.615 52.5541 274.399 52.7908C273.29 54.0508 271.796 54.9093 270.174 55.389ZM248.881 61.541C258.179 61.9204 264.851 64.6882 269.163 73.3353C263.327 70.7024 257.405 67.9375 252.685 63.5164C252.385 63.2471 251.892 63.2928 251.61 63.5657C250.187 64.9169 256.174 68.3419 257.178 69.1536C260.405 71.3519 264.06 72.8318 267.593 74.4745C259.226 75.7936 251.037 69.4099 248.777 61.5499C248.815 61.5514 248.854 61.5529 248.893 61.5544L248.881 61.541Z" fill="#F26457"/>
<path d="M12.8472 91.714C13.1646 91.5054 13.5014 91.3183 13.863 91.1242C15.7407 90.1613 17.7914 89.3376 19.7847 88.5967C25.3923 86.8652 31.0201 85.302 36.9128 84.4944C44.1006 83.5677 51.3559 83.1707 58.6004 83.0708C65.1191 82.9185 71.6296 82.9289 78.1477 82.8703C80.1 82.7025 86.0123 82.9727 86.9345 81.2321C87.2025 80.7029 87.0892 80.1058 86.9863 79.546C86.2422 74.9649 83.7192 70.3563 79.3988 68.2932C79.0841 63.4724 74.6829 59.9205 70.1414 59.0823C69.5163 50.4159 59.1342 46.4925 51.5241 47.9242C47.0697 48.6934 42.8771 51.2622 40.5169 55.1543C29.818 52.1614 18.3053 62.8619 18.3709 73.4624C11.2864 75.4303 9.04913 83.8888 11.1523 90.2589C10.693 91.2558 11.913 92.3078 12.8313 91.705L12.8472 91.714ZM41.4548 58.0767C43.9284 59.1015 45.4586 62.1268 43.861 64.5232C42.917 65.8018 41.078 64.9351 40.7191 63.6038C40.234 61.7726 40.8273 59.8157 41.4583 58.0891L41.4548 58.0767ZM20.5884 75.1067C21.6947 75.0802 22.9976 75.1329 23.805 76.0053C24.3106 76.6138 24.7966 77.7761 24.0664 78.3801C22.5544 79.6426 20.7541 76.3713 20.5884 75.1067ZM18.6473 75.4586C19.151 77.9801 21.4799 81.3186 24.4016 80.3465C25.2993 79.91 26.1177 79.0942 26.2753 78.0741C26.6903 74.6154 23.5103 72.7437 20.3847 73.1304C20.6975 64.1233 30.271 55.1249 39.4802 57.3012C38.6519 59.6176 37.9347 62.3311 38.9454 64.6983C39.8086 66.8257 42.4657 68.0268 44.5278 66.8121C46.1301 65.8722 46.8535 63.8524 46.8368 62.065C46.7902 59.4032 44.9112 57.0498 42.5303 55.9725C44.3324 53.2519 47.1495 51.4262 50.2767 50.5175C56.8009 48.7053 66.3109 51.333 67.6808 58.7761C64.2689 58.4266 58.9006 60.7736 60.3293 64.9238C61.125 66.5217 63.1985 67.3633 64.9175 67.033C67.7281 66.4796 69.5054 63.7659 69.9985 61.1147C73.2482 61.8436 76.2439 64.2078 77.0354 67.5186C72.8658 66.2829 64.5473 70.9874 67.6744 75.7893C68.8983 77.335 71.0749 77.3456 72.8374 76.8828C75.8684 76.0141 78.4858 73.5218 79.2304 70.4262C82.6625 72.5756 84.1811 76.5672 85.1847 80.3005C82.3112 80.9649 79.3242 80.7916 76.3693 80.8768C73.0988 80.8892 69.8249 80.8892 66.5489 80.9298C55.2875 81.1558 43.9144 81.0784 32.7824 82.9669C28.0964 83.8673 23.4528 85.0635 18.9403 86.5844C16.5486 87.436 14.3197 88.6302 11.9646 89.5652C11.098 84.1622 12.9181 77.3308 18.6528 75.4303L18.6473 75.4586ZM67.5669 60.7202C66.2808 68.1655 57.8024 63.9005 64.5928 61.0247C65.5466 60.6929 66.5623 60.6783 67.5669 60.7202ZM77.0738 69.5274C76.5098 72.6932 73.0315 75.7055 69.741 74.9745C69.1126 74.6944 68.8111 74.0961 68.915 73.4119C69.2197 71.3346 71.5948 70.3271 73.3079 69.5437C74.5212 69.1799 75.8599 69.1692 77.0738 69.5274ZM19.369 54.9568C19.5276 55.1401 19.6806 55.3517 19.9394 55.4135C20.8763 55.501 20.6318 54.3386 20.2924 53.8444C19.5115 52.4431 18.2513 51.2953 16.8572 50.5324C15.7123 49.9409 14.6171 51.5424 15.5989 52.3664C16.7821 53.335 18.2466 53.9178 19.3814 54.9533L19.369 54.9568ZM37.4224 47.254C37.7349 46.98 37.5368 46.6071 37.5745 46.2622C37.599 44.9582 37.8844 43.6753 38.0632 42.3952C38.1526 41.7552 37.5847 41.164 36.9689 41.1211C34.5653 41.0665 36.0312 45.7815 36.5485 47.0554C36.6919 47.3767 37.1314 47.5087 37.41 47.2575L37.4224 47.254ZM72.6518 50.4008C73.1288 49.9474 73.6411 49.5242 74.1569 49.1135C74.9734 48.3384 76.9002 47.4554 75.8737 46.1357C75.0171 45.1834 73.9579 46.1463 73.2825 46.802C72.6216 47.4135 70.2488 50.2525 71.4623 50.9452C71.9558 51.2227 72.3338 50.7032 72.6483 50.3884L72.6518 50.4008ZM85.999 67.0884C87.1973 66.2875 88.6438 66.0863 90.044 65.9113C91.3681 65.704 91.509 63.7123 90.228 63.3059C89.0376 62.8876 86.2629 65.009 85.5358 65.9599C85.3423 66.2277 85.0804 66.6347 85.3056 66.96C85.4586 67.1716 85.7742 67.2445 85.9865 67.0919L85.999 67.0884Z" fill="#8FA5BC"/>
<path d="M126.07 67.5429C125.845 67.6762 125.607 67.8218 125.419 67.9951C125.232 68.1556 125.284 68.4928 125.513 68.5917C125.678 68.6625 125.836 68.604 126.006 68.546C129.926 66.8515 133.629 64.7105 137.632 63.2125C145.704 60.1417 153.948 57.6448 162.301 55.3583C171.126 52.9092 180.187 51.7196 189.286 50.5444C196.268 49.611 203.272 48.7686 210.324 48.6887C217.43 48.5722 224.549 48.7785 231.625 49.4215C233.932 49.6382 236.241 49.8163 238.553 49.9042C239.07 49.9238 239.525 49.5028 239.545 49.0008C239.562 48.5502 239.23 48.0864 238.754 48.0296C237.158 47.827 235.559 47.6889 233.961 47.5379C231.641 47.3207 229.333 47.1427 227.011 46.9641C226.546 46.9465 226.081 46.9288 225.616 46.9111C225.659 46.8096 225.703 46.6823 225.708 46.5536C225.968 42.4637 226.021 38.366 226.345 34.2915C226.498 31.3192 227.236 28.2532 226.663 25.3049C223.817 18.57 220.3 12.1191 216.198 6.07133C216.187 6.03222 216.175 6.00598 216.151 5.96637C216.151 5.9535 216.125 5.96538 216.113 5.93914C216.076 5.88618 216.052 5.83371 216.016 5.78074C215.915 5.71244 215.825 5.69614 215.735 5.67983C215.149 5.43838 214.402 5.69359 213.793 5.73487C212.322 5.96258 210.862 6.26801 209.391 6.50859C202.774 7.37855 196.018 8.48819 189.339 8.95613C188.435 8.90886 187.802 9.58095 187.273 10.2183C186.379 11.2673 185.535 12.3568 184.642 13.3929C182.347 15.9098 180.088 18.4797 177.943 21.1313C175.789 23.6922 173.671 26.2933 171.379 28.7201C171.059 28.9787 171.251 29.3727 171.474 29.639C171.846 30.0529 172.473 29.8962 172.773 29.4693C173.706 29.4403 174.65 29.4504 175.581 29.4601C175.5 30.2047 175.57 31.0841 175.504 31.4683C175.42 33.6439 175.298 35.8181 175.164 37.9789C174.307 36.7086 173.163 35.5048 171.863 34.6689C170.688 33.9281 170.165 35.1071 169.705 35.9792C169.238 37.0057 168.643 38.0402 168.252 39.1212C167.204 37.7664 166.025 36.471 164.491 35.652C162.985 34.7825 162.587 36.4175 162.119 37.4827C161.902 38.0804 161.608 38.6751 161.364 39.2847C161.327 39.2446 161.277 39.2169 161.239 39.1768C160.198 38.325 159.123 37.3559 157.776 37.0597C156.248 36.7824 156.056 38.7476 155.488 39.7316C155.274 40.252 155.047 40.772 154.859 41.3063C153.776 40.1951 152.608 38.9388 151.057 38.5833C149.617 38.348 149.266 40.088 148.711 41.0596C147.495 43.089 147.845 45.4487 148.355 47.6469C148.906 50.5041 149.795 53.284 150.541 56.0971C150.588 56.2278 150.633 56.41 150.678 56.5922C145.817 58.2122 141.001 60.0144 136.317 62.0795C132.791 63.6343 129.47 65.5836 126.125 67.4805L126.07 67.5429ZM184.411 49.16C181.668 49.5198 178.925 49.8925 176.192 50.3171C176.221 49.9057 176.263 49.4818 176.292 49.0704C176.471 46.4214 176.533 43.7808 176.751 41.1333C176.991 38.2288 177.038 35.3041 176.969 32.3878C176.941 31.4327 176.9 30.4643 176.859 29.5087C177.454 29.5184 178.049 29.5281 178.631 29.5116C181.431 29.3474 184.228 28.9509 187.029 28.7609C188.391 28.658 189.752 28.568 191.113 28.5166C191.901 28.5208 192.599 28.5345 193.251 28.4046C193.174 30.4257 193.251 32.4527 193.264 34.4773C193.207 39.0132 192.956 43.5546 193.015 48.0949C190.142 48.4498 187.271 48.7918 184.411 49.16ZM215.07 8.18141C215.205 8.03184 215.393 7.85849 215.568 7.68465C216.38 9.76542 217.534 11.7174 218.518 13.7273C219.942 16.4114 221.273 19.1436 222.618 21.8506C223.264 23.216 223.99 24.5328 224.649 25.8986C224.901 28.0999 224.44 30.3385 224.317 32.5384C223.95 36.3921 223.917 40.2843 223.795 44.1473C223.765 44.9197 223.722 45.7045 223.693 46.4769C223.687 46.6185 223.722 46.723 223.757 46.8403C215.414 46.4844 207.042 46.5785 198.733 47.3841C197.434 47.541 196.121 47.7102 194.821 47.8671C194.974 41.1818 195.334 34.4658 194.606 27.7986C194.86 27.602 195.101 27.3791 195.346 27.0661C199.722 22.5655 204.274 18.2006 208.924 13.9683C211.051 12.1283 213.068 10.1422 215.07 8.16853L215.07 8.18141ZM174.199 28.0409C177.423 24.5795 180.435 20.9167 183.596 17.4013C184.541 16.38 185.51 15.3984 186.404 14.3366C187.415 13.2534 188.191 11.9035 189.327 10.9668C197.323 10.2138 205.276 8.91765 213.205 7.56901C210.749 9.88645 208.22 12.098 205.678 14.309C202.579 17.2079 199.642 20.2548 196.581 23.1938C195.36 24.3335 194.4 25.7667 193.08 26.7865C191.214 26.8831 189.328 26.8243 187.446 26.9719C183.012 27.2416 178.618 27.8222 174.187 28.0276L174.199 28.0409ZM170.121 38.9602C170.554 38.1129 170.924 37.2374 171.32 36.3629C172.637 37.4186 173.514 38.8572 174.724 40.012C174.799 40.0793 174.902 40.0832 174.992 40.1124C174.693 43.1823 174.55 46.2581 174.574 49.3402C174.626 49.6774 174.543 50.1384 174.5 50.588C173.029 50.8286 171.558 51.0949 170.098 51.3746C170.005 48.0577 170.017 44.7062 169.536 41.4004C169.155 40.5222 169.78 39.7466 170.121 38.9602ZM163.987 37.3475C165.422 38.369 166.399 39.8887 167.646 41.0965C167.709 41.1504 167.772 41.1786 167.849 41.2073C167.949 44.6662 168.854 48.0655 169.135 51.5185C169.135 51.5185 169.135 51.5313 169.134 51.5442C167.31 51.9131 165.509 52.3217 163.706 52.7817C163.702 52.2271 163.607 51.6692 163.601 51.1275C163.212 47.7865 163.176 44.3429 162.369 41.0763C162.768 39.7893 163.486 38.6048 163.987 37.3475ZM157.585 38.6768C158.688 39.2603 159.686 40.2265 160.598 41.0733C160.685 41.1411 160.774 41.1961 160.876 41.2258C160.875 41.2644 160.873 41.303 160.872 41.3416C161.069 45.307 162.1 49.1237 162.87 52.9948C161.237 53.4355 159.628 53.9029 158.006 54.3698C157.989 54.15 157.958 53.9425 157.94 53.7227C157.545 50.201 156.786 46.717 155.843 43.3033C156.073 41.6748 157.136 40.2584 157.598 38.6645L157.585 38.6768ZM149.432 43.846C149.711 42.6576 150.513 41.6181 150.946 40.4613C152.023 41.0309 152.73 41.8442 153.628 42.6906C153.803 42.8519 154.006 42.9628 154.239 42.9716C154.29 42.9736 154.33 42.9364 154.369 42.9379C154.365 43.0409 154.323 43.1424 154.319 43.2454C154.38 44.3564 154.727 45.4139 154.983 46.4937C155.393 48.2884 155.934 50.0366 156.528 51.7609C156.855 52.6629 156.985 53.6735 157.286 54.5874C155.297 55.1821 153.308 55.8026 151.33 56.4494C151.251 55.1185 151.069 53.8094 150.847 52.4989C150.362 49.6184 149.904 46.7388 149.432 43.846ZM207.761 23.3999C206.567 23.5092 205.24 23.3813 204.168 23.9981C202.535 24.7611 202.675 29.2271 202.481 30.9086C202.328 33.8809 202.526 36.8407 202.645 39.7976C202.69 40.3279 202.658 41.1518 202.792 41.7112C202.957 42.13 203.453 42.3423 203.875 42.1392C203.939 42.1416 204.017 42.1446 204.084 42.0827C204.111 42.0579 204.137 42.046 204.151 42.0207C207.139 42.0184 210.17 42.2368 213.156 42.2859C214.36 42.2672 215.617 42.5342 216.803 42.3086C218.231 41.4862 217.757 38.6834 217.877 37.2312C217.895 35.066 217.875 32.8865 217.88 30.7208C217.859 28.915 217.62 27.0495 217.612 25.2314C217.403 23.9342 215.76 23.949 214.745 23.7686C212.44 23.5005 210.093 23.3209 207.762 23.3741L207.761 23.3999ZM215.71 25.9197C215.738 28.8988 215.663 31.887 215.911 34.8745C215.951 36.8614 216.327 38.8611 216.044 40.8487C212.179 40.4438 208.135 40.3416 204.325 41.2022C204.715 36.0731 204.217 30.8328 205.174 25.7639C207.441 25.6825 209.475 25.5923 211.826 25.6688C213.118 25.7179 214.437 25.7166 215.722 25.9459L215.71 25.9197ZM94.7967 58.0251C98.4135 61.1923 103.414 61.6661 108.089 61.5216C108.07 62.0237 108.102 62.5406 108.106 62.7728C108.196 66.154 108.456 69.5158 108.857 72.8702C109.399 78.3313 110.655 83.6907 112.318 88.9108C112.609 89.7599 113.929 89.3847 113.73 88.5133C112.511 83.8515 111.085 79.2077 110.493 74.415C109.996 70.825 109.556 67.134 109.32 63.5023C109.255 62.8294 109.216 62.1447 109.19 61.4733C109.332 61.4787 109.475 61.4583 109.605 61.4504C111.267 61.2944 112.946 61.0102 114.618 60.5839C114.759 61.2854 114.914 61.9875 115.041 62.7014C115.726 66.4404 116.776 70.103 117.944 73.7186C119.48 78.5214 121.292 83.2315 123.498 87.7632C124.016 88.7627 125.508 87.9814 125.015 86.9958C121.796 80.2081 119.274 73.0988 117.078 65.9246C116.604 64.1145 116.083 62.1995 115.481 60.3459C122.216 58.4233 128.495 54.2272 130.961 47.5784C131.688 45.1307 131.374 42.5403 130.664 40.1283C130.1 37.9796 129.045 35.7994 129.339 33.5286C129.715 29.7784 132.883 27.1142 133.821 23.54C135.212 18.9775 131.719 14.2679 127.057 13.7425C113.956 12.0066 96.4495 25.664 91.5157 37.2985C88.3495 43.9852 89.068 52.9211 94.8101 58.0127L94.7967 58.0251ZM98.9215 29.3421C105.405 22.1499 115.427 15.479 125.402 15.4071C128.763 15.4576 132.087 17.4792 132.245 21.1208C132.26 24.1253 130.14 26.4555 128.802 28.9701C125.298 35.3603 129.358 38.4413 129.617 44.4976C129.692 47.9555 127.713 50.9873 125.358 53.373C122.972 55.9123 119.646 57.2942 116.361 58.3038C112.094 59.6112 107.372 59.9731 102.867 59.3892C99.003 58.9715 95.4247 56.8242 93.4983 53.4248C88.853 45.0228 92.9659 35.9098 98.8952 29.354L98.9215 29.3421ZM108.353 38.4159C108.535 37.0305 109.084 35.5301 108.684 34.1483C107.546 32.8029 107.086 36.7046 106.777 37.3504C106.686 37.695 106.454 38.3566 106.749 38.7417C107.165 39.3763 108.195 39.1577 108.34 38.4154L108.353 38.4159ZM116.116 32.278C116.485 30.7321 116.881 29.1743 116.955 27.5913C117.055 27.3502 117.052 27.0664 116.919 26.8293C116.644 26.2387 115.743 26.14 115.36 26.6669C114.858 27.2924 114.786 28.1534 114.525 28.8913C114.242 29.8603 113.934 30.8155 113.716 31.787C113.435 33.3621 115.746 33.8238 116.116 32.2651L116.116 32.278ZM119.288 42.996C119.449 42.8474 119.534 42.6573 119.555 42.4389C119.685 41.4253 119.737 40.4088 119.723 39.4027C119.705 38.5254 119.713 37.649 119.578 36.7801C119.581 36.69 119.52 36.6103 119.444 36.5558C119.343 36.4875 119.214 36.4955 119.12 36.5693C118.948 36.6788 118.888 36.8957 118.829 37.0868C118.478 38.8268 118.165 40.5682 117.917 42.325C117.838 43.0311 118.766 43.4661 119.276 42.9827L119.288 42.996ZM119.12 36.5693C119.12 36.5693 119.107 36.5817 119.094 36.5941C119.094 36.5941 119.119 36.5951 119.133 36.5827C119.133 36.5827 119.133 36.5698 119.147 36.5574C119.147 36.5574 119.134 36.5569 119.12 36.5693ZM113.584 51.0946C113.476 49.8786 113.565 48.5541 113.17 47.3916C112.302 46.7398 112.385 48.651 112.276 49.111C112.2 49.7656 112.109 50.4325 112.045 51.1005C112.004 52.1818 113.621 52.1789 113.584 51.0946ZM98.5052 47.3109C99.006 47.4073 99.5617 47.0803 99.6465 46.555C99.8647 45.2483 99.9666 43.9371 100.017 42.6112C100.019 42.2245 100.127 41.7773 99.8809 41.4457C99.001 40.7805 98.7066 43.0641 98.4539 43.5831C98.2843 44.6338 96.9442 46.8648 98.5186 47.2985L98.5052 47.3109Z" fill="#F2B199"/>
</svg>
