<svg width="297" height="107" viewBox="0 0 297 107" fill="none" xmlns="http://www.w3.org/2000/svg">
<path d="M246.581 60.4342C249.072 63.2843 252.459 65.3667 256.121 66.3343C258.26 66.8815 260.501 66.7989 262.652 66.3765C263.396 66.1979 264.268 66.0501 265.006 65.7032C264.79 69.653 265.04 73.6076 265.926 77.5088C266.025 77.9782 266.544 78.2697 267.001 78.1578C267.785 77.9549 267.724 77.1765 267.58 76.5501C266.838 72.2663 266.629 67.8993 266.976 63.5536C267.35 59.8685 268.121 56.2504 268.829 52.6169C269.089 51.2428 269.282 49.8921 269.619 48.5338C269.681 48.2517 269.77 47.9575 269.846 47.6629C269.962 50.0344 270.585 52.3735 271.893 54.3636C274.769 59.3238 280.916 56.1825 281.832 51.4963C282.24 49.3 281.886 47.0488 281.125 44.9502C282.084 46.2673 283.095 47.5477 284.322 48.6292C288.042 51.8237 292.619 53.2143 295.101 47.8376C296.13 44.9278 294.99 41.5989 293.338 39.13C291.663 36.9189 288.985 35.575 286.315 35.0334C286.276 35.0319 286.187 35.0026 286.136 34.9877C287.856 34.3161 289.516 33.5128 291.067 32.5243C293.067 31.2942 294.957 29.5813 295.615 27.2523C296.517 24.273 295.589 20.797 292.115 20.3152C287.38 19.6817 282.831 22.9617 280.093 26.5824C279.836 26.8701 279.172 27.996 278.905 28.9041C279.091 28.4197 279.252 27.9343 279.349 27.4336C280.067 22.8562 278.608 13.2936 272.678 13.119C270.667 12.9388 268.828 14.3432 267.972 16.0955C266.832 18.5226 266.999 21.2582 267.833 23.7993C265.945 22.4338 263.756 21.4966 261.539 21.2956C255.596 20.7842 253.756 28.6688 257.02 32.6091C258.921 34.6606 261.689 35.6846 264.506 36.0896C261.529 37.1531 258.486 39.2747 257.561 41.8134C256.09 46.1292 259.074 49.2956 263.49 48.481C266.393 47.9839 268.364 47.1925 269.7 45.3809C269.601 45.6099 269.488 45.8514 269.389 46.0804C268.471 48.102 267.91 50.2536 267.35 52.4053C266.395 55.7189 265.697 59.1199 265.307 62.5457C264.73 61.3984 264.127 60.263 263.43 59.1887C259.355 53.122 253.686 50.8232 246.594 50.2551C245.197 50.2536 242.269 49.3657 241.985 51.3856C242.516 54.7689 244.309 57.9287 246.633 60.4232L246.581 60.4342ZM275.476 30.6359C278.303 30.4333 281.389 32.6077 281.613 35.5395C281.668 39.1891 277.863 41.9672 274.426 41.8748C271.276 41.7158 269.235 38.262 269.98 35.3284C270.552 33.2289 273.2 30.6008 275.476 30.6359ZM276.682 54.5981C273.439 55.5221 272.038 49.5445 272.011 47.2023C272.039 45.7806 271.875 44.3256 272.071 42.9232C274.018 43.7606 276.415 43.6452 278.715 42.3618C278.885 42.9892 279.144 43.6588 279.159 43.9439C279.618 45.7981 280.141 47.6936 279.964 49.627C279.757 51.6499 278.726 53.9259 276.669 54.6234L276.682 54.5981ZM293.374 45.3012C293.599 46.5127 293.125 47.7493 292.327 48.676C290.912 50.4846 288.3 49.4536 286.751 48.3597C284.05 46.5881 282.654 43.5211 280.304 41.3877C282.09 40.0072 283.139 37.9389 283.269 35.8743C283.604 35.9129 283.939 35.9516 284.285 36.0424C289.205 37.2649 292.8 39.989 293.373 45.3141L293.374 45.3012ZM282.774 25.4559C284.539 23.9582 286.663 22.8622 288.944 22.406C291.244 22.1316 293.916 22.6215 293.468 25.5535C293.332 29.1054 289.767 31.013 286.957 32.458C285.81 33.0092 284.59 33.4671 283.383 33.8997C283.292 33.9349 283.225 33.9841 283.145 34.0458C282.763 32.2074 281.584 30.5585 279.511 29.6257C280.22 27.9971 281.449 26.6212 282.787 25.4694L282.774 25.4559ZM278.835 29.0308C278.805 29.1332 278.802 29.2236 278.786 29.3135C278.76 29.3125 278.747 29.312 278.721 29.2981C278.735 29.2728 278.762 29.2608 278.776 29.2355C278.804 29.1719 278.806 29.1073 278.835 29.0437L278.835 29.0308ZM270.897 15.3793C272.717 14.1294 275.107 15.54 275.812 17.4036C277.019 20.0107 277.505 22.8749 277.616 25.7377C277.647 26.6184 277.675 27.5637 277.371 28.4188C277.261 28.5956 277.241 28.763 277.248 28.9314C275.819 28.7605 274.358 29.0669 273.078 29.7424C272.878 29.5537 272.678 29.365 272.531 29.1524C271.85 28.3762 271.216 27.3561 270.748 26.394C269.369 23.2241 267.541 17.9029 270.897 15.3793ZM257.576 27.8704C257.919 19.5535 267.454 24.9231 269.973 29.0936C270.303 29.5848 270.58 30.1257 270.937 30.592C271.06 30.752 271.212 30.8354 271.365 30.8929C269.954 31.9644 268.721 33.4178 268.281 35.1213C268.165 35.1168 268.035 35.1377 267.907 35.0812C263.842 34.1629 257.516 33.1842 257.577 27.8575L257.576 27.8704ZM265.174 45.6997C263.424 46.1374 260.593 47.1029 259.492 45.1207C259.005 43.9768 259.175 42.5863 259.873 41.5653C261.61 39.4456 264.315 38.3718 266.903 37.6686C267.257 37.5527 267.74 37.4289 268.161 37.238C268.36 39.1599 269.129 40.7026 270.278 41.7683C270.193 41.9591 270.096 42.1364 270.036 42.3411C269.833 42.592 269.616 42.8554 269.4 43.0929C268.291 44.357 266.796 45.2183 265.174 45.6997ZM243.881 51.8719C253.179 52.2526 259.851 55.0294 264.164 63.705C258.327 61.0635 252.406 58.2894 247.686 53.8538C247.385 53.5836 246.892 53.6295 246.61 53.9033C245.187 55.2589 251.174 58.6951 252.178 59.5095C255.405 61.7151 259.061 63.1998 262.594 64.848C254.226 66.1714 246.037 59.7667 243.777 51.8809C243.816 51.8823 243.854 51.8838 243.893 51.8853L243.881 51.8719Z" fill="#F26457"/>
<path d="M215.379 74.4867C215.607 75.2401 216.678 75.4278 217.132 74.7616C217.529 73.7644 217.418 72.5472 217.527 71.4722C217.513 70.5945 217.715 69.6333 217.372 68.8011C216.074 67.6217 215.927 70.6355 215.722 71.3711C215.583 72.3997 215.119 73.4613 215.379 74.4867ZM218.308 73.1845C218.361 74.4814 220.259 74.643 220.542 73.382C220.718 72.6001 220.692 71.7729 220.66 70.9709C220.631 70.2755 220.564 69.1608 219.699 69.0591C218.867 68.9912 218.745 69.9442 218.672 70.5637C218.53 71.4326 218.281 72.304 218.308 73.1845ZM224.201 74.5489C224.403 73.5343 224.537 72.7033 224.661 71.6185C224.685 71.1601 224.882 70.6349 224.675 70.204C224.42 69.8024 223.854 69.8473 223.513 70.1283C222.645 71.2183 222.585 72.7813 222.171 74.0925C221.899 75.4223 223.879 75.8673 224.201 74.5489ZM179.864 79.7249C179.925 81.1032 181.995 81.1447 182.119 79.7683C182.143 78.4225 182.216 76.9814 181.746 75.7101C181.691 75.4857 181.492 75.3085 181.265 75.2575C180.09 75.179 180.318 76.939 180.114 77.7278C180.004 78.392 179.867 79.0632 179.876 79.7278L179.864 79.7249ZM183.777 81.1742C184.433 81.3216 185.072 80.8956 185.229 80.2553C185.549 78.7111 185.656 77.1188 185.86 75.5617C185.741 74.7932 184.63 74.6096 184.274 75.3111C184.059 76.0312 183.803 76.7554 183.551 77.4669C183.214 78.6101 182.03 80.6358 183.764 81.1714L183.777 81.1742ZM188.983 81.4701C189.3 80.1769 189.393 78.82 189.935 77.5904C190.199 77.3583 190.274 76.9646 190.079 76.6557C188.699 75.0737 187.009 79.8208 186.576 80.7436C186.027 82.4218 188.525 83.1555 188.986 81.4575L188.983 81.4701ZM142.529 84.6867C142.595 85.8673 142.517 87.0952 142.843 88.2414C143.303 89.6697 145.48 89.1787 145.272 87.6879C144.997 85.4932 144.807 83.1585 143.942 81.1096C143.663 80.7023 143.028 80.6391 142.719 81.0729C142.208 82.1638 142.598 83.4966 142.519 84.6712L142.529 84.6867ZM145.923 87.503C146.039 88.9333 148.115 88.8304 148.106 87.3976C148.017 85.9071 147.884 84.3801 147.391 82.918C147.27 82.5729 147.04 82.1237 146.619 82.1086C145.963 82.0804 145.972 82.8641 145.949 83.3225C145.929 84.709 145.799 86.1106 145.923 87.503ZM150.885 87.9427C151.51 87.9905 152.038 87.5263 152.111 86.9068C152.262 85.5894 152.237 84.2855 152.243 82.9621C152.231 82.6018 152.54 82.2871 152.331 81.9221C152.136 81.494 151.619 81.3778 151.226 81.5941C150.435 82.1053 150.322 83.1397 150.17 83.9931C150.139 85.1917 149.112 87.637 150.891 87.9175L150.885 87.9427Z" fill="#F2B199"/>
<path d="M12.8471 96.1454C13.1645 95.9362 13.5012 95.7484 13.8629 95.5537C15.7405 94.5877 17.7913 93.7612 19.7846 93.0179C25.3922 91.2807 31.02 89.7124 36.9127 88.9021C44.1004 87.9724 51.3558 87.574 58.6003 87.4738C65.119 87.321 71.6295 87.3314 78.1476 87.2727C80.0999 87.1043 86.0122 87.3754 86.9344 85.629C87.2024 85.0981 87.0891 84.4991 86.9862 83.9374C86.2421 79.3412 83.7191 74.7174 79.3987 72.6475C79.084 67.8109 74.6828 64.2473 70.1413 63.4063C69.5161 54.7114 59.134 50.7751 51.5239 52.2115C47.0696 52.9833 42.877 55.5605 40.5168 59.4654C29.8179 56.4626 18.3052 67.1984 18.3708 77.8338C11.2863 79.8082 9.04901 88.2945 11.1521 94.6856C10.6929 95.6858 11.9129 96.7412 12.8312 96.1364L12.8471 96.1454ZM41.4547 62.3974C43.9283 63.4256 45.4585 66.4609 43.8609 68.8651C42.9169 70.148 41.0778 69.2784 40.719 67.9427C40.2338 66.1055 40.8272 64.1422 41.4581 62.4099L41.4547 62.3974ZM20.5883 79.4835C21.6946 79.4569 22.9974 79.5098 23.8049 80.385C24.3105 80.9955 24.7964 82.1616 24.0663 82.7676C22.5543 84.0343 20.754 80.7522 20.5883 79.4835ZM18.6472 79.8366C19.1509 82.3663 21.4798 85.7158 24.4015 84.7406C25.2991 84.3026 26.1176 83.4841 26.2752 82.4607C26.6902 78.9906 23.5102 77.1127 20.3846 77.5007C20.6974 68.4639 30.2708 59.4359 39.4801 61.6194C38.6518 63.9434 37.9346 66.6658 38.9453 69.0408C39.8085 71.1752 42.4656 72.3803 44.5277 71.1616C46.13 70.2186 46.8534 68.1922 46.8366 66.3989C46.7901 63.7283 44.9111 61.3671 42.5301 60.2863C44.3323 57.5568 47.1494 55.7251 50.2766 54.8133C56.8008 52.9952 66.3108 55.6315 67.6807 63.0991C64.2688 62.7485 58.9005 65.1032 60.3292 69.2671C61.1248 70.8702 63.1984 71.7146 64.9174 71.3832C67.728 70.828 69.5053 68.1054 69.9984 65.4454C73.248 66.1768 76.2437 68.5488 77.0353 71.8705C72.8657 70.6307 64.5471 75.3507 67.6743 80.1683C68.8981 81.7192 71.0748 81.7298 72.8373 81.2655C75.8683 80.3939 78.4856 77.8934 79.2303 74.7876C82.6624 76.9441 84.1809 80.9488 85.1845 84.6944C82.3111 85.361 79.3241 85.1871 76.3692 85.2726C73.0987 85.285 69.8248 85.285 66.5488 85.3258C55.2874 85.5525 43.9143 85.4749 32.7823 87.3696C28.0963 88.2729 23.4527 89.4731 18.9402 90.999C16.5484 91.8534 14.3195 93.0515 11.9645 93.9896C11.0979 88.5688 12.918 81.715 18.6527 79.8082L18.6472 79.8366ZM67.5668 65.0496C66.2807 72.5195 57.8023 68.2404 64.5927 65.3552C65.5465 65.0223 66.5622 65.0076 67.5668 65.0496ZM77.0736 73.8858C76.5097 77.062 73.0314 80.0843 69.7409 79.3509C69.1125 79.0698 68.811 78.4695 68.9149 77.7831C69.2196 75.6989 71.5947 74.6882 73.3078 73.9022C74.521 73.5372 75.8598 73.5264 77.0736 73.8858ZM19.3688 59.2673C19.5274 59.4512 19.6805 59.6635 19.9393 59.7255C20.8762 59.8133 20.6317 58.647 20.2923 58.1512C19.5113 56.7453 18.2511 55.5937 16.8571 54.8282C15.7122 54.2349 14.617 55.8416 15.5987 56.6683C16.782 57.6401 18.2465 58.2249 19.3813 59.2638L19.3688 59.2673ZM37.4223 51.5391C37.7348 51.2642 37.5366 50.89 37.5744 50.5441C37.5989 49.2357 37.8842 47.9486 38.063 46.6643C38.1524 46.0222 37.5846 45.4291 36.9688 45.386C34.5652 45.3313 36.0311 50.0617 36.5483 51.3399C36.6918 51.6622 37.1312 51.7947 37.4099 51.5426L37.4223 51.5391ZM72.6517 54.6963C73.1287 54.2413 73.641 53.8168 74.1568 53.4047C74.9732 52.627 76.9001 51.7412 75.8736 50.4171C75.017 49.4617 73.9578 50.4277 73.2824 51.0856C72.6215 51.6991 70.2487 54.5475 71.4621 55.2425C71.9557 55.5209 72.3337 54.9996 72.6482 54.6839L72.6517 54.6963ZM85.9988 71.4388C87.1972 70.6352 88.6437 70.4334 90.0439 70.2579C91.368 70.0499 91.5088 68.0516 90.2278 67.6438C89.0375 67.2241 86.2627 69.3526 85.5357 70.3066C85.3422 70.5752 85.0803 70.9836 85.3054 71.31C85.4585 71.5223 85.7741 71.5954 85.9864 71.4423L85.9988 71.4388Z" fill="#8FA5BC"/>
<path d="M124.07 66.895C123.845 67.0287 123.607 67.1749 123.419 67.3488C123.232 67.5098 123.284 67.8481 123.513 67.9473C123.678 68.0183 123.836 67.9597 124.006 67.9015C127.925 66.2014 131.629 64.0533 135.632 62.5504C143.704 59.4695 151.948 56.9644 160.301 54.6703C169.126 52.2131 178.187 51.0197 187.286 49.8406C194.268 48.9041 201.272 48.059 208.324 47.9788C215.43 47.8619 222.549 48.0689 229.625 48.714C231.932 48.9314 234.241 49.11 236.553 49.1983C237.069 49.218 237.525 48.7956 237.545 48.2919C237.562 47.8398 237.23 47.3745 236.754 47.3175C235.158 47.1143 233.559 46.9757 231.961 46.8242C229.641 46.6063 227.333 46.4277 225.011 46.2485C224.546 46.2308 224.081 46.2131 223.616 46.1953C223.659 46.0935 223.703 45.9658 223.708 45.8366C223.968 41.7333 224.021 37.6221 224.345 33.5342C224.498 30.5521 225.236 27.476 224.663 24.518C221.817 17.7609 218.3 11.2888 214.198 5.22112C214.187 5.18187 214.175 5.15554 214.151 5.11581C214.151 5.10289 214.125 5.11482 214.113 5.0885C214.076 5.03535 214.052 4.98271 214.015 4.92957C213.915 4.86104 213.825 4.84469 213.735 4.82832C213.149 4.58608 212.402 4.84213 211.792 4.88355C210.322 5.11201 208.862 5.41844 207.391 5.65982C200.774 6.53264 194.018 7.64593 187.339 8.11541C186.435 8.06799 185.802 8.74229 185.273 9.38177C184.379 10.4342 183.535 11.5273 182.642 12.5668C180.347 15.092 178.088 17.6704 175.943 20.3306C173.788 22.9 171.671 25.5097 169.379 27.9445C169.059 28.2039 169.251 28.5992 169.473 28.8664C169.846 29.2816 170.472 29.1244 170.773 28.6961C171.706 28.667 172.65 28.6772 173.581 28.6868C173.5 29.434 173.57 30.3162 173.504 30.7017C173.42 32.8845 173.298 35.0658 173.164 37.2337C172.307 35.9593 171.163 34.7515 169.863 33.9129C168.688 33.1696 168.165 34.3525 167.704 35.2274C167.238 36.2574 166.642 37.2953 166.252 38.3798C165.204 37.0205 164.025 35.7208 162.491 34.8992C160.985 34.0268 160.586 35.6672 160.119 36.7359C159.902 37.3356 159.608 37.9322 159.364 38.5438C159.327 38.5036 159.276 38.4758 159.239 38.4356C158.198 37.581 157.123 36.6086 155.776 36.3115C154.247 36.0333 154.056 38.005 153.488 38.9922C153.274 39.5144 153.047 40.036 152.858 40.5721C151.776 39.4572 150.608 38.1968 149.056 37.8401C147.617 37.604 147.266 39.3498 146.711 40.3246C145.495 42.3606 145.844 44.7281 146.355 46.9335C146.906 49.8002 147.795 52.5892 148.541 55.4115C148.588 55.5427 148.633 55.7255 148.677 55.9083C143.817 57.5336 139.001 59.3418 134.317 61.4137C130.791 62.9736 127.47 64.9293 124.124 66.8324L124.07 66.895ZM182.411 48.4516C179.668 48.8126 176.924 49.1865 174.192 49.6126C174.221 49.1998 174.263 48.7745 174.291 48.3617C174.47 45.704 174.533 43.0548 174.75 40.3985C174.991 37.4845 175.038 34.5501 174.969 31.6242C174.941 30.666 174.9 29.6944 174.859 28.7356C175.454 28.7454 176.048 28.7551 176.631 28.7386C179.431 28.5738 182.227 28.176 185.029 27.9854C186.391 27.8822 187.752 27.7919 189.112 27.7403C189.901 27.7445 190.599 27.7582 191.251 27.6279C191.174 29.6557 191.251 31.6893 191.264 33.7206C191.207 38.2714 190.955 42.8277 191.014 47.383C188.142 47.739 185.271 48.0822 182.411 48.4516ZM213.07 7.33814C213.205 7.18807 213.393 7.01416 213.567 6.83974C214.38 8.92737 215.534 10.8857 216.518 12.9023C217.942 15.5953 219.273 18.3365 220.618 21.0523C221.264 22.4222 221.99 23.7433 222.649 25.1137C222.901 27.3222 222.44 29.5682 222.317 31.7753C221.949 35.6417 221.917 39.5467 221.795 43.4225C221.765 44.1974 221.722 44.9848 221.693 45.7597C221.687 45.9018 221.722 46.0066 221.756 46.1243C213.414 45.7672 205.042 45.8616 196.733 46.6699C195.433 46.8273 194.121 46.9971 192.821 47.1544C192.974 40.4472 193.334 33.709 192.606 27.0199C192.86 26.8226 193.101 26.599 193.346 26.285C197.722 21.7696 202.274 17.3903 206.924 13.1441C209.051 11.298 211.067 9.30541 213.07 7.32522L213.07 7.33814ZM172.199 27.263C175.423 23.7902 178.435 20.1153 181.596 16.5884C182.541 15.5638 183.509 14.5789 184.404 13.5136C185.415 12.4268 186.191 11.0725 187.327 10.1327C195.323 9.37723 203.276 8.0768 211.205 6.72372C208.749 9.04879 206.22 11.2676 203.677 13.4859C200.579 16.3943 197.642 19.4513 194.581 22.4C193.36 23.5434 192.4 24.9813 191.08 26.0045C189.214 26.1014 187.328 26.0424 185.446 26.1905C181.012 26.4611 176.618 27.0436 172.187 27.2496L172.199 27.263ZM168.121 38.2183C168.554 37.3682 168.924 36.4898 169.319 35.6124C170.637 36.6716 171.513 38.1149 172.724 39.2735C172.799 39.341 172.902 39.345 172.992 39.3743C172.693 42.4542 172.549 45.5401 172.574 48.6325C172.625 48.9707 172.543 49.4332 172.5 49.8843C171.029 50.1257 169.557 50.3929 168.098 50.6735C168.005 47.3458 168.017 43.9832 167.536 40.6665C167.155 39.7854 167.78 39.0072 168.121 38.2183ZM161.987 36.6002C163.422 37.6251 164.399 39.1498 165.646 40.3616C165.709 40.4157 165.772 40.444 165.849 40.4728C165.949 43.9431 166.854 47.3535 167.135 50.8178C167.135 50.8178 167.135 50.8308 167.134 50.8437C165.309 51.2138 163.509 51.6237 161.706 52.0852C161.702 51.5289 161.606 50.969 161.601 50.4256C161.212 47.0736 161.176 43.6187 160.369 40.3413C160.768 39.0501 161.486 37.8616 161.987 36.6002ZM155.585 37.934C156.688 38.5193 157.686 39.4887 158.597 40.3384C158.685 40.4064 158.774 40.4615 158.876 40.4913C158.875 40.53 158.873 40.5688 158.872 40.6075C159.069 44.586 160.1 48.4152 160.87 52.2991C159.237 52.7412 157.628 53.2101 156.006 53.6786C155.988 53.458 155.958 53.2499 155.94 53.0293C155.545 49.496 154.786 46.0006 153.843 42.5757C154.073 40.9418 155.136 39.5207 155.598 37.9215L155.585 37.934ZM147.432 43.1201C147.71 41.9278 148.513 40.8849 148.946 39.7243C150.023 40.2957 150.729 41.1117 151.628 41.9609C151.803 42.1228 152.006 42.234 152.238 42.2429C152.29 42.2448 152.33 42.2076 152.369 42.209C152.365 42.3124 152.322 42.4142 152.319 42.5175C152.379 43.6322 152.727 44.6932 152.983 45.7766C153.393 47.5772 153.934 49.3311 154.528 51.0611C154.855 51.9661 154.985 52.9799 155.286 53.8969C153.297 54.4936 151.307 55.1161 149.33 55.765C149.251 54.4297 149.068 53.1164 148.847 51.8015C148.362 48.9115 147.903 46.0225 147.432 43.1201ZM205.761 22.6067C204.567 22.7164 203.24 22.5881 202.168 23.2069C200.535 23.9724 200.675 28.4531 200.481 30.1402C200.328 33.1222 200.525 36.0918 200.645 39.0584C200.689 39.5904 200.658 40.417 200.792 40.9783C200.957 41.3985 201.453 41.6115 201.875 41.4077C201.939 41.4101 202.017 41.4131 202.084 41.351C202.111 41.3261 202.137 41.3142 202.151 41.2889C205.139 41.2865 208.17 41.5056 211.156 41.5549C212.36 41.5361 213.617 41.804 214.803 41.5776C216.231 40.7526 215.757 37.9406 215.877 36.4836C215.895 34.3112 215.875 32.1245 215.88 29.9517C215.859 28.14 215.62 26.2683 215.612 24.4442C215.403 23.1428 213.76 23.1577 212.745 22.9767C210.44 22.7076 208.092 22.5275 205.762 22.5809L205.761 22.6067ZM213.71 25.1348C213.738 28.1238 213.663 31.1217 213.91 34.1191C213.951 36.1126 214.327 38.1188 214.044 40.1129C210.179 39.7068 206.134 39.6042 202.325 40.4677C202.715 35.3217 202.217 30.0641 203.174 24.9785C205.441 24.8969 207.475 24.8063 209.826 24.8831C211.118 24.9324 212.437 24.931 213.722 25.1611L213.71 25.1348ZM92.7965 57.3459C96.4134 60.5236 101.414 60.9989 106.089 60.854C106.07 61.3577 106.102 61.8763 106.106 62.1093C106.196 65.5016 106.455 68.8745 106.857 72.2399C107.398 77.719 108.655 83.096 110.318 88.3333C110.608 89.1852 111.929 88.8087 111.73 87.9345C110.511 83.2574 109.085 78.5982 108.493 73.7898C107.996 70.188 107.556 66.4848 107.319 62.8411C107.255 62.166 107.216 61.479 107.19 60.8054C107.332 60.8109 107.475 60.7904 107.605 60.7825C109.267 60.626 110.946 60.3408 112.618 59.9131C112.759 60.617 112.913 61.3213 113.041 62.0376C113.726 65.7889 114.776 69.4636 115.944 73.0911C117.48 77.9097 119.292 82.6353 121.498 87.1819C122.016 88.1847 123.508 87.4009 123.015 86.412C119.796 79.6019 117.274 72.4692 115.078 65.2714C114.604 63.4554 114.082 61.5341 113.481 59.6744C120.216 57.7454 126.494 53.5355 128.961 46.8648C129.688 44.4091 129.374 41.8102 128.664 39.3902C128.1 37.2344 127.045 35.047 127.339 32.7688C127.715 29.0062 130.882 26.3332 131.821 22.7473C133.212 18.1698 129.719 13.4447 125.056 12.9175C111.955 11.1759 94.4494 24.8783 89.5156 36.5511C86.3493 43.2598 87.0679 52.2251 92.81 57.3335L92.7965 57.3459ZM96.9213 28.5685C103.405 21.3526 113.426 14.6597 123.402 14.5877C126.763 14.6383 130.087 16.6665 130.245 20.3201C130.26 23.3345 128.14 25.6724 126.802 28.1953C123.298 34.6065 127.358 37.6976 127.617 43.7739C127.692 47.2432 125.713 50.285 123.358 52.6785C120.971 55.2261 117.646 56.6126 114.361 57.6255C110.094 58.9372 105.372 59.3003 100.867 58.7145C97.0029 58.2954 93.4246 56.1411 91.4981 52.7304C86.8529 44.3009 90.9657 35.1578 96.895 28.5804L96.9213 28.5685ZM106.353 37.6722C106.535 36.2822 107.084 34.7768 106.684 33.3905C105.546 32.0407 105.086 35.9553 104.777 36.6031C104.686 36.9489 104.453 37.6126 104.749 37.999C105.165 38.6357 106.195 38.4164 106.34 37.6717L106.353 37.6722ZM114.116 31.514C114.485 29.963 114.881 28.4001 114.955 26.8119C115.054 26.57 115.052 26.2853 114.919 26.0474C114.644 25.4549 113.743 25.3558 113.36 25.8845C112.858 26.512 112.786 27.3759 112.525 28.1162C112.242 29.0884 111.934 30.0467 111.716 31.0215C111.435 32.6017 113.746 33.065 114.116 31.5011L114.116 31.514ZM117.288 42.2674C117.449 42.1183 117.534 41.9275 117.555 41.7084C117.685 40.6915 117.736 39.6717 117.723 38.6622C117.705 37.782 117.713 36.9027 117.578 36.031C117.581 35.9406 117.52 35.8606 117.444 35.806C117.343 35.7375 117.214 35.7454 117.12 35.8195C116.948 35.9293 116.888 36.1469 116.829 36.3387C116.478 38.0844 116.165 39.8316 115.917 41.5942C115.838 42.3026 116.766 42.7389 117.276 42.2539L117.288 42.2674ZM117.12 35.8195C117.12 35.8195 117.107 35.8319 117.093 35.8443C117.093 35.8443 117.119 35.8453 117.133 35.8329C117.133 35.8329 117.133 35.82 117.147 35.8076C117.147 35.8076 117.134 35.8071 117.12 35.8195ZM111.584 50.3926C111.476 49.1726 111.565 47.8437 111.17 46.6774C110.302 46.0235 110.384 47.9409 110.276 48.4024C110.199 49.0592 110.109 49.7283 110.045 50.3985C110.003 51.4834 111.62 51.4804 111.584 50.3926ZM96.5051 46.5964C97.0058 46.6931 97.5616 46.3651 97.6464 45.838C97.8646 44.527 97.9665 43.2116 98.0173 41.8812C98.0191 41.4933 98.1268 41.0447 97.8808 40.7119C97.0008 40.0445 96.7064 42.3357 96.4537 42.8564C96.2842 43.9105 94.9441 46.1488 96.5185 46.584L96.5051 46.5964Z" fill="#F2B199"/>
</svg>
