<svg width="627" height="102" viewBox="0 0 627 102" fill="none" xmlns="http://www.w3.org/2000/svg">
<path d="M392.581 69.4354C395.072 72.2855 398.459 74.3679 402.121 75.3355C404.26 75.8828 406.501 75.8001 408.651 75.3777C409.396 75.1992 410.268 75.0514 411.005 74.7044C410.79 78.6542 411.04 82.6088 411.926 86.5101C412.024 86.9795 412.544 87.2709 413.001 87.159C413.784 86.9561 413.724 86.1777 413.579 85.5513C412.837 81.2675 412.629 76.9006 412.976 72.5548C413.349 68.8698 414.121 65.2516 414.829 61.6181C415.088 60.244 415.282 58.8933 415.619 57.5351C415.681 57.2529 415.77 56.9588 415.846 56.6642C415.962 59.0357 416.584 61.3747 417.892 63.3648C420.769 68.3251 426.916 65.1837 427.832 60.4975C428.239 58.3012 427.886 56.05 427.125 53.9514C428.083 55.2685 429.095 56.5489 430.322 57.6304C434.041 60.825 438.619 62.2155 441.1 56.8388C442.13 53.929 440.989 50.6001 439.337 48.1312C437.663 45.9201 434.985 44.5762 432.315 44.0346C432.276 44.0331 432.187 44.0038 432.136 43.9889C433.856 43.3173 435.516 42.514 437.067 41.5255C439.067 40.2954 440.956 38.5825 441.614 36.2535C442.517 33.2742 441.589 29.7982 438.115 29.3164C433.379 28.683 428.831 31.9629 426.092 35.5836C425.836 35.8713 425.172 36.9972 424.904 37.9053C425.091 37.4209 425.252 36.9356 425.349 36.4348C426.066 31.8575 424.608 22.2948 418.677 22.1203C416.666 21.9401 414.828 23.3444 413.972 25.0968C412.832 27.5238 412.999 30.2594 413.833 32.8005C411.945 31.435 409.756 30.4978 407.539 30.2968C401.596 29.7854 399.756 37.67 403.02 41.6103C404.921 43.6619 407.688 44.6858 410.506 45.0908C407.529 46.1543 404.486 48.2759 403.561 50.8146C402.09 55.1304 405.074 58.2968 409.49 57.4823C412.393 56.9851 414.363 56.1937 415.7 54.3821C415.601 54.6111 415.488 54.8526 415.389 55.0816C414.471 57.1032 413.91 59.2548 413.349 61.4065C412.395 64.7201 411.696 68.1212 411.307 71.5469C410.73 70.3996 410.126 69.2642 409.43 68.1899C405.354 62.1232 399.686 59.8245 392.594 59.2563C391.197 59.2548 388.269 58.367 387.985 60.3869C388.515 63.7701 390.309 66.9299 392.633 69.4245L392.581 69.4354ZM421.475 39.6371C424.303 39.4345 427.389 41.6089 427.613 44.5407C427.668 48.1904 423.863 50.9684 420.426 50.876C417.276 50.717 415.234 47.2632 415.98 44.3296C416.552 42.2302 419.2 39.602 421.475 39.6371ZM422.682 63.5993C419.439 64.5233 418.038 58.5457 418.01 56.2035C418.039 54.7818 417.875 53.3268 418.07 51.9244C420.017 52.7619 422.415 52.6464 424.714 51.3631C424.884 51.9904 425.143 52.66 425.158 52.9451C425.618 54.7994 426.141 56.6948 425.963 58.6283C425.757 60.6511 424.726 62.9271 422.668 63.6247L422.682 63.5993ZM439.373 54.3024C439.599 55.5139 439.125 56.7505 438.326 57.6772C436.912 59.4858 434.3 58.4549 432.751 57.361C430.05 55.5894 428.654 52.5223 426.304 50.3889C428.09 49.0084 429.139 46.9401 429.269 44.8755C429.604 44.9142 429.939 44.9528 430.284 45.0436C435.205 46.2661 438.8 48.9903 439.373 54.3153L439.373 54.3024ZM428.774 34.4572C430.539 32.9594 432.663 31.8634 434.944 31.4072C437.244 31.1328 439.916 31.6228 439.467 34.5548C439.332 38.1066 435.767 40.0143 432.956 41.4592C431.81 42.0104 430.59 42.4683 429.383 42.9009C429.291 42.9362 429.225 42.9854 429.145 43.047C428.762 41.2086 427.583 39.5597 425.511 38.6269C426.22 36.9984 427.449 35.6225 428.787 34.4706L428.774 34.4572ZM424.835 38.032C424.805 38.1344 424.802 38.2248 424.785 38.3147C424.759 38.3137 424.747 38.3132 424.721 38.2993C424.735 38.274 424.761 38.2621 424.775 38.2367C424.804 38.1731 424.806 38.1085 424.834 38.045L424.835 38.032ZM416.897 24.3806C418.716 23.1307 421.107 24.5412 421.812 26.4048C423.019 29.012 423.505 31.8761 423.615 34.7389C423.646 35.6196 423.675 36.565 423.371 37.42C423.261 37.5969 423.241 37.7643 423.248 37.9327C421.819 37.7617 420.358 38.0682 419.078 38.7436C418.878 38.5549 418.678 38.3662 418.531 38.1537C417.849 37.3774 417.216 36.3573 416.748 35.3952C415.368 32.2253 413.541 26.9041 416.897 24.3806ZM403.576 36.8716C403.919 28.5548 413.454 33.9243 415.972 38.0948C416.303 38.586 416.58 39.1269 416.937 39.5933C417.06 39.7532 417.212 39.8366 417.365 39.8942C415.953 40.9656 414.721 42.419 414.281 44.1225C414.164 44.1181 414.034 44.139 413.907 44.0824C409.842 43.1641 403.515 42.1854 403.576 36.8587L403.576 36.8716ZM411.174 54.7009C409.424 55.1386 406.593 56.1041 405.492 54.1219C405.005 52.978 405.174 51.5876 405.873 50.5665C407.61 48.4468 410.315 47.373 412.903 46.6698C413.257 46.5539 413.74 46.4301 414.161 46.2392C414.359 48.1611 415.128 49.7038 416.278 50.7695C416.193 50.9603 416.095 51.1377 416.036 51.3423C415.832 51.5933 415.615 51.8566 415.399 52.0941C414.29 53.3582 412.796 54.2196 411.174 54.7009ZM389.881 60.8731C399.179 61.2538 405.851 64.0306 410.163 72.7062C404.327 70.0647 398.405 67.2906 393.685 62.855C393.385 62.5849 392.892 62.6307 392.61 62.9045C391.187 64.2601 397.174 67.6964 398.178 68.5107C401.405 70.7164 405.06 72.201 408.593 73.8492C400.226 75.1726 392.037 68.7679 389.777 60.8821C389.815 60.8836 389.854 60.885 389.893 60.8865L389.881 60.8731Z" fill="#F26457"/>
<path d="M360.379 69.4887C360.607 70.2421 361.678 70.4298 362.133 69.7635C362.529 68.7663 362.418 67.5492 362.527 66.4741C362.513 65.5965 362.716 64.6352 362.373 63.8031C361.075 62.6237 360.927 65.6375 360.722 66.373C360.584 67.4017 360.12 68.4632 360.379 69.4887ZM363.308 68.1864C363.361 69.4833 365.259 69.645 365.543 68.3839C365.718 67.602 365.692 66.7748 365.661 65.9728C365.631 65.2774 365.564 64.1627 364.699 64.0611C363.867 63.9931 363.745 64.9462 363.672 65.5657C363.53 66.4345 363.281 67.3059 363.308 68.1864ZM369.202 69.5508C369.403 68.5363 369.537 67.7053 369.662 66.6205C369.685 66.1621 369.883 65.6368 369.675 65.2059C369.421 64.8044 368.854 64.8492 368.513 65.1302C367.645 66.2202 367.585 67.7832 367.171 69.0945C366.899 70.4242 368.879 70.8693 369.202 69.5508ZM324.864 74.7269C324.925 76.1051 326.995 76.1466 327.119 74.7702C327.144 73.4244 327.216 71.9834 326.747 70.7121C326.691 70.4876 326.492 70.3105 326.265 70.2595C325.091 70.1809 325.318 71.9409 325.114 72.7297C325.004 73.394 324.867 74.0652 324.876 74.7297L324.864 74.7269ZM328.777 76.1762C329.433 76.3236 330.072 75.8975 330.229 75.2572C330.55 73.7131 330.656 72.1207 330.86 70.5637C330.742 69.7951 329.63 69.6116 329.274 70.3131C329.059 71.0331 328.803 71.7573 328.551 72.4689C328.214 73.6121 327.03 75.6378 328.765 76.1734L328.777 76.1762ZM333.983 76.472C334.301 75.1788 334.394 73.822 334.935 72.5924C335.199 72.3603 335.274 71.9665 335.079 71.6576C333.699 70.0757 332.009 74.8228 331.577 75.7456C331.027 77.4238 333.525 78.1575 333.986 76.4594L333.983 76.472ZM287.529 79.6886C287.595 80.8692 287.518 82.0972 287.843 83.2433C288.303 84.6716 290.481 84.1806 290.272 82.6899C289.997 80.4952 289.807 78.1605 288.943 76.1115C288.663 75.7043 288.028 75.641 287.719 76.0749C287.209 77.1658 287.598 78.4986 287.519 79.6732L287.529 79.6886ZM290.923 82.505C291.039 83.9353 293.116 83.8324 293.106 82.3995C293.018 80.9091 292.884 79.382 292.391 77.92C292.27 77.5748 292.04 77.1256 291.619 77.1106C290.963 77.0824 290.973 77.8661 290.949 78.3245C290.929 79.7109 290.799 81.1126 290.923 82.505ZM295.885 82.9447C296.51 82.9924 297.039 82.5283 297.112 81.9088C297.262 80.5913 297.237 79.2875 297.243 77.9641C297.231 77.6037 297.541 77.289 297.331 76.924C297.136 76.496 296.619 76.3797 296.226 76.5961C295.435 77.1073 295.322 78.1416 295.17 78.995C295.139 80.1936 294.112 82.6389 295.891 82.9194L295.885 82.9447Z" fill="#F2B199"/>
<path d="M153.847 91.1454C154.165 90.9362 154.501 90.7484 154.863 90.5537C156.741 89.5877 158.792 88.7612 160.785 88.0179C166.392 86.2807 172.02 84.7124 177.913 83.9021C185.101 82.9724 192.356 82.574 199.601 82.4738C206.119 82.321 212.63 82.3314 219.148 82.2727C221.1 82.1043 227.012 82.3754 227.935 80.629C228.203 80.0981 228.089 79.4991 227.986 78.9374C227.242 74.3412 224.719 69.7174 220.399 67.6475C220.084 62.8109 215.683 59.2473 211.142 58.4063C210.516 49.7114 200.134 45.7751 192.524 47.2115C188.07 47.9833 183.877 50.5605 181.517 54.4654C170.818 51.4626 159.305 62.1984 159.371 72.8338C152.287 74.8082 150.049 83.2945 152.152 89.6856C151.693 90.6858 152.913 91.7412 153.831 91.1364L153.847 91.1454ZM182.455 57.3974C184.929 58.4256 186.459 61.4609 184.861 63.8651C183.917 65.148 182.078 64.2784 181.719 62.9427C181.234 61.1055 181.827 59.1422 182.458 57.4099L182.455 57.3974ZM161.589 74.4835C162.695 74.4569 163.998 74.5098 164.805 75.385C165.311 75.9955 165.797 77.1616 165.067 77.7676C163.555 79.0343 161.754 75.7522 161.589 74.4835ZM159.647 74.8366C160.151 77.3663 162.48 80.7158 165.402 79.7406C166.299 79.3026 167.118 78.4841 167.275 77.4607C167.69 73.9906 164.51 72.1127 161.385 72.5007C161.698 63.4639 171.271 54.4359 180.48 56.6194C179.652 58.9434 178.935 61.6658 179.946 64.0408C180.809 66.1752 183.466 67.3803 185.528 66.1616C187.13 65.2186 187.854 63.1922 187.837 61.3989C187.79 58.7283 185.911 56.3671 183.53 55.2863C185.332 52.5568 188.15 50.7251 191.277 49.8133C197.801 47.9952 207.311 50.6315 208.681 58.0991C205.269 57.7485 199.901 60.1032 201.329 64.2671C202.125 65.8702 204.199 66.7146 205.918 66.3832C208.728 65.828 210.505 63.1054 210.999 60.4454C214.248 61.1767 217.244 63.5488 218.036 66.8705C213.866 65.6307 205.547 70.3507 208.675 75.1683C209.898 76.7192 212.075 76.7298 213.838 76.2655C216.869 75.3939 219.486 72.8934 220.231 69.7876C223.663 71.9441 225.181 75.9488 226.185 79.6944C223.311 80.361 220.324 80.1871 217.369 80.2726C214.099 80.285 210.825 80.285 207.549 80.3258C196.288 80.5525 184.915 80.4749 173.783 82.3696C169.097 83.2729 164.453 84.4731 159.94 85.999C157.549 86.8534 155.32 88.0515 152.965 88.9896C152.098 83.5688 153.918 76.715 159.653 74.8082L159.647 74.8366ZM208.567 60.0496C207.281 67.5195 198.803 63.2404 205.593 60.3552C206.547 60.0223 207.562 60.0076 208.567 60.0496ZM218.074 68.8858C217.51 72.062 214.032 75.0843 210.741 74.3509C210.113 74.0698 209.811 73.4695 209.915 72.7831C210.22 70.6989 212.595 69.6882 214.308 68.9022C215.521 68.5372 216.86 68.5264 218.074 68.8858ZM160.369 54.2673C160.528 54.4512 160.681 54.6635 160.94 54.7255C161.876 54.8133 161.632 53.647 161.293 53.1512C160.512 51.7453 159.251 50.5937 157.857 49.8282C156.712 49.2349 155.617 50.8416 156.599 51.6683C157.782 52.6401 159.247 53.2249 160.382 54.2638L160.369 54.2673ZM178.423 46.5391C178.735 46.2642 178.537 45.89 178.575 45.5441C178.599 44.2357 178.884 42.9486 179.063 41.6643C179.153 41.0222 178.585 40.429 177.969 40.386C175.565 40.3313 177.031 45.0617 177.549 46.3399C177.692 46.6622 178.131 46.7947 178.41 46.5426L178.423 46.5391ZM213.652 49.6963C214.129 49.2413 214.641 48.8168 215.157 48.4047C215.973 47.627 217.9 46.7412 216.874 45.4171C216.017 44.4617 214.958 45.4277 214.283 46.0856C213.622 46.6991 211.249 49.5475 212.462 50.2425C212.956 50.5209 213.334 49.9996 213.648 49.6839L213.652 49.6963ZM226.999 66.4388C228.197 65.6352 229.644 65.4334 231.044 65.2579C232.368 65.0499 232.509 63.0516 231.228 62.6438C230.038 62.2241 227.263 64.3526 226.536 65.3066C226.342 65.5752 226.081 65.9836 226.306 66.31C226.459 66.5223 226.774 66.5954 226.987 66.4423L226.999 66.4388Z" fill="#8FA5BC"/>
<path d="M267.07 66.8948C266.845 67.0285 266.607 67.1746 266.419 67.3485C266.232 67.5095 266.284 67.8478 266.513 67.9471C266.678 68.0181 266.836 67.9594 267.006 67.9012C270.926 66.2012 274.629 64.053 278.632 62.5501C286.704 59.4693 294.948 56.9641 303.301 54.67C312.126 52.2129 321.187 51.0194 330.286 49.8403C337.268 48.9038 344.272 48.0587 351.324 47.9786C358.43 47.8617 365.549 48.0687 372.625 48.7138C374.932 48.9312 377.241 49.1098 379.553 49.198C380.07 49.2177 380.525 48.7954 380.545 48.2916C380.562 47.8396 380.23 47.3742 379.754 47.3172C378.158 47.114 376.559 46.9754 374.961 46.8239C372.641 46.606 370.333 46.4274 368.011 46.2483C367.546 46.2305 367.081 46.2128 366.616 46.1951C366.659 46.0932 366.703 45.9655 366.708 45.8364C366.968 41.7331 367.021 37.6219 367.345 33.534C367.498 30.5519 368.236 27.4758 367.663 24.5177C364.817 17.7607 361.3 11.2885 357.198 5.22087C357.187 5.18163 357.175 5.1553 357.151 5.11557C357.151 5.10265 357.125 5.11457 357.113 5.08825C357.076 5.03511 357.052 4.98246 357.016 4.92932C356.915 4.8608 356.825 4.84444 356.735 4.82808C356.149 4.58584 355.402 4.84189 354.793 4.8833C353.322 5.11176 351.862 5.4182 350.391 5.65957C343.774 6.53239 337.018 7.64569 330.339 8.11516C329.435 8.06774 328.802 8.74204 328.273 9.38153C327.379 10.4339 326.535 11.5271 325.642 12.5665C323.347 15.0918 321.088 17.6701 318.943 20.3304C316.789 22.8998 314.671 25.5094 312.379 27.9442C312.059 28.2036 312.251 28.599 312.474 28.8662C312.846 29.2813 313.473 29.1242 313.773 28.6959C314.706 28.6668 315.65 28.6769 316.581 28.6866C316.5 29.4337 316.57 30.316 316.504 30.7015C316.42 32.8842 316.298 35.0655 316.164 37.2334C315.307 35.959 314.163 34.7512 312.863 33.9126C311.688 33.1693 311.165 34.3523 310.705 35.2272C310.238 36.2571 309.643 37.295 309.252 38.3796C308.204 37.0202 307.025 35.7206 305.491 34.8989C303.985 34.0266 303.587 35.667 303.119 36.7357C302.902 37.3353 302.608 37.932 302.364 38.5436C302.327 38.5034 302.277 38.4756 302.239 38.4353C301.198 37.5807 300.123 36.6084 298.776 36.3113C297.248 36.033 297.056 38.0047 296.488 38.992C296.274 39.5141 296.047 40.0358 295.859 40.5718C294.776 39.4569 293.608 38.1965 292.057 37.8398C290.617 37.6038 290.266 39.3495 289.711 40.3243C288.495 42.3604 288.845 44.7278 289.355 46.9333C289.906 49.7999 290.795 52.5889 291.541 55.4113C291.588 55.5424 291.633 55.7252 291.678 55.908C286.817 57.5334 282.001 59.3415 277.317 61.4135C273.791 62.9733 270.47 64.9291 267.125 66.8322L267.07 66.8948ZM325.411 48.4514C322.668 48.8124 319.925 49.1863 317.192 49.6123C317.221 49.1995 317.263 48.7743 317.292 48.3615C317.471 45.7038 317.533 43.0545 317.751 40.3983C317.991 37.4842 318.038 34.5499 317.969 31.624C317.941 30.6658 317.9 29.6941 317.859 28.7354C318.454 28.7451 319.049 28.7549 319.631 28.7383C322.431 28.5735 325.228 28.1758 328.029 27.9852C329.391 27.8819 330.752 27.7916 332.113 27.74C332.901 27.7443 333.599 27.758 334.251 27.6276C334.174 29.6554 334.251 31.6891 334.264 33.7203C334.207 38.2712 333.956 42.8275 334.015 47.3827C331.142 47.7388 328.271 48.0819 325.411 48.4514ZM356.07 7.33789C356.205 7.18783 356.393 7.01391 356.568 6.83949C357.38 8.92712 358.534 10.8855 359.518 12.902C360.942 15.595 362.273 18.3362 363.618 21.0521C364.264 22.4219 364.99 23.7431 365.649 25.1135C365.901 27.322 365.44 29.5679 365.317 31.7751C364.95 35.6415 364.917 39.5465 364.795 43.4222C364.765 44.1972 364.722 44.9845 364.693 45.7595C364.687 45.9016 364.722 46.0064 364.757 46.1241C356.414 45.767 348.042 45.8614 339.733 46.6697C338.434 46.827 337.121 46.9968 335.821 47.1542C335.974 40.4469 336.334 33.7088 335.606 27.0197C335.86 26.8224 336.101 26.5988 336.346 26.2847C340.722 21.7694 345.274 17.3901 349.924 13.1439C352.051 11.2978 354.068 9.30516 356.07 7.32497L356.07 7.33789ZM315.199 27.2628C318.423 23.79 321.435 20.1151 324.596 16.5881C325.541 15.5635 326.51 14.5786 327.404 13.5133C328.415 12.4266 329.191 11.0722 330.327 10.1325C338.323 9.37699 346.276 8.07656 354.205 6.72347C351.749 9.04855 349.22 11.2673 346.678 13.4856C343.579 16.3941 340.642 19.451 337.581 22.3997C336.36 23.5431 335.4 24.981 334.08 26.0043C332.214 26.1012 330.328 26.0422 328.446 26.1903C324.012 26.4608 319.618 27.0434 315.187 27.2494L315.199 27.2628ZM311.121 38.218C311.554 37.368 311.924 36.4896 312.32 35.6122C313.637 36.6714 314.514 38.1147 315.724 39.2733C315.799 39.3408 315.902 39.3447 315.992 39.374C315.693 42.454 315.55 45.5399 315.574 48.6322C315.626 48.9705 315.543 49.433 315.5 49.8841C314.029 50.1254 312.558 50.3926 311.098 50.6733C311.005 47.3455 311.017 43.983 310.536 40.6662C310.155 39.7851 310.78 39.007 311.121 38.218ZM304.987 36.6C306.422 37.6248 307.399 39.1496 308.646 40.3613C308.709 40.4154 308.772 40.4437 308.849 40.4725C308.949 43.9428 309.854 47.3533 310.135 50.8176C310.135 50.8176 310.135 50.8305 310.134 50.8434C308.31 51.2136 306.509 51.6235 304.706 52.085C304.702 51.5286 304.607 50.9688 304.601 50.4254C304.212 47.0734 304.176 43.6184 303.369 40.3411C303.768 39.0499 304.486 37.8614 304.987 36.6ZM298.585 37.9337C299.688 38.5191 300.686 39.4884 301.598 40.3381C301.685 40.4061 301.774 40.4613 301.876 40.491C301.875 40.5298 301.873 40.5685 301.872 40.6073C302.069 44.5857 303.1 48.4149 303.87 52.2989C302.237 52.741 300.628 53.2099 299.006 53.6783C298.989 53.4578 298.958 53.2496 298.94 53.0291C298.545 49.4958 297.786 46.0003 296.843 42.5755C297.073 40.9415 298.136 39.5205 298.598 37.9213L298.585 37.9337ZM290.432 43.1199C290.711 41.9276 291.513 40.8846 291.946 39.7241C293.023 40.2955 293.73 41.1115 294.628 41.9606C294.803 42.1225 295.006 42.2337 295.239 42.2426C295.29 42.2446 295.33 42.2073 295.369 42.2088C295.365 42.3121 295.323 42.414 295.319 42.5173C295.38 43.632 295.727 44.693 295.983 45.7763C296.393 47.5769 296.934 49.3308 297.528 51.0609C297.855 51.9659 297.985 52.9797 298.286 53.8966C296.297 54.4933 294.308 55.1159 292.33 55.7647C292.251 54.4295 292.069 53.1161 291.847 51.8013C291.362 48.9113 290.904 46.0223 290.432 43.1199ZM348.761 22.6065C347.567 22.7161 346.24 22.5879 345.168 23.2066C343.535 23.9721 343.675 28.4529 343.481 30.1399C343.328 33.122 343.526 36.0915 343.645 39.0581C343.69 39.5902 343.658 40.4168 343.792 40.9781C343.957 41.3983 344.453 41.6112 344.875 41.4074C344.939 41.4099 345.017 41.4129 345.084 41.3507C345.111 41.3259 345.137 41.314 345.151 41.2886C348.139 41.2862 351.17 41.5054 354.156 41.5546C355.36 41.5359 356.617 41.8038 357.803 41.5774C359.231 40.7523 358.757 37.9403 358.877 36.4833C358.895 34.311 358.875 32.1243 358.88 29.9514C358.859 28.1398 358.62 26.2681 358.612 24.444C358.403 23.1425 356.76 23.1574 355.745 22.9764C353.44 22.7074 351.093 22.5273 348.762 22.5806L348.761 22.6065ZM356.71 25.1345C356.738 28.1235 356.663 31.1215 356.911 34.1188C356.951 36.1123 357.327 38.1186 357.044 40.1127C353.179 39.7065 349.135 39.6039 345.325 40.4674C345.715 35.3214 345.217 30.0639 346.174 24.9783C348.441 24.8966 350.475 24.8061 352.826 24.8829C354.118 24.9322 355.437 24.9308 356.722 25.1609L356.71 25.1345ZM235.797 57.3457C239.414 60.5233 244.414 60.9987 249.089 60.8537C249.07 61.3574 249.102 61.876 249.106 62.109C249.196 65.5013 249.456 68.8742 249.857 72.2397C250.399 77.7187 251.655 83.0958 253.318 88.3331C253.609 89.1849 254.929 88.8085 254.73 87.9342C253.511 83.2571 252.085 78.598 251.493 73.7895C250.996 70.1877 250.556 66.4845 250.32 62.8409C250.255 62.1658 250.216 61.4788 250.19 60.8052C250.332 60.8106 250.475 60.7902 250.605 60.7822C252.267 60.6257 253.946 60.3406 255.618 59.9129C255.759 60.6167 255.914 61.3211 256.041 62.0374C256.726 65.7887 257.776 69.4634 258.944 73.0908C260.48 77.9094 262.292 82.635 264.498 87.1817C265.016 88.1845 266.508 87.4006 266.015 86.4117C262.796 79.6017 260.274 72.469 258.078 65.2711C257.604 63.4551 257.083 61.5338 256.481 59.6742C263.216 57.7452 269.495 53.5353 271.961 46.8645C272.688 44.4088 272.374 41.8099 271.664 39.3899C271.1 37.2342 270.045 35.0468 270.339 32.7685C270.715 29.006 273.883 26.333 274.821 22.7471C276.212 18.1695 272.719 13.4444 268.057 12.9173C254.956 11.1757 237.449 24.8781 232.516 36.5509C229.349 43.2596 230.068 52.2248 235.81 57.3332L235.797 57.3457ZM239.921 28.5682C246.405 21.3523 256.426 14.6595 266.402 14.5874C269.763 14.6381 273.087 16.6663 273.245 20.3199C273.26 23.3342 271.14 25.6721 269.802 28.1951C266.298 34.6063 270.358 37.6974 270.617 43.7736C270.692 47.243 268.713 50.2847 266.358 52.6783C263.972 55.2259 260.646 56.6124 257.361 57.6253C253.094 58.937 248.372 59.3001 243.867 58.7143C240.003 58.2952 236.425 56.1408 234.498 52.7302C229.853 44.3006 233.966 35.1575 239.895 28.5802L239.921 28.5682ZM249.353 37.6719C249.535 36.2819 250.084 34.7766 249.684 33.3903C248.546 32.0404 248.086 35.955 247.777 36.6029C247.686 36.9487 247.454 37.6124 247.749 37.9988C248.165 38.6355 249.195 38.4161 249.34 37.6714L249.353 37.6719ZM257.116 31.5138C257.485 29.9628 257.881 28.3998 257.955 26.8117C258.055 26.5697 258.052 26.2851 257.919 26.0472C257.644 25.4546 256.743 25.3556 256.36 25.8842C255.858 26.5118 255.786 27.3757 255.525 28.1159C255.242 29.0882 254.934 30.0465 254.716 31.0212C254.435 32.6015 256.746 33.0647 257.116 31.5008L257.116 31.5138ZM260.288 42.2671C260.449 42.118 260.534 41.9273 260.555 41.7082C260.685 40.6913 260.736 39.6714 260.723 38.662C260.705 37.7818 260.713 36.9025 260.578 36.0307C260.581 35.9403 260.52 35.8604 260.444 35.8057C260.343 35.7372 260.214 35.7452 260.12 35.8192C259.948 35.9291 259.888 36.1467 259.829 36.3384C259.478 38.0842 259.165 39.8313 258.917 41.5939C258.838 42.3023 259.766 42.7387 260.276 42.2537L260.288 42.2671ZM260.12 35.8192C260.12 35.8192 260.107 35.8317 260.094 35.8441C260.094 35.8441 260.119 35.8451 260.133 35.8327C260.133 35.8327 260.133 35.8197 260.147 35.8073C260.147 35.8073 260.134 35.8068 260.12 35.8192ZM254.584 50.3923C254.476 49.1723 254.565 47.8435 254.17 46.6772C253.302 46.0232 253.385 47.9407 253.276 48.4022C253.2 49.0589 253.109 49.7281 253.045 50.3982C253.004 51.4832 254.621 51.4802 254.584 50.3923ZM239.505 46.5962C240.006 46.6929 240.562 46.3649 240.647 45.8378C240.865 44.5268 240.967 43.2113 241.017 41.881C241.019 41.493 241.127 41.0444 240.881 40.7117C240.001 40.0443 239.707 42.3354 239.454 42.8561C239.284 43.9103 237.944 46.1486 239.519 46.5838L239.505 46.5962Z" fill="#F2B199"/>
<path d="M99.3866 45.722C98.3233 44.428 97.3008 43.0846 96.0958 41.9188C93.882 39.8998 93.1171 40.2698 91.0525 42.1431C90.2426 42.8926 89.472 43.7026 88.7512 44.5333C88.5484 44.7407 88.3953 44.9787 88.2621 45.227C87.5582 44.7478 86.7237 44.3269 86.3085 43.9514C84.2668 42.5347 81.757 41.7319 79.2784 41.6096C78.5782 41.6205 78.0109 42.1832 77.8621 42.8513C77.6536 43.5086 77.3752 44.145 77.1368 44.792C76.7304 46.0468 76.204 47.3 75.8374 48.5754C74.2089 46.914 72.317 45.5092 70.3528 44.2835C69.3211 43.64 67.6096 42.9777 66.793 44.2472C65.817 46.2346 64.7905 48.2614 64.3819 50.4563C64.3131 51.8955 64.4942 53.348 64.6255 54.7898C65.0268 59.2954 65.438 63.8112 66.2902 68.2526C66.8587 71.4403 67.2266 74.6754 68.1662 77.7779C68.2049 77.8784 68.2937 77.9696 68.3931 78.0209C68.3718 78.1206 68.3904 78.2209 68.4491 78.3216C68.5473 78.4629 68.7165 78.5251 68.8769 78.4972C69.3476 78.4433 69.7996 78.2992 70.2608 78.2052C76.6214 76.668 82.9727 75.0706 89.5016 74.4356C97.0138 73.5434 104.682 73.7234 112.202 74.5714C117.383 75.289 122.436 76.645 127.468 78.0106C129.462 78.5267 131.442 79.2625 133.352 80.0575C134.613 80.774 135.584 79.9166 135.98 78.7116C136.817 76.6323 137.096 74.3858 137.525 72.2012C138.277 68.2306 139.346 64.4643 140.586 60.5801C140.918 58.1842 137.844 55.4039 136.244 53.8629C135.583 53.1543 134.644 53.032 133.828 53.5414C132.87 54.089 131.843 54.6457 131.122 55.4963C131.061 55.5956 131.019 55.705 130.968 55.8144C130.919 55.7137 130.88 55.6132 130.851 55.5428C130.092 53.9828 129.191 52.4909 128.381 50.9602C127.171 47.8842 124.581 49.4006 122.388 50.3921C122.005 50.6071 121.701 50.9032 121.457 51.24C120.031 49.3613 115.946 45.8878 115.073 45.3164C113.59 44.767 112.037 46.5669 110.857 47.2916C110.514 47.4971 110.221 47.7233 109.968 47.9601C109.775 47.4575 109.281 46.961 108.966 46.5969C108.167 45.7564 107.256 45.0145 106.275 44.3816C105.758 44.0849 105.172 43.7872 104.562 43.8293C103.601 43.8668 103.11 44.7304 102.531 45.3729C101.942 46.0753 101.412 46.8185 100.903 47.5719C100.873 47.5315 100.834 47.481 100.804 47.4406C100.352 46.8547 99.8791 46.2985 99.4065 45.7223L99.3866 45.722ZM78.151 74.4077C76.3046 74.8837 74.4577 75.3997 72.6498 75.9962C71.4437 76.4605 70.0992 76.793 68.9999 77.4987C69.0658 77.0496 68.9835 76.4584 68.9776 76.1383C68.7637 73.3653 68.5399 70.5922 68.1857 67.8373C67.6178 63.8396 67.2605 59.7946 66.9029 55.7696C66.375 50.2322 65.7915 51.2647 68.4389 46.1088C70.3848 47.2042 72.1971 48.5779 73.878 50.05C74.313 50.4357 74.8553 51.0328 75.4321 51.2803C75.4305 51.4003 75.429 51.5203 75.4273 51.6503C75.7665 54.785 76.2558 57.9116 76.5248 61.0554C76.9294 65.311 77.7055 69.4515 78.1 73.717C78.138 73.8675 78.1445 74.1376 78.1608 74.4178L78.151 74.4077ZM78.8033 74.2362C78.9338 71.1276 78.5645 68.0026 78.2848 64.9087C77.8555 60.2427 77.6267 55.5493 77.1574 50.8828C77.5194 48.4273 78.6593 46.1419 79.4896 43.8226C81.2039 44.2749 82.8553 44.9465 84.435 45.7472C85.2596 46.1679 86.0737 46.6186 86.8674 47.109C87.1252 47.2824 87.4327 47.4764 87.751 47.6105C86.9074 54.7902 87.0827 62.0531 87.7391 69.2422C87.8336 69.6635 87.9006 71.4345 88.2378 72.419C85.0619 72.8476 81.9137 73.4567 78.8034 74.2262L78.8033 74.2362ZM134.868 55.0751C136.358 56.5747 137.887 58.2047 138.752 60.1562C137.58 63.3812 136.646 66.6893 136.092 70.0923C135.455 72.9643 135.315 75.9927 134.18 78.7182C131.965 77.5492 129.698 76.4796 127.277 75.828C127.731 75.4639 127.67 74.823 127.787 74.2945C127.965 72.8867 128.192 71.5695 128.521 70.0937C129.201 67.0323 130.029 64.1528 130.829 61.053C131.289 59.5489 131.65 57.9634 132.468 56.604C133.186 55.9833 134.022 55.5241 134.868 55.0651L134.868 55.0751ZM129.522 56.2756C129.788 56.5291 130.054 56.8425 130.371 57.0667C129.174 59.9613 128.752 63.1661 127.753 66.1233C127.134 68.3355 126.505 70.5475 126.046 72.7917C125.935 73.6403 125.643 74.5466 125.792 75.3986C123.461 74.6881 121.099 74.0773 118.716 73.5562C119.686 70.4586 119.929 67.1715 120.57 63.9896C121.002 61.555 121.494 59.1412 122.045 56.7282C122.383 55.3325 122.581 53.9449 123.229 52.6332C123.525 52.1671 124.225 52.1562 124.688 51.9122C125.16 51.7483 125.633 51.5645 126.134 51.471C127.213 53.1052 128.21 54.8183 129.542 56.2658L129.522 56.2756ZM114.487 47.3489C115.752 48.4855 117.109 49.5132 118.486 50.5213C118.823 50.7157 120.01 51.7112 120.914 52.183C120.605 52.9091 120.424 53.7268 120.225 54.4443C118.824 60.6265 118.082 66.9474 116.751 73.1406C114.417 72.6801 112.061 72.3294 109.704 72.0787C109.974 69.742 109.955 67.3615 110.036 65.0124C110.275 60.4651 110.285 55.8949 110.694 51.3598C110.76 50.9106 110.836 50.4616 111.051 50.0543C111.345 49.7782 111.707 49.5729 112.021 49.3069C112.869 48.6779 113.668 47.9883 114.497 47.349L114.487 47.3489ZM104.623 46.0103C105.845 46.6362 106.924 47.5204 107.912 48.4633C108.197 48.8271 108.542 49.2016 108.941 49.2868C108.407 50.3599 108.271 51.6083 108.203 52.9975C108.101 59.2767 107.878 65.5843 107.567 71.8608C105.589 71.705 103.599 71.6191 101.599 71.623C100.599 71.61 99.6092 71.6171 98.609 71.6241C98.6757 71.1049 98.7029 70.5552 98.7863 70.2963C99.1173 67.9204 99.4771 65.6349 99.7286 63.2179C100.074 59.0021 100.868 54.8021 101.314 50.5675C101.624 49.7915 102.252 49.1596 102.721 48.4857C103.382 47.6342 103.902 46.8609 104.613 46.0101L104.623 46.0103ZM98.393 48.2893C98.7586 48.6341 99.1612 49.1993 99.6165 49.5653C99.2345 50.4804 99.3109 51.5315 99.1281 52.5092C98.8632 54.4159 98.5171 56.4216 98.2919 58.3488C97.8592 61.6234 97.6863 64.9215 97.3934 68.2079C97.3951 68.848 97.2034 70.5056 97.2983 71.667C94.507 71.7506 91.7237 71.9844 88.959 72.3284C88.8619 69.0368 89.0859 65.6595 89.089 62.3492C89.1046 58.8491 89.0704 55.3384 89.4261 51.8327C89.9046 45.8084 88.9153 47.2857 93.6183 43.2466C95.4297 44.6903 96.7847 46.6182 98.383 48.2891L98.393 48.2893ZM73.3759 69.3951C73.3851 67.9251 73.2142 66.4527 73.1434 64.9817C72.9745 64.1294 73.3076 62.3536 71.9758 62.4862C71.5248 62.5604 71.2288 63.0166 71.3131 63.4577C71.4308 64.3993 71.6188 65.3218 71.8367 66.2547C72.0452 67.1375 72.2536 68.0303 72.4822 68.9034C72.578 69.2247 72.6327 69.6354 72.8593 69.8984C73.206 70.1529 73.4121 69.6856 73.3859 69.3952L73.3759 69.3951ZM102.438 63.2632C101.991 65.3176 101.994 67.4378 101.727 69.5245C101.569 70.1025 101.77 70.7952 102.428 70.9238C102.917 71.0201 103.471 70.6973 103.558 70.1784C103.847 67.962 104.505 65.8104 104.714 63.5829C104.833 62.1843 102.706 61.8966 102.438 63.2732L102.438 63.2632ZM51.5894 70.5213C51.4777 69.8798 50.5801 69.6881 50.2329 70.2436C49.9268 70.7096 50.2796 71.2643 50.4233 71.7462C50.6189 72.0888 51.4632 74.83 51.9548 73.9463C52.0495 72.8175 51.7446 71.6534 51.5892 70.5313L51.5894 70.5213ZM55.8539 72.507C55.9147 71.6777 55.8156 70.8364 55.8466 69.9967C55.8385 69.0765 56.0904 67.3997 54.6782 67.5613C54.1669 67.6546 53.8001 68.1799 53.9034 68.6913C54.1576 69.9047 54.5723 71.0802 54.8667 72.2841C54.6781 72.9417 55.7247 73.2054 55.8539 72.507Z" fill="#D9695F"/>
<path d="M41.2486 10.2874C34.4724 8.23554 27.5159 11.1515 25.1259 18.0114C24.2417 20.5867 23.8851 23.5084 24.7508 26.1351C25.3812 28.0597 26.6838 29.6888 28.1306 31.076C29.5335 32.3553 31.3689 33.0089 33.1524 33.5484C33.4082 33.8406 33.8461 33.857 34.1961 33.9573C34.432 34.0095 34.658 34.0417 34.9 34.0859C33.8209 35.339 32.8613 39.4462 32.6666 40.238C32.6059 41.0179 32.0905 42.7195 32.2495 43.8396C24.733 44.3711 17.3555 46.1327 10.2707 49.3526C9.24431 49.8197 3.5382 52.2367 4.02917 53.4311C4.1551 53.5133 4.32713 53.4674 4.45717 53.4275C5.23936 53.2022 6.00361 52.9009 6.75189 52.5875C9.86701 51.2882 12.9281 50.0609 16.149 49.0037C29.7732 44.2055 45.0089 44.5207 58.5547 49.4325C59.0805 49.5649 59.6388 49.2714 59.8252 48.7736C60.2664 47.4539 58.5747 47.0585 57.6571 46.6817C54.7 45.5731 51.5684 45.0964 48.4709 44.5577C45.6073 44.1072 42.7495 43.8487 39.8976 43.7323C40.9794 41.6432 41.3363 35.9575 40.7017 34.4049C43.97 34.0338 47.1612 32.6666 49.2254 30.1023C55.5425 21.9278 50.4144 12.8214 41.2366 10.3034L41.2486 10.2874ZM39.3271 35.0858C38.6734 36.9712 38.4337 38.955 38.016 40.8926C37.8533 41.7085 37.6846 42.5323 37.6599 43.3643C37.6538 43.4723 37.7158 43.5564 37.7357 43.6464C36.6557 43.6355 35.5717 43.6465 34.4916 43.6856C34.5377 43.5576 34.5779 43.4377 34.6119 43.3257C35.2213 41.7322 35.6827 40.1026 35.9002 38.4148C36.0171 37.3269 36.4088 35.4072 35.9798 34.2469C36.2638 34.2851 36.5477 34.3233 36.8317 34.3616C37.7136 34.4864 38.6156 34.5011 39.5256 34.4719C39.4554 34.6819 39.4072 34.8958 39.3211 35.0937L39.3271 35.0858ZM47.3008 28.4687C46.1893 30.2977 42.0671 32.7541 39.9332 32.6643C37.2272 32.6199 34.5878 31.9877 32.1829 30.7436C30.6494 30.1042 29.3585 28.8591 28.4397 27.4683C26.0287 24.0182 26.8709 19.135 29.2138 15.867C31.2964 12.8288 35.2512 11.8602 38.7408 12.3933C46.7257 13.7022 52.3153 20.979 47.3069 28.4607L47.3008 28.4687ZM33.9734 62.4211C33.818 61.729 32.9805 61.1623 32.5677 62.0779C32.4694 62.3418 32.3932 62.6098 32.311 62.8857C31.9177 64.3914 30.2284 68.1879 32.6059 68.6859C34.9897 68.926 34.5382 63.8336 33.9814 62.4271L33.9734 62.4211ZM38.7378 64.2373C38.2009 65.2348 37.72 66.2744 37.3911 67.3781C37.1203 68.2879 38.2216 69.1028 39.022 68.6035C39.2661 68.4617 39.4864 68.2019 39.5386 67.916C39.6732 67.2041 39.7138 66.4841 39.7385 65.7521C39.743 65.1801 39.8015 64.5862 39.694 64.0301C39.4805 63.4819 38.9001 63.8714 38.7318 64.2453L38.7378 64.2373ZM36.8114 20.8876C36.4399 20.3833 35.9873 20.9689 35.909 21.3728C35.6759 22.5986 33.6571 25.8848 35.6687 26.3206C37.4186 26.4721 36.8855 23.0696 36.9765 21.9497C36.9688 21.5937 36.9711 21.2077 36.8114 20.8876ZM42.7793 21.0688C42.3783 22.1684 41.9054 23.264 41.6024 24.3997C41.4157 25.1476 41.947 25.922 42.709 26.0067C44.6489 26.0884 44.179 23.634 44.2041 22.352C44.1387 21.6399 44.2395 20.84 43.884 20.1977C43.2925 19.6032 42.9117 20.5929 42.7713 21.0627L42.7793 21.0688Z" fill="#5CAA93"/>
<path d="M493.517 22.4255C490.672 24.3786 487.787 26.2912 484.96 28.2845C482.779 29.9162 480.607 31.5681 478.406 33.1795C477.901 33.573 477.386 33.9563 476.89 34.3699C476.618 34.5364 476.522 34.9951 476.881 35.1198C477.08 35.1724 477.291 35.0852 477.472 35.0075C478.186 34.7068 478.89 34.3959 479.585 34.055C480.299 33.7242 481.004 33.3634 481.689 32.9923C481.226 37.0166 481.303 41.098 481.17 45.1466C481.161 45.8565 481.152 46.5664 481.133 47.2763C480.708 46.8607 480.283 46.4551 479.869 46.0397C478.317 44.5893 476.827 43.0698 475.256 41.6292C473.781 40.4399 471.199 36.7159 469.241 38.8406C466.056 42.3094 463.533 46.3269 460.536 49.9481C458.798 52.0956 457.228 54.3654 455.639 56.6249C455.251 57.1699 454.835 57.6945 454.447 58.2395C454.184 58.5361 454.067 59.0546 454.494 59.2502C455.232 59.4598 456.679 58.1485 458.037 56.7261C457.855 62.2842 458.964 67.7691 459.502 73.2866C459.521 73.3569 459.55 73.4073 459.58 73.4576C459.268 73.5436 459.035 73.7806 459.281 74.1038C459.628 74.3683 460.108 74.3246 460.517 74.4099C462.135 74.591 463.753 74.7421 465.372 74.8232C467.491 74.9109 469.612 74.8585 471.72 75.046C473.698 75.2418 475.666 75.3374 477.648 75.2432C481.099 75.1882 484.506 74.6525 487.93 74.4071C493.663 74.1618 499.389 73.7864 505.13 73.7412C508.402 73.6038 511.669 73.8164 514.941 73.709C516.112 73.6243 517.381 73.7008 518.468 73.195C519.253 72.7952 519.356 71.8064 518.955 71.1411C519.245 70.3548 519.1 69.1829 519.3 68.4454C519.3 68.4154 519.301 68.3954 519.311 68.3655C521.826 67.2282 524.428 66.342 527.078 65.5765C530.905 64.3363 534.947 64.1989 538.938 64.1309C542.75 64.0006 546.594 64.4607 550.198 65.7178C551.573 66.1257 552.989 66.4342 554.271 67.091C554.817 67.3881 555.343 67.715 555.868 68.0519C556.801 68.6441 558.135 69.8615 559.1 68.674C560.201 67.0782 557.904 66.0682 556.834 65.3142C555.148 64.2221 553.235 63.6672 551.312 63.1321C553.331 58.638 556.969 54.9851 560.7 51.8234C568.034 45.4385 577.89 42.7367 587.497 43.0419C591.995 43.1805 596.685 43.2516 600.942 45.0072C602.266 45.5145 603.788 46.1144 604.997 46.9802C605.96 47.5528 607.089 49.1177 608.263 48.0829C609.898 46.144 605.301 43.6039 603.821 42.8546C601.189 41.4401 598.278 40.6921 595.309 40.5835C591.443 40.283 587.562 40.3425 583.699 40.5822C572.251 41.093 562.319 45.814 554.953 54.6388C553.673 56.1722 552.481 57.8069 551.648 59.6261C551.525 59.8646 550.843 61.4758 550.435 62.8606C550.067 62.7558 549.708 62.6511 549.34 62.5363C548.622 62.317 547.884 62.1573 547.156 62.0078C547.198 61.8984 547.229 61.7888 547.231 61.6588C547.201 59.3582 547.041 57.0359 546.861 54.7234C546.796 54.3825 546.822 53.9028 546.585 53.6197C548.083 53.0191 549.338 51.9454 550.541 50.891C553.343 48.4573 555.377 45.1135 555.975 41.431C556.383 37.766 555.513 33.8943 553.665 30.71C551.673 27.7438 548.186 25.9982 544.701 25.5427C542.204 25.3302 539.655 26.007 537.43 27.1281C532.849 29.4986 529.455 34.3648 529.257 39.5627C529.074 45.1808 531.146 50.3882 536.556 52.7289C537.638 53.3331 538.845 53.6188 540.052 53.8446C540.008 54.114 539.985 54.3837 539.932 54.5731C539.724 56.0205 539.455 57.4671 539.276 58.9249C539.208 59.534 539.076 60.4324 539.247 61.1347C538.887 61.13 538.537 61.0954 538.177 61.0907C531.81 60.8878 527.168 61.7573 521.663 65.1259C521.22 65.4201 520.312 65.9884 519.574 66.6288C519.859 64.6524 520.105 62.6754 520.191 60.6763C520.195 60.3864 520.232 59.8368 520.26 59.2271C520.875 60.3952 521.377 62.572 523.074 61.994C524.251 61.4993 523.958 60.2054 523.52 59.2796C523.104 58.2141 522.647 57.1681 522.161 56.1416C521.059 53.9471 520.199 51.6457 519.148 49.4318C517.864 46.6348 515.997 43.3602 513.082 46.7925C511.462 48.2815 509.872 49.801 508.381 51.4217C508.188 51.6592 507.579 52.3213 507.01 53.0339C507.021 52.9641 507.032 52.8942 507.042 52.8243C508.121 46.8179 509.189 40.8013 510.158 34.7734C510.413 35.1368 510.679 35.5003 510.934 35.8736C511.471 36.8707 512.27 37.7312 513.43 36.9762C514.987 35.6564 512.76 33.8472 512.066 32.6081C510.476 30.3272 508.825 28.0855 507.043 25.9421C505.9 24.6071 504.575 23.4397 503.301 22.233C502.084 21.197 500.855 19.5909 499.125 19.5784C497.108 20.1321 495.243 21.2479 493.517 22.4255ZM538.48 50.9538C535.013 49.1385 533.258 47.2155 532.509 43.2954C531.416 38.1507 533.44 33.2666 537.828 30.3736C542.065 27.5685 547.217 28.2057 550.618 31.9904C552.378 34.2635 553.1 37.2332 553.343 40.0566C553.492 44.7289 550.19 48.7262 546.663 51.4705C545.997 52.0019 545.166 52.031 544.355 52.0905C542.403 52.2451 540.258 51.8571 538.49 50.944L538.48 50.9538ZM541.466 61.2536C541.734 60.6071 541.745 59.7471 541.773 59.1374C541.725 58.2667 541.898 55.6788 541.569 54.0943C543.027 54.2634 544.496 54.3125 545.902 53.8608C545.583 54.5867 545.494 56.0657 545.398 56.4744C545.206 58.1921 544.943 59.9088 544.991 61.6396C543.823 61.4743 542.645 61.339 541.466 61.2536ZM469.185 72.3027C469.115 72.3018 469.045 72.3209 468.965 72.3198C469.056 71.5309 469.066 70.721 469.136 69.9419C469.24 66.6029 469.323 63.2537 469.127 59.9109C469.391 59.6043 469.753 59.419 470.125 59.2938C471.129 58.9969 472.114 58.6497 473.137 58.413C473.918 62.9136 473.628 67.5602 473.998 72.1354C472.388 72.1544 470.788 72.1336 469.186 72.2927L469.185 72.3027ZM476.259 72.0649C476.183 68.7136 475.986 65.3707 475.65 62.0361C475.369 60.5423 475.427 57.6328 474.018 56.8044C472.962 56.4606 471.686 56.904 470.614 57.04C469.622 57.2271 468.598 57.4838 467.8 58.1534C466.092 59.4713 466.866 62.2716 466.881 64.152C467.02 65.8239 467.248 67.4771 467.416 69.1494C467.532 70.251 467.618 71.3522 467.733 72.4538C465.61 72.6762 463.496 72.9686 461.373 73.231C461.437 72.9118 461.431 72.5817 461.465 72.2521C461.51 68.8124 461.155 65.3475 460.579 61.9597C460.263 60.1354 459.927 58.3109 459.32 56.5628C459.213 56.2914 459.137 55.9704 458.961 55.7281C459.742 54.8582 460.422 54.067 460.787 53.6917C464.489 49.7096 467.776 45.3721 470.726 40.8101C473.633 43.3382 476.247 46.1625 479.285 48.6223C479.821 48.9393 480.441 49.6975 481.086 50.0659C480.932 56.5444 480.677 63.0217 480.933 69.4955C481.004 70.1965 480.994 70.9465 481.226 71.6095C479.573 71.808 477.92 71.9765 476.259 72.0749L476.259 72.0649ZM515.263 48.2611C516.579 50.8284 517.663 53.5828 518.878 56.2989C518.731 56.817 518.694 57.3766 518.587 57.9052C518.274 59.6513 517.902 61.3766 517.659 63.1336C517.352 65.2297 517.004 67.3254 516.807 69.443C516.773 69.7226 516.739 70.0422 516.735 70.3621C515.516 70.2762 514.286 70.2602 513.077 70.1744C510.218 70.0772 507.358 70.0599 504.497 70.0926C505.462 65.0948 506.029 60.0217 506.754 54.9808C507.671 54.4527 508.53 53.8038 509.398 53.1951C511.489 51.6222 513.299 50.0456 515.273 48.2612L515.263 48.2611ZM502.285 24.95C504.331 26.8568 506.032 29.0592 507.703 31.3011C507.601 31.4398 507.499 31.5985 507.437 31.7977C506.596 34.927 506.223 38.1624 505.672 41.3455C505.119 44.6286 504.377 47.8792 503.934 51.1737C503.122 57.4537 502.949 63.7919 502.977 70.1228C500.756 70.1539 498.535 70.205 496.314 70.276C492.832 70.4407 489.349 70.6153 485.884 70.9802C484.632 71.1539 483.389 71.3277 482.137 71.4914C482.282 71.0933 482.359 70.5742 482.402 70.3248C483.277 63.0455 483.843 55.7223 484.168 48.3959C484.379 42.9382 484.411 37.4681 484.762 32.0123C484.765 31.7523 484.698 31.5314 484.601 31.3401C486.254 30.3416 487.877 29.3026 489.54 28.3242C491.032 27.3936 492.515 26.4328 493.958 25.4215C495.694 24.254 497.263 22.8044 499.165 21.8991C500.344 22.7645 501.269 23.9167 502.295 24.9401L502.285 24.95ZM491.594 43.4322C491.648 41.5628 491.593 39.6019 491.017 37.8242C490.89 37.5626 490.743 37.3106 490.485 37.1473C489.451 36.6938 489.442 38.1938 489.313 38.8521C489.094 40.2994 488.726 41.7247 488.666 43.1941C488.663 45.0042 491.32 45.2188 491.594 43.4322ZM495.886 38.6678C495.861 40.6076 495.355 42.5412 495.49 44.4731C495.71 46.0261 497.992 45.9058 498.032 44.3362C498.119 43.0372 497.746 41.7623 497.583 40.48C497.405 39.5376 497.287 38.586 496.919 37.6911C496.822 37.4599 496.716 37.1485 496.447 37.0649C495.778 36.9462 495.992 38.2391 495.896 38.6579L495.886 38.6678ZM500.883 38.9029C500.619 39.9696 500.276 41.0152 500.062 42.0925C499.847 43.2098 501.348 43.9594 502.118 43.1494C502.868 42.3791 502.265 41.0611 502.258 40.1009C502.115 39.559 502.31 37.6114 501.365 37.9791C501.053 38.1651 500.978 38.5841 500.883 38.9029ZM489.273 63.4437C489.282 61.9837 488.741 57.3863 487.683 56.5124C486.966 56.233 486.831 57.4314 486.754 57.9104C486.589 59.1084 486.473 60.307 486.367 61.5157C486.314 62.5251 486.007 63.8412 486.888 64.5827C487.798 65.3546 489.297 64.6341 489.283 63.4438L489.273 63.4437ZM493.46 57.5078C493.172 59.6842 492.704 61.8483 492.615 64.0373C492.643 65.7278 495.123 65.7601 495.185 64.0708C495.208 61.5209 495.082 58.919 494.595 56.4124C494.539 56.1017 494.182 55.857 493.929 56.1137C493.604 56.4895 493.567 57.0291 493.47 57.5079L493.46 57.5078ZM499.204 58.0526C499.05 59.9008 498.646 61.7157 498.522 63.5642C498.495 64.1139 498.989 64.5804 499.519 64.5873C500.059 64.5943 500.544 64.1406 500.542 63.5906C500.47 61.4194 500.308 59.2371 500.016 57.0832C499.98 56.8127 499.829 56.1306 499.445 56.4357C499.228 56.9329 499.291 57.5237 499.204 58.0526ZM512.202 64.4326C512.202 62.8824 511.852 61.3477 511.491 59.8429C511.377 59.4014 511.294 58.8503 510.898 58.5751C510.242 58.2265 509.851 59.0715 509.824 59.6112C509.603 61.2584 509.241 62.9239 509.339 64.5953C509.409 65.3762 510.182 65.9364 510.943 65.8463C511.644 65.7554 512.202 65.1426 512.202 64.4326ZM514.681 59.1644C514.467 60.9418 514.234 62.7289 514.041 64.5165C513.978 65.5158 515.33 66.0835 516.02 65.3624C516.679 64.7009 516.222 63.6649 516.193 62.8444C516.055 61.8726 515.938 60.8909 515.791 59.9189C515.696 59.4877 515.683 58.9875 515.418 58.624C514.992 58.2784 514.696 58.7746 514.68 59.1744L514.681 59.1644Z" fill="#F2B199"/>
<path d="M586.471 64.6466C580.691 57.3398 569.907 63.679 568.938 71.586C565.866 72.3931 563.704 75.0204 562.939 78.0199C562.022 81.4459 562.001 85.7172 564.475 88.5088C564.51 88.5326 564.548 88.5662 564.585 88.5998C564.579 88.6213 564.561 88.6349 564.555 88.6565C564.502 88.9111 564.723 89.0518 564.95 89.069C565.197 89.0824 565.454 89.0939 565.699 89.0975C567.405 89.1756 569.113 89.2125 570.815 89.2199C575.065 89.1836 579.105 89.1674 583.39 89.3078C589.47 89.2542 595.527 88.5023 601.614 88.3762C606.272 88.2406 610.934 88.3286 615.59 88.1831C617.128 88.1306 618.672 88.1586 620.211 88.1159C620.343 88.1109 620.457 88.0685 620.569 88.0163C620.85 87.9927 621.128 87.9593 621.407 87.9258C622.335 87.8791 623.211 87.3534 623.56 86.4712C624.692 83.4723 624.33 79.5906 623.045 76.6814C623.594 75.0376 623.468 73.2286 623.254 71.5385C622.886 67.3117 618.675 62.0648 614.128 64.5213C613.997 60.4117 611.441 56.6173 608.002 54.4704C605.038 52.5169 601.361 52.4629 597.972 53.0561C592.063 53.9933 587.934 59.0885 586.473 64.6564L586.471 64.6466ZM620.145 76.9562C619.502 78.058 618.621 79.0328 617.485 79.639C616.952 79.8846 616.142 80.4381 615.67 79.8368C615.175 78.9647 614.977 77.3022 615.733 76.5247C617.075 75.7767 619.015 75.8504 620.145 76.9562ZM604.722 56.5803C607.034 57.6313 608.776 59.5864 610.026 61.7384C610.757 63.0945 610.905 64.6547 611.144 66.1566C611.312 66.8167 611.421 67.5901 611.987 68.041C613.279 68.9322 614.198 67.3086 615.2 66.7485C616.482 66.002 617.947 66.8394 618.831 67.8298C620.371 69.5287 620.802 71.9203 620.795 74.1521C618.39 72.824 614.468 73.296 613.31 76.0555C612.722 77.8088 612.852 80.0651 614.099 81.5149C616.408 83.768 619.919 81.1654 621.54 79.2229C622.185 80.9825 622.378 82.9312 622.165 84.7851C622.044 86.0002 621.595 85.9953 620.521 86.1313C620.112 86.2305 619.528 86.16 619.008 86.2094C618.493 86.1766 617.975 86.1339 617.463 86.1207C615.932 86.1007 614.404 86.1003 612.866 86.1018C607.371 86.1749 601.864 85.8224 596.373 86.129C591.769 86.2336 587.186 86.762 582.579 86.8469C577.958 86.8632 573.329 86.9931 568.735 87.5743C567.607 87.7413 566.414 87.7883 565.335 88.1596C565.283 87.9965 565.221 87.8352 565.169 87.7231C563.274 83.6586 564.215 76.1339 569.016 74.5754C569.212 75.8005 569.464 77.1064 570.218 78.1116C571.717 80.124 574.752 80.0168 575.632 77.5044C576.508 74.8195 574.075 72.1321 571.577 71.4839C572.336 67.396 577.707 63.2525 581.806 65.0685C582.832 65.5833 583.826 66.1959 584.627 67.0191C585.172 67.6268 585.774 68.529 586.707 68.3489C587.694 68.1888 587.982 67.0944 588.295 66.2905C588.902 64.4725 589.547 62.647 590.578 61.0222C592.089 58.6121 594.47 56.7571 597.271 56.1246C599.714 55.6938 602.397 55.5626 604.719 56.5607L604.722 56.5803ZM571.614 74.7359C572.284 75.1463 572.762 75.8281 572.968 76.5826C572.964 76.7159 572.912 76.8685 572.844 76.9936C571.895 76.7186 571.795 75.5667 571.616 74.7457L571.614 74.7359Z" fill="#F2B199"/>
</svg>
