<svg width="250" height="217" viewBox="0 0 250 217" fill="none" xmlns="http://www.w3.org/2000/svg">
<path d="M35.9113 121.808H41.8313V122.816H35.9113V121.808ZM36.0393 126.976H42.7753V128H34.8553V116.8H42.5353V117.824H36.0393V126.976ZM50.4574 128V126.144L50.4094 125.84V122.736C50.4094 122.021 50.2067 121.472 49.8014 121.088C49.4067 120.704 48.8147 120.512 48.0254 120.512C47.4814 120.512 46.964 120.603 46.4734 120.784C45.9827 120.965 45.5667 121.205 45.2254 121.504L44.7134 120.656C45.14 120.293 45.652 120.016 46.2494 119.824C46.8467 119.621 47.476 119.52 48.1374 119.52C49.2254 119.52 50.0627 119.792 50.6494 120.336C51.2467 120.869 51.5454 121.685 51.5454 122.784V128H50.4574ZM47.5614 128.08C46.932 128.08 46.3827 127.979 45.9134 127.776C45.4547 127.563 45.1027 127.275 44.8574 126.912C44.612 126.539 44.4894 126.112 44.4894 125.632C44.4894 125.195 44.5907 124.8 44.7934 124.448C45.0067 124.085 45.348 123.797 45.8174 123.584C46.2974 123.36 46.9374 123.248 47.7374 123.248H50.6334V124.096H47.7694C46.9587 124.096 46.3934 124.24 46.0734 124.528C45.764 124.816 45.6094 125.173 45.6094 125.6C45.6094 126.08 45.796 126.464 46.1694 126.752C46.5427 127.04 47.0654 127.184 47.7374 127.184C48.3774 127.184 48.9267 127.04 49.3854 126.752C49.8547 126.453 50.196 126.027 50.4094 125.472L50.6654 126.256C50.452 126.811 50.0787 127.253 49.5454 127.584C49.0227 127.915 48.3614 128.08 47.5614 128.08ZM58.1189 128.08C57.2869 128.08 56.5402 127.899 55.8789 127.536C55.2282 127.163 54.7162 126.656 54.3429 126.016C53.9695 125.365 53.7829 124.624 53.7829 123.792C53.7829 122.949 53.9695 122.208 54.3429 121.568C54.7162 120.928 55.2282 120.427 55.8789 120.064C56.5402 119.701 57.2869 119.52 58.1189 119.52C58.8335 119.52 59.4789 119.659 60.0549 119.936C60.6309 120.213 61.0842 120.629 61.4149 121.184L60.5669 121.76C60.2789 121.333 59.9215 121.019 59.4949 120.816C59.0682 120.613 58.6042 120.512 58.1029 120.512C57.5055 120.512 56.9669 120.651 56.4869 120.928C56.0069 121.195 55.6282 121.573 55.3509 122.064C55.0735 122.555 54.9349 123.131 54.9349 123.792C54.9349 124.453 55.0735 125.029 55.3509 125.52C55.6282 126.011 56.0069 126.395 56.4869 126.672C56.9669 126.939 57.5055 127.072 58.1029 127.072C58.6042 127.072 59.0682 126.971 59.4949 126.768C59.9215 126.565 60.2789 126.256 60.5669 125.84L61.4149 126.416C61.0842 126.96 60.6309 127.376 60.0549 127.664C59.4789 127.941 58.8335 128.08 58.1189 128.08ZM67.8095 119.52C68.4922 119.52 69.0895 119.653 69.6015 119.92C70.1242 120.176 70.5295 120.571 70.8175 121.104C71.1162 121.637 71.2655 122.309 71.2655 123.12V128H70.1295V123.232C70.1295 122.347 69.9055 121.68 69.4575 121.232C69.0202 120.773 68.4015 120.544 67.6015 120.544C67.0042 120.544 66.4815 120.667 66.0335 120.912C65.5962 121.147 65.2548 121.493 65.0095 121.952C64.7748 122.4 64.6575 122.944 64.6575 123.584V128H63.5215V116.128H64.6575V121.904L64.4335 121.472C64.7002 120.864 65.1268 120.389 65.7135 120.048C66.3002 119.696 66.9988 119.52 67.8095 119.52ZM80.7775 128.08C80.0842 128.08 79.4282 127.984 78.8095 127.792C78.1908 127.589 77.7055 127.339 77.3535 127.04L77.8655 126.144C78.2068 126.4 78.6442 126.624 79.1775 126.816C79.7108 126.997 80.2708 127.088 80.8575 127.088C81.6575 127.088 82.2335 126.965 82.5855 126.72C82.9375 126.464 83.1135 126.128 83.1135 125.712C83.1135 125.403 83.0122 125.163 82.8095 124.992C82.6175 124.811 82.3615 124.677 82.0415 124.592C81.7215 124.496 81.3642 124.416 80.9695 124.352C80.5748 124.288 80.1802 124.213 79.7855 124.128C79.4015 124.043 79.0495 123.92 78.7295 123.76C78.4095 123.589 78.1482 123.36 77.9455 123.072C77.7535 122.784 77.6575 122.4 77.6575 121.92C77.6575 121.461 77.7855 121.051 78.0415 120.688C78.2975 120.325 78.6708 120.043 79.1615 119.84C79.6628 119.627 80.2708 119.52 80.9855 119.52C81.5295 119.52 82.0735 119.595 82.6175 119.744C83.1615 119.883 83.6095 120.069 83.9615 120.304L83.4655 121.216C83.0922 120.96 82.6922 120.779 82.2655 120.672C81.8388 120.555 81.4122 120.496 80.9855 120.496C80.2282 120.496 79.6682 120.629 79.3055 120.896C78.9535 121.152 78.7775 121.483 78.7775 121.888C78.7775 122.208 78.8735 122.459 79.0655 122.64C79.2682 122.821 79.5295 122.965 79.8495 123.072C80.1802 123.168 80.5375 123.248 80.9215 123.312C81.3162 123.376 81.7055 123.456 82.0895 123.552C82.4842 123.637 82.8415 123.76 83.1615 123.92C83.4922 124.069 83.7535 124.288 83.9455 124.576C84.1482 124.853 84.2495 125.221 84.2495 125.68C84.2495 126.171 84.1108 126.597 83.8335 126.96C83.5668 127.312 83.1722 127.589 82.6495 127.792C82.1375 127.984 81.5135 128.08 80.7775 128.08ZM88.99 128.08C88.2007 128.08 87.5927 127.867 87.166 127.44C86.7393 127.013 86.526 126.411 86.526 125.632V117.744H87.662V125.568C87.662 126.059 87.7847 126.437 88.03 126.704C88.286 126.971 88.6487 127.104 89.118 127.104C89.6193 127.104 90.0353 126.96 90.366 126.672L90.766 127.488C90.542 127.691 90.27 127.84 89.95 127.936C89.6407 128.032 89.3207 128.08 88.99 128.08ZM85.022 120.544V119.6H90.222V120.544H85.022ZM98.098 128V126.144L98.05 125.84V122.736C98.05 122.021 97.8473 121.472 97.442 121.088C97.0473 120.704 96.4553 120.512 95.666 120.512C95.122 120.512 94.6047 120.603 94.114 120.784C93.6233 120.965 93.2073 121.205 92.866 121.504L92.354 120.656C92.7807 120.293 93.2927 120.016 93.89 119.824C94.4873 119.621 95.1167 119.52 95.778 119.52C96.866 119.52 97.7033 119.792 98.29 120.336C98.8873 120.869 99.186 121.685 99.186 122.784V128H98.098ZM95.202 128.08C94.5727 128.08 94.0233 127.979 93.554 127.776C93.0953 127.563 92.7433 127.275 92.498 126.912C92.2527 126.539 92.13 126.112 92.13 125.632C92.13 125.195 92.2313 124.8 92.434 124.448C92.6473 124.085 92.9887 123.797 93.458 123.584C93.938 123.36 94.578 123.248 95.378 123.248H98.274V124.096H95.41C94.5993 124.096 94.034 124.24 93.714 124.528C93.4047 124.816 93.25 125.173 93.25 125.6C93.25 126.08 93.4367 126.464 93.81 126.752C94.1833 127.04 94.706 127.184 95.378 127.184C96.018 127.184 96.5673 127.04 97.026 126.752C97.4953 126.453 97.8367 126.027 98.05 125.472L98.306 126.256C98.0927 126.811 97.7193 127.253 97.186 127.584C96.6633 127.915 96.002 128.08 95.202 128.08ZM102.272 128V119.6H103.36V121.888L103.248 121.488C103.482 120.848 103.877 120.363 104.432 120.032C104.986 119.691 105.674 119.52 106.496 119.52V120.624C106.453 120.624 106.41 120.624 106.368 120.624C106.325 120.613 106.282 120.608 106.24 120.608C105.354 120.608 104.661 120.88 104.16 121.424C103.658 121.957 103.408 122.72 103.408 123.712V128H102.272ZM111.584 128.08C110.794 128.08 110.186 127.867 109.76 127.44C109.333 127.013 109.12 126.411 109.12 125.632V117.744H110.256V125.568C110.256 126.059 110.378 126.437 110.624 126.704C110.88 126.971 111.242 127.104 111.712 127.104C112.213 127.104 112.629 126.96 112.96 126.672L113.36 127.488C113.136 127.691 112.864 127.84 112.544 127.936C112.234 128.032 111.914 128.08 111.584 128.08ZM107.616 120.544V119.6H112.816V120.544H107.616ZM115.428 128V119.6H116.564V128H115.428ZM116.004 117.744C115.769 117.744 115.572 117.664 115.412 117.504C115.252 117.344 115.172 117.152 115.172 116.928C115.172 116.704 115.252 116.517 115.412 116.368C115.572 116.208 115.769 116.128 116.004 116.128C116.238 116.128 116.436 116.203 116.596 116.352C116.756 116.501 116.836 116.688 116.836 116.912C116.836 117.147 116.756 117.344 116.596 117.504C116.446 117.664 116.249 117.744 116.004 117.744ZM124.013 119.52C124.695 119.52 125.293 119.653 125.805 119.92C126.327 120.176 126.733 120.571 127.021 121.104C127.319 121.637 127.469 122.309 127.469 123.12V128H126.333V123.232C126.333 122.347 126.109 121.68 125.661 121.232C125.223 120.773 124.605 120.544 123.805 120.544C123.207 120.544 122.685 120.667 122.237 120.912C121.799 121.147 121.458 121.493 121.213 121.952C120.978 122.4 120.861 122.944 120.861 123.584V128H119.725V119.6H120.813V121.904L120.637 121.472C120.903 120.864 121.33 120.389 121.917 120.048C122.503 119.696 123.202 119.52 124.013 119.52ZM134.121 131.184C133.353 131.184 132.617 131.072 131.913 130.848C131.209 130.624 130.638 130.304 130.201 129.888L130.777 129.024C131.172 129.376 131.657 129.653 132.233 129.856C132.82 130.069 133.438 130.176 134.089 130.176C135.156 130.176 135.94 129.925 136.441 129.424C136.942 128.933 137.193 128.165 137.193 127.12V125.024L137.353 123.584L137.241 122.144V119.6H138.329V126.976C138.329 128.427 137.972 129.488 137.257 130.16C136.553 130.843 135.508 131.184 134.121 131.184ZM133.913 127.68C133.113 127.68 132.393 127.509 131.753 127.168C131.113 126.816 130.606 126.331 130.233 125.712C129.87 125.093 129.689 124.384 129.689 123.584C129.689 122.784 129.87 122.08 130.233 121.472C130.606 120.853 131.113 120.373 131.753 120.032C132.393 119.691 133.113 119.52 133.913 119.52C134.66 119.52 135.332 119.675 135.929 119.984C136.526 120.293 137.001 120.752 137.353 121.36C137.705 121.968 137.881 122.709 137.881 123.584C137.881 124.459 137.705 125.2 137.353 125.808C137.001 126.416 136.526 126.88 135.929 127.2C135.332 127.52 134.66 127.68 133.913 127.68ZM134.025 126.672C134.644 126.672 135.193 126.544 135.673 126.288C136.153 126.021 136.532 125.659 136.809 125.2C137.086 124.731 137.225 124.192 137.225 123.584C137.225 122.976 137.086 122.443 136.809 121.984C136.532 121.525 136.153 121.168 135.673 120.912C135.193 120.645 134.644 120.512 134.025 120.512C133.417 120.512 132.868 120.645 132.377 120.912C131.897 121.168 131.518 121.525 131.241 121.984C130.974 122.443 130.841 122.976 130.841 123.584C130.841 124.192 130.974 124.731 131.241 125.2C131.518 125.659 131.897 126.021 132.377 126.288C132.868 126.544 133.417 126.672 134.025 126.672ZM149.966 119.52C150.648 119.52 151.246 119.653 151.758 119.92C152.28 120.176 152.686 120.571 152.974 121.104C153.272 121.637 153.422 122.309 153.422 123.12V128H152.286V123.232C152.286 122.347 152.062 121.68 151.614 121.232C151.176 120.773 150.558 120.544 149.758 120.544C149.16 120.544 148.638 120.667 148.19 120.912C147.752 121.147 147.411 121.493 147.166 121.952C146.931 122.4 146.814 122.944 146.814 123.584V128H145.678V116.128H146.814V121.904L146.59 121.472C146.856 120.864 147.283 120.389 147.87 120.048C148.456 119.696 149.155 119.52 149.966 119.52ZM159.914 128.08C159.104 128.08 158.373 127.899 157.722 127.536C157.082 127.163 156.576 126.656 156.202 126.016C155.829 125.365 155.642 124.624 155.642 123.792C155.642 122.949 155.829 122.208 156.202 121.568C156.576 120.928 157.082 120.427 157.722 120.064C158.362 119.701 159.093 119.52 159.914 119.52C160.746 119.52 161.482 119.701 162.122 120.064C162.773 120.427 163.28 120.928 163.642 121.568C164.016 122.208 164.202 122.949 164.202 123.792C164.202 124.624 164.016 125.365 163.642 126.016C163.28 126.656 162.773 127.163 162.122 127.536C161.472 127.899 160.736 128.08 159.914 128.08ZM159.914 127.072C160.522 127.072 161.061 126.939 161.53 126.672C162 126.395 162.368 126.011 162.634 125.52C162.912 125.019 163.05 124.443 163.05 123.792C163.05 123.131 162.912 122.555 162.634 122.064C162.368 121.573 162 121.195 161.53 120.928C161.061 120.651 160.528 120.512 159.93 120.512C159.333 120.512 158.8 120.651 158.33 120.928C157.861 121.195 157.488 121.573 157.21 122.064C156.933 122.555 156.794 123.131 156.794 123.792C156.794 124.443 156.933 125.019 157.21 125.52C157.488 126.011 157.861 126.395 158.33 126.672C158.8 126.939 159.328 127.072 159.914 127.072ZM169.994 128.08C169.279 128.08 168.655 127.947 168.122 127.68C167.588 127.413 167.172 127.013 166.874 126.48C166.586 125.947 166.442 125.28 166.442 124.48V119.6H167.578V124.352C167.578 125.248 167.796 125.925 168.234 126.384C168.682 126.832 169.306 127.056 170.106 127.056C170.692 127.056 171.199 126.939 171.626 126.704C172.063 126.459 172.394 126.107 172.618 125.648C172.852 125.189 172.97 124.64 172.97 124V119.6H174.106V128H173.017V125.696L173.194 126.112C172.927 126.731 172.511 127.216 171.946 127.568C171.391 127.909 170.74 128.08 169.994 128.08ZM177.272 128V119.6H178.36V121.888L178.248 121.488C178.482 120.848 178.877 120.363 179.432 120.032C179.986 119.691 180.674 119.52 181.496 119.52V120.624C181.453 120.624 181.41 120.624 181.368 120.624C181.325 120.613 181.282 120.608 181.24 120.608C180.354 120.608 179.661 120.88 179.16 121.424C178.658 121.957 178.408 122.72 178.408 123.712V128H177.272ZM189.817 131.104C189.23 130.133 188.772 129.013 188.441 127.744C188.121 126.464 187.961 125.088 187.961 123.616C187.961 122.144 188.121 120.768 188.441 119.488C188.772 118.197 189.23 117.077 189.817 116.128H190.905C190.276 117.227 189.812 118.395 189.513 119.632C189.225 120.859 189.081 122.187 189.081 123.616C189.081 125.045 189.225 126.379 189.513 127.616C189.812 128.843 190.276 130.005 190.905 131.104H189.817ZM194.503 128V117.28L195.015 117.824H191.863V116.8H195.655V128H194.503ZM203.372 119.52C204.055 119.52 204.652 119.653 205.164 119.92C205.687 120.176 206.092 120.571 206.38 121.104C206.679 121.637 206.828 122.309 206.828 123.12V128H205.692V123.232C205.692 122.347 205.468 121.68 205.02 121.232C204.583 120.773 203.964 120.544 203.164 120.544C202.567 120.544 202.044 120.667 201.596 120.912C201.159 121.147 200.817 121.493 200.572 121.952C200.337 122.4 200.22 122.944 200.22 123.584V128H199.084V116.128H200.22V121.904L199.996 121.472C200.263 120.864 200.689 120.389 201.276 120.048C201.863 119.696 202.561 119.52 203.372 119.52ZM210.041 131.104H208.953C209.593 130.005 210.057 128.843 210.345 127.616C210.643 126.379 210.793 125.045 210.793 123.616C210.793 122.187 210.643 120.859 210.345 119.632C210.057 118.395 209.593 117.227 208.953 116.128H210.041C210.649 117.077 211.113 118.197 211.433 119.488C211.753 120.768 211.913 122.144 211.913 123.616C211.913 125.088 211.753 126.464 211.433 127.744C211.113 129.013 210.649 130.133 210.041 131.104ZM215.274 121.264C215.039 121.264 214.837 121.179 214.666 121.008C214.506 120.837 214.426 120.629 214.426 120.384C214.426 120.128 214.506 119.92 214.666 119.76C214.837 119.6 215.039 119.52 215.274 119.52C215.509 119.52 215.706 119.6 215.866 119.76C216.037 119.92 216.122 120.128 216.122 120.384C216.122 120.629 216.037 120.837 215.866 121.008C215.706 121.179 215.509 121.264 215.274 121.264ZM215.274 128.08C215.039 128.08 214.837 127.995 214.666 127.824C214.506 127.653 214.426 127.445 214.426 127.2C214.426 126.944 214.506 126.736 214.666 126.576C214.837 126.416 215.039 126.336 215.274 126.336C215.509 126.336 215.706 126.416 215.866 126.576C216.037 126.736 216.122 126.944 216.122 127.2C216.122 127.445 216.037 127.653 215.866 127.824C215.706 127.995 215.509 128.08 215.274 128.08ZM93.6534 146.224H99.5734V147.248H93.6534V146.224ZM93.7814 152H92.5974V140.8H100.277V141.824H93.7814V152ZM105.625 152.08C104.815 152.08 104.084 151.899 103.433 151.536C102.793 151.163 102.287 150.656 101.913 150.016C101.54 149.365 101.353 148.624 101.353 147.792C101.353 146.949 101.54 146.208 101.913 145.568C102.287 144.928 102.793 144.427 103.433 144.064C104.073 143.701 104.804 143.52 105.625 143.52C106.457 143.52 107.193 143.701 107.833 144.064C108.484 144.427 108.991 144.928 109.353 145.568C109.727 146.208 109.913 146.949 109.913 147.792C109.913 148.624 109.727 149.365 109.353 150.016C108.991 150.656 108.484 151.163 107.833 151.536C107.183 151.899 106.447 152.08 105.625 152.08ZM105.625 151.072C106.233 151.072 106.772 150.939 107.241 150.672C107.711 150.395 108.079 150.011 108.345 149.52C108.623 149.019 108.761 148.443 108.761 147.792C108.761 147.131 108.623 146.555 108.345 146.064C108.079 145.573 107.711 145.195 107.241 144.928C106.772 144.651 106.239 144.512 105.641 144.512C105.044 144.512 104.511 144.651 104.041 144.928C103.572 145.195 103.199 145.573 102.921 146.064C102.644 146.555 102.505 147.131 102.505 147.792C102.505 148.443 102.644 149.019 102.921 149.52C103.199 150.011 103.572 150.395 104.041 150.672C104.511 150.939 105.039 151.072 105.625 151.072ZM112.232 152V143.6H113.32V145.888L113.208 145.488C113.443 144.848 113.838 144.363 114.392 144.032C114.947 143.691 115.635 143.52 116.456 143.52V144.624C116.414 144.624 116.371 144.624 116.328 144.624C116.286 144.613 116.243 144.608 116.2 144.608C115.315 144.608 114.622 144.88 114.12 145.424C113.619 145.957 113.368 146.72 113.368 147.712V152H112.232ZM125.434 152.096C124.623 152.096 123.855 151.968 123.13 151.712C122.415 151.445 121.839 151.093 121.402 150.656L121.962 149.744C122.324 150.117 122.81 150.427 123.418 150.672C124.036 150.917 124.708 151.04 125.434 151.04C126.362 151.04 127.071 150.837 127.562 150.432C128.063 150.027 128.314 149.483 128.314 148.8C128.314 148.117 128.068 147.573 127.578 147.168C127.098 146.763 126.335 146.56 125.29 146.56H124.49V145.712L127.946 141.376L128.106 141.824H121.866V140.8H129.066V141.616L125.61 145.952L125.05 145.584H125.482C126.826 145.584 127.828 145.883 128.49 146.48C129.162 147.077 129.498 147.845 129.498 148.784C129.498 149.413 129.348 149.979 129.05 150.48C128.751 150.981 128.298 151.376 127.69 151.664C127.092 151.952 126.34 152.096 125.434 152.096ZM136.957 149.824L136.989 148.368L142.221 143.6H143.613L139.917 147.136L139.277 147.68L136.957 149.824ZM136.061 152V140.128H137.197V152H136.061ZM142.573 152L139.069 147.632L139.805 146.752L143.965 152H142.573ZM145.67 152V143.6H146.806V152H145.67ZM146.246 141.744C146.011 141.744 145.814 141.664 145.654 141.504C145.494 141.344 145.414 141.152 145.414 140.928C145.414 140.704 145.494 140.517 145.654 140.368C145.814 140.208 146.011 140.128 146.246 140.128C146.481 140.128 146.678 140.203 146.838 140.352C146.998 140.501 147.078 140.688 147.078 140.912C147.078 141.147 146.998 141.344 146.838 141.504C146.689 141.664 146.491 141.744 146.246 141.744ZM153.311 152.08C152.511 152.08 151.791 151.899 151.151 151.536C150.521 151.173 150.025 150.672 149.663 150.032C149.3 149.381 149.119 148.635 149.119 147.792C149.119 146.939 149.3 146.192 149.663 145.552C150.025 144.912 150.521 144.416 151.151 144.064C151.791 143.701 152.511 143.52 153.311 143.52C154.047 143.52 154.703 143.685 155.279 144.016C155.865 144.347 156.329 144.832 156.671 145.472C157.023 146.101 157.199 146.875 157.199 147.792C157.199 148.699 157.028 149.472 156.687 150.112C156.345 150.752 155.881 151.243 155.295 151.584C154.719 151.915 154.057 152.08 153.311 152.08ZM153.391 151.072C153.988 151.072 154.521 150.939 154.991 150.672C155.471 150.395 155.844 150.011 156.111 149.52C156.388 149.019 156.527 148.443 156.527 147.792C156.527 147.131 156.388 146.555 156.111 146.064C155.844 145.573 155.471 145.195 154.991 144.928C154.521 144.651 153.988 144.512 153.391 144.512C152.804 144.512 152.276 144.651 151.807 144.928C151.337 145.195 150.964 145.573 150.687 146.064C150.409 146.555 150.271 147.131 150.271 147.792C150.271 148.443 150.409 149.019 150.687 149.52C150.964 150.011 151.337 150.395 151.807 150.672C152.276 150.939 152.804 151.072 153.391 151.072ZM156.559 152V149.472L156.671 147.776L156.511 146.08V140.128H157.647V152H156.559Z" fill="#1A1A1A"/>
<path d="M64.403 189V173.64L66.083 175.32H61.043V172.2H68.291V189H64.403ZM78.4094 189.288C77.0334 189.288 75.8014 188.952 74.7134 188.28C73.6254 187.592 72.7694 186.6 72.1454 185.304C71.5214 184.008 71.2094 182.44 71.2094 180.6C71.2094 178.76 71.5214 177.192 72.1454 175.896C72.7694 174.6 73.6254 173.616 74.7134 172.944C75.8014 172.256 77.0334 171.912 78.4094 171.912C79.8014 171.912 81.0334 172.256 82.1054 172.944C83.1934 173.616 84.0494 174.6 84.6734 175.896C85.2974 177.192 85.6094 178.76 85.6094 180.6C85.6094 182.44 85.2974 184.008 84.6734 185.304C84.0494 186.6 83.1934 187.592 82.1054 188.28C81.0334 188.952 79.8014 189.288 78.4094 189.288ZM78.4094 186C79.0654 186 79.6334 185.816 80.1134 185.448C80.6094 185.08 80.9934 184.496 81.2654 183.696C81.5534 182.896 81.6974 181.864 81.6974 180.6C81.6974 179.336 81.5534 178.304 81.2654 177.504C80.9934 176.704 80.6094 176.12 80.1134 175.752C79.6334 175.384 79.0654 175.2 78.4094 175.2C77.7694 175.2 77.2014 175.384 76.7054 175.752C76.2254 176.12 75.8414 176.704 75.5534 177.504C75.2814 178.304 75.1454 179.336 75.1454 180.6C75.1454 181.864 75.2814 182.896 75.5534 183.696C75.8414 184.496 76.2254 185.08 76.7054 185.448C77.2014 185.816 77.7694 186 78.4094 186ZM94.6985 189.288C93.3225 189.288 92.0905 188.952 91.0025 188.28C89.9145 187.592 89.0585 186.6 88.4345 185.304C87.8105 184.008 87.4985 182.44 87.4985 180.6C87.4985 178.76 87.8105 177.192 88.4345 175.896C89.0585 174.6 89.9145 173.616 91.0025 172.944C92.0905 172.256 93.3225 171.912 94.6985 171.912C96.0905 171.912 97.3225 172.256 98.3945 172.944C99.4825 173.616 100.339 174.6 100.963 175.896C101.587 177.192 101.899 178.76 101.899 180.6C101.899 182.44 101.587 184.008 100.963 185.304C100.339 186.6 99.4825 187.592 98.3945 188.28C97.3225 188.952 96.0905 189.288 94.6985 189.288ZM94.6985 186C95.3545 186 95.9225 185.816 96.4025 185.448C96.8985 185.08 97.2825 184.496 97.5545 183.696C97.8425 182.896 97.9865 181.864 97.9865 180.6C97.9865 179.336 97.8425 178.304 97.5545 177.504C97.2825 176.704 96.8985 176.12 96.4025 175.752C95.9225 175.384 95.3545 175.2 94.6985 175.2C94.0585 175.2 93.4905 175.384 92.9945 175.752C92.5145 176.12 92.1305 176.704 91.8425 177.504C91.5705 178.304 91.4345 179.336 91.4345 180.6C91.4345 181.864 91.5705 182.896 91.8425 183.696C92.1305 184.496 92.5145 185.08 92.9945 185.448C93.4905 185.816 94.0585 186 94.6985 186ZM110.988 189.288C109.612 189.288 108.38 188.952 107.292 188.28C106.204 187.592 105.348 186.6 104.724 185.304C104.1 184.008 103.788 182.44 103.788 180.6C103.788 178.76 104.1 177.192 104.724 175.896C105.348 174.6 106.204 173.616 107.292 172.944C108.38 172.256 109.612 171.912 110.988 171.912C112.38 171.912 113.612 172.256 114.684 172.944C115.772 173.616 116.628 174.6 117.252 175.896C117.876 177.192 118.188 178.76 118.188 180.6C118.188 182.44 117.876 184.008 117.252 185.304C116.628 186.6 115.772 187.592 114.684 188.28C113.612 188.952 112.38 189.288 110.988 189.288ZM110.988 186C111.644 186 112.212 185.816 112.692 185.448C113.188 185.08 113.572 184.496 113.844 183.696C114.132 182.896 114.276 181.864 114.276 180.6C114.276 179.336 114.132 178.304 113.844 177.504C113.572 176.704 113.188 176.12 112.692 175.752C112.212 175.384 111.644 175.2 110.988 175.2C110.348 175.2 109.78 175.384 109.284 175.752C108.804 176.12 108.42 176.704 108.132 177.504C107.86 178.304 107.724 179.336 107.724 180.6C107.724 181.864 107.86 182.896 108.132 183.696C108.42 184.496 108.804 185.08 109.284 185.448C109.78 185.816 110.348 186 110.988 186ZM127.93 189V172.2H135.202C136.706 172.2 138.002 172.448 139.09 172.944C140.178 173.424 141.018 174.12 141.61 175.032C142.202 175.944 142.498 177.032 142.498 178.296C142.498 179.544 142.202 180.624 141.61 181.536C141.018 182.432 140.178 183.12 139.09 183.6C138.002 184.08 136.706 184.32 135.202 184.32H130.09L131.818 182.616V189H127.93ZM138.609 189L134.41 182.904H138.562L142.81 189H138.609ZM131.818 183.048L130.09 181.224H134.986C136.186 181.224 137.082 180.968 137.674 180.456C138.266 179.928 138.562 179.208 138.562 178.296C138.562 177.368 138.266 176.648 137.674 176.136C137.082 175.624 136.186 175.368 134.986 175.368H130.09L131.818 173.52V183.048ZM151.098 189.288C149.754 189.288 148.466 189.112 147.234 188.76C146.002 188.392 145.01 187.92 144.258 187.344L145.578 184.416C146.298 184.928 147.146 185.352 148.122 185.688C149.114 186.008 150.114 186.168 151.122 186.168C151.89 186.168 152.506 186.096 152.97 185.952C153.45 185.792 153.802 185.576 154.026 185.304C154.25 185.032 154.362 184.72 154.362 184.368C154.362 183.92 154.186 183.568 153.834 183.312C153.482 183.04 153.018 182.824 152.442 182.664C151.866 182.488 151.226 182.328 150.522 182.184C149.834 182.024 149.138 181.832 148.434 181.608C147.746 181.384 147.114 181.096 146.538 180.744C145.962 180.392 145.49 179.928 145.122 179.352C144.77 178.776 144.594 178.04 144.594 177.144C144.594 176.184 144.85 175.312 145.362 174.528C145.89 173.728 146.674 173.096 147.714 172.632C148.77 172.152 150.09 171.912 151.674 171.912C152.73 171.912 153.77 172.04 154.794 172.296C155.818 172.536 156.722 172.904 157.506 173.4L156.306 176.352C155.522 175.904 154.738 175.576 153.954 175.368C153.17 175.144 152.402 175.032 151.65 175.032C150.898 175.032 150.282 175.12 149.802 175.296C149.322 175.472 148.978 175.704 148.77 175.992C148.562 176.264 148.458 176.584 148.458 176.952C148.458 177.384 148.634 177.736 148.986 178.008C149.338 178.264 149.802 178.472 150.378 178.632C150.954 178.792 151.586 178.952 152.274 179.112C152.978 179.272 153.674 179.456 154.362 179.664C155.066 179.872 155.706 180.152 156.282 180.504C156.858 180.856 157.322 181.32 157.674 181.896C158.042 182.472 158.226 183.2 158.226 184.08C158.226 185.024 157.962 185.888 157.434 186.672C156.906 187.456 156.114 188.088 155.058 188.568C154.018 189.048 152.698 189.288 151.098 189.288ZM160.883 189V172.2H168.515C170.339 172.2 171.947 172.552 173.339 173.256C174.731 173.944 175.819 174.912 176.603 176.16C177.387 177.408 177.779 178.888 177.779 180.6C177.779 182.296 177.387 183.776 176.603 185.04C175.819 186.288 174.731 187.264 173.339 187.968C171.947 188.656 170.339 189 168.515 189H160.883ZM164.771 185.808H168.323C169.443 185.808 170.411 185.6 171.227 185.184C172.059 184.752 172.699 184.144 173.147 183.36C173.611 182.576 173.843 181.656 173.843 180.6C173.843 179.528 173.611 178.608 173.147 177.84C172.699 177.056 172.059 176.456 171.227 176.04C170.411 175.608 169.443 175.392 168.323 175.392H164.771V185.808ZM188.823 174.504L185.631 176.256V175.632L188.823 177.36L187.647 179.328L184.671 177.552L185.007 177.336L185.055 180.672H182.799L182.823 177.336L183.159 177.552L180.183 179.328L179.031 177.36L182.223 175.632V176.256L179.031 174.504L180.183 172.536L183.159 174.336L182.823 174.528L182.799 171.192H185.055L185.007 174.528L184.671 174.336L187.647 172.536L188.823 174.504Z" fill="#1A1A1A"/>
<path d="M80 64H1V216H249V64H177.5" stroke="#1A1A1A"/>
<path d="M183.981 37.2467C179.401 36.2873 174.661 36.5734 170.022 36.946C163.98 37.4882 157.941 38.5929 152.174 40.5423C151.921 40.6964 151.731 40.8909 151.561 41.0533C148.576 38.2731 145.024 36.1446 141.565 35.1075C133.723 32.3377 124.911 35.8894 118.755 40.9365C114.584 44.857 111.254 49.959 110.006 55.5885C109.924 56.1429 109.859 56.7074 109.804 57.2559C109.193 57.4091 108.576 57.5363 107.971 57.7157C100.445 59.6548 93.4147 63.2529 87.1488 67.8717C83.0642 71.0168 75.4756 76.1026 80.7926 81.565C87.1766 87.0721 109.757 81.9962 118.22 80.5576C118.523 80.502 118.826 80.4465 119.114 80.3809C119.131 80.4593 119.133 80.5276 119.15 80.606C119.685 82.1325 120.828 83.369 122.136 84.3066C127.34 87.8577 134.418 87.8345 140.133 85.471C147.108 82.8473 154.876 78.6822 157.796 71.3929C158.07 70.5335 158.545 69.2847 158.515 68.2337C169.839 63.4623 181.22 57.5376 189.321 48.1307C194.851 42.3748 190.069 38.4389 183.975 37.2206L183.981 37.2467ZM133.392 38.1423C138.277 37.7682 143.215 39.8276 147.035 42.8429C150.24 45.5593 152.846 48.9756 154.31 52.9277C154.93 54.2836 154.879 56.1362 155.934 57.2278C152.146 59.1237 148.246 60.7702 144.295 62.2497C137.522 64.7312 130.554 67.2022 123.476 68.7506C120.4 69.4807 117.166 70.1782 113.936 70.5864C114.27 68.7104 113.59 64.8265 113.556 64.0649C113.307 61.3053 113.366 58.022 114.173 55.2549C116.821 46.4478 124.038 39.1527 133.386 38.1161L133.392 38.1423ZM158.902 55.7118C158.889 53.3928 158.321 51.1047 157.324 48.9281C157.906 48.8913 158.472 48.8444 159.035 48.9081C160.715 49.1151 163.005 49.1005 164.576 50.0467C165.181 50.5404 164.26 51.3279 163.962 51.8356C162.54 53.4518 160.752 54.6572 158.876 55.7177L158.902 55.7118ZM140.43 80.6771C135.148 82.9552 129.275 83.0878 123.966 80.8386C123.393 80.6122 122.728 80.2147 122.042 79.8494C126.82 78.9365 131.606 77.9392 136.249 76.4251C142.196 74.5445 148.035 72.3038 153.881 70.1577C150.849 75.1781 145.957 78.8236 140.43 80.6771ZM183.98 48.3068C179.807 52.4061 174.734 55.9145 169.516 58.6589C162.414 62.3694 154.908 65.8017 147.077 68.4012C141.303 70.5033 135.463 72.4968 129.485 73.9313C125.286 74.9179 120.453 75.706 116.096 76.6601C106.471 78.4877 96.6 80.7429 86.7802 79.6202C82.9976 79.0967 82.1418 77.5473 85.19 74.9825C92.0108 68.7394 100.272 64.5716 108.378 60.2606C108.746 60.0666 109.187 59.8285 109.612 59.5804C109.515 63.4905 110.218 67.479 112.187 70.8073C111.013 70.8969 109.833 70.9604 108.662 70.9395C103.925 70.9362 104.396 69.3037 107.528 66.7471C108.546 66.0201 110.067 64.8482 109.188 63.4415C107.514 61.2412 104.764 64.2186 103.375 65.429C101.543 67.2351 100.595 70.4741 102.405 72.6024C108.812 78.8873 132.971 70.1398 140.909 67.4059C148.162 64.5538 166.936 59.0285 169.272 51.4605C170.512 44.1431 161.103 44.8499 156.383 47.1233C155.738 46.0206 155.02 44.9619 154.203 43.9532C159.52 42.7523 165.102 41.6283 170.564 41.0125C176.196 40.6603 182.812 39.5608 187.684 43.0368C188.455 44.1519 184.969 47.2702 183.98 48.3068Z" fill="#D9695F"/>
</svg>
