<svg width="230" height="226" viewBox="0 0 230 226" fill="none" xmlns="http://www.w3.org/2000/svg">
<path d="M25.9113 129.808H31.8313V130.816H25.9113V129.808ZM26.0393 134.976H32.7753V136H24.8553V124.8H32.5353V125.824H26.0393V134.976ZM40.4574 136V134.144L40.4094 133.84V130.736C40.4094 130.021 40.2067 129.472 39.8014 129.088C39.4067 128.704 38.8147 128.512 38.0254 128.512C37.4814 128.512 36.964 128.603 36.4734 128.784C35.9827 128.965 35.5667 129.205 35.2254 129.504L34.7134 128.656C35.14 128.293 35.652 128.016 36.2494 127.824C36.8467 127.621 37.476 127.52 38.1374 127.52C39.2254 127.52 40.0627 127.792 40.6494 128.336C41.2467 128.869 41.5454 129.685 41.5454 130.784V136H40.4574ZM37.5614 136.08C36.932 136.08 36.3827 135.979 35.9134 135.776C35.4547 135.563 35.1027 135.275 34.8574 134.912C34.612 134.539 34.4894 134.112 34.4894 133.632C34.4894 133.195 34.5907 132.8 34.7934 132.448C35.0067 132.085 35.348 131.797 35.8174 131.584C36.2974 131.36 36.9374 131.248 37.7374 131.248H40.6334V132.096H37.7694C36.9587 132.096 36.3934 132.24 36.0734 132.528C35.764 132.816 35.6094 133.173 35.6094 133.6C35.6094 134.08 35.796 134.464 36.1694 134.752C36.5427 135.04 37.0654 135.184 37.7374 135.184C38.3774 135.184 38.9267 135.04 39.3854 134.752C39.8547 134.453 40.196 134.027 40.4094 133.472L40.6654 134.256C40.452 134.811 40.0787 135.253 39.5454 135.584C39.0227 135.915 38.3614 136.08 37.5614 136.08ZM48.1189 136.08C47.2869 136.08 46.5402 135.899 45.8789 135.536C45.2282 135.163 44.7162 134.656 44.3429 134.016C43.9695 133.365 43.7829 132.624 43.7829 131.792C43.7829 130.949 43.9695 130.208 44.3429 129.568C44.7162 128.928 45.2282 128.427 45.8789 128.064C46.5402 127.701 47.2869 127.52 48.1189 127.52C48.8335 127.52 49.4789 127.659 50.0549 127.936C50.6309 128.213 51.0842 128.629 51.4149 129.184L50.5669 129.76C50.2789 129.333 49.9215 129.019 49.4949 128.816C49.0682 128.613 48.6042 128.512 48.1029 128.512C47.5055 128.512 46.9669 128.651 46.4869 128.928C46.0069 129.195 45.6282 129.573 45.3509 130.064C45.0735 130.555 44.9349 131.131 44.9349 131.792C44.9349 132.453 45.0735 133.029 45.3509 133.52C45.6282 134.011 46.0069 134.395 46.4869 134.672C46.9669 134.939 47.5055 135.072 48.1029 135.072C48.6042 135.072 49.0682 134.971 49.4949 134.768C49.9215 134.565 50.2789 134.256 50.5669 133.84L51.4149 134.416C51.0842 134.96 50.6309 135.376 50.0549 135.664C49.4789 135.941 48.8335 136.08 48.1189 136.08ZM57.8095 127.52C58.4922 127.52 59.0895 127.653 59.6015 127.92C60.1242 128.176 60.5295 128.571 60.8175 129.104C61.1162 129.637 61.2655 130.309 61.2655 131.12V136H60.1295V131.232C60.1295 130.347 59.9055 129.68 59.4575 129.232C59.0202 128.773 58.4015 128.544 57.6015 128.544C57.0042 128.544 56.4815 128.667 56.0335 128.912C55.5962 129.147 55.2548 129.493 55.0095 129.952C54.7748 130.4 54.6575 130.944 54.6575 131.584V136H53.5215V124.128H54.6575V129.904L54.4335 129.472C54.7002 128.864 55.1268 128.389 55.7135 128.048C56.3002 127.696 56.9988 127.52 57.8095 127.52ZM70.7775 136.08C70.0842 136.08 69.4282 135.984 68.8095 135.792C68.1908 135.589 67.7055 135.339 67.3535 135.04L67.8655 134.144C68.2068 134.4 68.6442 134.624 69.1775 134.816C69.7108 134.997 70.2708 135.088 70.8575 135.088C71.6575 135.088 72.2335 134.965 72.5855 134.72C72.9375 134.464 73.1135 134.128 73.1135 133.712C73.1135 133.403 73.0122 133.163 72.8095 132.992C72.6175 132.811 72.3615 132.677 72.0415 132.592C71.7215 132.496 71.3642 132.416 70.9695 132.352C70.5748 132.288 70.1802 132.213 69.7855 132.128C69.4015 132.043 69.0495 131.92 68.7295 131.76C68.4095 131.589 68.1482 131.36 67.9455 131.072C67.7535 130.784 67.6575 130.4 67.6575 129.92C67.6575 129.461 67.7855 129.051 68.0415 128.688C68.2975 128.325 68.6708 128.043 69.1615 127.84C69.6628 127.627 70.2708 127.52 70.9855 127.52C71.5295 127.52 72.0735 127.595 72.6175 127.744C73.1615 127.883 73.6095 128.069 73.9615 128.304L73.4655 129.216C73.0922 128.96 72.6922 128.779 72.2655 128.672C71.8388 128.555 71.4122 128.496 70.9855 128.496C70.2282 128.496 69.6682 128.629 69.3055 128.896C68.9535 129.152 68.7775 129.483 68.7775 129.888C68.7775 130.208 68.8735 130.459 69.0655 130.64C69.2682 130.821 69.5295 130.965 69.8495 131.072C70.1802 131.168 70.5375 131.248 70.9215 131.312C71.3162 131.376 71.7055 131.456 72.0895 131.552C72.4842 131.637 72.8415 131.76 73.1615 131.92C73.4922 132.069 73.7535 132.288 73.9455 132.576C74.1482 132.853 74.2495 133.221 74.2495 133.68C74.2495 134.171 74.1108 134.597 73.8335 134.96C73.5668 135.312 73.1722 135.589 72.6495 135.792C72.1375 135.984 71.5135 136.08 70.7775 136.08ZM78.99 136.08C78.2007 136.08 77.5927 135.867 77.166 135.44C76.7393 135.013 76.526 134.411 76.526 133.632V125.744H77.662V133.568C77.662 134.059 77.7847 134.437 78.03 134.704C78.286 134.971 78.6487 135.104 79.118 135.104C79.6193 135.104 80.0353 134.96 80.366 134.672L80.766 135.488C80.542 135.691 80.27 135.84 79.95 135.936C79.6407 136.032 79.3207 136.08 78.99 136.08ZM75.022 128.544V127.6H80.222V128.544H75.022ZM88.098 136V134.144L88.05 133.84V130.736C88.05 130.021 87.8473 129.472 87.442 129.088C87.0473 128.704 86.4553 128.512 85.666 128.512C85.122 128.512 84.6047 128.603 84.114 128.784C83.6233 128.965 83.2073 129.205 82.866 129.504L82.354 128.656C82.7807 128.293 83.2927 128.016 83.89 127.824C84.4873 127.621 85.1167 127.52 85.778 127.52C86.866 127.52 87.7033 127.792 88.29 128.336C88.8873 128.869 89.186 129.685 89.186 130.784V136H88.098ZM85.202 136.08C84.5727 136.08 84.0233 135.979 83.554 135.776C83.0953 135.563 82.7433 135.275 82.498 134.912C82.2527 134.539 82.13 134.112 82.13 133.632C82.13 133.195 82.2313 132.8 82.434 132.448C82.6473 132.085 82.9887 131.797 83.458 131.584C83.938 131.36 84.578 131.248 85.378 131.248H88.274V132.096H85.41C84.5993 132.096 84.034 132.24 83.714 132.528C83.4047 132.816 83.25 133.173 83.25 133.6C83.25 134.08 83.4367 134.464 83.81 134.752C84.1833 135.04 84.706 135.184 85.378 135.184C86.018 135.184 86.5673 135.04 87.026 134.752C87.4953 134.453 87.8367 134.027 88.05 133.472L88.306 134.256C88.0927 134.811 87.7193 135.253 87.186 135.584C86.6633 135.915 86.002 136.08 85.202 136.08ZM92.2715 136V127.6H93.3595V129.888L93.2475 129.488C93.4822 128.848 93.8768 128.363 94.4315 128.032C94.9862 127.691 95.6742 127.52 96.4955 127.52V128.624C96.4528 128.624 96.4102 128.624 96.3675 128.624C96.3248 128.613 96.2822 128.608 96.2395 128.608C95.3542 128.608 94.6608 128.88 94.1595 129.424C93.6582 129.957 93.4075 130.72 93.4075 131.712V136H92.2715ZM101.584 136.08C100.794 136.08 100.186 135.867 99.7598 135.44C99.3331 135.013 99.1198 134.411 99.1198 133.632V125.744H100.256V133.568C100.256 134.059 100.378 134.437 100.624 134.704C100.88 134.971 101.242 135.104 101.712 135.104C102.213 135.104 102.629 134.96 102.96 134.672L103.36 135.488C103.136 135.691 102.864 135.84 102.544 135.936C102.234 136.032 101.914 136.08 101.584 136.08ZM97.6158 128.544V127.6H102.816V128.544H97.6158ZM105.428 136V127.6H106.564V136H105.428ZM106.004 125.744C105.769 125.744 105.572 125.664 105.412 125.504C105.252 125.344 105.172 125.152 105.172 124.928C105.172 124.704 105.252 124.517 105.412 124.368C105.572 124.208 105.769 124.128 106.004 124.128C106.238 124.128 106.436 124.203 106.596 124.352C106.756 124.501 106.836 124.688 106.836 124.912C106.836 125.147 106.756 125.344 106.596 125.504C106.446 125.664 106.249 125.744 106.004 125.744ZM114.013 127.52C114.695 127.52 115.293 127.653 115.805 127.92C116.327 128.176 116.733 128.571 117.021 129.104C117.319 129.637 117.469 130.309 117.469 131.12V136H116.333V131.232C116.333 130.347 116.109 129.68 115.661 129.232C115.223 128.773 114.605 128.544 113.805 128.544C113.207 128.544 112.685 128.667 112.237 128.912C111.799 129.147 111.458 129.493 111.213 129.952C110.978 130.4 110.861 130.944 110.861 131.584V136H109.725V127.6H110.813V129.904L110.637 129.472C110.903 128.864 111.33 128.389 111.917 128.048C112.503 127.696 113.202 127.52 114.013 127.52ZM124.121 139.184C123.353 139.184 122.617 139.072 121.913 138.848C121.209 138.624 120.638 138.304 120.201 137.888L120.777 137.024C121.172 137.376 121.657 137.653 122.233 137.856C122.82 138.069 123.438 138.176 124.089 138.176C125.156 138.176 125.94 137.925 126.441 137.424C126.942 136.933 127.193 136.165 127.193 135.12V133.024L127.353 131.584L127.241 130.144V127.6H128.329V134.976C128.329 136.427 127.972 137.488 127.257 138.16C126.553 138.843 125.508 139.184 124.121 139.184ZM123.913 135.68C123.113 135.68 122.393 135.509 121.753 135.168C121.113 134.816 120.606 134.331 120.233 133.712C119.87 133.093 119.689 132.384 119.689 131.584C119.689 130.784 119.87 130.08 120.233 129.472C120.606 128.853 121.113 128.373 121.753 128.032C122.393 127.691 123.113 127.52 123.913 127.52C124.66 127.52 125.332 127.675 125.929 127.984C126.526 128.293 127.001 128.752 127.353 129.36C127.705 129.968 127.881 130.709 127.881 131.584C127.881 132.459 127.705 133.2 127.353 133.808C127.001 134.416 126.526 134.88 125.929 135.2C125.332 135.52 124.66 135.68 123.913 135.68ZM124.025 134.672C124.644 134.672 125.193 134.544 125.673 134.288C126.153 134.021 126.532 133.659 126.809 133.2C127.086 132.731 127.225 132.192 127.225 131.584C127.225 130.976 127.086 130.443 126.809 129.984C126.532 129.525 126.153 129.168 125.673 128.912C125.193 128.645 124.644 128.512 124.025 128.512C123.417 128.512 122.868 128.645 122.377 128.912C121.897 129.168 121.518 129.525 121.241 129.984C120.974 130.443 120.841 130.976 120.841 131.584C120.841 132.192 120.974 132.731 121.241 133.2C121.518 133.659 121.897 134.021 122.377 134.288C122.868 134.544 123.417 134.672 124.025 134.672ZM139.966 127.52C140.648 127.52 141.246 127.653 141.758 127.92C142.28 128.176 142.686 128.571 142.974 129.104C143.272 129.637 143.422 130.309 143.422 131.12V136H142.286V131.232C142.286 130.347 142.062 129.68 141.614 129.232C141.176 128.773 140.558 128.544 139.758 128.544C139.16 128.544 138.638 128.667 138.19 128.912C137.752 129.147 137.411 129.493 137.166 129.952C136.931 130.4 136.814 130.944 136.814 131.584V136H135.678V124.128H136.814V129.904L136.59 129.472C136.856 128.864 137.283 128.389 137.87 128.048C138.456 127.696 139.155 127.52 139.966 127.52ZM149.914 136.08C149.104 136.08 148.373 135.899 147.722 135.536C147.082 135.163 146.576 134.656 146.202 134.016C145.829 133.365 145.642 132.624 145.642 131.792C145.642 130.949 145.829 130.208 146.202 129.568C146.576 128.928 147.082 128.427 147.722 128.064C148.362 127.701 149.093 127.52 149.914 127.52C150.746 127.52 151.482 127.701 152.122 128.064C152.773 128.427 153.28 128.928 153.642 129.568C154.016 130.208 154.202 130.949 154.202 131.792C154.202 132.624 154.016 133.365 153.642 134.016C153.28 134.656 152.773 135.163 152.122 135.536C151.472 135.899 150.736 136.08 149.914 136.08ZM149.914 135.072C150.522 135.072 151.061 134.939 151.53 134.672C152 134.395 152.368 134.011 152.634 133.52C152.912 133.019 153.05 132.443 153.05 131.792C153.05 131.131 152.912 130.555 152.634 130.064C152.368 129.573 152 129.195 151.53 128.928C151.061 128.651 150.528 128.512 149.93 128.512C149.333 128.512 148.8 128.651 148.33 128.928C147.861 129.195 147.488 129.573 147.21 130.064C146.933 130.555 146.794 131.131 146.794 131.792C146.794 132.443 146.933 133.019 147.21 133.52C147.488 134.011 147.861 134.395 148.33 134.672C148.8 134.939 149.328 135.072 149.914 135.072ZM159.994 136.08C159.279 136.08 158.655 135.947 158.122 135.68C157.588 135.413 157.172 135.013 156.874 134.48C156.586 133.947 156.442 133.28 156.442 132.48V127.6H157.578V132.352C157.578 133.248 157.796 133.925 158.234 134.384C158.682 134.832 159.306 135.056 160.106 135.056C160.692 135.056 161.199 134.939 161.626 134.704C162.063 134.459 162.394 134.107 162.618 133.648C162.852 133.189 162.97 132.64 162.97 132V127.6H164.106V136H163.017V133.696L163.194 134.112C162.927 134.731 162.511 135.216 161.946 135.568C161.391 135.909 160.74 136.08 159.994 136.08ZM167.272 136V127.6H168.36V129.888L168.248 129.488C168.482 128.848 168.877 128.363 169.432 128.032C169.986 127.691 170.674 127.52 171.496 127.52V128.624C171.453 128.624 171.41 128.624 171.368 128.624C171.325 128.613 171.282 128.608 171.24 128.608C170.354 128.608 169.661 128.88 169.16 129.424C168.658 129.957 168.408 130.72 168.408 131.712V136H167.272ZM179.817 139.104C179.23 138.133 178.772 137.013 178.441 135.744C178.121 134.464 177.961 133.088 177.961 131.616C177.961 130.144 178.121 128.768 178.441 127.488C178.772 126.197 179.23 125.077 179.817 124.128H180.905C180.276 125.227 179.812 126.395 179.513 127.632C179.225 128.859 179.081 130.187 179.081 131.616C179.081 133.045 179.225 134.379 179.513 135.616C179.812 136.843 180.276 138.005 180.905 139.104H179.817ZM184.503 136V125.28L185.015 125.824H181.863V124.8H185.655V136H184.503ZM193.372 127.52C194.055 127.52 194.652 127.653 195.164 127.92C195.687 128.176 196.092 128.571 196.38 129.104C196.679 129.637 196.828 130.309 196.828 131.12V136H195.692V131.232C195.692 130.347 195.468 129.68 195.02 129.232C194.583 128.773 193.964 128.544 193.164 128.544C192.567 128.544 192.044 128.667 191.596 128.912C191.159 129.147 190.817 129.493 190.572 129.952C190.337 130.4 190.22 130.944 190.22 131.584V136H189.084V124.128H190.22V129.904L189.996 129.472C190.263 128.864 190.689 128.389 191.276 128.048C191.863 127.696 192.561 127.52 193.372 127.52ZM200.041 139.104H198.953C199.593 138.005 200.057 136.843 200.345 135.616C200.643 134.379 200.793 133.045 200.793 131.616C200.793 130.187 200.643 128.859 200.345 127.632C200.057 126.395 199.593 125.227 198.953 124.128H200.041C200.649 125.077 201.113 126.197 201.433 127.488C201.753 128.768 201.913 130.144 201.913 131.616C201.913 133.088 201.753 134.464 201.433 135.744C201.113 137.013 200.649 138.133 200.041 139.104ZM205.274 129.264C205.039 129.264 204.837 129.179 204.666 129.008C204.506 128.837 204.426 128.629 204.426 128.384C204.426 128.128 204.506 127.92 204.666 127.76C204.837 127.6 205.039 127.52 205.274 127.52C205.509 127.52 205.706 127.6 205.866 127.76C206.037 127.92 206.122 128.128 206.122 128.384C206.122 128.629 206.037 128.837 205.866 129.008C205.706 129.179 205.509 129.264 205.274 129.264ZM205.274 136.08C205.039 136.08 204.837 135.995 204.666 135.824C204.506 135.653 204.426 135.445 204.426 135.2C204.426 134.944 204.506 134.736 204.666 134.576C204.837 134.416 205.039 134.336 205.274 134.336C205.509 134.336 205.706 134.416 205.866 134.576C206.037 134.736 206.122 134.944 206.122 135.2C206.122 135.445 206.037 135.653 205.866 135.824C205.706 135.995 205.509 136.08 205.274 136.08ZM85.2784 154.224H91.1984V155.248H85.2784V154.224ZM85.4064 160H84.2224V148.8H91.9024V149.824H85.4064V160ZM97.2502 160.08C96.4395 160.08 95.7089 159.899 95.0582 159.536C94.4182 159.163 93.9115 158.656 93.5382 158.016C93.1649 157.365 92.9782 156.624 92.9782 155.792C92.9782 154.949 93.1649 154.208 93.5382 153.568C93.9115 152.928 94.4182 152.427 95.0582 152.064C95.6982 151.701 96.4289 151.52 97.2502 151.52C98.0822 151.52 98.8182 151.701 99.4582 152.064C100.109 152.427 100.616 152.928 100.978 153.568C101.352 154.208 101.538 154.949 101.538 155.792C101.538 156.624 101.352 157.365 100.978 158.016C100.616 158.656 100.109 159.163 99.4582 159.536C98.8075 159.899 98.0715 160.08 97.2502 160.08ZM97.2502 159.072C97.8582 159.072 98.3969 158.939 98.8662 158.672C99.3355 158.395 99.7035 158.011 99.9702 157.52C100.248 157.019 100.386 156.443 100.386 155.792C100.386 155.131 100.248 154.555 99.9702 154.064C99.7035 153.573 99.3355 153.195 98.8662 152.928C98.3969 152.651 97.8635 152.512 97.2662 152.512C96.6689 152.512 96.1355 152.651 95.6662 152.928C95.1969 153.195 94.8235 153.573 94.5462 154.064C94.2689 154.555 94.1302 155.131 94.1302 155.792C94.1302 156.443 94.2689 157.019 94.5462 157.52C94.8235 158.011 95.1969 158.395 95.6662 158.672C96.1355 158.939 96.6635 159.072 97.2502 159.072ZM103.857 160V151.6H104.945V153.888L104.833 153.488C105.068 152.848 105.463 152.363 106.017 152.032C106.572 151.691 107.26 151.52 108.081 151.52V152.624C108.039 152.624 107.996 152.624 107.953 152.624C107.911 152.613 107.868 152.608 107.825 152.608C106.94 152.608 106.247 152.88 105.745 153.424C105.244 153.957 104.993 154.72 104.993 155.712V160H103.857ZM115.667 160V149.28L116.179 149.824H113.027V148.8H116.819V160H115.667ZM125.332 157.824L125.364 156.368L130.596 151.6H131.988L128.292 155.136L127.652 155.68L125.332 157.824ZM124.436 160V148.128H125.572V160H124.436ZM130.948 160L127.444 155.632L128.18 154.752L132.34 160H130.948ZM134.045 160V151.6H135.181V160H134.045ZM134.621 149.744C134.386 149.744 134.189 149.664 134.029 149.504C133.869 149.344 133.789 149.152 133.789 148.928C133.789 148.704 133.869 148.517 134.029 148.368C134.189 148.208 134.386 148.128 134.621 148.128C134.856 148.128 135.053 148.203 135.213 148.352C135.373 148.501 135.453 148.688 135.453 148.912C135.453 149.147 135.373 149.344 135.213 149.504C135.064 149.664 134.866 149.744 134.621 149.744ZM141.686 160.08C140.886 160.08 140.166 159.899 139.526 159.536C138.896 159.173 138.4 158.672 138.038 158.032C137.675 157.381 137.494 156.635 137.494 155.792C137.494 154.939 137.675 154.192 138.038 153.552C138.4 152.912 138.896 152.416 139.526 152.064C140.166 151.701 140.886 151.52 141.686 151.52C142.422 151.52 143.078 151.685 143.654 152.016C144.24 152.347 144.704 152.832 145.046 153.472C145.398 154.101 145.574 154.875 145.574 155.792C145.574 156.699 145.403 157.472 145.062 158.112C144.72 158.752 144.256 159.243 143.67 159.584C143.094 159.915 142.432 160.08 141.686 160.08ZM141.766 159.072C142.363 159.072 142.896 158.939 143.366 158.672C143.846 158.395 144.219 158.011 144.486 157.52C144.763 157.019 144.902 156.443 144.902 155.792C144.902 155.131 144.763 154.555 144.486 154.064C144.219 153.573 143.846 153.195 143.366 152.928C142.896 152.651 142.363 152.512 141.766 152.512C141.179 152.512 140.651 152.651 140.182 152.928C139.712 153.195 139.339 153.573 139.062 154.064C138.784 154.555 138.646 155.131 138.646 155.792C138.646 156.443 138.784 157.019 139.062 157.52C139.339 158.011 139.712 158.395 140.182 158.672C140.651 158.939 141.179 159.072 141.766 159.072ZM144.934 160V157.472L145.046 155.776L144.886 154.08V148.128H146.022V160H144.934Z" fill="#1A1A1A"/>
<path d="M64.5261 197.288C62.9901 197.288 61.6541 196.968 60.5181 196.328C59.3981 195.688 58.5341 194.752 57.9261 193.52C57.3181 192.288 57.0141 190.768 57.0141 188.96C57.0141 187.024 57.3741 185.384 58.0941 184.04C58.8301 182.696 59.8381 181.672 61.1181 180.968C62.4141 180.264 63.9021 179.912 65.5821 179.912C66.4781 179.912 67.3341 180.008 68.1501 180.2C68.9661 180.392 69.6701 180.68 70.2621 181.064L68.8221 183.92C68.3581 183.6 67.8621 183.384 67.3341 183.272C66.8061 183.144 66.2541 183.08 65.6781 183.08C64.2221 183.08 63.0701 183.52 62.2221 184.4C61.3741 185.28 60.9501 186.584 60.9501 188.312C60.9501 188.6 60.9501 188.92 60.9501 189.272C60.9661 189.624 61.0141 189.976 61.0941 190.328L60.0141 189.32C60.3181 188.696 60.7101 188.176 61.1901 187.76C61.6701 187.328 62.2381 187.008 62.8941 186.8C63.5661 186.576 64.3021 186.464 65.1021 186.464C66.1901 186.464 67.1661 186.68 68.0301 187.112C68.8941 187.544 69.5821 188.152 70.0941 188.936C70.6221 189.72 70.8861 190.64 70.8861 191.696C70.8861 192.832 70.5981 193.824 70.0221 194.672C69.4621 195.504 68.7021 196.152 67.7421 196.616C66.7981 197.064 65.7261 197.288 64.5261 197.288ZM64.3101 194.384C64.8541 194.384 65.3341 194.288 65.7501 194.096C66.1821 193.888 66.5181 193.592 66.7581 193.208C66.9981 192.824 67.1181 192.384 67.1181 191.888C67.1181 191.12 66.8541 190.512 66.3261 190.064C65.8141 189.6 65.1261 189.368 64.2621 189.368C63.6861 189.368 63.1821 189.48 62.7501 189.704C62.3181 189.912 61.9741 190.208 61.7181 190.592C61.4781 190.96 61.3581 191.392 61.3581 191.888C61.3581 192.368 61.4781 192.8 61.7181 193.184C61.9581 193.552 62.2941 193.848 62.7261 194.072C63.1581 194.28 63.6861 194.384 64.3101 194.384ZM79.4954 197.288C78.1194 197.288 76.8874 196.952 75.7994 196.28C74.7114 195.592 73.8554 194.6 73.2314 193.304C72.6074 192.008 72.2954 190.44 72.2954 188.6C72.2954 186.76 72.6074 185.192 73.2314 183.896C73.8554 182.6 74.7114 181.616 75.7994 180.944C76.8874 180.256 78.1194 179.912 79.4954 179.912C80.8874 179.912 82.1194 180.256 83.1914 180.944C84.2794 181.616 85.1354 182.6 85.7594 183.896C86.3834 185.192 86.6954 186.76 86.6954 188.6C86.6954 190.44 86.3834 192.008 85.7594 193.304C85.1354 194.6 84.2794 195.592 83.1914 196.28C82.1194 196.952 80.8874 197.288 79.4954 197.288ZM79.4954 194C80.1514 194 80.7194 193.816 81.1994 193.448C81.6954 193.08 82.0794 192.496 82.3514 191.696C82.6394 190.896 82.7834 189.864 82.7834 188.6C82.7834 187.336 82.6394 186.304 82.3514 185.504C82.0794 184.704 81.6954 184.12 81.1994 183.752C80.7194 183.384 80.1514 183.2 79.4954 183.2C78.8554 183.2 78.2874 183.384 77.7914 183.752C77.3114 184.12 76.9274 184.704 76.6394 185.504C76.3674 186.304 76.2314 187.336 76.2314 188.6C76.2314 189.864 76.3674 190.896 76.6394 191.696C76.9274 192.496 77.3114 193.08 77.7914 193.448C78.2874 193.816 78.8554 194 79.4954 194ZM95.7844 197.288C94.4084 197.288 93.1764 196.952 92.0884 196.28C91.0004 195.592 90.1444 194.6 89.5204 193.304C88.8964 192.008 88.5844 190.44 88.5844 188.6C88.5844 186.76 88.8964 185.192 89.5204 183.896C90.1444 182.6 91.0004 181.616 92.0884 180.944C93.1764 180.256 94.4084 179.912 95.7844 179.912C97.1764 179.912 98.4084 180.256 99.4804 180.944C100.568 181.616 101.424 182.6 102.048 183.896C102.672 185.192 102.984 186.76 102.984 188.6C102.984 190.44 102.672 192.008 102.048 193.304C101.424 194.6 100.568 195.592 99.4804 196.28C98.4084 196.952 97.1764 197.288 95.7844 197.288ZM95.7844 194C96.4404 194 97.0084 193.816 97.4884 193.448C97.9844 193.08 98.3684 192.496 98.6404 191.696C98.9284 190.896 99.0724 189.864 99.0724 188.6C99.0724 187.336 98.9284 186.304 98.6404 185.504C98.3684 184.704 97.9844 184.12 97.4884 183.752C97.0084 183.384 96.4404 183.2 95.7844 183.2C95.1444 183.2 94.5764 183.384 94.0804 183.752C93.6004 184.12 93.2164 184.704 92.9284 185.504C92.6564 186.304 92.5204 187.336 92.5204 188.6C92.5204 189.864 92.6564 190.896 92.9284 191.696C93.2164 192.496 93.6004 193.08 94.0804 193.448C94.5764 193.816 95.1444 194 95.7844 194ZM112.726 197V180.2H119.998C121.502 180.2 122.798 180.448 123.886 180.944C124.974 181.424 125.814 182.12 126.406 183.032C126.998 183.944 127.294 185.032 127.294 186.296C127.294 187.544 126.998 188.624 126.406 189.536C125.814 190.432 124.974 191.12 123.886 191.6C122.798 192.08 121.502 192.32 119.998 192.32H114.886L116.614 190.616V197H112.726ZM123.406 197L119.206 190.904H123.358L127.606 197H123.406ZM116.614 191.048L114.886 189.224H119.782C120.982 189.224 121.878 188.968 122.47 188.456C123.062 187.928 123.358 187.208 123.358 186.296C123.358 185.368 123.062 184.648 122.47 184.136C121.878 183.624 120.982 183.368 119.782 183.368H114.886L116.614 181.52V191.048ZM135.895 197.288C134.551 197.288 133.263 197.112 132.031 196.76C130.799 196.392 129.807 195.92 129.055 195.344L130.375 192.416C131.095 192.928 131.943 193.352 132.919 193.688C133.911 194.008 134.911 194.168 135.919 194.168C136.687 194.168 137.303 194.096 137.767 193.952C138.247 193.792 138.599 193.576 138.823 193.304C139.047 193.032 139.159 192.72 139.159 192.368C139.159 191.92 138.983 191.568 138.631 191.312C138.279 191.04 137.815 190.824 137.239 190.664C136.663 190.488 136.023 190.328 135.319 190.184C134.631 190.024 133.935 189.832 133.231 189.608C132.543 189.384 131.911 189.096 131.335 188.744C130.759 188.392 130.287 187.928 129.919 187.352C129.567 186.776 129.391 186.04 129.391 185.144C129.391 184.184 129.647 183.312 130.159 182.528C130.687 181.728 131.471 181.096 132.511 180.632C133.567 180.152 134.887 179.912 136.471 179.912C137.527 179.912 138.567 180.04 139.591 180.296C140.615 180.536 141.519 180.904 142.303 181.4L141.103 184.352C140.319 183.904 139.535 183.576 138.751 183.368C137.967 183.144 137.199 183.032 136.447 183.032C135.695 183.032 135.079 183.12 134.599 183.296C134.119 183.472 133.775 183.704 133.567 183.992C133.359 184.264 133.255 184.584 133.255 184.952C133.255 185.384 133.431 185.736 133.783 186.008C134.135 186.264 134.599 186.472 135.175 186.632C135.751 186.792 136.383 186.952 137.071 187.112C137.775 187.272 138.471 187.456 139.159 187.664C139.863 187.872 140.503 188.152 141.079 188.504C141.655 188.856 142.119 189.32 142.471 189.896C142.839 190.472 143.023 191.2 143.023 192.08C143.023 193.024 142.759 193.888 142.231 194.672C141.703 195.456 140.911 196.088 139.855 196.568C138.815 197.048 137.495 197.288 135.895 197.288ZM145.68 197V180.2H153.312C155.136 180.2 156.744 180.552 158.136 181.256C159.528 181.944 160.616 182.912 161.4 184.16C162.184 185.408 162.576 186.888 162.576 188.6C162.576 190.296 162.184 191.776 161.4 193.04C160.616 194.288 159.528 195.264 158.136 195.968C156.744 196.656 155.136 197 153.312 197H145.68ZM149.568 193.808H153.12C154.24 193.808 155.208 193.6 156.023 193.184C156.856 192.752 157.496 192.144 157.944 191.36C158.408 190.576 158.64 189.656 158.64 188.6C158.64 187.528 158.408 186.608 157.944 185.84C157.496 185.056 156.856 184.456 156.023 184.04C155.208 183.608 154.24 183.392 153.12 183.392H149.568V193.808ZM173.62 182.504L170.428 184.256V183.632L173.62 185.36L172.444 187.328L169.468 185.552L169.804 185.336L169.852 188.672H167.596L167.62 185.336L167.956 185.552L164.98 187.328L163.828 185.36L167.02 183.632V184.256L163.828 182.504L164.98 180.536L167.956 182.336L167.62 182.528L167.596 179.192H169.852L169.804 182.528L169.468 182.336L172.444 180.536L173.62 182.504Z" fill="#1A1A1A"/>
<path d="M166.484 73H229V225H1V73H41.6815H75.4677" stroke="#1A1A1A"/>
<path d="M85.4458 67.188C86.9403 64.1091 89.0335 61.4109 91.329 58.8818C92.3054 57.6486 90.7238 55.8955 89.3926 56.7424C87.5186 57.9609 86.4028 59.9628 85.2118 61.7877C84.5025 63.3961 83.741 65.2085 83.9363 66.9975C84.0295 67.8675 85.1116 67.9339 85.4557 67.1784L85.4458 67.188ZM91.5102 95.0597C102.077 98.1399 120.149 95.8387 129.285 89.6836C130.847 88.46 129.326 85.976 127.537 86.7666C126.485 87.2666 125.461 87.855 124.427 88.3943C124.063 88.5738 123.681 88.6945 123.307 88.864C123.107 87.9435 122.781 87.0111 122.322 86.3986C124.251 85.4542 126.046 84.2733 127.602 82.8251C128.616 83.437 129.884 82.9014 130.969 82.7727C133.358 82.3042 135.747 81.8162 138.127 81.2987C144.355 79.9364 150.705 78.3029 156.195 74.9672C156.722 75.6101 157.426 76.0997 158.251 76.3766C157.622 77.8107 157.126 79.52 157.011 79.9768C156.591 81.8436 156.119 83.8365 156.615 85.7377C157.367 88.697 161.173 90.4668 163.685 88.4389C166.452 86.2981 166.079 82.2813 164.887 79.3636C164.452 78.5172 163.594 76.6394 162.567 75.6175C162.725 75.503 162.892 75.3984 163.041 75.2544C165.117 73.0145 164.671 70.47 163.142 69.0496C163.206 68.7384 163.26 68.4172 163.333 68.1159C163.661 66.5697 163.911 65.0026 163.81 63.4103C163.728 59.4763 160.282 54.1505 155.879 56.6257C151.587 59.5516 153.266 66.7027 157.503 68.9772C157.493 68.9868 157.473 69.006 157.463 69.0156C154.354 68.7991 151.229 68.9238 148.119 68.7267C144.695 68.7001 141.272 68.5175 137.884 68.0524C136.287 67.8117 134.702 67.5028 133.093 67.4083C132.986 67.3968 132.869 67.3949 132.771 67.3934C132.495 63.4171 131.078 59.3345 128.018 56.6693C125.723 54.3582 123.053 52.3336 119.958 51.2585C116.881 50.2228 113.661 49.6141 110.426 49.3271C110.53 48.958 110.527 48.5384 110.446 48.0979C113.647 48.6673 117.155 48.4219 120.403 48.5237C125.93 48.8967 131.679 48.7855 137.24 48.2809C140.094 48.0151 143.032 47.3604 145.373 45.6128C148.068 43.7538 148.576 40.0928 145.432 38.3924C143.22 37.0194 140.529 36.8584 137.997 36.5439C135.475 36.2588 132.996 36.238 130.463 36.5773C126.541 37.1086 122.763 38.4425 119.09 39.8464C115.65 41.3322 112.18 42.9053 109.09 45.0507C107.63 43.6607 105.054 43.6187 103.491 44.9204C103.017 45.2834 102.619 45.7649 102.308 46.2965C102.279 46.2668 102.25 46.2371 102.202 46.207C100.218 45.1695 98.3857 43.832 96.1792 43.2984C93.7309 42.6339 91.3753 41.6685 88.9263 41.043C85.3098 40.2034 81.6102 39.6747 77.8959 39.4483C75.8676 39.3567 73.7677 39.4688 71.7446 39.6603C69.8091 39.8629 67.784 40.1715 66.117 41.2665C61.7194 44.0444 66.1158 49.1221 69.59 50.3108C74.6636 52.1597 80.4 51.0627 85.6608 50.4068C89.7524 49.6342 93.911 49.5459 98.0555 49.1255C99.191 48.9098 100.644 48.9823 101.697 48.4237C101.703 48.6678 101.68 48.9016 101.744 49.1466C101.753 49.1956 101.771 49.2544 101.78 49.3034C99.0541 49.5224 96.3439 49.9564 93.6792 50.5961C90.0002 51.795 86.6271 53.9844 83.7936 56.5926C79.3773 60.5216 78.4247 66.8784 78.8209 72.5058C78.846 76.9561 81.1439 80.8579 84.5635 83.5973C87.5292 86.0462 91.1465 88.0373 94.9166 89.0356C94.6061 90.1235 94.2758 91.2306 94.0721 92.3495C93.5856 92.2635 93.0888 92.2066 92.5927 92.1107C90.169 91.7297 87.8707 90.8432 85.6431 89.8115C84.9461 89.4683 84.0756 88.9858 83.3077 89.4026C80.8628 91.5194 89.9336 94.7998 91.4808 95.069L91.5102 95.0597ZM157.193 65.8202C155.996 63.8684 155.361 60.872 157.031 59.0061C159.322 57.3649 160.747 60.9598 160.853 62.7961C161.02 64.5554 160.661 66.228 160.34 67.9598C160.008 67.9544 159.666 68.0171 159.323 68.0993C158.563 67.3941 157.755 66.7173 157.203 65.8301L157.193 65.8202ZM109.76 45.9008C110.26 45.7236 110.752 45.4974 110.988 45.4036C113.622 44.2365 116.266 43.0793 118.947 42.0593C125.768 39.643 132.469 38.0542 139.714 39.6068C141.416 39.9566 143.334 40.2123 144.611 41.5115C144.912 42.7557 143.162 43.6054 142.265 44.1471C140.307 45.1398 138.097 45.4161 135.936 45.6444C133.122 45.8717 130.309 46.0405 127.477 46.131C124.597 46.2304 121.713 45.9687 118.822 46.0973C117.015 46.2337 115.218 46.2825 113.404 46.2529C112.26 46.3417 111.074 46.0686 109.958 46.3237C109.938 46.3429 109.928 46.3524 109.908 46.3716C109.852 46.2146 109.787 46.0476 109.74 45.92L109.76 45.9008ZM91.0457 47.5183C88.2239 47.6186 85.436 48.0318 82.6407 48.2985C78.0989 48.5465 73.0307 49.3617 68.9435 46.8652C68.0577 46.1287 66.0313 44.7294 67.0083 43.4572C68.5026 42.1837 70.5347 42.0412 72.4114 41.8571C75.3727 41.5833 78.3961 41.6911 81.3456 42.1393C85.5046 42.6267 89.5673 43.6298 93.4963 45.0502C95.6619 45.7003 97.742 46.2026 99.7234 47.3767C96.8232 47.4953 93.945 47.4582 91.0553 47.5282L91.0457 47.5183ZM160.085 77.0018C160.35 77.494 160.675 77.9287 160.97 78.3922C162.218 80.2569 162.912 82.5614 162.759 84.8034C162.431 86.9449 160.15 86.8102 159.319 85.0597C158.554 82.3245 159.208 79.3491 159.838 76.6074C159.877 76.608 159.916 76.6087 159.965 76.5997C160.002 76.7369 160.009 76.8639 160.075 76.9919L160.085 77.0018ZM136.103 70.1215C140.262 71.2042 144.603 71.3237 148.874 71.5104C151.068 71.6535 153.271 71.7675 155.478 71.7059C155.332 72.25 155.323 72.7768 155.413 73.2857C147.307 76.6374 138.675 78.2142 130.117 79.9679C130.197 79.8521 130.296 79.7561 130.357 79.64C132.063 76.7402 132.568 73.2939 132.807 69.9897C132.822 69.6874 132.817 69.3848 132.822 69.0727C133.909 69.4612 134.995 69.8497 136.103 70.141L136.103 70.1215ZM103.7 48.2905C104.212 47.3913 105.19 46.6753 106.217 46.5262C107.739 46.551 107.597 48.071 107.881 49.1783C107.121 49.1464 106.36 49.1145 105.599 49.1216C104.848 49.1191 104.115 49.156 103.363 49.1925C103.466 48.8819 103.558 48.5809 103.7 48.2905ZM81.6865 75.1092C80.8038 69.9911 80.8621 64.0198 84.0943 59.7007C87.0278 56.3427 91.0384 53.9587 95.2096 52.4946C95.6702 52.3753 96.1398 52.3049 96.6096 52.2149C96.8304 52.443 97.0713 52.6323 97.2053 52.7906C98.0031 53.5355 98.8105 54.2904 99.4401 55.1789C100.891 57.1347 101.448 59.5151 101.594 61.9083C101.956 64.8418 101.019 67.8614 98.7912 69.8451C94.2306 73.645 88.19 74.8444 82.3902 75.0426C82.1462 75.0484 81.9303 75.1229 81.7524 75.2567C81.7339 75.1978 81.7054 75.1486 81.6868 75.0897L81.6865 75.1092ZM82.71 77.5753C84.0349 77.714 85.3943 77.5312 86.7144 77.3673C93.5313 76.4343 101.972 74.0639 104.441 66.8535C105.825 61.5772 104.668 54.7664 99.7699 51.7102C102.537 51.3942 105.329 51.3227 108.09 51.3384C115.676 51.7158 121.647 52.9841 126.74 59.0588C131.209 63.8743 130.826 71.7725 128.585 77.5716C126.669 81.3657 122.863 83.7823 118.956 85.1824C114.38 86.962 109.418 87.2519 104.548 87.2799C100.136 87.3056 95.5897 87.251 91.604 85.1172C88.1774 83.4024 84.6062 80.9827 82.7199 77.5657L82.71 77.5753ZM97.4596 90.4726C97.4833 90.2192 97.489 89.868 97.4653 89.526C100.271 89.845 103.12 89.8329 105.941 89.8106C108.431 89.6853 110.822 89.6754 113.298 89.2571C115.529 88.8641 117.793 88.2667 119.973 87.4435C119.753 88.367 119.6 89.3599 119.741 90.299C112.577 92.7975 104.883 93.6187 97.3338 92.8028C97.4438 92.0434 97.3698 91.1932 97.4596 90.4726Z" fill="#F2B199"/>
</svg>
