<svg width="230" height="226" viewBox="0 0 230 226" fill="none" xmlns="http://www.w3.org/2000/svg">
<path d="M28.1923 115.039H34.1123V116.047H28.1923V115.039ZM28.3203 120.207H35.0563V121.231H27.1363V110.031H34.8163V111.055H28.3203V120.207ZM42.7384 121.231V119.375L42.6904 119.071V115.967C42.6904 115.253 42.4877 114.703 42.0824 114.319C41.6877 113.935 41.0957 113.743 40.3064 113.743C39.7624 113.743 39.245 113.834 38.7544 114.015C38.2637 114.197 37.8477 114.437 37.5064 114.735L36.9944 113.887C37.421 113.525 37.933 113.247 38.5304 113.055C39.1277 112.853 39.757 112.751 40.4184 112.751C41.5064 112.751 42.3437 113.023 42.9304 113.567C43.5277 114.101 43.8264 114.917 43.8264 116.015V121.231H42.7384ZM39.8424 121.311C39.213 121.311 38.6637 121.21 38.1944 121.007C37.7357 120.794 37.3837 120.506 37.1384 120.143C36.893 119.77 36.7704 119.343 36.7704 118.863C36.7704 118.426 36.8717 118.031 37.0744 117.679C37.2877 117.317 37.629 117.029 38.0984 116.815C38.5784 116.591 39.2184 116.479 40.0184 116.479H42.9144V117.327H40.0504C39.2397 117.327 38.6744 117.471 38.3544 117.759C38.045 118.047 37.8904 118.405 37.8904 118.831C37.8904 119.311 38.077 119.695 38.4504 119.983C38.8237 120.271 39.3464 120.415 40.0184 120.415C40.6584 120.415 41.2077 120.271 41.6664 119.983C42.1357 119.685 42.477 119.258 42.6904 118.703L42.9464 119.487C42.733 120.042 42.3597 120.485 41.8264 120.815C41.3037 121.146 40.6424 121.311 39.8424 121.311ZM50.3999 121.311C49.5679 121.311 48.8212 121.13 48.1599 120.767C47.5092 120.394 46.9972 119.887 46.6239 119.247C46.2505 118.597 46.0639 117.855 46.0639 117.023C46.0639 116.181 46.2505 115.439 46.6239 114.799C46.9972 114.159 47.5092 113.658 48.1599 113.295C48.8212 112.933 49.5679 112.751 50.3999 112.751C51.1145 112.751 51.7599 112.89 52.3359 113.167C52.9119 113.445 53.3652 113.861 53.6959 114.415L52.8479 114.991C52.5599 114.565 52.2025 114.25 51.7759 114.047C51.3492 113.845 50.8852 113.743 50.3839 113.743C49.7865 113.743 49.2479 113.882 48.7679 114.159C48.2879 114.426 47.9092 114.805 47.6319 115.295C47.3545 115.786 47.2159 116.362 47.2159 117.023C47.2159 117.685 47.3545 118.261 47.6319 118.751C47.9092 119.242 48.2879 119.626 48.7679 119.903C49.2479 120.17 49.7865 120.303 50.3839 120.303C50.8852 120.303 51.3492 120.202 51.7759 119.999C52.2025 119.797 52.5599 119.487 52.8479 119.071L53.6959 119.647C53.3652 120.191 52.9119 120.607 52.3359 120.895C51.7599 121.173 51.1145 121.311 50.3999 121.311ZM60.0905 112.751C60.7732 112.751 61.3705 112.885 61.8825 113.151C62.4052 113.407 62.8105 113.802 63.0985 114.335C63.3972 114.869 63.5465 115.541 63.5465 116.351V121.231H62.4105V116.463C62.4105 115.578 62.1865 114.911 61.7385 114.463C61.3012 114.005 60.6825 113.775 59.8825 113.775C59.2852 113.775 58.7625 113.898 58.3145 114.143C57.8772 114.378 57.5358 114.725 57.2905 115.183C57.0558 115.631 56.9385 116.175 56.9385 116.815V121.231H55.8025V109.359H56.9385V115.135L56.7145 114.703C56.9812 114.095 57.4078 113.621 57.9945 113.279C58.5812 112.927 59.2798 112.751 60.0905 112.751ZM73.0585 121.311C72.3652 121.311 71.7092 121.215 71.0905 121.023C70.4718 120.821 69.9865 120.57 69.6345 120.271L70.1465 119.375C70.4878 119.631 70.9252 119.855 71.4585 120.047C71.9918 120.229 72.5518 120.319 73.1385 120.319C73.9385 120.319 74.5145 120.197 74.8665 119.951C75.2185 119.695 75.3945 119.359 75.3945 118.943C75.3945 118.634 75.2932 118.394 75.0905 118.223C74.8985 118.042 74.6425 117.909 74.3225 117.823C74.0025 117.727 73.6452 117.647 73.2505 117.583C72.8558 117.519 72.4612 117.445 72.0665 117.359C71.6825 117.274 71.3305 117.151 71.0105 116.991C70.6905 116.821 70.4292 116.591 70.2265 116.303C70.0345 116.015 69.9385 115.631 69.9385 115.151C69.9385 114.693 70.0665 114.282 70.3225 113.919C70.5785 113.557 70.9518 113.274 71.4425 113.071C71.9438 112.858 72.5518 112.751 73.2665 112.751C73.8105 112.751 74.3545 112.826 74.8985 112.975C75.4425 113.114 75.8905 113.301 76.2425 113.535L75.7465 114.447C75.3732 114.191 74.9732 114.01 74.5465 113.903C74.1198 113.786 73.6932 113.727 73.2665 113.727C72.5092 113.727 71.9492 113.861 71.5865 114.127C71.2345 114.383 71.0585 114.714 71.0585 115.119C71.0585 115.439 71.1545 115.69 71.3465 115.871C71.5492 116.053 71.8105 116.197 72.1305 116.303C72.4612 116.399 72.8185 116.479 73.2025 116.543C73.5972 116.607 73.9865 116.687 74.3705 116.783C74.7652 116.869 75.1225 116.991 75.4425 117.151C75.7732 117.301 76.0345 117.519 76.2265 117.807C76.4292 118.085 76.5305 118.453 76.5305 118.911C76.5305 119.402 76.3918 119.829 76.1145 120.191C75.8478 120.543 75.4532 120.821 74.9305 121.023C74.4185 121.215 73.7945 121.311 73.0585 121.311ZM81.271 121.311C80.4817 121.311 79.8737 121.098 79.447 120.671C79.0203 120.245 78.807 119.642 78.807 118.863V110.975H79.943V118.799C79.943 119.29 80.0657 119.669 80.311 119.935C80.567 120.202 80.9297 120.335 81.399 120.335C81.9003 120.335 82.3163 120.191 82.647 119.903L83.047 120.719C82.823 120.922 82.551 121.071 82.231 121.167C81.9217 121.263 81.6017 121.311 81.271 121.311ZM77.303 113.775V112.831H82.503V113.775H77.303ZM90.379 121.231V119.375L90.331 119.071V115.967C90.331 115.253 90.1283 114.703 89.723 114.319C89.3283 113.935 88.7363 113.743 87.947 113.743C87.403 113.743 86.8857 113.834 86.395 114.015C85.9043 114.197 85.4883 114.437 85.147 114.735L84.635 113.887C85.0617 113.525 85.5737 113.247 86.171 113.055C86.7683 112.853 87.3977 112.751 88.059 112.751C89.147 112.751 89.9843 113.023 90.571 113.567C91.1683 114.101 91.467 114.917 91.467 116.015V121.231H90.379ZM87.483 121.311C86.8537 121.311 86.3043 121.21 85.835 121.007C85.3763 120.794 85.0243 120.506 84.779 120.143C84.5337 119.77 84.411 119.343 84.411 118.863C84.411 118.426 84.5123 118.031 84.715 117.679C84.9283 117.317 85.2697 117.029 85.739 116.815C86.219 116.591 86.859 116.479 87.659 116.479H90.555V117.327H87.691C86.8803 117.327 86.315 117.471 85.995 117.759C85.6857 118.047 85.531 118.405 85.531 118.831C85.531 119.311 85.7177 119.695 86.091 119.983C86.4643 120.271 86.987 120.415 87.659 120.415C88.299 120.415 88.8483 120.271 89.307 119.983C89.7763 119.685 90.1177 119.258 90.331 118.703L90.587 119.487C90.3737 120.042 90.0003 120.485 89.467 120.815C88.9443 121.146 88.283 121.311 87.483 121.311ZM94.5525 121.231V112.831H95.6405V115.119L95.5285 114.719C95.7632 114.079 96.1578 113.594 96.7125 113.263C97.2672 112.922 97.9552 112.751 98.7765 112.751V113.855C98.7338 113.855 98.6912 113.855 98.6485 113.855C98.6058 113.845 98.5632 113.839 98.5205 113.839C97.6352 113.839 96.9418 114.111 96.4405 114.655C95.9392 115.189 95.6885 115.951 95.6885 116.943V121.231H94.5525ZM103.865 121.311C103.075 121.311 102.467 121.098 102.041 120.671C101.614 120.245 101.401 119.642 101.401 118.863V110.975H102.537V118.799C102.537 119.29 102.659 119.669 102.905 119.935C103.161 120.202 103.523 120.335 103.993 120.335C104.494 120.335 104.91 120.191 105.241 119.903L105.641 120.719C105.417 120.922 105.145 121.071 104.825 121.167C104.515 121.263 104.195 121.311 103.865 121.311ZM99.8968 113.775V112.831H105.097V113.775H99.8968ZM107.709 121.231V112.831H108.845V121.231H107.709ZM108.285 110.975C108.05 110.975 107.853 110.895 107.693 110.735C107.533 110.575 107.453 110.383 107.453 110.159C107.453 109.935 107.533 109.749 107.693 109.599C107.853 109.439 108.05 109.359 108.285 109.359C108.519 109.359 108.717 109.434 108.877 109.583C109.037 109.733 109.117 109.919 109.117 110.143C109.117 110.378 109.037 110.575 108.877 110.735C108.727 110.895 108.53 110.975 108.285 110.975ZM116.294 112.751C116.976 112.751 117.574 112.885 118.086 113.151C118.608 113.407 119.014 113.802 119.302 114.335C119.6 114.869 119.75 115.541 119.75 116.351V121.231H118.614V116.463C118.614 115.578 118.39 114.911 117.942 114.463C117.504 114.005 116.886 113.775 116.086 113.775C115.488 113.775 114.966 113.898 114.518 114.143C114.08 114.378 113.739 114.725 113.494 115.183C113.259 115.631 113.142 116.175 113.142 116.815V121.231H112.006V112.831H113.094V115.135L112.918 114.703C113.184 114.095 113.611 113.621 114.198 113.279C114.784 112.927 115.483 112.751 116.294 112.751ZM126.402 124.415C125.634 124.415 124.898 124.303 124.194 124.079C123.49 123.855 122.919 123.535 122.482 123.119L123.058 122.255C123.453 122.607 123.938 122.885 124.514 123.087C125.101 123.301 125.719 123.407 126.37 123.407C127.437 123.407 128.221 123.157 128.722 122.655C129.223 122.165 129.474 121.397 129.474 120.351V118.255L129.634 116.815L129.522 115.375V112.831H130.61V120.207C130.61 121.658 130.253 122.719 129.538 123.391C128.834 124.074 127.789 124.415 126.402 124.415ZM126.194 120.911C125.394 120.911 124.674 120.741 124.034 120.399C123.394 120.047 122.887 119.562 122.514 118.943C122.151 118.325 121.97 117.615 121.97 116.815C121.97 116.015 122.151 115.311 122.514 114.703C122.887 114.085 123.394 113.605 124.034 113.263C124.674 112.922 125.394 112.751 126.194 112.751C126.941 112.751 127.613 112.906 128.21 113.215C128.807 113.525 129.282 113.983 129.634 114.591C129.986 115.199 130.162 115.941 130.162 116.815C130.162 117.69 129.986 118.431 129.634 119.039C129.282 119.647 128.807 120.111 128.21 120.431C127.613 120.751 126.941 120.911 126.194 120.911ZM126.306 119.903C126.925 119.903 127.474 119.775 127.954 119.519C128.434 119.253 128.813 118.89 129.09 118.431C129.367 117.962 129.506 117.423 129.506 116.815C129.506 116.207 129.367 115.674 129.09 115.215C128.813 114.757 128.434 114.399 127.954 114.143C127.474 113.877 126.925 113.743 126.306 113.743C125.698 113.743 125.149 113.877 124.658 114.143C124.178 114.399 123.799 114.757 123.522 115.215C123.255 115.674 123.122 116.207 123.122 116.815C123.122 117.423 123.255 117.962 123.522 118.431C123.799 118.89 124.178 119.253 124.658 119.519C125.149 119.775 125.698 119.903 126.306 119.903ZM142.247 112.751C142.929 112.751 143.527 112.885 144.039 113.151C144.561 113.407 144.967 113.802 145.255 114.335C145.553 114.869 145.703 115.541 145.703 116.351V121.231H144.567V116.463C144.567 115.578 144.343 114.911 143.895 114.463C143.457 114.005 142.839 113.775 142.039 113.775C141.441 113.775 140.919 113.898 140.471 114.143C140.033 114.378 139.692 114.725 139.447 115.183C139.212 115.631 139.095 116.175 139.095 116.815V121.231H137.959V109.359H139.095V115.135L138.871 114.703C139.137 114.095 139.564 113.621 140.151 113.279C140.737 112.927 141.436 112.751 142.247 112.751ZM152.195 121.311C151.385 121.311 150.654 121.13 150.003 120.767C149.363 120.394 148.857 119.887 148.483 119.247C148.11 118.597 147.923 117.855 147.923 117.023C147.923 116.181 148.11 115.439 148.483 114.799C148.857 114.159 149.363 113.658 150.003 113.295C150.643 112.933 151.374 112.751 152.195 112.751C153.027 112.751 153.763 112.933 154.403 113.295C155.054 113.658 155.561 114.159 155.923 114.799C156.297 115.439 156.483 116.181 156.483 117.023C156.483 117.855 156.297 118.597 155.923 119.247C155.561 119.887 155.054 120.394 154.403 120.767C153.753 121.13 153.017 121.311 152.195 121.311ZM152.195 120.303C152.803 120.303 153.342 120.17 153.811 119.903C154.281 119.626 154.649 119.242 154.915 118.751C155.193 118.25 155.331 117.674 155.331 117.023C155.331 116.362 155.193 115.786 154.915 115.295C154.649 114.805 154.281 114.426 153.811 114.159C153.342 113.882 152.809 113.743 152.211 113.743C151.614 113.743 151.081 113.882 150.611 114.159C150.142 114.426 149.769 114.805 149.491 115.295C149.214 115.786 149.075 116.362 149.075 117.023C149.075 117.674 149.214 118.25 149.491 118.751C149.769 119.242 150.142 119.626 150.611 119.903C151.081 120.17 151.609 120.303 152.195 120.303ZM162.275 121.311C161.56 121.311 160.936 121.178 160.403 120.911C159.869 120.645 159.453 120.245 159.155 119.711C158.867 119.178 158.723 118.511 158.723 117.711V112.831H159.859V117.583C159.859 118.479 160.077 119.157 160.515 119.615C160.963 120.063 161.587 120.287 162.387 120.287C162.973 120.287 163.48 120.17 163.907 119.935C164.344 119.69 164.675 119.338 164.899 118.879C165.133 118.421 165.251 117.871 165.251 117.231V112.831H166.387V121.231H165.299V118.927L165.475 119.343C165.208 119.962 164.792 120.447 164.227 120.799C163.672 121.141 163.021 121.311 162.275 121.311ZM169.553 121.231V112.831H170.641V115.119L170.529 114.719C170.763 114.079 171.158 113.594 171.713 113.263C172.267 112.922 172.955 112.751 173.777 112.751V113.855C173.734 113.855 173.691 113.855 173.649 113.855C173.606 113.845 173.563 113.839 173.521 113.839C172.635 113.839 171.942 114.111 171.441 114.655C170.939 115.189 170.689 115.951 170.689 116.943V121.231H169.553ZM182.098 124.335C181.511 123.365 181.053 122.245 180.722 120.975C180.402 119.695 180.242 118.319 180.242 116.847C180.242 115.375 180.402 113.999 180.722 112.719C181.053 111.429 181.511 110.309 182.098 109.359H183.186C182.557 110.458 182.093 111.626 181.794 112.863C181.506 114.09 181.362 115.418 181.362 116.847C181.362 118.277 181.506 119.61 181.794 120.847C182.093 122.074 182.557 123.237 183.186 124.335H182.098ZM186.784 121.231V110.511L187.296 111.055H184.144V110.031H187.936V121.231H186.784ZM195.653 112.751C196.336 112.751 196.933 112.885 197.445 113.151C197.968 113.407 198.373 113.802 198.661 114.335C198.96 114.869 199.109 115.541 199.109 116.351V121.231H197.973V116.463C197.973 115.578 197.749 114.911 197.301 114.463C196.864 114.005 196.245 113.775 195.445 113.775C194.848 113.775 194.325 113.898 193.877 114.143C193.44 114.378 193.098 114.725 192.853 115.183C192.618 115.631 192.501 116.175 192.501 116.815V121.231H191.365V109.359H192.501V115.135L192.277 114.703C192.544 114.095 192.97 113.621 193.557 113.279C194.144 112.927 194.842 112.751 195.653 112.751ZM202.322 124.335H201.234C201.874 123.237 202.338 122.074 202.626 120.847C202.924 119.61 203.074 118.277 203.074 116.847C203.074 115.418 202.924 114.09 202.626 112.863C202.338 111.626 201.874 110.458 201.234 109.359H202.322C202.93 110.309 203.394 111.429 203.714 112.719C204.034 113.999 204.194 115.375 204.194 116.847C204.194 118.319 204.034 119.695 203.714 120.975C203.394 122.245 202.93 123.365 202.322 124.335ZM207.555 114.495C207.32 114.495 207.118 114.41 206.947 114.239C206.787 114.069 206.707 113.861 206.707 113.615C206.707 113.359 206.787 113.151 206.947 112.991C207.118 112.831 207.32 112.751 207.555 112.751C207.79 112.751 207.987 112.831 208.147 112.991C208.318 113.151 208.403 113.359 208.403 113.615C208.403 113.861 208.318 114.069 208.147 114.239C207.987 114.41 207.79 114.495 207.555 114.495ZM207.555 121.311C207.32 121.311 207.118 121.226 206.947 121.055C206.787 120.885 206.707 120.677 206.707 120.431C206.707 120.175 206.787 119.967 206.947 119.807C207.118 119.647 207.32 119.567 207.555 119.567C207.79 119.567 207.987 119.647 208.147 119.807C208.318 119.967 208.403 120.175 208.403 120.431C208.403 120.677 208.318 120.885 208.147 121.055C207.987 121.226 207.79 121.311 207.555 121.311ZM85.9032 139.455H91.8232V140.479H85.9032V139.455ZM86.0312 145.231H84.8472V134.031H92.5272V135.055H86.0312V145.231ZM97.8749 145.311C97.0643 145.311 96.3336 145.13 95.6829 144.767C95.0429 144.394 94.5363 143.887 94.1629 143.247C93.7896 142.597 93.6029 141.855 93.6029 141.023C93.6029 140.181 93.7896 139.439 94.1629 138.799C94.5363 138.159 95.0429 137.658 95.6829 137.295C96.3229 136.933 97.0536 136.751 97.8749 136.751C98.7069 136.751 99.4429 136.933 100.083 137.295C100.734 137.658 101.24 138.159 101.603 138.799C101.976 139.439 102.163 140.181 102.163 141.023C102.163 141.855 101.976 142.597 101.603 143.247C101.24 143.887 100.734 144.394 100.083 144.767C99.4323 145.13 98.6963 145.311 97.8749 145.311ZM97.8749 144.303C98.4829 144.303 99.0216 144.17 99.4909 143.903C99.9603 143.626 100.328 143.242 100.595 142.751C100.872 142.25 101.011 141.674 101.011 141.023C101.011 140.362 100.872 139.786 100.595 139.295C100.328 138.805 99.9603 138.426 99.4909 138.159C99.0216 137.882 98.4883 137.743 97.8909 137.743C97.2936 137.743 96.7603 137.882 96.2909 138.159C95.8216 138.426 95.4483 138.805 95.1709 139.295C94.8936 139.786 94.7549 140.362 94.7549 141.023C94.7549 141.674 94.8936 142.25 95.1709 142.751C95.4483 143.242 95.8216 143.626 96.2909 143.903C96.7603 144.17 97.2883 144.303 97.8749 144.303ZM104.482 145.231V136.831H105.57V139.119L105.458 138.719C105.693 138.079 106.088 137.594 106.642 137.263C107.197 136.922 107.885 136.751 108.706 136.751V137.855C108.664 137.855 108.621 137.855 108.578 137.855C108.536 137.845 108.493 137.839 108.45 137.839C107.565 137.839 106.872 138.111 106.37 138.655C105.869 139.189 105.618 139.951 105.618 140.943V145.231H104.482ZM114.132 145.231V144.415L118.788 139.855C119.214 139.439 119.534 139.077 119.748 138.767C119.961 138.447 120.105 138.149 120.18 137.871C120.254 137.594 120.292 137.333 120.292 137.087C120.292 136.437 120.068 135.925 119.62 135.551C119.182 135.178 118.532 134.991 117.668 134.991C117.006 134.991 116.42 135.093 115.908 135.295C115.406 135.498 114.974 135.813 114.612 136.239L113.796 135.535C114.233 135.023 114.793 134.629 115.476 134.351C116.158 134.074 116.921 133.935 117.764 133.935C118.521 133.935 119.177 134.058 119.732 134.303C120.286 134.538 120.713 134.885 121.012 135.343C121.321 135.802 121.476 136.341 121.476 136.959C121.476 137.322 121.422 137.679 121.316 138.031C121.22 138.383 121.038 138.757 120.772 139.151C120.516 139.535 120.137 139.973 119.636 140.463L115.364 144.655L115.044 144.207H121.988V145.231H114.132ZM129.269 143.055L129.301 141.599L134.533 136.831H135.925L132.229 140.367L131.589 140.911L129.269 143.055ZM128.373 145.231V133.359H129.509V145.231H128.373ZM134.885 145.231L131.381 140.863L132.117 139.983L136.277 145.231H134.885ZM137.982 145.231V136.831H139.118V145.231H137.982ZM138.558 134.975C138.324 134.975 138.126 134.895 137.966 134.735C137.806 134.575 137.726 134.383 137.726 134.159C137.726 133.935 137.806 133.749 137.966 133.599C138.126 133.439 138.324 133.359 138.558 133.359C138.793 133.359 138.99 133.434 139.15 133.583C139.31 133.733 139.39 133.919 139.39 134.143C139.39 134.378 139.31 134.575 139.15 134.735C139.001 134.895 138.804 134.975 138.558 134.975ZM145.623 145.311C144.823 145.311 144.103 145.13 143.463 144.767C142.834 144.405 142.338 143.903 141.975 143.263C141.612 142.613 141.431 141.866 141.431 141.023C141.431 140.17 141.612 139.423 141.975 138.783C142.338 138.143 142.834 137.647 143.463 137.295C144.103 136.933 144.823 136.751 145.623 136.751C146.359 136.751 147.015 136.917 147.591 137.247C148.178 137.578 148.642 138.063 148.983 138.703C149.335 139.333 149.511 140.106 149.511 141.023C149.511 141.93 149.34 142.703 148.999 143.343C148.658 143.983 148.194 144.474 147.607 144.815C147.031 145.146 146.37 145.311 145.623 145.311ZM145.703 144.303C146.3 144.303 146.834 144.17 147.303 143.903C147.783 143.626 148.156 143.242 148.423 142.751C148.7 142.25 148.839 141.674 148.839 141.023C148.839 140.362 148.7 139.786 148.423 139.295C148.156 138.805 147.783 138.426 147.303 138.159C146.834 137.882 146.3 137.743 145.703 137.743C145.116 137.743 144.588 137.882 144.119 138.159C143.65 138.426 143.276 138.805 142.999 139.295C142.722 139.786 142.583 140.362 142.583 141.023C142.583 141.674 142.722 142.25 142.999 142.751C143.276 143.242 143.65 143.626 144.119 143.903C144.588 144.17 145.116 144.303 145.703 144.303ZM148.871 145.231V142.703L148.983 141.007L148.823 139.311V133.359H149.959V145.231H148.871Z" fill="#1A1A1A"/>
<path d="M65.9739 182.519C64.5659 182.519 63.3339 182.311 62.2779 181.895C61.2219 181.463 60.3979 180.863 59.8059 180.095C59.2139 179.311 58.9179 178.399 58.9179 177.359C58.9179 176.319 59.2059 175.439 59.7819 174.719C60.3739 173.983 61.1979 173.431 62.2539 173.063C63.3099 172.679 64.5499 172.487 65.9739 172.487C67.4139 172.487 68.6619 172.679 69.7179 173.063C70.7899 173.431 71.6139 173.983 72.1899 174.719C72.7819 175.439 73.0779 176.319 73.0779 177.359C73.0779 178.399 72.7819 179.311 72.1899 180.095C71.5979 180.863 70.7659 181.463 69.6939 181.895C68.6379 182.311 67.3979 182.519 65.9739 182.519ZM65.9739 179.663C66.9499 179.663 67.7179 179.447 68.2779 179.015C68.8539 178.583 69.1419 177.991 69.1419 177.239C69.1419 176.487 68.8539 175.903 68.2779 175.487C67.7179 175.055 66.9499 174.839 65.9739 174.839C65.0139 174.839 64.2539 175.055 63.6939 175.487C63.1339 175.903 62.8539 176.487 62.8539 177.239C62.8539 177.991 63.1339 178.583 63.6939 179.015C64.2539 179.447 65.0139 179.663 65.9739 179.663ZM65.9739 174.455C64.6779 174.455 63.5419 174.279 62.5659 173.927C61.6059 173.575 60.8539 173.063 60.3099 172.391C59.7819 171.703 59.5179 170.887 59.5179 169.943C59.5179 168.951 59.7899 168.103 60.3339 167.399C60.8779 166.679 61.6379 166.127 62.6139 165.743C63.5899 165.343 64.7099 165.143 65.9739 165.143C67.2699 165.143 68.3979 165.343 69.3579 165.743C70.3339 166.127 71.0939 166.679 71.6379 167.399C72.1979 168.103 72.4779 168.951 72.4779 169.943C72.4779 170.887 72.2059 171.703 71.6619 172.391C71.1339 173.063 70.3819 173.575 69.4059 173.927C68.4299 174.279 67.2859 174.455 65.9739 174.455ZM65.9739 172.175C66.7899 172.175 67.4299 171.991 67.8939 171.623C68.3739 171.255 68.6139 170.751 68.6139 170.111C68.6139 169.439 68.3659 168.919 67.8699 168.551C67.3899 168.183 66.7579 167.999 65.9739 167.999C65.2059 167.999 64.5819 168.183 64.1019 168.551C63.6219 168.919 63.3819 169.439 63.3819 170.111C63.3819 170.751 63.6139 171.255 64.0779 171.623C64.5419 171.991 65.1739 172.175 65.9739 172.175ZM82.0576 182.519C80.6816 182.519 79.4496 182.183 78.3616 181.511C77.2736 180.823 76.4176 179.831 75.7936 178.535C75.1696 177.239 74.8576 175.671 74.8576 173.831C74.8576 171.991 75.1696 170.423 75.7936 169.127C76.4176 167.831 77.2736 166.847 78.3616 166.175C79.4496 165.487 80.6816 165.143 82.0576 165.143C83.4496 165.143 84.6816 165.487 85.7536 166.175C86.8416 166.847 87.6976 167.831 88.3216 169.127C88.9456 170.423 89.2576 171.991 89.2576 173.831C89.2576 175.671 88.9456 177.239 88.3216 178.535C87.6976 179.831 86.8416 180.823 85.7536 181.511C84.6816 182.183 83.4496 182.519 82.0576 182.519ZM82.0576 179.231C82.7136 179.231 83.2816 179.047 83.7616 178.679C84.2576 178.311 84.6416 177.727 84.9136 176.927C85.2016 176.127 85.3456 175.095 85.3456 173.831C85.3456 172.567 85.2016 171.535 84.9136 170.735C84.6416 169.935 84.2576 169.351 83.7616 168.983C83.2816 168.615 82.7136 168.431 82.0576 168.431C81.4176 168.431 80.8496 168.615 80.3536 168.983C79.8736 169.351 79.4896 169.935 79.2016 170.735C78.9296 171.535 78.7936 172.567 78.7936 173.831C78.7936 175.095 78.9296 176.127 79.2016 176.927C79.4896 177.727 79.8736 178.311 80.3536 178.679C80.8496 179.047 81.4176 179.231 82.0576 179.231ZM98.3467 182.519C96.9707 182.519 95.7387 182.183 94.6507 181.511C93.5627 180.823 92.7067 179.831 92.0827 178.535C91.4587 177.239 91.1467 175.671 91.1467 173.831C91.1467 171.991 91.4587 170.423 92.0827 169.127C92.7067 167.831 93.5627 166.847 94.6507 166.175C95.7387 165.487 96.9707 165.143 98.3467 165.143C99.7387 165.143 100.971 165.487 102.043 166.175C103.131 166.847 103.987 167.831 104.611 169.127C105.235 170.423 105.547 171.991 105.547 173.831C105.547 175.671 105.235 177.239 104.611 178.535C103.987 179.831 103.131 180.823 102.043 181.511C100.971 182.183 99.7387 182.519 98.3467 182.519ZM98.3467 179.231C99.0027 179.231 99.5707 179.047 100.051 178.679C100.547 178.311 100.931 177.727 101.203 176.927C101.491 176.127 101.635 175.095 101.635 173.831C101.635 172.567 101.491 171.535 101.203 170.735C100.931 169.935 100.547 169.351 100.051 168.983C99.5707 168.615 99.0027 168.431 98.3467 168.431C97.7067 168.431 97.1387 168.615 96.6427 168.983C96.1627 169.351 95.7787 169.935 95.4907 170.735C95.2187 171.535 95.0827 172.567 95.0827 173.831C95.0827 175.095 95.2187 176.127 95.4907 176.927C95.7787 177.727 96.1627 178.311 96.6427 178.679C97.1387 179.047 97.7067 179.231 98.3467 179.231ZM115.289 182.231V165.431H122.561C124.065 165.431 125.361 165.679 126.449 166.175C127.537 166.655 128.377 167.351 128.969 168.263C129.561 169.175 129.857 170.263 129.857 171.527C129.857 172.775 129.561 173.855 128.969 174.767C128.377 175.663 127.537 176.351 126.449 176.831C125.361 177.311 124.065 177.551 122.561 177.551H117.449L119.177 175.847V182.231H115.289ZM125.969 182.231L121.769 176.135H125.921L130.169 182.231H125.969ZM119.177 176.279L117.449 174.455H122.345C123.545 174.455 124.441 174.199 125.033 173.687C125.625 173.159 125.921 172.439 125.921 171.527C125.921 170.599 125.625 169.879 125.033 169.367C124.441 168.855 123.545 168.599 122.345 168.599H117.449L119.177 166.751V176.279ZM138.457 182.519C137.113 182.519 135.825 182.343 134.593 181.991C133.361 181.623 132.369 181.151 131.617 180.575L132.937 177.647C133.657 178.159 134.505 178.583 135.481 178.919C136.473 179.239 137.473 179.399 138.481 179.399C139.249 179.399 139.865 179.327 140.329 179.183C140.809 179.023 141.161 178.807 141.385 178.535C141.609 178.263 141.721 177.951 141.721 177.599C141.721 177.151 141.545 176.799 141.193 176.543C140.841 176.271 140.377 176.055 139.801 175.895C139.225 175.719 138.585 175.559 137.881 175.415C137.193 175.255 136.497 175.063 135.793 174.839C135.105 174.615 134.473 174.327 133.897 173.975C133.321 173.623 132.849 173.159 132.481 172.583C132.129 172.007 131.953 171.271 131.953 170.375C131.953 169.415 132.209 168.543 132.721 167.759C133.249 166.959 134.033 166.327 135.073 165.863C136.129 165.383 137.449 165.143 139.033 165.143C140.089 165.143 141.129 165.271 142.153 165.527C143.177 165.767 144.081 166.135 144.865 166.631L143.665 169.583C142.881 169.135 142.097 168.807 141.313 168.599C140.529 168.375 139.761 168.263 139.009 168.263C138.257 168.263 137.641 168.351 137.161 168.527C136.681 168.703 136.337 168.935 136.129 169.223C135.921 169.495 135.817 169.815 135.817 170.183C135.817 170.615 135.993 170.967 136.345 171.239C136.697 171.495 137.161 171.703 137.737 171.863C138.313 172.023 138.945 172.183 139.633 172.343C140.337 172.503 141.033 172.687 141.721 172.895C142.425 173.103 143.065 173.383 143.641 173.735C144.217 174.087 144.681 174.551 145.033 175.127C145.401 175.703 145.585 176.431 145.585 177.311C145.585 178.255 145.321 179.119 144.793 179.903C144.265 180.687 143.473 181.319 142.417 181.799C141.377 182.279 140.057 182.519 138.457 182.519ZM148.242 182.231V165.431H155.874C157.698 165.431 159.306 165.783 160.698 166.487C162.09 167.175 163.178 168.143 163.962 169.391C164.746 170.639 165.138 172.119 165.138 173.831C165.138 175.527 164.746 177.007 163.962 178.271C163.178 179.519 162.09 180.495 160.698 181.199C159.306 181.887 157.698 182.231 155.874 182.231H148.242ZM152.13 179.039H155.682C156.802 179.039 157.77 178.831 158.586 178.415C159.418 177.983 160.058 177.375 160.506 176.591C160.97 175.807 161.202 174.887 161.202 173.831C161.202 172.759 160.97 171.839 160.506 171.071C160.058 170.287 159.418 169.687 158.586 169.271C157.77 168.839 156.802 168.623 155.682 168.623H152.13V179.039ZM176.182 167.735L172.99 169.487V168.863L176.182 170.591L175.006 172.559L172.03 170.783L172.366 170.567L172.414 173.903H170.158L170.182 170.567L170.518 170.783L167.542 172.559L166.39 170.591L169.582 168.863V169.487L166.39 167.735L167.542 165.767L170.518 167.567L170.182 167.759L170.158 164.423H172.414L172.366 167.759L172.03 167.567L175.006 165.767L176.182 167.735Z" fill="#1A1A1A"/>
<path d="M74.5 73H1V225H229V73H163" stroke="#1A1A1A"/>
<path d="M132.287 10.3133C132.287 10.3133 132.287 10.2941 132.287 10.2749C132.287 10.2749 132.287 10.2941 132.287 10.3133ZM124.405 36.8905C121.674 37.2354 124.47 44.2103 126.485 44.0762C127.411 44.2295 128.322 43.4246 128.452 42.3133C128.679 39.8222 126.355 37.2929 124.421 36.8905H124.405ZM135.603 27.7504C135.018 28.8618 135.586 30.2223 135.895 31.3337C136.334 32.5217 136.87 33.8246 137.829 34.5336C139.081 35.4917 140.869 34.0738 140.592 32.3492C140.56 30.7205 136.854 25.9684 135.586 27.7313L135.603 27.7504ZM154.813 62.4139C153.513 60.3636 152.067 58.4666 150.718 56.4546C149.434 54.5001 148.036 52.6606 146.671 50.7827C146.102 50.1504 145.159 48.6749 144.152 47.7169C145.582 46.2797 146.882 44.651 148.003 42.869C150.214 38.8067 151.839 33.8247 151.628 28.9193C151.059 25.1827 149.287 21.8486 147.5 18.7636C145.598 15.7552 143.111 13.3791 140.917 10.6965C138.008 7.55399 135.164 4.29652 132.06 1.42227C131.198 0.54083 129.914 -0.877105 129.004 0.732475C128.208 3.16601 129.167 5.88693 129.459 8.35878C129.931 11.3863 130.321 14.4139 130.857 17.4223C127.883 19.3576 125.006 21.4846 122.227 23.8031C120.504 25.2019 118.505 26.4666 117.124 28.4019C113.499 26.6199 109.55 26.1792 105.714 25.3935C100.871 24.4546 104.414 31.851 105.438 34.2079C108.607 40.3205 111.663 46.8355 116.669 51.1085C119.87 54.251 124.112 55.1325 128.175 55.2857C133.051 54.9983 137.894 53.0055 141.958 49.7097C142.218 50.0546 142.526 50.3612 142.786 50.6103C143.485 51.3768 144.119 52.2007 144.769 53.0055C147.597 56.7803 150.506 60.4977 153.123 64.4833C153.432 65.3264 154.829 67.051 153.822 67.7408C150.88 69.772 147.337 67.5684 144.184 67.5109C142.201 67.3768 141.876 69.1588 142.51 70.9983C143.111 73.3935 143.762 75.7695 144.184 78.2031C145.403 84.9671 143.892 85.4462 139.975 80.7516C138.317 78.4138 136.838 75.9228 135.245 73.5276C134.579 72.2438 133.409 71.324 132.19 72.2629C128.387 74.4665 124.6 76.7085 120.618 78.3947C116.652 79.9085 112.443 80.8666 108.217 81.154C106.803 81.0199 106.348 82.3612 106.088 83.7408C105.178 87.3815 104.528 91.1372 103.471 94.7204C100.969 102.692 100.172 100.948 97.8481 94.2223C97.1167 91.5588 96.7429 88.7611 96.4829 85.9827C96.3854 85.1971 96.4016 84.2965 95.9628 83.645C95.5565 83.0127 94.8414 82.7252 94.2076 83.051C93.3137 83.53 93.0374 84.7755 92.566 85.6953C91.0383 88.8378 90.0631 92.3827 88.0478 95.1612C87.4952 88.857 88.8605 82.457 90.1444 76.3444C90.4207 75.0989 90.8433 73.7959 90.632 72.4929C89.7381 69.6186 87.609 67.4917 86.0813 65.0773C83.9847 62.0115 82.3107 58.5815 80.8154 55.0749C79.759 52.5264 78.4588 49.5755 77.9388 46.6246C76.8173 39.6306 83.0421 46.5288 84.456 48.6175C86.7314 51.6642 94.9714 65.4989 98.6445 63.9468C101.294 62.2222 103.715 60.0187 106.478 58.5049C109.274 56.7229 112.508 55.324 115.482 53.8103C116.685 51.0127 110.216 53.5037 109.241 53.9636C105.259 55.669 101.602 58.1983 97.9131 60.6318C93.1674 56.6462 90.0957 50.6294 86.2276 45.6091C83.5296 41.6618 75.7609 36.5456 75.2083 45.0151C75.1596 48.0618 76.2647 50.9169 77.2236 53.6762C79.0114 58.5624 80.8967 63.4486 83.6596 67.6833C84.9111 69.657 86.3251 71.4773 87.5765 73.451C86.195 80.5025 84.4885 87.7072 84.8786 95.0078C85.0899 98.6102 87.9666 100.469 90.2095 97.5947C91.8672 95.4102 92.7773 92.6318 93.8988 90.045C94.5326 94.548 95.7841 100.565 99.2296 103.171C105.617 106.352 107.535 89.1444 108.705 84.3731C113.434 84.2582 118.261 83.3576 122.682 81.3264C126.306 79.5827 129.687 77.3983 133.116 75.0222C135.538 78.8162 137.553 83.2809 141.015 85.8869C142.494 87.0175 144.655 87.5157 146.004 85.8869C148.686 82.5145 145.842 74.4282 144.899 70.4617C148.036 71.0941 151.774 72.742 154.781 70.6726C155.805 69.9827 156.699 68.8522 156.699 67.3767C156.682 65.5181 155.691 63.9085 154.813 62.4522V62.4139ZM134.563 49.9588C132.759 50.6486 130.662 51.3576 128.679 51.5684C125.916 51.645 123.023 51.4534 120.488 50.0163C117.449 47.9851 114.946 44.881 112.995 41.5085C110.736 37.2738 107.908 32.9815 106.153 28.3636C109.777 28.7276 113.402 29.2833 117.042 30.2222C118.456 32.2342 119.74 29.245 121.04 28.4785C123.657 26.4282 126.453 24.0714 129.167 22.1169C130.288 21.2355 131.458 20.4115 132.629 19.6258C133.067 19.3001 133.441 18.8402 133.506 18.2079C133.36 15.5636 132.661 12.9384 132.303 10.3324C131.978 8.10968 131.328 5.98275 131.02 3.75999C135.408 7.99472 139.438 12.7468 143.241 17.7289C144.85 19.7792 146.297 22.4618 147.337 25.0486C147.955 26.5624 148.637 28.1528 148.637 29.8965C147.76 39.4965 142.364 47.0845 134.579 49.9779L134.563 49.9588Z" fill="#8FA5BC"/>
</svg>
