<svg width="250" height="214" viewBox="0 0 250 214" fill="none" xmlns="http://www.w3.org/2000/svg">
<path d="M35.9113 118.808H41.8313V119.816H35.9113V118.808ZM36.0393 123.976H42.7753V125H34.8553V113.8H42.5353V114.824H36.0393V123.976ZM50.4574 125V123.144L50.4094 122.84V119.736C50.4094 119.021 50.2067 118.472 49.8014 118.088C49.4067 117.704 48.8147 117.512 48.0254 117.512C47.4814 117.512 46.964 117.603 46.4734 117.784C45.9827 117.965 45.5667 118.205 45.2254 118.504L44.7134 117.656C45.14 117.293 45.652 117.016 46.2494 116.824C46.8467 116.621 47.476 116.52 48.1374 116.52C49.2254 116.52 50.0627 116.792 50.6494 117.336C51.2467 117.869 51.5454 118.685 51.5454 119.784V125H50.4574ZM47.5614 125.08C46.932 125.08 46.3827 124.979 45.9134 124.776C45.4547 124.563 45.1027 124.275 44.8574 123.912C44.612 123.539 44.4894 123.112 44.4894 122.632C44.4894 122.195 44.5907 121.8 44.7934 121.448C45.0067 121.085 45.348 120.797 45.8174 120.584C46.2974 120.36 46.9374 120.248 47.7374 120.248H50.6334V121.096H47.7694C46.9587 121.096 46.3934 121.24 46.0734 121.528C45.764 121.816 45.6094 122.173 45.6094 122.6C45.6094 123.08 45.796 123.464 46.1694 123.752C46.5427 124.04 47.0654 124.184 47.7374 124.184C48.3774 124.184 48.9267 124.04 49.3854 123.752C49.8547 123.453 50.196 123.027 50.4094 122.472L50.6654 123.256C50.452 123.811 50.0787 124.253 49.5454 124.584C49.0227 124.915 48.3614 125.08 47.5614 125.08ZM58.1189 125.08C57.2869 125.08 56.5402 124.899 55.8789 124.536C55.2282 124.163 54.7162 123.656 54.3429 123.016C53.9695 122.365 53.7829 121.624 53.7829 120.792C53.7829 119.949 53.9695 119.208 54.3429 118.568C54.7162 117.928 55.2282 117.427 55.8789 117.064C56.5402 116.701 57.2869 116.52 58.1189 116.52C58.8335 116.52 59.4789 116.659 60.0549 116.936C60.6309 117.213 61.0842 117.629 61.4149 118.184L60.5669 118.76C60.2789 118.333 59.9215 118.019 59.4949 117.816C59.0682 117.613 58.6042 117.512 58.1029 117.512C57.5055 117.512 56.9669 117.651 56.4869 117.928C56.0069 118.195 55.6282 118.573 55.3509 119.064C55.0735 119.555 54.9349 120.131 54.9349 120.792C54.9349 121.453 55.0735 122.029 55.3509 122.52C55.6282 123.011 56.0069 123.395 56.4869 123.672C56.9669 123.939 57.5055 124.072 58.1029 124.072C58.6042 124.072 59.0682 123.971 59.4949 123.768C59.9215 123.565 60.2789 123.256 60.5669 122.84L61.4149 123.416C61.0842 123.96 60.6309 124.376 60.0549 124.664C59.4789 124.941 58.8335 125.08 58.1189 125.08ZM67.8095 116.52C68.4922 116.52 69.0895 116.653 69.6015 116.92C70.1242 117.176 70.5295 117.571 70.8175 118.104C71.1162 118.637 71.2655 119.309 71.2655 120.12V125H70.1295V120.232C70.1295 119.347 69.9055 118.68 69.4575 118.232C69.0202 117.773 68.4015 117.544 67.6015 117.544C67.0042 117.544 66.4815 117.667 66.0335 117.912C65.5962 118.147 65.2548 118.493 65.0095 118.952C64.7748 119.4 64.6575 119.944 64.6575 120.584V125H63.5215V113.128H64.6575V118.904L64.4335 118.472C64.7002 117.864 65.1268 117.389 65.7135 117.048C66.3002 116.696 66.9988 116.52 67.8095 116.52ZM80.7775 125.08C80.0842 125.08 79.4282 124.984 78.8095 124.792C78.1908 124.589 77.7055 124.339 77.3535 124.04L77.8655 123.144C78.2068 123.4 78.6442 123.624 79.1775 123.816C79.7108 123.997 80.2708 124.088 80.8575 124.088C81.6575 124.088 82.2335 123.965 82.5855 123.72C82.9375 123.464 83.1135 123.128 83.1135 122.712C83.1135 122.403 83.0122 122.163 82.8095 121.992C82.6175 121.811 82.3615 121.677 82.0415 121.592C81.7215 121.496 81.3642 121.416 80.9695 121.352C80.5748 121.288 80.1802 121.213 79.7855 121.128C79.4015 121.043 79.0495 120.92 78.7295 120.76C78.4095 120.589 78.1482 120.36 77.9455 120.072C77.7535 119.784 77.6575 119.4 77.6575 118.92C77.6575 118.461 77.7855 118.051 78.0415 117.688C78.2975 117.325 78.6708 117.043 79.1615 116.84C79.6628 116.627 80.2708 116.52 80.9855 116.52C81.5295 116.52 82.0735 116.595 82.6175 116.744C83.1615 116.883 83.6095 117.069 83.9615 117.304L83.4655 118.216C83.0922 117.96 82.6922 117.779 82.2655 117.672C81.8388 117.555 81.4122 117.496 80.9855 117.496C80.2282 117.496 79.6682 117.629 79.3055 117.896C78.9535 118.152 78.7775 118.483 78.7775 118.888C78.7775 119.208 78.8735 119.459 79.0655 119.64C79.2682 119.821 79.5295 119.965 79.8495 120.072C80.1802 120.168 80.5375 120.248 80.9215 120.312C81.3162 120.376 81.7055 120.456 82.0895 120.552C82.4842 120.637 82.8415 120.76 83.1615 120.92C83.4922 121.069 83.7535 121.288 83.9455 121.576C84.1482 121.853 84.2495 122.221 84.2495 122.68C84.2495 123.171 84.1108 123.597 83.8335 123.96C83.5668 124.312 83.1722 124.589 82.6495 124.792C82.1375 124.984 81.5135 125.08 80.7775 125.08ZM88.99 125.08C88.2007 125.08 87.5927 124.867 87.166 124.44C86.7393 124.013 86.526 123.411 86.526 122.632V114.744H87.662V122.568C87.662 123.059 87.7847 123.437 88.03 123.704C88.286 123.971 88.6487 124.104 89.118 124.104C89.6193 124.104 90.0353 123.96 90.366 123.672L90.766 124.488C90.542 124.691 90.27 124.84 89.95 124.936C89.6407 125.032 89.3207 125.08 88.99 125.08ZM85.022 117.544V116.6H90.222V117.544H85.022ZM98.098 125V123.144L98.05 122.84V119.736C98.05 119.021 97.8473 118.472 97.442 118.088C97.0473 117.704 96.4553 117.512 95.666 117.512C95.122 117.512 94.6047 117.603 94.114 117.784C93.6233 117.965 93.2073 118.205 92.866 118.504L92.354 117.656C92.7807 117.293 93.2927 117.016 93.89 116.824C94.4873 116.621 95.1167 116.52 95.778 116.52C96.866 116.52 97.7033 116.792 98.29 117.336C98.8873 117.869 99.186 118.685 99.186 119.784V125H98.098ZM95.202 125.08C94.5727 125.08 94.0233 124.979 93.554 124.776C93.0953 124.563 92.7433 124.275 92.498 123.912C92.2527 123.539 92.13 123.112 92.13 122.632C92.13 122.195 92.2313 121.8 92.434 121.448C92.6473 121.085 92.9887 120.797 93.458 120.584C93.938 120.36 94.578 120.248 95.378 120.248H98.274V121.096H95.41C94.5993 121.096 94.034 121.24 93.714 121.528C93.4047 121.816 93.25 122.173 93.25 122.6C93.25 123.08 93.4367 123.464 93.81 123.752C94.1833 124.04 94.706 124.184 95.378 124.184C96.018 124.184 96.5673 124.04 97.026 123.752C97.4953 123.453 97.8367 123.027 98.05 122.472L98.306 123.256C98.0927 123.811 97.7193 124.253 97.186 124.584C96.6633 124.915 96.002 125.08 95.202 125.08ZM102.272 125V116.6H103.36V118.888L103.248 118.488C103.482 117.848 103.877 117.363 104.432 117.032C104.986 116.691 105.674 116.52 106.496 116.52V117.624C106.453 117.624 106.41 117.624 106.368 117.624C106.325 117.613 106.282 117.608 106.24 117.608C105.354 117.608 104.661 117.88 104.16 118.424C103.658 118.957 103.408 119.72 103.408 120.712V125H102.272ZM111.584 125.08C110.794 125.08 110.186 124.867 109.76 124.44C109.333 124.013 109.12 123.411 109.12 122.632V114.744H110.256V122.568C110.256 123.059 110.378 123.437 110.624 123.704C110.88 123.971 111.242 124.104 111.712 124.104C112.213 124.104 112.629 123.96 112.96 123.672L113.36 124.488C113.136 124.691 112.864 124.84 112.544 124.936C112.234 125.032 111.914 125.08 111.584 125.08ZM107.616 117.544V116.6H112.816V117.544H107.616ZM115.428 125V116.6H116.564V125H115.428ZM116.004 114.744C115.769 114.744 115.572 114.664 115.412 114.504C115.252 114.344 115.172 114.152 115.172 113.928C115.172 113.704 115.252 113.517 115.412 113.368C115.572 113.208 115.769 113.128 116.004 113.128C116.238 113.128 116.436 113.203 116.596 113.352C116.756 113.501 116.836 113.688 116.836 113.912C116.836 114.147 116.756 114.344 116.596 114.504C116.446 114.664 116.249 114.744 116.004 114.744ZM124.013 116.52C124.695 116.52 125.293 116.653 125.805 116.92C126.327 117.176 126.733 117.571 127.021 118.104C127.319 118.637 127.469 119.309 127.469 120.12V125H126.333V120.232C126.333 119.347 126.109 118.68 125.661 118.232C125.223 117.773 124.605 117.544 123.805 117.544C123.207 117.544 122.685 117.667 122.237 117.912C121.799 118.147 121.458 118.493 121.213 118.952C120.978 119.4 120.861 119.944 120.861 120.584V125H119.725V116.6H120.813V118.904L120.637 118.472C120.903 117.864 121.33 117.389 121.917 117.048C122.503 116.696 123.202 116.52 124.013 116.52ZM134.121 128.184C133.353 128.184 132.617 128.072 131.913 127.848C131.209 127.624 130.638 127.304 130.201 126.888L130.777 126.024C131.172 126.376 131.657 126.653 132.233 126.856C132.82 127.069 133.438 127.176 134.089 127.176C135.156 127.176 135.94 126.925 136.441 126.424C136.942 125.933 137.193 125.165 137.193 124.12V122.024L137.353 120.584L137.241 119.144V116.6H138.329V123.976C138.329 125.427 137.972 126.488 137.257 127.16C136.553 127.843 135.508 128.184 134.121 128.184ZM133.913 124.68C133.113 124.68 132.393 124.509 131.753 124.168C131.113 123.816 130.606 123.331 130.233 122.712C129.87 122.093 129.689 121.384 129.689 120.584C129.689 119.784 129.87 119.08 130.233 118.472C130.606 117.853 131.113 117.373 131.753 117.032C132.393 116.691 133.113 116.52 133.913 116.52C134.66 116.52 135.332 116.675 135.929 116.984C136.526 117.293 137.001 117.752 137.353 118.36C137.705 118.968 137.881 119.709 137.881 120.584C137.881 121.459 137.705 122.2 137.353 122.808C137.001 123.416 136.526 123.88 135.929 124.2C135.332 124.52 134.66 124.68 133.913 124.68ZM134.025 123.672C134.644 123.672 135.193 123.544 135.673 123.288C136.153 123.021 136.532 122.659 136.809 122.2C137.086 121.731 137.225 121.192 137.225 120.584C137.225 119.976 137.086 119.443 136.809 118.984C136.532 118.525 136.153 118.168 135.673 117.912C135.193 117.645 134.644 117.512 134.025 117.512C133.417 117.512 132.868 117.645 132.377 117.912C131.897 118.168 131.518 118.525 131.241 118.984C130.974 119.443 130.841 119.976 130.841 120.584C130.841 121.192 130.974 121.731 131.241 122.2C131.518 122.659 131.897 123.021 132.377 123.288C132.868 123.544 133.417 123.672 134.025 123.672ZM149.966 116.52C150.648 116.52 151.246 116.653 151.758 116.92C152.28 117.176 152.686 117.571 152.974 118.104C153.272 118.637 153.422 119.309 153.422 120.12V125H152.286V120.232C152.286 119.347 152.062 118.68 151.614 118.232C151.176 117.773 150.558 117.544 149.758 117.544C149.16 117.544 148.638 117.667 148.19 117.912C147.752 118.147 147.411 118.493 147.166 118.952C146.931 119.4 146.814 119.944 146.814 120.584V125H145.678V113.128H146.814V118.904L146.59 118.472C146.856 117.864 147.283 117.389 147.87 117.048C148.456 116.696 149.155 116.52 149.966 116.52ZM159.914 125.08C159.104 125.08 158.373 124.899 157.722 124.536C157.082 124.163 156.576 123.656 156.202 123.016C155.829 122.365 155.642 121.624 155.642 120.792C155.642 119.949 155.829 119.208 156.202 118.568C156.576 117.928 157.082 117.427 157.722 117.064C158.362 116.701 159.093 116.52 159.914 116.52C160.746 116.52 161.482 116.701 162.122 117.064C162.773 117.427 163.28 117.928 163.642 118.568C164.016 119.208 164.202 119.949 164.202 120.792C164.202 121.624 164.016 122.365 163.642 123.016C163.28 123.656 162.773 124.163 162.122 124.536C161.472 124.899 160.736 125.08 159.914 125.08ZM159.914 124.072C160.522 124.072 161.061 123.939 161.53 123.672C162 123.395 162.368 123.011 162.634 122.52C162.912 122.019 163.05 121.443 163.05 120.792C163.05 120.131 162.912 119.555 162.634 119.064C162.368 118.573 162 118.195 161.53 117.928C161.061 117.651 160.528 117.512 159.93 117.512C159.333 117.512 158.8 117.651 158.33 117.928C157.861 118.195 157.488 118.573 157.21 119.064C156.933 119.555 156.794 120.131 156.794 120.792C156.794 121.443 156.933 122.019 157.21 122.52C157.488 123.011 157.861 123.395 158.33 123.672C158.8 123.939 159.328 124.072 159.914 124.072ZM169.994 125.08C169.279 125.08 168.655 124.947 168.122 124.68C167.588 124.413 167.172 124.013 166.874 123.48C166.586 122.947 166.442 122.28 166.442 121.48V116.6H167.578V121.352C167.578 122.248 167.796 122.925 168.234 123.384C168.682 123.832 169.306 124.056 170.106 124.056C170.692 124.056 171.199 123.939 171.626 123.704C172.063 123.459 172.394 123.107 172.618 122.648C172.852 122.189 172.97 121.64 172.97 121V116.6H174.106V125H173.017V122.696L173.194 123.112C172.927 123.731 172.511 124.216 171.946 124.568C171.391 124.909 170.74 125.08 169.994 125.08ZM177.272 125V116.6H178.36V118.888L178.248 118.488C178.482 117.848 178.877 117.363 179.432 117.032C179.986 116.691 180.674 116.52 181.496 116.52V117.624C181.453 117.624 181.41 117.624 181.368 117.624C181.325 117.613 181.282 117.608 181.24 117.608C180.354 117.608 179.661 117.88 179.16 118.424C178.658 118.957 178.408 119.72 178.408 120.712V125H177.272ZM189.817 128.104C189.23 127.133 188.772 126.013 188.441 124.744C188.121 123.464 187.961 122.088 187.961 120.616C187.961 119.144 188.121 117.768 188.441 116.488C188.772 115.197 189.23 114.077 189.817 113.128H190.905C190.276 114.227 189.812 115.395 189.513 116.632C189.225 117.859 189.081 119.187 189.081 120.616C189.081 122.045 189.225 123.379 189.513 124.616C189.812 125.843 190.276 127.005 190.905 128.104H189.817ZM194.503 125V114.28L195.015 114.824H191.863V113.8H195.655V125H194.503ZM203.372 116.52C204.055 116.52 204.652 116.653 205.164 116.92C205.687 117.176 206.092 117.571 206.38 118.104C206.679 118.637 206.828 119.309 206.828 120.12V125H205.692V120.232C205.692 119.347 205.468 118.68 205.02 118.232C204.583 117.773 203.964 117.544 203.164 117.544C202.567 117.544 202.044 117.667 201.596 117.912C201.159 118.147 200.817 118.493 200.572 118.952C200.337 119.4 200.22 119.944 200.22 120.584V125H199.084V113.128H200.22V118.904L199.996 118.472C200.263 117.864 200.689 117.389 201.276 117.048C201.863 116.696 202.561 116.52 203.372 116.52ZM210.041 128.104H208.953C209.593 127.005 210.057 125.843 210.345 124.616C210.643 123.379 210.793 122.045 210.793 120.616C210.793 119.187 210.643 117.859 210.345 116.632C210.057 115.395 209.593 114.227 208.953 113.128H210.041C210.649 114.077 211.113 115.197 211.433 116.488C211.753 117.768 211.913 119.144 211.913 120.616C211.913 122.088 211.753 123.464 211.433 124.744C211.113 126.013 210.649 127.133 210.041 128.104ZM215.274 118.264C215.039 118.264 214.837 118.179 214.666 118.008C214.506 117.837 214.426 117.629 214.426 117.384C214.426 117.128 214.506 116.92 214.666 116.76C214.837 116.6 215.039 116.52 215.274 116.52C215.509 116.52 215.706 116.6 215.866 116.76C216.037 116.92 216.122 117.128 216.122 117.384C216.122 117.629 216.037 117.837 215.866 118.008C215.706 118.179 215.509 118.264 215.274 118.264ZM215.274 125.08C215.039 125.08 214.837 124.995 214.666 124.824C214.506 124.653 214.426 124.445 214.426 124.2C214.426 123.944 214.506 123.736 214.666 123.576C214.837 123.416 215.039 123.336 215.274 123.336C215.509 123.336 215.706 123.416 215.866 123.576C216.037 123.736 216.122 123.944 216.122 124.2C216.122 124.445 216.037 124.653 215.866 124.824C215.706 124.995 215.509 125.08 215.274 125.08ZM89.7472 143.224H95.6672V144.248H89.7472V143.224ZM89.8752 149H88.6912V137.8H96.3712V138.824H89.8752V149ZM101.719 149.08C100.908 149.08 100.178 148.899 99.5269 148.536C98.8869 148.163 98.3803 147.656 98.0069 147.016C97.6336 146.365 97.4469 145.624 97.4469 144.792C97.4469 143.949 97.6336 143.208 98.0069 142.568C98.3803 141.928 98.8869 141.427 99.5269 141.064C100.167 140.701 100.898 140.52 101.719 140.52C102.551 140.52 103.287 140.701 103.927 141.064C104.578 141.427 105.084 141.928 105.447 142.568C105.82 143.208 106.007 143.949 106.007 144.792C106.007 145.624 105.82 146.365 105.447 147.016C105.084 147.656 104.578 148.163 103.927 148.536C103.276 148.899 102.54 149.08 101.719 149.08ZM101.719 148.072C102.327 148.072 102.866 147.939 103.335 147.672C103.804 147.395 104.172 147.011 104.439 146.52C104.716 146.019 104.855 145.443 104.855 144.792C104.855 144.131 104.716 143.555 104.439 143.064C104.172 142.573 103.804 142.195 103.335 141.928C102.866 141.651 102.332 141.512 101.735 141.512C101.138 141.512 100.604 141.651 100.135 141.928C99.6656 142.195 99.2923 142.573 99.0149 143.064C98.7376 143.555 98.5989 144.131 98.5989 144.792C98.5989 145.443 98.7376 146.019 99.0149 146.52C99.2923 147.011 99.6656 147.395 100.135 147.672C100.604 147.939 101.132 148.072 101.719 148.072ZM108.326 149V140.6H109.414V142.888L109.302 142.488C109.537 141.848 109.932 141.363 110.486 141.032C111.041 140.691 111.729 140.52 112.55 140.52V141.624C112.508 141.624 112.465 141.624 112.422 141.624C112.38 141.613 112.337 141.608 112.294 141.608C111.409 141.608 110.716 141.88 110.214 142.424C109.713 142.957 109.462 143.72 109.462 144.712V149H108.326ZM121.528 149.096C120.717 149.096 119.949 148.968 119.224 148.712C118.509 148.445 117.933 148.093 117.496 147.656L118.056 146.744C118.418 147.117 118.904 147.427 119.512 147.672C120.13 147.917 120.802 148.04 121.528 148.04C122.456 148.04 123.165 147.837 123.656 147.432C124.157 147.027 124.408 146.483 124.408 145.8C124.408 145.117 124.162 144.573 123.672 144.168C123.192 143.763 122.429 143.56 121.384 143.56H120.584V142.712L124.04 138.376L124.2 138.824H117.96V137.8H125.16V138.616L121.704 142.952L121.144 142.584H121.576C122.92 142.584 123.922 142.883 124.584 143.48C125.256 144.077 125.592 144.845 125.592 145.784C125.592 146.413 125.442 146.979 125.144 147.48C124.845 147.981 124.392 148.376 123.784 148.664C123.186 148.952 122.434 149.096 121.528 149.096ZM133.05 146.824L133.082 145.368L138.314 140.6H139.706L136.01 144.136L135.37 144.68L133.05 146.824ZM132.154 149V137.128H133.29V149H132.154ZM138.666 149L135.162 144.632L135.898 143.752L140.058 149H138.666ZM141.764 149V140.6H142.9V149H141.764ZM142.34 138.744C142.105 138.744 141.908 138.664 141.748 138.504C141.588 138.344 141.508 138.152 141.508 137.928C141.508 137.704 141.588 137.517 141.748 137.368C141.908 137.208 142.105 137.128 142.34 137.128C142.574 137.128 142.772 137.203 142.932 137.352C143.092 137.501 143.172 137.688 143.172 137.912C143.172 138.147 143.092 138.344 142.932 138.504C142.782 138.664 142.585 138.744 142.34 138.744ZM149.405 149.08C148.605 149.08 147.885 148.899 147.245 148.536C146.615 148.173 146.119 147.672 145.757 147.032C145.394 146.381 145.213 145.635 145.213 144.792C145.213 143.939 145.394 143.192 145.757 142.552C146.119 141.912 146.615 141.416 147.245 141.064C147.885 140.701 148.605 140.52 149.405 140.52C150.141 140.52 150.797 140.685 151.373 141.016C151.959 141.347 152.423 141.832 152.765 142.472C153.117 143.101 153.293 143.875 153.293 144.792C153.293 145.699 153.122 146.472 152.781 147.112C152.439 147.752 151.975 148.243 151.389 148.584C150.813 148.915 150.151 149.08 149.405 149.08ZM149.485 148.072C150.082 148.072 150.615 147.939 151.085 147.672C151.565 147.395 151.938 147.011 152.205 146.52C152.482 146.019 152.621 145.443 152.621 144.792C152.621 144.131 152.482 143.555 152.205 143.064C151.938 142.573 151.565 142.195 151.085 141.928C150.615 141.651 150.082 141.512 149.485 141.512C148.898 141.512 148.37 141.651 147.901 141.928C147.431 142.195 147.058 142.573 146.781 143.064C146.503 143.555 146.365 144.131 146.365 144.792C146.365 145.443 146.503 146.019 146.781 146.52C147.058 147.011 147.431 147.395 147.901 147.672C148.37 147.939 148.898 148.072 149.485 148.072ZM152.653 149V146.472L152.765 144.776L152.605 143.08V137.128H153.741V149H152.653ZM159.16 149.08C158.467 149.08 157.811 148.984 157.192 148.792C156.574 148.589 156.088 148.339 155.736 148.04L156.248 147.144C156.59 147.4 157.027 147.624 157.56 147.816C158.094 147.997 158.654 148.088 159.24 148.088C160.04 148.088 160.616 147.965 160.968 147.72C161.32 147.464 161.496 147.128 161.496 146.712C161.496 146.403 161.395 146.163 161.192 145.992C161 145.811 160.744 145.677 160.424 145.592C160.104 145.496 159.747 145.416 159.352 145.352C158.958 145.288 158.563 145.213 158.168 145.128C157.784 145.043 157.432 144.92 157.112 144.76C156.792 144.589 156.531 144.36 156.328 144.072C156.136 143.784 156.04 143.4 156.04 142.92C156.04 142.461 156.168 142.051 156.424 141.688C156.68 141.325 157.054 141.043 157.544 140.84C158.046 140.627 158.654 140.52 159.368 140.52C159.912 140.52 160.456 140.595 161 140.744C161.544 140.883 161.992 141.069 162.344 141.304L161.848 142.216C161.475 141.96 161.075 141.779 160.648 141.672C160.222 141.555 159.795 141.496 159.368 141.496C158.611 141.496 158.051 141.629 157.688 141.896C157.336 142.152 157.16 142.483 157.16 142.888C157.16 143.208 157.256 143.459 157.448 143.64C157.651 143.821 157.912 143.965 158.232 144.072C158.563 144.168 158.92 144.248 159.304 144.312C159.699 144.376 160.088 144.456 160.472 144.552C160.867 144.637 161.224 144.76 161.544 144.92C161.875 145.069 162.136 145.288 162.328 145.576C162.531 145.853 162.632 146.221 162.632 146.68C162.632 147.171 162.494 147.597 162.216 147.96C161.95 148.312 161.555 148.589 161.032 148.792C160.52 148.984 159.896 149.08 159.16 149.08Z" fill="#1A1A1A"/>
<path d="M64.403 186V170.64L66.083 172.32H61.043V169.2H68.291V186H64.403ZM78.4094 186.288C77.0334 186.288 75.8014 185.952 74.7134 185.28C73.6254 184.592 72.7694 183.6 72.1454 182.304C71.5214 181.008 71.2094 179.44 71.2094 177.6C71.2094 175.76 71.5214 174.192 72.1454 172.896C72.7694 171.6 73.6254 170.616 74.7134 169.944C75.8014 169.256 77.0334 168.912 78.4094 168.912C79.8014 168.912 81.0334 169.256 82.1054 169.944C83.1934 170.616 84.0494 171.6 84.6734 172.896C85.2974 174.192 85.6094 175.76 85.6094 177.6C85.6094 179.44 85.2974 181.008 84.6734 182.304C84.0494 183.6 83.1934 184.592 82.1054 185.28C81.0334 185.952 79.8014 186.288 78.4094 186.288ZM78.4094 183C79.0654 183 79.6334 182.816 80.1134 182.448C80.6094 182.08 80.9934 181.496 81.2654 180.696C81.5534 179.896 81.6974 178.864 81.6974 177.6C81.6974 176.336 81.5534 175.304 81.2654 174.504C80.9934 173.704 80.6094 173.12 80.1134 172.752C79.6334 172.384 79.0654 172.2 78.4094 172.2C77.7694 172.2 77.2014 172.384 76.7054 172.752C76.2254 173.12 75.8414 173.704 75.5534 174.504C75.2814 175.304 75.1454 176.336 75.1454 177.6C75.1454 178.864 75.2814 179.896 75.5534 180.696C75.8414 181.496 76.2254 182.08 76.7054 182.448C77.2014 182.816 77.7694 183 78.4094 183ZM94.6985 186.288C93.3225 186.288 92.0905 185.952 91.0025 185.28C89.9145 184.592 89.0585 183.6 88.4345 182.304C87.8105 181.008 87.4985 179.44 87.4985 177.6C87.4985 175.76 87.8105 174.192 88.4345 172.896C89.0585 171.6 89.9145 170.616 91.0025 169.944C92.0905 169.256 93.3225 168.912 94.6985 168.912C96.0905 168.912 97.3225 169.256 98.3945 169.944C99.4825 170.616 100.339 171.6 100.963 172.896C101.587 174.192 101.899 175.76 101.899 177.6C101.899 179.44 101.587 181.008 100.963 182.304C100.339 183.6 99.4825 184.592 98.3945 185.28C97.3225 185.952 96.0905 186.288 94.6985 186.288ZM94.6985 183C95.3545 183 95.9225 182.816 96.4025 182.448C96.8985 182.08 97.2825 181.496 97.5545 180.696C97.8425 179.896 97.9865 178.864 97.9865 177.6C97.9865 176.336 97.8425 175.304 97.5545 174.504C97.2825 173.704 96.8985 173.12 96.4025 172.752C95.9225 172.384 95.3545 172.2 94.6985 172.2C94.0585 172.2 93.4905 172.384 92.9945 172.752C92.5145 173.12 92.1305 173.704 91.8425 174.504C91.5705 175.304 91.4345 176.336 91.4345 177.6C91.4345 178.864 91.5705 179.896 91.8425 180.696C92.1305 181.496 92.5145 182.08 92.9945 182.448C93.4905 182.816 94.0585 183 94.6985 183ZM110.988 186.288C109.612 186.288 108.38 185.952 107.292 185.28C106.204 184.592 105.348 183.6 104.724 182.304C104.1 181.008 103.788 179.44 103.788 177.6C103.788 175.76 104.1 174.192 104.724 172.896C105.348 171.6 106.204 170.616 107.292 169.944C108.38 169.256 109.612 168.912 110.988 168.912C112.38 168.912 113.612 169.256 114.684 169.944C115.772 170.616 116.628 171.6 117.252 172.896C117.876 174.192 118.188 175.76 118.188 177.6C118.188 179.44 117.876 181.008 117.252 182.304C116.628 183.6 115.772 184.592 114.684 185.28C113.612 185.952 112.38 186.288 110.988 186.288ZM110.988 183C111.644 183 112.212 182.816 112.692 182.448C113.188 182.08 113.572 181.496 113.844 180.696C114.132 179.896 114.276 178.864 114.276 177.6C114.276 176.336 114.132 175.304 113.844 174.504C113.572 173.704 113.188 173.12 112.692 172.752C112.212 172.384 111.644 172.2 110.988 172.2C110.348 172.2 109.78 172.384 109.284 172.752C108.804 173.12 108.42 173.704 108.132 174.504C107.86 175.304 107.724 176.336 107.724 177.6C107.724 178.864 107.86 179.896 108.132 180.696C108.42 181.496 108.804 182.08 109.284 182.448C109.78 182.816 110.348 183 110.988 183ZM127.93 186V169.2H135.202C136.706 169.2 138.002 169.448 139.09 169.944C140.178 170.424 141.018 171.12 141.61 172.032C142.202 172.944 142.498 174.032 142.498 175.296C142.498 176.544 142.202 177.624 141.61 178.536C141.018 179.432 140.178 180.12 139.09 180.6C138.002 181.08 136.706 181.32 135.202 181.32H130.09L131.818 179.616V186H127.93ZM138.609 186L134.41 179.904H138.562L142.81 186H138.609ZM131.818 180.048L130.09 178.224H134.986C136.186 178.224 137.082 177.968 137.674 177.456C138.266 176.928 138.562 176.208 138.562 175.296C138.562 174.368 138.266 173.648 137.674 173.136C137.082 172.624 136.186 172.368 134.986 172.368H130.09L131.818 170.52V180.048ZM151.098 186.288C149.754 186.288 148.466 186.112 147.234 185.76C146.002 185.392 145.01 184.92 144.258 184.344L145.578 181.416C146.298 181.928 147.146 182.352 148.122 182.688C149.114 183.008 150.114 183.168 151.122 183.168C151.89 183.168 152.506 183.096 152.97 182.952C153.45 182.792 153.802 182.576 154.026 182.304C154.25 182.032 154.362 181.72 154.362 181.368C154.362 180.92 154.186 180.568 153.834 180.312C153.482 180.04 153.018 179.824 152.442 179.664C151.866 179.488 151.226 179.328 150.522 179.184C149.834 179.024 149.138 178.832 148.434 178.608C147.746 178.384 147.114 178.096 146.538 177.744C145.962 177.392 145.49 176.928 145.122 176.352C144.77 175.776 144.594 175.04 144.594 174.144C144.594 173.184 144.85 172.312 145.362 171.528C145.89 170.728 146.674 170.096 147.714 169.632C148.77 169.152 150.09 168.912 151.674 168.912C152.73 168.912 153.77 169.04 154.794 169.296C155.818 169.536 156.722 169.904 157.506 170.4L156.306 173.352C155.522 172.904 154.738 172.576 153.954 172.368C153.17 172.144 152.402 172.032 151.65 172.032C150.898 172.032 150.282 172.12 149.802 172.296C149.322 172.472 148.978 172.704 148.77 172.992C148.562 173.264 148.458 173.584 148.458 173.952C148.458 174.384 148.634 174.736 148.986 175.008C149.338 175.264 149.802 175.472 150.378 175.632C150.954 175.792 151.586 175.952 152.274 176.112C152.978 176.272 153.674 176.456 154.362 176.664C155.066 176.872 155.706 177.152 156.282 177.504C156.858 177.856 157.322 178.32 157.674 178.896C158.042 179.472 158.226 180.2 158.226 181.08C158.226 182.024 157.962 182.888 157.434 183.672C156.906 184.456 156.114 185.088 155.058 185.568C154.018 186.048 152.698 186.288 151.098 186.288ZM160.883 186V169.2H168.515C170.339 169.2 171.947 169.552 173.339 170.256C174.731 170.944 175.819 171.912 176.603 173.16C177.387 174.408 177.779 175.888 177.779 177.6C177.779 179.296 177.387 180.776 176.603 182.04C175.819 183.288 174.731 184.264 173.339 184.968C171.947 185.656 170.339 186 168.515 186H160.883ZM164.771 182.808H168.323C169.443 182.808 170.411 182.6 171.227 182.184C172.059 181.752 172.699 181.144 173.147 180.36C173.611 179.576 173.843 178.656 173.843 177.6C173.843 176.528 173.611 175.608 173.147 174.84C172.699 174.056 172.059 173.456 171.227 173.04C170.411 172.608 169.443 172.392 168.323 172.392H164.771V182.808ZM188.823 171.504L185.631 173.256V172.632L188.823 174.36L187.647 176.328L184.671 174.552L185.007 174.336L185.055 177.672H182.799L182.823 174.336L183.159 174.552L180.183 176.328L179.031 174.36L182.223 172.632V173.256L179.031 171.504L180.183 169.536L183.159 171.336L182.823 171.528L182.799 168.192H185.055L185.007 171.528L184.671 171.336L187.647 169.536L188.823 171.504Z" fill="#1A1A1A"/>
<path d="M80 61H1V213H249V61H177.5" stroke="#1A1A1A"/>
<path d="M173.981 37.2467C169.401 36.2873 164.66 36.5734 160.022 36.946C153.98 37.4882 147.941 38.5929 142.174 40.5423C141.921 40.6964 141.731 40.8909 141.561 41.0533C138.576 38.2731 135.023 36.1446 131.565 35.1075C123.722 32.3377 114.911 35.8894 108.755 40.9365C104.584 44.857 101.254 49.959 100.006 55.5885C99.9243 56.1429 99.8589 56.7074 99.8035 57.2559C99.1928 57.4091 98.5761 57.5363 97.9713 57.7157C90.4449 59.6548 83.4146 63.2529 77.1487 67.8717C73.064 71.0168 65.4755 76.1026 70.7925 81.565C77.1765 87.0721 99.7573 81.9962 108.22 80.5576C108.523 80.502 108.826 80.4465 109.113 80.3809C109.131 80.4593 109.133 80.5276 109.15 80.606C109.685 82.1325 110.828 83.369 112.136 84.3066C117.34 87.8577 124.418 87.8345 130.133 85.471C137.108 82.8473 144.875 78.6822 147.796 71.3929C148.07 70.5335 148.545 69.2847 148.515 68.2337C159.839 63.4623 171.22 57.5376 179.321 48.1307C184.851 42.3748 180.069 38.4389 173.975 37.2206L173.981 37.2467ZM123.392 38.1423C128.277 37.7682 133.215 39.8276 137.035 42.8429C140.239 45.5594 142.846 48.9756 144.31 52.9277C144.93 54.2836 144.879 56.1362 145.934 57.2278C142.145 59.1237 138.246 60.7702 134.295 62.2497C127.522 64.7312 120.554 67.2022 113.476 68.7506C110.4 69.4807 107.166 70.1782 103.936 70.5864C104.269 68.7104 103.59 64.8265 103.556 64.0649C103.307 61.3053 103.366 58.022 104.173 55.2549C106.821 46.4478 114.037 39.1527 123.386 38.1161L123.392 38.1423ZM148.902 55.7118C148.889 53.3928 148.321 51.1047 147.324 48.9281C147.906 48.8913 148.472 48.8444 149.035 48.9081C150.715 49.1151 153.004 49.1005 154.576 50.0467C155.181 50.5404 154.26 51.3279 153.962 51.8356C152.54 53.4518 150.752 54.6572 148.876 55.7177L148.902 55.7118ZM130.429 80.6771C125.148 82.9552 119.275 83.0878 113.966 80.8386C113.393 80.6122 112.728 80.2147 112.042 79.8494C116.82 78.9365 121.606 77.9392 126.249 76.4251C132.196 74.5445 138.035 72.3038 143.881 70.1577C140.849 75.1781 135.957 78.8236 130.429 80.6771ZM173.98 48.3068C169.807 52.4061 164.733 55.9145 159.516 58.6589C152.414 62.3694 144.908 65.8017 137.076 68.4012C131.303 70.5033 125.463 72.4968 119.484 73.9313C115.286 74.9179 110.452 75.706 106.095 76.6601C96.4713 78.4877 86.5999 80.7429 76.7801 79.6202C72.9974 79.0967 72.1417 77.5473 75.1898 74.9825C82.0107 68.7394 90.2722 64.5716 98.3779 60.2606C98.7462 60.0666 99.1869 59.8285 99.6116 59.5804C99.5149 63.4905 100.218 67.479 102.187 70.8073C101.013 70.8969 99.833 70.9604 98.6615 70.9395C93.9249 70.9362 94.3957 69.3037 97.5281 66.7471C98.5454 66.0201 100.067 64.8482 99.1882 63.4415C97.5136 61.2412 94.764 64.2186 93.3748 65.429C91.5428 67.2351 90.5953 70.4741 92.4046 72.6024C98.8123 78.8873 122.971 70.1398 130.909 67.4059C138.162 64.5538 156.936 59.0285 159.272 51.4605C160.512 44.1431 151.103 44.8499 146.383 47.1233C145.738 46.0206 145.02 44.9619 144.203 43.9532C149.52 42.7523 155.102 41.6283 160.564 41.0125C166.196 40.6603 172.812 39.5608 177.683 43.0368C178.455 44.1519 174.969 47.2702 173.98 48.3068Z" fill="#D9695F"/>
</svg>
