<svg width="230" height="226" viewBox="0 0 230 226" fill="none" xmlns="http://www.w3.org/2000/svg">
<path d="M26.3131 125.35H32.2331V126.358H26.3131V125.35ZM26.4411 130.518H33.1771V131.542H25.2571V120.342H32.9371V121.366H26.4411V130.518ZM40.8592 131.542V129.686L40.8112 129.382V126.278C40.8112 125.563 40.6086 125.014 40.2032 124.63C39.8086 124.246 39.2166 124.054 38.4272 124.054C37.8832 124.054 37.3659 124.144 36.8752 124.326C36.3846 124.507 35.9686 124.747 35.6272 125.046L35.1152 124.198C35.5419 123.835 36.0539 123.558 36.6512 123.366C37.2486 123.163 37.8779 123.062 38.5392 123.062C39.6272 123.062 40.4646 123.334 41.0512 123.878C41.6486 124.411 41.9472 125.227 41.9472 126.326V131.542H40.8592ZM37.9632 131.622C37.3339 131.622 36.7846 131.52 36.3152 131.318C35.8566 131.104 35.5046 130.816 35.2592 130.454C35.0139 130.08 34.8912 129.654 34.8912 129.174C34.8912 128.736 34.9926 128.342 35.1952 127.99C35.4086 127.627 35.7499 127.339 36.2192 127.126C36.6992 126.902 37.3392 126.79 38.1392 126.79H41.0352V127.638H38.1712C37.3606 127.638 36.7952 127.782 36.4752 128.07C36.1659 128.358 36.0112 128.715 36.0112 129.142C36.0112 129.622 36.1979 130.006 36.5712 130.294C36.9446 130.582 37.4672 130.726 38.1392 130.726C38.7792 130.726 39.3286 130.582 39.7872 130.294C40.2566 129.995 40.5979 129.568 40.8112 129.014L41.0672 129.798C40.8539 130.352 40.4806 130.795 39.9472 131.126C39.4246 131.456 38.7632 131.622 37.9632 131.622ZM48.5207 131.622C47.6887 131.622 46.9421 131.44 46.2807 131.078C45.6301 130.704 45.1181 130.198 44.7447 129.558C44.3714 128.907 44.1847 128.166 44.1847 127.334C44.1847 126.491 44.3714 125.75 44.7447 125.11C45.1181 124.47 45.6301 123.968 46.2807 123.606C46.9421 123.243 47.6887 123.062 48.5207 123.062C49.2354 123.062 49.8807 123.2 50.4567 123.478C51.0327 123.755 51.4861 124.171 51.8167 124.726L50.9687 125.302C50.6807 124.875 50.3234 124.56 49.8967 124.358C49.4701 124.155 49.0061 124.054 48.5047 124.054C47.9074 124.054 47.3687 124.192 46.8887 124.47C46.4087 124.736 46.0301 125.115 45.7527 125.606C45.4754 126.096 45.3367 126.672 45.3367 127.334C45.3367 127.995 45.4754 128.571 45.7527 129.062C46.0301 129.552 46.4087 129.936 46.8887 130.214C47.3687 130.48 47.9074 130.614 48.5047 130.614C49.0061 130.614 49.4701 130.512 49.8967 130.31C50.3234 130.107 50.6807 129.798 50.9687 129.382L51.8167 129.958C51.4861 130.502 51.0327 130.918 50.4567 131.206C49.8807 131.483 49.2354 131.622 48.5207 131.622ZM58.2114 123.062C58.894 123.062 59.4914 123.195 60.0034 123.462C60.526 123.718 60.9314 124.112 61.2194 124.646C61.518 125.179 61.6674 125.851 61.6674 126.662V131.542H60.5314V126.774C60.5314 125.888 60.3074 125.222 59.8594 124.774C59.422 124.315 58.8034 124.086 58.0034 124.086C57.406 124.086 56.8834 124.208 56.4354 124.454C55.998 124.688 55.6567 125.035 55.4114 125.494C55.1767 125.942 55.0594 126.486 55.0594 127.126V131.542H53.9234V119.67H55.0594V125.446L54.8354 125.014C55.102 124.406 55.5287 123.931 56.1154 123.59C56.702 123.238 57.4007 123.062 58.2114 123.062ZM71.1794 131.622C70.486 131.622 69.83 131.526 69.2114 131.334C68.5927 131.131 68.1074 130.88 67.7554 130.582L68.2674 129.686C68.6087 129.942 69.046 130.166 69.5794 130.358C70.1127 130.539 70.6727 130.63 71.2594 130.63C72.0594 130.63 72.6354 130.507 72.9874 130.262C73.3394 130.006 73.5154 129.67 73.5154 129.254C73.5154 128.944 73.414 128.704 73.2114 128.534C73.0194 128.352 72.7634 128.219 72.4434 128.134C72.1234 128.038 71.766 127.958 71.3714 127.894C70.9767 127.83 70.582 127.755 70.1874 127.67C69.8034 127.584 69.4514 127.462 69.1314 127.302C68.8114 127.131 68.55 126.902 68.3474 126.614C68.1554 126.326 68.0594 125.942 68.0594 125.462C68.0594 125.003 68.1874 124.592 68.4434 124.23C68.6994 123.867 69.0727 123.584 69.5634 123.382C70.0647 123.168 70.6727 123.062 71.3874 123.062C71.9314 123.062 72.4754 123.136 73.0194 123.286C73.5634 123.424 74.0114 123.611 74.3634 123.846L73.8674 124.758C73.494 124.502 73.094 124.32 72.6674 124.214C72.2407 124.096 71.814 124.038 71.3874 124.038C70.63 124.038 70.07 124.171 69.7074 124.438C69.3554 124.694 69.1794 125.024 69.1794 125.43C69.1794 125.75 69.2754 126 69.4674 126.182C69.67 126.363 69.9314 126.507 70.2514 126.614C70.582 126.71 70.9394 126.79 71.3234 126.854C71.718 126.918 72.1074 126.998 72.4914 127.094C72.886 127.179 73.2434 127.302 73.5634 127.462C73.894 127.611 74.1554 127.83 74.3474 128.118C74.55 128.395 74.6514 128.763 74.6514 129.222C74.6514 129.712 74.5127 130.139 74.2354 130.502C73.9687 130.854 73.574 131.131 73.0514 131.334C72.5394 131.526 71.9154 131.622 71.1794 131.622ZM79.3919 131.622C78.6025 131.622 77.9945 131.408 77.5679 130.982C77.1412 130.555 76.9279 129.952 76.9279 129.174V121.286H78.0639V129.11C78.0639 129.6 78.1865 129.979 78.4319 130.246C78.6879 130.512 79.0505 130.646 79.5199 130.646C80.0212 130.646 80.4372 130.502 80.7679 130.214L81.1679 131.03C80.9439 131.232 80.6719 131.382 80.3519 131.478C80.0425 131.574 79.7225 131.622 79.3919 131.622ZM75.4239 124.086V123.142H80.6239V124.086H75.4239ZM88.4999 131.542V129.686L88.4519 129.382V126.278C88.4519 125.563 88.2492 125.014 87.8439 124.63C87.4492 124.246 86.8572 124.054 86.0679 124.054C85.5239 124.054 85.0065 124.144 84.5159 124.326C84.0252 124.507 83.6092 124.747 83.2679 125.046L82.7559 124.198C83.1825 123.835 83.6945 123.558 84.2919 123.366C84.8892 123.163 85.5185 123.062 86.1799 123.062C87.2679 123.062 88.1052 123.334 88.6919 123.878C89.2892 124.411 89.5879 125.227 89.5879 126.326V131.542H88.4999ZM85.6039 131.622C84.9745 131.622 84.4252 131.52 83.9559 131.318C83.4972 131.104 83.1452 130.816 82.8999 130.454C82.6545 130.08 82.5319 129.654 82.5319 129.174C82.5319 128.736 82.6332 128.342 82.8359 127.99C83.0492 127.627 83.3905 127.339 83.8599 127.126C84.3399 126.902 84.9799 126.79 85.7799 126.79H88.6759V127.638H85.8119C85.0012 127.638 84.4359 127.782 84.1159 128.07C83.8065 128.358 83.6519 128.715 83.6519 129.142C83.6519 129.622 83.8385 130.006 84.2119 130.294C84.5852 130.582 85.1079 130.726 85.7799 130.726C86.4199 130.726 86.9692 130.582 87.4279 130.294C87.8972 129.995 88.2385 129.568 88.4519 129.014L88.7079 129.798C88.4945 130.352 88.1212 130.795 87.5879 131.126C87.0652 131.456 86.4039 131.622 85.6039 131.622ZM92.6734 131.542V123.142H93.7614V125.43L93.6494 125.03C93.884 124.39 94.2787 123.904 94.8334 123.574C95.388 123.232 96.076 123.062 96.8974 123.062V124.166C96.8547 124.166 96.812 124.166 96.7694 124.166C96.7267 124.155 96.684 124.15 96.6414 124.15C95.756 124.15 95.0627 124.422 94.5614 124.966C94.06 125.499 93.8094 126.262 93.8094 127.254V131.542H92.6734ZM101.986 131.622C101.196 131.622 100.588 131.408 100.162 130.982C99.7349 130.555 99.5216 129.952 99.5216 129.174V121.286H100.658V129.11C100.658 129.6 100.78 129.979 101.026 130.246C101.282 130.512 101.644 130.646 102.114 130.646C102.615 130.646 103.031 130.502 103.362 130.214L103.762 131.03C103.538 131.232 103.266 131.382 102.946 131.478C102.636 131.574 102.316 131.622 101.986 131.622ZM98.0176 124.086V123.142H103.218V124.086H98.0176ZM105.83 131.542V123.142H106.966V131.542H105.83ZM106.406 121.286C106.171 121.286 105.974 121.206 105.814 121.046C105.654 120.886 105.574 120.694 105.574 120.47C105.574 120.246 105.654 120.059 105.814 119.91C105.974 119.75 106.171 119.67 106.406 119.67C106.64 119.67 106.838 119.744 106.998 119.894C107.158 120.043 107.238 120.23 107.238 120.454C107.238 120.688 107.158 120.886 106.998 121.046C106.848 121.206 106.651 121.286 106.406 121.286ZM114.414 123.062C115.097 123.062 115.694 123.195 116.206 123.462C116.729 123.718 117.134 124.112 117.422 124.646C117.721 125.179 117.87 125.851 117.87 126.662V131.542H116.734V126.774C116.734 125.888 116.51 125.222 116.062 124.774C115.625 124.315 115.006 124.086 114.206 124.086C113.609 124.086 113.086 124.208 112.638 124.454C112.201 124.688 111.86 125.035 111.614 125.494C111.38 125.942 111.262 126.486 111.262 127.126V131.542H110.126V123.142H111.214V125.446L111.038 125.014C111.305 124.406 111.732 123.931 112.318 123.59C112.905 123.238 113.604 123.062 114.414 123.062ZM124.523 134.726C123.755 134.726 123.019 134.614 122.315 134.39C121.611 134.166 121.04 133.846 120.603 133.43L121.179 132.566C121.574 132.918 122.059 133.195 122.635 133.398C123.222 133.611 123.84 133.718 124.491 133.718C125.558 133.718 126.342 133.467 126.843 132.966C127.344 132.475 127.595 131.707 127.595 130.662V128.566L127.755 127.126L127.643 125.686V123.142H128.731V130.518C128.731 131.968 128.374 133.03 127.659 133.702C126.955 134.384 125.91 134.726 124.523 134.726ZM124.315 131.222C123.515 131.222 122.795 131.051 122.155 130.71C121.515 130.358 121.008 129.872 120.635 129.254C120.272 128.635 120.091 127.926 120.091 127.126C120.091 126.326 120.272 125.622 120.635 125.014C121.008 124.395 121.515 123.915 122.155 123.574C122.795 123.232 123.515 123.062 124.315 123.062C125.062 123.062 125.734 123.216 126.331 123.526C126.928 123.835 127.403 124.294 127.755 124.902C128.107 125.51 128.283 126.251 128.283 127.126C128.283 128 128.107 128.742 127.755 129.35C127.403 129.958 126.928 130.422 126.331 130.742C125.734 131.062 125.062 131.222 124.315 131.222ZM124.427 130.214C125.046 130.214 125.595 130.086 126.075 129.83C126.555 129.563 126.934 129.2 127.211 128.742C127.488 128.272 127.627 127.734 127.627 127.126C127.627 126.518 127.488 125.984 127.211 125.526C126.934 125.067 126.555 124.71 126.075 124.454C125.595 124.187 125.046 124.054 124.427 124.054C123.819 124.054 123.27 124.187 122.779 124.454C122.299 124.71 121.92 125.067 121.643 125.526C121.376 125.984 121.243 126.518 121.243 127.126C121.243 127.734 121.376 128.272 121.643 128.742C121.92 129.2 122.299 129.563 122.779 129.83C123.27 130.086 123.819 130.214 124.427 130.214ZM140.368 123.062C141.05 123.062 141.648 123.195 142.16 123.462C142.682 123.718 143.088 124.112 143.376 124.646C143.674 125.179 143.824 125.851 143.824 126.662V131.542H142.688V126.774C142.688 125.888 142.464 125.222 142.016 124.774C141.578 124.315 140.96 124.086 140.16 124.086C139.562 124.086 139.04 124.208 138.592 124.454C138.154 124.688 137.813 125.035 137.568 125.494C137.333 125.942 137.216 126.486 137.216 127.126V131.542H136.08V119.67H137.216V125.446L136.992 125.014C137.258 124.406 137.685 123.931 138.272 123.59C138.858 123.238 139.557 123.062 140.368 123.062ZM150.316 131.622C149.505 131.622 148.775 131.44 148.124 131.078C147.484 130.704 146.977 130.198 146.604 129.558C146.231 128.907 146.044 128.166 146.044 127.334C146.044 126.491 146.231 125.75 146.604 125.11C146.977 124.47 147.484 123.968 148.124 123.606C148.764 123.243 149.495 123.062 150.316 123.062C151.148 123.062 151.884 123.243 152.524 123.606C153.175 123.968 153.681 124.47 154.044 125.11C154.417 125.75 154.604 126.491 154.604 127.334C154.604 128.166 154.417 128.907 154.044 129.558C153.681 130.198 153.175 130.704 152.524 131.078C151.873 131.44 151.137 131.622 150.316 131.622ZM150.316 130.614C150.924 130.614 151.463 130.48 151.932 130.214C152.401 129.936 152.769 129.552 153.036 129.062C153.313 128.56 153.452 127.984 153.452 127.334C153.452 126.672 153.313 126.096 153.036 125.606C152.769 125.115 152.401 124.736 151.932 124.47C151.463 124.192 150.929 124.054 150.332 124.054C149.735 124.054 149.201 124.192 148.732 124.47C148.263 124.736 147.889 125.115 147.612 125.606C147.335 126.096 147.196 126.672 147.196 127.334C147.196 127.984 147.335 128.56 147.612 129.062C147.889 129.552 148.263 129.936 148.732 130.214C149.201 130.48 149.729 130.614 150.316 130.614ZM160.395 131.622C159.681 131.622 159.057 131.488 158.523 131.222C157.99 130.955 157.574 130.555 157.275 130.022C156.987 129.488 156.843 128.822 156.843 128.022V123.142H157.979V127.894C157.979 128.79 158.198 129.467 158.635 129.926C159.083 130.374 159.707 130.598 160.507 130.598C161.094 130.598 161.601 130.48 162.027 130.246C162.465 130 162.795 129.648 163.019 129.19C163.254 128.731 163.371 128.182 163.371 127.542V123.142H164.507V131.542H163.419V129.238L163.595 129.654C163.329 130.272 162.913 130.758 162.347 131.11C161.793 131.451 161.142 131.622 160.395 131.622ZM167.673 131.542V123.142H168.761V125.43L168.649 125.03C168.884 124.39 169.279 123.904 169.833 123.574C170.388 123.232 171.076 123.062 171.897 123.062V124.166C171.855 124.166 171.812 124.166 171.769 124.166C171.727 124.155 171.684 124.15 171.641 124.15C170.756 124.15 170.063 124.422 169.561 124.966C169.06 125.499 168.809 126.262 168.809 127.254V131.542H167.673ZM180.219 134.646C179.632 133.675 179.173 132.555 178.843 131.286C178.523 130.006 178.363 128.63 178.363 127.158C178.363 125.686 178.523 124.31 178.843 123.03C179.173 121.739 179.632 120.619 180.219 119.67H181.307C180.677 120.768 180.213 121.936 179.915 123.174C179.627 124.4 179.483 125.728 179.483 127.158C179.483 128.587 179.627 129.92 179.915 131.158C180.213 132.384 180.677 133.547 181.307 134.646H180.219ZM184.905 131.542V120.822L185.417 121.366H182.265V120.342H186.057V131.542H184.905ZM193.774 123.062C194.457 123.062 195.054 123.195 195.566 123.462C196.089 123.718 196.494 124.112 196.782 124.646C197.081 125.179 197.23 125.851 197.23 126.662V131.542H196.094V126.774C196.094 125.888 195.87 125.222 195.422 124.774C194.985 124.315 194.366 124.086 193.566 124.086C192.969 124.086 192.446 124.208 191.998 124.454C191.561 124.688 191.219 125.035 190.974 125.494C190.739 125.942 190.622 126.486 190.622 127.126V131.542H189.486V119.67H190.622V125.446L190.398 125.014C190.665 124.406 191.091 123.931 191.678 123.59C192.265 123.238 192.963 123.062 193.774 123.062ZM200.442 134.646H199.354C199.994 133.547 200.458 132.384 200.746 131.158C201.045 129.92 201.194 128.587 201.194 127.158C201.194 125.728 201.045 124.4 200.746 123.174C200.458 121.936 199.994 120.768 199.354 119.67H200.442C201.05 120.619 201.514 121.739 201.834 123.03C202.154 124.31 202.314 125.686 202.314 127.158C202.314 128.63 202.154 130.006 201.834 131.286C201.514 132.555 201.05 133.675 200.442 134.646ZM205.676 124.806C205.441 124.806 205.239 124.72 205.068 124.55C204.908 124.379 204.828 124.171 204.828 123.926C204.828 123.67 204.908 123.462 205.068 123.302C205.239 123.142 205.441 123.062 205.676 123.062C205.911 123.062 206.108 123.142 206.268 123.302C206.439 123.462 206.524 123.67 206.524 123.926C206.524 124.171 206.439 124.379 206.268 124.55C206.108 124.72 205.911 124.806 205.676 124.806ZM205.676 131.622C205.441 131.622 205.239 131.536 205.068 131.366C204.908 131.195 204.828 130.987 204.828 130.742C204.828 130.486 204.908 130.278 205.068 130.118C205.239 129.958 205.441 129.878 205.676 129.878C205.911 129.878 206.108 129.958 206.268 130.118C206.439 130.278 206.524 130.486 206.524 130.742C206.524 130.987 206.439 131.195 206.268 131.366C206.108 131.536 205.911 131.622 205.676 131.622ZM84.0553 149.766H89.9753V150.79H84.0553V149.766ZM84.1833 155.542H82.9993V144.342H90.6793V145.366H84.1833V155.542ZM96.027 155.622C95.2164 155.622 94.4857 155.44 93.835 155.078C93.195 154.704 92.6884 154.198 92.315 153.558C91.9417 152.907 91.755 152.166 91.755 151.334C91.755 150.491 91.9417 149.75 92.315 149.11C92.6884 148.47 93.195 147.968 93.835 147.606C94.475 147.243 95.2057 147.062 96.027 147.062C96.859 147.062 97.595 147.243 98.235 147.606C98.8857 147.968 99.3924 148.47 99.755 149.11C100.128 149.75 100.315 150.491 100.315 151.334C100.315 152.166 100.128 152.907 99.755 153.558C99.3924 154.198 98.8857 154.704 98.235 155.078C97.5844 155.44 96.8484 155.622 96.027 155.622ZM96.027 154.614C96.635 154.614 97.1737 154.48 97.643 154.214C98.1124 153.936 98.4804 153.552 98.747 153.062C99.0244 152.56 99.163 151.984 99.163 151.334C99.163 150.672 99.0244 150.096 98.747 149.606C98.4804 149.115 98.1124 148.736 97.643 148.47C97.1737 148.192 96.6404 148.054 96.043 148.054C95.4457 148.054 94.9124 148.192 94.443 148.47C93.9737 148.736 93.6004 149.115 93.323 149.606C93.0457 150.096 92.907 150.672 92.907 151.334C92.907 151.984 93.0457 152.56 93.323 153.062C93.6004 153.552 93.9737 153.936 94.443 154.214C94.9124 154.48 95.4404 154.614 96.027 154.614ZM102.634 155.542V147.142H103.722V149.43L103.61 149.03C103.845 148.39 104.24 147.904 104.794 147.574C105.349 147.232 106.037 147.062 106.858 147.062V148.166C106.816 148.166 106.773 148.166 106.73 148.166C106.688 148.155 106.645 148.15 106.602 148.15C105.717 148.15 105.024 148.422 104.522 148.966C104.021 149.499 103.77 150.262 103.77 151.254V155.542H102.634ZM115.836 155.638C115.025 155.638 114.257 155.51 113.532 155.254C112.817 154.987 112.241 154.635 111.804 154.198L112.364 153.286C112.726 153.659 113.212 153.968 113.82 154.214C114.438 154.459 115.11 154.582 115.836 154.582C116.764 154.582 117.473 154.379 117.964 153.974C118.465 153.568 118.716 153.024 118.716 152.342C118.716 151.659 118.47 151.115 117.98 150.71C117.5 150.304 116.737 150.102 115.692 150.102H114.892V149.254L118.348 144.918L118.508 145.366H112.268V144.342H119.468V145.158L116.012 149.494L115.452 149.126H115.884C117.228 149.126 118.23 149.424 118.892 150.022C119.564 150.619 119.9 151.387 119.9 152.326C119.9 152.955 119.75 153.52 119.452 154.022C119.153 154.523 118.7 154.918 118.092 155.206C117.494 155.494 116.742 155.638 115.836 155.638ZM127.358 153.366L127.39 151.91L132.622 147.142H134.014L130.318 150.678L129.678 151.222L127.358 153.366ZM126.462 155.542V143.67H127.598V155.542H126.462ZM132.974 155.542L129.47 151.174L130.206 150.294L134.366 155.542H132.974ZM136.072 155.542V147.142H137.208V155.542H136.072ZM136.648 145.286C136.413 145.286 136.216 145.206 136.056 145.046C135.896 144.886 135.816 144.694 135.816 144.47C135.816 144.246 135.896 144.059 136.056 143.91C136.216 143.75 136.413 143.67 136.648 143.67C136.882 143.67 137.08 143.744 137.24 143.894C137.4 144.043 137.48 144.23 137.48 144.454C137.48 144.688 137.4 144.886 137.24 145.046C137.09 145.206 136.893 145.286 136.648 145.286ZM143.713 155.622C142.913 155.622 142.193 155.44 141.553 155.078C140.923 154.715 140.427 154.214 140.065 153.574C139.702 152.923 139.521 152.176 139.521 151.334C139.521 150.48 139.702 149.734 140.065 149.094C140.427 148.454 140.923 147.958 141.553 147.606C142.193 147.243 142.913 147.062 143.713 147.062C144.449 147.062 145.105 147.227 145.681 147.558C146.267 147.888 146.731 148.374 147.073 149.014C147.425 149.643 147.601 150.416 147.601 151.334C147.601 152.24 147.43 153.014 147.089 153.654C146.747 154.294 146.283 154.784 145.697 155.126C145.121 155.456 144.459 155.622 143.713 155.622ZM143.793 154.614C144.39 154.614 144.923 154.48 145.393 154.214C145.873 153.936 146.246 153.552 146.513 153.062C146.79 152.56 146.929 151.984 146.929 151.334C146.929 150.672 146.79 150.096 146.513 149.606C146.246 149.115 145.873 148.736 145.393 148.47C144.923 148.192 144.39 148.054 143.793 148.054C143.206 148.054 142.678 148.192 142.209 148.47C141.739 148.736 141.366 149.115 141.089 149.606C140.811 150.096 140.673 150.672 140.673 151.334C140.673 151.984 140.811 152.56 141.089 153.062C141.366 153.552 141.739 153.936 142.209 154.214C142.678 154.48 143.206 154.614 143.793 154.614ZM146.961 155.542V153.014L147.073 151.318L146.913 149.622V143.67H148.049V155.542H146.961Z" fill="#1A1A1A"/>
<path d="M54.8049 192.542V177.182L56.4849 178.862H51.4449V175.742H58.6929V192.542H54.8049ZM68.8113 192.83C67.4353 192.83 66.2033 192.494 65.1153 191.822C64.0273 191.134 63.1713 190.142 62.5473 188.846C61.9233 187.55 61.6113 185.982 61.6113 184.142C61.6113 182.302 61.9233 180.734 62.5473 179.438C63.1713 178.142 64.0273 177.158 65.1153 176.486C66.2033 175.798 67.4353 175.454 68.8113 175.454C70.2033 175.454 71.4353 175.798 72.5073 176.486C73.5953 177.158 74.4513 178.142 75.0753 179.438C75.6993 180.734 76.0113 182.302 76.0113 184.142C76.0113 185.982 75.6993 187.55 75.0753 188.846C74.4513 190.142 73.5953 191.134 72.5073 191.822C71.4353 192.494 70.2033 192.83 68.8113 192.83ZM68.8113 189.542C69.4673 189.542 70.0353 189.358 70.5153 188.99C71.0113 188.622 71.3953 188.038 71.6673 187.238C71.9553 186.438 72.0993 185.406 72.0993 184.142C72.0993 182.878 71.9553 181.846 71.6673 181.046C71.3953 180.246 71.0113 179.662 70.5153 179.294C70.0353 178.926 69.4673 178.742 68.8113 178.742C68.1713 178.742 67.6033 178.926 67.1073 179.294C66.6273 179.662 66.2433 180.246 65.9553 181.046C65.6833 181.846 65.5473 182.878 65.5473 184.142C65.5473 185.406 65.6833 186.438 65.9553 187.238C66.2433 188.038 66.6273 188.622 67.1073 188.99C67.6033 189.358 68.1713 189.542 68.8113 189.542ZM85.1004 192.83C83.7244 192.83 82.4924 192.494 81.4044 191.822C80.3164 191.134 79.4604 190.142 78.8364 188.846C78.2124 187.55 77.9004 185.982 77.9004 184.142C77.9004 182.302 78.2124 180.734 78.8364 179.438C79.4604 178.142 80.3164 177.158 81.4044 176.486C82.4924 175.798 83.7244 175.454 85.1004 175.454C86.4924 175.454 87.7244 175.798 88.7964 176.486C89.8844 177.158 90.7404 178.142 91.3644 179.438C91.9884 180.734 92.3004 182.302 92.3004 184.142C92.3004 185.982 91.9884 187.55 91.3644 188.846C90.7404 190.142 89.8844 191.134 88.7964 191.822C87.7244 192.494 86.4924 192.83 85.1004 192.83ZM85.1004 189.542C85.7564 189.542 86.3244 189.358 86.8044 188.99C87.3004 188.622 87.6844 188.038 87.9564 187.238C88.2444 186.438 88.3884 185.406 88.3884 184.142C88.3884 182.878 88.2444 181.846 87.9564 181.046C87.6844 180.246 87.3004 179.662 86.8044 179.294C86.3244 178.926 85.7564 178.742 85.1004 178.742C84.4604 178.742 83.8924 178.926 83.3964 179.294C82.9164 179.662 82.5324 180.246 82.2444 181.046C81.9724 181.846 81.8364 182.878 81.8364 184.142C81.8364 185.406 81.9724 186.438 82.2444 187.238C82.5324 188.038 82.9164 188.622 83.3964 188.99C83.8924 189.358 84.4604 189.542 85.1004 189.542ZM101.389 192.83C100.013 192.83 98.7814 192.494 97.6934 191.822C96.6054 191.134 95.7494 190.142 95.1254 188.846C94.5014 187.55 94.1894 185.982 94.1894 184.142C94.1894 182.302 94.5014 180.734 95.1254 179.438C95.7494 178.142 96.6054 177.158 97.6934 176.486C98.7814 175.798 100.013 175.454 101.389 175.454C102.781 175.454 104.013 175.798 105.085 176.486C106.173 177.158 107.029 178.142 107.653 179.438C108.277 180.734 108.589 182.302 108.589 184.142C108.589 185.982 108.277 187.55 107.653 188.846C107.029 190.142 106.173 191.134 105.085 191.822C104.013 192.494 102.781 192.83 101.389 192.83ZM101.389 189.542C102.045 189.542 102.613 189.358 103.093 188.99C103.589 188.622 103.973 188.038 104.245 187.238C104.533 186.438 104.677 185.406 104.677 184.142C104.677 182.878 104.533 181.846 104.245 181.046C103.973 180.246 103.589 179.662 103.093 179.294C102.613 178.926 102.045 178.742 101.389 178.742C100.749 178.742 100.181 178.926 99.6854 179.294C99.2054 179.662 98.8214 180.246 98.5334 181.046C98.2614 181.846 98.1254 182.878 98.1254 184.142C98.1254 185.406 98.2614 186.438 98.5334 187.238C98.8214 188.038 99.2054 188.622 99.6854 188.99C100.181 189.358 100.749 189.542 101.389 189.542ZM118.331 192.542V175.742H125.603C127.107 175.742 128.403 175.99 129.491 176.486C130.579 176.966 131.419 177.662 132.011 178.574C132.603 179.486 132.899 180.574 132.899 181.838C132.899 183.086 132.603 184.166 132.011 185.078C131.419 185.974 130.579 186.662 129.491 187.142C128.403 187.622 127.107 187.862 125.603 187.862H120.491L122.219 186.158V192.542H118.331ZM129.011 192.542L124.811 186.446H128.963L133.211 192.542H129.011ZM122.219 186.59L120.491 184.766H125.387C126.587 184.766 127.483 184.51 128.075 183.998C128.667 183.47 128.963 182.75 128.963 181.838C128.963 180.91 128.667 180.19 128.075 179.678C127.483 179.166 126.587 178.91 125.387 178.91H120.491L122.219 177.062V186.59ZM141.5 192.83C140.156 192.83 138.868 192.654 137.636 192.302C136.404 191.934 135.412 191.462 134.66 190.886L135.98 187.958C136.7 188.47 137.548 188.894 138.524 189.23C139.516 189.55 140.516 189.71 141.524 189.71C142.292 189.71 142.908 189.638 143.372 189.494C143.852 189.334 144.204 189.118 144.428 188.846C144.652 188.574 144.764 188.262 144.764 187.91C144.764 187.462 144.588 187.11 144.236 186.854C143.884 186.582 143.42 186.366 142.844 186.206C142.268 186.03 141.628 185.87 140.924 185.726C140.236 185.566 139.54 185.374 138.836 185.15C138.148 184.926 137.516 184.638 136.94 184.286C136.364 183.934 135.892 183.47 135.524 182.894C135.172 182.318 134.996 181.582 134.996 180.686C134.996 179.726 135.252 178.854 135.764 178.07C136.292 177.27 137.076 176.638 138.116 176.174C139.172 175.694 140.492 175.454 142.076 175.454C143.132 175.454 144.172 175.582 145.196 175.838C146.22 176.078 147.124 176.446 147.908 176.942L146.708 179.894C145.924 179.446 145.14 179.118 144.356 178.91C143.572 178.686 142.804 178.574 142.052 178.574C141.3 178.574 140.684 178.662 140.204 178.838C139.724 179.014 139.38 179.246 139.172 179.534C138.964 179.806 138.86 180.126 138.86 180.494C138.86 180.926 139.036 181.278 139.388 181.55C139.74 181.806 140.204 182.014 140.78 182.174C141.356 182.334 141.988 182.494 142.676 182.654C143.38 182.814 144.076 182.998 144.764 183.206C145.468 183.414 146.108 183.694 146.684 184.046C147.26 184.398 147.724 184.862 148.076 185.438C148.444 186.014 148.628 186.742 148.628 187.622C148.628 188.566 148.364 189.43 147.836 190.214C147.308 190.998 146.516 191.63 145.46 192.11C144.42 192.59 143.1 192.83 141.5 192.83ZM151.284 192.542V175.742H158.916C160.74 175.742 162.348 176.094 163.74 176.798C165.132 177.486 166.22 178.454 167.004 179.702C167.788 180.95 168.18 182.43 168.18 184.142C168.18 185.838 167.788 187.318 167.004 188.582C166.22 189.83 165.132 190.806 163.74 191.51C162.348 192.198 160.74 192.542 158.916 192.542H151.284ZM155.172 189.35H158.724C159.844 189.35 160.812 189.142 161.628 188.726C162.46 188.294 163.1 187.686 163.548 186.902C164.012 186.118 164.244 185.198 164.244 184.142C164.244 183.07 164.012 182.15 163.548 181.382C163.1 180.598 162.46 179.998 161.628 179.582C160.812 179.15 159.844 178.934 158.724 178.934H155.172V189.35ZM179.225 178.046L176.033 179.798V179.174L179.225 180.902L178.049 182.87L175.073 181.094L175.409 180.878L175.457 184.214H173.201L173.225 180.878L173.561 181.094L170.585 182.87L169.433 180.902L172.625 179.174V179.798L169.433 178.046L170.585 176.078L173.561 177.878L173.225 178.07L173.201 174.734H175.457L175.409 178.07L175.073 177.878L178.049 176.078L179.225 178.046Z" fill="#1A1A1A"/>
<path d="M73.629 73H1V225H229V73H163.266" stroke="#1A1A1A"/>
<path d="M171.732 38.7986C167.172 37.7992 162.452 38.0972 157.834 38.4855C151.819 39.0502 145.806 40.201 140.064 42.2316C139.812 42.3921 139.623 42.5947 139.454 42.7638C136.482 39.8678 132.945 37.6506 129.501 36.5703C121.693 33.6851 112.92 37.3848 106.791 42.6422C102.638 46.726 99.3228 52.0406 98.08 57.9047C97.9989 58.4822 97.9338 59.0702 97.8787 59.6415C97.2706 59.8012 96.6567 59.9336 96.0544 60.1205C88.5609 62.1405 81.5613 65.8885 75.3228 70.6997C71.256 73.9758 63.7005 79.2736 68.9943 84.9635C75.3505 90.7001 97.8327 85.4127 106.258 83.9141C106.56 83.8563 106.862 83.7984 107.148 83.7301C107.165 83.8118 107.167 83.8829 107.185 83.9646C107.717 85.5547 108.855 86.8427 110.158 87.8193C115.338 91.5184 122.385 91.4942 128.076 89.0323C135.02 86.2992 142.754 81.9607 145.662 74.3676C145.935 73.4724 146.407 72.1716 146.377 71.0768C157.652 66.1066 168.983 59.935 177.049 50.1361C182.555 44.1404 177.794 40.0405 171.727 38.7715L171.732 38.7986ZM121.364 39.7315C126.228 39.3418 131.144 41.4871 134.948 44.628C138.138 47.4577 140.733 51.0163 142.19 55.133C142.808 56.5454 142.757 58.4752 143.808 59.6123C140.036 61.5872 136.153 63.3023 132.22 64.8434C125.476 67.4283 118.539 70.0023 111.491 71.6152C108.429 72.3757 105.209 73.1023 101.993 73.5275C102.325 71.5733 101.648 67.5276 101.615 66.7342C101.367 63.8597 101.426 60.4395 102.229 57.5572C104.866 48.3831 112.05 40.7841 121.358 39.7043L121.364 39.7315ZM146.763 58.0331C146.75 55.6175 146.184 53.2341 145.192 50.9668C145.771 50.9285 146.335 50.8796 146.895 50.9459C148.568 51.1615 150.847 51.1463 152.412 52.1319C153.014 52.6463 152.097 53.4666 151.8 53.9954C150.385 55.679 148.604 56.9346 146.737 58.0393L146.763 58.0331ZM128.371 84.0386C123.113 86.4117 117.265 86.5498 111.979 84.2069C111.409 83.971 110.746 83.557 110.063 83.1764C114.82 82.2255 119.586 81.1866 124.209 79.6095C130.13 77.6505 135.943 75.3165 141.764 73.0809C138.745 78.3105 133.874 82.1079 128.371 84.0386ZM171.731 50.3195C167.577 54.5897 162.525 58.2442 157.33 61.1031C150.26 64.9682 142.786 68.5434 134.989 71.2513C129.24 73.441 123.426 75.5175 117.474 77.0117C113.293 78.0395 108.481 78.8604 104.143 79.8543C94.561 81.7581 84.7327 84.1071 74.9558 82.9377C71.1896 82.3924 70.3376 80.7784 73.3725 78.1068C80.1636 71.6035 88.3889 67.262 96.4593 62.7715C96.8259 62.5694 97.2647 62.3214 97.6876 62.0629C97.5913 66.136 98.2915 70.2906 100.252 73.7576C99.0828 73.851 97.908 73.9171 96.7416 73.8953C92.0257 73.8919 92.4945 72.1913 95.6131 69.5283C96.626 68.771 98.1408 67.5503 97.266 66.0849C95.5988 63.7929 92.8612 66.8943 91.478 68.1552C89.654 70.0365 88.7106 73.4105 90.5121 75.6275C96.8918 82.1742 120.945 73.0623 128.849 70.2144C136.07 67.2435 154.761 61.4881 157.088 53.6047C158.322 45.9824 148.954 46.7186 144.255 49.0868C143.612 47.9381 142.897 46.8353 142.084 45.7846C147.378 44.5336 152.936 43.3629 158.374 42.7213C163.981 42.3544 170.569 41.2092 175.418 44.83C176.187 45.9916 172.716 49.2398 171.731 50.3195Z" fill="#D9695F"/>
</svg>
