<svg width="360" height="360" viewBox="0 0 360 360" fill="none" xmlns="http://www.w3.org/2000/svg">
<path d="M360 0H0V360H360V0Z" fill="#F7F0F0"/>
<path d="M81.5544 159.66C82.6056 157.003 82.7495 152.489 79.1567 151.898C76.6511 151.61 73.9295 152.345 72.0359 154.051C70.5743 151.826 67.9464 149.933 65.1744 150.451C59.1624 150.862 55.4616 157.464 62.7408 159.754C61.5168 161.431 62.1863 163.98 63.7847 165.182C65.3039 166.421 67.392 166.082 69.1272 165.528C69.0624 167.89 70.3008 170.791 72.7344 171.482C74.7432 172.03 76.8528 170.741 77.8464 169.027C80.5392 170.575 85.3992 171.425 87.8256 169.063C91.3824 164.376 86.184 160.056 81.5544 159.653V159.66ZM85.6223 167.63C83.7215 168.473 81.4031 168.156 79.5959 167.206C79.0271 166.853 78.5088 166.327 77.832 166.198C76.7376 165.974 76.1832 167.054 75.8016 167.882C75.3048 168.653 74.4912 169.351 73.5264 169.294C71.6904 168.84 71.3015 166.205 71.6183 164.614C71.7263 163.426 69.9696 162.958 69.48 164.038C68.1336 164.146 66.5136 164.592 65.3256 163.764C64.6056 163.202 64.0368 162.058 64.3608 161.158C64.6056 160.495 65.1887 159.926 65.0951 159.178C65.0015 158.587 64.4543 158.249 63.9359 158.069C62.9279 157.738 61.9343 157.284 61.1567 156.557C60.4799 155.966 60.8904 154.98 61.3656 154.39C62.5536 152.87 64.5911 152.554 66.4487 152.582C68.3495 153.058 69.6168 154.75 70.4016 156.442C70.6536 156.982 71.1647 157.464 71.7983 157.378C72.5543 157.313 72.8423 156.578 73.2383 156.046C73.5551 155.635 73.9511 155.304 74.3903 155.03C75.6719 154.332 77.1912 153.994 78.66 154.224C80.1936 154.642 79.704 156.701 79.452 157.896C79.2648 158.818 78.7392 159.588 78.408 160.452C78.228 161.186 78.7392 161.957 79.4808 162.086C80.7624 162.166 82.0799 162.13 83.2751 162.691C84.2975 163.195 85.3775 163.771 86.0831 164.693C86.6591 165.607 86.6015 167.047 85.6223 167.659V167.63ZM38.8367 146.52C38.6567 145.512 39.9456 142.625 38.52 142.452C38.0592 142.423 37.7784 142.855 37.5264 143.179C36.1872 144.878 34.8408 146.606 32.7744 147.449C32.5152 147.55 32.2559 147.658 31.9823 147.708C31.7159 147.686 31.3775 147.78 31.2623 148.039C30.9671 148.464 31.212 148.954 31.5936 149.22C32.0328 149.954 32.0976 150.862 32.1264 151.697C32.0616 154.044 31.14 156.37 30.8808 158.681C30.9456 159.106 31.4712 159.336 31.8384 159.142C32.2848 158.861 32.4359 158.306 32.7167 157.882C34.0055 155.772 35.3879 153.446 37.8431 152.575C38.7431 152.15 40.9103 151.891 40.1831 150.394C39.4703 149.213 38.8655 147.917 38.8439 146.52H38.8367ZM33.2856 154.231C33.3288 154.051 33.3648 153.871 33.408 153.691C33.8184 152.028 33.6816 150.257 33.048 148.666C34.8408 148.277 36.3384 147.082 37.4328 145.642C37.152 147.355 37.4472 149.22 38.412 150.674C36.4104 151.358 34.524 152.467 33.2928 154.224L33.2856 154.231ZM23.2056 147.031C22.4064 146.52 21.6647 145.865 21.1751 145.044C20.2607 143.15 20.8151 140.933 20.7647 138.895C20.6999 138.031 19.44 138.038 19.332 138.881C18.4176 141.79 16.8767 144.619 14.3423 146.506C13.4999 146.614 13.4351 147.866 14.2487 148.068C16.1855 148.975 16.0271 151.524 16.4375 153.317C16.6679 154.476 16.4951 155.822 16.7111 157.046C17.1791 157.781 17.9496 157.298 18.1008 156.6C18.6552 155.146 18.9936 153.619 19.6056 152.194C20.1312 150.984 20.9088 149.818 22.0536 149.112C22.572 148.774 23.22 148.73 23.7384 148.421C24.3144 147.924 23.7816 147.226 23.2128 147.038L23.2056 147.031ZM17.82 152.654C17.6328 150.71 17.4384 148.536 15.8184 147.211C15.8184 147.211 15.8039 147.204 15.8039 147.197C17.1719 146.333 18.3023 145.202 19.1447 143.798C19.2743 145.476 20.2679 147.038 21.7367 147.866C19.8503 148.86 18.5616 150.696 17.82 152.654Z" fill="#C1CBD9"/>
<mask id="mask0_186_924" style="mask-type:luminance" maskUnits="userSpaceOnUse" x="0" y="0" width="360" height="360">
<path d="M360 0H0V360H360V0Z" fill="white"/>
</mask>
<g mask="url(#mask0_186_924)">
<path d="M82.1808 203.429C86.04 205.193 87.0552 190.361 87.1272 187.942C87.0336 185.717 87.7896 180.814 84.492 180.842C83.4912 180.929 82.5912 181.8 82.584 182.83C82.3248 189.122 82.584 195.473 81.7848 201.722C81.4392 202.284 81.6264 203.069 82.1808 203.429ZM89.4312 201.989C91.7712 198.41 93.9744 194.731 96.1128 191.038C96.6168 190.13 96.1128 188.935 95.22 188.51C92.2608 187.114 90.4968 194.141 89.46 196.121C88.7544 197.95 87.8544 199.728 87.3288 201.614C87.2136 203.026 88.9128 203.09 89.424 201.996L89.4312 201.989ZM96.2496 201.974C96.6456 202.111 97.092 201.888 97.2648 201.528C99.3528 198.77 101.923 196.452 104.393 194.047C105.754 192.766 103.846 190.685 102.463 191.93C101.765 192.614 101.066 193.313 100.39 194.018C99.468 194.854 94.104 201.168 96.2496 201.982V201.974ZM312.811 271.807C315.209 265.586 319.932 249.883 314.849 244.598C308.858 239.645 304.848 247.874 304.596 253.13C304.013 259.819 305.122 267.206 309.053 272.772C310.68 274.939 312.314 274.313 312.811 271.807ZM317.7 273.478C317.981 273.492 318.233 273.37 318.42 273.168C319.27 273.211 319.817 272.405 320.342 271.858C322.121 270.072 324.13 268.524 325.793 266.623C327.247 264.917 328.867 262.958 328.946 260.611C329.04 258.667 326.93 257.666 325.346 258.631C322.906 260.302 321.214 262.872 319.745 265.399C319.169 266.666 315.194 273.197 317.7 273.47V273.478ZM376.243 373.471C376.538 354.096 375.408 334.742 373.234 315.497C372.067 305.374 373.392 288.137 364.363 281.606C346.334 268.502 325.246 277.38 313.726 294.422C306.49 283.702 288.367 276.466 275.746 275.53C261.655 275.501 251.446 287.201 242.41 296.59C240.307 288.922 235.202 282.038 228.269 278.086C221.249 274.003 212.695 271.577 204.617 273.326C200.462 274.378 196.517 276.185 192.902 278.474C197.59 266.342 196.661 252.497 191.585 240.638C188.518 232.956 183.535 225.72 176.018 221.875C168.79 217.951 160.495 216.965 152.388 216.763C139.666 216.288 130.133 218.75 119.995 226.634C118.051 215.352 106.135 209.311 95.4432 210.334C88.5168 210.902 82.3536 214.445 77.076 218.765C76.5144 212.573 75.4848 206.323 73.008 200.592C67.5432 188.575 57.4776 178.106 44.6112 174.305C36.72 172.188 28.3968 173.16 20.6784 175.522C7.55281 179.215 -4.35603 187.106 -12.4776 198.101C-22.4784 209.671 -21.4776 211.91 -23.6664 226.094C-26.3376 242.129 -26.0352 258.502 -26.1288 274.716C-26.4384 293.983 -24.5448 313.236 -25.6392 332.496C-25.92 339.091 -26.2008 345.694 -26.6328 352.289C-26.9784 364.356 -32.4 390.96 -14.076 391.09C-8.12881 391.406 -2.18159 390.859 3.76561 390.607C22.0464 389.758 39.7152 388.771 58.14 388.858C97.2216 388.433 136.231 386.057 175.277 384.653C190.109 384.3 204.934 385.193 219.766 384.833C242.762 384.408 265.226 382.709 288.331 383.184C296.705 383.4 305.078 383.702 313.452 383.94C326.117 384.444 338.803 384.653 351.454 383.616C357.638 383.22 363.895 382.903 369.878 381.146C374.27 379.973 376.582 378.302 376.25 373.471H376.243Z" fill="#5CAA93"/>
</g>
<mask id="mask1_186_924" style="mask-type:luminance" maskUnits="userSpaceOnUse" x="0" y="0" width="360" height="360">
<path d="M360 0H0V360H360V0Z" fill="white"/>
</mask>
<g mask="url(#mask1_186_924)">
<path d="M140.659 292.075C140.407 289.274 139.774 286.186 139.118 283.378C138.506 279.23 137.268 275.184 134.842 271.721C133.639 269.309 125.582 269.338 125.042 272.376C124.92 272.851 125.078 273.334 125.266 273.758C125.95 275.198 126.77 276.574 127.426 278.035C128.974 281.268 129.766 284.753 130.543 288.223C131.191 290.642 131.364 293.09 131.681 295.567C131.76 298.39 132.12 299.203 135.108 299.124C136.289 299.182 137.462 299.095 138.622 298.937C139.421 298.973 141.257 298.534 140.378 297.425C141.271 295.783 140.782 293.839 140.652 292.075H140.659ZM273.254 230.724C270.065 227.419 265.795 225.223 261.418 223.92C259.848 223.56 257.947 222.768 256.435 223.646C256.133 223.898 256.075 224.266 256.003 224.626C255.845 225.389 255.708 226.174 255.874 226.951C256.291 228.348 257.191 229.615 258.271 230.594C260.597 232.769 263.549 233.978 266.191 235.685C268.265 236.65 269.957 238.464 272.16 239.076C273.982 239.263 274.241 237.096 274.522 235.764C275.09 233.935 274.752 231.991 273.247 230.717L273.254 230.724ZM262.987 230.285C261.598 229.349 259.97 228.73 258.768 227.556C260.69 228.427 262.354 229.716 264.082 230.904C263.657 230.674 263.239 230.436 262.822 230.177C262.879 230.213 262.937 230.249 262.987 230.285Z" fill="#F26457"/>
<path d="M328.774 287.467C328.507 288.922 327.046 289.757 326.124 290.801C320.724 295.92 316.75 302.321 314.626 309.449C313.106 313.603 311.645 317.851 311.58 322.322C311.566 323.28 311.558 324.245 311.508 325.202C311.472 325.886 311.558 326.664 311.069 327.211C310.838 327.478 310.543 327.622 310.241 327.665C310.154 327.751 310.032 327.809 309.902 327.83C305.474 327.802 301.039 327.362 296.611 327.83C285.3 328.702 276.523 334.786 268.243 342C260.899 347.81 254.822 355.061 247.162 360.504C241.668 364.342 236.11 368.201 230.033 371.074C219.074 375.804 207.115 378.619 195.134 377.928C180.274 377.374 164.815 372.024 155.434 360C152.51 356.558 149.717 352.915 147.931 348.732C147.096 346.723 145.951 344.527 147.161 342.425C150.192 335.246 156.521 329.45 164.232 327.838C167.731 326.693 168.955 328.37 171.094 330.674C173.412 333.022 175.853 335.282 178.646 337.061C183.067 339.516 188.77 339.516 193.255 337.212C196.085 335.585 198.475 333.238 200.686 330.862C203.436 327.233 205.74 323.251 208.836 319.889C214.834 313.999 222.595 309.938 230.515 307.282C240.343 304.43 250.718 303.948 260.892 303.79C266.918 304.07 272.938 304.56 278.971 304.049C279.842 300.254 280.814 296.467 283.241 293.328C291.6 282.053 304.171 276.07 318.132 279.583C321.581 280.699 327.694 283.874 328.774 287.489V287.467Z" fill="#F29966"/>
<path d="M161.136 320.242C154.93 316.282 147.37 320.249 141.782 323.582C136.022 326.923 131.307 332.129 129.168 338.501C126.749 345.96 129.996 353.498 138.485 353.866C142.322 354.161 145.93 353.081 149.235 351.317C148.767 350.467 148.32 349.61 147.938 348.718C147.103 346.709 145.959 344.513 147.168 342.41C150.199 335.232 156.528 329.436 164.239 327.823C165.247 327.492 166.054 327.42 166.759 327.506C165.83 324.526 163.685 322.006 161.136 320.249V320.242ZM368.129 297.713C366.941 281.772 353.549 278.626 341.021 285.847C331.827 291.06 325.08 300.089 320.926 309.686C316.555 320.328 314.806 334.57 321.675 344.513C324.893 348.725 329.299 351.662 334.764 351.31C338.047 351.677 341.028 349.632 343.49 347.674C352.246 341.244 357.106 330.998 362.052 321.559C364.414 317.138 366.653 312.552 367.927 307.692C368.554 304.423 368.244 301.025 368.122 297.72L368.129 297.713Z" fill="#687E8C"/>
<path d="M283.457 293.45C283.932 294.573 282.809 295.833 282.434 296.877C281.246 299.102 280.289 301.435 279.706 303.897C279.245 305.705 278.914 307.569 278.273 309.326C275.155 313.805 270.101 316.541 265.349 319.017C253.822 325.231 240.466 327.643 227.448 327.175C222.149 326.952 216.756 325.649 211.846 323.762C210.557 323.143 207.95 322.697 208.231 320.947C207.389 319.269 209.016 315.115 209.246 313.653C210.146 309.607 211.795 304.747 209.405 300.938C205.949 297.324 200.47 298.85 196.524 300.765C189.986 303.732 183.262 306.252 176.198 307.627C166.464 310.176 155.794 310.118 146.455 306.122C142.963 304.855 140.443 302.133 138.701 298.922C137.887 297.151 138.758 295.157 138.535 293.285C138.413 286.841 136.483 280.353 132.552 275.241C128.088 271.159 132.876 265.68 136.642 263.217C143.057 258.933 151.344 259.689 158.486 261.389C176.486 266.249 175.997 262.512 192.24 259.682C199.951 258.465 207.778 258.141 215.424 256.485C220.068 255.722 224.222 254.772 228.434 252.965C236.282 249.696 240.674 241.869 245.138 235.08C247.298 230.429 251.014 224.417 257.026 226.245C263.671 228.139 270.058 231.717 274.846 236.7C277.524 240.386 276.314 245.275 275.594 249.415C274.579 255.117 272.39 261.036 267.35 264.341C263.707 266.961 259.661 268.884 255.55 270.648C260.683 272.793 265.421 275.918 269.957 279.086C274.55 282.441 278.878 286.236 282.42 290.714C282.751 291.117 283.082 291.528 283.392 291.953C283.745 292.421 283.716 293.004 283.457 293.465V293.45Z" fill="#BF3434"/>
<path d="M365.018 287.95C369.547 292.882 369.936 300.47 368.921 306.763C367.826 314.1 365.076 321.026 362.218 327.83C357.84 338.623 350.114 353.412 336.326 351.266C326.7 349.517 323.834 338.206 324.497 329.731C324.835 319.507 329.083 309.924 334.08 301.169C337.608 294.955 345.485 285.797 352.62 284.155C357.091 282.938 361.894 284.63 365.026 287.95H365.018Z" fill="#C1CBD9"/>
<path d="M248.53 287.64C246.593 283.752 240.898 281.794 240.019 287.46C238.154 286.409 235.08 287.172 234.778 289.541C234.209 293.033 236.75 296.482 240.048 297.497C242.568 298.174 243.922 295.258 243.749 293.141C248.242 295.517 250.33 291.506 248.53 287.64ZM237.694 282.636C239.868 282.089 240.48 279.367 239.623 277.524C237.557 272.923 231.926 271.706 230.522 277.474C228.096 275.465 225.101 276.71 225.202 279.965C225.144 282.758 227.146 285.581 229.788 286.488C232.2 287.273 233.878 284.688 233.654 282.514C234.979 282.679 236.383 282.989 237.701 282.636H237.694Z" fill="#F29849"/>
<path d="M234.727 257.717C240.674 259.473 240.609 268.891 235.325 271.476C230.537 274.32 225.259 271.375 220.961 269.028C220.154 272.765 218.376 276.257 214.006 275.803C210.715 275.882 208.354 273.139 206.928 270.468C206.482 269.762 203.429 262.836 205.682 263.736C205.862 263.333 206.237 263.095 206.64 262.973C207.965 262.44 209.347 262.073 210.729 261.705C218.491 259.164 226.62 258.177 234.734 257.717H234.727Z" fill="white"/>
<path d="M61.7903 279.158C50.2199 272.498 39.0816 265.104 28.8792 256.478C21.6792 250.222 14.0472 244.447 7.12078 237.888C-1.36082 229.838 -9.56162 221.134 -15.0264 210.701C-22.2696 195.206 -25.3225 177.746 -23.9041 160.711C-22.9681 152.021 -21.4849 143.431 -19.0297 135.036C-17.8633 130.831 -16.1856 126.785 -14.5656 122.746C-12.1752 116.669 -9.69842 110.585 -6.19922 105.048C-3.92402 101.311 -1.23849 97.8624 1.19511 94.2336C4.74471 89.0136 8.00636 83.5848 11.9592 78.6528C15.0912 74.5992 18.5328 70.7976 22.1544 67.1688C22.3056 66.8736 22.8024 67.0248 22.7736 67.3488C22.7376 68.1696 22.0031 68.7384 21.5351 69.3504C19.6991 71.46 17.8416 73.5696 16.0992 75.7584C10.5768 82.4472 6.14876 89.9064 1.33196 97.0848C-0.662444 99.9648 -2.82962 102.996 -4.57922 105.962C-8.33042 112.082 -10.8721 118.814 -13.4569 125.482C-14.7745 128.844 -16.0128 132.235 -16.9344 135.727C-19.6776 145.894 -21.5785 156.362 -21.8953 166.903C-21.9601 181.973 -19.1449 197.215 -12.3697 210.751C-4.03927 225.173 8.45992 236.39 21.1823 246.852C27.1871 251.618 32.7816 256.882 39.06 261.302C44.676 265.522 50.5295 269.424 56.4623 273.19C58.4063 274.572 60.7536 275.782 62.712 276.941C63.4032 277.214 63.9288 277.992 63.54 278.719C63.2304 279.353 62.3807 279.576 61.7903 279.166V279.158Z" fill="black"/>
<path d="M253.483 271.26C249.573 269.64 245.7 267.804 241.589 266.789C241.185 266.717 240.941 266.27 241.034 265.889C241.135 265.478 241.538 265.255 241.934 265.334C244.966 265.81 247.874 266.875 250.661 268.135C251.446 268.632 254.88 269.863 254.304 270.95C254.153 271.245 253.793 271.375 253.483 271.26Z" fill="#732F41"/>
<path d="M348.069 341.827C341.539 339.444 334.656 338.098 327.873 336.694C327.463 336.586 327.031 336.866 326.93 337.277C326.829 337.702 327.103 338.112 327.513 338.22C329.659 338.774 331.819 339.271 333.943 339.919C338.378 341.366 342.936 342.612 347.472 343.793C348.696 344.074 349.236 342.295 348.069 341.834V341.827ZM354.233 331.56C351 329.947 347.565 328.759 344.109 327.715C339.379 326.261 334.649 324.77 329.702 324.31C329.465 324.252 329.112 324.072 328.975 324.418C328.802 324.857 329.501 325.008 329.781 325.102C338.054 327.19 345.909 330.689 353.815 333.864C354.319 334.073 354.924 333.828 355.176 333.353C355.608 332.554 354.938 331.862 354.233 331.567V331.56ZM357.631 316.548C355.694 315.799 353.721 315.13 351.734 314.518C345.981 312.71 339.948 311.659 333.914 311.652C333.439 311.666 332.964 311.71 332.489 311.717C332.294 311.645 332.049 311.695 331.927 311.926C331.646 312.71 332.669 312.617 333.158 312.667C342.41 313.603 351.18 316.937 359.582 320.846C360.345 321.178 361.289 320.71 361.577 319.946C362.167 317.75 359.064 317.304 357.631 316.548ZM354.643 302.148C349.927 300.326 344.858 299.657 339.825 299.686C339.293 299.7 338.753 299.664 338.234 299.794C337.313 299.988 337.709 301.327 338.58 301.025C346.896 301.781 354.737 304.862 361.879 309.103C362.556 309.485 363.47 309.19 363.837 308.498C364.176 307.858 363.974 307.066 363.398 306.641C360.713 304.747 357.703 303.343 354.657 302.141L354.643 302.148ZM365.407 296.33C363.6 294.833 361.598 293.566 359.409 292.709C355.349 291.262 350.971 290.858 346.716 290.34C346.313 290.34 345.873 290.203 345.499 290.383C345.067 290.628 345.225 291.341 345.708 291.391C349.963 292.493 354.362 293.422 358.445 295.099C360.396 295.927 362.275 297.396 364.291 298.145C364.788 298.332 365.378 298.116 365.63 297.634C365.853 297.216 365.781 296.64 365.407 296.33Z" fill="white"/>
<path d="M221.45 176.112C226.735 173.909 229.298 176.774 228.348 182.102C227.844 185.169 226.332 187.934 225.216 190.8C223.783 194.702 223.358 198.525 222.581 202.521C221.386 209.505 219.334 216.324 218.081 223.279C217.051 230.249 216.072 237.233 214.97 244.188C214.07 250.891 213.595 254.304 207.835 258.523C205.668 260.323 203.573 262.317 200.88 263.282C196.798 264.708 192.434 264.96 188.136 264.873C180.835 264.78 173.412 263.772 166.687 260.82C160.142 257.933 153.734 253.944 149.53 248.054C148.781 246.938 148.09 245.793 147.449 244.613C144.799 247.543 141.156 249.681 137.664 251.417C132.286 254.318 126.022 255.341 119.959 254.952C116.942 254.743 114.005 254.052 111.053 253.497C108.497 253.015 105.89 252.475 103.608 251.172C102.334 250.481 102.01 248.904 101.736 247.593C101.282 244.821 100.706 242.028 100.606 239.213C100.678 236.275 101.167 225.18 103.507 223.819C104.494 223.344 105.595 223.877 106.603 224.035C108.756 224.496 110.916 224.863 113.105 225.079C110.362 223.725 107.798 221.724 106.193 219.081C105.588 218.059 104.724 216.403 105.862 215.453C106.668 214.913 107.676 215.381 108.511 215.618C109.505 215.935 110.513 216.223 111.521 216.489C116.15 217.634 120.449 219.117 125.179 218.93C120.802 214.02 114.257 212.681 108.389 210.377C105.257 209.268 107.021 205.833 107.669 203.601C108.72 200.621 109.793 196.063 113.868 196.733C124.193 196.646 133.862 202.673 138.665 211.716C139.752 213.501 140.738 215.359 141.869 217.101C142.798 209.981 145.57 203.241 149.443 197.208C142.596 195.991 134.734 191.829 134.165 184.262C134.402 182.477 135.497 180.921 136.332 179.352C137.549 177.249 138.773 175.133 140.249 173.203C142.33 170.496 144.475 167.371 147.211 171.525C149.054 173.887 150.876 176.321 153.245 178.185C152.446 175.809 151.337 173.289 150.127 171.129C149.63 170.237 148.853 169.488 148.514 168.516C148.349 167.868 148.723 167.213 149.292 166.903C151.466 166.161 153.49 168.091 155.203 169.2C154.303 167.825 153.331 166.485 152.446 165.11C152.201 164.714 152.014 164.239 152.143 163.771C153.209 161.15 157.81 164.124 159.149 165.341C158.602 164.102 157.716 163.087 157.01 161.949C156.024 159.365 159.991 157.845 161.669 156.657C163.073 155.966 164.347 155.037 165.751 154.382C167.868 154.08 169.956 155.858 171.626 156.974C177.242 161.107 180.36 167.961 179.906 174.845C182.83 174.067 185.803 173.513 188.784 173.001C192.089 172.454 195.473 172.49 198.742 171.698C202.435 169.041 204.775 165.132 208.022 162.065C214.186 158.105 216.31 165.902 213.826 170.539C216.137 169.502 218.671 167.601 221.234 168.581C223.733 170.222 222.552 173.937 221.422 176.126L221.45 176.112Z" fill="black"/>
<path d="M59.4936 41.3999C60.3864 43.5959 60.3648 46.5191 57.9744 47.7071C54.6768 50.4071 51.0047 52.6103 47.5055 55.0439C41.8751 58.7159 36.1296 62.2079 30.4272 65.7719C28.4184 66.8951 26.3663 67.9319 24.3431 69.0263C23.0471 69.6095 21.3695 70.9127 20.0159 69.8543C19.5695 69.4439 19.476 68.8751 19.4616 68.2991C19.3896 65.7071 19.3392 63.2015 19.4472 60.6671C19.7136 54.2807 19.6631 47.6207 20.4551 41.3351C20.6135 39.2831 20.5272 36.9791 21.528 35.1359C22.9824 33.9191 25.9919 32.0903 27.7127 30.9383C33.4151 27.5543 38.8943 23.7959 44.6903 20.5703C46.5911 19.7279 49.7663 17.6399 51.2567 20.0519C52.7255 24.4871 54.6767 29.0159 56.4695 33.2927C57.5639 35.9639 58.5647 38.6711 59.4863 41.4143L59.4936 41.3999Z" fill="#5CAA93"/>
<path d="M330.091 290.038C329.494 289.613 328.86 289.138 328.205 288.677C327.629 289.462 326.765 290.088 326.131 290.808C320.731 295.927 316.757 302.328 314.633 309.456C313.114 313.61 311.652 317.858 311.587 322.33C311.587 322.834 311.558 323.338 311.551 323.842C313.366 325.253 315.158 326.7 317.081 328.003C317.088 328.003 317.095 328.018 317.102 328.025C317.124 321.682 318.672 315.202 320.933 309.686C323.69 303.314 327.622 297.223 332.618 292.306C331.74 291.506 330.84 290.758 330.091 290.038ZM130.558 288.223C129.773 284.753 128.981 281.268 127.44 278.035C126.792 276.574 125.964 275.198 125.28 273.758C125.093 273.326 124.927 272.844 125.057 272.376C125.122 272.023 125.309 271.721 125.554 271.447C118.951 271.325 112.32 271.073 105.732 271.476C101.578 271.994 97.4016 272.182 93.2472 272.657C89.3808 272.966 85.6296 274.126 81.756 274.313C77.7888 274.666 74.6208 270.929 70.6032 271.375C65.5848 272.729 61.56 277.402 61.0344 282.586C60.5664 285.624 63.0215 287.986 63.3887 290.866C64.6199 295.891 67.824 296.122 72.2376 295.438C73.6488 295.769 74.6712 297.13 76.2048 297.281C78.6816 297.95 81.4536 296.294 82.4472 293.99C85.9752 294.574 89.6327 294.386 93.1823 294.768C96.0191 295.085 98.9208 295.423 101.83 295.546C107.597 295.711 113.393 296.503 119.182 296.863C123.401 297.014 127.627 297.209 131.854 297.353C131.76 296.878 131.717 296.287 131.695 295.56C131.378 293.083 131.198 290.628 130.558 288.216V288.223ZM279.101 201.377C279.072 197.928 279.432 194.105 277.56 191.038C275.155 187.819 273.614 192.967 272.801 194.861C272.275 193.14 271.829 190.49 269.726 190.138C267.862 190.246 267.97 192.758 267.689 194.141C265.982 189.511 262.102 190.368 262.966 195.394C260.554 192.953 257.443 194.285 258.35 197.813C259.193 201.413 262.051 204.163 263.261 207.569C261.828 212.918 259.193 217.915 257.753 223.265C258.97 223.171 260.287 223.654 261.432 223.913C265.802 225.216 270.072 227.405 273.269 230.717C273.312 230.76 273.341 230.81 273.384 230.846C273.564 230.321 273.751 229.795 273.931 229.27C275.292 225.014 277.063 220.874 277.862 216.461C278.561 214.344 278.64 211.968 279.691 209.995C280.937 208.858 282.427 208.037 283.637 206.849C289.174 201.931 284.846 198.382 279.115 201.362L279.101 201.377ZM239.875 197.496C237.809 194.99 236.542 191.952 234.302 189.526C229.442 184.723 222.84 182.117 216.05 181.901C214.142 181.67 212.22 181.346 210.305 181.656C208.534 181.908 206.856 182.585 205.157 183.118C202.248 184.342 198.634 182.225 195.955 183.902C195.098 184.702 195.35 185.94 195.372 186.991C195.401 188.266 195.264 189.612 195.127 190.973C194.839 194.112 194.054 196.798 193.32 199.973C192.038 204.984 190.483 210.42 188.006 215.194C185.832 219.103 183.254 222.782 180.842 226.555C169.049 222.07 158.803 232.718 163.397 244.469C165.679 250.114 172.152 252.547 177.84 252.907C180.54 253.08 183.341 253.001 185.926 252.144C187.862 254.671 190.195 256.896 192.636 258.919C196.078 261.785 200.333 263.376 204.667 264.312C207.432 264.938 210.218 265.63 213.077 265.608C224.366 265.68 235.958 262.548 245.074 255.744C258.646 244.728 259.164 229.219 251.928 214.272C248.846 208.051 244.166 202.889 239.89 197.503L239.875 197.496Z" fill="#F2D0C4"/>
<path d="M140.717 223.495C137.203 221.227 133.553 218.354 129.175 218.383C126.446 218.405 122.983 219.982 122.753 223.027C123.178 227.419 128.067 229.867 132.581 230.177C130.097 231.314 127.627 232.474 125.042 233.366C122.234 234.353 119.246 234.655 116.33 235.166C115.942 235.224 115.69 235.62 115.755 236.002C116.035 237.031 117.288 236.376 118.022 236.354C121.291 235.872 124.546 235.253 127.562 233.863C130.284 232.726 132.919 231.336 135.598 230.047C136.08 229.961 136.555 229.86 136.987 229.716C134.827 231.962 131.998 233.748 130.774 236.75C130.356 237.924 130.277 239.645 131.558 240.307C133.567 241.049 135.439 239.134 136.85 237.931C138.852 236.174 140.191 233.885 141.286 231.487C141.271 234.511 141.242 237.888 139.615 240.617C137.326 244.008 134.172 246.83 130.716 248.99C129.924 249.732 127.174 250.402 127.98 251.777C128.693 252.77 129.766 251.676 130.529 251.323C132.156 250.423 133.891 249.437 135.375 248.256C138.327 245.815 141.703 243.065 142.898 239.27C143.777 235.699 144.058 231.833 142.841 228.247C144.216 225.72 142.661 224.842 140.717 223.517V223.495ZM132.646 238.14C132.667 236.65 133.79 235.534 134.784 234.547C136.296 233.064 137.938 231.516 139.579 230.119C138.053 233.374 135.857 236.39 132.646 238.14ZM134.05 227.981C131.479 227.873 128.895 227.066 126.821 225.511C125.763 224.705 124.128 223.121 125.554 221.897C126.843 220.615 128.779 220.306 130.515 220.558C134.532 221.299 137.664 224.194 141.084 226.282C138.766 226.922 136.49 227.966 134.05 227.974V227.981ZM162.713 167.076C160.812 167.198 159.66 169.142 159.545 170.892C159.322 174.139 160.675 177.106 162.065 179.978C160.97 178.783 159.84 177.617 158.53 176.666C156.643 175.219 154.274 174.701 151.963 174.398C151.344 174.312 150.768 174.838 150.718 175.442C150.667 176.011 151.056 176.537 151.61 176.666C153.086 177.005 154.606 177.235 156.017 177.826C157.91 178.704 159.451 180.137 161.021 181.476C161.237 181.642 161.446 181.829 161.662 182.016C157.111 182.117 152.547 181.138 147.982 181.159C146.333 181.13 144.684 181.253 143.042 181.339C142.61 181.368 142.265 181.735 142.279 182.174C142.301 182.606 142.675 182.952 143.115 182.938C148.435 182.635 153.742 183.226 159.055 183.362C159.574 183.341 161.885 183.24 163.051 182.858C163.123 182.873 163.181 182.916 163.253 182.923C163.39 182.938 163.512 182.902 163.613 182.837C163.635 182.959 163.685 183.074 163.8 183.175C164.268 183.593 164.887 183.118 165.161 182.693C166.392 180.907 166.875 178.704 166.86 176.558C166.781 173.772 166.507 167.206 162.706 167.069L162.713 167.076ZM164.614 180.05C164.398 180.727 164.232 181.318 163.879 181.958C163.872 181.973 163.858 181.994 163.85 182.009C163.814 181.93 163.786 181.85 163.707 181.793C163.685 181.771 163.663 181.75 163.649 181.728C163.62 180.41 161.957 176.962 161.935 176.134C161.482 174.139 160.186 169.157 163.159 168.718C165.852 170.87 165.262 176.983 164.614 180.05Z" fill="#F29966"/>
<path d="M52.9703 42.6743C49.9679 41.6951 47.1527 40.9463 44.0495 40.1183C42.6239 39.6935 41.1839 39.2615 39.7439 38.8295C43.7543 32.8247 47.8367 26.8559 51.4655 20.6207C51.4007 20.4335 51.3287 20.2391 51.2639 20.0519C51.0911 19.7783 50.8967 19.5767 50.6879 19.4111C49.3415 21.0167 48.1031 22.7159 46.8863 24.4079C43.6895 28.9511 40.4495 33.4799 37.4183 38.1383C32.5727 36.6911 27.6766 35.2943 22.795 34.1783C22.3126 34.5167 21.8735 34.8407 21.5279 35.1287C21.3695 35.4239 21.2687 35.7479 21.1607 36.0647C22.2767 36.4535 23.4359 36.7631 24.5447 37.1735C28.3463 38.4119 32.0615 39.4631 35.9207 40.4927C35.1431 41.7383 34.3583 42.9767 33.6239 44.2439C30.1463 49.7015 26.6687 55.3247 23.5871 61.1135C22.0967 63.7055 20.7863 66.3911 19.5767 69.1199C19.6559 69.3935 19.7926 69.6383 20.0158 69.8471C20.455 70.1927 20.9375 70.2719 21.4199 70.2215C21.4199 70.2071 21.4414 70.2071 21.4486 70.1999C22.0318 68.8679 22.7735 67.6223 23.4431 66.3335C25.8335 61.7399 28.2455 57.1607 30.9383 52.7327C33.2279 49.0103 35.6975 45.4823 37.8503 41.6519C37.9583 41.4863 38.0734 41.3135 38.1886 41.1479C41.3134 42.1559 44.4527 43.1063 47.6567 43.8407C51.2999 44.7191 54.7198 46.2887 58.255 47.5055C59.1838 46.9367 59.7023 46.0943 59.9111 45.1295C57.5783 44.3591 55.2743 43.5167 52.9703 42.6527V42.6743Z" fill="white"/>
<path d="M181.591 227.916C182.966 229.068 184.104 230.162 185.4 231.473C186.228 232.229 187.582 231.113 186.998 230.155C186.494 228.946 181.994 225.252 181.13 227.16C181.058 227.484 181.382 227.729 181.591 227.916ZM187.618 249.098C183.146 254.03 175.478 252.821 169.927 250.481C169.618 249.948 168.905 250.603 169.409 250.956C172.325 252.576 175.572 253.893 178.956 254.102C182.606 254.131 186.703 253.102 189.043 250.114C189.612 249.199 188.309 248.27 187.625 249.091L187.618 249.098ZM176.105 241.474C177.948 241.157 179.748 240.689 181.584 240.329C182.434 240.12 183.276 240.192 184.118 240.278C184.147 240.48 184.205 240.682 184.349 240.833C185.479 241.92 186.876 239.969 185.486 239.256C184.86 237.103 177.898 231.725 176.882 235.505C176.738 236.326 177.242 237.053 177.991 237.334C178.826 237.571 179.618 237.838 180.403 238.14C179.122 238.176 177.833 238.32 176.566 238.392C175.111 238.615 172.159 238.471 172.476 240.638C172.915 242.294 174.888 241.661 176.105 241.474ZM262.994 197.014C261.914 197.071 263.945 201.823 264.233 202.536C264.593 203.285 265.824 202.824 265.601 202.018C265.111 200.434 264.377 198.929 263.599 197.467C263.455 197.244 263.297 196.992 262.994 197.014ZM267.221 196.884C267.307 198.201 267.71 199.555 268.229 200.779C268.668 201.643 270.022 201.01 269.669 200.117C269.438 199.548 268.034 195.473 267.221 196.884ZM273.686 195.329C271.879 195.041 272.722 197.446 272.671 198.475C272.765 199.44 274.219 199.303 274.154 198.338C274.111 197.798 274.118 197.251 274.169 196.711C274.5 196.236 274.262 195.516 273.686 195.329ZM81.3168 277.877C78.84 276.66 76.4856 274.356 73.548 274.485C69.7464 274.622 62.7624 284.263 67.3704 286.322C66.492 286.826 65.4336 286.999 64.4616 286.697C63.6552 286.51 62.6255 285.84 62.0423 286.783C61.7543 287.244 61.8552 287.863 62.28 288.216C62.9712 288.756 63.8496 289.022 64.7064 289.166C66.2616 289.368 68.0256 288.677 68.9112 287.352C69.0264 287.165 69.1704 286.92 69.2568 286.668C71.748 286.618 73.8936 285.041 75.4776 283.219C76.2696 282.405 77.4432 281.225 76.4208 280.123C75.9384 279.612 75.0456 279.475 74.4768 279.943C72.7344 281.203 71.2439 283.27 68.9687 283.493C69.9695 281.34 71.5824 279.317 73.404 277.776C74.592 277.034 75.9096 278.071 77.0112 278.539C78.264 279.043 82.0943 280.965 83.0159 279.576C83.2823 278.654 81.9072 278.294 81.324 277.877H81.3168ZM78.6023 288.295C78.0407 286.351 76.1111 285.07 73.9223 286.488C73.6199 286.589 73.4255 286.726 73.2887 286.87C72.7991 286.186 71.7191 286.085 71.8487 287.194C72.1007 288.842 71.2872 290.47 70.1784 291.643C69.5232 292.234 68.5728 293.011 69.2568 293.954C71.4312 296.107 74.3904 290.246 73.7496 287.712C73.9152 287.733 74.0591 287.77 74.2751 287.726C76.3847 287.431 76.5863 288.893 75.9959 290.549C75.7439 291.773 73.8144 293.083 75.0312 294.264C76.7304 295.409 78.1272 292.075 78.5448 290.822C78.6816 290.426 78.7535 290.023 78.7751 289.627C79.1639 289.641 79.56 289.67 79.8912 289.886C80.3592 290.498 80.6976 291.283 80.784 292.054C80.7048 292.702 80.8128 293.508 81.5832 293.63C84.42 293.673 82.2887 286.567 78.5951 288.281L78.6023 288.295Z" fill="#F2AB9B"/>
<path d="M242.114 230.054C244.497 239.126 239.861 249.005 231.89 253.685C227.793 255.946 222.919 256.385 218.333 256.234C213.199 256.061 208.303 253.85 205.149 249.725C202.435 246.499 201.729 242.086 201.701 237.989C201.758 235.886 201.924 233.762 202.277 231.689C202.478 230.911 202.514 229.939 203.241 229.464C203.292 229.169 203.623 229.068 203.889 229.068C206.46 229.212 208.987 229.248 211.565 229.162C216.605 229.032 221.702 228.982 226.67 228.305C230.342 227.93 234.108 227.599 237.585 226.31C238.219 226.166 238.795 225.857 239.429 225.734C241.409 225.9 241.682 228.521 242.121 230.054H242.114Z" fill="#BF3434"/>
<path d="M206.647 214.423C202.046 211.788 193.5 214.524 195.574 220.889C196.733 224.517 201.103 225.489 204.48 225.612C206.849 225.525 209.542 224.553 210.629 222.3C211.507 220.586 211.709 218.304 210.406 216.749C209.405 215.589 207.878 215.208 206.647 214.423ZM246.103 208.173C243.302 207.101 240.466 208.353 238.018 209.721C236.203 210.852 234.936 212.868 234.691 214.992C234.605 218.016 237.866 219.938 240.458 220.593C247.702 222.005 254.491 211.809 246.103 208.173Z" fill="#F2AB9B"/>
<path d="M206.237 204.869C204.775 208.541 207.273 215.078 211.68 215.345C213.645 215.719 215.611 214.243 215.978 212.306C216.353 210.319 215.748 208.332 215.265 206.417C214.293 201.982 207.54 198.914 206.237 204.869ZM234.547 202.831C234.079 201.24 233.618 199.577 232.495 198.317C230.853 196.351 227.081 196.2 225.821 198.648C223.963 202.327 225.59 208.231 229.881 209.282C230.868 209.57 231.847 209.282 232.776 208.98C235.13 208.13 235.296 204.862 234.547 202.831Z" fill="white"/>
<path d="M231.89 253.678C233.662 252.634 235.238 251.309 236.642 249.818C234.684 247.255 230.047 245.153 227.707 244.411C220.601 242.345 212.573 242.755 205.79 245.772C205.409 245.988 204.336 246.492 203.458 247.082C203.904 248.018 204.465 248.904 205.142 249.718C208.296 253.843 213.192 256.054 218.326 256.226C222.912 256.378 227.786 255.938 231.883 253.678H231.89Z" fill="#F2958C"/>
<path d="M226.67 228.298C221.702 228.974 216.605 229.025 211.565 229.154C208.987 229.241 206.467 229.205 203.889 229.061C203.846 229.061 203.81 229.082 203.767 229.09C204.033 229.896 204.645 230.724 205.02 231.3C208.49 235.973 214.646 236.088 219.96 236.232C226.145 235.922 234.029 235.498 237.953 230.011C238.435 229.306 238.932 227.347 238.781 225.914C238.385 226.051 237.996 226.202 237.578 226.296C234.101 227.585 230.342 227.916 226.663 228.29L226.67 228.298Z" fill="white"/>
<path d="M223.992 210.866C223.157 211.594 223.517 213.062 224.748 212.76C225.54 212.4 226.102 212.018 226.994 211.817C228.622 211.255 229.723 212.731 229.061 214.229C228.866 215.337 227.383 216.677 228.571 217.634C230.537 218.714 231.12 215.014 231.537 213.754C232.301 209.038 226.821 207.569 223.985 210.874L223.992 210.866ZM225.626 192.802C226.505 193.298 227.405 192.017 226.634 191.362C225.994 190.85 225.194 190.498 224.352 190.57C222.408 190.627 220.133 193.01 221.364 194.868C221.969 195.358 222.365 194.602 222.502 194.083C223.02 192.938 224.431 192.024 225.619 192.802H225.626ZM208.001 197.474C208.238 196.214 206.604 195.876 205.661 195.998C203.674 196.121 201.694 197.554 201.607 199.663C201.564 200.038 201.621 200.765 202.111 200.815C202.658 200.786 202.637 200.016 202.939 199.67C203.688 198.446 205.38 197.878 206.748 198.274C207.31 198.396 207.878 198.05 208.008 197.482L208.001 197.474ZM214.077 208.785C213.861 208.865 213.789 209.038 213.602 209.174C213.264 209.426 212.911 209.146 212.674 208.886C212.134 208.361 211.327 206.582 212.364 206.215C212.889 206.15 213.206 206.525 213.574 206.82C213.552 207.266 214.229 207.252 214.171 206.805C213.969 205.236 213.098 203.731 211.651 203.011C209.081 201.751 207.331 204.091 207.086 206.46C206.554 209.736 208.447 213.53 211.716 214.524C214.711 215.186 215.345 211.773 214.733 209.556C214.661 209.217 214.56 208.641 214.085 208.785H214.077ZM233.28 203.45C233.208 203.213 233.071 202.86 232.747 202.882C232.128 202.896 232.308 203.976 231.667 203.918C230.839 203.378 230.335 202.226 230.357 201.218C230.429 200.815 230.962 200.837 231.286 200.801C231.782 201.384 232.661 200.563 232.128 200.03C231.365 198.338 229.205 197.05 227.513 198.317C224.554 200.837 226.066 206.093 229.428 207.525C230.278 207.929 231.35 208.188 232.2 207.662C233.41 206.719 234 204.847 233.28 203.45Z" fill="black"/>
</g>
<path d="M122.504 56V39.2H126.392V56H122.504ZM137.963 42.896C138.987 42.896 139.899 43.104 140.699 43.52C141.515 43.92 142.155 44.544 142.619 45.392C143.083 46.224 143.315 47.296 143.315 48.608V56H139.571V49.184C139.571 48.144 139.339 47.376 138.875 46.88C138.427 46.384 137.787 46.136 136.955 46.136C136.363 46.136 135.827 46.264 135.347 46.52C134.883 46.76 134.515 47.136 134.243 47.648C133.987 48.16 133.859 48.816 133.859 49.616V56H130.115V43.088H133.691V46.664L133.019 45.584C133.483 44.72 134.147 44.056 135.011 43.592C135.875 43.128 136.859 42.896 137.963 42.896ZM151.988 56.192C150.468 56.192 149.284 55.808 148.436 55.04C147.588 54.256 147.164 53.096 147.164 51.56V40.232H150.908V51.512C150.908 52.056 151.052 52.48 151.34 52.784C151.628 53.072 152.02 53.216 152.516 53.216C153.108 53.216 153.612 53.056 154.028 52.736L155.036 55.376C154.652 55.648 154.188 55.856 153.644 56C153.116 56.128 152.564 56.192 151.988 56.192ZM145.172 46.256V43.376H154.124V46.256H145.172ZM163.148 56.192C161.676 56.192 160.38 55.904 159.26 55.328C158.156 54.752 157.3 53.968 156.692 52.976C156.084 51.968 155.78 50.824 155.78 49.544C155.78 48.248 156.076 47.104 156.668 46.112C157.276 45.104 158.1 44.32 159.14 43.76C160.18 43.184 161.356 42.896 162.668 42.896C163.932 42.896 165.068 43.168 166.076 43.712C167.1 44.24 167.908 45.008 168.5 46.016C169.092 47.008 169.388 48.2 169.388 49.592C169.388 49.736 169.38 49.904 169.364 50.096C169.348 50.272 169.332 50.44 169.316 50.6H158.828V48.416H167.348L165.908 49.064C165.908 48.392 165.772 47.808 165.5 47.312C165.228 46.816 164.852 46.432 164.372 46.16C163.892 45.872 163.332 45.728 162.692 45.728C162.052 45.728 161.484 45.872 160.988 46.16C160.508 46.432 160.132 46.824 159.86 47.336C159.588 47.832 159.452 48.424 159.452 49.112V49.688C159.452 50.392 159.604 51.016 159.908 51.56C160.228 52.088 160.668 52.496 161.228 52.784C161.804 53.056 162.476 53.192 163.244 53.192C163.932 53.192 164.532 53.088 165.044 52.88C165.572 52.672 166.052 52.36 166.484 51.944L168.476 54.104C167.884 54.776 167.14 55.296 166.244 55.664C165.348 56.016 164.316 56.192 163.148 56.192ZM171.88 56V43.088H175.456V46.736L174.952 45.68C175.336 44.768 175.952 44.08 176.8 43.616C177.648 43.136 178.68 42.896 179.896 42.896V46.352C179.736 46.336 179.592 46.328 179.464 46.328C179.336 46.312 179.2 46.304 179.056 46.304C178.032 46.304 177.2 46.6 176.56 47.192C175.936 47.768 175.624 48.672 175.624 49.904V56H171.88ZM189.199 56V53.48L188.959 52.928V48.416C188.959 47.616 188.711 46.992 188.215 46.544C187.735 46.096 186.991 45.872 185.983 45.872C185.295 45.872 184.615 45.984 183.943 46.208C183.287 46.416 182.727 46.704 182.263 47.072L180.919 44.456C181.623 43.96 182.471 43.576 183.463 43.304C184.455 43.032 185.463 42.896 186.487 42.896C188.455 42.896 189.983 43.36 191.071 44.288C192.159 45.216 192.703 46.664 192.703 48.632V56H189.199ZM185.263 56.192C184.255 56.192 183.391 56.024 182.671 55.688C181.951 55.336 181.399 54.864 181.015 54.272C180.631 53.68 180.439 53.016 180.439 52.28C180.439 51.512 180.623 50.84 180.991 50.264C181.375 49.688 181.975 49.24 182.791 48.92C183.607 48.584 184.671 48.416 185.983 48.416H189.415V50.6H186.391C185.511 50.6 184.903 50.744 184.567 51.032C184.247 51.32 184.087 51.68 184.087 52.112C184.087 52.592 184.271 52.976 184.639 53.264C185.023 53.536 185.543 53.672 186.199 53.672C186.823 53.672 187.383 53.528 187.879 53.24C188.375 52.936 188.735 52.496 188.959 51.92L189.535 53.648C189.263 54.48 188.767 55.112 188.047 55.544C187.327 55.976 186.399 56.192 185.263 56.192ZM202.425 56.192C201.033 56.192 199.793 55.912 198.705 55.352C197.617 54.776 196.761 53.984 196.137 52.976C195.529 51.968 195.225 50.824 195.225 49.544C195.225 48.248 195.529 47.104 196.137 46.112C196.761 45.104 197.617 44.32 198.705 43.76C199.793 43.184 201.033 42.896 202.425 42.896C203.785 42.896 204.969 43.184 205.977 43.76C206.985 44.32 207.729 45.128 208.209 46.184L205.305 47.744C204.969 47.136 204.545 46.688 204.033 46.4C203.537 46.112 202.993 45.968 202.401 45.968C201.761 45.968 201.185 46.112 200.673 46.4C200.161 46.688 199.753 47.096 199.449 47.624C199.161 48.152 199.017 48.792 199.017 49.544C199.017 50.296 199.161 50.936 199.449 51.464C199.753 51.992 200.161 52.4 200.673 52.688C201.185 52.976 201.761 53.12 202.401 53.12C202.993 53.12 203.537 52.984 204.033 52.712C204.545 52.424 204.969 51.968 205.305 51.344L208.209 52.928C207.729 53.968 206.985 54.776 205.977 55.352C204.969 55.912 203.785 56.192 202.425 56.192ZM215.832 56.192C214.312 56.192 213.128 55.808 212.28 55.04C211.432 54.256 211.008 53.096 211.008 51.56V40.232H214.752V51.512C214.752 52.056 214.896 52.48 215.184 52.784C215.472 53.072 215.864 53.216 216.36 53.216C216.952 53.216 217.456 53.056 217.872 52.736L218.88 55.376C218.496 55.648 218.032 55.856 217.488 56C216.96 56.128 216.408 56.192 215.832 56.192ZM209.016 46.256V43.376H217.968V46.256H209.016ZM220.982 56V43.088H224.726V56H220.982ZM222.854 41.288C222.166 41.288 221.606 41.088 221.174 40.688C220.742 40.288 220.526 39.792 220.526 39.2C220.526 38.608 220.742 38.112 221.174 37.712C221.606 37.312 222.166 37.112 222.854 37.112C223.542 37.112 224.102 37.304 224.534 37.688C224.966 38.056 225.182 38.536 225.182 39.128C225.182 39.752 224.966 40.272 224.534 40.688C224.118 41.088 223.558 41.288 222.854 41.288ZM231.705 56L226.281 43.088H230.145L234.657 54.2H232.737L237.417 43.088H241.017L235.569 56H231.705ZM242.544 56V43.088H246.288V56H242.544ZM244.416 41.288C243.728 41.288 243.168 41.088 242.736 40.688C242.304 40.288 242.088 39.792 242.088 39.2C242.088 38.608 242.304 38.112 242.736 37.712C243.168 37.312 243.728 37.112 244.416 37.112C245.104 37.112 245.664 37.304 246.096 37.688C246.528 38.056 246.744 38.536 246.744 39.128C246.744 39.752 246.528 40.272 246.096 40.688C245.68 41.088 245.12 41.288 244.416 41.288ZM255.043 56.192C253.523 56.192 252.339 55.808 251.491 55.04C250.643 54.256 250.219 53.096 250.219 51.56V40.232H253.963V51.512C253.963 52.056 254.107 52.48 254.395 52.784C254.683 53.072 255.075 53.216 255.571 53.216C256.163 53.216 256.667 53.056 257.083 52.736L258.091 55.376C257.707 55.648 257.243 55.856 256.699 56C256.171 56.128 255.619 56.192 255.043 56.192ZM248.227 46.256V43.376H257.179V46.256H248.227ZM261.59 60.848C260.918 60.848 260.254 60.744 259.598 60.536C258.942 60.328 258.406 60.04 257.99 59.672L259.358 57.008C259.646 57.264 259.974 57.464 260.342 57.608C260.726 57.752 261.102 57.824 261.47 57.824C261.998 57.824 262.414 57.696 262.718 57.44C263.038 57.2 263.326 56.792 263.582 56.216L264.254 54.632L264.542 54.224L269.174 43.088H272.774L266.942 56.792C266.526 57.832 266.046 58.648 265.502 59.24C264.974 59.832 264.382 60.248 263.726 60.488C263.086 60.728 262.374 60.848 261.59 60.848ZM263.798 56.504L258.038 43.088H261.902L266.366 53.888L263.798 56.504ZM289.019 56V53.48L288.779 52.928V48.416C288.779 47.616 288.531 46.992 288.035 46.544C287.555 46.096 286.811 45.872 285.803 45.872C285.115 45.872 284.435 45.984 283.763 46.208C283.107 46.416 282.547 46.704 282.083 47.072L280.739 44.456C281.443 43.96 282.291 43.576 283.283 43.304C284.275 43.032 285.283 42.896 286.307 42.896C288.275 42.896 289.803 43.36 290.891 44.288C291.979 45.216 292.523 46.664 292.523 48.632V56H289.019ZM285.083 56.192C284.075 56.192 283.211 56.024 282.491 55.688C281.771 55.336 281.219 54.864 280.835 54.272C280.451 53.68 280.259 53.016 280.259 52.28C280.259 51.512 280.443 50.84 280.811 50.264C281.195 49.688 281.795 49.24 282.611 48.92C283.427 48.584 284.491 48.416 285.803 48.416H289.235V50.6H286.211C285.331 50.6 284.723 50.744 284.387 51.032C284.067 51.32 283.907 51.68 283.907 52.112C283.907 52.592 284.091 52.976 284.459 53.264C284.843 53.536 285.363 53.672 286.019 53.672C286.643 53.672 287.203 53.528 287.699 53.24C288.195 52.936 288.555 52.496 288.779 51.92L289.355 53.648C289.083 54.48 288.587 55.112 287.867 55.544C287.147 55.976 286.219 56.192 285.083 56.192ZM303.76 42.896C304.784 42.896 305.696 43.104 306.496 43.52C307.312 43.92 307.952 44.544 308.416 45.392C308.88 46.224 309.112 47.296 309.112 48.608V56H305.368V49.184C305.368 48.144 305.136 47.376 304.672 46.88C304.224 46.384 303.584 46.136 302.752 46.136C302.16 46.136 301.624 46.264 301.144 46.52C300.68 46.76 300.312 47.136 300.04 47.648C299.784 48.16 299.656 48.816 299.656 49.616V56H295.912V43.088H299.488V46.664L298.816 45.584C299.28 44.72 299.944 44.056 300.808 43.592C301.672 43.128 302.656 42.896 303.76 42.896ZM318.143 56.192C316.927 56.192 315.831 55.92 314.855 55.376C313.879 54.816 313.103 54.04 312.527 53.048C311.967 52.056 311.687 50.888 311.687 49.544C311.687 48.184 311.967 47.008 312.527 46.016C313.103 45.024 313.879 44.256 314.855 43.712C315.831 43.168 316.927 42.896 318.143 42.896C319.231 42.896 320.183 43.136 320.999 43.616C321.815 44.096 322.447 44.824 322.895 45.8C323.343 46.776 323.567 48.024 323.567 49.544C323.567 51.048 323.351 52.296 322.919 53.288C322.487 54.264 321.863 54.992 321.047 55.472C320.247 55.952 319.279 56.192 318.143 56.192ZM318.791 53.12C319.399 53.12 319.951 52.976 320.447 52.688C320.943 52.4 321.335 51.992 321.623 51.464C321.927 50.92 322.079 50.28 322.079 49.544C322.079 48.792 321.927 48.152 321.623 47.624C321.335 47.096 320.943 46.688 320.447 46.4C319.951 46.112 319.399 45.968 318.791 45.968C318.167 45.968 317.607 46.112 317.111 46.4C316.615 46.688 316.215 47.096 315.911 47.624C315.623 48.152 315.479 48.792 315.479 49.544C315.479 50.28 315.623 50.92 315.911 51.464C316.215 51.992 316.615 52.4 317.111 52.688C317.607 52.976 318.167 53.12 318.791 53.12ZM322.175 56V53.36L322.247 49.52L322.007 45.704V38.192H325.751V56H322.175ZM187.159 92.288C185.831 92.288 184.607 92.08 183.487 91.664C182.383 91.232 181.415 90.624 180.583 89.84C179.767 89.056 179.127 88.136 178.663 87.08C178.215 86.024 177.991 84.864 177.991 83.6C177.991 82.336 178.215 81.176 178.663 80.12C179.127 79.064 179.775 78.144 180.607 77.36C181.439 76.576 182.415 75.976 183.535 75.56C184.655 75.128 185.887 74.912 187.231 74.912C188.719 74.912 190.055 75.16 191.239 75.656C192.439 76.152 193.447 76.872 194.263 77.816L191.767 80.12C191.159 79.48 190.495 79.008 189.775 78.704C189.055 78.384 188.271 78.224 187.423 78.224C186.607 78.224 185.863 78.352 185.191 78.608C184.519 78.864 183.935 79.232 183.439 79.712C182.959 80.192 182.583 80.76 182.311 81.416C182.055 82.072 181.927 82.8 181.927 83.6C181.927 84.384 182.055 85.104 182.311 85.76C182.583 86.416 182.959 86.992 183.439 87.488C183.935 87.968 184.511 88.336 185.167 88.592C185.839 88.848 186.575 88.976 187.375 88.976C188.143 88.976 188.887 88.856 189.607 88.616C190.343 88.36 191.055 87.936 191.743 87.344L193.951 90.152C193.039 90.84 191.975 91.368 190.759 91.736C189.559 92.104 188.359 92.288 187.159 92.288ZM190.399 89.648V83.336H193.951V90.152L190.399 89.648ZM197.298 92V79.088H200.874V82.736L200.37 81.68C200.754 80.768 201.37 80.08 202.218 79.616C203.066 79.136 204.098 78.896 205.314 78.896V82.352C205.154 82.336 205.01 82.328 204.882 82.328C204.754 82.312 204.618 82.304 204.474 82.304C203.45 82.304 202.618 82.6 201.978 83.192C201.354 83.768 201.042 84.672 201.042 85.904V92H197.298ZM213.591 92.192C212.215 92.192 210.991 91.904 209.919 91.328C208.863 90.752 208.023 89.968 207.399 88.976C206.791 87.968 206.487 86.824 206.487 85.544C206.487 84.248 206.791 83.104 207.399 82.112C208.023 81.104 208.863 80.32 209.919 79.76C210.991 79.184 212.215 78.896 213.591 78.896C214.951 78.896 216.167 79.184 217.239 79.76C218.311 80.32 219.151 81.096 219.759 82.088C220.367 83.08 220.671 84.232 220.671 85.544C220.671 86.824 220.367 87.968 219.759 88.976C219.151 89.968 218.311 90.752 217.239 91.328C216.167 91.904 214.951 92.192 213.591 92.192ZM213.591 89.12C214.215 89.12 214.775 88.976 215.271 88.688C215.767 88.4 216.159 87.992 216.447 87.464C216.735 86.92 216.879 86.28 216.879 85.544C216.879 84.792 216.735 84.152 216.447 83.624C216.159 83.096 215.767 82.688 215.271 82.4C214.775 82.112 214.215 81.968 213.591 81.968C212.967 81.968 212.407 82.112 211.911 82.4C211.415 82.688 211.015 83.096 210.711 83.624C210.423 84.152 210.279 84.792 210.279 85.544C210.279 86.28 210.423 86.92 210.711 87.464C211.015 87.992 211.415 88.4 211.911 88.688C212.407 88.976 212.967 89.12 213.591 89.12ZM225.774 92L221.118 79.088H224.646L228.51 90.2H226.83L230.862 79.088H234.03L237.942 90.2H236.262L240.246 79.088H243.558L238.878 92H235.254L231.822 82.472H232.926L229.374 92H225.774ZM250.93 92.192C249.41 92.192 248.226 91.808 247.378 91.04C246.53 90.256 246.106 89.096 246.106 87.56V76.232H249.85V87.512C249.85 88.056 249.994 88.48 250.282 88.784C250.57 89.072 250.962 89.216 251.458 89.216C252.05 89.216 252.554 89.056 252.97 88.736L253.978 91.376C253.594 91.648 253.13 91.856 252.586 92C252.058 92.128 251.506 92.192 250.93 92.192ZM244.114 82.256V79.376H253.066V82.256H244.114ZM263.928 78.896C264.952 78.896 265.864 79.104 266.664 79.52C267.48 79.92 268.12 80.544 268.584 81.392C269.048 82.224 269.28 83.296 269.28 84.608V92H265.536V85.184C265.536 84.144 265.304 83.376 264.84 82.88C264.392 82.384 263.752 82.136 262.92 82.136C262.328 82.136 261.792 82.264 261.312 82.52C260.848 82.76 260.48 83.136 260.208 83.648C259.952 84.16 259.824 84.816 259.824 85.616V92H256.08V74.192H259.824V82.664L258.984 81.584C259.448 80.72 260.112 80.056 260.976 79.592C261.84 79.128 262.824 78.896 263.928 78.896Z" fill="#1A1A1A"/>
</svg>
