<svg width="250" height="202" viewBox="0 0 250 202" fill="none" xmlns="http://www.w3.org/2000/svg">
<path d="M41.9113 112.808H47.8313V113.816H41.9113V112.808ZM42.0393 117.976H48.7753V119H40.8553V107.8H48.5353V108.824H42.0393V117.976ZM56.4574 119V117.144L56.4094 116.84V113.736C56.4094 113.021 56.2067 112.472 55.8014 112.088C55.4067 111.704 54.8147 111.512 54.0254 111.512C53.4814 111.512 52.964 111.603 52.4734 111.784C51.9827 111.965 51.5667 112.205 51.2254 112.504L50.7134 111.656C51.14 111.293 51.652 111.016 52.2494 110.824C52.8467 110.621 53.476 110.52 54.1374 110.52C55.2254 110.52 56.0627 110.792 56.6494 111.336C57.2467 111.869 57.5454 112.685 57.5454 113.784V119H56.4574ZM53.5614 119.08C52.932 119.08 52.3827 118.979 51.9134 118.776C51.4547 118.563 51.1027 118.275 50.8574 117.912C50.612 117.539 50.4894 117.112 50.4894 116.632C50.4894 116.195 50.5907 115.8 50.7934 115.448C51.0067 115.085 51.348 114.797 51.8174 114.584C52.2974 114.36 52.9374 114.248 53.7374 114.248H56.6334V115.096H53.7694C52.9587 115.096 52.3934 115.24 52.0734 115.528C51.764 115.816 51.6094 116.173 51.6094 116.6C51.6094 117.08 51.796 117.464 52.1694 117.752C52.5427 118.04 53.0654 118.184 53.7374 118.184C54.3774 118.184 54.9267 118.04 55.3854 117.752C55.8547 117.453 56.196 117.027 56.4094 116.472L56.6654 117.256C56.452 117.811 56.0787 118.253 55.5454 118.584C55.0227 118.915 54.3614 119.08 53.5614 119.08ZM64.1189 119.08C63.2869 119.08 62.5402 118.899 61.8789 118.536C61.2282 118.163 60.7162 117.656 60.3429 117.016C59.9695 116.365 59.7829 115.624 59.7829 114.792C59.7829 113.949 59.9695 113.208 60.3429 112.568C60.7162 111.928 61.2282 111.427 61.8789 111.064C62.5402 110.701 63.2869 110.52 64.1189 110.52C64.8335 110.52 65.4789 110.659 66.0549 110.936C66.6309 111.213 67.0842 111.629 67.4149 112.184L66.5669 112.76C66.2789 112.333 65.9215 112.019 65.4949 111.816C65.0682 111.613 64.6042 111.512 64.1029 111.512C63.5055 111.512 62.9669 111.651 62.4869 111.928C62.0069 112.195 61.6282 112.573 61.3509 113.064C61.0735 113.555 60.9349 114.131 60.9349 114.792C60.9349 115.453 61.0735 116.029 61.3509 116.52C61.6282 117.011 62.0069 117.395 62.4869 117.672C62.9669 117.939 63.5055 118.072 64.1029 118.072C64.6042 118.072 65.0682 117.971 65.4949 117.768C65.9215 117.565 66.2789 117.256 66.5669 116.84L67.4149 117.416C67.0842 117.96 66.6309 118.376 66.0549 118.664C65.4789 118.941 64.8335 119.08 64.1189 119.08ZM73.8095 110.52C74.4922 110.52 75.0895 110.653 75.6015 110.92C76.1242 111.176 76.5295 111.571 76.8175 112.104C77.1162 112.637 77.2655 113.309 77.2655 114.12V119H76.1295V114.232C76.1295 113.347 75.9055 112.68 75.4575 112.232C75.0202 111.773 74.4015 111.544 73.6015 111.544C73.0042 111.544 72.4815 111.667 72.0335 111.912C71.5962 112.147 71.2548 112.493 71.0095 112.952C70.7748 113.4 70.6575 113.944 70.6575 114.584V119H69.5215V107.128H70.6575V112.904L70.4335 112.472C70.7002 111.864 71.1268 111.389 71.7135 111.048C72.3002 110.696 72.9988 110.52 73.8095 110.52ZM86.7775 119.08C86.0842 119.08 85.4282 118.984 84.8095 118.792C84.1908 118.589 83.7055 118.339 83.3535 118.04L83.8655 117.144C84.2068 117.4 84.6442 117.624 85.1775 117.816C85.7108 117.997 86.2708 118.088 86.8575 118.088C87.6575 118.088 88.2335 117.965 88.5855 117.72C88.9375 117.464 89.1135 117.128 89.1135 116.712C89.1135 116.403 89.0122 116.163 88.8095 115.992C88.6175 115.811 88.3615 115.677 88.0415 115.592C87.7215 115.496 87.3642 115.416 86.9695 115.352C86.5748 115.288 86.1802 115.213 85.7855 115.128C85.4015 115.043 85.0495 114.92 84.7295 114.76C84.4095 114.589 84.1482 114.36 83.9455 114.072C83.7535 113.784 83.6575 113.4 83.6575 112.92C83.6575 112.461 83.7855 112.051 84.0415 111.688C84.2975 111.325 84.6708 111.043 85.1615 110.84C85.6628 110.627 86.2708 110.52 86.9855 110.52C87.5295 110.52 88.0735 110.595 88.6175 110.744C89.1615 110.883 89.6095 111.069 89.9615 111.304L89.4655 112.216C89.0922 111.96 88.6922 111.779 88.2655 111.672C87.8388 111.555 87.4122 111.496 86.9855 111.496C86.2282 111.496 85.6682 111.629 85.3055 111.896C84.9535 112.152 84.7775 112.483 84.7775 112.888C84.7775 113.208 84.8735 113.459 85.0655 113.64C85.2682 113.821 85.5295 113.965 85.8495 114.072C86.1802 114.168 86.5375 114.248 86.9215 114.312C87.3162 114.376 87.7055 114.456 88.0895 114.552C88.4842 114.637 88.8415 114.76 89.1615 114.92C89.4922 115.069 89.7535 115.288 89.9455 115.576C90.1482 115.853 90.2495 116.221 90.2495 116.68C90.2495 117.171 90.1108 117.597 89.8335 117.96C89.5668 118.312 89.1722 118.589 88.6495 118.792C88.1375 118.984 87.5135 119.08 86.7775 119.08ZM94.99 119.08C94.2007 119.08 93.5927 118.867 93.166 118.44C92.7393 118.013 92.526 117.411 92.526 116.632V108.744H93.662V116.568C93.662 117.059 93.7847 117.437 94.03 117.704C94.286 117.971 94.6487 118.104 95.118 118.104C95.6193 118.104 96.0353 117.96 96.366 117.672L96.766 118.488C96.542 118.691 96.27 118.84 95.95 118.936C95.6407 119.032 95.3207 119.08 94.99 119.08ZM91.022 111.544V110.6H96.222V111.544H91.022ZM104.098 119V117.144L104.05 116.84V113.736C104.05 113.021 103.847 112.472 103.442 112.088C103.047 111.704 102.455 111.512 101.666 111.512C101.122 111.512 100.605 111.603 100.114 111.784C99.6233 111.965 99.2073 112.205 98.866 112.504L98.354 111.656C98.7807 111.293 99.2927 111.016 99.89 110.824C100.487 110.621 101.117 110.52 101.778 110.52C102.866 110.52 103.703 110.792 104.29 111.336C104.887 111.869 105.186 112.685 105.186 113.784V119H104.098ZM101.202 119.08C100.573 119.08 100.023 118.979 99.554 118.776C99.0953 118.563 98.7433 118.275 98.498 117.912C98.2527 117.539 98.13 117.112 98.13 116.632C98.13 116.195 98.2313 115.8 98.434 115.448C98.6473 115.085 98.9887 114.797 99.458 114.584C99.938 114.36 100.578 114.248 101.378 114.248H104.274V115.096H101.41C100.599 115.096 100.034 115.24 99.714 115.528C99.4047 115.816 99.25 116.173 99.25 116.6C99.25 117.08 99.4367 117.464 99.81 117.752C100.183 118.04 100.706 118.184 101.378 118.184C102.018 118.184 102.567 118.04 103.026 117.752C103.495 117.453 103.837 117.027 104.05 116.472L104.306 117.256C104.093 117.811 103.719 118.253 103.186 118.584C102.663 118.915 102.002 119.08 101.202 119.08ZM108.272 119V110.6H109.36V112.888L109.248 112.488C109.482 111.848 109.877 111.363 110.432 111.032C110.986 110.691 111.674 110.52 112.496 110.52V111.624C112.453 111.624 112.41 111.624 112.368 111.624C112.325 111.613 112.282 111.608 112.24 111.608C111.354 111.608 110.661 111.88 110.16 112.424C109.658 112.957 109.408 113.72 109.408 114.712V119H108.272ZM117.584 119.08C116.794 119.08 116.186 118.867 115.76 118.44C115.333 118.013 115.12 117.411 115.12 116.632V108.744H116.256V116.568C116.256 117.059 116.378 117.437 116.624 117.704C116.88 117.971 117.242 118.104 117.712 118.104C118.213 118.104 118.629 117.96 118.96 117.672L119.36 118.488C119.136 118.691 118.864 118.84 118.544 118.936C118.234 119.032 117.914 119.08 117.584 119.08ZM113.616 111.544V110.6H118.816V111.544H113.616ZM121.428 119V110.6H122.564V119H121.428ZM122.004 108.744C121.769 108.744 121.572 108.664 121.412 108.504C121.252 108.344 121.172 108.152 121.172 107.928C121.172 107.704 121.252 107.517 121.412 107.368C121.572 107.208 121.769 107.128 122.004 107.128C122.238 107.128 122.436 107.203 122.596 107.352C122.756 107.501 122.836 107.688 122.836 107.912C122.836 108.147 122.756 108.344 122.596 108.504C122.446 108.664 122.249 108.744 122.004 108.744ZM130.013 110.52C130.695 110.52 131.293 110.653 131.805 110.92C132.327 111.176 132.733 111.571 133.021 112.104C133.319 112.637 133.469 113.309 133.469 114.12V119H132.333V114.232C132.333 113.347 132.109 112.68 131.661 112.232C131.223 111.773 130.605 111.544 129.805 111.544C129.207 111.544 128.685 111.667 128.237 111.912C127.799 112.147 127.458 112.493 127.213 112.952C126.978 113.4 126.861 113.944 126.861 114.584V119H125.725V110.6H126.813V112.904L126.637 112.472C126.903 111.864 127.33 111.389 127.917 111.048C128.503 110.696 129.202 110.52 130.013 110.52ZM140.121 122.184C139.353 122.184 138.617 122.072 137.913 121.848C137.209 121.624 136.638 121.304 136.201 120.888L136.777 120.024C137.172 120.376 137.657 120.653 138.233 120.856C138.82 121.069 139.438 121.176 140.089 121.176C141.156 121.176 141.94 120.925 142.441 120.424C142.942 119.933 143.193 119.165 143.193 118.12V116.024L143.353 114.584L143.241 113.144V110.6H144.329V117.976C144.329 119.427 143.972 120.488 143.257 121.16C142.553 121.843 141.508 122.184 140.121 122.184ZM139.913 118.68C139.113 118.68 138.393 118.509 137.753 118.168C137.113 117.816 136.606 117.331 136.233 116.712C135.87 116.093 135.689 115.384 135.689 114.584C135.689 113.784 135.87 113.08 136.233 112.472C136.606 111.853 137.113 111.373 137.753 111.032C138.393 110.691 139.113 110.52 139.913 110.52C140.66 110.52 141.332 110.675 141.929 110.984C142.526 111.293 143.001 111.752 143.353 112.36C143.705 112.968 143.881 113.709 143.881 114.584C143.881 115.459 143.705 116.2 143.353 116.808C143.001 117.416 142.526 117.88 141.929 118.2C141.332 118.52 140.66 118.68 139.913 118.68ZM140.025 117.672C140.644 117.672 141.193 117.544 141.673 117.288C142.153 117.021 142.532 116.659 142.809 116.2C143.086 115.731 143.225 115.192 143.225 114.584C143.225 113.976 143.086 113.443 142.809 112.984C142.532 112.525 142.153 112.168 141.673 111.912C141.193 111.645 140.644 111.512 140.025 111.512C139.417 111.512 138.868 111.645 138.377 111.912C137.897 112.168 137.518 112.525 137.241 112.984C136.974 113.443 136.841 113.976 136.841 114.584C136.841 115.192 136.974 115.731 137.241 116.2C137.518 116.659 137.897 117.021 138.377 117.288C138.868 117.544 139.417 117.672 140.025 117.672ZM155.966 110.52C156.648 110.52 157.246 110.653 157.758 110.92C158.28 111.176 158.686 111.571 158.974 112.104C159.272 112.637 159.422 113.309 159.422 114.12V119H158.286V114.232C158.286 113.347 158.062 112.68 157.614 112.232C157.176 111.773 156.558 111.544 155.758 111.544C155.16 111.544 154.638 111.667 154.19 111.912C153.752 112.147 153.411 112.493 153.166 112.952C152.931 113.4 152.814 113.944 152.814 114.584V119H151.678V107.128H152.814V112.904L152.59 112.472C152.856 111.864 153.283 111.389 153.87 111.048C154.456 110.696 155.155 110.52 155.966 110.52ZM165.914 119.08C165.104 119.08 164.373 118.899 163.722 118.536C163.082 118.163 162.576 117.656 162.202 117.016C161.829 116.365 161.642 115.624 161.642 114.792C161.642 113.949 161.829 113.208 162.202 112.568C162.576 111.928 163.082 111.427 163.722 111.064C164.362 110.701 165.093 110.52 165.914 110.52C166.746 110.52 167.482 110.701 168.122 111.064C168.773 111.427 169.28 111.928 169.642 112.568C170.016 113.208 170.202 113.949 170.202 114.792C170.202 115.624 170.016 116.365 169.642 117.016C169.28 117.656 168.773 118.163 168.122 118.536C167.472 118.899 166.736 119.08 165.914 119.08ZM165.914 118.072C166.522 118.072 167.061 117.939 167.53 117.672C168 117.395 168.368 117.011 168.634 116.52C168.912 116.019 169.05 115.443 169.05 114.792C169.05 114.131 168.912 113.555 168.634 113.064C168.368 112.573 168 112.195 167.53 111.928C167.061 111.651 166.528 111.512 165.93 111.512C165.333 111.512 164.8 111.651 164.33 111.928C163.861 112.195 163.488 112.573 163.21 113.064C162.933 113.555 162.794 114.131 162.794 114.792C162.794 115.443 162.933 116.019 163.21 116.52C163.488 117.011 163.861 117.395 164.33 117.672C164.8 117.939 165.328 118.072 165.914 118.072ZM175.994 119.08C175.279 119.08 174.655 118.947 174.122 118.68C173.588 118.413 173.172 118.013 172.874 117.48C172.586 116.947 172.442 116.28 172.442 115.48V110.6H173.578V115.352C173.578 116.248 173.796 116.925 174.234 117.384C174.682 117.832 175.306 118.056 176.106 118.056C176.692 118.056 177.199 117.939 177.626 117.704C178.063 117.459 178.394 117.107 178.618 116.648C178.852 116.189 178.97 115.64 178.97 115V110.6H180.106V119H179.017V116.696L179.194 117.112C178.927 117.731 178.511 118.216 177.946 118.568C177.391 118.909 176.74 119.08 175.994 119.08ZM183.272 119V110.6H184.36V112.888L184.248 112.488C184.482 111.848 184.877 111.363 185.432 111.032C185.986 110.691 186.674 110.52 187.496 110.52V111.624C187.453 111.624 187.41 111.624 187.368 111.624C187.325 111.613 187.282 111.608 187.24 111.608C186.354 111.608 185.661 111.88 185.16 112.424C184.658 112.957 184.408 113.72 184.408 114.712V119H183.272ZM195.817 122.104C195.23 121.133 194.772 120.013 194.441 118.744C194.121 117.464 193.961 116.088 193.961 114.616C193.961 113.144 194.121 111.768 194.441 110.488C194.772 109.197 195.23 108.077 195.817 107.128H196.905C196.276 108.227 195.812 109.395 195.513 110.632C195.225 111.859 195.081 113.187 195.081 114.616C195.081 116.045 195.225 117.379 195.513 118.616C195.812 119.843 196.276 121.005 196.905 122.104H195.817ZM200.503 119V108.28L201.015 108.824H197.863V107.8H201.655V119H200.503ZM209.372 110.52C210.055 110.52 210.652 110.653 211.164 110.92C211.687 111.176 212.092 111.571 212.38 112.104C212.679 112.637 212.828 113.309 212.828 114.12V119H211.692V114.232C211.692 113.347 211.468 112.68 211.02 112.232C210.583 111.773 209.964 111.544 209.164 111.544C208.567 111.544 208.044 111.667 207.596 111.912C207.159 112.147 206.817 112.493 206.572 112.952C206.337 113.4 206.22 113.944 206.22 114.584V119H205.084V107.128H206.22V112.904L205.996 112.472C206.263 111.864 206.689 111.389 207.276 111.048C207.863 110.696 208.561 110.52 209.372 110.52ZM216.041 122.104H214.953C215.593 121.005 216.057 119.843 216.345 118.616C216.643 117.379 216.793 116.045 216.793 114.616C216.793 113.187 216.643 111.859 216.345 110.632C216.057 109.395 215.593 108.227 214.953 107.128H216.041C216.649 108.077 217.113 109.197 217.433 110.488C217.753 111.768 217.913 113.144 217.913 114.616C217.913 116.088 217.753 117.464 217.433 118.744C217.113 120.013 216.649 121.133 216.041 122.104ZM221.274 112.264C221.039 112.264 220.837 112.179 220.666 112.008C220.506 111.837 220.426 111.629 220.426 111.384C220.426 111.128 220.506 110.92 220.666 110.76C220.837 110.6 221.039 110.52 221.274 110.52C221.509 110.52 221.706 110.6 221.866 110.76C222.037 110.92 222.122 111.128 222.122 111.384C222.122 111.629 222.037 111.837 221.866 112.008C221.706 112.179 221.509 112.264 221.274 112.264ZM221.274 119.08C221.039 119.08 220.837 118.995 220.666 118.824C220.506 118.653 220.426 118.445 220.426 118.2C220.426 117.944 220.506 117.736 220.666 117.576C220.837 117.416 221.039 117.336 221.274 117.336C221.509 117.336 221.706 117.416 221.866 117.576C222.037 117.736 222.122 117.944 222.122 118.2C222.122 118.445 222.037 118.653 221.866 118.824C221.706 118.995 221.509 119.08 221.274 119.08ZM99.6222 137.224H105.542V138.248H99.6222V137.224ZM99.7502 143H98.5662V131.8H106.246V132.824H99.7502V143ZM111.594 143.08C110.783 143.08 110.053 142.899 109.402 142.536C108.762 142.163 108.255 141.656 107.882 141.016C107.509 140.365 107.322 139.624 107.322 138.792C107.322 137.949 107.509 137.208 107.882 136.568C108.255 135.928 108.762 135.427 109.402 135.064C110.042 134.701 110.773 134.52 111.594 134.52C112.426 134.52 113.162 134.701 113.802 135.064C114.453 135.427 114.959 135.928 115.322 136.568C115.695 137.208 115.882 137.949 115.882 138.792C115.882 139.624 115.695 140.365 115.322 141.016C114.959 141.656 114.453 142.163 113.802 142.536C113.151 142.899 112.415 143.08 111.594 143.08ZM111.594 142.072C112.202 142.072 112.741 141.939 113.21 141.672C113.679 141.395 114.047 141.011 114.314 140.52C114.591 140.019 114.73 139.443 114.73 138.792C114.73 138.131 114.591 137.555 114.314 137.064C114.047 136.573 113.679 136.195 113.21 135.928C112.741 135.651 112.207 135.512 111.61 135.512C111.013 135.512 110.479 135.651 110.01 135.928C109.541 136.195 109.167 136.573 108.89 137.064C108.613 137.555 108.474 138.131 108.474 138.792C108.474 139.443 108.613 140.019 108.89 140.52C109.167 141.011 109.541 141.395 110.01 141.672C110.479 141.939 111.007 142.072 111.594 142.072ZM118.201 143V134.6H119.289V136.888L119.177 136.488C119.412 135.848 119.807 135.363 120.361 135.032C120.916 134.691 121.604 134.52 122.425 134.52V135.624C122.383 135.624 122.34 135.624 122.297 135.624C122.255 135.613 122.212 135.608 122.169 135.608C121.284 135.608 120.591 135.88 120.089 136.424C119.588 136.957 119.337 137.72 119.337 138.712V143H118.201ZM127.851 143V142.184L132.507 137.624C132.933 137.208 133.253 136.845 133.467 136.536C133.68 136.216 133.824 135.917 133.899 135.64C133.973 135.363 134.011 135.101 134.011 134.856C134.011 134.205 133.787 133.693 133.339 133.32C132.901 132.947 132.251 132.76 131.387 132.76C130.725 132.76 130.139 132.861 129.627 133.064C129.125 133.267 128.693 133.581 128.331 134.008L127.515 133.304C127.952 132.792 128.512 132.397 129.195 132.12C129.877 131.843 130.64 131.704 131.483 131.704C132.24 131.704 132.896 131.827 133.451 132.072C134.005 132.307 134.432 132.653 134.731 133.112C135.04 133.571 135.195 134.109 135.195 134.728C135.195 135.091 135.141 135.448 135.035 135.8C134.939 136.152 134.757 136.525 134.491 136.92C134.235 137.304 133.856 137.741 133.355 138.232L129.083 142.424L128.763 141.976H135.707V143H127.851ZM142.988 140.824L143.02 139.368L148.252 134.6H149.644L145.948 138.136L145.308 138.68L142.988 140.824ZM142.092 143V131.128H143.228V143H142.092ZM148.604 143L145.1 138.632L145.836 137.752L149.996 143H148.604ZM151.701 143V134.6H152.837V143H151.701ZM152.277 132.744C152.043 132.744 151.845 132.664 151.685 132.504C151.525 132.344 151.445 132.152 151.445 131.928C151.445 131.704 151.525 131.517 151.685 131.368C151.845 131.208 152.043 131.128 152.277 131.128C152.512 131.128 152.709 131.203 152.869 131.352C153.029 131.501 153.109 131.688 153.109 131.912C153.109 132.147 153.029 132.344 152.869 132.504C152.72 132.664 152.523 132.744 152.277 132.744ZM159.342 143.08C158.542 143.08 157.822 142.899 157.182 142.536C156.553 142.173 156.057 141.672 155.694 141.032C155.331 140.381 155.15 139.635 155.15 138.792C155.15 137.939 155.331 137.192 155.694 136.552C156.057 135.912 156.553 135.416 157.182 135.064C157.822 134.701 158.542 134.52 159.342 134.52C160.078 134.52 160.734 134.685 161.31 135.016C161.897 135.347 162.361 135.832 162.702 136.472C163.054 137.101 163.23 137.875 163.23 138.792C163.23 139.699 163.059 140.472 162.718 141.112C162.377 141.752 161.913 142.243 161.326 142.584C160.75 142.915 160.089 143.08 159.342 143.08ZM159.422 142.072C160.019 142.072 160.553 141.939 161.022 141.672C161.502 141.395 161.875 141.011 162.142 140.52C162.419 140.019 162.558 139.443 162.558 138.792C162.558 138.131 162.419 137.555 162.142 137.064C161.875 136.573 161.502 136.195 161.022 135.928C160.553 135.651 160.019 135.512 159.422 135.512C158.835 135.512 158.307 135.651 157.838 135.928C157.369 136.195 156.995 136.573 156.718 137.064C156.441 137.555 156.302 138.131 156.302 138.792C156.302 139.443 156.441 140.019 156.718 140.52C156.995 141.011 157.369 141.395 157.838 141.672C158.307 141.939 158.835 142.072 159.422 142.072ZM162.59 143V140.472L162.702 138.776L162.542 137.08V131.128H163.678V143H162.59Z" fill="#1A1A1A"/>
<path d="M79.6929 180.288C78.2849 180.288 77.0529 180.08 75.9969 179.664C74.9409 179.232 74.1169 178.632 73.5249 177.864C72.9329 177.08 72.6369 176.168 72.6369 175.128C72.6369 174.088 72.9249 173.208 73.5009 172.488C74.0929 171.752 74.9169 171.2 75.9729 170.832C77.0289 170.448 78.2689 170.256 79.6929 170.256C81.1329 170.256 82.3809 170.448 83.4369 170.832C84.5089 171.2 85.3329 171.752 85.9089 172.488C86.5009 173.208 86.7969 174.088 86.7969 175.128C86.7969 176.168 86.5009 177.08 85.9089 177.864C85.3169 178.632 84.4849 179.232 83.4129 179.664C82.3569 180.08 81.1169 180.288 79.6929 180.288ZM79.6929 177.432C80.6689 177.432 81.4369 177.216 81.9969 176.784C82.5729 176.352 82.8609 175.76 82.8609 175.008C82.8609 174.256 82.5729 173.672 81.9969 173.256C81.4369 172.824 80.6689 172.608 79.6929 172.608C78.7329 172.608 77.9729 172.824 77.4129 173.256C76.8529 173.672 76.5729 174.256 76.5729 175.008C76.5729 175.76 76.8529 176.352 77.4129 176.784C77.9729 177.216 78.7329 177.432 79.6929 177.432ZM79.6929 172.224C78.3969 172.224 77.2609 172.048 76.2849 171.696C75.3249 171.344 74.5729 170.832 74.0289 170.16C73.5009 169.472 73.2369 168.656 73.2369 167.712C73.2369 166.72 73.5089 165.872 74.0529 165.168C74.5969 164.448 75.3569 163.896 76.3329 163.512C77.3089 163.112 78.4289 162.912 79.6929 162.912C80.9889 162.912 82.1169 163.112 83.0769 163.512C84.0529 163.896 84.8129 164.448 85.3569 165.168C85.9169 165.872 86.1969 166.72 86.1969 167.712C86.1969 168.656 85.9249 169.472 85.3809 170.16C84.8529 170.832 84.1009 171.344 83.1249 171.696C82.1489 172.048 81.0049 172.224 79.6929 172.224ZM79.6929 169.944C80.5089 169.944 81.1489 169.76 81.6129 169.392C82.0929 169.024 82.3329 168.52 82.3329 167.88C82.3329 167.208 82.0849 166.688 81.5889 166.32C81.1089 165.952 80.4769 165.768 79.6929 165.768C78.9249 165.768 78.3009 165.952 77.8209 166.32C77.3409 166.688 77.1009 167.208 77.1009 167.88C77.1009 168.52 77.3329 169.024 77.7969 169.392C78.2609 169.76 78.8929 169.944 79.6929 169.944ZM95.7766 180.288C94.4006 180.288 93.1686 179.952 92.0806 179.28C90.9926 178.592 90.1366 177.6 89.5126 176.304C88.8886 175.008 88.5766 173.44 88.5766 171.6C88.5766 169.76 88.8886 168.192 89.5126 166.896C90.1366 165.6 90.9926 164.616 92.0806 163.944C93.1686 163.256 94.4006 162.912 95.7766 162.912C97.1686 162.912 98.4006 163.256 99.4726 163.944C100.561 164.616 101.417 165.6 102.041 166.896C102.665 168.192 102.977 169.76 102.977 171.6C102.977 173.44 102.665 175.008 102.041 176.304C101.417 177.6 100.561 178.592 99.4726 179.28C98.4006 179.952 97.1686 180.288 95.7766 180.288ZM95.7766 177C96.4326 177 97.0006 176.816 97.4806 176.448C97.9766 176.08 98.3606 175.496 98.6326 174.696C98.9206 173.896 99.0646 172.864 99.0646 171.6C99.0646 170.336 98.9206 169.304 98.6326 168.504C98.3606 167.704 97.9766 167.12 97.4806 166.752C97.0006 166.384 96.4326 166.2 95.7766 166.2C95.1366 166.2 94.5686 166.384 94.0726 166.752C93.5926 167.12 93.2086 167.704 92.9206 168.504C92.6486 169.304 92.5126 170.336 92.5126 171.6C92.5126 172.864 92.6486 173.896 92.9206 174.696C93.2086 175.496 93.5926 176.08 94.0726 176.448C94.5686 176.816 95.1366 177 95.7766 177ZM112.066 180.288C110.69 180.288 109.458 179.952 108.37 179.28C107.282 178.592 106.426 177.6 105.802 176.304C105.178 175.008 104.866 173.44 104.866 171.6C104.866 169.76 105.178 168.192 105.802 166.896C106.426 165.6 107.282 164.616 108.37 163.944C109.458 163.256 110.69 162.912 112.066 162.912C113.458 162.912 114.69 163.256 115.762 163.944C116.85 164.616 117.706 165.6 118.33 166.896C118.954 168.192 119.266 169.76 119.266 171.6C119.266 173.44 118.954 175.008 118.33 176.304C117.706 177.6 116.85 178.592 115.762 179.28C114.69 179.952 113.458 180.288 112.066 180.288ZM112.066 177C112.722 177 113.29 176.816 113.77 176.448C114.266 176.08 114.65 175.496 114.922 174.696C115.21 173.896 115.354 172.864 115.354 171.6C115.354 170.336 115.21 169.304 114.922 168.504C114.65 167.704 114.266 167.12 113.77 166.752C113.29 166.384 112.722 166.2 112.066 166.2C111.426 166.2 110.858 166.384 110.362 166.752C109.882 167.12 109.498 167.704 109.21 168.504C108.938 169.304 108.802 170.336 108.802 171.6C108.802 172.864 108.938 173.896 109.21 174.696C109.498 175.496 109.882 176.08 110.362 176.448C110.858 176.816 111.426 177 112.066 177ZM129.008 180V163.2H136.28C137.784 163.2 139.08 163.448 140.168 163.944C141.256 164.424 142.096 165.12 142.688 166.032C143.28 166.944 143.576 168.032 143.576 169.296C143.576 170.544 143.28 171.624 142.688 172.536C142.096 173.432 141.256 174.12 140.168 174.6C139.08 175.08 137.784 175.32 136.28 175.32H131.168L132.896 173.616V180H129.008ZM139.688 180L135.488 173.904H139.64L143.888 180H139.688ZM132.896 174.048L131.168 172.224H136.064C137.264 172.224 138.16 171.968 138.752 171.456C139.344 170.928 139.64 170.208 139.64 169.296C139.64 168.368 139.344 167.648 138.752 167.136C138.16 166.624 137.264 166.368 136.064 166.368H131.168L132.896 164.52V174.048ZM152.176 180.288C150.832 180.288 149.544 180.112 148.312 179.76C147.08 179.392 146.088 178.92 145.336 178.344L146.656 175.416C147.376 175.928 148.224 176.352 149.2 176.688C150.192 177.008 151.192 177.168 152.2 177.168C152.968 177.168 153.584 177.096 154.048 176.952C154.528 176.792 154.88 176.576 155.104 176.304C155.328 176.032 155.44 175.72 155.44 175.368C155.44 174.92 155.264 174.568 154.912 174.312C154.56 174.04 154.096 173.824 153.52 173.664C152.944 173.488 152.304 173.328 151.6 173.184C150.912 173.024 150.216 172.832 149.512 172.608C148.824 172.384 148.192 172.096 147.616 171.744C147.04 171.392 146.568 170.928 146.2 170.352C145.848 169.776 145.672 169.04 145.672 168.144C145.672 167.184 145.928 166.312 146.44 165.528C146.968 164.728 147.752 164.096 148.792 163.632C149.848 163.152 151.168 162.912 152.752 162.912C153.808 162.912 154.848 163.04 155.872 163.296C156.896 163.536 157.8 163.904 158.584 164.4L157.384 167.352C156.6 166.904 155.816 166.576 155.032 166.368C154.248 166.144 153.48 166.032 152.728 166.032C151.976 166.032 151.36 166.12 150.88 166.296C150.4 166.472 150.056 166.704 149.848 166.992C149.64 167.264 149.536 167.584 149.536 167.952C149.536 168.384 149.712 168.736 150.064 169.008C150.416 169.264 150.88 169.472 151.456 169.632C152.032 169.792 152.664 169.952 153.352 170.112C154.056 170.272 154.752 170.456 155.44 170.664C156.144 170.872 156.784 171.152 157.36 171.504C157.936 171.856 158.4 172.32 158.752 172.896C159.12 173.472 159.304 174.2 159.304 175.08C159.304 176.024 159.04 176.888 158.512 177.672C157.984 178.456 157.192 179.088 156.136 179.568C155.096 180.048 153.776 180.288 152.176 180.288ZM161.961 180V163.2H169.593C171.417 163.2 173.025 163.552 174.417 164.256C175.809 164.944 176.897 165.912 177.681 167.16C178.465 168.408 178.857 169.888 178.857 171.6C178.857 173.296 178.465 174.776 177.681 176.04C176.897 177.288 175.809 178.264 174.417 178.968C173.025 179.656 171.417 180 169.593 180H161.961ZM165.849 176.808H169.401C170.521 176.808 171.489 176.6 172.305 176.184C173.137 175.752 173.777 175.144 174.225 174.36C174.689 173.576 174.921 172.656 174.921 171.6C174.921 170.528 174.689 169.608 174.225 168.84C173.777 168.056 173.137 167.456 172.305 167.04C171.489 166.608 170.521 166.392 169.401 166.392H165.849V176.808ZM189.901 165.504L186.709 167.256V166.632L189.901 168.36L188.725 170.328L185.749 168.552L186.085 168.336L186.133 171.672H183.877L183.901 168.336L184.237 168.552L181.261 170.328L180.109 168.36L183.301 166.632V167.256L180.109 165.504L181.261 163.536L184.237 165.336L183.901 165.528L183.877 162.192H186.133L186.085 165.528L185.749 165.336L188.725 163.536L189.901 165.504Z" fill="#1A1A1A"/>
<path d="M89.5 49H1V201H249V49H169.25" stroke="#1A1A1A"/>
<path d="M147.837 9.06247C147.837 9.06247 147.837 9.0456 147.837 9.02876C147.837 9.02876 147.837 9.04563 147.837 9.06247ZM139.712 32.4163C136.898 32.7194 139.779 38.8483 141.857 38.7304C142.812 38.8651 143.75 38.1579 143.884 37.1813C144.118 34.9924 141.723 32.7699 139.729 32.4163H139.712ZM151.255 24.3848C150.652 25.3613 151.238 26.5568 151.556 27.5334C152.009 28.5773 152.562 29.7223 153.55 30.3453C154.84 31.1871 156.683 29.9412 156.398 28.4258C156.365 26.9946 152.545 22.8188 151.238 24.3679L151.255 24.3848ZM171.057 54.8441C169.716 53.0425 168.225 51.3755 166.835 49.6075C165.512 47.8901 164.071 46.2737 162.664 44.6236C162.077 44.068 161.106 42.7715 160.067 41.9296C161.541 40.6668 162.881 39.2355 164.037 37.6696C166.316 34.1001 167.991 29.7223 167.773 25.4118C167.187 22.1285 165.361 19.1988 163.518 16.4879C161.558 13.8444 158.995 11.7565 156.733 9.39919C153.734 6.63782 150.803 3.77542 147.603 1.24977C146.715 0.475236 145.391 -0.770726 144.453 0.643638C143.632 2.78202 144.621 5.17294 144.922 7.345C145.408 10.0053 145.81 12.6657 146.363 15.3092C143.297 17.0098 140.332 18.8788 137.467 20.9162C135.692 22.1454 133.631 23.2566 132.207 24.9572C128.471 23.3913 124.4 23.004 120.447 22.3137C115.454 21.4887 119.106 27.988 120.162 30.059C123.429 35.4303 126.578 41.1551 131.738 44.9099C135.038 47.6713 139.411 48.4458 143.599 48.5805C148.625 48.3279 153.617 46.5768 157.805 43.6807C158.073 43.9838 158.392 44.2532 158.66 44.4721C159.38 45.1456 160.033 45.8696 160.703 46.5768C163.618 49.8938 166.617 53.1603 169.314 56.6625C169.633 57.4034 171.073 58.9188 170.035 59.525C167.003 61.3097 163.35 59.3734 160.1 59.3229C158.057 59.205 157.722 60.7709 158.375 62.3873C158.995 64.492 159.665 66.5799 160.1 68.7183C161.357 74.662 159.799 75.0829 155.761 70.9577C154.053 68.9035 152.528 66.7146 150.886 64.6099C150.2 63.4818 148.993 62.6736 147.737 63.4986C143.817 65.435 139.913 67.405 135.809 68.8867C131.721 70.2169 127.382 71.0588 123.026 71.3113C121.569 71.1935 121.1 72.3721 120.832 73.5844C119.894 76.7836 119.224 80.0837 118.135 83.2324C115.555 90.2368 114.734 88.7046 112.338 82.7946C111.584 80.4542 111.199 77.9958 110.931 75.5544C110.83 74.864 110.847 74.0727 110.395 73.5002C109.976 72.9446 109.239 72.692 108.586 72.9782C107.664 73.3992 107.379 74.4936 106.894 75.3018C105.319 78.0632 104.314 81.1782 102.236 83.6196C101.667 78.0801 103.074 72.4563 104.397 67.0851C104.682 65.9906 105.118 64.8456 104.9 63.7007C103.979 61.175 101.784 59.306 100.209 57.1845C98.0481 54.4905 96.3225 51.4765 94.7813 48.3952C93.6924 46.1558 92.3521 43.5628 91.8161 40.9698C90.6601 34.8241 97.0764 40.8856 98.5339 42.7209C100.879 45.3981 109.373 57.5549 113.159 56.1911C115.89 54.6757 118.386 52.7394 121.234 51.4092C124.115 49.8433 127.449 48.6141 130.515 47.2839C131.755 44.8256 125.087 47.0146 124.082 47.4187C119.977 48.9172 116.208 51.1398 112.405 53.2781C107.513 49.7759 104.347 44.4889 100.36 40.0774C97.579 36.6089 89.5712 32.1132 89.0016 39.5555C88.9513 42.2326 90.0905 44.7415 91.0789 47.1661C92.9217 51.4597 94.865 55.7533 97.713 59.4744C99.003 61.2087 100.46 62.8083 101.75 64.5425C100.326 70.7388 98.5674 77.0698 98.9695 83.4849C99.1873 86.6504 102.153 88.2837 104.464 85.758C106.173 83.8385 107.111 81.3971 108.267 79.124C108.921 83.0808 110.211 88.3679 113.762 90.6578C120.346 93.4528 122.323 78.3326 123.529 74.14C128.404 74.039 133.38 73.2476 137.936 71.4629C141.672 69.9306 145.157 68.0111 148.692 65.9232C151.188 69.2571 153.265 73.1803 156.834 75.4702C158.358 76.4636 160.586 76.9014 161.977 75.4702C164.741 72.5068 161.809 65.4013 160.838 61.9159C164.071 62.4715 167.924 63.9196 171.023 62.1011C172.079 61.495 173 60.5015 173 59.205C172.983 57.5718 171.961 56.1574 171.057 54.8777V54.8441ZM150.183 43.8996C148.323 44.5058 146.162 45.1287 144.118 45.314C141.27 45.3813 138.288 45.2129 135.675 43.9501C132.542 42.1653 129.962 39.4376 127.952 36.4742C125.623 32.7531 122.708 28.9814 120.899 24.9235C124.635 25.2434 128.371 25.7317 132.123 26.5568C133.581 28.3247 134.904 25.6981 136.244 25.0245C138.942 23.2229 141.823 21.1519 144.621 19.4345C145.777 18.6599 146.983 17.9359 148.189 17.2456C148.641 16.9593 149.027 16.5552 149.094 15.9996C148.943 13.676 148.223 11.3692 147.854 9.07927C147.519 7.1261 146.849 5.25714 146.531 3.30397C151.054 7.02509 155.209 11.2008 159.129 15.5786C160.787 17.3803 162.278 19.7376 163.35 22.0106C163.987 23.3408 164.691 24.7383 164.691 26.2706C163.786 34.7062 158.224 41.3739 150.199 43.9164L150.183 43.8996Z" fill="#8FA5BC"/>
</svg>
