<svg width="235" height="56" viewBox="0 0 235 56" fill="none" xmlns="http://www.w3.org/2000/svg">
<path fill-rule="evenodd" clip-rule="evenodd" d="M5.44246 38.9307L5.51677 38.8339C5.58171 38.8921 5.64733 38.9492 5.71364 39.0054L5.73647 39.0247C9.1454 37.2067 11.4417 32.8604 11.643 27.8238C11.678 27.3647 11.6958 26.8998 11.6958 26.4305C11.6958 26.2949 11.696 26.1602 11.6962 26.0265C11.6989 24.1574 11.7012 22.4761 11.1769 20.8743C13.1146 23.0294 14.3255 26.0664 14.3255 29.4371C14.3255 34.405 11.6967 38.6427 7.99065 40.4082L8.05057 40.534L7.96853 40.7086C8.32422 40.8757 8.68141 41.034 9.03975 41.1836C9.01518 41.1971 8.99056 41.2105 8.96588 41.2238C10.3134 41.8259 11.6781 42.301 13.0419 42.6538V55.0229H15.4694V43.1547C16.6974 43.3442 17.9156 43.436 19.1106 43.4335V55.0229H21.5381V43.2961C27.5056 42.6243 32.6073 39.5117 34.9833 34.4541C35.8102 32.6939 36.245 30.8301 36.3217 28.9363C36.5402 26.3349 36.0864 23.6701 35.0508 21.1224C35.3452 21.1872 35.6783 21.319 36.0294 21.5143C36.5446 21.8008 37.083 22.2153 37.5719 22.723C38.46 23.6453 39.1651 24.8539 39.2908 26.1334L39.2737 26.1366L39.3037 26.2973C39.3084 26.3772 39.3108 26.4574 39.3108 26.5377H39.7154C39.7154 26.515 39.7152 26.4924 39.7149 26.4697C42.3452 26.0348 44.6596 26.26 46.6502 27.2304C48.7322 28.2453 50.4838 30.0873 51.8738 32.8984L51.9436 32.8639L52.2571 33.013C53.3536 30.7076 52.8375 27.9369 51.179 25.3409C49.5186 22.7421 46.698 20.2889 43.1158 18.5852C39.8799 17.0462 35.4359 16.4655 32.5097 16.6089C31.2942 14.9534 29.8143 13.4124 28.1023 12.05C28.1644 11.6747 28.2779 11.2686 28.4568 10.8812C28.7543 10.2368 29.2406 9.62826 29.9877 9.31564C30.6647 9.03236 31.5567 8.98379 32.409 8.99965C32.8302 9.00748 33.2497 9.03143 33.6373 9.05356L33.6608 9.0549C33.8884 9.06789 34.1039 9.08006 34.3032 9.08807C34.2988 9.00213 34.293 8.91653 34.2859 8.83127H34.3523V8.42668L34.3426 8.42667C34.2213 5.88748 32.9638 3.62777 31.0402 2.07945L31.0286 2.0938C27.8189 -0.365188 23.3989 -0.574306 18.8747 1.02708C14.3446 2.63054 9.68253 6.05601 5.95155 10.9157C2.21266 15.7857 0.49338 21.5578 0.500019 26.7229C0.506651 31.8818 2.23708 36.4698 5.44246 38.9307ZM26.6872 4.81456C26.7953 5.37422 27.2877 5.79692 27.879 5.79692C28.5493 5.79692 29.0927 5.25351 29.0927 4.58318C29.0927 4.23825 28.9488 3.92692 28.7178 3.70595C28.5683 3.66036 28.4096 3.63584 28.2451 3.63584C27.5037 3.63584 26.8788 4.1344 26.6872 4.81456Z" fill="#86A69D"/>
<path fill-rule="evenodd" clip-rule="evenodd" d="M51.1032 45.5594C52.6576 44.3674 53.4968 42.1451 53.5 39.6463C53.5032 37.1444 52.6695 34.3485 50.8564 31.9896C49.0471 29.6357 46.7864 27.9765 44.5896 27.1998C42.3957 26.4241 40.2523 26.5254 38.6958 27.7165L38.6902 27.7095C37.7574 28.4595 37.1476 29.5541 37.0887 30.784L37.0841 30.784V30.98H37.1163L37.1153 30.9916C37.1123 31.029 37.1098 31.0666 37.1078 31.1043C37.2045 31.1005 37.309 31.0946 37.4194 31.0883L37.4308 31.0876C37.6187 31.0769 37.8222 31.0653 38.0264 31.0615C38.4397 31.0538 38.8723 31.0774 39.2006 31.2146C39.5629 31.366 39.7987 31.6608 39.9429 31.9729C40.0297 32.1605 40.0848 32.3573 40.1148 32.539C37.3946 34.7013 35.883 37.7925 36.129 40.7184C36.1662 41.6357 36.3771 42.5385 36.7781 43.391C37.5425 45.0164 38.8887 46.227 40.5534 46.9528V55.0229H42.1717V47.4828C43.0693 47.6886 44.0235 47.7734 45.0038 47.729V55.0229H46.6221V47.5402C47.5465 47.3668 48.4788 47.0789 49.3946 46.6701L49.3588 46.6507C49.5326 46.5782 49.7058 46.5015 49.8783 46.4206L49.8385 46.336L49.8676 46.2751C48.0704 45.4199 46.7956 43.3672 46.7956 40.9609C46.7956 39.3282 47.3828 37.8572 48.3224 36.8133C48.0682 37.5892 48.0693 38.4036 48.0706 39.3089L48.0708 39.5046C48.0708 39.7319 48.0795 39.9571 48.0964 40.1795C48.194 42.6191 49.3076 44.7243 50.9607 45.6049C50.9966 45.5747 51.0321 45.5439 51.0672 45.5125L51.1032 45.5594ZM40.0456 28.4634C39.9658 28.4634 39.8889 28.4753 39.8164 28.4974C39.7044 28.6044 39.6346 28.7552 39.6346 28.9223C39.6346 29.247 39.8981 29.5102 40.2232 29.5102C40.5099 29.5102 40.7487 29.3054 40.8011 29.0344C40.7082 28.7049 40.4051 28.4634 40.0456 28.4634Z" fill="#F2B263"/>
<path d="M87.1018 33.5114V22.3114H91.9978C93.2138 22.3114 94.2805 22.5461 95.1978 23.0154C96.1151 23.4848 96.8298 24.1354 97.3418 24.9674C97.8538 25.7994 98.1098 26.7808 98.1098 27.9114C98.1098 29.0314 97.8538 30.0128 97.3418 30.8554C96.8298 31.6874 96.1151 32.3381 95.1978 32.8074C94.2805 33.2768 93.2138 33.5114 91.9978 33.5114H87.1018ZM89.1818 31.7514H91.9018C92.7445 31.7514 93.4698 31.5914 94.0778 31.2714C94.6965 30.9514 95.1711 30.5034 95.5018 29.9274C95.8431 29.3514 96.0138 28.6794 96.0138 27.9114C96.0138 27.1328 95.8431 26.4608 95.5018 25.8954C95.1711 25.3194 94.6965 24.8714 94.0778 24.5514C93.4698 24.2314 92.7445 24.0714 91.9018 24.0714H89.1818V31.7514ZM108.033 33.5114V31.7834L107.921 31.4154V28.3914C107.921 27.8048 107.745 27.3514 107.393 27.0314C107.041 26.7008 106.507 26.5354 105.793 26.5354C105.313 26.5354 104.838 26.6101 104.369 26.7594C103.91 26.9088 103.521 27.1168 103.201 27.3834L102.417 25.9274C102.875 25.5754 103.419 25.3141 104.049 25.1434C104.689 24.9621 105.35 24.8714 106.033 24.8714C107.27 24.8714 108.225 25.1701 108.897 25.7674C109.579 26.3541 109.921 27.2661 109.921 28.5034V33.5114H108.033ZM105.345 33.6234C104.705 33.6234 104.145 33.5168 103.665 33.3034C103.185 33.0794 102.811 32.7754 102.545 32.3914C102.289 31.9968 102.161 31.5541 102.161 31.0634C102.161 30.5834 102.273 30.1514 102.497 29.7674C102.731 29.3834 103.11 29.0794 103.633 28.8554C104.155 28.6314 104.849 28.5194 105.713 28.5194H108.193V29.8474H105.857C105.174 29.8474 104.715 29.9594 104.481 30.1834C104.246 30.3968 104.129 30.6634 104.129 30.9834C104.129 31.3461 104.273 31.6341 104.561 31.8474C104.849 32.0608 105.249 32.1674 105.761 32.1674C106.251 32.1674 106.689 32.0554 107.073 31.8314C107.467 31.6074 107.75 31.2768 107.921 30.8394L108.257 32.0394C108.065 32.5408 107.718 32.9301 107.217 33.2074C106.726 33.4848 106.102 33.6234 105.345 33.6234ZM118.759 33.6234C117.938 33.6234 117.196 33.4421 116.535 33.0794C115.884 32.7061 115.372 32.1941 114.999 31.5434C114.626 30.8928 114.439 30.1248 114.439 29.2394C114.439 28.3541 114.626 27.5861 114.999 26.9354C115.372 26.2848 115.884 25.7781 116.535 25.4154C117.196 25.0528 117.938 24.8714 118.759 24.8714C119.474 24.8714 120.114 25.0314 120.679 25.3514C121.244 25.6608 121.692 26.1354 122.023 26.7754C122.354 27.4154 122.519 28.2368 122.519 29.2394C122.519 30.2314 122.359 31.0528 122.039 31.7034C121.719 32.3434 121.276 32.8234 120.711 33.1434C120.146 33.4634 119.495 33.6234 118.759 33.6234ZM118.999 31.9114C119.479 31.9114 119.906 31.8048 120.279 31.5914C120.663 31.3781 120.967 31.0688 121.191 30.6634C121.426 30.2581 121.543 29.7834 121.543 29.2394C121.543 28.6848 121.426 28.2101 121.191 27.8154C120.967 27.4101 120.663 27.1008 120.279 26.8874C119.906 26.6741 119.479 26.5674 118.999 26.5674C118.519 26.5674 118.087 26.6741 117.703 26.8874C117.33 27.1008 117.026 27.4101 116.791 27.8154C116.567 28.2101 116.455 28.6848 116.455 29.2394C116.455 29.7834 116.567 30.2581 116.791 30.6634C117.026 31.0688 117.33 31.3781 117.703 31.5914C118.087 31.8048 118.519 31.9114 118.999 31.9114ZM121.591 33.5114V31.4954L121.671 29.2234L121.511 26.9514V21.6394H123.495V33.5114H121.591ZM128.767 33.5114V24.9674H130.767V33.5114H128.767ZM129.775 23.5594C129.402 23.5594 129.093 23.4421 128.847 23.2074C128.613 22.9728 128.495 22.6901 128.495 22.3594C128.495 22.0181 128.613 21.7354 128.847 21.5114C129.093 21.2768 129.402 21.1594 129.775 21.1594C130.149 21.1594 130.453 21.2714 130.687 21.4954C130.933 21.7088 131.055 21.9808 131.055 22.3114C131.055 22.6634 130.938 22.9621 130.703 23.2074C130.469 23.4421 130.159 23.5594 129.775 23.5594ZM136.032 33.5114V21.6394H138.032V33.5114H136.032ZM142.417 36.7274C142.044 36.7274 141.692 36.6848 141.361 36.5994C141.02 36.5248 140.732 36.4021 140.497 36.2314L141.073 34.7434C141.383 34.9674 141.772 35.0794 142.241 35.0794C142.604 35.0794 142.887 34.9621 143.089 34.7274C143.292 34.5034 143.393 34.1674 143.393 33.7194V24.9674H145.393V33.6714C145.393 34.6101 145.132 35.3514 144.609 35.8954C144.097 36.4501 143.367 36.7274 142.417 36.7274ZM144.385 23.5594C144.012 23.5594 143.703 23.4421 143.457 23.2074C143.223 22.9728 143.105 22.6901 143.105 22.3594C143.105 22.0181 143.223 21.7354 143.457 21.5114C143.703 21.2768 144.012 21.1594 144.385 21.1594C144.759 21.1594 145.063 21.2714 145.297 21.4954C145.543 21.7088 145.665 21.9808 145.665 22.3114C145.665 22.6634 145.548 22.9621 145.313 23.2074C145.079 23.4421 144.769 23.5594 144.385 23.5594ZM155.92 33.5114V31.7834L155.808 31.4154V28.3914C155.808 27.8048 155.632 27.3514 155.28 27.0314C154.928 26.7008 154.395 26.5354 153.68 26.5354C153.2 26.5354 152.725 26.6101 152.256 26.7594C151.797 26.9088 151.408 27.1168 151.088 27.3834L150.304 25.9274C150.763 25.5754 151.307 25.3141 151.936 25.1434C152.576 24.9621 153.237 24.8714 153.92 24.8714C155.157 24.8714 156.112 25.1701 156.784 25.7674C157.467 26.3541 157.808 27.2661 157.808 28.5034V33.5114H155.92ZM153.232 33.6234C152.592 33.6234 152.032 33.5168 151.552 33.3034C151.072 33.0794 150.699 32.7754 150.432 32.3914C150.176 31.9968 150.048 31.5541 150.048 31.0634C150.048 30.5834 150.16 30.1514 150.384 29.7674C150.619 29.3834 150.997 29.0794 151.52 28.8554C152.043 28.6314 152.736 28.5194 153.6 28.5194H156.08V29.8474H153.744C153.061 29.8474 152.603 29.9594 152.368 30.1834C152.133 30.3968 152.016 30.6634 152.016 30.9834C152.016 31.3461 152.16 31.6341 152.448 31.8474C152.736 32.0608 153.136 32.1674 153.648 32.1674C154.139 32.1674 154.576 32.0554 154.96 31.8314C155.355 31.6074 155.637 31.2768 155.808 30.8394L156.144 32.0394C155.952 32.5408 155.605 32.9301 155.104 33.2074C154.613 33.4848 153.989 33.6234 153.232 33.6234ZM170.269 33.5114V22.3114H171.981L176.877 30.4874H175.981L180.797 22.3114H182.509L182.525 33.5114H180.557L180.541 25.3994H180.957L176.861 32.2314H175.933L171.773 25.3994H172.253V33.5114H170.269ZM192.014 33.6234C191.065 33.6234 190.233 33.4368 189.518 33.0634C188.814 32.6794 188.265 32.1568 187.87 31.4954C187.486 30.8341 187.294 30.0821 187.294 29.2394C187.294 28.3861 187.481 27.6341 187.854 26.9834C188.238 26.3221 188.761 25.8048 189.422 25.4314C190.094 25.0581 190.857 24.8714 191.71 24.8714C192.542 24.8714 193.283 25.0528 193.934 25.4154C194.585 25.7781 195.097 26.2901 195.47 26.9514C195.843 27.6128 196.03 28.3914 196.03 29.2874C196.03 29.3728 196.025 29.4688 196.014 29.5754C196.014 29.6821 196.009 29.7834 195.998 29.8794H188.878V28.5514H194.942L194.158 28.9674C194.169 28.4768 194.067 28.0448 193.854 27.6714C193.641 27.2981 193.347 27.0048 192.974 26.7914C192.611 26.5781 192.19 26.4714 191.71 26.4714C191.219 26.4714 190.787 26.5781 190.414 26.7914C190.051 27.0048 189.763 27.3034 189.55 27.6874C189.347 28.0608 189.246 28.5034 189.246 29.0154V29.3354C189.246 29.8474 189.363 30.3008 189.598 30.6954C189.833 31.0901 190.163 31.3941 190.59 31.6074C191.017 31.8208 191.507 31.9274 192.062 31.9274C192.542 31.9274 192.974 31.8528 193.358 31.7034C193.742 31.5541 194.083 31.3194 194.382 30.9994L195.454 32.2314C195.07 32.6794 194.585 33.0261 193.998 33.2714C193.422 33.5061 192.761 33.6234 192.014 33.6234ZM200.591 33.5114V21.6394H202.591V33.5114H200.591ZM207.856 33.5114V24.9674H209.856V33.5114H207.856ZM208.864 23.5594C208.491 23.5594 208.181 23.4421 207.936 23.2074C207.701 22.9728 207.584 22.6901 207.584 22.3594C207.584 22.0181 207.701 21.7354 207.936 21.5114C208.181 21.2768 208.491 21.1594 208.864 21.1594C209.237 21.1594 209.541 21.2714 209.776 21.4954C210.021 21.7088 210.144 21.9808 210.144 22.3114C210.144 22.6634 210.027 22.9621 209.792 23.2074C209.557 23.4421 209.248 23.5594 208.864 23.5594ZM217.761 33.6234C217.046 33.6234 216.358 33.5328 215.697 33.3514C215.046 33.1594 214.529 32.9301 214.145 32.6634L214.913 31.1434C215.297 31.3888 215.756 31.5914 216.289 31.7514C216.822 31.9114 217.356 31.9914 217.889 31.9914C218.518 31.9914 218.972 31.9061 219.249 31.7354C219.537 31.5648 219.681 31.3354 219.681 31.0474C219.681 30.8128 219.585 30.6368 219.393 30.5194C219.201 30.3914 218.95 30.2954 218.641 30.2314C218.332 30.1674 217.985 30.1088 217.601 30.0554C217.228 30.0021 216.849 29.9328 216.465 29.8474C216.092 29.7514 215.75 29.6181 215.441 29.4474C215.132 29.2661 214.881 29.0261 214.689 28.7274C214.497 28.4288 214.401 28.0341 214.401 27.5434C214.401 26.9994 214.556 26.5301 214.865 26.1354C215.174 25.7301 215.606 25.4208 216.161 25.2074C216.726 24.9834 217.393 24.8714 218.161 24.8714C218.737 24.8714 219.318 24.9354 219.905 25.0634C220.492 25.1914 220.977 25.3728 221.361 25.6074L220.593 27.1274C220.188 26.8821 219.777 26.7168 219.361 26.6314C218.956 26.5354 218.55 26.4874 218.145 26.4874C217.537 26.4874 217.084 26.5781 216.785 26.7594C216.497 26.9408 216.353 27.1701 216.353 27.4474C216.353 27.7034 216.449 27.8954 216.641 28.0234C216.833 28.1514 217.084 28.2528 217.393 28.3274C217.702 28.4021 218.044 28.4661 218.417 28.5194C218.801 28.5621 219.18 28.6314 219.553 28.7274C219.926 28.8234 220.268 28.9568 220.577 29.1274C220.897 29.2874 221.153 29.5168 221.345 29.8154C221.537 30.1141 221.633 30.5034 221.633 30.9834C221.633 31.5168 221.473 31.9808 221.153 32.3754C220.844 32.7701 220.401 33.0794 219.825 33.3034C219.249 33.5168 218.561 33.6234 217.761 33.6234ZM231.259 33.5114V31.7834L231.147 31.4154V28.3914C231.147 27.8048 230.971 27.3514 230.619 27.0314C230.267 26.7008 229.734 26.5354 229.019 26.5354C228.539 26.5354 228.065 26.6101 227.595 26.7594C227.137 26.9088 226.747 27.1168 226.427 27.3834L225.643 25.9274C226.102 25.5754 226.646 25.3141 227.275 25.1434C227.915 24.9621 228.577 24.8714 229.259 24.8714C230.497 24.8714 231.451 25.1701 232.123 25.7674C232.806 26.3541 233.147 27.2661 233.147 28.5034V33.5114H231.259ZM228.571 33.6234C227.931 33.6234 227.371 33.5168 226.891 33.3034C226.411 33.0794 226.038 32.7754 225.771 32.3914C225.515 31.9968 225.387 31.5541 225.387 31.0634C225.387 30.5834 225.499 30.1514 225.723 29.7674C225.958 29.3834 226.337 29.0794 226.859 28.8554C227.382 28.6314 228.075 28.5194 228.939 28.5194H231.419V29.8474H229.083C228.401 29.8474 227.942 29.9594 227.707 30.1834C227.473 30.3968 227.355 30.6634 227.355 30.9834C227.355 31.3461 227.499 31.6341 227.787 31.8474C228.075 32.0608 228.475 32.1674 228.987 32.1674C229.478 32.1674 229.915 32.0554 230.299 31.8314C230.694 31.6074 230.977 31.2768 231.147 30.8394L231.483 32.0394C231.291 32.5408 230.945 32.9301 230.443 33.2074C229.953 33.4848 229.329 33.6234 228.571 33.6234Z" fill="#86A69D"/>
</svg>
