<svg width="149" height="127" viewBox="0 0 149 127" fill="none" xmlns="http://www.w3.org/2000/svg">
<path fill-rule="evenodd" clip-rule="evenodd" d="M37.0349 67.6582L37.164 67.49C37.2898 67.6026 37.4171 67.7131 37.5458 67.8215C43.4703 64.662 47.4611 57.1085 47.8109 48.3553C47.8717 47.5575 47.9027 46.7495 47.9027 45.9339C47.9027 45.6982 47.903 45.4642 47.9033 45.2318C47.9079 41.9834 47.9121 39.0616 47.0008 36.2778C50.3684 40.0231 52.4729 45.3011 52.4729 51.1591C52.4729 59.7929 47.9042 67.1577 41.4634 70.2259L41.5675 70.4445L41.425 70.748C42.0431 71.0384 42.6639 71.3136 43.2867 71.5736L43.2354 71.6016L43.1583 71.6434C45.5001 72.6898 47.872 73.5154 50.2422 74.1287V95.625H54.4609V74.9991C56.595 75.3285 58.7122 75.4879 60.7891 75.4837V95.625H65.0078V75.2449C75.3788 74.0772 84.2449 68.668 88.3742 59.8781C89.8113 56.8192 90.5669 53.5801 90.7002 50.2889C91.08 45.7677 90.2913 41.1365 88.4915 36.7089C89.0032 36.8215 89.5821 37.0506 90.1924 37.39C91.0876 37.8878 92.0234 38.6082 92.8731 39.4906C94.4164 41.0934 95.6418 43.1939 95.8604 45.4175L95.8307 45.4231L95.8828 45.7024C95.891 45.8413 95.8951 45.9806 95.8951 46.1202H96.5983C96.5983 46.1016 96.5982 46.0829 96.5981 46.0642C96.5979 46.0435 96.5977 46.0228 96.5974 46.0021C101.169 45.2462 105.191 45.6375 108.65 47.324C112.269 49.0879 115.313 52.2891 117.728 57.1745L117.85 57.1145L118.395 57.3737C120.3 53.3671 119.403 48.5519 116.521 44.0403C113.635 39.5238 108.733 35.2604 102.508 32.2995C96.8841 29.6249 89.1609 28.6156 84.0753 28.8648C81.9629 25.9877 79.391 23.3096 76.4157 20.9419C76.5236 20.2897 76.7209 19.5838 77.0318 18.9105C77.5488 17.7908 78.394 16.7331 79.6923 16.1898C80.8688 15.6975 82.4192 15.613 83.9004 15.6406C84.6324 15.6542 85.3614 15.6958 86.0351 15.7343L86.0758 15.7366C86.4715 15.7592 86.846 15.7804 87.1924 15.7943C87.1847 15.6449 87.1746 15.4962 87.1622 15.348H87.2776V14.6448L87.2608 14.6448C87.0499 10.2319 84.8645 6.30475 81.5214 3.61391L81.5014 3.63886C75.9232 -0.634655 68.2416 -0.998084 60.3789 1.78498C52.506 4.57167 44.4037 10.5248 37.9196 18.9706C31.4218 27.4343 28.4338 37.4656 28.4453 46.4422C28.4569 55.4078 31.4642 63.3814 37.0349 67.6582ZM73.9564 8.36728C74.1442 9.33993 75.0001 10.0746 76.0275 10.0746C77.1925 10.0746 78.1369 9.13016 78.1369 7.96518C78.1369 7.36572 77.8868 6.82466 77.4853 6.44062C77.2255 6.3614 76.9497 6.31878 76.6639 6.31878C75.3754 6.31878 74.2893 7.18524 73.9564 8.36728Z" fill="#86A69D"/>
<path fill-rule="evenodd" clip-rule="evenodd" d="M116.389 79.1782C119.091 77.1066 120.549 73.2445 120.555 68.9017C120.56 64.5537 119.111 59.6947 115.96 55.5951C112.816 51.5042 108.887 48.6206 105.069 47.2708C101.256 45.9228 97.5313 46.0988 94.8263 48.1688L94.8166 48.1567C93.1954 49.4601 92.1357 51.3623 92.0334 53.4998L92.0253 53.4999V53.8404H92.0812C92.0789 53.8675 92.0768 53.8945 92.0749 53.9216C92.0717 53.9665 92.0689 54.0115 92.0666 54.0566C92.2346 54.0499 92.4162 54.0396 92.608 54.0287L92.6278 54.0276C92.9545 54.0089 93.308 53.9888 93.6629 53.9822C94.3812 53.9688 95.133 54.0097 95.7036 54.2482C96.3332 54.5113 96.743 55.0237 96.9937 55.566C97.1445 55.8922 97.2402 56.2341 97.2925 56.55C92.565 60.3078 89.938 65.6801 90.3655 70.7649C90.4302 72.3591 90.7966 73.9281 91.4935 75.4098C92.822 78.2345 95.1616 80.3385 98.0547 81.5999V95.625H100.867V82.5209C102.427 82.8787 104.085 83.026 105.789 82.9487V95.625H108.602V82.6208C110.208 82.3193 111.828 81.819 113.42 81.1086C113.399 81.0974 113.378 81.0861 113.358 81.0747C113.66 80.9488 113.961 80.8155 114.26 80.6749L114.191 80.5279L114.242 80.422C111.119 78.9358 108.903 75.3685 108.903 71.1865C108.903 68.349 109.924 65.7924 111.557 63.9783C111.115 65.3267 111.117 66.742 111.119 68.3155C111.119 68.428 111.119 68.5413 111.119 68.6555C111.119 69.0506 111.134 69.442 111.164 69.8284C111.333 74.0683 113.269 77.727 116.142 79.2573C116.204 79.2049 116.266 79.1513 116.327 79.0967L116.389 79.1782ZM97.1721 49.4669C97.0335 49.4669 96.8998 49.4876 96.7738 49.5259C96.5791 49.7119 96.4578 49.974 96.4578 50.2644C96.4578 50.8287 96.9158 51.2861 97.4807 51.2861C97.979 51.2861 98.394 50.9303 98.4851 50.4592C98.3236 49.8866 97.7969 49.4669 97.1721 49.4669Z" fill="#F2B263"/>
<path d="M1.60181 120.625V109.425H6.49781C7.71381 109.425 8.78048 109.66 9.69781 110.129C10.6151 110.598 11.3298 111.249 11.8418 112.081C12.3538 112.913 12.6098 113.894 12.6098 115.025C12.6098 116.145 12.3538 117.126 11.8418 117.969C11.3298 118.801 10.6151 119.452 9.69781 119.921C8.78048 120.39 7.71381 120.625 6.49781 120.625H1.60181ZM3.68181 118.865H6.40181C7.24448 118.865 7.96981 118.705 8.57781 118.385C9.19648 118.065 9.67114 117.617 10.0018 117.041C10.3431 116.465 10.5138 115.793 10.5138 115.025C10.5138 114.246 10.3431 113.574 10.0018 113.009C9.67114 112.433 9.19648 111.985 8.57781 111.665C7.96981 111.345 7.24448 111.185 6.40181 111.185H3.68181V118.865ZM22.5326 120.625V118.897L22.4206 118.529V115.505C22.4206 114.918 22.2446 114.465 21.8926 114.145C21.5406 113.814 21.0072 113.649 20.2926 113.649C19.8126 113.649 19.3379 113.724 18.8686 113.873C18.4099 114.022 18.0206 114.23 17.7006 114.497L16.9166 113.041C17.3752 112.689 17.9192 112.428 18.5486 112.257C19.1886 112.076 19.8499 111.985 20.5326 111.985C21.7699 111.985 22.7246 112.284 23.3966 112.881C24.0792 113.468 24.4206 114.38 24.4206 115.617V120.625H22.5326ZM19.8446 120.737C19.2046 120.737 18.6446 120.63 18.1646 120.417C17.6846 120.193 17.3112 119.889 17.0446 119.505C16.7886 119.11 16.6606 118.668 16.6606 118.177C16.6606 117.697 16.7726 117.265 16.9966 116.881C17.2312 116.497 17.6099 116.193 18.1326 115.969C18.6552 115.745 19.3486 115.633 20.2126 115.633H22.6926V116.961H20.3566C19.6739 116.961 19.2152 117.073 18.9806 117.297C18.7459 117.51 18.6286 117.777 18.6286 118.097C18.6286 118.46 18.7726 118.748 19.0606 118.961C19.3486 119.174 19.7486 119.281 20.2606 119.281C20.7512 119.281 21.1886 119.169 21.5726 118.945C21.9672 118.721 22.2499 118.39 22.4206 117.953L22.7566 119.153C22.5646 119.654 22.2179 120.044 21.7166 120.321C21.2259 120.598 20.6019 120.737 19.8446 120.737ZM33.2589 120.737C32.4376 120.737 31.6963 120.556 31.0349 120.193C30.3843 119.82 29.8723 119.308 29.4989 118.657C29.1256 118.006 28.9389 117.238 28.9389 116.353C28.9389 115.468 29.1256 114.7 29.4989 114.049C29.8723 113.398 30.3843 112.892 31.0349 112.529C31.6963 112.166 32.4376 111.985 33.2589 111.985C33.9736 111.985 34.6136 112.145 35.1789 112.465C35.7443 112.774 36.1923 113.249 36.5229 113.889C36.8536 114.529 37.0189 115.35 37.0189 116.353C37.0189 117.345 36.8589 118.166 36.5389 118.817C36.2189 119.457 35.7763 119.937 35.2109 120.257C34.6456 120.577 33.9949 120.737 33.2589 120.737ZM33.4989 119.025C33.9789 119.025 34.4056 118.918 34.7789 118.705C35.1629 118.492 35.4669 118.182 35.6909 117.777C35.9256 117.372 36.0429 116.897 36.0429 116.353C36.0429 115.798 35.9256 115.324 35.6909 114.929C35.4669 114.524 35.1629 114.214 34.7789 114.001C34.4056 113.788 33.9789 113.681 33.4989 113.681C33.0189 113.681 32.5869 113.788 32.2029 114.001C31.8296 114.214 31.5256 114.524 31.2909 114.929C31.0669 115.324 30.9549 115.798 30.9549 116.353C30.9549 116.897 31.0669 117.372 31.2909 117.777C31.5256 118.182 31.8296 118.492 32.2029 118.705C32.5869 118.918 33.0189 119.025 33.4989 119.025ZM36.0909 120.625V118.609L36.1709 116.337L36.0109 114.065V108.753H37.9949V120.625H36.0909ZM43.2673 120.625V112.081H45.2673V120.625H43.2673ZM44.2753 110.673C43.902 110.673 43.5926 110.556 43.3473 110.321C43.1126 110.086 42.9953 109.804 42.9953 109.473C42.9953 109.132 43.1126 108.849 43.3473 108.625C43.5926 108.39 43.902 108.273 44.2753 108.273C44.6486 108.273 44.9526 108.385 45.1873 108.609C45.4326 108.822 45.5553 109.094 45.5553 109.425C45.5553 109.777 45.438 110.076 45.2033 110.321C44.9686 110.556 44.6593 110.673 44.2753 110.673ZM50.5323 120.625V108.753H52.5323V120.625H50.5323ZM56.9173 123.841C56.544 123.841 56.192 123.798 55.8613 123.713C55.52 123.638 55.232 123.516 54.9973 123.345L55.5733 121.857C55.8826 122.081 56.272 122.193 56.7413 122.193C57.104 122.193 57.3866 122.076 57.5893 121.841C57.792 121.617 57.8933 121.281 57.8933 120.833V112.081H59.8933V120.785C59.8933 121.724 59.632 122.465 59.1093 123.009C58.5973 123.564 57.8666 123.841 56.9173 123.841ZM58.8853 110.673C58.512 110.673 58.2026 110.556 57.9573 110.321C57.7226 110.086 57.6053 109.804 57.6053 109.473C57.6053 109.132 57.7226 108.849 57.9573 108.625C58.2026 108.39 58.512 108.273 58.8853 108.273C59.2586 108.273 59.5626 108.385 59.7973 108.609C60.0426 108.822 60.1653 109.094 60.1653 109.425C60.1653 109.777 60.048 110.076 59.8133 110.321C59.5786 110.556 59.2693 110.673 58.8853 110.673ZM70.4201 120.625V118.897L70.3081 118.529V115.505C70.3081 114.918 70.1321 114.465 69.7801 114.145C69.4281 113.814 68.8947 113.649 68.1801 113.649C67.7001 113.649 67.2254 113.724 66.7561 113.873C66.2974 114.022 65.9081 114.23 65.5881 114.497L64.8041 113.041C65.2627 112.689 65.8067 112.428 66.4361 112.257C67.0761 112.076 67.7374 111.985 68.4201 111.985C69.6574 111.985 70.6121 112.284 71.2841 112.881C71.9667 113.468 72.3081 114.38 72.3081 115.617V120.625H70.4201ZM67.7321 120.737C67.0921 120.737 66.5321 120.63 66.0521 120.417C65.5721 120.193 65.1987 119.889 64.9321 119.505C64.6761 119.11 64.5481 118.668 64.5481 118.177C64.5481 117.697 64.6601 117.265 64.8841 116.881C65.1187 116.497 65.4974 116.193 66.0201 115.969C66.5427 115.745 67.2361 115.633 68.1001 115.633H70.5801V116.961H68.2441C67.5614 116.961 67.1027 117.073 66.8681 117.297C66.6334 117.51 66.5161 117.777 66.5161 118.097C66.5161 118.46 66.6601 118.748 66.9481 118.961C67.2361 119.174 67.6361 119.281 68.1481 119.281C68.6387 119.281 69.0761 119.169 69.4601 118.945C69.8547 118.721 70.1374 118.39 70.3081 117.953L70.6441 119.153C70.4521 119.654 70.1054 120.044 69.6041 120.321C69.1134 120.598 68.4894 120.737 67.7321 120.737ZM84.7687 120.625V109.425H86.4807L91.3767 117.601H90.4807L95.2967 109.425H97.0087L97.0247 120.625H95.0567L95.0407 112.513H95.4567L91.3607 119.345H90.4327L86.2727 112.513H86.7527V120.625H84.7687ZM106.514 120.737C105.565 120.737 104.733 120.55 104.018 120.177C103.314 119.793 102.765 119.27 102.37 118.609C101.986 117.948 101.794 117.196 101.794 116.353C101.794 115.5 101.981 114.748 102.354 114.097C102.738 113.436 103.261 112.918 103.922 112.545C104.594 112.172 105.357 111.985 106.21 111.985C107.042 111.985 107.783 112.166 108.434 112.529C109.085 112.892 109.597 113.404 109.97 114.065C110.343 114.726 110.53 115.505 110.53 116.401C110.53 116.486 110.525 116.582 110.514 116.689C110.514 116.796 110.509 116.897 110.498 116.993H103.378V115.665H109.442L108.658 116.081C108.669 115.59 108.567 115.158 108.354 114.785C108.141 114.412 107.847 114.118 107.474 113.905C107.111 113.692 106.69 113.585 106.21 113.585C105.719 113.585 105.287 113.692 104.914 113.905C104.551 114.118 104.263 114.417 104.05 114.801C103.847 115.174 103.746 115.617 103.746 116.129V116.449C103.746 116.961 103.863 117.414 104.098 117.809C104.333 118.204 104.663 118.508 105.09 118.721C105.517 118.934 106.007 119.041 106.562 119.041C107.042 119.041 107.474 118.966 107.858 118.817C108.242 118.668 108.583 118.433 108.882 118.113L109.954 119.345C109.57 119.793 109.085 120.14 108.498 120.385C107.922 120.62 107.261 120.737 106.514 120.737ZM115.091 120.625V108.753H117.091V120.625H115.091ZM122.356 120.625V112.081H124.356V120.625H122.356ZM123.364 110.673C122.991 110.673 122.681 110.556 122.436 110.321C122.201 110.086 122.084 109.804 122.084 109.473C122.084 109.132 122.201 108.849 122.436 108.625C122.681 108.39 122.991 108.273 123.364 108.273C123.737 108.273 124.041 108.385 124.276 108.609C124.521 108.822 124.644 109.094 124.644 109.425C124.644 109.777 124.527 110.076 124.292 110.321C124.057 110.556 123.748 110.673 123.364 110.673ZM132.261 120.737C131.546 120.737 130.858 120.646 130.197 120.465C129.546 120.273 129.029 120.044 128.645 119.777L129.413 118.257C129.797 118.502 130.256 118.705 130.789 118.865C131.322 119.025 131.856 119.105 132.389 119.105C133.018 119.105 133.472 119.02 133.749 118.849C134.037 118.678 134.181 118.449 134.181 118.161C134.181 117.926 134.085 117.75 133.893 117.633C133.701 117.505 133.45 117.409 133.141 117.345C132.832 117.281 132.485 117.222 132.101 117.169C131.728 117.116 131.349 117.046 130.965 116.961C130.592 116.865 130.25 116.732 129.941 116.561C129.632 116.38 129.381 116.14 129.189 115.841C128.997 115.542 128.901 115.148 128.901 114.657C128.901 114.113 129.056 113.644 129.365 113.249C129.674 112.844 130.106 112.534 130.661 112.321C131.226 112.097 131.893 111.985 132.661 111.985C133.237 111.985 133.818 112.049 134.405 112.177C134.992 112.305 135.477 112.486 135.861 112.721L135.093 114.241C134.688 113.996 134.277 113.83 133.861 113.745C133.456 113.649 133.05 113.601 132.645 113.601C132.037 113.601 131.584 113.692 131.285 113.873C130.997 114.054 130.853 114.284 130.853 114.561C130.853 114.817 130.949 115.009 131.141 115.137C131.333 115.265 131.584 115.366 131.893 115.441C132.202 115.516 132.544 115.58 132.917 115.633C133.301 115.676 133.68 115.745 134.053 115.841C134.426 115.937 134.768 116.07 135.077 116.241C135.397 116.401 135.653 116.63 135.845 116.929C136.037 117.228 136.133 117.617 136.133 118.097C136.133 118.63 135.973 119.094 135.653 119.489C135.344 119.884 134.901 120.193 134.325 120.417C133.749 120.63 133.061 120.737 132.261 120.737ZM145.759 120.625V118.897L145.647 118.529V115.505C145.647 114.918 145.471 114.465 145.119 114.145C144.767 113.814 144.234 113.649 143.519 113.649C143.039 113.649 142.565 113.724 142.095 113.873C141.637 114.022 141.247 114.23 140.927 114.497L140.143 113.041C140.602 112.689 141.146 112.428 141.775 112.257C142.415 112.076 143.077 111.985 143.759 111.985C144.997 111.985 145.951 112.284 146.623 112.881C147.306 113.468 147.647 114.38 147.647 115.617V120.625H145.759ZM143.071 120.737C142.431 120.737 141.871 120.63 141.391 120.417C140.911 120.193 140.538 119.889 140.271 119.505C140.015 119.11 139.887 118.668 139.887 118.177C139.887 117.697 139.999 117.265 140.223 116.881C140.458 116.497 140.837 116.193 141.359 115.969C141.882 115.745 142.575 115.633 143.439 115.633H145.919V116.961H143.583C142.901 116.961 142.442 117.073 142.207 117.297C141.973 117.51 141.855 117.777 141.855 118.097C141.855 118.46 141.999 118.748 142.287 118.961C142.575 119.174 142.975 119.281 143.487 119.281C143.978 119.281 144.415 119.169 144.799 118.945C145.194 118.721 145.477 118.39 145.647 117.953L145.983 119.153C145.791 119.654 145.445 120.044 144.943 120.321C144.453 120.598 143.829 120.737 143.071 120.737Z" fill="#86A69D"/>
</svg>
