<svg width="92" height="96" viewBox="0 0 92 96" fill="none" xmlns="http://www.w3.org/2000/svg">
<path fill-rule="evenodd" clip-rule="evenodd" d="M8.57937 67.9235L8.70836 67.7546C8.834 67.8677 8.96112 67.9787 9.08973 68.0874C15.0071 64.9156 18.9932 57.3325 19.3426 48.545C19.4033 47.744 19.4342 46.9329 19.4342 46.1141C19.4342 45.8784 19.4346 45.6445 19.4349 45.4122L19.4349 45.4092C19.4395 42.1481 19.4437 39.2147 18.5335 36.42C21.8971 40.18 23.999 45.4787 23.999 51.3597C23.999 60.0273 19.4358 67.421 13.0026 70.5013L13.1066 70.7208L12.9642 71.0255C13.5817 71.317 14.2017 71.5932 14.8237 71.8542C14.7811 71.8778 14.7383 71.9012 14.6955 71.9243C17.0345 72.9748 19.4036 73.8037 21.771 74.4194V96H28.0243V75.5584C29.465 75.7095 30.8945 75.7826 32.3053 75.7797V96H38.5587V75.2509C48.0312 73.6327 56.0068 68.3522 59.8578 60.1129C61.2931 57.042 62.0478 53.7902 62.181 50.486C62.5603 45.9472 61.7726 41.2978 59.9749 36.8529C60.486 36.9659 61.0642 37.1959 61.6738 37.5366C62.5679 38.0364 63.5026 38.7596 64.3513 39.6455C65.8928 41.2546 67.1167 43.3633 67.335 45.5956L67.3054 45.6012L67.3574 45.8816C67.3656 46.0211 67.3697 46.1609 67.3697 46.3011H68.072C68.072 46.2615 68.0717 46.222 68.0711 46.1825C72.6369 45.4237 76.6545 45.8165 80.1097 47.5096C83.7238 49.2804 86.7643 52.4942 89.1771 57.3987L89.2983 57.3385L89.8426 57.5987C91.7458 53.5764 90.8501 48.7422 87.9711 44.213C85.089 39.6788 80.1928 35.3987 73.9745 32.4262C68.3575 29.7411 60.6435 28.7278 55.564 28.978C53.454 26.0897 50.8852 23.401 47.9135 21.024C48.0211 20.3692 48.2183 19.6606 48.5288 18.9847C49.0452 17.8605 49.8893 16.7987 51.1861 16.2533C52.3613 15.759 53.9098 15.6743 55.3893 15.7019C56.1203 15.7156 56.8485 15.7574 57.5214 15.796L57.5621 15.7983C57.9573 15.821 58.3313 15.8422 58.6773 15.8562C58.6696 15.7063 58.6596 15.5569 58.6472 15.4082H58.7624V14.7023L58.7457 14.7022C58.535 10.2721 56.3522 6.32947 53.0131 3.62807L52.993 3.65312C47.4215 -0.637154 39.749 -1.00201 31.8957 1.79197C24.0321 4.58958 15.9395 10.5661 9.46307 19.045C2.97291 27.5418 -0.0114908 37.6125 3.32422e-05 46.6243C0.0115444 55.6251 3.0153 63.6299 8.57937 67.9235ZM45.4571 8.40008C45.6446 9.37655 46.4995 10.1141 47.5257 10.1141C48.6893 10.1141 49.6326 9.16595 49.6326 7.99641C49.6326 7.39459 49.3828 6.85141 48.9818 6.46587C48.7223 6.38634 48.4468 6.34355 48.1614 6.34355C46.8744 6.34355 45.7896 7.2134 45.4571 8.40008Z" fill="#86A69D"/>
<path fill-rule="evenodd" clip-rule="evenodd" d="M87.7771 79.4068L87.8396 79.4886C90.5378 77.4089 91.9944 73.5316 92 69.1718C92.0056 64.8067 90.5583 59.9287 87.4111 55.8131C84.2705 51.7061 80.3462 48.8112 76.5329 47.4561C72.7246 46.1028 69.004 46.2795 66.3022 48.3576L66.2924 48.3455C64.6732 49.654 63.6147 51.5637 63.5126 53.7095L63.5045 53.7096V54.0515H63.5603C63.5543 54.1235 63.5494 54.1959 63.5457 54.2685C63.7135 54.2617 63.8949 54.2514 64.0865 54.2405L64.1063 54.2393C64.4326 54.2206 64.7857 54.2004 65.1402 54.1938C65.8576 54.1804 66.6085 54.2214 67.1784 54.4608C67.8073 54.725 68.2166 55.2393 68.467 55.7838C68.6176 56.1113 68.7132 56.4545 68.7654 56.7717C64.0436 60.5442 61.4196 65.9376 61.8467 71.0423C61.9113 72.6428 62.2773 74.2179 62.9733 75.7054C64.3002 78.5412 66.6371 80.6534 69.5267 81.9198V95.9999H73.6956V83.1004C74.8451 83.2698 76.037 83.3293 77.2519 83.2739V95.9999H81.4208V82.6408C82.5761 82.342 83.7323 81.9386 84.8737 81.4265L84.8116 81.3926C85.1132 81.2662 85.4139 81.1324 85.7133 80.9911L85.6442 80.8436L85.6947 80.7373C82.575 79.2452 80.3622 75.6639 80.3622 71.4655C80.3622 68.6169 81.3815 66.0504 83.0126 64.2291C82.5712 65.5828 82.5732 67.0036 82.5755 68.5833V68.5848V68.5864C82.5756 68.6983 82.5758 68.8111 82.5758 68.9247C82.5758 69.3213 82.5908 69.7142 82.6202 70.1021C82.7896 74.3586 84.7226 78.0317 87.5921 79.568L87.6044 79.5576C87.6626 79.5083 87.7201 79.458 87.7771 79.4068ZM68.6452 49.6608C68.5068 49.6608 68.3732 49.6815 68.2473 49.72C68.0529 49.9068 67.9318 50.1699 67.9318 50.4614C67.9318 51.0279 68.3892 51.4871 68.9534 51.4871C69.4511 51.4871 69.8656 51.1299 69.9566 50.6569C69.7953 50.0821 69.2693 49.6608 68.6452 49.6608Z" fill="#F2B263"/>
</svg>
