<svg width="250" height="213" viewBox="0 0 250 213" fill="none" xmlns="http://www.w3.org/2000/svg">
<path d="M35.9113 117.808H41.8313V118.816H35.9113V117.808ZM36.0393 122.976H42.7753V124H34.8553V112.8H42.5353V113.824H36.0393V122.976ZM50.4574 124V122.144L50.4094 121.84V118.736C50.4094 118.021 50.2067 117.472 49.8014 117.088C49.4067 116.704 48.8147 116.512 48.0254 116.512C47.4814 116.512 46.964 116.603 46.4734 116.784C45.9827 116.965 45.5667 117.205 45.2254 117.504L44.7134 116.656C45.14 116.293 45.652 116.016 46.2494 115.824C46.8467 115.621 47.476 115.52 48.1374 115.52C49.2254 115.52 50.0627 115.792 50.6494 116.336C51.2467 116.869 51.5454 117.685 51.5454 118.784V124H50.4574ZM47.5614 124.08C46.932 124.08 46.3827 123.979 45.9134 123.776C45.4547 123.563 45.1027 123.275 44.8574 122.912C44.612 122.539 44.4894 122.112 44.4894 121.632C44.4894 121.195 44.5907 120.8 44.7934 120.448C45.0067 120.085 45.348 119.797 45.8174 119.584C46.2974 119.36 46.9374 119.248 47.7374 119.248H50.6334V120.096H47.7694C46.9587 120.096 46.3934 120.24 46.0734 120.528C45.764 120.816 45.6094 121.173 45.6094 121.6C45.6094 122.08 45.796 122.464 46.1694 122.752C46.5427 123.04 47.0654 123.184 47.7374 123.184C48.3774 123.184 48.9267 123.04 49.3854 122.752C49.8547 122.453 50.196 122.027 50.4094 121.472L50.6654 122.256C50.452 122.811 50.0787 123.253 49.5454 123.584C49.0227 123.915 48.3614 124.08 47.5614 124.08ZM58.1189 124.08C57.2869 124.08 56.5402 123.899 55.8789 123.536C55.2282 123.163 54.7162 122.656 54.3429 122.016C53.9695 121.365 53.7829 120.624 53.7829 119.792C53.7829 118.949 53.9695 118.208 54.3429 117.568C54.7162 116.928 55.2282 116.427 55.8789 116.064C56.5402 115.701 57.2869 115.52 58.1189 115.52C58.8335 115.52 59.4789 115.659 60.0549 115.936C60.6309 116.213 61.0842 116.629 61.4149 117.184L60.5669 117.76C60.2789 117.333 59.9215 117.019 59.4949 116.816C59.0682 116.613 58.6042 116.512 58.1029 116.512C57.5055 116.512 56.9669 116.651 56.4869 116.928C56.0069 117.195 55.6282 117.573 55.3509 118.064C55.0735 118.555 54.9349 119.131 54.9349 119.792C54.9349 120.453 55.0735 121.029 55.3509 121.52C55.6282 122.011 56.0069 122.395 56.4869 122.672C56.9669 122.939 57.5055 123.072 58.1029 123.072C58.6042 123.072 59.0682 122.971 59.4949 122.768C59.9215 122.565 60.2789 122.256 60.5669 121.84L61.4149 122.416C61.0842 122.96 60.6309 123.376 60.0549 123.664C59.4789 123.941 58.8335 124.08 58.1189 124.08ZM67.8095 115.52C68.4922 115.52 69.0895 115.653 69.6015 115.92C70.1242 116.176 70.5295 116.571 70.8175 117.104C71.1162 117.637 71.2655 118.309 71.2655 119.12V124H70.1295V119.232C70.1295 118.347 69.9055 117.68 69.4575 117.232C69.0202 116.773 68.4015 116.544 67.6015 116.544C67.0042 116.544 66.4815 116.667 66.0335 116.912C65.5962 117.147 65.2548 117.493 65.0095 117.952C64.7748 118.4 64.6575 118.944 64.6575 119.584V124H63.5215V112.128H64.6575V117.904L64.4335 117.472C64.7002 116.864 65.1268 116.389 65.7135 116.048C66.3002 115.696 66.9988 115.52 67.8095 115.52ZM80.7775 124.08C80.0842 124.08 79.4282 123.984 78.8095 123.792C78.1908 123.589 77.7055 123.339 77.3535 123.04L77.8655 122.144C78.2068 122.4 78.6442 122.624 79.1775 122.816C79.7108 122.997 80.2708 123.088 80.8575 123.088C81.6575 123.088 82.2335 122.965 82.5855 122.72C82.9375 122.464 83.1135 122.128 83.1135 121.712C83.1135 121.403 83.0122 121.163 82.8095 120.992C82.6175 120.811 82.3615 120.677 82.0415 120.592C81.7215 120.496 81.3642 120.416 80.9695 120.352C80.5748 120.288 80.1802 120.213 79.7855 120.128C79.4015 120.043 79.0495 119.92 78.7295 119.76C78.4095 119.589 78.1482 119.36 77.9455 119.072C77.7535 118.784 77.6575 118.4 77.6575 117.92C77.6575 117.461 77.7855 117.051 78.0415 116.688C78.2975 116.325 78.6708 116.043 79.1615 115.84C79.6628 115.627 80.2708 115.52 80.9855 115.52C81.5295 115.52 82.0735 115.595 82.6175 115.744C83.1615 115.883 83.6095 116.069 83.9615 116.304L83.4655 117.216C83.0922 116.96 82.6922 116.779 82.2655 116.672C81.8388 116.555 81.4122 116.496 80.9855 116.496C80.2282 116.496 79.6682 116.629 79.3055 116.896C78.9535 117.152 78.7775 117.483 78.7775 117.888C78.7775 118.208 78.8735 118.459 79.0655 118.64C79.2682 118.821 79.5295 118.965 79.8495 119.072C80.1802 119.168 80.5375 119.248 80.9215 119.312C81.3162 119.376 81.7055 119.456 82.0895 119.552C82.4842 119.637 82.8415 119.76 83.1615 119.92C83.4922 120.069 83.7535 120.288 83.9455 120.576C84.1482 120.853 84.2495 121.221 84.2495 121.68C84.2495 122.171 84.1108 122.597 83.8335 122.96C83.5668 123.312 83.1722 123.589 82.6495 123.792C82.1375 123.984 81.5135 124.08 80.7775 124.08ZM88.99 124.08C88.2007 124.08 87.5927 123.867 87.166 123.44C86.7393 123.013 86.526 122.411 86.526 121.632V113.744H87.662V121.568C87.662 122.059 87.7847 122.437 88.03 122.704C88.286 122.971 88.6487 123.104 89.118 123.104C89.6193 123.104 90.0353 122.96 90.366 122.672L90.766 123.488C90.542 123.691 90.27 123.84 89.95 123.936C89.6407 124.032 89.3207 124.08 88.99 124.08ZM85.022 116.544V115.6H90.222V116.544H85.022ZM98.098 124V122.144L98.05 121.84V118.736C98.05 118.021 97.8473 117.472 97.442 117.088C97.0473 116.704 96.4553 116.512 95.666 116.512C95.122 116.512 94.6047 116.603 94.114 116.784C93.6233 116.965 93.2073 117.205 92.866 117.504L92.354 116.656C92.7807 116.293 93.2927 116.016 93.89 115.824C94.4873 115.621 95.1167 115.52 95.778 115.52C96.866 115.52 97.7033 115.792 98.29 116.336C98.8873 116.869 99.186 117.685 99.186 118.784V124H98.098ZM95.202 124.08C94.5727 124.08 94.0233 123.979 93.554 123.776C93.0953 123.563 92.7433 123.275 92.498 122.912C92.2527 122.539 92.13 122.112 92.13 121.632C92.13 121.195 92.2313 120.8 92.434 120.448C92.6473 120.085 92.9887 119.797 93.458 119.584C93.938 119.36 94.578 119.248 95.378 119.248H98.274V120.096H95.41C94.5993 120.096 94.034 120.24 93.714 120.528C93.4047 120.816 93.25 121.173 93.25 121.6C93.25 122.08 93.4367 122.464 93.81 122.752C94.1833 123.04 94.706 123.184 95.378 123.184C96.018 123.184 96.5673 123.04 97.026 122.752C97.4953 122.453 97.8367 122.027 98.05 121.472L98.306 122.256C98.0927 122.811 97.7193 123.253 97.186 123.584C96.6633 123.915 96.002 124.08 95.202 124.08ZM102.272 124V115.6H103.36V117.888L103.248 117.488C103.482 116.848 103.877 116.363 104.432 116.032C104.986 115.691 105.674 115.52 106.496 115.52V116.624C106.453 116.624 106.41 116.624 106.368 116.624C106.325 116.613 106.282 116.608 106.24 116.608C105.354 116.608 104.661 116.88 104.16 117.424C103.658 117.957 103.408 118.72 103.408 119.712V124H102.272ZM111.584 124.08C110.794 124.08 110.186 123.867 109.76 123.44C109.333 123.013 109.12 122.411 109.12 121.632V113.744H110.256V121.568C110.256 122.059 110.378 122.437 110.624 122.704C110.88 122.971 111.242 123.104 111.712 123.104C112.213 123.104 112.629 122.96 112.96 122.672L113.36 123.488C113.136 123.691 112.864 123.84 112.544 123.936C112.234 124.032 111.914 124.08 111.584 124.08ZM107.616 116.544V115.6H112.816V116.544H107.616ZM115.428 124V115.6H116.564V124H115.428ZM116.004 113.744C115.769 113.744 115.572 113.664 115.412 113.504C115.252 113.344 115.172 113.152 115.172 112.928C115.172 112.704 115.252 112.517 115.412 112.368C115.572 112.208 115.769 112.128 116.004 112.128C116.238 112.128 116.436 112.203 116.596 112.352C116.756 112.501 116.836 112.688 116.836 112.912C116.836 113.147 116.756 113.344 116.596 113.504C116.446 113.664 116.249 113.744 116.004 113.744ZM124.013 115.52C124.695 115.52 125.293 115.653 125.805 115.92C126.327 116.176 126.733 116.571 127.021 117.104C127.319 117.637 127.469 118.309 127.469 119.12V124H126.333V119.232C126.333 118.347 126.109 117.68 125.661 117.232C125.223 116.773 124.605 116.544 123.805 116.544C123.207 116.544 122.685 116.667 122.237 116.912C121.799 117.147 121.458 117.493 121.213 117.952C120.978 118.4 120.861 118.944 120.861 119.584V124H119.725V115.6H120.813V117.904L120.637 117.472C120.903 116.864 121.33 116.389 121.917 116.048C122.503 115.696 123.202 115.52 124.013 115.52ZM134.121 127.184C133.353 127.184 132.617 127.072 131.913 126.848C131.209 126.624 130.638 126.304 130.201 125.888L130.777 125.024C131.172 125.376 131.657 125.653 132.233 125.856C132.82 126.069 133.438 126.176 134.089 126.176C135.156 126.176 135.94 125.925 136.441 125.424C136.942 124.933 137.193 124.165 137.193 123.12V121.024L137.353 119.584L137.241 118.144V115.6H138.329V122.976C138.329 124.427 137.972 125.488 137.257 126.16C136.553 126.843 135.508 127.184 134.121 127.184ZM133.913 123.68C133.113 123.68 132.393 123.509 131.753 123.168C131.113 122.816 130.606 122.331 130.233 121.712C129.87 121.093 129.689 120.384 129.689 119.584C129.689 118.784 129.87 118.08 130.233 117.472C130.606 116.853 131.113 116.373 131.753 116.032C132.393 115.691 133.113 115.52 133.913 115.52C134.66 115.52 135.332 115.675 135.929 115.984C136.526 116.293 137.001 116.752 137.353 117.36C137.705 117.968 137.881 118.709 137.881 119.584C137.881 120.459 137.705 121.2 137.353 121.808C137.001 122.416 136.526 122.88 135.929 123.2C135.332 123.52 134.66 123.68 133.913 123.68ZM134.025 122.672C134.644 122.672 135.193 122.544 135.673 122.288C136.153 122.021 136.532 121.659 136.809 121.2C137.086 120.731 137.225 120.192 137.225 119.584C137.225 118.976 137.086 118.443 136.809 117.984C136.532 117.525 136.153 117.168 135.673 116.912C135.193 116.645 134.644 116.512 134.025 116.512C133.417 116.512 132.868 116.645 132.377 116.912C131.897 117.168 131.518 117.525 131.241 117.984C130.974 118.443 130.841 118.976 130.841 119.584C130.841 120.192 130.974 120.731 131.241 121.2C131.518 121.659 131.897 122.021 132.377 122.288C132.868 122.544 133.417 122.672 134.025 122.672ZM149.966 115.52C150.648 115.52 151.246 115.653 151.758 115.92C152.28 116.176 152.686 116.571 152.974 117.104C153.272 117.637 153.422 118.309 153.422 119.12V124H152.286V119.232C152.286 118.347 152.062 117.68 151.614 117.232C151.176 116.773 150.558 116.544 149.758 116.544C149.16 116.544 148.638 116.667 148.19 116.912C147.752 117.147 147.411 117.493 147.166 117.952C146.931 118.4 146.814 118.944 146.814 119.584V124H145.678V112.128H146.814V117.904L146.59 117.472C146.856 116.864 147.283 116.389 147.87 116.048C148.456 115.696 149.155 115.52 149.966 115.52ZM159.914 124.08C159.104 124.08 158.373 123.899 157.722 123.536C157.082 123.163 156.576 122.656 156.202 122.016C155.829 121.365 155.642 120.624 155.642 119.792C155.642 118.949 155.829 118.208 156.202 117.568C156.576 116.928 157.082 116.427 157.722 116.064C158.362 115.701 159.093 115.52 159.914 115.52C160.746 115.52 161.482 115.701 162.122 116.064C162.773 116.427 163.28 116.928 163.642 117.568C164.016 118.208 164.202 118.949 164.202 119.792C164.202 120.624 164.016 121.365 163.642 122.016C163.28 122.656 162.773 123.163 162.122 123.536C161.472 123.899 160.736 124.08 159.914 124.08ZM159.914 123.072C160.522 123.072 161.061 122.939 161.53 122.672C162 122.395 162.368 122.011 162.634 121.52C162.912 121.019 163.05 120.443 163.05 119.792C163.05 119.131 162.912 118.555 162.634 118.064C162.368 117.573 162 117.195 161.53 116.928C161.061 116.651 160.528 116.512 159.93 116.512C159.333 116.512 158.8 116.651 158.33 116.928C157.861 117.195 157.488 117.573 157.21 118.064C156.933 118.555 156.794 119.131 156.794 119.792C156.794 120.443 156.933 121.019 157.21 121.52C157.488 122.011 157.861 122.395 158.33 122.672C158.8 122.939 159.328 123.072 159.914 123.072ZM169.994 124.08C169.279 124.08 168.655 123.947 168.122 123.68C167.588 123.413 167.172 123.013 166.874 122.48C166.586 121.947 166.442 121.28 166.442 120.48V115.6H167.578V120.352C167.578 121.248 167.796 121.925 168.234 122.384C168.682 122.832 169.306 123.056 170.106 123.056C170.692 123.056 171.199 122.939 171.626 122.704C172.063 122.459 172.394 122.107 172.618 121.648C172.852 121.189 172.97 120.64 172.97 120V115.6H174.106V124H173.017V121.696L173.194 122.112C172.927 122.731 172.511 123.216 171.946 123.568C171.391 123.909 170.74 124.08 169.994 124.08ZM177.272 124V115.6H178.36V117.888L178.248 117.488C178.482 116.848 178.877 116.363 179.432 116.032C179.986 115.691 180.674 115.52 181.496 115.52V116.624C181.453 116.624 181.41 116.624 181.368 116.624C181.325 116.613 181.282 116.608 181.24 116.608C180.354 116.608 179.661 116.88 179.16 117.424C178.658 117.957 178.408 118.72 178.408 119.712V124H177.272ZM189.817 127.104C189.23 126.133 188.772 125.013 188.441 123.744C188.121 122.464 187.961 121.088 187.961 119.616C187.961 118.144 188.121 116.768 188.441 115.488C188.772 114.197 189.23 113.077 189.817 112.128H190.905C190.276 113.227 189.812 114.395 189.513 115.632C189.225 116.859 189.081 118.187 189.081 119.616C189.081 121.045 189.225 122.379 189.513 123.616C189.812 124.843 190.276 126.005 190.905 127.104H189.817ZM194.503 124V113.28L195.015 113.824H191.863V112.8H195.655V124H194.503ZM203.372 115.52C204.055 115.52 204.652 115.653 205.164 115.92C205.687 116.176 206.092 116.571 206.38 117.104C206.679 117.637 206.828 118.309 206.828 119.12V124H205.692V119.232C205.692 118.347 205.468 117.68 205.02 117.232C204.583 116.773 203.964 116.544 203.164 116.544C202.567 116.544 202.044 116.667 201.596 116.912C201.159 117.147 200.817 117.493 200.572 117.952C200.337 118.4 200.22 118.944 200.22 119.584V124H199.084V112.128H200.22V117.904L199.996 117.472C200.263 116.864 200.689 116.389 201.276 116.048C201.863 115.696 202.561 115.52 203.372 115.52ZM210.041 127.104H208.953C209.593 126.005 210.057 124.843 210.345 123.616C210.643 122.379 210.793 121.045 210.793 119.616C210.793 118.187 210.643 116.859 210.345 115.632C210.057 114.395 209.593 113.227 208.953 112.128H210.041C210.649 113.077 211.113 114.197 211.433 115.488C211.753 116.768 211.913 118.144 211.913 119.616C211.913 121.088 211.753 122.464 211.433 123.744C211.113 125.013 210.649 126.133 210.041 127.104ZM215.274 117.264C215.039 117.264 214.837 117.179 214.666 117.008C214.506 116.837 214.426 116.629 214.426 116.384C214.426 116.128 214.506 115.92 214.666 115.76C214.837 115.6 215.039 115.52 215.274 115.52C215.509 115.52 215.706 115.6 215.866 115.76C216.037 115.92 216.122 116.128 216.122 116.384C216.122 116.629 216.037 116.837 215.866 117.008C215.706 117.179 215.509 117.264 215.274 117.264ZM215.274 124.08C215.039 124.08 214.837 123.995 214.666 123.824C214.506 123.653 214.426 123.445 214.426 123.2C214.426 122.944 214.506 122.736 214.666 122.576C214.837 122.416 215.039 122.336 215.274 122.336C215.509 122.336 215.706 122.416 215.866 122.576C216.037 122.736 216.122 122.944 216.122 123.2C216.122 123.445 216.037 123.653 215.866 123.824C215.706 123.995 215.509 124.08 215.274 124.08ZM89.7159 142.224H95.6359V143.248H89.7159V142.224ZM89.8439 148H88.6599V136.8H96.3399V137.824H89.8439V148ZM101.688 148.08C100.877 148.08 100.146 147.899 99.4957 147.536C98.8557 147.163 98.349 146.656 97.9757 146.016C97.6024 145.365 97.4157 144.624 97.4157 143.792C97.4157 142.949 97.6024 142.208 97.9757 141.568C98.349 140.928 98.8557 140.427 99.4957 140.064C100.136 139.701 100.866 139.52 101.688 139.52C102.52 139.52 103.256 139.701 103.896 140.064C104.546 140.427 105.053 140.928 105.416 141.568C105.789 142.208 105.976 142.949 105.976 143.792C105.976 144.624 105.789 145.365 105.416 146.016C105.053 146.656 104.546 147.163 103.896 147.536C103.245 147.899 102.509 148.08 101.688 148.08ZM101.688 147.072C102.296 147.072 102.834 146.939 103.304 146.672C103.773 146.395 104.141 146.011 104.408 145.52C104.685 145.019 104.824 144.443 104.824 143.792C104.824 143.131 104.685 142.555 104.408 142.064C104.141 141.573 103.773 141.195 103.304 140.928C102.834 140.651 102.301 140.512 101.704 140.512C101.106 140.512 100.573 140.651 100.104 140.928C99.6344 141.195 99.261 141.573 98.9837 142.064C98.7064 142.555 98.5677 143.131 98.5677 143.792C98.5677 144.443 98.7064 145.019 98.9837 145.52C99.261 146.011 99.6344 146.395 100.104 146.672C100.573 146.939 101.101 147.072 101.688 147.072ZM108.295 148V139.6H109.383V141.888L109.271 141.488C109.506 140.848 109.9 140.363 110.455 140.032C111.01 139.691 111.698 139.52 112.519 139.52V140.624C112.476 140.624 112.434 140.624 112.391 140.624C112.348 140.613 112.306 140.608 112.263 140.608C111.378 140.608 110.684 140.88 110.183 141.424C109.682 141.957 109.431 142.72 109.431 143.712V148H108.295ZM117.944 148V147.184L122.6 142.624C123.027 142.208 123.347 141.845 123.56 141.536C123.774 141.216 123.918 140.917 123.992 140.64C124.067 140.363 124.104 140.101 124.104 139.856C124.104 139.205 123.88 138.693 123.432 138.32C122.995 137.947 122.344 137.76 121.48 137.76C120.819 137.76 120.232 137.861 119.72 138.064C119.219 138.267 118.787 138.581 118.424 139.008L117.608 138.304C118.046 137.792 118.606 137.397 119.288 137.12C119.971 136.843 120.734 136.704 121.576 136.704C122.334 136.704 122.99 136.827 123.544 137.072C124.099 137.307 124.526 137.653 124.824 138.112C125.134 138.571 125.288 139.109 125.288 139.728C125.288 140.091 125.235 140.448 125.128 140.8C125.032 141.152 124.851 141.525 124.584 141.92C124.328 142.304 123.95 142.741 123.448 143.232L119.176 147.424L118.856 146.976H125.8V148H117.944ZM133.082 145.824L133.114 144.368L138.346 139.6H139.738L136.042 143.136L135.402 143.68L133.082 145.824ZM132.186 148V136.128H133.322V148H132.186ZM138.698 148L135.194 143.632L135.93 142.752L140.09 148H138.698ZM141.795 148V139.6H142.931V148H141.795ZM142.371 137.744C142.136 137.744 141.939 137.664 141.779 137.504C141.619 137.344 141.539 137.152 141.539 136.928C141.539 136.704 141.619 136.517 141.779 136.368C141.939 136.208 142.136 136.128 142.371 136.128C142.606 136.128 142.803 136.203 142.963 136.352C143.123 136.501 143.203 136.688 143.203 136.912C143.203 137.147 143.123 137.344 142.963 137.504C142.814 137.664 142.616 137.744 142.371 137.744ZM149.436 148.08C148.636 148.08 147.916 147.899 147.276 147.536C146.646 147.173 146.15 146.672 145.788 146.032C145.425 145.381 145.244 144.635 145.244 143.792C145.244 142.939 145.425 142.192 145.788 141.552C146.15 140.912 146.646 140.416 147.276 140.064C147.916 139.701 148.636 139.52 149.436 139.52C150.172 139.52 150.828 139.685 151.404 140.016C151.99 140.347 152.454 140.832 152.796 141.472C153.148 142.101 153.324 142.875 153.324 143.792C153.324 144.699 153.153 145.472 152.812 146.112C152.47 146.752 152.006 147.243 151.42 147.584C150.844 147.915 150.182 148.08 149.436 148.08ZM149.516 147.072C150.113 147.072 150.646 146.939 151.116 146.672C151.596 146.395 151.969 146.011 152.236 145.52C152.513 145.019 152.652 144.443 152.652 143.792C152.652 143.131 152.513 142.555 152.236 142.064C151.969 141.573 151.596 141.195 151.116 140.928C150.646 140.651 150.113 140.512 149.516 140.512C148.929 140.512 148.401 140.651 147.932 140.928C147.462 141.195 147.089 141.573 146.812 142.064C146.534 142.555 146.396 143.131 146.396 143.792C146.396 144.443 146.534 145.019 146.812 145.52C147.089 146.011 147.462 146.395 147.932 146.672C148.401 146.939 148.929 147.072 149.516 147.072ZM152.684 148V145.472L152.796 143.776L152.636 142.08V136.128H153.772V148H152.684ZM159.192 148.08C158.498 148.08 157.842 147.984 157.224 147.792C156.605 147.589 156.12 147.339 155.768 147.04L156.28 146.144C156.621 146.4 157.058 146.624 157.592 146.816C158.125 146.997 158.685 147.088 159.272 147.088C160.072 147.088 160.648 146.965 161 146.72C161.352 146.464 161.528 146.128 161.528 145.712C161.528 145.403 161.426 145.163 161.224 144.992C161.032 144.811 160.776 144.677 160.456 144.592C160.136 144.496 159.778 144.416 159.384 144.352C158.989 144.288 158.594 144.213 158.2 144.128C157.816 144.043 157.464 143.92 157.144 143.76C156.824 143.589 156.562 143.36 156.36 143.072C156.168 142.784 156.072 142.4 156.072 141.92C156.072 141.461 156.2 141.051 156.456 140.688C156.712 140.325 157.085 140.043 157.576 139.84C158.077 139.627 158.685 139.52 159.4 139.52C159.944 139.52 160.488 139.595 161.032 139.744C161.576 139.883 162.024 140.069 162.376 140.304L161.88 141.216C161.506 140.96 161.106 140.779 160.68 140.672C160.253 140.555 159.826 140.496 159.4 140.496C158.642 140.496 158.082 140.629 157.72 140.896C157.368 141.152 157.192 141.483 157.192 141.888C157.192 142.208 157.288 142.459 157.48 142.64C157.682 142.821 157.944 142.965 158.264 143.072C158.594 143.168 158.952 143.248 159.336 143.312C159.73 143.376 160.12 143.456 160.504 143.552C160.898 143.637 161.256 143.76 161.576 143.92C161.906 144.069 162.168 144.288 162.36 144.576C162.562 144.853 162.664 145.221 162.664 145.68C162.664 146.171 162.525 146.597 162.248 146.96C161.981 147.312 161.586 147.589 161.064 147.792C160.552 147.984 159.928 148.08 159.192 148.08Z" fill="#1A1A1A"/>
<path d="M73.6929 185.288C72.2849 185.288 71.0529 185.08 69.9969 184.664C68.9409 184.232 68.1169 183.632 67.5249 182.864C66.9329 182.08 66.6369 181.168 66.6369 180.128C66.6369 179.088 66.9249 178.208 67.5009 177.488C68.0929 176.752 68.9169 176.2 69.9729 175.832C71.0289 175.448 72.2689 175.256 73.6929 175.256C75.1329 175.256 76.3809 175.448 77.4369 175.832C78.5089 176.2 79.3329 176.752 79.9089 177.488C80.5009 178.208 80.7969 179.088 80.7969 180.128C80.7969 181.168 80.5009 182.08 79.9089 182.864C79.3169 183.632 78.4849 184.232 77.4129 184.664C76.3569 185.08 75.1169 185.288 73.6929 185.288ZM73.6929 182.432C74.6689 182.432 75.4369 182.216 75.9969 181.784C76.5729 181.352 76.8609 180.76 76.8609 180.008C76.8609 179.256 76.5729 178.672 75.9969 178.256C75.4369 177.824 74.6689 177.608 73.6929 177.608C72.7329 177.608 71.9729 177.824 71.4129 178.256C70.8529 178.672 70.5729 179.256 70.5729 180.008C70.5729 180.76 70.8529 181.352 71.4129 181.784C71.9729 182.216 72.7329 182.432 73.6929 182.432ZM73.6929 177.224C72.3969 177.224 71.2609 177.048 70.2849 176.696C69.3249 176.344 68.5729 175.832 68.0289 175.16C67.5009 174.472 67.2369 173.656 67.2369 172.712C67.2369 171.72 67.5089 170.872 68.0529 170.168C68.5969 169.448 69.3569 168.896 70.3329 168.512C71.3089 168.112 72.4289 167.912 73.6929 167.912C74.9889 167.912 76.1169 168.112 77.0769 168.512C78.0529 168.896 78.8129 169.448 79.3569 170.168C79.9169 170.872 80.1969 171.72 80.1969 172.712C80.1969 173.656 79.9249 174.472 79.3809 175.16C78.8529 175.832 78.1009 176.344 77.1249 176.696C76.1489 177.048 75.0049 177.224 73.6929 177.224ZM73.6929 174.944C74.5089 174.944 75.1489 174.76 75.6129 174.392C76.0929 174.024 76.3329 173.52 76.3329 172.88C76.3329 172.208 76.0849 171.688 75.5889 171.32C75.1089 170.952 74.4769 170.768 73.6929 170.768C72.9249 170.768 72.3009 170.952 71.8209 171.32C71.3409 171.688 71.1009 172.208 71.1009 172.88C71.1009 173.52 71.3329 174.024 71.7969 174.392C72.2609 174.76 72.8929 174.944 73.6929 174.944ZM89.7766 185.288C88.4006 185.288 87.1686 184.952 86.0806 184.28C84.9926 183.592 84.1366 182.6 83.5126 181.304C82.8886 180.008 82.5766 178.44 82.5766 176.6C82.5766 174.76 82.8886 173.192 83.5126 171.896C84.1366 170.6 84.9926 169.616 86.0806 168.944C87.1686 168.256 88.4006 167.912 89.7766 167.912C91.1686 167.912 92.4006 168.256 93.4726 168.944C94.5606 169.616 95.4166 170.6 96.0406 171.896C96.6646 173.192 96.9766 174.76 96.9766 176.6C96.9766 178.44 96.6646 180.008 96.0406 181.304C95.4166 182.6 94.5606 183.592 93.4726 184.28C92.4006 184.952 91.1686 185.288 89.7766 185.288ZM89.7766 182C90.4326 182 91.0006 181.816 91.4806 181.448C91.9766 181.08 92.3606 180.496 92.6326 179.696C92.9206 178.896 93.0646 177.864 93.0646 176.6C93.0646 175.336 92.9206 174.304 92.6326 173.504C92.3606 172.704 91.9766 172.12 91.4806 171.752C91.0006 171.384 90.4326 171.2 89.7766 171.2C89.1366 171.2 88.5686 171.384 88.0726 171.752C87.5926 172.12 87.2086 172.704 86.9206 173.504C86.6486 174.304 86.5126 175.336 86.5126 176.6C86.5126 177.864 86.6486 178.896 86.9206 179.696C87.2086 180.496 87.5926 181.08 88.0726 181.448C88.5686 181.816 89.1366 182 89.7766 182ZM106.066 185.288C104.69 185.288 103.458 184.952 102.37 184.28C101.282 183.592 100.426 182.6 99.8017 181.304C99.1777 180.008 98.8657 178.44 98.8657 176.6C98.8657 174.76 99.1777 173.192 99.8017 171.896C100.426 170.6 101.282 169.616 102.37 168.944C103.458 168.256 104.69 167.912 106.066 167.912C107.458 167.912 108.69 168.256 109.762 168.944C110.85 169.616 111.706 170.6 112.33 171.896C112.954 173.192 113.266 174.76 113.266 176.6C113.266 178.44 112.954 180.008 112.33 181.304C111.706 182.6 110.85 183.592 109.762 184.28C108.69 184.952 107.458 185.288 106.066 185.288ZM106.066 182C106.722 182 107.29 181.816 107.77 181.448C108.266 181.08 108.65 180.496 108.922 179.696C109.21 178.896 109.354 177.864 109.354 176.6C109.354 175.336 109.21 174.304 108.922 173.504C108.65 172.704 108.266 172.12 107.77 171.752C107.29 171.384 106.722 171.2 106.066 171.2C105.426 171.2 104.858 171.384 104.362 171.752C103.882 172.12 103.498 172.704 103.21 173.504C102.938 174.304 102.802 175.336 102.802 176.6C102.802 177.864 102.938 178.896 103.21 179.696C103.498 180.496 103.882 181.08 104.362 181.448C104.858 181.816 105.426 182 106.066 182ZM123.008 185V168.2H130.28C131.784 168.2 133.08 168.448 134.168 168.944C135.256 169.424 136.096 170.12 136.688 171.032C137.28 171.944 137.576 173.032 137.576 174.296C137.576 175.544 137.28 176.624 136.688 177.536C136.096 178.432 135.256 179.12 134.168 179.6C133.08 180.08 131.784 180.32 130.28 180.32H125.168L126.896 178.616V185H123.008ZM133.688 185L129.488 178.904H133.64L137.888 185H133.688ZM126.896 179.048L125.168 177.224H130.064C131.264 177.224 132.16 176.968 132.752 176.456C133.344 175.928 133.64 175.208 133.64 174.296C133.64 173.368 133.344 172.648 132.752 172.136C132.16 171.624 131.264 171.368 130.064 171.368H125.168L126.896 169.52V179.048ZM146.176 185.288C144.832 185.288 143.544 185.112 142.312 184.76C141.08 184.392 140.088 183.92 139.336 183.344L140.656 180.416C141.376 180.928 142.224 181.352 143.2 181.688C144.192 182.008 145.192 182.168 146.2 182.168C146.968 182.168 147.584 182.096 148.048 181.952C148.528 181.792 148.88 181.576 149.104 181.304C149.328 181.032 149.44 180.72 149.44 180.368C149.44 179.92 149.264 179.568 148.912 179.312C148.56 179.04 148.096 178.824 147.52 178.664C146.944 178.488 146.304 178.328 145.6 178.184C144.912 178.024 144.216 177.832 143.512 177.608C142.824 177.384 142.192 177.096 141.616 176.744C141.04 176.392 140.568 175.928 140.2 175.352C139.848 174.776 139.672 174.04 139.672 173.144C139.672 172.184 139.928 171.312 140.44 170.528C140.968 169.728 141.752 169.096 142.792 168.632C143.848 168.152 145.168 167.912 146.752 167.912C147.808 167.912 148.848 168.04 149.872 168.296C150.896 168.536 151.8 168.904 152.584 169.4L151.384 172.352C150.6 171.904 149.816 171.576 149.032 171.368C148.248 171.144 147.48 171.032 146.728 171.032C145.976 171.032 145.36 171.12 144.88 171.296C144.4 171.472 144.056 171.704 143.848 171.992C143.64 172.264 143.536 172.584 143.536 172.952C143.536 173.384 143.712 173.736 144.064 174.008C144.416 174.264 144.88 174.472 145.456 174.632C146.032 174.792 146.664 174.952 147.352 175.112C148.056 175.272 148.752 175.456 149.44 175.664C150.144 175.872 150.784 176.152 151.36 176.504C151.936 176.856 152.4 177.32 152.752 177.896C153.12 178.472 153.304 179.2 153.304 180.08C153.304 181.024 153.04 181.888 152.512 182.672C151.984 183.456 151.192 184.088 150.136 184.568C149.096 185.048 147.776 185.288 146.176 185.288ZM155.961 185V168.2H163.593C165.417 168.2 167.025 168.552 168.417 169.256C169.809 169.944 170.897 170.912 171.681 172.16C172.465 173.408 172.857 174.888 172.857 176.6C172.857 178.296 172.465 179.776 171.681 181.04C170.897 182.288 169.809 183.264 168.417 183.968C167.025 184.656 165.417 185 163.593 185H155.961ZM159.849 181.808H163.401C164.521 181.808 165.489 181.6 166.305 181.184C167.137 180.752 167.777 180.144 168.225 179.36C168.689 178.576 168.921 177.656 168.921 176.6C168.921 175.528 168.689 174.608 168.225 173.84C167.777 173.056 167.137 172.456 166.305 172.04C165.489 171.608 164.521 171.392 163.401 171.392H159.849V181.808ZM183.901 170.504L180.709 172.256V171.632L183.901 173.36L182.725 175.328L179.749 173.552L180.085 173.336L180.133 176.672H177.877L177.901 173.336L178.237 173.552L175.261 175.328L174.109 173.36L177.301 171.632V172.256L174.109 170.504L175.261 168.536L178.237 170.336L177.901 170.528L177.877 167.192H180.133L180.085 170.528L179.749 170.336L182.725 168.536L183.901 170.504Z" fill="#1A1A1A"/>
<path d="M80 60H1V212H249V60H177.5" stroke="#1A1A1A"/>
<path d="M141.837 9.73877C141.837 9.73877 141.837 9.72065 141.837 9.70255C141.837 9.70255 141.837 9.72068 141.837 9.73877ZM133.712 34.8354C130.898 35.1611 133.779 41.7474 135.857 41.6208C136.812 41.7655 137.75 41.0055 137.884 39.9561C138.118 37.6038 135.723 35.2154 133.729 34.8354H133.712ZM145.255 26.2045C144.652 27.254 145.238 28.5387 145.556 29.5881C146.009 30.71 146.562 31.9403 147.55 32.6098C148.84 33.5145 150.683 32.1756 150.398 30.5471C150.365 29.0091 146.545 24.5217 145.238 26.1864L145.255 26.2045ZM165.057 58.9369C163.717 57.0008 162.225 55.2095 160.835 53.3096C159.512 51.464 158.071 49.727 156.664 47.9537C156.077 47.3566 155.106 45.9634 154.067 45.0587C155.541 43.7016 156.881 42.1636 158.037 40.4808C160.316 36.6448 161.991 31.9404 161.773 27.3082C161.187 23.7799 159.361 20.6315 157.518 17.7183C155.558 14.8775 152.995 12.6338 150.733 10.1006C147.734 7.13318 144.803 4.05717 141.603 1.34304C140.715 0.510702 139.391 -0.828243 138.453 0.69167C137.632 2.98963 138.621 5.55898 138.922 7.89313C139.408 10.752 139.81 13.6109 140.363 16.4517C137.297 18.2792 134.332 20.2877 131.467 22.4771C129.692 23.798 127.631 24.9922 126.207 26.8197C122.471 25.137 118.4 24.7208 114.447 23.9789C109.454 23.0923 113.106 30.0767 114.162 32.3023C117.429 38.0743 120.578 44.2264 125.738 48.2614C129.038 51.2288 133.411 52.0611 137.599 52.2059C142.625 51.9345 147.617 50.0527 151.805 46.9405C152.073 47.2662 152.392 47.5557 152.66 47.7909C153.38 48.5147 154.033 49.2927 154.703 50.0527C157.618 53.6172 160.617 57.1275 163.314 60.8911C163.633 61.6872 165.073 63.3157 164.035 63.9671C161.003 65.8851 157.35 63.8043 154.1 63.75C152.057 63.6233 151.722 65.3061 152.375 67.0431C152.995 69.3049 153.665 71.5486 154.1 73.8465C155.357 80.2338 153.799 80.6861 149.761 76.253C148.053 74.0456 146.528 71.6933 144.886 69.4315C144.2 68.2192 142.993 67.3507 141.737 68.2373C137.817 70.3182 133.913 72.4352 129.809 74.0275C125.721 75.4569 121.382 76.3616 117.026 76.6331C115.569 76.5064 115.1 77.773 114.832 79.0758C113.894 82.5137 113.224 86.0601 112.135 89.4437C109.555 96.9709 108.734 95.3244 106.338 88.9733C105.584 86.4582 105.199 83.8164 104.931 81.1928C104.83 80.4509 104.847 79.6005 104.395 78.9853C103.976 78.3882 103.239 78.1168 102.586 78.4244C101.664 78.8767 101.379 80.0529 100.894 80.9214C99.3188 83.8888 98.3136 87.2363 96.2363 89.8599C95.6667 83.9069 97.0739 77.8635 98.3974 72.0914C98.6822 70.9153 99.1178 69.6849 98.9 68.4544C97.9786 65.7403 95.784 63.7319 94.2092 61.452C92.0481 58.5569 90.3225 55.3181 88.7813 52.0068C87.6924 49.6003 86.3521 46.8138 85.8161 44.0273C84.6601 37.4229 91.0764 43.9368 92.5339 45.9091C94.8793 48.7861 103.373 61.8501 107.159 60.3844C109.89 58.756 112.386 56.6751 115.234 55.2457C118.115 53.5629 121.449 52.242 124.515 50.8126C125.755 48.1708 119.087 50.5231 118.082 50.9574C113.977 52.5678 110.208 54.9562 106.405 57.2541C101.513 53.4905 98.3471 47.809 94.36 43.0683C91.579 39.3409 83.5712 34.5097 83.0016 42.5074C82.9513 45.3843 84.0905 48.0804 85.0789 50.686C86.9217 55.3 88.865 59.914 91.713 63.9128C93.003 65.7765 94.4605 67.4955 95.7504 69.3592C94.3265 76.0178 92.5674 82.8212 92.9695 89.7151C93.1873 93.1169 96.1526 94.872 98.4644 92.1579C100.173 90.0951 101.111 87.4715 102.267 85.0287C102.921 89.2809 104.211 94.9625 107.762 97.4233C114.346 100.427 116.323 84.1783 117.529 79.6729C122.404 79.5643 127.38 78.7139 131.936 76.7959C135.672 75.1493 139.157 73.0866 142.692 70.8429C145.188 74.4256 147.265 78.6415 150.834 81.1023C152.358 82.1699 154.586 82.6403 155.977 81.1023C158.741 77.9178 155.809 70.282 154.838 66.5365C158.071 67.1336 161.924 68.6897 165.023 66.7355C166.079 66.0841 167 65.0166 167 63.6233C166.983 61.8682 165.961 60.3483 165.057 58.9731V58.9369ZM144.183 47.1757C142.323 47.8271 140.162 48.4966 138.118 48.6956C135.27 48.768 132.288 48.587 129.675 47.23C126.542 45.312 123.962 42.3807 121.952 39.1961C119.623 35.1973 116.708 31.1442 114.899 26.7835C118.635 27.1273 122.371 27.652 126.123 28.5386C127.581 30.4385 128.904 27.6158 130.244 26.892C132.942 24.956 135.823 22.7304 138.621 20.8848C139.777 20.0525 140.983 19.2744 142.189 18.5325C142.641 18.2249 143.027 17.7907 143.094 17.1936C142.943 14.6966 142.223 12.2176 141.854 9.75683C141.519 7.6579 140.849 5.64946 140.531 3.55053C145.054 7.54935 149.209 12.0367 153.129 16.7412C154.787 18.6773 156.278 21.2105 157.35 23.6532C157.987 25.0827 158.691 26.5845 158.691 28.2311C157.786 37.2963 152.224 44.4615 144.199 47.1938L144.183 47.1757Z" fill="#8FA5BC"/>
</svg>
