<svg width="250" height="226" viewBox="0 0 250 226" fill="none" xmlns="http://www.w3.org/2000/svg">
<path d="M35.9113 130.808H41.8313V131.816H35.9113V130.808ZM36.0393 135.976H42.7753V137H34.8553V125.8H42.5353V126.824H36.0393V135.976ZM50.4574 137V135.144L50.4094 134.84V131.736C50.4094 131.021 50.2067 130.472 49.8014 130.088C49.4067 129.704 48.8147 129.512 48.0254 129.512C47.4814 129.512 46.964 129.603 46.4734 129.784C45.9827 129.965 45.5667 130.205 45.2254 130.504L44.7134 129.656C45.14 129.293 45.652 129.016 46.2494 128.824C46.8467 128.621 47.476 128.52 48.1374 128.52C49.2254 128.52 50.0627 128.792 50.6494 129.336C51.2467 129.869 51.5454 130.685 51.5454 131.784V137H50.4574ZM47.5614 137.08C46.932 137.08 46.3827 136.979 45.9134 136.776C45.4547 136.563 45.1027 136.275 44.8574 135.912C44.612 135.539 44.4894 135.112 44.4894 134.632C44.4894 134.195 44.5907 133.8 44.7934 133.448C45.0067 133.085 45.348 132.797 45.8174 132.584C46.2974 132.36 46.9374 132.248 47.7374 132.248H50.6334V133.096H47.7694C46.9587 133.096 46.3934 133.24 46.0734 133.528C45.764 133.816 45.6094 134.173 45.6094 134.6C45.6094 135.08 45.796 135.464 46.1694 135.752C46.5427 136.04 47.0654 136.184 47.7374 136.184C48.3774 136.184 48.9267 136.04 49.3854 135.752C49.8547 135.453 50.196 135.027 50.4094 134.472L50.6654 135.256C50.452 135.811 50.0787 136.253 49.5454 136.584C49.0227 136.915 48.3614 137.08 47.5614 137.08ZM58.1189 137.08C57.2869 137.08 56.5402 136.899 55.8789 136.536C55.2282 136.163 54.7162 135.656 54.3429 135.016C53.9695 134.365 53.7829 133.624 53.7829 132.792C53.7829 131.949 53.9695 131.208 54.3429 130.568C54.7162 129.928 55.2282 129.427 55.8789 129.064C56.5402 128.701 57.2869 128.52 58.1189 128.52C58.8335 128.52 59.4789 128.659 60.0549 128.936C60.6309 129.213 61.0842 129.629 61.4149 130.184L60.5669 130.76C60.2789 130.333 59.9215 130.019 59.4949 129.816C59.0682 129.613 58.6042 129.512 58.1029 129.512C57.5055 129.512 56.9669 129.651 56.4869 129.928C56.0069 130.195 55.6282 130.573 55.3509 131.064C55.0735 131.555 54.9349 132.131 54.9349 132.792C54.9349 133.453 55.0735 134.029 55.3509 134.52C55.6282 135.011 56.0069 135.395 56.4869 135.672C56.9669 135.939 57.5055 136.072 58.1029 136.072C58.6042 136.072 59.0682 135.971 59.4949 135.768C59.9215 135.565 60.2789 135.256 60.5669 134.84L61.4149 135.416C61.0842 135.96 60.6309 136.376 60.0549 136.664C59.4789 136.941 58.8335 137.08 58.1189 137.08ZM67.8095 128.52C68.4922 128.52 69.0895 128.653 69.6015 128.92C70.1242 129.176 70.5295 129.571 70.8175 130.104C71.1162 130.637 71.2655 131.309 71.2655 132.12V137H70.1295V132.232C70.1295 131.347 69.9055 130.68 69.4575 130.232C69.0202 129.773 68.4015 129.544 67.6015 129.544C67.0042 129.544 66.4815 129.667 66.0335 129.912C65.5962 130.147 65.2548 130.493 65.0095 130.952C64.7748 131.4 64.6575 131.944 64.6575 132.584V137H63.5215V125.128H64.6575V130.904L64.4335 130.472C64.7002 129.864 65.1268 129.389 65.7135 129.048C66.3002 128.696 66.9988 128.52 67.8095 128.52ZM80.7775 137.08C80.0842 137.08 79.4282 136.984 78.8095 136.792C78.1908 136.589 77.7055 136.339 77.3535 136.04L77.8655 135.144C78.2068 135.4 78.6442 135.624 79.1775 135.816C79.7108 135.997 80.2708 136.088 80.8575 136.088C81.6575 136.088 82.2335 135.965 82.5855 135.72C82.9375 135.464 83.1135 135.128 83.1135 134.712C83.1135 134.403 83.0122 134.163 82.8095 133.992C82.6175 133.811 82.3615 133.677 82.0415 133.592C81.7215 133.496 81.3642 133.416 80.9695 133.352C80.5748 133.288 80.1802 133.213 79.7855 133.128C79.4015 133.043 79.0495 132.92 78.7295 132.76C78.4095 132.589 78.1482 132.36 77.9455 132.072C77.7535 131.784 77.6575 131.4 77.6575 130.92C77.6575 130.461 77.7855 130.051 78.0415 129.688C78.2975 129.325 78.6708 129.043 79.1615 128.84C79.6628 128.627 80.2708 128.52 80.9855 128.52C81.5295 128.52 82.0735 128.595 82.6175 128.744C83.1615 128.883 83.6095 129.069 83.9615 129.304L83.4655 130.216C83.0922 129.96 82.6922 129.779 82.2655 129.672C81.8388 129.555 81.4122 129.496 80.9855 129.496C80.2282 129.496 79.6682 129.629 79.3055 129.896C78.9535 130.152 78.7775 130.483 78.7775 130.888C78.7775 131.208 78.8735 131.459 79.0655 131.64C79.2682 131.821 79.5295 131.965 79.8495 132.072C80.1802 132.168 80.5375 132.248 80.9215 132.312C81.3162 132.376 81.7055 132.456 82.0895 132.552C82.4842 132.637 82.8415 132.76 83.1615 132.92C83.4922 133.069 83.7535 133.288 83.9455 133.576C84.1482 133.853 84.2495 134.221 84.2495 134.68C84.2495 135.171 84.1108 135.597 83.8335 135.96C83.5668 136.312 83.1722 136.589 82.6495 136.792C82.1375 136.984 81.5135 137.08 80.7775 137.08ZM88.99 137.08C88.2007 137.08 87.5927 136.867 87.166 136.44C86.7393 136.013 86.526 135.411 86.526 134.632V126.744H87.662V134.568C87.662 135.059 87.7847 135.437 88.03 135.704C88.286 135.971 88.6487 136.104 89.118 136.104C89.6193 136.104 90.0353 135.96 90.366 135.672L90.766 136.488C90.542 136.691 90.27 136.84 89.95 136.936C89.6407 137.032 89.3207 137.08 88.99 137.08ZM85.022 129.544V128.6H90.222V129.544H85.022ZM98.098 137V135.144L98.05 134.84V131.736C98.05 131.021 97.8473 130.472 97.442 130.088C97.0473 129.704 96.4553 129.512 95.666 129.512C95.122 129.512 94.6047 129.603 94.114 129.784C93.6233 129.965 93.2073 130.205 92.866 130.504L92.354 129.656C92.7807 129.293 93.2927 129.016 93.89 128.824C94.4873 128.621 95.1167 128.52 95.778 128.52C96.866 128.52 97.7033 128.792 98.29 129.336C98.8873 129.869 99.186 130.685 99.186 131.784V137H98.098ZM95.202 137.08C94.5727 137.08 94.0233 136.979 93.554 136.776C93.0953 136.563 92.7433 136.275 92.498 135.912C92.2527 135.539 92.13 135.112 92.13 134.632C92.13 134.195 92.2313 133.8 92.434 133.448C92.6473 133.085 92.9887 132.797 93.458 132.584C93.938 132.36 94.578 132.248 95.378 132.248H98.274V133.096H95.41C94.5993 133.096 94.034 133.24 93.714 133.528C93.4047 133.816 93.25 134.173 93.25 134.6C93.25 135.08 93.4367 135.464 93.81 135.752C94.1833 136.04 94.706 136.184 95.378 136.184C96.018 136.184 96.5673 136.04 97.026 135.752C97.4953 135.453 97.8367 135.027 98.05 134.472L98.306 135.256C98.0927 135.811 97.7193 136.253 97.186 136.584C96.6633 136.915 96.002 137.08 95.202 137.08ZM102.272 137V128.6H103.36V130.888L103.248 130.488C103.482 129.848 103.877 129.363 104.432 129.032C104.986 128.691 105.674 128.52 106.496 128.52V129.624C106.453 129.624 106.41 129.624 106.368 129.624C106.325 129.613 106.282 129.608 106.24 129.608C105.354 129.608 104.661 129.88 104.16 130.424C103.658 130.957 103.408 131.72 103.408 132.712V137H102.272ZM111.584 137.08C110.794 137.08 110.186 136.867 109.76 136.44C109.333 136.013 109.12 135.411 109.12 134.632V126.744H110.256V134.568C110.256 135.059 110.378 135.437 110.624 135.704C110.88 135.971 111.242 136.104 111.712 136.104C112.213 136.104 112.629 135.96 112.96 135.672L113.36 136.488C113.136 136.691 112.864 136.84 112.544 136.936C112.234 137.032 111.914 137.08 111.584 137.08ZM107.616 129.544V128.6H112.816V129.544H107.616ZM115.428 137V128.6H116.564V137H115.428ZM116.004 126.744C115.769 126.744 115.572 126.664 115.412 126.504C115.252 126.344 115.172 126.152 115.172 125.928C115.172 125.704 115.252 125.517 115.412 125.368C115.572 125.208 115.769 125.128 116.004 125.128C116.238 125.128 116.436 125.203 116.596 125.352C116.756 125.501 116.836 125.688 116.836 125.912C116.836 126.147 116.756 126.344 116.596 126.504C116.446 126.664 116.249 126.744 116.004 126.744ZM124.013 128.52C124.695 128.52 125.293 128.653 125.805 128.92C126.327 129.176 126.733 129.571 127.021 130.104C127.319 130.637 127.469 131.309 127.469 132.12V137H126.333V132.232C126.333 131.347 126.109 130.68 125.661 130.232C125.223 129.773 124.605 129.544 123.805 129.544C123.207 129.544 122.685 129.667 122.237 129.912C121.799 130.147 121.458 130.493 121.213 130.952C120.978 131.4 120.861 131.944 120.861 132.584V137H119.725V128.6H120.813V130.904L120.637 130.472C120.903 129.864 121.33 129.389 121.917 129.048C122.503 128.696 123.202 128.52 124.013 128.52ZM134.121 140.184C133.353 140.184 132.617 140.072 131.913 139.848C131.209 139.624 130.638 139.304 130.201 138.888L130.777 138.024C131.172 138.376 131.657 138.653 132.233 138.856C132.82 139.069 133.438 139.176 134.089 139.176C135.156 139.176 135.94 138.925 136.441 138.424C136.942 137.933 137.193 137.165 137.193 136.12V134.024L137.353 132.584L137.241 131.144V128.6H138.329V135.976C138.329 137.427 137.972 138.488 137.257 139.16C136.553 139.843 135.508 140.184 134.121 140.184ZM133.913 136.68C133.113 136.68 132.393 136.509 131.753 136.168C131.113 135.816 130.606 135.331 130.233 134.712C129.87 134.093 129.689 133.384 129.689 132.584C129.689 131.784 129.87 131.08 130.233 130.472C130.606 129.853 131.113 129.373 131.753 129.032C132.393 128.691 133.113 128.52 133.913 128.52C134.66 128.52 135.332 128.675 135.929 128.984C136.526 129.293 137.001 129.752 137.353 130.36C137.705 130.968 137.881 131.709 137.881 132.584C137.881 133.459 137.705 134.2 137.353 134.808C137.001 135.416 136.526 135.88 135.929 136.2C135.332 136.52 134.66 136.68 133.913 136.68ZM134.025 135.672C134.644 135.672 135.193 135.544 135.673 135.288C136.153 135.021 136.532 134.659 136.809 134.2C137.086 133.731 137.225 133.192 137.225 132.584C137.225 131.976 137.086 131.443 136.809 130.984C136.532 130.525 136.153 130.168 135.673 129.912C135.193 129.645 134.644 129.512 134.025 129.512C133.417 129.512 132.868 129.645 132.377 129.912C131.897 130.168 131.518 130.525 131.241 130.984C130.974 131.443 130.841 131.976 130.841 132.584C130.841 133.192 130.974 133.731 131.241 134.2C131.518 134.659 131.897 135.021 132.377 135.288C132.868 135.544 133.417 135.672 134.025 135.672ZM149.966 128.52C150.648 128.52 151.246 128.653 151.758 128.92C152.28 129.176 152.686 129.571 152.974 130.104C153.272 130.637 153.422 131.309 153.422 132.12V137H152.286V132.232C152.286 131.347 152.062 130.68 151.614 130.232C151.176 129.773 150.558 129.544 149.758 129.544C149.16 129.544 148.638 129.667 148.19 129.912C147.752 130.147 147.411 130.493 147.166 130.952C146.931 131.4 146.814 131.944 146.814 132.584V137H145.678V125.128H146.814V130.904L146.59 130.472C146.856 129.864 147.283 129.389 147.87 129.048C148.456 128.696 149.155 128.52 149.966 128.52ZM159.914 137.08C159.104 137.08 158.373 136.899 157.722 136.536C157.082 136.163 156.576 135.656 156.202 135.016C155.829 134.365 155.642 133.624 155.642 132.792C155.642 131.949 155.829 131.208 156.202 130.568C156.576 129.928 157.082 129.427 157.722 129.064C158.362 128.701 159.093 128.52 159.914 128.52C160.746 128.52 161.482 128.701 162.122 129.064C162.773 129.427 163.28 129.928 163.642 130.568C164.016 131.208 164.202 131.949 164.202 132.792C164.202 133.624 164.016 134.365 163.642 135.016C163.28 135.656 162.773 136.163 162.122 136.536C161.472 136.899 160.736 137.08 159.914 137.08ZM159.914 136.072C160.522 136.072 161.061 135.939 161.53 135.672C162 135.395 162.368 135.011 162.634 134.52C162.912 134.019 163.05 133.443 163.05 132.792C163.05 132.131 162.912 131.555 162.634 131.064C162.368 130.573 162 130.195 161.53 129.928C161.061 129.651 160.528 129.512 159.93 129.512C159.333 129.512 158.8 129.651 158.33 129.928C157.861 130.195 157.488 130.573 157.21 131.064C156.933 131.555 156.794 132.131 156.794 132.792C156.794 133.443 156.933 134.019 157.21 134.52C157.488 135.011 157.861 135.395 158.33 135.672C158.8 135.939 159.328 136.072 159.914 136.072ZM169.994 137.08C169.279 137.08 168.655 136.947 168.122 136.68C167.588 136.413 167.172 136.013 166.874 135.48C166.586 134.947 166.442 134.28 166.442 133.48V128.6H167.578V133.352C167.578 134.248 167.796 134.925 168.234 135.384C168.682 135.832 169.306 136.056 170.106 136.056C170.692 136.056 171.199 135.939 171.626 135.704C172.063 135.459 172.394 135.107 172.618 134.648C172.852 134.189 172.97 133.64 172.97 133V128.6H174.106V137H173.017V134.696L173.194 135.112C172.927 135.731 172.511 136.216 171.946 136.568C171.391 136.909 170.74 137.08 169.994 137.08ZM177.272 137V128.6H178.36V130.888L178.248 130.488C178.482 129.848 178.877 129.363 179.432 129.032C179.986 128.691 180.674 128.52 181.496 128.52V129.624C181.453 129.624 181.41 129.624 181.368 129.624C181.325 129.613 181.282 129.608 181.24 129.608C180.354 129.608 179.661 129.88 179.16 130.424C178.658 130.957 178.408 131.72 178.408 132.712V137H177.272ZM189.817 140.104C189.23 139.133 188.772 138.013 188.441 136.744C188.121 135.464 187.961 134.088 187.961 132.616C187.961 131.144 188.121 129.768 188.441 128.488C188.772 127.197 189.23 126.077 189.817 125.128H190.905C190.276 126.227 189.812 127.395 189.513 128.632C189.225 129.859 189.081 131.187 189.081 132.616C189.081 134.045 189.225 135.379 189.513 136.616C189.812 137.843 190.276 139.005 190.905 140.104H189.817ZM194.503 137V126.28L195.015 126.824H191.863V125.8H195.655V137H194.503ZM203.372 128.52C204.055 128.52 204.652 128.653 205.164 128.92C205.687 129.176 206.092 129.571 206.38 130.104C206.679 130.637 206.828 131.309 206.828 132.12V137H205.692V132.232C205.692 131.347 205.468 130.68 205.02 130.232C204.583 129.773 203.964 129.544 203.164 129.544C202.567 129.544 202.044 129.667 201.596 129.912C201.159 130.147 200.817 130.493 200.572 130.952C200.337 131.4 200.22 131.944 200.22 132.584V137H199.084V125.128H200.22V130.904L199.996 130.472C200.263 129.864 200.689 129.389 201.276 129.048C201.863 128.696 202.561 128.52 203.372 128.52ZM210.041 140.104H208.953C209.593 139.005 210.057 137.843 210.345 136.616C210.643 135.379 210.793 134.045 210.793 132.616C210.793 131.187 210.643 129.859 210.345 128.632C210.057 127.395 209.593 126.227 208.953 125.128H210.041C210.649 126.077 211.113 127.197 211.433 128.488C211.753 129.768 211.913 131.144 211.913 132.616C211.913 134.088 211.753 135.464 211.433 136.744C211.113 138.013 210.649 139.133 210.041 140.104ZM215.274 130.264C215.039 130.264 214.837 130.179 214.666 130.008C214.506 129.837 214.426 129.629 214.426 129.384C214.426 129.128 214.506 128.92 214.666 128.76C214.837 128.6 215.039 128.52 215.274 128.52C215.509 128.52 215.706 128.6 215.866 128.76C216.037 128.92 216.122 129.128 216.122 129.384C216.122 129.629 216.037 129.837 215.866 130.008C215.706 130.179 215.509 130.264 215.274 130.264ZM215.274 137.08C215.039 137.08 214.837 136.995 214.666 136.824C214.506 136.653 214.426 136.445 214.426 136.2C214.426 135.944 214.506 135.736 214.666 135.576C214.837 135.416 215.039 135.336 215.274 135.336C215.509 135.336 215.706 135.416 215.866 135.576C216.037 135.736 216.122 135.944 216.122 136.2C216.122 136.445 216.037 136.653 215.866 136.824C215.706 136.995 215.509 137.08 215.274 137.08ZM95.2784 155.224H101.198V156.248H95.2784V155.224ZM95.4064 161H94.2224V149.8H101.902V150.824H95.4064V161ZM107.25 161.08C106.44 161.08 105.709 160.899 105.058 160.536C104.418 160.163 103.912 159.656 103.538 159.016C103.165 158.365 102.978 157.624 102.978 156.792C102.978 155.949 103.165 155.208 103.538 154.568C103.912 153.928 104.418 153.427 105.058 153.064C105.698 152.701 106.429 152.52 107.25 152.52C108.082 152.52 108.818 152.701 109.458 153.064C110.109 153.427 110.616 153.928 110.978 154.568C111.352 155.208 111.538 155.949 111.538 156.792C111.538 157.624 111.352 158.365 110.978 159.016C110.616 159.656 110.109 160.163 109.458 160.536C108.808 160.899 108.072 161.08 107.25 161.08ZM107.25 160.072C107.858 160.072 108.397 159.939 108.866 159.672C109.336 159.395 109.704 159.011 109.97 158.52C110.248 158.019 110.386 157.443 110.386 156.792C110.386 156.131 110.248 155.555 109.97 155.064C109.704 154.573 109.336 154.195 108.866 153.928C108.397 153.651 107.864 153.512 107.266 153.512C106.669 153.512 106.136 153.651 105.666 153.928C105.197 154.195 104.824 154.573 104.546 155.064C104.269 155.555 104.13 156.131 104.13 156.792C104.13 157.443 104.269 158.019 104.546 158.52C104.824 159.011 105.197 159.395 105.666 159.672C106.136 159.939 106.664 160.072 107.25 160.072ZM113.857 161V152.6H114.945V154.888L114.833 154.488C115.068 153.848 115.463 153.363 116.017 153.032C116.572 152.691 117.26 152.52 118.081 152.52V153.624C118.039 153.624 117.996 153.624 117.953 153.624C117.911 153.613 117.868 153.608 117.825 153.608C116.94 153.608 116.247 153.88 115.745 154.424C115.244 154.957 114.993 155.72 114.993 156.712V161H113.857ZM125.667 161V150.28L126.179 150.824H123.027V149.8H126.819V161H125.667ZM135.332 158.824L135.364 157.368L140.596 152.6H141.988L138.292 156.136L137.652 156.68L135.332 158.824ZM134.436 161V149.128H135.572V161H134.436ZM140.948 161L137.444 156.632L138.18 155.752L142.34 161H140.948ZM144.045 161V152.6H145.181V161H144.045ZM144.621 150.744C144.386 150.744 144.189 150.664 144.029 150.504C143.869 150.344 143.789 150.152 143.789 149.928C143.789 149.704 143.869 149.517 144.029 149.368C144.189 149.208 144.386 149.128 144.621 149.128C144.856 149.128 145.053 149.203 145.213 149.352C145.373 149.501 145.453 149.688 145.453 149.912C145.453 150.147 145.373 150.344 145.213 150.504C145.064 150.664 144.866 150.744 144.621 150.744ZM151.686 161.08C150.886 161.08 150.166 160.899 149.526 160.536C148.896 160.173 148.4 159.672 148.038 159.032C147.675 158.381 147.494 157.635 147.494 156.792C147.494 155.939 147.675 155.192 148.038 154.552C148.4 153.912 148.896 153.416 149.526 153.064C150.166 152.701 150.886 152.52 151.686 152.52C152.422 152.52 153.078 152.685 153.654 153.016C154.24 153.347 154.704 153.832 155.046 154.472C155.398 155.101 155.574 155.875 155.574 156.792C155.574 157.699 155.403 158.472 155.062 159.112C154.72 159.752 154.256 160.243 153.67 160.584C153.094 160.915 152.432 161.08 151.686 161.08ZM151.766 160.072C152.363 160.072 152.896 159.939 153.366 159.672C153.846 159.395 154.219 159.011 154.486 158.52C154.763 158.019 154.902 157.443 154.902 156.792C154.902 156.131 154.763 155.555 154.486 155.064C154.219 154.573 153.846 154.195 153.366 153.928C152.896 153.651 152.363 153.512 151.766 153.512C151.179 153.512 150.651 153.651 150.182 153.928C149.712 154.195 149.339 154.573 149.062 155.064C148.784 155.555 148.646 156.131 148.646 156.792C148.646 157.443 148.784 158.019 149.062 158.52C149.339 159.011 149.712 159.395 150.182 159.672C150.651 159.939 151.179 160.072 151.766 160.072ZM154.934 161V158.472L155.046 156.776L154.886 155.08V149.128H156.022V161H154.934Z" fill="#1A1A1A"/>
<path d="M74.5261 198.288C72.9901 198.288 71.6541 197.968 70.5181 197.328C69.3981 196.688 68.5341 195.752 67.9261 194.52C67.3181 193.288 67.0141 191.768 67.0141 189.96C67.0141 188.024 67.3741 186.384 68.0941 185.04C68.8301 183.696 69.8381 182.672 71.1181 181.968C72.4141 181.264 73.9021 180.912 75.5821 180.912C76.4781 180.912 77.3341 181.008 78.1501 181.2C78.9661 181.392 79.6701 181.68 80.2621 182.064L78.8221 184.92C78.3581 184.6 77.8621 184.384 77.3341 184.272C76.8061 184.144 76.2541 184.08 75.6781 184.08C74.2221 184.08 73.0701 184.52 72.2221 185.4C71.3741 186.28 70.9501 187.584 70.9501 189.312C70.9501 189.6 70.9501 189.92 70.9501 190.272C70.9661 190.624 71.0141 190.976 71.0941 191.328L70.0141 190.32C70.3181 189.696 70.7101 189.176 71.1901 188.76C71.6701 188.328 72.2381 188.008 72.8941 187.8C73.5661 187.576 74.3021 187.464 75.1021 187.464C76.1901 187.464 77.1661 187.68 78.0301 188.112C78.8941 188.544 79.5821 189.152 80.0941 189.936C80.6221 190.72 80.8861 191.64 80.8861 192.696C80.8861 193.832 80.5981 194.824 80.0221 195.672C79.4621 196.504 78.7021 197.152 77.7421 197.616C76.7981 198.064 75.7261 198.288 74.5261 198.288ZM74.3101 195.384C74.8541 195.384 75.3341 195.288 75.7501 195.096C76.1821 194.888 76.5181 194.592 76.7581 194.208C76.9981 193.824 77.1181 193.384 77.1181 192.888C77.1181 192.12 76.8541 191.512 76.3261 191.064C75.8141 190.6 75.1261 190.368 74.2621 190.368C73.6861 190.368 73.1821 190.48 72.7501 190.704C72.3181 190.912 71.9741 191.208 71.7181 191.592C71.4781 191.96 71.3581 192.392 71.3581 192.888C71.3581 193.368 71.4781 193.8 71.7181 194.184C71.9581 194.552 72.2941 194.848 72.7261 195.072C73.1581 195.28 73.6861 195.384 74.3101 195.384ZM89.4954 198.288C88.1194 198.288 86.8874 197.952 85.7994 197.28C84.7114 196.592 83.8554 195.6 83.2314 194.304C82.6074 193.008 82.2954 191.44 82.2954 189.6C82.2954 187.76 82.6074 186.192 83.2314 184.896C83.8554 183.6 84.7114 182.616 85.7994 181.944C86.8874 181.256 88.1194 180.912 89.4954 180.912C90.8874 180.912 92.1194 181.256 93.1914 181.944C94.2794 182.616 95.1354 183.6 95.7594 184.896C96.3834 186.192 96.6954 187.76 96.6954 189.6C96.6954 191.44 96.3834 193.008 95.7594 194.304C95.1354 195.6 94.2794 196.592 93.1914 197.28C92.1194 197.952 90.8874 198.288 89.4954 198.288ZM89.4954 195C90.1514 195 90.7194 194.816 91.1994 194.448C91.6954 194.08 92.0794 193.496 92.3514 192.696C92.6394 191.896 92.7834 190.864 92.7834 189.6C92.7834 188.336 92.6394 187.304 92.3514 186.504C92.0794 185.704 91.6954 185.12 91.1994 184.752C90.7194 184.384 90.1514 184.2 89.4954 184.2C88.8554 184.2 88.2874 184.384 87.7914 184.752C87.3114 185.12 86.9274 185.704 86.6394 186.504C86.3674 187.304 86.2314 188.336 86.2314 189.6C86.2314 190.864 86.3674 191.896 86.6394 192.696C86.9274 193.496 87.3114 194.08 87.7914 194.448C88.2874 194.816 88.8554 195 89.4954 195ZM105.784 198.288C104.408 198.288 103.176 197.952 102.088 197.28C101 196.592 100.144 195.6 99.5204 194.304C98.8964 193.008 98.5844 191.44 98.5844 189.6C98.5844 187.76 98.8964 186.192 99.5204 184.896C100.144 183.6 101 182.616 102.088 181.944C103.176 181.256 104.408 180.912 105.784 180.912C107.176 180.912 108.408 181.256 109.48 181.944C110.568 182.616 111.424 183.6 112.048 184.896C112.672 186.192 112.984 187.76 112.984 189.6C112.984 191.44 112.672 193.008 112.048 194.304C111.424 195.6 110.568 196.592 109.48 197.28C108.408 197.952 107.176 198.288 105.784 198.288ZM105.784 195C106.44 195 107.008 194.816 107.488 194.448C107.984 194.08 108.368 193.496 108.64 192.696C108.928 191.896 109.072 190.864 109.072 189.6C109.072 188.336 108.928 187.304 108.64 186.504C108.368 185.704 107.984 185.12 107.488 184.752C107.008 184.384 106.44 184.2 105.784 184.2C105.144 184.2 104.576 184.384 104.08 184.752C103.6 185.12 103.216 185.704 102.928 186.504C102.656 187.304 102.52 188.336 102.52 189.6C102.52 190.864 102.656 191.896 102.928 192.696C103.216 193.496 103.6 194.08 104.08 194.448C104.576 194.816 105.144 195 105.784 195ZM122.726 198V181.2H129.998C131.502 181.2 132.798 181.448 133.886 181.944C134.974 182.424 135.814 183.12 136.406 184.032C136.998 184.944 137.294 186.032 137.294 187.296C137.294 188.544 136.998 189.624 136.406 190.536C135.814 191.432 134.974 192.12 133.886 192.6C132.798 193.08 131.502 193.32 129.998 193.32H124.886L126.614 191.616V198H122.726ZM133.406 198L129.206 191.904H133.358L137.606 198H133.406ZM126.614 192.048L124.886 190.224H129.782C130.982 190.224 131.878 189.968 132.47 189.456C133.062 188.928 133.358 188.208 133.358 187.296C133.358 186.368 133.062 185.648 132.47 185.136C131.878 184.624 130.982 184.368 129.782 184.368H124.886L126.614 182.52V192.048ZM145.895 198.288C144.551 198.288 143.263 198.112 142.031 197.76C140.799 197.392 139.807 196.92 139.055 196.344L140.375 193.416C141.095 193.928 141.943 194.352 142.919 194.688C143.911 195.008 144.911 195.168 145.919 195.168C146.687 195.168 147.303 195.096 147.767 194.952C148.247 194.792 148.599 194.576 148.823 194.304C149.047 194.032 149.159 193.72 149.159 193.368C149.159 192.92 148.983 192.568 148.631 192.312C148.279 192.04 147.815 191.824 147.239 191.664C146.663 191.488 146.023 191.328 145.319 191.184C144.631 191.024 143.935 190.832 143.231 190.608C142.543 190.384 141.911 190.096 141.335 189.744C140.759 189.392 140.287 188.928 139.919 188.352C139.567 187.776 139.391 187.04 139.391 186.144C139.391 185.184 139.647 184.312 140.159 183.528C140.687 182.728 141.471 182.096 142.511 181.632C143.567 181.152 144.887 180.912 146.471 180.912C147.527 180.912 148.567 181.04 149.591 181.296C150.615 181.536 151.519 181.904 152.303 182.4L151.103 185.352C150.319 184.904 149.535 184.576 148.751 184.368C147.967 184.144 147.199 184.032 146.447 184.032C145.695 184.032 145.079 184.12 144.599 184.296C144.119 184.472 143.775 184.704 143.567 184.992C143.359 185.264 143.255 185.584 143.255 185.952C143.255 186.384 143.431 186.736 143.783 187.008C144.135 187.264 144.599 187.472 145.175 187.632C145.751 187.792 146.383 187.952 147.071 188.112C147.775 188.272 148.471 188.456 149.159 188.664C149.863 188.872 150.503 189.152 151.079 189.504C151.655 189.856 152.119 190.32 152.471 190.896C152.839 191.472 153.023 192.2 153.023 193.08C153.023 194.024 152.759 194.888 152.231 195.672C151.703 196.456 150.911 197.088 149.855 197.568C148.815 198.048 147.495 198.288 145.895 198.288ZM155.68 198V181.2H163.312C165.136 181.2 166.744 181.552 168.136 182.256C169.528 182.944 170.616 183.912 171.4 185.16C172.184 186.408 172.576 187.888 172.576 189.6C172.576 191.296 172.184 192.776 171.4 194.04C170.616 195.288 169.528 196.264 168.136 196.968C166.744 197.656 165.136 198 163.312 198H155.68ZM159.568 194.808H163.12C164.24 194.808 165.208 194.6 166.023 194.184C166.856 193.752 167.496 193.144 167.944 192.36C168.408 191.576 168.64 190.656 168.64 189.6C168.64 188.528 168.408 187.608 167.944 186.84C167.496 186.056 166.856 185.456 166.023 185.04C165.208 184.608 164.24 184.392 163.12 184.392H159.568V194.808ZM183.62 183.504L180.428 185.256V184.632L183.62 186.36L182.444 188.328L179.468 186.552L179.804 186.336L179.852 189.672H177.596L177.62 186.336L177.956 186.552L174.98 188.328L173.828 186.36L177.02 184.632V185.256L173.828 183.504L174.98 181.536L177.956 183.336L177.62 183.528L177.596 180.192H179.852L179.804 183.528L179.468 183.336L182.444 181.536L183.62 183.504Z" fill="#1A1A1A"/>
<path d="M80 73H1V225H249V73H177.5" stroke="#1A1A1A"/>
<path d="M95.4458 67.188C96.9402 64.1091 99.0335 61.4109 101.329 58.8818C102.305 57.6486 100.724 55.8955 99.3926 56.7424C97.5186 57.9609 96.4028 59.9628 95.2118 61.7877C94.5024 63.3961 93.741 65.2085 93.9363 66.9975C94.0295 67.8675 95.1116 67.9339 95.4557 67.1784L95.4458 67.188ZM101.51 95.0597C112.077 98.1399 130.149 95.8387 139.285 89.6836C140.847 88.46 139.326 85.976 137.537 86.7666C136.485 87.2666 135.461 87.855 134.427 88.3944C134.063 88.5738 133.681 88.6945 133.307 88.864C133.107 87.9435 132.781 87.0111 132.322 86.3986C134.251 85.4542 136.046 84.2733 137.602 82.8251C138.616 83.437 139.884 82.9014 140.969 82.7727C143.358 82.3042 145.747 81.8162 148.127 81.2987C154.355 79.9364 160.705 78.3029 166.195 74.9672C166.722 75.6101 167.426 76.0997 168.251 76.3766C167.622 77.8107 167.126 79.52 167.011 79.9768C166.591 81.8436 166.119 83.8365 166.615 85.7377C167.367 88.697 171.173 90.4668 173.685 88.4389C176.452 86.2981 176.079 82.2813 174.887 79.3636C174.452 78.5172 173.594 76.6394 172.567 75.6175C172.725 75.503 172.892 75.3984 173.041 75.2544C175.117 73.0145 174.671 70.47 173.142 69.0496C173.206 68.7384 173.26 68.4172 173.333 68.1159C173.661 66.5697 173.911 65.0026 173.81 63.4103C173.728 59.4763 170.282 54.1505 165.879 56.6257C161.587 59.5516 163.266 66.7027 167.503 68.9772C167.493 68.9868 167.473 69.006 167.463 69.0156C164.354 68.7991 161.229 68.9238 158.119 68.7267C154.695 68.7001 151.272 68.5175 147.884 68.0524C146.287 67.8117 144.702 67.5028 143.093 67.4083C142.986 67.3968 142.869 67.3949 142.771 67.3934C142.495 63.4171 141.078 59.3345 138.018 56.6693C135.723 54.3582 133.053 52.3336 129.958 51.2585C126.881 50.2228 123.661 49.6141 120.426 49.3271C120.53 48.958 120.527 48.5384 120.446 48.0979C123.647 48.6673 127.155 48.4219 130.403 48.5237C135.93 48.8967 141.679 48.7855 147.24 48.2809C150.094 48.0151 153.032 47.3604 155.373 45.6128C158.068 43.7538 158.576 40.0928 155.432 38.3924C153.22 37.0194 150.529 36.8584 147.997 36.5439C145.475 36.2588 142.996 36.238 140.463 36.5773C136.541 37.1086 132.763 38.4425 129.09 39.8464C125.65 41.3322 122.18 42.9053 119.09 45.0507C117.63 43.6607 115.054 43.6187 113.491 44.9204C113.017 45.2834 112.619 45.7649 112.308 46.2965C112.279 46.2668 112.25 46.2371 112.202 46.207C110.218 45.1695 108.386 43.832 106.179 43.2984C103.731 42.6339 101.375 41.6685 98.9263 41.043C95.3098 40.2034 91.6102 39.6747 87.8959 39.4483C85.8676 39.3567 83.7677 39.4688 81.7446 39.6603C79.8091 39.8629 77.784 40.1715 76.117 41.2665C71.7194 44.0444 76.1158 49.1221 79.59 50.3108C84.6636 52.1597 90.4 51.0627 95.6608 50.4068C99.7524 49.6342 103.911 49.5459 108.055 49.1255C109.191 48.9098 110.644 48.9823 111.697 48.4237C111.703 48.6678 111.68 48.9016 111.744 49.1466C111.753 49.1956 111.771 49.2544 111.78 49.3034C109.054 49.5224 106.344 49.9564 103.679 50.5961C100 51.795 96.6271 53.9844 93.7936 56.5926C89.3773 60.5216 88.4247 66.8784 88.8209 72.5058C88.846 76.9561 91.1439 80.8579 94.5635 83.5973C97.5292 86.0462 101.147 88.0373 104.917 89.0356C104.606 90.1235 104.276 91.2306 104.072 92.3495C103.586 92.2635 103.089 92.2066 102.593 92.1107C100.169 91.7297 97.8707 90.8432 95.6431 89.8115C94.9461 89.4683 94.0756 88.9858 93.3077 89.4026C90.8628 91.5194 99.9336 94.7998 101.481 95.069L101.51 95.0597ZM167.193 65.8202C165.996 63.8684 165.361 60.872 167.031 59.0061C169.322 57.3649 170.747 60.9598 170.853 62.7961C171.02 64.5554 170.661 66.228 170.34 67.9598C170.008 67.9544 169.666 68.0171 169.323 68.0993C168.563 67.3941 167.755 66.7173 167.203 65.8301L167.193 65.8202ZM119.76 45.9008C120.26 45.7236 120.752 45.4974 120.988 45.4036C123.622 44.2365 126.266 43.0793 128.947 42.0593C135.768 39.643 142.469 38.0542 149.714 39.6068C151.416 39.9566 153.334 40.2123 154.611 41.5115C154.912 42.7557 153.162 43.6054 152.265 44.1471C150.307 45.1398 148.097 45.4161 145.936 45.6444C143.122 45.8717 140.309 46.0405 137.477 46.131C134.597 46.2304 131.713 45.9687 128.822 46.0973C127.015 46.2337 125.218 46.2825 123.404 46.2529C122.26 46.3417 121.074 46.0686 119.958 46.3237C119.938 46.3429 119.928 46.3524 119.908 46.3716C119.852 46.2146 119.787 46.0476 119.74 45.92L119.76 45.9008ZM101.046 47.5183C98.2239 47.6186 95.436 48.0318 92.6407 48.2985C88.0989 48.5465 83.0307 49.3617 78.9435 46.8652C78.0577 46.1287 76.0313 44.7294 77.0083 43.4572C78.5026 42.1837 80.5347 42.0412 82.4114 41.8571C85.3727 41.5833 88.3961 41.6911 91.3456 42.1393C95.5045 42.6267 99.5673 43.6298 103.496 45.0502C105.662 45.7003 107.742 46.2026 109.723 47.3767C106.823 47.4953 103.945 47.4582 101.055 47.5282L101.046 47.5183ZM170.085 77.0018C170.35 77.494 170.675 77.9287 170.97 78.3922C172.218 80.2569 172.912 82.5614 172.759 84.8034C172.431 86.9449 170.15 86.8102 169.319 85.0597C168.554 82.3245 169.208 79.3491 169.838 76.6074C169.877 76.608 169.916 76.6087 169.965 76.5997C170.002 76.7369 170.009 76.8639 170.075 76.9919L170.085 77.0018ZM146.103 70.1215C150.262 71.2042 154.603 71.3237 158.874 71.5104C161.068 71.6535 163.271 71.7675 165.478 71.7059C165.332 72.25 165.323 72.7768 165.413 73.2857C157.307 76.6374 148.675 78.2142 140.117 79.9679C140.197 79.8521 140.296 79.7561 140.357 79.64C142.063 76.7402 142.568 73.2939 142.807 69.9897C142.822 69.6874 142.817 69.3848 142.822 69.0727C143.909 69.4612 144.995 69.8497 146.103 70.141L146.103 70.1215ZM113.7 48.2905C114.212 47.3913 115.19 46.6753 116.217 46.5262C117.739 46.551 117.597 48.071 117.881 49.1783C117.121 49.1464 116.36 49.1145 115.599 49.1216C114.848 49.1191 114.115 49.156 113.363 49.1925C113.466 48.8819 113.558 48.5809 113.7 48.2905ZM91.6865 75.1092C90.8038 69.9911 90.8621 64.0198 94.0943 59.7007C97.0278 56.3427 101.038 53.9587 105.21 52.4946C105.67 52.3753 106.14 52.3049 106.61 52.2149C106.83 52.443 107.071 52.6323 107.205 52.7906C108.003 53.5355 108.81 54.2904 109.44 55.1789C110.891 57.1347 111.448 59.5151 111.594 61.9083C111.956 64.8418 111.019 67.8614 108.791 69.8452C104.231 73.645 98.19 74.8444 92.3902 75.0426C92.1462 75.0484 91.9303 75.1229 91.7524 75.2567C91.7339 75.1978 91.7054 75.1486 91.6868 75.0897L91.6865 75.1092ZM92.71 77.5753C94.0349 77.714 95.3943 77.5312 96.7144 77.3673C103.531 76.4343 111.972 74.0639 114.441 66.8535C115.825 61.5772 114.668 54.7664 109.77 51.7102C112.537 51.3942 115.329 51.3227 118.09 51.3384C125.676 51.7158 131.647 52.9841 136.74 59.0588C141.209 63.8743 140.826 71.7725 138.585 77.5716C136.669 81.3657 132.863 83.7823 128.956 85.1824C124.38 86.962 119.418 87.2519 114.548 87.2799C110.136 87.3056 105.59 87.251 101.604 85.1172C98.1774 83.4024 94.6062 80.9827 92.7199 77.5657L92.71 77.5753ZM107.46 90.4726C107.483 90.2192 107.489 89.868 107.465 89.526C110.271 89.845 113.12 89.8329 115.941 89.8106C118.431 89.6853 120.822 89.6754 123.298 89.2571C125.529 88.8641 127.793 88.2667 129.973 87.4435C129.753 88.367 129.6 89.3599 129.741 90.299C122.577 92.7975 114.883 93.6187 107.334 92.8028C107.444 92.0434 107.37 91.1932 107.46 90.4726Z" fill="#F2B199"/>
</svg>
