<svg width="250" height="226" viewBox="0 0 250 226" fill="none" xmlns="http://www.w3.org/2000/svg">
<path d="M36.3287 130.808H42.2487V131.816H36.3287V130.808ZM36.4567 135.976H43.1927V137H35.2727V125.8H42.9527V126.824H36.4567V135.976ZM50.8749 137V135.144L50.8269 134.84V131.736C50.8269 131.021 50.6242 130.472 50.2189 130.088C49.8242 129.704 49.2322 129.512 48.4429 129.512C47.8989 129.512 47.3815 129.603 46.8909 129.784C46.4002 129.965 45.9842 130.205 45.6429 130.504L45.1309 129.656C45.5575 129.293 46.0695 129.016 46.6669 128.824C47.2642 128.621 47.8935 128.52 48.5549 128.52C49.6429 128.52 50.4802 128.792 51.0669 129.336C51.6642 129.869 51.9629 130.685 51.9629 131.784V137H50.8749ZM47.9789 137.08C47.3495 137.08 46.8002 136.979 46.3309 136.776C45.8722 136.563 45.5202 136.275 45.2749 135.912C45.0295 135.539 44.9069 135.112 44.9069 134.632C44.9069 134.195 45.0082 133.8 45.2109 133.448C45.4242 133.085 45.7655 132.797 46.2349 132.584C46.7149 132.36 47.3549 132.248 48.1549 132.248H51.0509V133.096H48.1869C47.3762 133.096 46.8109 133.24 46.4909 133.528C46.1815 133.816 46.0269 134.173 46.0269 134.6C46.0269 135.08 46.2135 135.464 46.5869 135.752C46.9602 136.04 47.4829 136.184 48.1549 136.184C48.7949 136.184 49.3442 136.04 49.8029 135.752C50.2722 135.453 50.6135 135.027 50.8269 134.472L51.0829 135.256C50.8695 135.811 50.4962 136.253 49.9629 136.584C49.4402 136.915 48.7789 137.08 47.9789 137.08ZM58.5364 137.08C57.7044 137.08 56.9577 136.899 56.2964 136.536C55.6457 136.163 55.1337 135.656 54.7604 135.016C54.387 134.365 54.2004 133.624 54.2004 132.792C54.2004 131.949 54.387 131.208 54.7604 130.568C55.1337 129.928 55.6457 129.427 56.2964 129.064C56.9577 128.701 57.7044 128.52 58.5364 128.52C59.251 128.52 59.8964 128.659 60.4724 128.936C61.0484 129.213 61.5017 129.629 61.8324 130.184L60.9844 130.76C60.6964 130.333 60.339 130.019 59.9124 129.816C59.4857 129.613 59.0217 129.512 58.5204 129.512C57.923 129.512 57.3844 129.651 56.9044 129.928C56.4244 130.195 56.0457 130.573 55.7684 131.064C55.491 131.555 55.3524 132.131 55.3524 132.792C55.3524 133.453 55.491 134.029 55.7684 134.52C56.0457 135.011 56.4244 135.395 56.9044 135.672C57.3844 135.939 57.923 136.072 58.5204 136.072C59.0217 136.072 59.4857 135.971 59.9124 135.768C60.339 135.565 60.6964 135.256 60.9844 134.84L61.8324 135.416C61.5017 135.96 61.0484 136.376 60.4724 136.664C59.8964 136.941 59.251 137.08 58.5364 137.08ZM68.227 128.52C68.9096 128.52 69.507 128.653 70.019 128.92C70.5416 129.176 70.947 129.571 71.235 130.104C71.5336 130.637 71.683 131.309 71.683 132.12V137H70.547V132.232C70.547 131.347 70.323 130.68 69.875 130.232C69.4376 129.773 68.819 129.544 68.019 129.544C67.4216 129.544 66.899 129.667 66.451 129.912C66.0136 130.147 65.6723 130.493 65.427 130.952C65.1923 131.4 65.075 131.944 65.075 132.584V137H63.939V125.128H65.075V130.904L64.851 130.472C65.1176 129.864 65.5443 129.389 66.131 129.048C66.7176 128.696 67.4163 128.52 68.227 128.52ZM81.195 137.08C80.5016 137.08 79.8456 136.984 79.227 136.792C78.6083 136.589 78.123 136.339 77.771 136.04L78.283 135.144C78.6243 135.4 79.0616 135.624 79.595 135.816C80.1283 135.997 80.6883 136.088 81.275 136.088C82.075 136.088 82.651 135.965 83.003 135.72C83.355 135.464 83.531 135.128 83.531 134.712C83.531 134.403 83.4296 134.163 83.227 133.992C83.035 133.811 82.779 133.677 82.459 133.592C82.139 133.496 81.7816 133.416 81.387 133.352C80.9923 133.288 80.5976 133.213 80.203 133.128C79.819 133.043 79.467 132.92 79.147 132.76C78.827 132.589 78.5656 132.36 78.363 132.072C78.171 131.784 78.075 131.4 78.075 130.92C78.075 130.461 78.203 130.051 78.459 129.688C78.715 129.325 79.0883 129.043 79.579 128.84C80.0803 128.627 80.6883 128.52 81.403 128.52C81.947 128.52 82.491 128.595 83.035 128.744C83.579 128.883 84.027 129.069 84.379 129.304L83.883 130.216C83.5096 129.96 83.1096 129.779 82.683 129.672C82.2563 129.555 81.8296 129.496 81.403 129.496C80.6456 129.496 80.0856 129.629 79.723 129.896C79.371 130.152 79.195 130.483 79.195 130.888C79.195 131.208 79.291 131.459 79.483 131.64C79.6856 131.821 79.947 131.965 80.267 132.072C80.5976 132.168 80.955 132.248 81.339 132.312C81.7336 132.376 82.123 132.456 82.507 132.552C82.9016 132.637 83.259 132.76 83.579 132.92C83.9096 133.069 84.171 133.288 84.363 133.576C84.5656 133.853 84.667 134.221 84.667 134.68C84.667 135.171 84.5283 135.597 84.251 135.96C83.9843 136.312 83.5896 136.589 83.067 136.792C82.555 136.984 81.931 137.08 81.195 137.08ZM89.4075 137.08C88.6181 137.08 88.0101 136.867 87.5835 136.44C87.1568 136.013 86.9435 135.411 86.9435 134.632V126.744H88.0795V134.568C88.0795 135.059 88.2021 135.437 88.4475 135.704C88.7035 135.971 89.0661 136.104 89.5355 136.104C90.0368 136.104 90.4528 135.96 90.7835 135.672L91.1835 136.488C90.9595 136.691 90.6875 136.84 90.3675 136.936C90.0581 137.032 89.7381 137.08 89.4075 137.08ZM85.4395 129.544V128.6H90.6395V129.544H85.4395ZM98.5155 137V135.144L98.4675 134.84V131.736C98.4675 131.021 98.2648 130.472 97.8595 130.088C97.4648 129.704 96.8728 129.512 96.0835 129.512C95.5395 129.512 95.0221 129.603 94.5315 129.784C94.0408 129.965 93.6248 130.205 93.2835 130.504L92.7715 129.656C93.1981 129.293 93.7101 129.016 94.3075 128.824C94.9048 128.621 95.5341 128.52 96.1955 128.52C97.2835 128.52 98.1208 128.792 98.7075 129.336C99.3048 129.869 99.6035 130.685 99.6035 131.784V137H98.5155ZM95.6195 137.08C94.9901 137.08 94.4408 136.979 93.9715 136.776C93.5128 136.563 93.1608 136.275 92.9155 135.912C92.6701 135.539 92.5475 135.112 92.5475 134.632C92.5475 134.195 92.6488 133.8 92.8515 133.448C93.0648 133.085 93.4061 132.797 93.8755 132.584C94.3555 132.36 94.9955 132.248 95.7955 132.248H98.6915V133.096H95.8275C95.0168 133.096 94.4515 133.24 94.1315 133.528C93.8221 133.816 93.6675 134.173 93.6675 134.6C93.6675 135.08 93.8541 135.464 94.2275 135.752C94.6008 136.04 95.1235 136.184 95.7955 136.184C96.4355 136.184 96.9848 136.04 97.4435 135.752C97.9128 135.453 98.2541 135.027 98.4675 134.472L98.7235 135.256C98.5101 135.811 98.1368 136.253 97.6035 136.584C97.0808 136.915 96.4195 137.08 95.6195 137.08ZM102.689 137V128.6H103.777V130.888L103.665 130.488C103.9 129.848 104.294 129.363 104.849 129.032C105.404 128.691 106.092 128.52 106.913 128.52V129.624C106.87 129.624 106.828 129.624 106.785 129.624C106.742 129.613 106.7 129.608 106.657 129.608C105.772 129.608 105.078 129.88 104.577 130.424C104.076 130.957 103.825 131.72 103.825 132.712V137H102.689ZM112.001 137.08C111.212 137.08 110.604 136.867 110.177 136.44C109.751 136.013 109.537 135.411 109.537 134.632V126.744H110.673V134.568C110.673 135.059 110.796 135.437 111.041 135.704C111.297 135.971 111.66 136.104 112.129 136.104C112.631 136.104 113.047 135.96 113.377 135.672L113.777 136.488C113.553 136.691 113.281 136.84 112.961 136.936C112.652 137.032 112.332 137.08 112.001 137.08ZM108.033 129.544V128.6H113.233V129.544H108.033ZM115.845 137V128.6H116.981V137H115.845ZM116.421 126.744C116.187 126.744 115.989 126.664 115.829 126.504C115.669 126.344 115.589 126.152 115.589 125.928C115.589 125.704 115.669 125.517 115.829 125.368C115.989 125.208 116.187 125.128 116.421 125.128C116.656 125.128 116.853 125.203 117.013 125.352C117.173 125.501 117.253 125.688 117.253 125.912C117.253 126.147 117.173 126.344 117.013 126.504C116.864 126.664 116.667 126.744 116.421 126.744ZM124.43 128.52C125.113 128.52 125.71 128.653 126.222 128.92C126.745 129.176 127.15 129.571 127.438 130.104C127.737 130.637 127.886 131.309 127.886 132.12V137H126.75V132.232C126.75 131.347 126.526 130.68 126.078 130.232C125.641 129.773 125.022 129.544 124.222 129.544C123.625 129.544 123.102 129.667 122.654 129.912C122.217 130.147 121.875 130.493 121.63 130.952C121.395 131.4 121.278 131.944 121.278 132.584V137H120.142V128.6H121.23V130.904L121.054 130.472C121.321 129.864 121.747 129.389 122.334 129.048C122.921 128.696 123.619 128.52 124.43 128.52ZM134.539 140.184C133.771 140.184 133.035 140.072 132.331 139.848C131.627 139.624 131.056 139.304 130.619 138.888L131.195 138.024C131.589 138.376 132.075 138.653 132.651 138.856C133.237 139.069 133.856 139.176 134.507 139.176C135.573 139.176 136.357 138.925 136.859 138.424C137.36 137.933 137.611 137.165 137.611 136.12V134.024L137.771 132.584L137.659 131.144V128.6H138.747V135.976C138.747 137.427 138.389 138.488 137.675 139.16C136.971 139.843 135.925 140.184 134.539 140.184ZM134.331 136.68C133.531 136.68 132.811 136.509 132.171 136.168C131.531 135.816 131.024 135.331 130.651 134.712C130.288 134.093 130.107 133.384 130.107 132.584C130.107 131.784 130.288 131.08 130.651 130.472C131.024 129.853 131.531 129.373 132.171 129.032C132.811 128.691 133.531 128.52 134.331 128.52C135.077 128.52 135.749 128.675 136.347 128.984C136.944 129.293 137.419 129.752 137.771 130.36C138.123 130.968 138.299 131.709 138.299 132.584C138.299 133.459 138.123 134.2 137.771 134.808C137.419 135.416 136.944 135.88 136.347 136.2C135.749 136.52 135.077 136.68 134.331 136.68ZM134.443 135.672C135.061 135.672 135.611 135.544 136.091 135.288C136.571 135.021 136.949 134.659 137.227 134.2C137.504 133.731 137.643 133.192 137.643 132.584C137.643 131.976 137.504 131.443 137.227 130.984C136.949 130.525 136.571 130.168 136.091 129.912C135.611 129.645 135.061 129.512 134.443 129.512C133.835 129.512 133.285 129.645 132.795 129.912C132.315 130.168 131.936 130.525 131.659 130.984C131.392 131.443 131.259 131.976 131.259 132.584C131.259 133.192 131.392 133.731 131.659 134.2C131.936 134.659 132.315 135.021 132.795 135.288C133.285 135.544 133.835 135.672 134.443 135.672ZM150.383 128.52C151.066 128.52 151.663 128.653 152.175 128.92C152.698 129.176 153.103 129.571 153.391 130.104C153.69 130.637 153.839 131.309 153.839 132.12V137H152.703V132.232C152.703 131.347 152.479 130.68 152.031 130.232C151.594 129.773 150.975 129.544 150.175 129.544C149.578 129.544 149.055 129.667 148.607 129.912C148.17 130.147 147.829 130.493 147.583 130.952C147.349 131.4 147.231 131.944 147.231 132.584V137H146.095V125.128H147.231V130.904L147.007 130.472C147.274 129.864 147.701 129.389 148.287 129.048C148.874 128.696 149.573 128.52 150.383 128.52ZM160.332 137.08C159.521 137.08 158.79 136.899 158.14 136.536C157.5 136.163 156.993 135.656 156.62 135.016C156.246 134.365 156.06 133.624 156.06 132.792C156.06 131.949 156.246 131.208 156.62 130.568C156.993 129.928 157.5 129.427 158.14 129.064C158.78 128.701 159.51 128.52 160.332 128.52C161.164 128.52 161.9 128.701 162.54 129.064C163.19 129.427 163.697 129.928 164.06 130.568C164.433 131.208 164.62 131.949 164.62 132.792C164.62 133.624 164.433 134.365 164.06 135.016C163.697 135.656 163.19 136.163 162.54 136.536C161.889 136.899 161.153 137.08 160.332 137.08ZM160.332 136.072C160.94 136.072 161.478 135.939 161.948 135.672C162.417 135.395 162.785 135.011 163.052 134.52C163.329 134.019 163.468 133.443 163.468 132.792C163.468 132.131 163.329 131.555 163.052 131.064C162.785 130.573 162.417 130.195 161.948 129.928C161.478 129.651 160.945 129.512 160.348 129.512C159.75 129.512 159.217 129.651 158.748 129.928C158.278 130.195 157.905 130.573 157.628 131.064C157.35 131.555 157.212 132.131 157.212 132.792C157.212 133.443 157.35 134.019 157.628 134.52C157.905 135.011 158.278 135.395 158.748 135.672C159.217 135.939 159.745 136.072 160.332 136.072ZM170.411 137.08C169.696 137.08 169.072 136.947 168.539 136.68C168.006 136.413 167.59 136.013 167.291 135.48C167.003 134.947 166.859 134.28 166.859 133.48V128.6H167.995V133.352C167.995 134.248 168.214 134.925 168.651 135.384C169.099 135.832 169.723 136.056 170.523 136.056C171.11 136.056 171.616 135.939 172.043 135.704C172.48 135.459 172.811 135.107 173.035 134.648C173.27 134.189 173.387 133.64 173.387 133V128.6H174.523V137H173.435V134.696L173.611 135.112C173.344 135.731 172.928 136.216 172.363 136.568C171.808 136.909 171.158 137.08 170.411 137.08ZM177.689 137V128.6H178.777V130.888L178.665 130.488C178.9 129.848 179.294 129.363 179.849 129.032C180.404 128.691 181.092 128.52 181.913 128.52V129.624C181.87 129.624 181.828 129.624 181.785 129.624C181.742 129.613 181.7 129.608 181.657 129.608C180.772 129.608 180.078 129.88 179.577 130.424C179.076 130.957 178.825 131.72 178.825 132.712V137H177.689ZM190.234 140.104C189.648 139.133 189.189 138.013 188.858 136.744C188.538 135.464 188.378 134.088 188.378 132.616C188.378 131.144 188.538 129.768 188.858 128.488C189.189 127.197 189.648 126.077 190.234 125.128H191.322C190.693 126.227 190.229 127.395 189.93 128.632C189.642 129.859 189.498 131.187 189.498 132.616C189.498 134.045 189.642 135.379 189.93 136.616C190.229 137.843 190.693 139.005 191.322 140.104H190.234ZM194.92 137V126.28L195.432 126.824H192.28V125.8H196.072V137H194.92ZM203.789 128.52C204.472 128.52 205.069 128.653 205.581 128.92C206.104 129.176 206.509 129.571 206.797 130.104C207.096 130.637 207.245 131.309 207.245 132.12V137H206.109V132.232C206.109 131.347 205.885 130.68 205.437 130.232C205 129.773 204.381 129.544 203.581 129.544C202.984 129.544 202.461 129.667 202.013 129.912C201.576 130.147 201.235 130.493 200.989 130.952C200.755 131.4 200.637 131.944 200.637 132.584V137H199.501V125.128H200.637V130.904L200.413 130.472C200.68 129.864 201.107 129.389 201.693 129.048C202.28 128.696 202.979 128.52 203.789 128.52ZM210.458 140.104H209.37C210.01 139.005 210.474 137.843 210.762 136.616C211.061 135.379 211.21 134.045 211.21 132.616C211.21 131.187 211.061 129.859 210.762 128.632C210.474 127.395 210.01 126.227 209.37 125.128H210.458C211.066 126.077 211.53 127.197 211.85 128.488C212.17 129.768 212.33 131.144 212.33 132.616C212.33 134.088 212.17 135.464 211.85 136.744C211.53 138.013 211.066 139.133 210.458 140.104ZM215.692 130.264C215.457 130.264 215.254 130.179 215.084 130.008C214.924 129.837 214.844 129.629 214.844 129.384C214.844 129.128 214.924 128.92 215.084 128.76C215.254 128.6 215.457 128.52 215.692 128.52C215.926 128.52 216.124 128.6 216.284 128.76C216.454 128.92 216.54 129.128 216.54 129.384C216.54 129.629 216.454 129.837 216.284 130.008C216.124 130.179 215.926 130.264 215.692 130.264ZM215.692 137.08C215.457 137.08 215.254 136.995 215.084 136.824C214.924 136.653 214.844 136.445 214.844 136.2C214.844 135.944 214.924 135.736 215.084 135.576C215.254 135.416 215.457 135.336 215.692 135.336C215.926 135.336 216.124 135.416 216.284 135.576C216.454 135.736 216.54 135.944 216.54 136.2C216.54 136.445 216.454 136.653 216.284 136.824C216.124 136.995 215.926 137.08 215.692 137.08ZM90.1647 155.224H96.0847V156.248H90.1647V155.224ZM90.2927 161H89.1087V149.8H96.7887V150.824H90.2927V161ZM102.136 161.08C101.326 161.08 100.595 160.899 99.9444 160.536C99.3044 160.163 98.7978 159.656 98.4244 159.016C98.0511 158.365 97.8644 157.624 97.8644 156.792C97.8644 155.949 98.0511 155.208 98.4244 154.568C98.7978 153.928 99.3044 153.427 99.9444 153.064C100.584 152.701 101.315 152.52 102.136 152.52C102.968 152.52 103.704 152.701 104.344 153.064C104.995 153.427 105.502 153.928 105.864 154.568C106.238 155.208 106.424 155.949 106.424 156.792C106.424 157.624 106.238 158.365 105.864 159.016C105.502 159.656 104.995 160.163 104.344 160.536C103.694 160.899 102.958 161.08 102.136 161.08ZM102.136 160.072C102.744 160.072 103.283 159.939 103.752 159.672C104.222 159.395 104.59 159.011 104.856 158.52C105.134 158.019 105.272 157.443 105.272 156.792C105.272 156.131 105.134 155.555 104.856 155.064C104.59 154.573 104.222 154.195 103.752 153.928C103.283 153.651 102.75 153.512 102.152 153.512C101.555 153.512 101.022 153.651 100.552 153.928C100.083 154.195 99.7098 154.573 99.4324 155.064C99.1551 155.555 99.0164 156.131 99.0164 156.792C99.0164 157.443 99.1551 158.019 99.4324 158.52C99.7098 159.011 100.083 159.395 100.552 159.672C101.022 159.939 101.55 160.072 102.136 160.072ZM108.744 161V152.6H109.832V154.888L109.72 154.488C109.954 153.848 110.349 153.363 110.904 153.032C111.458 152.691 112.146 152.52 112.968 152.52V153.624C112.925 153.624 112.882 153.624 112.84 153.624C112.797 153.613 112.754 153.608 112.712 153.608C111.826 153.608 111.133 153.88 110.632 154.424C110.13 154.957 109.88 155.72 109.88 156.712V161H108.744ZM121.945 161.096C121.134 161.096 120.366 160.968 119.641 160.712C118.926 160.445 118.35 160.093 117.913 159.656L118.473 158.744C118.836 159.117 119.321 159.427 119.929 159.672C120.548 159.917 121.22 160.04 121.945 160.04C122.873 160.04 123.582 159.837 124.073 159.432C124.574 159.027 124.825 158.483 124.825 157.8C124.825 157.117 124.58 156.573 124.089 156.168C123.609 155.763 122.846 155.56 121.801 155.56H121.001V154.712L124.457 150.376L124.617 150.824H118.377V149.8H125.577V150.616L122.121 154.952L121.561 154.584H121.993C123.337 154.584 124.34 154.883 125.001 155.48C125.673 156.077 126.009 156.845 126.009 157.784C126.009 158.413 125.86 158.979 125.561 159.48C125.262 159.981 124.809 160.376 124.201 160.664C123.604 160.952 122.852 161.096 121.945 161.096ZM133.468 158.824L133.5 157.368L138.732 152.6H140.124L136.428 156.136L135.788 156.68L133.468 158.824ZM132.572 161V149.128H133.708V161H132.572ZM139.084 161L135.58 156.632L136.316 155.752L140.476 161H139.084ZM142.181 161V152.6H143.317V161H142.181ZM142.757 150.744C142.523 150.744 142.325 150.664 142.165 150.504C142.005 150.344 141.925 150.152 141.925 149.928C141.925 149.704 142.005 149.517 142.165 149.368C142.325 149.208 142.523 149.128 142.757 149.128C142.992 149.128 143.189 149.203 143.349 149.352C143.509 149.501 143.589 149.688 143.589 149.912C143.589 150.147 143.509 150.344 143.349 150.504C143.2 150.664 143.003 150.744 142.757 150.744ZM149.822 161.08C149.022 161.08 148.302 160.899 147.662 160.536C147.033 160.173 146.537 159.672 146.174 159.032C145.811 158.381 145.63 157.635 145.63 156.792C145.63 155.939 145.811 155.192 146.174 154.552C146.537 153.912 147.033 153.416 147.662 153.064C148.302 152.701 149.022 152.52 149.822 152.52C150.558 152.52 151.214 152.685 151.79 153.016C152.377 153.347 152.841 153.832 153.182 154.472C153.534 155.101 153.71 155.875 153.71 156.792C153.71 157.699 153.539 158.472 153.198 159.112C152.857 159.752 152.393 160.243 151.806 160.584C151.23 160.915 150.569 161.08 149.822 161.08ZM149.902 160.072C150.499 160.072 151.033 159.939 151.502 159.672C151.982 159.395 152.355 159.011 152.622 158.52C152.899 158.019 153.038 157.443 153.038 156.792C153.038 156.131 152.899 155.555 152.622 155.064C152.355 154.573 151.982 154.195 151.502 153.928C151.033 153.651 150.499 153.512 149.902 153.512C149.315 153.512 148.787 153.651 148.318 153.928C147.849 154.195 147.475 154.573 147.198 155.064C146.921 155.555 146.782 156.131 146.782 156.792C146.782 157.443 146.921 158.019 147.198 158.52C147.475 159.011 147.849 159.395 148.318 159.672C148.787 159.939 149.315 160.072 149.902 160.072ZM153.07 161V158.472L153.182 156.776L153.022 155.08V149.128H154.158V161H153.07ZM159.578 161.08C158.884 161.08 158.228 160.984 157.61 160.792C156.991 160.589 156.506 160.339 156.154 160.04L156.666 159.144C157.007 159.4 157.444 159.624 157.978 159.816C158.511 159.997 159.071 160.088 159.658 160.088C160.458 160.088 161.034 159.965 161.386 159.72C161.738 159.464 161.914 159.128 161.914 158.712C161.914 158.403 161.812 158.163 161.61 157.992C161.418 157.811 161.162 157.677 160.842 157.592C160.522 157.496 160.164 157.416 159.77 157.352C159.375 157.288 158.98 157.213 158.586 157.128C158.202 157.043 157.85 156.92 157.53 156.76C157.21 156.589 156.948 156.36 156.746 156.072C156.554 155.784 156.458 155.4 156.458 154.92C156.458 154.461 156.586 154.051 156.842 153.688C157.098 153.325 157.471 153.043 157.962 152.84C158.463 152.627 159.071 152.52 159.786 152.52C160.33 152.52 160.874 152.595 161.418 152.744C161.962 152.883 162.41 153.069 162.762 153.304L162.266 154.216C161.892 153.96 161.492 153.779 161.066 153.672C160.639 153.555 160.212 153.496 159.786 153.496C159.028 153.496 158.468 153.629 158.106 153.896C157.754 154.152 157.578 154.483 157.578 154.888C157.578 155.208 157.674 155.459 157.866 155.64C158.068 155.821 158.33 155.965 158.65 156.072C158.98 156.168 159.338 156.248 159.722 156.312C160.116 156.376 160.506 156.456 160.89 156.552C161.284 156.637 161.642 156.76 161.962 156.92C162.292 157.069 162.554 157.288 162.746 157.576C162.948 157.853 163.05 158.221 163.05 158.68C163.05 159.171 162.911 159.597 162.634 159.96C162.367 160.312 161.972 160.589 161.45 160.792C160.938 160.984 160.314 161.08 159.578 161.08Z" fill="#1A1A1A"/>
<path d="M64.8205 198V182.64L66.5005 184.32H61.4605V181.2H68.7085V198H64.8205ZM78.8269 198.288C77.4509 198.288 76.2189 197.952 75.1309 197.28C74.0429 196.592 73.1869 195.6 72.5629 194.304C71.9389 193.008 71.6269 191.44 71.6269 189.6C71.6269 187.76 71.9389 186.192 72.5629 184.896C73.1869 183.6 74.0429 182.616 75.1309 181.944C76.2189 181.256 77.4509 180.912 78.8269 180.912C80.2189 180.912 81.4509 181.256 82.5229 181.944C83.6109 182.616 84.4669 183.6 85.0909 184.896C85.7149 186.192 86.0269 187.76 86.0269 189.6C86.0269 191.44 85.7149 193.008 85.0909 194.304C84.4669 195.6 83.6109 196.592 82.5229 197.28C81.4509 197.952 80.2189 198.288 78.8269 198.288ZM78.8269 195C79.4829 195 80.0509 194.816 80.5309 194.448C81.0269 194.08 81.4109 193.496 81.6829 192.696C81.9709 191.896 82.1149 190.864 82.1149 189.6C82.1149 188.336 81.9709 187.304 81.6829 186.504C81.4109 185.704 81.0269 185.12 80.5309 184.752C80.0509 184.384 79.4829 184.2 78.8269 184.2C78.1869 184.2 77.6189 184.384 77.1229 184.752C76.6429 185.12 76.2589 185.704 75.9709 186.504C75.6989 187.304 75.5629 188.336 75.5629 189.6C75.5629 190.864 75.6989 191.896 75.9709 192.696C76.2589 193.496 76.6429 194.08 77.1229 194.448C77.6189 194.816 78.1869 195 78.8269 195ZM95.116 198.288C93.74 198.288 92.508 197.952 91.42 197.28C90.332 196.592 89.476 195.6 88.852 194.304C88.228 193.008 87.916 191.44 87.916 189.6C87.916 187.76 88.228 186.192 88.852 184.896C89.476 183.6 90.332 182.616 91.42 181.944C92.508 181.256 93.74 180.912 95.116 180.912C96.508 180.912 97.74 181.256 98.812 181.944C99.9 182.616 100.756 183.6 101.38 184.896C102.004 186.192 102.316 187.76 102.316 189.6C102.316 191.44 102.004 193.008 101.38 194.304C100.756 195.6 99.9 196.592 98.812 197.28C97.74 197.952 96.508 198.288 95.116 198.288ZM95.116 195C95.772 195 96.34 194.816 96.82 194.448C97.316 194.08 97.7 193.496 97.972 192.696C98.26 191.896 98.404 190.864 98.404 189.6C98.404 188.336 98.26 187.304 97.972 186.504C97.7 185.704 97.316 185.12 96.82 184.752C96.34 184.384 95.772 184.2 95.116 184.2C94.476 184.2 93.908 184.384 93.412 184.752C92.932 185.12 92.548 185.704 92.26 186.504C91.988 187.304 91.852 188.336 91.852 189.6C91.852 190.864 91.988 191.896 92.26 192.696C92.548 193.496 92.932 194.08 93.412 194.448C93.908 194.816 94.476 195 95.116 195ZM111.405 198.288C110.029 198.288 108.797 197.952 107.709 197.28C106.621 196.592 105.765 195.6 105.141 194.304C104.517 193.008 104.205 191.44 104.205 189.6C104.205 187.76 104.517 186.192 105.141 184.896C105.765 183.6 106.621 182.616 107.709 181.944C108.797 181.256 110.029 180.912 111.405 180.912C112.797 180.912 114.029 181.256 115.101 181.944C116.189 182.616 117.045 183.6 117.669 184.896C118.293 186.192 118.605 187.76 118.605 189.6C118.605 191.44 118.293 193.008 117.669 194.304C117.045 195.6 116.189 196.592 115.101 197.28C114.029 197.952 112.797 198.288 111.405 198.288ZM111.405 195C112.061 195 112.629 194.816 113.109 194.448C113.605 194.08 113.989 193.496 114.261 192.696C114.549 191.896 114.693 190.864 114.693 189.6C114.693 188.336 114.549 187.304 114.261 186.504C113.989 185.704 113.605 185.12 113.109 184.752C112.629 184.384 112.061 184.2 111.405 184.2C110.765 184.2 110.197 184.384 109.701 184.752C109.221 185.12 108.837 185.704 108.549 186.504C108.277 187.304 108.141 188.336 108.141 189.6C108.141 190.864 108.277 191.896 108.549 192.696C108.837 193.496 109.221 194.08 109.701 194.448C110.197 194.816 110.765 195 111.405 195ZM128.347 198V181.2H135.619C137.123 181.2 138.419 181.448 139.507 181.944C140.595 182.424 141.435 183.12 142.027 184.032C142.619 184.944 142.915 186.032 142.915 187.296C142.915 188.544 142.619 189.624 142.027 190.536C141.435 191.432 140.595 192.12 139.507 192.6C138.419 193.08 137.123 193.32 135.619 193.32H130.507L132.235 191.616V198H128.347ZM139.027 198L134.827 191.904H138.979L143.227 198H139.027ZM132.235 192.048L130.507 190.224H135.403C136.603 190.224 137.499 189.968 138.091 189.456C138.683 188.928 138.979 188.208 138.979 187.296C138.979 186.368 138.683 185.648 138.091 185.136C137.499 184.624 136.603 184.368 135.403 184.368H130.507L132.235 182.52V192.048ZM151.515 198.288C150.171 198.288 148.883 198.112 147.651 197.76C146.419 197.392 145.427 196.92 144.675 196.344L145.995 193.416C146.715 193.928 147.563 194.352 148.539 194.688C149.531 195.008 150.531 195.168 151.539 195.168C152.307 195.168 152.923 195.096 153.387 194.952C153.867 194.792 154.219 194.576 154.443 194.304C154.667 194.032 154.779 193.72 154.779 193.368C154.779 192.92 154.603 192.568 154.251 192.312C153.899 192.04 153.435 191.824 152.859 191.664C152.283 191.488 151.643 191.328 150.939 191.184C150.251 191.024 149.555 190.832 148.851 190.608C148.163 190.384 147.531 190.096 146.955 189.744C146.379 189.392 145.907 188.928 145.539 188.352C145.187 187.776 145.011 187.04 145.011 186.144C145.011 185.184 145.267 184.312 145.779 183.528C146.307 182.728 147.091 182.096 148.131 181.632C149.187 181.152 150.507 180.912 152.091 180.912C153.147 180.912 154.187 181.04 155.211 181.296C156.235 181.536 157.139 181.904 157.923 182.4L156.723 185.352C155.939 184.904 155.155 184.576 154.371 184.368C153.587 184.144 152.819 184.032 152.067 184.032C151.315 184.032 150.699 184.12 150.219 184.296C149.739 184.472 149.395 184.704 149.187 184.992C148.979 185.264 148.875 185.584 148.875 185.952C148.875 186.384 149.051 186.736 149.403 187.008C149.755 187.264 150.219 187.472 150.795 187.632C151.371 187.792 152.003 187.952 152.691 188.112C153.395 188.272 154.091 188.456 154.779 188.664C155.483 188.872 156.123 189.152 156.699 189.504C157.275 189.856 157.739 190.32 158.091 190.896C158.459 191.472 158.643 192.2 158.643 193.08C158.643 194.024 158.379 194.888 157.851 195.672C157.323 196.456 156.531 197.088 155.475 197.568C154.435 198.048 153.115 198.288 151.515 198.288ZM161.3 198V181.2H168.932C170.756 181.2 172.364 181.552 173.756 182.256C175.148 182.944 176.236 183.912 177.02 185.16C177.804 186.408 178.196 187.888 178.196 189.6C178.196 191.296 177.804 192.776 177.02 194.04C176.236 195.288 175.148 196.264 173.756 196.968C172.364 197.656 170.756 198 168.932 198H161.3ZM165.188 194.808H168.74C169.86 194.808 170.828 194.6 171.644 194.184C172.476 193.752 173.116 193.144 173.564 192.36C174.028 191.576 174.26 190.656 174.26 189.6C174.26 188.528 174.028 187.608 173.564 186.84C173.116 186.056 172.476 185.456 171.644 185.04C170.828 184.608 169.86 184.392 168.74 184.392H165.188V194.808ZM189.24 183.504L186.048 185.256V184.632L189.24 186.36L188.064 188.328L185.088 186.552L185.424 186.336L185.472 189.672H183.216L183.24 186.336L183.576 186.552L180.6 188.328L179.448 186.36L182.64 184.632V185.256L179.448 183.504L180.6 181.536L183.576 183.336L183.24 183.528L183.216 180.192H185.472L185.424 183.528L185.088 183.336L188.064 181.536L189.24 183.504Z" fill="#1A1A1A"/>
<path d="M80.4175 73H1.41748V225H249.417V73H177.917" stroke="#1A1A1A"/>
<path d="M184.399 46.2467C179.818 45.2873 175.078 45.5734 170.44 45.946C164.398 46.4882 158.359 47.5929 152.592 49.5423C152.338 49.6964 152.148 49.8909 151.979 50.0533C148.994 47.2731 145.441 45.1446 141.982 44.1075C134.14 41.3377 125.329 44.8894 119.173 49.9365C115.001 53.857 111.672 58.959 110.423 64.5885C110.342 65.1429 110.276 65.7074 110.221 66.2559C109.61 66.4091 108.994 66.5363 108.389 66.7157C100.863 68.6548 93.8322 72.2529 87.5663 76.8717C83.4817 80.0168 75.8931 85.1026 81.2101 90.565C87.5941 96.0721 110.175 90.9962 118.637 89.5576C118.941 89.502 119.244 89.4465 119.531 89.3809C119.549 89.4593 119.55 89.5276 119.568 89.606C120.103 91.1325 121.245 92.369 122.554 93.3066C127.757 96.8577 134.835 96.8345 140.551 94.471C147.525 91.8473 155.293 87.6822 158.214 80.3929C158.488 79.5335 158.962 78.2847 158.932 77.2337C170.257 72.4623 181.638 66.5376 189.739 57.1307C195.269 51.3748 190.487 47.4389 184.393 46.2206L184.399 46.2467ZM133.81 47.1423C138.695 46.7682 143.632 48.8276 147.453 51.8429C150.657 54.5593 153.263 57.9756 154.727 61.9277C155.347 63.2836 155.297 65.1362 156.352 66.2278C152.563 68.1237 148.664 69.7702 144.713 71.2497C137.94 73.7312 130.972 76.2022 123.893 77.7506C120.818 78.4807 117.584 79.1782 114.353 79.5864C114.687 77.7104 114.007 73.8265 113.974 73.0649C113.725 70.3053 113.784 67.022 114.59 64.2549C117.239 55.4478 124.455 48.1527 133.804 47.1161L133.81 47.1423ZM159.319 64.7118C159.307 62.3928 158.738 60.1047 157.742 57.9281C158.324 57.8913 158.89 57.8444 159.453 57.9081C161.133 58.1151 163.422 58.1005 164.994 59.0467C165.599 59.5404 164.677 60.3279 164.379 60.8356C162.958 62.4518 161.169 63.6572 159.293 64.7177L159.319 64.7118ZM140.847 89.6771C135.566 91.9552 129.693 92.0878 124.383 89.8386C123.811 89.6122 123.145 89.2147 122.459 88.8494C127.237 87.9365 132.024 86.9392 136.667 85.4251C142.614 83.5445 148.453 81.3038 154.299 79.1577C151.267 84.1781 146.375 87.8236 140.847 89.6771ZM184.397 57.3068C180.225 61.4061 175.151 64.9145 169.933 67.6589C162.832 71.3694 155.325 74.8017 147.494 77.4012C141.72 79.5033 135.881 81.4968 129.902 82.9313C125.703 83.9179 120.87 84.706 116.513 85.6601C106.889 87.4877 97.0175 89.7429 87.1977 88.6202C83.415 88.0967 82.5593 86.5473 85.6074 83.9825C92.4283 77.7394 100.69 73.5716 108.796 69.2606C109.164 69.0666 109.604 68.8285 110.029 68.5804C109.932 72.4905 110.636 76.479 112.605 79.8073C111.431 79.8969 110.251 79.9604 109.079 79.9395C104.343 79.9362 104.813 78.3037 107.946 75.7471C108.963 75.0201 110.484 73.8482 109.606 72.4415C107.931 70.2412 105.182 73.2186 103.792 74.429C101.96 76.2351 101.013 79.4741 102.822 81.6024C109.23 87.8873 133.389 79.1398 141.327 76.4059C148.58 73.5538 167.353 68.0285 169.69 60.4605C170.93 53.1431 161.521 53.8499 156.801 56.1233C156.155 55.0206 155.437 53.9619 154.62 52.9532C159.938 51.7523 165.519 50.6283 170.982 50.0125C176.613 49.6603 183.23 48.5608 188.101 52.0368C188.873 53.1519 185.386 56.2702 184.397 57.3068Z" fill="#D9695F"/>
</svg>
