<svg width="250" height="226" viewBox="0 0 250 226" fill="none" xmlns="http://www.w3.org/2000/svg">
<path d="M42.161 136.808H48.081V137.816H42.161V136.808ZM42.289 141.976H49.025V143H41.105V131.8H48.785V132.824H42.289V141.976ZM56.7071 143V141.144L56.6591 140.84V137.736C56.6591 137.021 56.4565 136.472 56.0511 136.088C55.6565 135.704 55.0645 135.512 54.2751 135.512C53.7311 135.512 53.2138 135.603 52.7231 135.784C52.2325 135.965 51.8165 136.205 51.4751 136.504L50.9631 135.656C51.3898 135.293 51.9018 135.016 52.4991 134.824C53.0965 134.621 53.7258 134.52 54.3871 134.52C55.4751 134.52 56.3125 134.792 56.8991 135.336C57.4965 135.869 57.7951 136.685 57.7951 137.784V143H56.7071ZM53.8111 143.08C53.1818 143.08 52.6325 142.979 52.1631 142.776C51.7045 142.563 51.3525 142.275 51.1071 141.912C50.8618 141.539 50.7391 141.112 50.7391 140.632C50.7391 140.195 50.8405 139.8 51.0431 139.448C51.2565 139.085 51.5978 138.797 52.0671 138.584C52.5471 138.36 53.1871 138.248 53.9871 138.248H56.8831V139.096H54.0191C53.2085 139.096 52.6431 139.24 52.3231 139.528C52.0138 139.816 51.8591 140.173 51.8591 140.6C51.8591 141.08 52.0458 141.464 52.4191 141.752C52.7925 142.04 53.3151 142.184 53.9871 142.184C54.6271 142.184 55.1765 142.04 55.6351 141.752C56.1045 141.453 56.4458 141.027 56.6591 140.472L56.9151 141.256C56.7018 141.811 56.3285 142.253 55.7951 142.584C55.2725 142.915 54.6111 143.08 53.8111 143.08ZM64.3686 143.08C63.5366 143.08 62.79 142.899 62.1286 142.536C61.478 142.163 60.966 141.656 60.5926 141.016C60.2193 140.365 60.0326 139.624 60.0326 138.792C60.0326 137.949 60.2193 137.208 60.5926 136.568C60.966 135.928 61.478 135.427 62.1286 135.064C62.79 134.701 63.5366 134.52 64.3686 134.52C65.0833 134.52 65.7286 134.659 66.3046 134.936C66.8806 135.213 67.334 135.629 67.6646 136.184L66.8166 136.76C66.5286 136.333 66.1713 136.019 65.7446 135.816C65.318 135.613 64.854 135.512 64.3526 135.512C63.7553 135.512 63.2166 135.651 62.7366 135.928C62.2566 136.195 61.878 136.573 61.6006 137.064C61.3233 137.555 61.1846 138.131 61.1846 138.792C61.1846 139.453 61.3233 140.029 61.6006 140.52C61.878 141.011 62.2566 141.395 62.7366 141.672C63.2166 141.939 63.7553 142.072 64.3526 142.072C64.854 142.072 65.318 141.971 65.7446 141.768C66.1713 141.565 66.5286 141.256 66.8166 140.84L67.6646 141.416C67.334 141.96 66.8806 142.376 66.3046 142.664C65.7286 142.941 65.0833 143.08 64.3686 143.08ZM74.0593 134.52C74.7419 134.52 75.3393 134.653 75.8513 134.92C76.3739 135.176 76.7793 135.571 77.0673 136.104C77.3659 136.637 77.5153 137.309 77.5153 138.12V143H76.3793V138.232C76.3793 137.347 76.1553 136.68 75.7073 136.232C75.2699 135.773 74.6513 135.544 73.8513 135.544C73.2539 135.544 72.7313 135.667 72.2833 135.912C71.8459 136.147 71.5046 136.493 71.2593 136.952C71.0246 137.4 70.9073 137.944 70.9073 138.584V143H69.7713V131.128H70.9073V136.904L70.6833 136.472C70.9499 135.864 71.3766 135.389 71.9633 135.048C72.5499 134.696 73.2486 134.52 74.0593 134.52ZM87.0273 143.08C86.3339 143.08 85.6779 142.984 85.0593 142.792C84.4406 142.589 83.9553 142.339 83.6033 142.04L84.1153 141.144C84.4566 141.4 84.8939 141.624 85.4273 141.816C85.9606 141.997 86.5206 142.088 87.1073 142.088C87.9073 142.088 88.4833 141.965 88.8353 141.72C89.1873 141.464 89.3633 141.128 89.3633 140.712C89.3633 140.403 89.2619 140.163 89.0593 139.992C88.8673 139.811 88.6113 139.677 88.2913 139.592C87.9713 139.496 87.6139 139.416 87.2193 139.352C86.8246 139.288 86.4299 139.213 86.0353 139.128C85.6513 139.043 85.2993 138.92 84.9793 138.76C84.6593 138.589 84.3979 138.36 84.1953 138.072C84.0033 137.784 83.9073 137.4 83.9073 136.92C83.9073 136.461 84.0353 136.051 84.2913 135.688C84.5473 135.325 84.9206 135.043 85.4113 134.84C85.9126 134.627 86.5206 134.52 87.2353 134.52C87.7793 134.52 88.3233 134.595 88.8673 134.744C89.4113 134.883 89.8593 135.069 90.2113 135.304L89.7153 136.216C89.3419 135.96 88.9419 135.779 88.5153 135.672C88.0886 135.555 87.6619 135.496 87.2353 135.496C86.4779 135.496 85.9179 135.629 85.5553 135.896C85.2033 136.152 85.0273 136.483 85.0273 136.888C85.0273 137.208 85.1233 137.459 85.3153 137.64C85.5179 137.821 85.7793 137.965 86.0993 138.072C86.4299 138.168 86.7873 138.248 87.1713 138.312C87.5659 138.376 87.9553 138.456 88.3393 138.552C88.7339 138.637 89.0913 138.76 89.4113 138.92C89.7419 139.069 90.0033 139.288 90.1953 139.576C90.3979 139.853 90.4993 140.221 90.4993 140.68C90.4993 141.171 90.3606 141.597 90.0833 141.96C89.8166 142.312 89.4219 142.589 88.8993 142.792C88.3873 142.984 87.7633 143.08 87.0273 143.08ZM95.2398 143.08C94.4504 143.08 93.8424 142.867 93.4158 142.44C92.9891 142.013 92.7758 141.411 92.7758 140.632V132.744H93.9118V140.568C93.9118 141.059 94.0344 141.437 94.2798 141.704C94.5358 141.971 94.8984 142.104 95.3678 142.104C95.8691 142.104 96.2851 141.96 96.6158 141.672L97.0158 142.488C96.7918 142.691 96.5198 142.84 96.1998 142.936C95.8904 143.032 95.5704 143.08 95.2398 143.08ZM91.2718 135.544V134.6H96.4718V135.544H91.2718ZM104.348 143V141.144L104.3 140.84V137.736C104.3 137.021 104.097 136.472 103.692 136.088C103.297 135.704 102.705 135.512 101.916 135.512C101.372 135.512 100.854 135.603 100.364 135.784C99.8731 135.965 99.4571 136.205 99.1158 136.504L98.6038 135.656C99.0304 135.293 99.5424 135.016 100.14 134.824C100.737 134.621 101.366 134.52 102.028 134.52C103.116 134.52 103.953 134.792 104.54 135.336C105.137 135.869 105.436 136.685 105.436 137.784V143H104.348ZM101.452 143.08C100.822 143.08 100.273 142.979 99.8038 142.776C99.3451 142.563 98.9931 142.275 98.7478 141.912C98.5024 141.539 98.3798 141.112 98.3798 140.632C98.3798 140.195 98.4811 139.8 98.6838 139.448C98.8971 139.085 99.2384 138.797 99.7078 138.584C100.188 138.36 100.828 138.248 101.628 138.248H104.524V139.096H101.66C100.849 139.096 100.284 139.24 99.9638 139.528C99.6544 139.816 99.4998 140.173 99.4998 140.6C99.4998 141.08 99.6864 141.464 100.06 141.752C100.433 142.04 100.956 142.184 101.628 142.184C102.268 142.184 102.817 142.04 103.276 141.752C103.745 141.453 104.086 141.027 104.3 140.472L104.556 141.256C104.342 141.811 103.969 142.253 103.436 142.584C102.913 142.915 102.252 143.08 101.452 143.08ZM108.521 143V134.6H109.609V136.888L109.497 136.488C109.732 135.848 110.127 135.363 110.681 135.032C111.236 134.691 111.924 134.52 112.745 134.52V135.624C112.703 135.624 112.66 135.624 112.617 135.624C112.575 135.613 112.532 135.608 112.489 135.608C111.604 135.608 110.911 135.88 110.409 136.424C109.908 136.957 109.657 137.72 109.657 138.712V143H108.521ZM117.834 143.08C117.044 143.08 116.436 142.867 116.01 142.44C115.583 142.013 115.37 141.411 115.37 140.632V132.744H116.506V140.568C116.506 141.059 116.628 141.437 116.874 141.704C117.13 141.971 117.492 142.104 117.962 142.104C118.463 142.104 118.879 141.96 119.21 141.672L119.61 142.488C119.386 142.691 119.114 142.84 118.794 142.936C118.484 143.032 118.164 143.08 117.834 143.08ZM113.866 135.544V134.6H119.066V135.544H113.866ZM121.678 143V134.6H122.814V143H121.678ZM122.254 132.744C122.019 132.744 121.822 132.664 121.662 132.504C121.502 132.344 121.422 132.152 121.422 131.928C121.422 131.704 121.502 131.517 121.662 131.368C121.822 131.208 122.019 131.128 122.254 131.128C122.488 131.128 122.686 131.203 122.846 131.352C123.006 131.501 123.086 131.688 123.086 131.912C123.086 132.147 123.006 132.344 122.846 132.504C122.696 132.664 122.499 132.744 122.254 132.744ZM130.262 134.52C130.945 134.52 131.542 134.653 132.054 134.92C132.577 135.176 132.982 135.571 133.27 136.104C133.569 136.637 133.718 137.309 133.718 138.12V143H132.582V138.232C132.582 137.347 132.358 136.68 131.91 136.232C131.473 135.773 130.854 135.544 130.054 135.544C129.457 135.544 128.934 135.667 128.486 135.912C128.049 136.147 127.708 136.493 127.462 136.952C127.228 137.4 127.11 137.944 127.11 138.584V143H125.974V134.6H127.062V136.904L126.886 136.472C127.153 135.864 127.58 135.389 128.166 135.048C128.753 134.696 129.452 134.52 130.262 134.52ZM140.371 146.184C139.603 146.184 138.867 146.072 138.163 145.848C137.459 145.624 136.888 145.304 136.451 144.888L137.027 144.024C137.422 144.376 137.907 144.653 138.483 144.856C139.07 145.069 139.688 145.176 140.339 145.176C141.406 145.176 142.19 144.925 142.691 144.424C143.192 143.933 143.443 143.165 143.443 142.12V140.024L143.603 138.584L143.491 137.144V134.6H144.579V141.976C144.579 143.427 144.222 144.488 143.507 145.16C142.803 145.843 141.758 146.184 140.371 146.184ZM140.163 142.68C139.363 142.68 138.643 142.509 138.003 142.168C137.363 141.816 136.856 141.331 136.483 140.712C136.12 140.093 135.939 139.384 135.939 138.584C135.939 137.784 136.12 137.08 136.483 136.472C136.856 135.853 137.363 135.373 138.003 135.032C138.643 134.691 139.363 134.52 140.163 134.52C140.91 134.52 141.582 134.675 142.179 134.984C142.776 135.293 143.251 135.752 143.603 136.36C143.955 136.968 144.131 137.709 144.131 138.584C144.131 139.459 143.955 140.2 143.603 140.808C143.251 141.416 142.776 141.88 142.179 142.2C141.582 142.52 140.91 142.68 140.163 142.68ZM140.275 141.672C140.894 141.672 141.443 141.544 141.923 141.288C142.403 141.021 142.782 140.659 143.059 140.2C143.336 139.731 143.475 139.192 143.475 138.584C143.475 137.976 143.336 137.443 143.059 136.984C142.782 136.525 142.403 136.168 141.923 135.912C141.443 135.645 140.894 135.512 140.275 135.512C139.667 135.512 139.118 135.645 138.627 135.912C138.147 136.168 137.768 136.525 137.491 136.984C137.224 137.443 137.091 137.976 137.091 138.584C137.091 139.192 137.224 139.731 137.491 140.2C137.768 140.659 138.147 141.021 138.627 141.288C139.118 141.544 139.667 141.672 140.275 141.672ZM156.216 134.52C156.898 134.52 157.496 134.653 158.008 134.92C158.53 135.176 158.936 135.571 159.224 136.104C159.522 136.637 159.672 137.309 159.672 138.12V143H158.536V138.232C158.536 137.347 158.312 136.68 157.864 136.232C157.426 135.773 156.808 135.544 156.008 135.544C155.41 135.544 154.888 135.667 154.44 135.912C154.002 136.147 153.661 136.493 153.416 136.952C153.181 137.4 153.064 137.944 153.064 138.584V143H151.928V131.128H153.064V136.904L152.84 136.472C153.106 135.864 153.533 135.389 154.12 135.048C154.706 134.696 155.405 134.52 156.216 134.52ZM166.164 143.08C165.353 143.08 164.623 142.899 163.972 142.536C163.332 142.163 162.825 141.656 162.452 141.016C162.079 140.365 161.892 139.624 161.892 138.792C161.892 137.949 162.079 137.208 162.452 136.568C162.825 135.928 163.332 135.427 163.972 135.064C164.612 134.701 165.343 134.52 166.164 134.52C166.996 134.52 167.732 134.701 168.372 135.064C169.023 135.427 169.529 135.928 169.892 136.568C170.265 137.208 170.452 137.949 170.452 138.792C170.452 139.624 170.265 140.365 169.892 141.016C169.529 141.656 169.023 142.163 168.372 142.536C167.721 142.899 166.985 143.08 166.164 143.08ZM166.164 142.072C166.772 142.072 167.311 141.939 167.78 141.672C168.249 141.395 168.617 141.011 168.884 140.52C169.161 140.019 169.3 139.443 169.3 138.792C169.3 138.131 169.161 137.555 168.884 137.064C168.617 136.573 168.249 136.195 167.78 135.928C167.311 135.651 166.777 135.512 166.18 135.512C165.583 135.512 165.049 135.651 164.58 135.928C164.111 136.195 163.737 136.573 163.46 137.064C163.183 137.555 163.044 138.131 163.044 138.792C163.044 139.443 163.183 140.019 163.46 140.52C163.737 141.011 164.111 141.395 164.58 141.672C165.049 141.939 165.577 142.072 166.164 142.072ZM176.243 143.08C175.529 143.08 174.905 142.947 174.371 142.68C173.838 142.413 173.422 142.013 173.123 141.48C172.835 140.947 172.691 140.28 172.691 139.48V134.6H173.827V139.352C173.827 140.248 174.046 140.925 174.483 141.384C174.931 141.832 175.555 142.056 176.355 142.056C176.942 142.056 177.449 141.939 177.875 141.704C178.313 141.459 178.643 141.107 178.867 140.648C179.102 140.189 179.219 139.64 179.219 139V134.6H180.355V143H179.267V140.696L179.443 141.112C179.177 141.731 178.761 142.216 178.195 142.568C177.641 142.909 176.99 143.08 176.243 143.08ZM183.521 143V134.6H184.609V136.888L184.497 136.488C184.732 135.848 185.127 135.363 185.681 135.032C186.236 134.691 186.924 134.52 187.745 134.52V135.624C187.703 135.624 187.66 135.624 187.617 135.624C187.575 135.613 187.532 135.608 187.489 135.608C186.604 135.608 185.911 135.88 185.409 136.424C184.908 136.957 184.657 137.72 184.657 138.712V143H183.521ZM196.067 146.104C195.48 145.133 195.021 144.013 194.691 142.744C194.371 141.464 194.211 140.088 194.211 138.616C194.211 137.144 194.371 135.768 194.691 134.488C195.021 133.197 195.48 132.077 196.067 131.128H197.155C196.525 132.227 196.061 133.395 195.763 134.632C195.475 135.859 195.331 137.187 195.331 138.616C195.331 140.045 195.475 141.379 195.763 142.616C196.061 143.843 196.525 145.005 197.155 146.104H196.067ZM200.753 143V132.28L201.265 132.824H198.113V131.8H201.905V143H200.753ZM209.622 134.52C210.304 134.52 210.902 134.653 211.414 134.92C211.936 135.176 212.342 135.571 212.63 136.104C212.928 136.637 213.078 137.309 213.078 138.12V143H211.942V138.232C211.942 137.347 211.718 136.68 211.27 136.232C210.832 135.773 210.214 135.544 209.414 135.544C208.816 135.544 208.294 135.667 207.846 135.912C207.408 136.147 207.067 136.493 206.822 136.952C206.587 137.4 206.47 137.944 206.47 138.584V143H205.334V131.128H206.47V136.904L206.246 136.472C206.512 135.864 206.939 135.389 207.526 135.048C208.112 134.696 208.811 134.52 209.622 134.52ZM216.29 146.104H215.202C215.842 145.005 216.306 143.843 216.594 142.616C216.893 141.379 217.042 140.045 217.042 138.616C217.042 137.187 216.893 135.859 216.594 134.632C216.306 133.395 215.842 132.227 215.202 131.128H216.29C216.898 132.077 217.362 133.197 217.682 134.488C218.002 135.768 218.162 137.144 218.162 138.616C218.162 140.088 218.002 141.464 217.682 142.744C217.362 144.013 216.898 145.133 216.29 146.104ZM221.524 136.264C221.289 136.264 221.087 136.179 220.916 136.008C220.756 135.837 220.676 135.629 220.676 135.384C220.676 135.128 220.756 134.92 220.916 134.76C221.087 134.6 221.289 134.52 221.524 134.52C221.759 134.52 221.956 134.6 222.116 134.76C222.287 134.92 222.372 135.128 222.372 135.384C222.372 135.629 222.287 135.837 222.116 136.008C221.956 136.179 221.759 136.264 221.524 136.264ZM221.524 143.08C221.289 143.08 221.087 142.995 220.916 142.824C220.756 142.653 220.676 142.445 220.676 142.2C220.676 141.944 220.756 141.736 220.916 141.576C221.087 141.416 221.289 141.336 221.524 141.336C221.759 141.336 221.956 141.416 222.116 141.576C222.287 141.736 222.372 141.944 222.372 142.2C222.372 142.445 222.287 142.653 222.116 142.824C221.956 142.995 221.759 143.08 221.524 143.08ZM95.9657 161.224H101.886V162.248H95.9657V161.224ZM96.0937 167H94.9097V155.8H102.59V156.824H96.0937V167ZM107.937 167.08C107.127 167.08 106.396 166.899 105.745 166.536C105.105 166.163 104.599 165.656 104.225 165.016C103.852 164.365 103.665 163.624 103.665 162.792C103.665 161.949 103.852 161.208 104.225 160.568C104.599 159.928 105.105 159.427 105.745 159.064C106.385 158.701 107.116 158.52 107.937 158.52C108.769 158.52 109.505 158.701 110.145 159.064C110.796 159.427 111.303 159.928 111.665 160.568C112.039 161.208 112.225 161.949 112.225 162.792C112.225 163.624 112.039 164.365 111.665 165.016C111.303 165.656 110.796 166.163 110.145 166.536C109.495 166.899 108.759 167.08 107.937 167.08ZM107.937 166.072C108.545 166.072 109.084 165.939 109.553 165.672C110.023 165.395 110.391 165.011 110.657 164.52C110.935 164.019 111.073 163.443 111.073 162.792C111.073 162.131 110.935 161.555 110.657 161.064C110.391 160.573 110.023 160.195 109.553 159.928C109.084 159.651 108.551 159.512 107.953 159.512C107.356 159.512 106.823 159.651 106.353 159.928C105.884 160.195 105.511 160.573 105.233 161.064C104.956 161.555 104.817 162.131 104.817 162.792C104.817 163.443 104.956 164.019 105.233 164.52C105.511 165.011 105.884 165.395 106.353 165.672C106.823 165.939 107.351 166.072 107.937 166.072ZM114.545 167V158.6H115.633V160.888L115.521 160.488C115.755 159.848 116.15 159.363 116.705 159.032C117.259 158.691 117.947 158.52 118.769 158.52V159.624C118.726 159.624 118.683 159.624 118.641 159.624C118.598 159.613 118.555 159.608 118.513 159.608C117.627 159.608 116.934 159.88 116.433 160.424C115.931 160.957 115.681 161.72 115.681 162.712V167H114.545ZM124.194 167V166.184L128.85 161.624C129.277 161.208 129.597 160.845 129.81 160.536C130.023 160.216 130.167 159.917 130.242 159.64C130.317 159.363 130.354 159.101 130.354 158.856C130.354 158.205 130.13 157.693 129.682 157.32C129.245 156.947 128.594 156.76 127.73 156.76C127.069 156.76 126.482 156.861 125.97 157.064C125.469 157.267 125.037 157.581 124.674 158.008L123.858 157.304C124.295 156.792 124.855 156.397 125.538 156.12C126.221 155.843 126.983 155.704 127.826 155.704C128.583 155.704 129.239 155.827 129.794 156.072C130.349 156.307 130.775 156.653 131.074 157.112C131.383 157.571 131.538 158.109 131.538 158.728C131.538 159.091 131.485 159.448 131.378 159.8C131.282 160.152 131.101 160.525 130.834 160.92C130.578 161.304 130.199 161.741 129.698 162.232L125.426 166.424L125.106 165.976H132.05V167H124.194ZM139.331 164.824L139.363 163.368L144.595 158.6H145.987L142.291 162.136L141.651 162.68L139.331 164.824ZM138.435 167V155.128H139.571V167H138.435ZM144.947 167L141.443 162.632L142.179 161.752L146.339 167H144.947ZM148.045 167V158.6H149.181V167H148.045ZM148.621 156.744C148.386 156.744 148.189 156.664 148.029 156.504C147.869 156.344 147.789 156.152 147.789 155.928C147.789 155.704 147.869 155.517 148.029 155.368C148.189 155.208 148.386 155.128 148.621 155.128C148.855 155.128 149.053 155.203 149.213 155.352C149.373 155.501 149.453 155.688 149.453 155.912C149.453 156.147 149.373 156.344 149.213 156.504C149.063 156.664 148.866 156.744 148.621 156.744ZM155.686 167.08C154.886 167.08 154.166 166.899 153.526 166.536C152.896 166.173 152.4 165.672 152.038 165.032C151.675 164.381 151.494 163.635 151.494 162.792C151.494 161.939 151.675 161.192 152.038 160.552C152.4 159.912 152.896 159.416 153.526 159.064C154.166 158.701 154.886 158.52 155.686 158.52C156.422 158.52 157.078 158.685 157.654 159.016C158.24 159.347 158.704 159.832 159.046 160.472C159.398 161.101 159.574 161.875 159.574 162.792C159.574 163.699 159.403 164.472 159.062 165.112C158.72 165.752 158.256 166.243 157.67 166.584C157.094 166.915 156.432 167.08 155.686 167.08ZM155.766 166.072C156.363 166.072 156.896 165.939 157.366 165.672C157.846 165.395 158.219 165.011 158.486 164.52C158.763 164.019 158.902 163.443 158.902 162.792C158.902 162.131 158.763 161.555 158.486 161.064C158.219 160.573 157.846 160.195 157.366 159.928C156.896 159.651 156.363 159.512 155.766 159.512C155.179 159.512 154.651 159.651 154.182 159.928C153.712 160.195 153.339 160.573 153.062 161.064C152.784 161.555 152.646 162.131 152.646 162.792C152.646 163.443 152.784 164.019 153.062 164.52C153.339 165.011 153.712 165.395 154.182 165.672C154.651 165.939 155.179 166.072 155.766 166.072ZM158.934 167V164.472L159.046 162.776L158.886 161.08V155.128H160.022V167H158.934ZM165.441 167.08C164.748 167.08 164.092 166.984 163.473 166.792C162.855 166.589 162.369 166.339 162.017 166.04L162.529 165.144C162.871 165.4 163.308 165.624 163.841 165.816C164.375 165.997 164.935 166.088 165.521 166.088C166.321 166.088 166.897 165.965 167.249 165.72C167.601 165.464 167.777 165.128 167.777 164.712C167.777 164.403 167.676 164.163 167.473 163.992C167.281 163.811 167.025 163.677 166.705 163.592C166.385 163.496 166.028 163.416 165.633 163.352C165.239 163.288 164.844 163.213 164.449 163.128C164.065 163.043 163.713 162.92 163.393 162.76C163.073 162.589 162.812 162.36 162.609 162.072C162.417 161.784 162.321 161.4 162.321 160.92C162.321 160.461 162.449 160.051 162.705 159.688C162.961 159.325 163.335 159.043 163.825 158.84C164.327 158.627 164.935 158.52 165.649 158.52C166.193 158.52 166.737 158.595 167.281 158.744C167.825 158.883 168.273 159.069 168.625 159.304L168.129 160.216C167.756 159.96 167.356 159.779 166.929 159.672C166.503 159.555 166.076 159.496 165.649 159.496C164.892 159.496 164.332 159.629 163.969 159.896C163.617 160.152 163.441 160.483 163.441 160.888C163.441 161.208 163.537 161.459 163.729 161.64C163.932 161.821 164.193 161.965 164.513 162.072C164.844 162.168 165.201 162.248 165.585 162.312C165.98 162.376 166.369 162.456 166.753 162.552C167.148 162.637 167.505 162.76 167.825 162.92C168.156 163.069 168.417 163.288 168.609 163.576C168.812 163.853 168.913 164.221 168.913 164.68C168.913 165.171 168.775 165.597 168.497 165.96C168.231 166.312 167.836 166.589 167.313 166.792C166.801 166.984 166.177 167.08 165.441 167.08Z" fill="#1A1A1A"/>
<path d="M79.9426 204.288C78.5346 204.288 77.3026 204.08 76.2466 203.664C75.1906 203.232 74.3666 202.632 73.7746 201.864C73.1826 201.08 72.8866 200.168 72.8866 199.128C72.8866 198.088 73.1746 197.208 73.7506 196.488C74.3426 195.752 75.1666 195.2 76.2226 194.832C77.2786 194.448 78.5186 194.256 79.9426 194.256C81.3826 194.256 82.6306 194.448 83.6866 194.832C84.7586 195.2 85.5826 195.752 86.1586 196.488C86.7506 197.208 87.0466 198.088 87.0466 199.128C87.0466 200.168 86.7506 201.08 86.1586 201.864C85.5666 202.632 84.7346 203.232 83.6626 203.664C82.6066 204.08 81.3666 204.288 79.9426 204.288ZM79.9426 201.432C80.9186 201.432 81.6866 201.216 82.2466 200.784C82.8226 200.352 83.1106 199.76 83.1106 199.008C83.1106 198.256 82.8226 197.672 82.2466 197.256C81.6866 196.824 80.9186 196.608 79.9426 196.608C78.9826 196.608 78.2226 196.824 77.6626 197.256C77.1026 197.672 76.8226 198.256 76.8226 199.008C76.8226 199.76 77.1026 200.352 77.6626 200.784C78.2226 201.216 78.9826 201.432 79.9426 201.432ZM79.9426 196.224C78.6466 196.224 77.5106 196.048 76.5346 195.696C75.5746 195.344 74.8226 194.832 74.2786 194.16C73.7506 193.472 73.4866 192.656 73.4866 191.712C73.4866 190.72 73.7586 189.872 74.3026 189.168C74.8466 188.448 75.6066 187.896 76.5826 187.512C77.5586 187.112 78.6786 186.912 79.9426 186.912C81.2386 186.912 82.3666 187.112 83.3266 187.512C84.3026 187.896 85.0626 188.448 85.6066 189.168C86.1666 189.872 86.4466 190.72 86.4466 191.712C86.4466 192.656 86.1746 193.472 85.6306 194.16C85.1026 194.832 84.3506 195.344 83.3746 195.696C82.3986 196.048 81.2546 196.224 79.9426 196.224ZM79.9426 193.944C80.7586 193.944 81.3986 193.76 81.8626 193.392C82.3426 193.024 82.5826 192.52 82.5826 191.88C82.5826 191.208 82.3346 190.688 81.8386 190.32C81.3586 189.952 80.7266 189.768 79.9426 189.768C79.1746 189.768 78.5506 189.952 78.0706 190.32C77.5906 190.688 77.3506 191.208 77.3506 191.88C77.3506 192.52 77.5826 193.024 78.0466 193.392C78.5106 193.76 79.1426 193.944 79.9426 193.944ZM96.0264 204.288C94.6504 204.288 93.4184 203.952 92.3304 203.28C91.2424 202.592 90.3864 201.6 89.7624 200.304C89.1384 199.008 88.8264 197.44 88.8264 195.6C88.8264 193.76 89.1384 192.192 89.7624 190.896C90.3864 189.6 91.2424 188.616 92.3304 187.944C93.4184 187.256 94.6504 186.912 96.0264 186.912C97.4184 186.912 98.6504 187.256 99.7224 187.944C100.81 188.616 101.666 189.6 102.29 190.896C102.914 192.192 103.226 193.76 103.226 195.6C103.226 197.44 102.914 199.008 102.29 200.304C101.666 201.6 100.81 202.592 99.7224 203.28C98.6504 203.952 97.4184 204.288 96.0264 204.288ZM96.0264 201C96.6824 201 97.2504 200.816 97.7304 200.448C98.2264 200.08 98.6104 199.496 98.8824 198.696C99.1704 197.896 99.3144 196.864 99.3144 195.6C99.3144 194.336 99.1704 193.304 98.8824 192.504C98.6104 191.704 98.2264 191.12 97.7304 190.752C97.2504 190.384 96.6824 190.2 96.0264 190.2C95.3864 190.2 94.8184 190.384 94.3224 190.752C93.8424 191.12 93.4584 191.704 93.1704 192.504C92.8984 193.304 92.7624 194.336 92.7624 195.6C92.7624 196.864 92.8984 197.896 93.1704 198.696C93.4584 199.496 93.8424 200.08 94.3224 200.448C94.8184 200.816 95.3864 201 96.0264 201ZM112.315 204.288C110.939 204.288 109.707 203.952 108.619 203.28C107.531 202.592 106.675 201.6 106.051 200.304C105.427 199.008 105.115 197.44 105.115 195.6C105.115 193.76 105.427 192.192 106.051 190.896C106.675 189.6 107.531 188.616 108.619 187.944C109.707 187.256 110.939 186.912 112.315 186.912C113.707 186.912 114.939 187.256 116.011 187.944C117.099 188.616 117.955 189.6 118.579 190.896C119.203 192.192 119.515 193.76 119.515 195.6C119.515 197.44 119.203 199.008 118.579 200.304C117.955 201.6 117.099 202.592 116.011 203.28C114.939 203.952 113.707 204.288 112.315 204.288ZM112.315 201C112.971 201 113.539 200.816 114.019 200.448C114.515 200.08 114.899 199.496 115.171 198.696C115.459 197.896 115.603 196.864 115.603 195.6C115.603 194.336 115.459 193.304 115.171 192.504C114.899 191.704 114.515 191.12 114.019 190.752C113.539 190.384 112.971 190.2 112.315 190.2C111.675 190.2 111.107 190.384 110.611 190.752C110.131 191.12 109.747 191.704 109.459 192.504C109.187 193.304 109.051 194.336 109.051 195.6C109.051 196.864 109.187 197.896 109.459 198.696C109.747 199.496 110.131 200.08 110.611 200.448C111.107 200.816 111.675 201 112.315 201ZM129.257 204V187.2H136.529C138.033 187.2 139.329 187.448 140.417 187.944C141.505 188.424 142.345 189.12 142.937 190.032C143.529 190.944 143.825 192.032 143.825 193.296C143.825 194.544 143.529 195.624 142.937 196.536C142.345 197.432 141.505 198.12 140.417 198.6C139.329 199.08 138.033 199.32 136.529 199.32H131.417L133.145 197.616V204H129.257ZM139.937 204L135.737 197.904H139.889L144.137 204H139.937ZM133.145 198.048L131.417 196.224H136.313C137.513 196.224 138.409 195.968 139.001 195.456C139.593 194.928 139.889 194.208 139.889 193.296C139.889 192.368 139.593 191.648 139.001 191.136C138.409 190.624 137.513 190.368 136.313 190.368H131.417L133.145 188.52V198.048ZM152.426 204.288C151.082 204.288 149.794 204.112 148.562 203.76C147.33 203.392 146.338 202.92 145.586 202.344L146.906 199.416C147.626 199.928 148.474 200.352 149.45 200.688C150.442 201.008 151.442 201.168 152.45 201.168C153.218 201.168 153.834 201.096 154.298 200.952C154.778 200.792 155.13 200.576 155.354 200.304C155.578 200.032 155.69 199.72 155.69 199.368C155.69 198.92 155.514 198.568 155.162 198.312C154.81 198.04 154.346 197.824 153.77 197.664C153.194 197.488 152.554 197.328 151.85 197.184C151.162 197.024 150.466 196.832 149.762 196.608C149.074 196.384 148.442 196.096 147.866 195.744C147.29 195.392 146.818 194.928 146.45 194.352C146.098 193.776 145.922 193.04 145.922 192.144C145.922 191.184 146.178 190.312 146.69 189.528C147.218 188.728 148.002 188.096 149.042 187.632C150.098 187.152 151.418 186.912 153.002 186.912C154.058 186.912 155.098 187.04 156.122 187.296C157.146 187.536 158.05 187.904 158.834 188.4L157.634 191.352C156.85 190.904 156.066 190.576 155.282 190.368C154.498 190.144 153.73 190.032 152.978 190.032C152.226 190.032 151.61 190.12 151.13 190.296C150.65 190.472 150.306 190.704 150.098 190.992C149.89 191.264 149.786 191.584 149.786 191.952C149.786 192.384 149.962 192.736 150.314 193.008C150.666 193.264 151.13 193.472 151.706 193.632C152.282 193.792 152.914 193.952 153.602 194.112C154.306 194.272 155.002 194.456 155.69 194.664C156.394 194.872 157.034 195.152 157.61 195.504C158.186 195.856 158.65 196.32 159.002 196.896C159.37 197.472 159.554 198.2 159.554 199.08C159.554 200.024 159.29 200.888 158.762 201.672C158.234 202.456 157.442 203.088 156.386 203.568C155.346 204.048 154.026 204.288 152.426 204.288ZM162.211 204V187.2H169.843C171.667 187.2 173.275 187.552 174.667 188.256C176.059 188.944 177.147 189.912 177.931 191.16C178.715 192.408 179.107 193.888 179.107 195.6C179.107 197.296 178.715 198.776 177.931 200.04C177.147 201.288 176.059 202.264 174.667 202.968C173.275 203.656 171.667 204 169.843 204H162.211ZM166.099 200.808H169.651C170.771 200.808 171.739 200.6 172.555 200.184C173.387 199.752 174.027 199.144 174.475 198.36C174.939 197.576 175.171 196.656 175.171 195.6C175.171 194.528 174.939 193.608 174.475 192.84C174.027 192.056 173.387 191.456 172.555 191.04C171.739 190.608 170.771 190.392 169.651 190.392H166.099V200.808ZM190.151 189.504L186.959 191.256V190.632L190.151 192.36L188.975 194.328L185.999 192.552L186.335 192.336L186.383 195.672H184.127L184.151 192.336L184.487 192.552L181.511 194.328L180.359 192.36L183.551 190.632V191.256L180.359 189.504L181.511 187.536L184.487 189.336L184.151 189.528L184.127 186.192H186.383L186.335 189.528L185.999 189.336L188.975 187.536L190.151 189.504Z" fill="#1A1A1A"/>
<path d="M89.7498 73H1.24976V225H249.25V73H169.5" stroke="#1A1A1A"/>
<path d="M148.087 33.0625C148.087 33.0625 148.087 33.0456 148.087 33.0288C148.087 33.0288 148.087 33.0456 148.087 33.0625ZM139.962 56.4163C137.148 56.7194 140.029 62.8483 142.106 62.7304C143.061 62.8651 143.999 62.1579 144.133 61.1813C144.368 58.9924 141.972 56.7699 139.979 56.4163H139.962ZM151.505 48.3848C150.902 49.3613 151.488 50.5568 151.806 51.5334C152.259 52.5773 152.811 53.7223 153.8 54.3453C155.09 55.1871 156.933 53.9412 156.648 52.4258C156.614 50.9946 152.795 46.8188 151.488 48.3679L151.505 48.3848ZM171.306 78.8441C169.966 77.0425 168.475 75.3755 167.085 73.6075C165.761 71.8901 164.321 70.2737 162.913 68.6236C162.327 68.068 161.355 66.7715 160.317 65.9296C161.791 64.6668 163.131 63.2356 164.287 61.6696C166.565 58.1001 168.241 53.7223 168.023 49.4118C167.437 46.1285 165.611 43.1988 163.768 40.4879C161.808 37.8444 159.244 35.7565 156.983 33.3992C153.984 30.6378 151.052 27.7754 147.853 25.2498C146.965 24.4752 145.641 23.2293 144.703 24.6436C143.882 26.782 144.871 29.1729 145.172 31.345C145.658 34.0053 146.06 36.6657 146.613 39.3092C143.547 41.0098 140.582 42.8788 137.717 44.9162C135.941 46.1454 133.881 47.2566 132.457 48.9572C128.721 47.3913 124.65 47.004 120.696 46.3137C115.704 45.4887 119.356 51.988 120.412 54.059C123.678 59.4303 126.828 65.1551 131.988 68.9099C135.288 71.6713 139.66 72.4458 143.849 72.5805C148.874 72.3279 153.867 70.5768 158.055 67.6807C158.323 67.9838 158.641 68.2532 158.909 68.4721C159.63 69.1456 160.283 69.8696 160.953 70.5768C163.868 73.8938 166.867 77.1603 169.564 80.6625C169.882 81.4034 171.323 82.9188 170.285 83.525C167.252 85.3097 163.6 83.3734 160.35 83.3229C158.306 83.205 157.971 84.7709 158.625 86.3873C159.244 88.492 159.915 90.5799 160.35 92.7183C161.607 98.662 160.049 99.0829 156.011 94.9577C154.302 92.9035 152.778 90.7146 151.136 88.6099C150.449 87.4818 149.243 86.6736 147.987 87.4986C144.066 89.435 140.163 91.405 136.059 92.8867C131.971 94.2169 127.632 95.0588 123.276 95.3113C121.819 95.1935 121.35 96.3721 121.082 97.5844C120.143 100.784 119.473 104.084 118.384 107.232C115.804 114.237 114.984 112.705 112.588 106.795C111.834 104.454 111.449 101.996 111.181 99.5544C111.08 98.864 111.097 98.0727 110.645 97.5002C110.226 96.9446 109.489 96.692 108.835 96.9782C107.914 97.3992 107.629 98.4936 107.143 99.3018C105.569 102.063 104.563 105.178 102.486 107.62C101.916 102.08 103.324 96.4563 104.647 91.0851C104.932 89.9906 105.368 88.8456 105.15 87.7007C104.228 85.175 102.034 83.306 100.459 81.1845C98.2979 78.4905 96.5723 75.4765 95.031 72.3952C93.9421 70.1558 92.6019 67.5628 92.0658 64.9698C90.9099 58.8241 97.3262 64.8856 98.7837 66.7209C101.129 69.3981 109.623 81.5549 113.409 80.1911C116.14 78.6757 118.636 76.7394 121.484 75.4092C124.365 73.8433 127.699 72.6141 130.765 71.2839C132.004 68.8256 125.337 71.0146 124.332 71.4187C120.227 72.9172 116.458 75.1398 112.655 77.2781C107.763 73.7759 104.597 68.4889 100.61 64.0774C97.8288 60.6089 89.821 56.1132 89.2514 63.5555C89.2011 66.2326 90.3403 68.7415 91.3287 71.1661C93.1715 75.4597 95.1148 79.7533 97.9628 83.4744C99.2527 85.2087 100.71 86.8083 102 88.5425C100.576 94.7388 98.8172 101.07 99.2192 107.485C99.437 110.65 102.402 112.284 104.714 109.758C106.423 107.839 107.361 105.397 108.517 103.124C109.17 107.081 110.46 112.368 114.012 114.658C120.596 117.453 122.573 102.333 123.779 98.14C128.654 98.039 133.629 97.2476 138.186 95.4629C141.922 93.9306 145.407 92.0111 148.942 89.9232C151.438 93.2571 153.515 97.1803 157.083 99.4702C158.608 100.464 160.836 100.901 162.226 99.4702C164.991 96.5068 162.059 89.4013 161.087 85.9159C164.321 86.4715 168.174 87.9196 171.273 86.1011C172.328 85.495 173.25 84.5015 173.25 83.205C173.233 81.5718 172.211 80.1574 171.306 78.8777V78.8441ZM150.432 67.8996C148.573 68.5058 146.412 69.1287 144.368 69.314C141.52 69.3813 138.538 69.2129 135.925 67.9501C132.792 66.1653 130.212 63.4376 128.202 60.4742C125.873 56.7531 122.958 52.9814 121.149 48.9235C124.885 49.2434 128.62 49.7317 132.373 50.5568C133.83 52.3247 135.154 49.6981 136.494 49.0245C139.191 47.2229 142.073 45.1519 144.871 43.4345C146.026 42.6599 147.233 41.9359 148.439 41.2456C148.891 40.9593 149.277 40.5552 149.344 39.9996C149.193 37.676 148.472 35.3692 148.104 33.0793C147.769 31.1261 147.099 29.2571 146.78 27.304C151.304 31.0251 155.458 35.2008 159.378 39.5786C161.037 41.3803 162.528 43.7376 163.6 46.0106C164.237 47.3408 164.94 48.7383 164.94 50.2706C164.036 58.7062 158.474 65.3739 150.449 67.9164L150.432 67.8996Z" fill="#8FA5BC"/>
</svg>
