<svg width="230" height="226" viewBox="0 0 230 226" fill="none" xmlns="http://www.w3.org/2000/svg">
<path d="M25.6945 131.542V120.342H26.6705L34.3985 130.07H33.8865V120.342H35.0545V131.542H34.0785L26.3665 121.814H26.8785V131.542H25.6945ZM43.7341 131.542V129.686L43.6861 129.382V126.278C43.6861 125.563 43.4834 125.014 43.0781 124.63C42.6834 124.246 42.0914 124.054 41.3021 124.054C40.7581 124.054 40.2408 124.145 39.7501 124.326C39.2594 124.507 38.8434 124.747 38.5021 125.046L37.9901 124.198C38.4168 123.835 38.9288 123.558 39.5261 123.366C40.1234 123.163 40.7528 123.062 41.4141 123.062C42.5021 123.062 43.3394 123.334 43.9261 123.878C44.5234 124.411 44.8221 125.227 44.8221 126.326V131.542H43.7341ZM40.8381 131.622C40.2088 131.622 39.6594 131.521 39.1901 131.318C38.7314 131.105 38.3794 130.817 38.1341 130.454C37.8888 130.081 37.7661 129.654 37.7661 129.174C37.7661 128.737 37.8674 128.342 38.0701 127.99C38.2834 127.627 38.6248 127.339 39.0941 127.126C39.5741 126.902 40.2141 126.79 41.0141 126.79H43.9101V127.638H41.0461C40.2354 127.638 39.6701 127.782 39.3501 128.07C39.0408 128.358 38.8861 128.715 38.8861 129.142C38.8861 129.622 39.0728 130.006 39.4461 130.294C39.8194 130.582 40.3421 130.726 41.0141 130.726C41.6541 130.726 42.2034 130.582 42.6621 130.294C43.1314 129.995 43.4728 129.569 43.6861 129.014L43.9421 129.798C43.7288 130.353 43.3554 130.795 42.8221 131.126C42.2994 131.457 41.6381 131.622 40.8381 131.622ZM54.3511 131.622C53.6578 131.622 53.0018 131.526 52.3831 131.334C51.7644 131.131 51.2791 130.881 50.9271 130.582L51.4391 129.686C51.7804 129.942 52.2178 130.166 52.7511 130.358C53.2844 130.539 53.8444 130.63 54.4311 130.63C55.2311 130.63 55.8071 130.507 56.1591 130.262C56.5111 130.006 56.6871 129.67 56.6871 129.254C56.6871 128.945 56.5858 128.705 56.3831 128.534C56.1911 128.353 55.9351 128.219 55.6151 128.134C55.2951 128.038 54.9378 127.958 54.5431 127.894C54.1484 127.83 53.7538 127.755 53.3591 127.67C52.9751 127.585 52.6231 127.462 52.3031 127.302C51.9831 127.131 51.7218 126.902 51.5191 126.614C51.3271 126.326 51.2311 125.942 51.2311 125.462C51.2311 125.003 51.3591 124.593 51.6151 124.23C51.8711 123.867 52.2444 123.585 52.7351 123.382C53.2364 123.169 53.8444 123.062 54.5591 123.062C55.1031 123.062 55.6471 123.137 56.1911 123.286C56.7351 123.425 57.1831 123.611 57.5351 123.846L57.0391 124.758C56.6658 124.502 56.2658 124.321 55.8391 124.214C55.4124 124.097 54.9858 124.038 54.5591 124.038C53.8018 124.038 53.2418 124.171 52.8791 124.438C52.5271 124.694 52.3511 125.025 52.3511 125.43C52.3511 125.75 52.4471 126.001 52.6391 126.182C52.8418 126.363 53.1031 126.507 53.4231 126.614C53.7538 126.71 54.1111 126.79 54.4951 126.854C54.8898 126.918 55.2791 126.998 55.6631 127.094C56.0578 127.179 56.4151 127.302 56.7351 127.462C57.0658 127.611 57.3271 127.83 57.5191 128.118C57.7218 128.395 57.8231 128.763 57.8231 129.222C57.8231 129.713 57.6844 130.139 57.4071 130.502C57.1404 130.854 56.7458 131.131 56.2231 131.334C55.7111 131.526 55.0871 131.622 54.3511 131.622ZM61.9114 131.542L58.1834 123.142H59.3674L62.7914 130.934H62.2314L65.7034 123.142H66.8234L63.0794 131.542H61.9114ZM73.4372 131.542V129.686L73.3892 129.382V126.278C73.3892 125.563 73.1866 125.014 72.7812 124.63C72.3866 124.246 71.7946 124.054 71.0052 124.054C70.4612 124.054 69.9439 124.145 69.4532 124.326C68.9626 124.507 68.5466 124.747 68.2052 125.046L67.6932 124.198C68.1199 123.835 68.6319 123.558 69.2292 123.366C69.8266 123.163 70.4559 123.062 71.1172 123.062C72.2052 123.062 73.0426 123.334 73.6292 123.878C74.2266 124.411 74.5252 125.227 74.5252 126.326V131.542H73.4372ZM70.5412 131.622C69.9119 131.622 69.3626 131.521 68.8932 131.318C68.4346 131.105 68.0826 130.817 67.8372 130.454C67.5919 130.081 67.4692 129.654 67.4692 129.174C67.4692 128.737 67.5706 128.342 67.7732 127.99C67.9866 127.627 68.3279 127.339 68.7972 127.126C69.2772 126.902 69.9172 126.79 70.7172 126.79H73.6132V127.638H70.7492C69.9386 127.638 69.3732 127.782 69.0532 128.07C68.7439 128.358 68.5892 128.715 68.5892 129.142C68.5892 129.622 68.7759 130.006 69.1492 130.294C69.5226 130.582 70.0452 130.726 70.7172 130.726C71.3572 130.726 71.9066 130.582 72.3652 130.294C72.8346 129.995 73.1759 129.569 73.3892 129.014L73.6452 129.798C73.4319 130.353 73.0586 130.795 72.5252 131.126C72.0026 131.457 71.3412 131.622 70.5412 131.622ZM78.5067 129.366L78.5387 127.91L83.7707 123.142H85.1627L81.4667 126.678L80.8267 127.222L78.5067 129.366ZM77.6107 131.542V119.67H78.7467V131.542H77.6107ZM84.1227 131.542L80.6187 127.174L81.3547 126.294L85.5147 131.542H84.1227ZM87.2201 131.542V123.142H88.3561V131.542H87.2201ZM87.7961 121.286C87.5614 121.286 87.3641 121.206 87.2041 121.046C87.0441 120.886 86.9641 120.694 86.9641 120.47C86.9641 120.246 87.0441 120.059 87.2041 119.91C87.3641 119.75 87.5614 119.67 87.7961 119.67C88.0308 119.67 88.2281 119.745 88.3881 119.894C88.5481 120.043 88.6281 120.23 88.6281 120.454C88.6281 120.689 88.5481 120.886 88.3881 121.046C88.2388 121.206 88.0414 121.286 87.7961 121.286ZM100.04 131.622C99.3152 131.622 98.6592 131.457 98.0725 131.126C97.4858 130.785 97.0165 130.299 96.6645 129.67C96.3232 129.03 96.1525 128.251 96.1525 127.334C96.1525 126.417 96.3232 125.643 96.6645 125.014C97.0058 124.374 97.4698 123.889 98.0565 123.558C98.6432 123.227 99.3045 123.062 100.04 123.062C100.84 123.062 101.555 123.243 102.184 123.606C102.824 123.958 103.326 124.459 103.688 125.11C104.051 125.75 104.232 126.491 104.232 127.334C104.232 128.187 104.051 128.934 103.688 129.574C103.326 130.214 102.824 130.715 102.184 131.078C101.555 131.441 100.84 131.622 100.04 131.622ZM95.7045 134.646V123.142H96.7925V125.67L96.6805 127.35L96.8405 129.046V134.646H95.7045ZM99.9605 130.614C100.558 130.614 101.091 130.481 101.56 130.214C102.03 129.937 102.403 129.553 102.68 129.062C102.958 128.561 103.096 127.985 103.096 127.334C103.096 126.683 102.958 126.113 102.68 125.622C102.403 125.131 102.03 124.747 101.56 124.47C101.091 124.193 100.558 124.054 99.9605 124.054C99.3632 124.054 98.8245 124.193 98.3445 124.47C97.8752 124.747 97.5018 125.131 97.2245 125.622C96.9578 126.113 96.8245 126.683 96.8245 127.334C96.8245 127.985 96.9578 128.561 97.2245 129.062C97.5018 129.553 97.8752 129.937 98.3445 130.214C98.8245 130.481 99.3632 130.614 99.9605 130.614ZM109.972 131.622C109.162 131.622 108.431 131.441 107.78 131.078C107.14 130.705 106.634 130.198 106.26 129.558C105.887 128.907 105.7 128.166 105.7 127.334C105.7 126.491 105.887 125.75 106.26 125.11C106.634 124.47 107.14 123.969 107.78 123.606C108.42 123.243 109.151 123.062 109.972 123.062C110.804 123.062 111.54 123.243 112.18 123.606C112.831 123.969 113.338 124.47 113.7 125.11C114.074 125.75 114.26 126.491 114.26 127.334C114.26 128.166 114.074 128.907 113.7 129.558C113.338 130.198 112.831 130.705 112.18 131.078C111.53 131.441 110.794 131.622 109.972 131.622ZM109.972 130.614C110.58 130.614 111.119 130.481 111.588 130.214C112.058 129.937 112.426 129.553 112.692 129.062C112.97 128.561 113.108 127.985 113.108 127.334C113.108 126.673 112.97 126.097 112.692 125.606C112.426 125.115 112.058 124.737 111.588 124.47C111.119 124.193 110.586 124.054 109.988 124.054C109.391 124.054 108.858 124.193 108.388 124.47C107.919 124.737 107.546 125.115 107.268 125.606C106.991 126.097 106.852 126.673 106.852 127.334C106.852 127.985 106.991 128.561 107.268 129.062C107.546 129.553 107.919 129.937 108.388 130.214C108.858 130.481 109.386 130.614 109.972 130.614ZM120.067 131.622C119.235 131.622 118.489 131.441 117.827 131.078C117.177 130.705 116.665 130.198 116.291 129.558C115.918 128.907 115.731 128.166 115.731 127.334C115.731 126.491 115.918 125.75 116.291 125.11C116.665 124.47 117.177 123.969 117.827 123.606C118.489 123.243 119.235 123.062 120.067 123.062C120.782 123.062 121.427 123.201 122.003 123.478C122.579 123.755 123.033 124.171 123.363 124.726L122.515 125.302C122.227 124.875 121.87 124.561 121.443 124.358C121.017 124.155 120.553 124.054 120.051 124.054C119.454 124.054 118.915 124.193 118.435 124.47C117.955 124.737 117.577 125.115 117.299 125.606C117.022 126.097 116.883 126.673 116.883 127.334C116.883 127.995 117.022 128.571 117.299 129.062C117.577 129.553 117.955 129.937 118.435 130.214C118.915 130.481 119.454 130.614 120.051 130.614C120.553 130.614 121.017 130.513 121.443 130.31C121.87 130.107 122.227 129.798 122.515 129.382L123.363 129.958C123.033 130.502 122.579 130.918 122.003 131.206C121.427 131.483 120.782 131.622 120.067 131.622ZM119.203 121.83L117.139 119.846H118.195L120.227 121.526H119.331L121.363 119.846H122.419L120.355 121.83H119.203ZM129.022 131.622C128.148 131.622 127.38 131.441 126.718 131.078C126.057 130.705 125.54 130.198 125.166 129.558C124.793 128.907 124.606 128.166 124.606 127.334C124.606 126.502 124.782 125.766 125.134 125.126C125.497 124.486 125.988 123.985 126.606 123.622C127.236 123.249 127.94 123.062 128.718 123.062C129.508 123.062 130.206 123.243 130.814 123.606C131.433 123.958 131.918 124.459 132.27 125.11C132.622 125.75 132.798 126.491 132.798 127.334C132.798 127.387 132.793 127.446 132.782 127.51C132.782 127.563 132.782 127.622 132.782 127.686H125.47V126.838H132.174L131.726 127.174C131.726 126.566 131.593 126.027 131.326 125.558C131.07 125.078 130.718 124.705 130.27 124.438C129.822 124.171 129.305 124.038 128.718 124.038C128.142 124.038 127.625 124.171 127.166 124.438C126.708 124.705 126.35 125.078 126.094 125.558C125.838 126.038 125.71 126.587 125.71 127.206V127.382C125.71 128.022 125.849 128.587 126.126 129.078C126.414 129.558 126.809 129.937 127.31 130.214C127.822 130.481 128.404 130.614 129.054 130.614C129.566 130.614 130.041 130.523 130.478 130.342C130.926 130.161 131.31 129.883 131.63 129.51L132.27 130.246C131.897 130.694 131.428 131.035 130.862 131.27C130.308 131.505 129.694 131.622 129.022 131.622ZM137.767 131.622C136.977 131.622 136.369 131.409 135.943 130.982C135.516 130.555 135.303 129.953 135.303 129.174V121.286H136.439V129.11C136.439 129.601 136.561 129.979 136.807 130.246C137.063 130.513 137.425 130.646 137.895 130.646C138.396 130.646 138.812 130.502 139.143 130.214L139.543 131.03C139.319 131.233 139.047 131.382 138.727 131.478C138.417 131.574 138.097 131.622 137.767 131.622ZM133.799 124.086V123.142H138.999V124.086H133.799ZM145.899 123.062C146.581 123.062 147.179 123.195 147.691 123.462C148.213 123.718 148.619 124.113 148.907 124.646C149.205 125.179 149.355 125.851 149.355 126.662V131.542H148.219V126.774C148.219 125.889 147.995 125.222 147.547 124.774C147.109 124.315 146.491 124.086 145.691 124.086C145.093 124.086 144.571 124.209 144.123 124.454C143.685 124.689 143.344 125.035 143.099 125.494C142.864 125.942 142.747 126.486 142.747 127.126V131.542H141.611V123.142H142.699V125.446L142.523 125.014C142.789 124.406 143.216 123.931 143.803 123.59C144.389 123.238 145.088 123.062 145.899 123.062ZM152.423 131.542V123.142H153.559V131.542H152.423ZM152.999 121.286C152.765 121.286 152.567 121.206 152.407 121.046C152.247 120.886 152.167 120.694 152.167 120.47C152.167 120.246 152.247 120.059 152.407 119.91C152.567 119.75 152.765 119.67 152.999 119.67C153.234 119.67 153.431 119.745 153.591 119.894C153.751 120.043 153.831 120.23 153.831 120.454C153.831 120.689 153.751 120.886 153.591 121.046C153.442 121.206 153.245 121.286 152.999 121.286ZM163.164 131.622C162.47 131.622 161.814 131.526 161.196 131.334C160.577 131.131 160.092 130.881 159.74 130.582L160.252 129.686C160.593 129.942 161.03 130.166 161.564 130.358C162.097 130.539 162.657 130.63 163.244 130.63C164.044 130.63 164.62 130.507 164.972 130.262C165.324 130.006 165.5 129.67 165.5 129.254C165.5 128.945 165.398 128.705 165.196 128.534C165.004 128.353 164.748 128.219 164.428 128.134C164.108 128.038 163.75 127.958 163.356 127.894C162.961 127.83 162.566 127.755 162.172 127.67C161.788 127.585 161.436 127.462 161.116 127.302C160.796 127.131 160.534 126.902 160.332 126.614C160.14 126.326 160.044 125.942 160.044 125.462C160.044 125.003 160.172 124.593 160.428 124.23C160.684 123.867 161.057 123.585 161.548 123.382C162.049 123.169 162.657 123.062 163.372 123.062C163.916 123.062 164.46 123.137 165.004 123.286C165.548 123.425 165.996 123.611 166.348 123.846L165.852 124.758C165.478 124.502 165.078 124.321 164.652 124.214C164.225 124.097 163.798 124.038 163.372 124.038C162.614 124.038 162.054 124.171 161.692 124.438C161.34 124.694 161.164 125.025 161.164 125.43C161.164 125.75 161.26 126.001 161.452 126.182C161.654 126.363 161.916 126.507 162.236 126.614C162.566 126.71 162.924 126.79 163.308 126.854C163.702 126.918 164.092 126.998 164.476 127.094C164.87 127.179 165.228 127.302 165.548 127.462C165.878 127.611 166.14 127.83 166.332 128.118C166.534 128.395 166.636 128.763 166.636 129.222C166.636 129.713 166.497 130.139 166.22 130.502C165.953 130.854 165.558 131.131 165.036 131.334C164.524 131.526 163.9 131.622 163.164 131.622ZM173.984 131.542V129.686L173.936 129.382V126.278C173.936 125.563 173.733 125.014 173.328 124.63C172.933 124.246 172.341 124.054 171.552 124.054C171.008 124.054 170.491 124.145 170 124.326C169.509 124.507 169.093 124.747 168.752 125.046L168.24 124.198C168.667 123.835 169.179 123.558 169.776 123.366C170.373 123.163 171.003 123.062 171.664 123.062C172.752 123.062 173.589 123.334 174.176 123.878C174.773 124.411 175.072 125.227 175.072 126.326V131.542H173.984ZM171.088 131.622C170.459 131.622 169.909 131.521 169.44 131.318C168.981 131.105 168.629 130.817 168.384 130.454C168.139 130.081 168.016 129.654 168.016 129.174C168.016 128.737 168.117 128.342 168.32 127.99C168.533 127.627 168.875 127.339 169.344 127.126C169.824 126.902 170.464 126.79 171.264 126.79H174.16V127.638H171.296C170.485 127.638 169.92 127.782 169.6 128.07C169.291 128.358 169.136 128.715 169.136 129.142C169.136 129.622 169.323 130.006 169.696 130.294C170.069 130.582 170.592 130.726 171.264 130.726C171.904 130.726 172.453 130.582 172.912 130.294C173.381 129.995 173.723 129.569 173.936 129.014L174.192 129.798C173.979 130.353 173.605 130.795 173.072 131.126C172.549 131.457 171.888 131.622 171.088 131.622ZM180.814 131.622C180.024 131.622 179.416 131.409 178.99 130.982C178.563 130.555 178.35 129.953 178.35 129.174V121.286H179.486V129.11C179.486 129.601 179.608 129.979 179.854 130.246C180.11 130.513 180.472 130.646 180.942 130.646C181.443 130.646 181.859 130.502 182.19 130.214L182.59 131.03C182.366 131.233 182.094 131.382 181.774 131.478C181.464 131.574 181.144 131.622 180.814 131.622ZM176.846 124.086V123.142H182.046V124.086H176.846ZM190.781 134.646C190.194 133.675 189.736 132.555 189.405 131.286C189.085 130.006 188.925 128.63 188.925 127.158C188.925 125.686 189.085 124.31 189.405 123.03C189.736 121.739 190.194 120.619 190.781 119.67H191.869C191.24 120.769 190.776 121.937 190.477 123.174C190.189 124.401 190.045 125.729 190.045 127.158C190.045 128.587 190.189 129.921 190.477 131.158C190.776 132.385 191.24 133.547 191.869 134.646H190.781ZM195.467 131.542V120.822L195.979 121.366H192.827V120.342H196.619V131.542H195.467ZM204.336 123.062C205.019 123.062 205.616 123.195 206.128 123.462C206.651 123.718 207.056 124.113 207.344 124.646C207.643 125.179 207.792 125.851 207.792 126.662V131.542H206.656V126.774C206.656 125.889 206.432 125.222 205.984 124.774C205.547 124.315 204.928 124.086 204.128 124.086C203.531 124.086 203.008 124.209 202.56 124.454C202.123 124.689 201.782 125.035 201.536 125.494C201.302 125.942 201.184 126.486 201.184 127.126V131.542H200.048V119.67H201.184V125.446L200.96 125.014C201.227 124.406 201.654 123.931 202.24 123.59C202.827 123.238 203.526 123.062 204.336 123.062ZM211.005 134.646H209.917C210.557 133.547 211.021 132.385 211.309 131.158C211.607 129.921 211.757 128.587 211.757 127.158C211.757 125.729 211.607 124.401 211.309 123.174C211.021 121.937 210.557 120.769 209.917 119.67H211.005C211.613 120.619 212.077 121.739 212.397 123.03C212.717 124.31 212.877 125.686 212.877 127.158C212.877 128.63 212.717 130.006 212.397 131.286C212.077 132.555 211.613 133.675 211.005 134.646ZM216.238 124.806C216.004 124.806 215.801 124.721 215.63 124.55C215.47 124.379 215.39 124.171 215.39 123.926C215.39 123.67 215.47 123.462 215.63 123.302C215.801 123.142 216.004 123.062 216.238 123.062C216.473 123.062 216.67 123.142 216.83 123.302C217.001 123.462 217.086 123.67 217.086 123.926C217.086 124.171 217.001 124.379 216.83 124.55C216.67 124.721 216.473 124.806 216.238 124.806ZM216.238 131.622C216.004 131.622 215.801 131.537 215.63 131.366C215.47 131.195 215.39 130.987 215.39 130.742C215.39 130.486 215.47 130.278 215.63 130.118C215.801 129.958 216.004 129.878 216.238 129.878C216.473 129.878 216.67 129.958 216.83 130.118C217.001 130.278 217.086 130.486 217.086 130.742C217.086 130.987 217.001 131.195 216.83 131.366C216.67 131.537 216.473 131.622 216.238 131.622ZM76.8405 155.542V154.726L84.6165 144.918L84.7445 145.366H76.9525V144.342H85.8325V145.158L78.0725 154.966L77.9285 154.518H86.0245V155.542H76.8405ZM93.3904 155.542V153.686L93.3424 153.382V150.278C93.3424 149.563 93.1397 149.014 92.7344 148.63C92.3397 148.246 91.7477 148.054 90.9584 148.054C90.4144 148.054 89.897 148.145 89.4064 148.326C88.9157 148.507 88.4997 148.747 88.1584 149.046L87.6464 148.198C88.073 147.835 88.585 147.558 89.1824 147.366C89.7797 147.163 90.409 147.062 91.0704 147.062C92.1584 147.062 92.9957 147.334 93.5824 147.878C94.1797 148.411 94.4784 149.227 94.4784 150.326V155.542H93.3904ZM90.4944 155.622C89.865 155.622 89.3157 155.521 88.8464 155.318C88.3877 155.105 88.0357 154.817 87.7904 154.454C87.545 154.081 87.4224 153.654 87.4224 153.174C87.4224 152.737 87.5237 152.342 87.7264 151.99C87.9397 151.627 88.281 151.339 88.7504 151.126C89.2304 150.902 89.8704 150.79 90.6704 150.79H93.5664V151.638H90.7024C89.8917 151.638 89.3264 151.782 89.0064 152.07C88.697 152.358 88.5424 152.715 88.5424 153.142C88.5424 153.622 88.729 154.006 89.1024 154.294C89.4757 154.582 89.9984 154.726 90.6704 154.726C91.3104 154.726 91.8597 154.582 92.3184 154.294C92.7877 153.995 93.129 153.569 93.3424 153.014L93.5984 153.798C93.385 154.353 93.0117 154.795 92.4784 155.126C91.9557 155.457 91.2944 155.622 90.4944 155.622ZM104.343 155.638C103.533 155.638 102.765 155.51 102.039 155.254C101.325 154.987 100.749 154.635 100.311 154.198L100.871 153.286C101.234 153.659 101.719 153.969 102.327 154.214C102.946 154.459 103.618 154.582 104.343 154.582C105.271 154.582 105.981 154.379 106.471 153.974C106.973 153.569 107.223 153.025 107.223 152.342C107.223 151.659 106.978 151.115 106.487 150.71C106.007 150.305 105.245 150.102 104.199 150.102H103.399V149.254L106.855 144.918L107.015 145.366H100.775V144.342H107.975V145.158L104.519 149.494L103.959 149.126H104.391C105.735 149.126 106.738 149.425 107.399 150.022C108.071 150.619 108.407 151.387 108.407 152.326C108.407 152.955 108.258 153.521 107.959 154.022C107.661 154.523 107.207 154.918 106.599 155.206C106.002 155.494 105.25 155.638 104.343 155.638ZM118.314 155.622C117.514 155.622 116.794 155.441 116.154 155.078C115.525 154.715 115.029 154.214 114.666 153.574C114.303 152.923 114.122 152.177 114.122 151.334C114.122 150.481 114.303 149.734 114.666 149.094C115.029 148.454 115.525 147.958 116.154 147.606C116.794 147.243 117.514 147.062 118.314 147.062C119.05 147.062 119.706 147.227 120.282 147.558C120.869 147.889 121.333 148.374 121.674 149.014C122.026 149.643 122.202 150.417 122.202 151.334C122.202 152.241 122.031 153.014 121.69 153.654C121.349 154.294 120.885 154.785 120.298 155.126C119.722 155.457 119.061 155.622 118.314 155.622ZM118.394 154.614C118.991 154.614 119.525 154.481 119.994 154.214C120.474 153.937 120.847 153.553 121.114 153.062C121.391 152.561 121.53 151.985 121.53 151.334C121.53 150.673 121.391 150.097 121.114 149.606C120.847 149.115 120.474 148.737 119.994 148.47C119.525 148.193 118.991 148.054 118.394 148.054C117.807 148.054 117.279 148.193 116.81 148.47C116.341 148.737 115.967 149.115 115.69 149.606C115.413 150.097 115.274 150.673 115.274 151.334C115.274 151.985 115.413 152.561 115.69 153.062C115.967 153.553 116.341 153.937 116.81 154.214C117.279 154.481 117.807 154.614 118.394 154.614ZM121.562 155.542V153.014L121.674 151.318L121.514 149.622V143.67H122.65V155.542H121.562ZM129.382 155.622C128.507 155.622 127.739 155.441 127.078 155.078C126.417 154.705 125.899 154.198 125.526 153.558C125.153 152.907 124.966 152.166 124.966 151.334C124.966 150.502 125.142 149.766 125.494 149.126C125.857 148.486 126.347 147.985 126.966 147.622C127.595 147.249 128.299 147.062 129.078 147.062C129.867 147.062 130.566 147.243 131.174 147.606C131.793 147.958 132.278 148.459 132.63 149.11C132.982 149.75 133.158 150.491 133.158 151.334C133.158 151.387 133.153 151.446 133.142 151.51C133.142 151.563 133.142 151.622 133.142 151.686H125.83V150.838H132.534L132.086 151.174C132.086 150.566 131.953 150.027 131.686 149.558C131.43 149.078 131.078 148.705 130.63 148.438C130.182 148.171 129.665 148.038 129.078 148.038C128.502 148.038 127.985 148.171 127.526 148.438C127.067 148.705 126.71 149.078 126.454 149.558C126.198 150.038 126.07 150.587 126.07 151.206V151.382C126.07 152.022 126.209 152.587 126.486 153.078C126.774 153.558 127.169 153.937 127.67 154.214C128.182 154.481 128.763 154.614 129.414 154.614C129.926 154.614 130.401 154.523 130.838 154.342C131.286 154.161 131.67 153.883 131.99 153.51L132.63 154.246C132.257 154.694 131.787 155.035 131.222 155.27C130.667 155.505 130.054 155.622 129.382 155.622ZM138.126 155.622C137.337 155.622 136.729 155.409 136.302 154.982C135.875 154.555 135.662 153.953 135.662 153.174V145.286H136.798V153.11C136.798 153.601 136.921 153.979 137.166 154.246C137.422 154.513 137.785 154.646 138.254 154.646C138.755 154.646 139.171 154.502 139.502 154.214L139.902 155.03C139.678 155.233 139.406 155.382 139.086 155.478C138.777 155.574 138.457 155.622 138.126 155.622ZM134.158 148.086V147.142H139.358V148.086H134.158ZM145.241 155.622C144.367 155.622 143.599 155.441 142.937 155.078C142.276 154.705 141.759 154.198 141.385 153.558C141.012 152.907 140.825 152.166 140.825 151.334C140.825 150.502 141.001 149.766 141.353 149.126C141.716 148.486 142.207 147.985 142.825 147.622C143.455 147.249 144.159 147.062 144.937 147.062C145.727 147.062 146.425 147.243 147.033 147.606C147.652 147.958 148.137 148.459 148.489 149.11C148.841 149.75 149.017 150.491 149.017 151.334C149.017 151.387 149.012 151.446 149.001 151.51C149.001 151.563 149.001 151.622 149.001 151.686H141.689V150.838H148.393L147.945 151.174C147.945 150.566 147.812 150.027 147.545 149.558C147.289 149.078 146.937 148.705 146.489 148.438C146.041 148.171 145.524 148.038 144.937 148.038C144.361 148.038 143.844 148.171 143.385 148.438C142.927 148.705 142.569 149.078 142.313 149.558C142.057 150.038 141.929 150.587 141.929 151.206V151.382C141.929 152.022 142.068 152.587 142.345 153.078C142.633 153.558 143.028 153.937 143.529 154.214C144.041 154.481 144.623 154.614 145.273 154.614C145.785 154.614 146.26 154.523 146.697 154.342C147.145 154.161 147.529 153.883 147.849 153.51L148.489 154.246C148.116 154.694 147.647 155.035 147.081 155.27C146.527 155.505 145.913 155.622 145.241 155.622ZM153.985 155.622C153.196 155.622 152.588 155.409 152.161 154.982C151.735 154.555 151.521 153.953 151.521 153.174V145.286H152.657V153.11C152.657 153.601 152.78 153.979 153.025 154.246C153.281 154.513 153.644 154.646 154.113 154.646C154.615 154.646 155.031 154.502 155.361 154.214L155.761 155.03C155.537 155.233 155.265 155.382 154.945 155.478C154.636 155.574 154.316 155.622 153.985 155.622ZM150.017 148.086V147.142H155.217V148.086H150.017ZM163.093 155.542V153.686L163.045 153.382V150.278C163.045 149.563 162.843 149.014 162.437 148.63C162.043 148.246 161.451 148.054 160.661 148.054C160.117 148.054 159.6 148.145 159.109 148.326C158.619 148.507 158.203 148.747 157.861 149.046L157.349 148.198C157.776 147.835 158.288 147.558 158.885 147.366C159.483 147.163 160.112 147.062 160.773 147.062C161.861 147.062 162.699 147.334 163.285 147.878C163.883 148.411 164.181 149.227 164.181 150.326V155.542H163.093ZM160.197 155.622C159.568 155.622 159.019 155.521 158.549 155.318C158.091 155.105 157.739 154.817 157.493 154.454C157.248 154.081 157.125 153.654 157.125 153.174C157.125 152.737 157.227 152.342 157.429 151.99C157.643 151.627 157.984 151.339 158.453 151.126C158.933 150.902 159.573 150.79 160.373 150.79H163.269V151.638H160.405C159.595 151.638 159.029 151.782 158.709 152.07C158.4 152.358 158.245 152.715 158.245 153.142C158.245 153.622 158.432 154.006 158.805 154.294C159.179 154.582 159.701 154.726 160.373 154.726C161.013 154.726 161.563 154.582 162.021 154.294C162.491 153.995 162.832 153.569 163.045 153.014L163.301 153.798C163.088 154.353 162.715 154.795 162.181 155.126C161.659 155.457 160.997 155.622 160.197 155.622Z" fill="#1A1A1A"/>
<path d="M60.3047 192.542V177.182L61.9847 178.862H56.9447V175.742H64.1927V192.542H60.3047ZM74.3112 192.83C72.9352 192.83 71.7032 192.494 70.6152 191.822C69.5272 191.134 68.6712 190.142 68.0472 188.846C67.4232 187.55 67.1112 185.982 67.1112 184.142C67.1112 182.302 67.4232 180.734 68.0472 179.438C68.6712 178.142 69.5272 177.158 70.6152 176.486C71.7032 175.798 72.9352 175.454 74.3112 175.454C75.7032 175.454 76.9352 175.798 78.0072 176.486C79.0952 177.158 79.9512 178.142 80.5752 179.438C81.1992 180.734 81.5112 182.302 81.5112 184.142C81.5112 185.982 81.1992 187.55 80.5752 188.846C79.9512 190.142 79.0952 191.134 78.0072 191.822C76.9352 192.494 75.7032 192.83 74.3112 192.83ZM74.3112 189.542C74.9672 189.542 75.5352 189.358 76.0152 188.99C76.5112 188.622 76.8952 188.038 77.1672 187.238C77.4552 186.438 77.5992 185.406 77.5992 184.142C77.5992 182.878 77.4552 181.846 77.1672 181.046C76.8952 180.246 76.5112 179.662 76.0152 179.294C75.5352 178.926 74.9672 178.742 74.3112 178.742C73.6712 178.742 73.1032 178.926 72.6072 179.294C72.1272 179.662 71.7432 180.246 71.4552 181.046C71.1832 181.846 71.0472 182.878 71.0472 184.142C71.0472 185.406 71.1832 186.438 71.4552 187.238C71.7432 188.038 72.1272 188.622 72.6072 188.99C73.1032 189.358 73.6712 189.542 74.3112 189.542ZM90.6002 192.83C89.2242 192.83 87.9922 192.494 86.9042 191.822C85.8162 191.134 84.9602 190.142 84.3362 188.846C83.7122 187.55 83.4002 185.982 83.4002 184.142C83.4002 182.302 83.7122 180.734 84.3362 179.438C84.9602 178.142 85.8162 177.158 86.9042 176.486C87.9922 175.798 89.2242 175.454 90.6002 175.454C91.9922 175.454 93.2242 175.798 94.2962 176.486C95.3842 177.158 96.2402 178.142 96.8642 179.438C97.4882 180.734 97.8002 182.302 97.8002 184.142C97.8002 185.982 97.4882 187.55 96.8642 188.846C96.2402 190.142 95.3842 191.134 94.2962 191.822C93.2242 192.494 91.9922 192.83 90.6002 192.83ZM90.6002 189.542C91.2562 189.542 91.8242 189.358 92.3042 188.99C92.8002 188.622 93.1842 188.038 93.4562 187.238C93.7442 186.438 93.8882 185.406 93.8882 184.142C93.8882 182.878 93.7442 181.846 93.4562 181.046C93.1842 180.246 92.8002 179.662 92.3042 179.294C91.8242 178.926 91.2562 178.742 90.6002 178.742C89.9602 178.742 89.3922 178.926 88.8962 179.294C88.4162 179.662 88.0322 180.246 87.7442 181.046C87.4722 181.846 87.3362 182.878 87.3362 184.142C87.3362 185.406 87.4722 186.438 87.7442 187.238C88.0322 188.038 88.4162 188.622 88.8962 188.99C89.3922 189.358 89.9602 189.542 90.6002 189.542ZM106.889 192.83C105.513 192.83 104.281 192.494 103.193 191.822C102.105 191.134 101.249 190.142 100.625 188.846C100.001 187.55 99.6893 185.982 99.6893 184.142C99.6893 182.302 100.001 180.734 100.625 179.438C101.249 178.142 102.105 177.158 103.193 176.486C104.281 175.798 105.513 175.454 106.889 175.454C108.281 175.454 109.513 175.798 110.585 176.486C111.673 177.158 112.529 178.142 113.153 179.438C113.777 180.734 114.089 182.302 114.089 184.142C114.089 185.982 113.777 187.55 113.153 188.846C112.529 190.142 111.673 191.134 110.585 191.822C109.513 192.494 108.281 192.83 106.889 192.83ZM106.889 189.542C107.545 189.542 108.113 189.358 108.593 188.99C109.089 188.622 109.473 188.038 109.745 187.238C110.033 186.438 110.177 185.406 110.177 184.142C110.177 182.878 110.033 181.846 109.745 181.046C109.473 180.246 109.089 179.662 108.593 179.294C108.113 178.926 107.545 178.742 106.889 178.742C106.249 178.742 105.681 178.926 105.185 179.294C104.705 179.662 104.321 180.246 104.033 181.046C103.761 181.846 103.625 182.878 103.625 184.142C103.625 185.406 103.761 186.438 104.033 187.238C104.321 188.038 104.705 188.622 105.185 188.99C105.681 189.358 106.249 189.542 106.889 189.542ZM123.831 192.542V175.742H131.103C132.607 175.742 133.903 175.99 134.991 176.486C136.079 176.966 136.919 177.662 137.511 178.574C138.103 179.486 138.399 180.574 138.399 181.838C138.399 183.086 138.103 184.166 137.511 185.078C136.919 185.974 136.079 186.662 134.991 187.142C133.903 187.622 132.607 187.862 131.103 187.862H125.991L127.719 186.158V192.542H123.831ZM134.511 192.542L130.311 186.446H134.463L138.711 192.542H134.511ZM127.719 186.59L125.991 184.766H130.887C132.087 184.766 132.983 184.51 133.575 183.998C134.167 183.47 134.463 182.75 134.463 181.838C134.463 180.91 134.167 180.19 133.575 179.678C132.983 179.166 132.087 178.91 130.887 178.91H125.991L127.719 177.062V186.59ZM147 192.83C145.656 192.83 144.368 192.654 143.136 192.302C141.904 191.934 140.912 191.462 140.16 190.886L141.48 187.958C142.2 188.47 143.048 188.894 144.024 189.23C145.016 189.55 146.016 189.71 147.024 189.71C147.792 189.71 148.408 189.638 148.872 189.494C149.352 189.334 149.704 189.118 149.928 188.846C150.152 188.574 150.264 188.262 150.264 187.91C150.264 187.462 150.088 187.11 149.736 186.854C149.384 186.582 148.92 186.366 148.344 186.206C147.768 186.03 147.128 185.87 146.424 185.726C145.736 185.566 145.04 185.374 144.336 185.15C143.648 184.926 143.016 184.638 142.44 184.286C141.864 183.934 141.392 183.47 141.024 182.894C140.672 182.318 140.496 181.582 140.496 180.686C140.496 179.726 140.752 178.854 141.264 178.07C141.792 177.27 142.576 176.638 143.616 176.174C144.672 175.694 145.992 175.454 147.576 175.454C148.632 175.454 149.672 175.582 150.696 175.838C151.72 176.078 152.624 176.446 153.408 176.942L152.208 179.894C151.424 179.446 150.64 179.118 149.856 178.91C149.072 178.686 148.304 178.574 147.552 178.574C146.8 178.574 146.184 178.662 145.704 178.838C145.224 179.014 144.88 179.246 144.672 179.534C144.464 179.806 144.36 180.126 144.36 180.494C144.36 180.926 144.536 181.278 144.888 181.55C145.24 181.806 145.704 182.014 146.28 182.174C146.856 182.334 147.488 182.494 148.176 182.654C148.88 182.814 149.576 182.998 150.264 183.206C150.968 183.414 151.608 183.694 152.184 184.046C152.76 184.398 153.224 184.862 153.576 185.438C153.944 186.014 154.128 186.742 154.128 187.622C154.128 188.566 153.864 189.43 153.336 190.214C152.808 190.998 152.016 191.63 150.96 192.11C149.92 192.59 148.6 192.83 147 192.83ZM156.784 192.542V175.742H164.416C166.24 175.742 167.848 176.094 169.24 176.798C170.632 177.486 171.72 178.454 172.504 179.702C173.288 180.95 173.68 182.43 173.68 184.142C173.68 185.838 173.288 187.318 172.504 188.582C171.72 189.83 170.632 190.806 169.24 191.51C167.848 192.198 166.24 192.542 164.416 192.542H156.784ZM160.672 189.35H164.224C165.344 189.35 166.312 189.142 167.128 188.726C167.96 188.294 168.6 187.686 169.048 186.902C169.512 186.118 169.744 185.198 169.744 184.142C169.744 183.07 169.512 182.15 169.048 181.382C168.6 180.598 167.96 179.998 167.128 179.582C166.312 179.15 165.344 178.934 164.224 178.934H160.672V189.35ZM184.724 178.046L181.532 179.798V179.174L184.724 180.902L183.548 182.87L180.572 181.094L180.908 180.878L180.956 184.214H178.7L178.724 180.878L179.06 181.094L176.084 182.87L174.932 180.902L178.124 179.174V179.798L174.932 178.046L176.084 176.078L179.06 177.878L178.724 178.07L178.7 174.734H180.956L180.908 178.07L180.572 177.878L183.548 176.078L184.724 178.046Z" fill="#1A1A1A"/>
<path d="M73.629 73H1V225H229V73H163.266" stroke="#1A1A1A"/>
<path d="M171.733 38.7986C167.172 37.7992 162.452 38.0972 157.834 38.4855C151.819 39.0502 145.806 40.201 140.064 42.2316C139.812 42.3921 139.623 42.5947 139.454 42.7638C136.482 39.8678 132.945 37.6506 129.501 36.5703C121.693 33.6851 112.92 37.3848 106.791 42.6422C102.638 46.726 99.3229 52.0406 98.0801 57.9047C97.9991 58.4822 97.9339 59.0702 97.8788 59.6415C97.2707 59.8012 96.6568 59.9336 96.0545 60.1205C88.561 62.1405 81.5614 65.8885 75.3229 70.6997C71.2561 73.9758 63.7006 79.2736 68.9944 84.9635C75.3506 90.7001 97.8328 85.4127 106.258 83.9141C106.56 83.8563 106.862 83.7984 107.148 83.7301C107.166 83.8118 107.167 83.8829 107.185 83.9646C107.717 85.5547 108.855 86.8427 110.158 87.8193C115.339 91.5184 122.386 91.4942 128.076 89.0323C135.02 86.2992 142.754 81.9607 145.662 74.3676C145.935 73.4724 146.407 72.1716 146.377 71.0768C157.652 66.1066 168.984 59.935 177.049 50.1361C182.555 44.1404 177.794 40.0405 171.727 38.7715L171.733 38.7986ZM121.364 39.7315C126.228 39.3418 131.144 41.4871 134.948 44.628C138.138 47.4577 140.733 51.0163 142.191 55.133C142.808 56.5454 142.757 58.4752 143.808 59.6123C140.036 61.5872 136.153 63.3023 132.22 64.8434C125.476 67.4283 118.539 70.0023 111.491 71.6152C108.429 72.3757 105.209 73.1023 101.993 73.5275C102.325 71.5733 101.649 67.5276 101.615 66.7342C101.367 63.8597 101.426 60.4395 102.229 57.5572C104.866 48.3831 112.051 40.7841 121.359 39.7043L121.364 39.7315ZM146.763 58.0331C146.75 55.6175 146.184 53.2341 145.192 50.9668C145.771 50.9285 146.335 50.8796 146.896 50.9459C148.568 51.1615 150.847 51.1463 152.412 52.1319C153.014 52.6463 152.097 53.4666 151.8 53.9954C150.385 55.679 148.604 56.9346 146.737 58.0393L146.763 58.0331ZM128.371 84.0386C123.113 86.4117 117.265 86.5498 111.979 84.2069C111.409 83.971 110.746 83.557 110.063 83.1764C114.821 82.2255 119.586 81.1866 124.209 79.6095C130.13 77.6505 135.943 75.3165 141.764 73.0809C138.745 78.3105 133.875 82.1079 128.371 84.0386ZM171.731 50.3195C167.577 54.5897 162.525 58.2442 157.33 61.1031C150.26 64.9682 142.786 68.5434 134.989 71.2513C129.24 73.441 123.426 75.5175 117.474 77.0117C113.294 78.0395 108.481 78.8604 104.143 79.8543C94.5611 81.7581 84.7329 84.1071 74.9559 82.9377C71.1898 82.3924 70.3378 80.7784 73.3726 78.1068C80.1637 71.6035 88.3891 67.262 96.4594 62.7715C96.8261 62.5694 97.2648 62.3214 97.6877 62.0629C97.5914 66.136 98.2916 70.2906 100.252 73.7576C99.0829 73.851 97.9081 73.9171 96.7418 73.8953C92.0258 73.8919 92.4946 72.1913 95.6133 69.5283C96.6261 68.771 98.1409 67.5503 97.2661 66.0849C95.5989 63.7929 92.8613 66.8943 91.4781 68.1552C89.6541 70.0365 88.7107 73.4105 90.5122 75.6275C96.8919 82.1742 120.945 73.0623 128.849 70.2144C136.07 67.2435 154.761 61.4881 157.088 53.6047C158.322 45.9824 148.954 46.7186 144.255 49.0868C143.612 47.9381 142.897 46.8353 142.084 45.7846C147.378 44.5336 152.936 43.3629 158.374 42.7213C163.981 42.3544 170.569 41.2092 175.419 44.83C176.187 45.9916 172.716 49.2398 171.731 50.3195Z" fill="#D9695F"/>
</svg>
