<svg width="230" height="226" viewBox="0 0 230 226" fill="none" xmlns="http://www.w3.org/2000/svg">
<path d="M25.2928 136V124.8H26.2688L33.9968 134.528H33.4848V124.8H34.6528V136H33.6768L25.9648 126.272H26.4768V136H25.2928ZM43.3324 136V134.144L43.2844 133.84V130.736C43.2844 130.021 43.0817 129.472 42.6764 129.088C42.2817 128.704 41.6897 128.512 40.9004 128.512C40.3564 128.512 39.839 128.603 39.3484 128.784C38.8577 128.965 38.4417 129.205 38.1004 129.504L37.5884 128.656C38.015 128.293 38.527 128.016 39.1244 127.824C39.7217 127.621 40.351 127.52 41.0124 127.52C42.1004 127.52 42.9377 127.792 43.5244 128.336C44.1217 128.869 44.4204 129.685 44.4204 130.784V136H43.3324ZM40.4364 136.08C39.807 136.08 39.2577 135.979 38.7884 135.776C38.3297 135.563 37.9777 135.275 37.7324 134.912C37.487 134.539 37.3644 134.112 37.3644 133.632C37.3644 133.195 37.4657 132.8 37.6684 132.448C37.8817 132.085 38.223 131.797 38.6924 131.584C39.1724 131.36 39.8124 131.248 40.6124 131.248H43.5084V132.096H40.6444C39.8337 132.096 39.2684 132.24 38.9484 132.528C38.639 132.816 38.4844 133.173 38.4844 133.6C38.4844 134.08 38.671 134.464 39.0444 134.752C39.4177 135.04 39.9404 135.184 40.6124 135.184C41.2524 135.184 41.8017 135.04 42.2604 134.752C42.7297 134.453 43.071 134.027 43.2844 133.472L43.5404 134.256C43.327 134.811 42.9537 135.253 42.4204 135.584C41.8977 135.915 41.2364 136.08 40.4364 136.08ZM53.9494 136.08C53.256 136.08 52.6 135.984 51.9814 135.792C51.3627 135.589 50.8774 135.339 50.5254 135.04L51.0374 134.144C51.3787 134.4 51.816 134.624 52.3494 134.816C52.8827 134.997 53.4427 135.088 54.0294 135.088C54.8294 135.088 55.4054 134.965 55.7574 134.72C56.1094 134.464 56.2854 134.128 56.2854 133.712C56.2854 133.403 56.184 133.163 55.9814 132.992C55.7894 132.811 55.5334 132.677 55.2134 132.592C54.8934 132.496 54.536 132.416 54.1414 132.352C53.7467 132.288 53.352 132.213 52.9574 132.128C52.5734 132.043 52.2214 131.92 51.9014 131.76C51.5814 131.589 51.32 131.36 51.1174 131.072C50.9254 130.784 50.8294 130.4 50.8294 129.92C50.8294 129.461 50.9574 129.051 51.2134 128.688C51.4694 128.325 51.8427 128.043 52.3334 127.84C52.8347 127.627 53.4427 127.52 54.1574 127.52C54.7014 127.52 55.2454 127.595 55.7894 127.744C56.3334 127.883 56.7814 128.069 57.1334 128.304L56.6374 129.216C56.264 128.96 55.864 128.779 55.4374 128.672C55.0107 128.555 54.584 128.496 54.1574 128.496C53.4 128.496 52.84 128.629 52.4774 128.896C52.1254 129.152 51.9494 129.483 51.9494 129.888C51.9494 130.208 52.0454 130.459 52.2374 130.64C52.44 130.821 52.7014 130.965 53.0214 131.072C53.352 131.168 53.7094 131.248 54.0934 131.312C54.488 131.376 54.8774 131.456 55.2614 131.552C55.656 131.637 56.0134 131.76 56.3334 131.92C56.664 132.069 56.9254 132.288 57.1174 132.576C57.32 132.853 57.4214 133.221 57.4214 133.68C57.4214 134.171 57.2827 134.597 57.0054 134.96C56.7387 135.312 56.344 135.589 55.8214 135.792C55.3094 135.984 54.6854 136.08 53.9494 136.08ZM61.5096 136L57.7816 127.6H58.9656L62.3896 135.392H61.8296L65.3016 127.6H66.4216L62.6776 136H61.5096ZM73.0355 136V134.144L72.9875 133.84V130.736C72.9875 130.021 72.7848 129.472 72.3795 129.088C71.9848 128.704 71.3928 128.512 70.6035 128.512C70.0595 128.512 69.5422 128.603 69.0515 128.784C68.5608 128.965 68.1448 129.205 67.8035 129.504L67.2915 128.656C67.7182 128.293 68.2302 128.016 68.8275 127.824C69.4248 127.621 70.0542 127.52 70.7155 127.52C71.8035 127.52 72.6408 127.792 73.2275 128.336C73.8248 128.869 74.1235 129.685 74.1235 130.784V136H73.0355ZM70.1395 136.08C69.5102 136.08 68.9608 135.979 68.4915 135.776C68.0328 135.563 67.6808 135.275 67.4355 134.912C67.1902 134.539 67.0675 134.112 67.0675 133.632C67.0675 133.195 67.1688 132.8 67.3715 132.448C67.5848 132.085 67.9262 131.797 68.3955 131.584C68.8755 131.36 69.5155 131.248 70.3155 131.248H73.2115V132.096H70.3475C69.5368 132.096 68.9715 132.24 68.6515 132.528C68.3422 132.816 68.1875 133.173 68.1875 133.6C68.1875 134.08 68.3742 134.464 68.7475 134.752C69.1208 135.04 69.6435 135.184 70.3155 135.184C70.9555 135.184 71.5048 135.04 71.9635 134.752C72.4328 134.453 72.7742 134.027 72.9875 133.472L73.2435 134.256C73.0302 134.811 72.6568 135.253 72.1235 135.584C71.6008 135.915 70.9395 136.08 70.1395 136.08ZM78.105 133.824L78.137 132.368L83.369 127.6H84.761L81.065 131.136L80.425 131.68L78.105 133.824ZM77.209 136V124.128H78.345V136H77.209ZM83.721 136L80.217 131.632L80.953 130.752L85.113 136H83.721ZM86.8184 136V127.6H87.9544V136H86.8184ZM87.3944 125.744C87.1597 125.744 86.9624 125.664 86.8024 125.504C86.6424 125.344 86.5624 125.152 86.5624 124.928C86.5624 124.704 86.6424 124.517 86.8024 124.368C86.9624 124.208 87.1597 124.128 87.3944 124.128C87.629 124.128 87.8264 124.203 87.9864 124.352C88.1464 124.501 88.2264 124.688 88.2264 124.912C88.2264 125.147 88.1464 125.344 87.9864 125.504C87.837 125.664 87.6397 125.744 87.3944 125.744ZM99.6388 136.08C98.9134 136.08 98.2574 135.915 97.6708 135.584C97.0841 135.243 96.6148 134.757 96.2628 134.128C95.9214 133.488 95.7508 132.709 95.7508 131.792C95.7508 130.875 95.9214 130.101 96.2628 129.472C96.6041 128.832 97.0681 128.347 97.6548 128.016C98.2414 127.685 98.9028 127.52 99.6388 127.52C100.439 127.52 101.153 127.701 101.783 128.064C102.423 128.416 102.924 128.917 103.287 129.568C103.649 130.208 103.831 130.949 103.831 131.792C103.831 132.645 103.649 133.392 103.287 134.032C102.924 134.672 102.423 135.173 101.783 135.536C101.153 135.899 100.439 136.08 99.6388 136.08ZM95.3028 139.104V127.6H96.3908V130.128L96.2788 131.808L96.4388 133.504V139.104H95.3028ZM99.5588 135.072C100.156 135.072 100.689 134.939 101.159 134.672C101.628 134.395 102.001 134.011 102.279 133.52C102.556 133.019 102.695 132.443 102.695 131.792C102.695 131.141 102.556 130.571 102.279 130.08C102.001 129.589 101.628 129.205 101.159 128.928C100.689 128.651 100.156 128.512 99.5588 128.512C98.9614 128.512 98.4228 128.651 97.9427 128.928C97.4734 129.205 97.1001 129.589 96.8228 130.08C96.5561 130.571 96.4228 131.141 96.4228 131.792C96.4228 132.443 96.5561 133.019 96.8228 133.52C97.1001 134.011 97.4734 134.395 97.9427 134.672C98.4228 134.939 98.9614 135.072 99.5588 135.072ZM109.571 136.08C108.76 136.08 108.029 135.899 107.379 135.536C106.739 135.163 106.232 134.656 105.859 134.016C105.485 133.365 105.299 132.624 105.299 131.792C105.299 130.949 105.485 130.208 105.859 129.568C106.232 128.928 106.739 128.427 107.379 128.064C108.019 127.701 108.749 127.52 109.571 127.52C110.403 127.52 111.139 127.701 111.779 128.064C112.429 128.427 112.936 128.928 113.299 129.568C113.672 130.208 113.859 130.949 113.859 131.792C113.859 132.624 113.672 133.365 113.299 134.016C112.936 134.656 112.429 135.163 111.779 135.536C111.128 135.899 110.392 136.08 109.571 136.08ZM109.571 135.072C110.179 135.072 110.717 134.939 111.187 134.672C111.656 134.395 112.024 134.011 112.291 133.52C112.568 133.019 112.707 132.443 112.707 131.792C112.707 131.131 112.568 130.555 112.291 130.064C112.024 129.573 111.656 129.195 111.187 128.928C110.717 128.651 110.184 128.512 109.587 128.512C108.989 128.512 108.456 128.651 107.987 128.928C107.517 129.195 107.144 129.573 106.867 130.064C106.589 130.555 106.451 131.131 106.451 131.792C106.451 132.443 106.589 133.019 106.867 133.52C107.144 134.011 107.517 134.395 107.987 134.672C108.456 134.939 108.984 135.072 109.571 135.072ZM119.666 136.08C118.834 136.08 118.087 135.899 117.426 135.536C116.775 135.163 116.263 134.656 115.89 134.016C115.516 133.365 115.33 132.624 115.33 131.792C115.33 130.949 115.516 130.208 115.89 129.568C116.263 128.928 116.775 128.427 117.426 128.064C118.087 127.701 118.834 127.52 119.666 127.52C120.38 127.52 121.026 127.659 121.602 127.936C122.178 128.213 122.631 128.629 122.962 129.184L122.114 129.76C121.826 129.333 121.468 129.019 121.042 128.816C120.615 128.613 120.151 128.512 119.65 128.512C119.052 128.512 118.514 128.651 118.034 128.928C117.554 129.195 117.175 129.573 116.898 130.064C116.62 130.555 116.482 131.131 116.482 131.792C116.482 132.453 116.62 133.029 116.898 133.52C117.175 134.011 117.554 134.395 118.034 134.672C118.514 134.939 119.052 135.072 119.65 135.072C120.151 135.072 120.615 134.971 121.042 134.768C121.468 134.565 121.826 134.256 122.114 133.84L122.962 134.416C122.631 134.96 122.178 135.376 121.602 135.664C121.026 135.941 120.38 136.08 119.666 136.08ZM118.802 126.288L116.738 124.304H117.794L119.826 125.984H118.93L120.962 124.304H122.018L119.954 126.288H118.802ZM128.621 136.08C127.746 136.08 126.978 135.899 126.317 135.536C125.655 135.163 125.138 134.656 124.765 134.016C124.391 133.365 124.205 132.624 124.205 131.792C124.205 130.96 124.381 130.224 124.733 129.584C125.095 128.944 125.586 128.443 126.205 128.08C126.834 127.707 127.538 127.52 128.317 127.52C129.106 127.52 129.805 127.701 130.413 128.064C131.031 128.416 131.517 128.917 131.869 129.568C132.221 130.208 132.397 130.949 132.397 131.792C132.397 131.845 132.391 131.904 132.381 131.968C132.381 132.021 132.381 132.08 132.381 132.144H125.069V131.296H131.773L131.325 131.632C131.325 131.024 131.191 130.485 130.925 130.016C130.669 129.536 130.317 129.163 129.869 128.896C129.421 128.629 128.903 128.496 128.317 128.496C127.741 128.496 127.223 128.629 126.765 128.896C126.306 129.163 125.949 129.536 125.693 130.016C125.437 130.496 125.309 131.045 125.309 131.664V131.84C125.309 132.48 125.447 133.045 125.725 133.536C126.013 134.016 126.407 134.395 126.909 134.672C127.421 134.939 128.002 135.072 128.653 135.072C129.165 135.072 129.639 134.981 130.077 134.8C130.525 134.619 130.909 134.341 131.229 133.968L131.869 134.704C131.495 135.152 131.026 135.493 130.461 135.728C129.906 135.963 129.293 136.08 128.621 136.08ZM137.365 136.08C136.576 136.08 135.968 135.867 135.541 135.44C135.114 135.013 134.901 134.411 134.901 133.632V125.744H136.037V133.568C136.037 134.059 136.16 134.437 136.405 134.704C136.661 134.971 137.024 135.104 137.493 135.104C137.994 135.104 138.41 134.96 138.741 134.672L139.141 135.488C138.917 135.691 138.645 135.84 138.325 135.936C138.016 136.032 137.696 136.08 137.365 136.08ZM133.397 128.544V127.6H138.597V128.544H133.397ZM145.497 127.52C146.18 127.52 146.777 127.653 147.289 127.92C147.812 128.176 148.217 128.571 148.505 129.104C148.804 129.637 148.953 130.309 148.953 131.12V136H147.817V131.232C147.817 130.347 147.593 129.68 147.145 129.232C146.708 128.773 146.089 128.544 145.289 128.544C144.692 128.544 144.169 128.667 143.721 128.912C143.284 129.147 142.942 129.493 142.697 129.952C142.462 130.4 142.345 130.944 142.345 131.584V136H141.209V127.6H142.297V129.904L142.121 129.472C142.388 128.864 142.814 128.389 143.401 128.048C143.988 127.696 144.686 127.52 145.497 127.52ZM152.022 136V127.6H153.158V136H152.022ZM152.598 125.744C152.363 125.744 152.166 125.664 152.006 125.504C151.846 125.344 151.766 125.152 151.766 124.928C151.766 124.704 151.846 124.517 152.006 124.368C152.166 124.208 152.363 124.128 152.598 124.128C152.832 124.128 153.03 124.203 153.19 124.352C153.35 124.501 153.43 124.688 153.43 124.912C153.43 125.147 153.35 125.344 153.19 125.504C153.04 125.664 152.843 125.744 152.598 125.744ZM162.762 136.08C162.069 136.08 161.413 135.984 160.794 135.792C160.175 135.589 159.69 135.339 159.338 135.04L159.85 134.144C160.191 134.4 160.629 134.624 161.162 134.816C161.695 134.997 162.255 135.088 162.842 135.088C163.642 135.088 164.218 134.965 164.57 134.72C164.922 134.464 165.098 134.128 165.098 133.712C165.098 133.403 164.997 133.163 164.794 132.992C164.602 132.811 164.346 132.677 164.026 132.592C163.706 132.496 163.349 132.416 162.954 132.352C162.559 132.288 162.165 132.213 161.77 132.128C161.386 132.043 161.034 131.92 160.714 131.76C160.394 131.589 160.133 131.36 159.93 131.072C159.738 130.784 159.642 130.4 159.642 129.92C159.642 129.461 159.77 129.051 160.026 128.688C160.282 128.325 160.655 128.043 161.146 127.84C161.647 127.627 162.255 127.52 162.97 127.52C163.514 127.52 164.058 127.595 164.602 127.744C165.146 127.883 165.594 128.069 165.946 128.304L165.45 129.216C165.077 128.96 164.677 128.779 164.25 128.672C163.823 128.555 163.397 128.496 162.97 128.496C162.213 128.496 161.653 128.629 161.29 128.896C160.938 129.152 160.762 129.483 160.762 129.888C160.762 130.208 160.858 130.459 161.05 130.64C161.253 130.821 161.514 130.965 161.834 131.072C162.165 131.168 162.522 131.248 162.906 131.312C163.301 131.376 163.69 131.456 164.074 131.552C164.469 131.637 164.826 131.76 165.146 131.92C165.477 132.069 165.738 132.288 165.93 132.576C166.133 132.853 166.234 133.221 166.234 133.68C166.234 134.171 166.095 134.597 165.818 134.96C165.551 135.312 165.157 135.589 164.634 135.792C164.122 135.984 163.498 136.08 162.762 136.08ZM173.582 136V134.144L173.534 133.84V130.736C173.534 130.021 173.332 129.472 172.926 129.088C172.532 128.704 171.94 128.512 171.15 128.512C170.606 128.512 170.089 128.603 169.598 128.784C169.108 128.965 168.692 129.205 168.35 129.504L167.838 128.656C168.265 128.293 168.777 128.016 169.374 127.824C169.972 127.621 170.601 127.52 171.262 127.52C172.35 127.52 173.188 127.792 173.774 128.336C174.372 128.869 174.67 129.685 174.67 130.784V136H173.582ZM170.686 136.08C170.057 136.08 169.508 135.979 169.038 135.776C168.58 135.563 168.228 135.275 167.982 134.912C167.737 134.539 167.614 134.112 167.614 133.632C167.614 133.195 167.716 132.8 167.918 132.448C168.132 132.085 168.473 131.797 168.942 131.584C169.422 131.36 170.062 131.248 170.862 131.248H173.758V132.096H170.894C170.084 132.096 169.518 132.24 169.198 132.528C168.889 132.816 168.734 133.173 168.734 133.6C168.734 134.08 168.921 134.464 169.294 134.752C169.668 135.04 170.19 135.184 170.862 135.184C171.502 135.184 172.052 135.04 172.51 134.752C172.98 134.453 173.321 134.027 173.534 133.472L173.79 134.256C173.577 134.811 173.204 135.253 172.67 135.584C172.148 135.915 171.486 136.08 170.686 136.08ZM180.412 136.08C179.623 136.08 179.015 135.867 178.588 135.44C178.161 135.013 177.948 134.411 177.948 133.632V125.744H179.084V133.568C179.084 134.059 179.207 134.437 179.452 134.704C179.708 134.971 180.071 135.104 180.54 135.104C181.041 135.104 181.457 134.96 181.788 134.672L182.188 135.488C181.964 135.691 181.692 135.84 181.372 135.936C181.063 136.032 180.743 136.08 180.412 136.08ZM176.444 128.544V127.6H181.644V128.544H176.444ZM190.379 139.104C189.793 138.133 189.334 137.013 189.003 135.744C188.683 134.464 188.523 133.088 188.523 131.616C188.523 130.144 188.683 128.768 189.003 127.488C189.334 126.197 189.793 125.077 190.379 124.128H191.467C190.838 125.227 190.374 126.395 190.075 127.632C189.787 128.859 189.643 130.187 189.643 131.616C189.643 133.045 189.787 134.379 190.075 135.616C190.374 136.843 190.838 138.005 191.467 139.104H190.379ZM195.065 136V125.28L195.577 125.824H192.425V124.8H196.217V136H195.065ZM203.935 127.52C204.617 127.52 205.215 127.653 205.727 127.92C206.249 128.176 206.655 128.571 206.943 129.104C207.241 129.637 207.391 130.309 207.391 131.12V136H206.255V131.232C206.255 130.347 206.031 129.68 205.583 129.232C205.145 128.773 204.527 128.544 203.727 128.544C203.129 128.544 202.607 128.667 202.159 128.912C201.721 129.147 201.38 129.493 201.135 129.952C200.9 130.4 200.783 130.944 200.783 131.584V136H199.647V124.128H200.783V129.904L200.559 129.472C200.825 128.864 201.252 128.389 201.839 128.048C202.425 127.696 203.124 127.52 203.935 127.52ZM210.603 139.104H209.515C210.155 138.005 210.619 136.843 210.907 135.616C211.206 134.379 211.355 133.045 211.355 131.616C211.355 130.187 211.206 128.859 210.907 127.632C210.619 126.395 210.155 125.227 209.515 124.128H210.603C211.211 125.077 211.675 126.197 211.995 127.488C212.315 128.768 212.475 130.144 212.475 131.616C212.475 133.088 212.315 134.464 211.995 135.744C211.675 137.013 211.211 138.133 210.603 139.104ZM215.837 129.264C215.602 129.264 215.399 129.179 215.229 129.008C215.069 128.837 214.989 128.629 214.989 128.384C214.989 128.128 215.069 127.92 215.229 127.76C215.399 127.6 215.602 127.52 215.837 127.52C216.071 127.52 216.269 127.6 216.429 127.76C216.599 127.92 216.685 128.128 216.685 128.384C216.685 128.629 216.599 128.837 216.429 129.008C216.269 129.179 216.071 129.264 215.837 129.264ZM215.837 136.08C215.602 136.08 215.399 135.995 215.229 135.824C215.069 135.653 214.989 135.445 214.989 135.2C214.989 134.944 215.069 134.736 215.229 134.576C215.399 134.416 215.602 134.336 215.837 134.336C216.071 134.336 216.269 134.416 216.429 134.576C216.599 134.736 216.685 134.944 216.685 135.2C216.685 135.445 216.599 135.653 216.429 135.824C216.269 135.995 216.071 136.08 215.837 136.08ZM86.0325 160V159.184L93.8085 149.376L93.9365 149.824H86.1445V148.8H95.0245V149.616L87.2645 159.424L87.1205 158.976H95.2165V160H86.0325ZM102.582 160V158.144L102.534 157.84V154.736C102.534 154.021 102.332 153.472 101.926 153.088C101.532 152.704 100.94 152.512 100.15 152.512C99.6064 152.512 99.089 152.603 98.5984 152.784C98.1077 152.965 97.6917 153.205 97.3504 153.504L96.8384 152.656C97.265 152.293 97.777 152.016 98.3744 151.824C98.9717 151.621 99.601 151.52 100.262 151.52C101.35 151.52 102.188 151.792 102.774 152.336C103.372 152.869 103.67 153.685 103.67 154.784V160H102.582ZM99.6864 160.08C99.057 160.08 98.5077 159.979 98.0384 159.776C97.5797 159.563 97.2277 159.275 96.9824 158.912C96.737 158.539 96.6144 158.112 96.6144 157.632C96.6144 157.195 96.7157 156.8 96.9184 156.448C97.1317 156.085 97.473 155.797 97.9424 155.584C98.4224 155.36 99.0624 155.248 99.8624 155.248H102.758V156.096H99.8944C99.0837 156.096 98.5184 156.24 98.1984 156.528C97.889 156.816 97.7344 157.173 97.7344 157.6C97.7344 158.08 97.921 158.464 98.2944 158.752C98.6677 159.04 99.1904 159.184 99.8624 159.184C100.502 159.184 101.052 159.04 101.51 158.752C101.98 158.453 102.321 158.027 102.534 157.472L102.79 158.256C102.577 158.811 102.204 159.253 101.67 159.584C101.148 159.915 100.486 160.08 99.6864 160.08ZM112.143 160V149.28L112.655 149.824H109.503V148.8H113.295V160H112.143ZM124.256 160.08C123.456 160.08 122.736 159.899 122.096 159.536C121.467 159.173 120.971 158.672 120.608 158.032C120.245 157.381 120.064 156.635 120.064 155.792C120.064 154.939 120.245 154.192 120.608 153.552C120.971 152.912 121.467 152.416 122.096 152.064C122.736 151.701 123.456 151.52 124.256 151.52C124.992 151.52 125.648 151.685 126.224 152.016C126.811 152.347 127.275 152.832 127.616 153.472C127.968 154.101 128.144 154.875 128.144 155.792C128.144 156.699 127.973 157.472 127.632 158.112C127.291 158.752 126.827 159.243 126.24 159.584C125.664 159.915 125.003 160.08 124.256 160.08ZM124.336 159.072C124.933 159.072 125.467 158.939 125.936 158.672C126.416 158.395 126.789 158.011 127.056 157.52C127.333 157.019 127.472 156.443 127.472 155.792C127.472 155.131 127.333 154.555 127.056 154.064C126.789 153.573 126.416 153.195 125.936 152.928C125.467 152.651 124.933 152.512 124.336 152.512C123.749 152.512 123.221 152.651 122.752 152.928C122.283 153.195 121.909 153.573 121.632 154.064C121.355 154.555 121.216 155.131 121.216 155.792C121.216 156.443 121.355 157.019 121.632 157.52C121.909 158.011 122.283 158.395 122.752 158.672C123.221 158.939 123.749 159.072 124.336 159.072ZM127.504 160V157.472L127.616 155.776L127.456 154.08V148.128H128.592V160H127.504ZM135.324 160.08C134.449 160.08 133.681 159.899 133.02 159.536C132.359 159.163 131.841 158.656 131.468 158.016C131.095 157.365 130.908 156.624 130.908 155.792C130.908 154.96 131.084 154.224 131.436 153.584C131.799 152.944 132.289 152.443 132.908 152.08C133.537 151.707 134.241 151.52 135.02 151.52C135.809 151.52 136.508 151.701 137.116 152.064C137.735 152.416 138.22 152.917 138.572 153.568C138.924 154.208 139.1 154.949 139.1 155.792C139.1 155.845 139.095 155.904 139.084 155.968C139.084 156.021 139.084 156.08 139.084 156.144H131.772V155.296H138.476L138.028 155.632C138.028 155.024 137.895 154.485 137.628 154.016C137.372 153.536 137.02 153.163 136.572 152.896C136.124 152.629 135.607 152.496 135.02 152.496C134.444 152.496 133.927 152.629 133.468 152.896C133.009 153.163 132.652 153.536 132.396 154.016C132.14 154.496 132.012 155.045 132.012 155.664V155.84C132.012 156.48 132.151 157.045 132.428 157.536C132.716 158.016 133.111 158.395 133.612 158.672C134.124 158.939 134.705 159.072 135.356 159.072C135.868 159.072 136.343 158.981 136.78 158.8C137.228 158.619 137.612 158.341 137.932 157.968L138.572 158.704C138.199 159.152 137.729 159.493 137.164 159.728C136.609 159.963 135.996 160.08 135.324 160.08ZM144.068 160.08C143.279 160.08 142.671 159.867 142.244 159.44C141.817 159.013 141.604 158.411 141.604 157.632V149.744H142.74V157.568C142.74 158.059 142.863 158.437 143.108 158.704C143.364 158.971 143.727 159.104 144.196 159.104C144.697 159.104 145.113 158.96 145.444 158.672L145.844 159.488C145.62 159.691 145.348 159.84 145.028 159.936C144.719 160.032 144.399 160.08 144.068 160.08ZM140.1 152.544V151.6H145.3V152.544H140.1ZM151.183 160.08C150.309 160.08 149.541 159.899 148.879 159.536C148.218 159.163 147.701 158.656 147.327 158.016C146.954 157.365 146.767 156.624 146.767 155.792C146.767 154.96 146.943 154.224 147.295 153.584C147.658 152.944 148.149 152.443 148.767 152.08C149.397 151.707 150.101 151.52 150.879 151.52C151.669 151.52 152.367 151.701 152.975 152.064C153.594 152.416 154.079 152.917 154.431 153.568C154.783 154.208 154.959 154.949 154.959 155.792C154.959 155.845 154.954 155.904 154.943 155.968C154.943 156.021 154.943 156.08 154.943 156.144H147.631V155.296H154.335L153.887 155.632C153.887 155.024 153.754 154.485 153.487 154.016C153.231 153.536 152.879 153.163 152.431 152.896C151.983 152.629 151.466 152.496 150.879 152.496C150.303 152.496 149.786 152.629 149.327 152.896C148.869 153.163 148.511 153.536 148.255 154.016C147.999 154.496 147.871 155.045 147.871 155.664V155.84C147.871 156.48 148.01 157.045 148.287 157.536C148.575 158.016 148.97 158.395 149.471 158.672C149.983 158.939 150.565 159.072 151.215 159.072C151.727 159.072 152.202 158.981 152.639 158.8C153.087 158.619 153.471 158.341 153.791 157.968L154.431 158.704C154.058 159.152 153.589 159.493 153.023 159.728C152.469 159.963 151.855 160.08 151.183 160.08Z" fill="#1A1A1A"/>
<path d="M70.0261 197.288C68.4901 197.288 67.1541 196.968 66.0181 196.328C64.8981 195.688 64.0341 194.752 63.4261 193.52C62.8181 192.288 62.5141 190.768 62.5141 188.96C62.5141 187.024 62.8741 185.384 63.5941 184.04C64.3301 182.696 65.3381 181.672 66.6181 180.968C67.9141 180.264 69.4021 179.912 71.0821 179.912C71.9781 179.912 72.8341 180.008 73.6501 180.2C74.4661 180.392 75.1701 180.68 75.7621 181.064L74.3221 183.92C73.8581 183.6 73.3621 183.384 72.8341 183.272C72.3061 183.144 71.7541 183.08 71.1781 183.08C69.7221 183.08 68.5701 183.52 67.7221 184.4C66.8741 185.28 66.4501 186.584 66.4501 188.312C66.4501 188.6 66.4501 188.92 66.4501 189.272C66.4661 189.624 66.5141 189.976 66.5941 190.328L65.5141 189.32C65.8181 188.696 66.2101 188.176 66.6901 187.76C67.1701 187.328 67.7381 187.008 68.3941 186.8C69.0661 186.576 69.8021 186.464 70.6021 186.464C71.6901 186.464 72.6661 186.68 73.5301 187.112C74.3941 187.544 75.0821 188.152 75.5941 188.936C76.1221 189.72 76.3861 190.64 76.3861 191.696C76.3861 192.832 76.0981 193.824 75.5221 194.672C74.9621 195.504 74.2021 196.152 73.2421 196.616C72.2981 197.064 71.2261 197.288 70.0261 197.288ZM69.8101 194.384C70.3541 194.384 70.8341 194.288 71.2501 194.096C71.6821 193.888 72.0181 193.592 72.2581 193.208C72.4981 192.824 72.6181 192.384 72.6181 191.888C72.6181 191.12 72.3541 190.512 71.8261 190.064C71.3141 189.6 70.6261 189.368 69.7621 189.368C69.1861 189.368 68.6821 189.48 68.2501 189.704C67.8181 189.912 67.4741 190.208 67.2181 190.592C66.9781 190.96 66.8581 191.392 66.8581 191.888C66.8581 192.368 66.9781 192.8 67.2181 193.184C67.4581 193.552 67.7941 193.848 68.2261 194.072C68.6581 194.28 69.1861 194.384 69.8101 194.384ZM84.9954 197.288C83.6194 197.288 82.3874 196.952 81.2994 196.28C80.2114 195.592 79.3554 194.6 78.7314 193.304C78.1074 192.008 77.7954 190.44 77.7954 188.6C77.7954 186.76 78.1074 185.192 78.7314 183.896C79.3554 182.6 80.2114 181.616 81.2994 180.944C82.3874 180.256 83.6194 179.912 84.9954 179.912C86.3874 179.912 87.6194 180.256 88.6914 180.944C89.7794 181.616 90.6354 182.6 91.2594 183.896C91.8834 185.192 92.1954 186.76 92.1954 188.6C92.1954 190.44 91.8834 192.008 91.2594 193.304C90.6354 194.6 89.7794 195.592 88.6914 196.28C87.6194 196.952 86.3874 197.288 84.9954 197.288ZM84.9954 194C85.6514 194 86.2194 193.816 86.6994 193.448C87.1954 193.08 87.5794 192.496 87.8514 191.696C88.1394 190.896 88.2834 189.864 88.2834 188.6C88.2834 187.336 88.1394 186.304 87.8514 185.504C87.5794 184.704 87.1954 184.12 86.6994 183.752C86.2194 183.384 85.6514 183.2 84.9954 183.2C84.3554 183.2 83.7874 183.384 83.2914 183.752C82.8114 184.12 82.4274 184.704 82.1394 185.504C81.8674 186.304 81.7314 187.336 81.7314 188.6C81.7314 189.864 81.8674 190.896 82.1394 191.696C82.4274 192.496 82.8114 193.08 83.2914 193.448C83.7874 193.816 84.3554 194 84.9954 194ZM101.284 197.288C99.9084 197.288 98.6764 196.952 97.5884 196.28C96.5004 195.592 95.6444 194.6 95.0204 193.304C94.3964 192.008 94.0844 190.44 94.0844 188.6C94.0844 186.76 94.3964 185.192 95.0204 183.896C95.6444 182.6 96.5004 181.616 97.5884 180.944C98.6764 180.256 99.9084 179.912 101.284 179.912C102.676 179.912 103.908 180.256 104.98 180.944C106.068 181.616 106.924 182.6 107.548 183.896C108.172 185.192 108.484 186.76 108.484 188.6C108.484 190.44 108.172 192.008 107.548 193.304C106.924 194.6 106.068 195.592 104.98 196.28C103.908 196.952 102.676 197.288 101.284 197.288ZM101.284 194C101.94 194 102.508 193.816 102.988 193.448C103.484 193.08 103.868 192.496 104.14 191.696C104.428 190.896 104.572 189.864 104.572 188.6C104.572 187.336 104.428 186.304 104.14 185.504C103.868 184.704 103.484 184.12 102.988 183.752C102.508 183.384 101.94 183.2 101.284 183.2C100.644 183.2 100.076 183.384 99.5804 183.752C99.1004 184.12 98.7164 184.704 98.4284 185.504C98.1564 186.304 98.0204 187.336 98.0204 188.6C98.0204 189.864 98.1564 190.896 98.4284 191.696C98.7164 192.496 99.1004 193.08 99.5804 193.448C100.076 193.816 100.644 194 101.284 194ZM118.226 197V180.2H125.498C127.002 180.2 128.298 180.448 129.386 180.944C130.474 181.424 131.314 182.12 131.906 183.032C132.498 183.944 132.794 185.032 132.794 186.296C132.794 187.544 132.498 188.624 131.906 189.536C131.314 190.432 130.474 191.12 129.386 191.6C128.298 192.08 127.002 192.32 125.498 192.32H120.386L122.114 190.616V197H118.226ZM128.906 197L124.706 190.904H128.858L133.106 197H128.906ZM122.114 191.048L120.386 189.224H125.282C126.482 189.224 127.378 188.968 127.97 188.456C128.562 187.928 128.858 187.208 128.858 186.296C128.858 185.368 128.562 184.648 127.97 184.136C127.378 183.624 126.482 183.368 125.282 183.368H120.386L122.114 181.52V191.048ZM141.395 197.288C140.051 197.288 138.763 197.112 137.531 196.76C136.299 196.392 135.307 195.92 134.555 195.344L135.875 192.416C136.595 192.928 137.443 193.352 138.419 193.688C139.411 194.008 140.411 194.168 141.419 194.168C142.187 194.168 142.803 194.096 143.267 193.952C143.747 193.792 144.099 193.576 144.323 193.304C144.547 193.032 144.659 192.72 144.659 192.368C144.659 191.92 144.483 191.568 144.131 191.312C143.779 191.04 143.315 190.824 142.739 190.664C142.163 190.488 141.523 190.328 140.819 190.184C140.131 190.024 139.435 189.832 138.731 189.608C138.043 189.384 137.411 189.096 136.835 188.744C136.259 188.392 135.787 187.928 135.419 187.352C135.067 186.776 134.891 186.04 134.891 185.144C134.891 184.184 135.147 183.312 135.659 182.528C136.187 181.728 136.971 181.096 138.011 180.632C139.067 180.152 140.387 179.912 141.971 179.912C143.027 179.912 144.067 180.04 145.091 180.296C146.115 180.536 147.019 180.904 147.803 181.4L146.603 184.352C145.819 183.904 145.035 183.576 144.251 183.368C143.467 183.144 142.699 183.032 141.947 183.032C141.195 183.032 140.579 183.12 140.099 183.296C139.619 183.472 139.275 183.704 139.067 183.992C138.859 184.264 138.755 184.584 138.755 184.952C138.755 185.384 138.931 185.736 139.283 186.008C139.635 186.264 140.099 186.472 140.675 186.632C141.251 186.792 141.883 186.952 142.571 187.112C143.275 187.272 143.971 187.456 144.659 187.664C145.363 187.872 146.003 188.152 146.579 188.504C147.155 188.856 147.619 189.32 147.971 189.896C148.339 190.472 148.523 191.2 148.523 192.08C148.523 193.024 148.259 193.888 147.731 194.672C147.203 195.456 146.411 196.088 145.355 196.568C144.315 197.048 142.995 197.288 141.395 197.288ZM151.18 197V180.2H158.812C160.636 180.2 162.244 180.552 163.636 181.256C165.028 181.944 166.116 182.912 166.9 184.16C167.684 185.408 168.076 186.888 168.076 188.6C168.076 190.296 167.684 191.776 166.9 193.04C166.116 194.288 165.028 195.264 163.636 195.968C162.244 196.656 160.636 197 158.812 197H151.18ZM155.068 193.808H158.62C159.74 193.808 160.708 193.6 161.523 193.184C162.356 192.752 162.996 192.144 163.444 191.36C163.908 190.576 164.14 189.656 164.14 188.6C164.14 187.528 163.908 186.608 163.444 185.84C162.996 185.056 162.356 184.456 161.523 184.04C160.708 183.608 159.74 183.392 158.62 183.392H155.068V193.808ZM179.12 182.504L175.928 184.256V183.632L179.12 185.36L177.944 187.328L174.968 185.552L175.304 185.336L175.352 188.672H173.096L173.12 185.336L173.456 185.552L170.48 187.328L169.328 185.36L172.52 183.632V184.256L169.328 182.504L170.48 180.536L173.456 182.336L173.12 182.528L173.096 179.192H175.352L175.304 182.528L174.968 182.336L177.944 180.536L179.12 182.504Z" fill="#1A1A1A"/>
<path d="M166.484 73H229V225H1V73H41.6815H75.4677" stroke="#1A1A1A"/>
<path d="M85.4458 67.188C86.9402 64.1091 89.0335 61.4109 91.329 58.8818C92.3054 57.6486 90.7238 55.8955 89.3926 56.7424C87.5186 57.9609 86.4028 59.9628 85.2118 61.7877C84.5024 63.3961 83.741 65.2085 83.9363 66.9975C84.0295 67.8675 85.1116 67.9339 85.4557 67.1784L85.4458 67.188ZM91.5102 95.0597C102.077 98.1399 120.149 95.8387 129.285 89.6836C130.847 88.46 129.326 85.976 127.537 86.7666C126.485 87.2666 125.461 87.855 124.427 88.3944C124.063 88.5738 123.681 88.6945 123.307 88.864C123.107 87.9435 122.781 87.0111 122.322 86.3986C124.251 85.4542 126.046 84.2733 127.602 82.8251C128.616 83.437 129.884 82.9014 130.969 82.7727C133.358 82.3042 135.747 81.8162 138.127 81.2987C144.355 79.9364 150.705 78.3029 156.195 74.9672C156.722 75.6101 157.426 76.0997 158.251 76.3766C157.622 77.8107 157.126 79.52 157.011 79.9768C156.591 81.8436 156.119 83.8365 156.615 85.7377C157.367 88.697 161.173 90.4668 163.685 88.4389C166.452 86.2981 166.079 82.2813 164.887 79.3636C164.452 78.5172 163.594 76.6394 162.567 75.6175C162.725 75.503 162.892 75.3984 163.041 75.2544C165.117 73.0145 164.671 70.47 163.142 69.0496C163.206 68.7384 163.26 68.4172 163.333 68.1159C163.661 66.5697 163.911 65.0026 163.81 63.4103C163.728 59.4763 160.282 54.1505 155.879 56.6257C151.587 59.5516 153.266 66.7027 157.503 68.9772C157.493 68.9868 157.473 69.006 157.463 69.0156C154.354 68.7991 151.229 68.9238 148.119 68.7267C144.695 68.7001 141.272 68.5175 137.884 68.0524C136.287 67.8117 134.702 67.5028 133.093 67.4083C132.986 67.3968 132.869 67.3949 132.771 67.3934C132.495 63.4171 131.078 59.3345 128.018 56.6693C125.723 54.3582 123.053 52.3336 119.958 51.2585C116.881 50.2228 113.661 49.6141 110.426 49.3271C110.53 48.958 110.527 48.5384 110.446 48.0979C113.647 48.6673 117.155 48.4219 120.403 48.5237C125.93 48.8967 131.679 48.7855 137.24 48.2809C140.094 48.0151 143.032 47.3604 145.373 45.6128C148.068 43.7538 148.576 40.0928 145.432 38.3924C143.22 37.0194 140.529 36.8584 137.997 36.5439C135.475 36.2588 132.996 36.238 130.463 36.5773C126.541 37.1086 122.763 38.4425 119.09 39.8464C115.65 41.3322 112.18 42.9053 109.09 45.0507C107.63 43.6607 105.054 43.6187 103.491 44.9204C103.017 45.2834 102.619 45.7649 102.308 46.2965C102.279 46.2668 102.25 46.2371 102.202 46.207C100.218 45.1695 98.3857 43.832 96.1792 43.2984C93.7309 42.6339 91.3753 41.6685 88.9263 41.043C85.3098 40.2034 81.6102 39.6747 77.8959 39.4483C75.8676 39.3567 73.7677 39.4688 71.7446 39.6603C69.8091 39.8629 67.784 40.1715 66.117 41.2665C61.7194 44.0444 66.1158 49.1221 69.59 50.3108C74.6636 52.1597 80.4 51.0627 85.6608 50.4068C89.7524 49.6342 93.911 49.5459 98.0555 49.1255C99.191 48.9098 100.644 48.9823 101.697 48.4237C101.703 48.6678 101.68 48.9016 101.744 49.1466C101.753 49.1956 101.771 49.2544 101.78 49.3034C99.0541 49.5224 96.3439 49.9564 93.6792 50.5961C90.0002 51.795 86.6271 53.9844 83.7936 56.5926C79.3773 60.5216 78.4247 66.8784 78.8209 72.5058C78.846 76.9561 81.1439 80.8579 84.5635 83.5973C87.5292 86.0462 91.1465 88.0373 94.9166 89.0356C94.6061 90.1235 94.2758 91.2306 94.0721 92.3495C93.5856 92.2635 93.0888 92.2066 92.5927 92.1107C90.169 91.7297 87.8707 90.8432 85.6431 89.8115C84.9461 89.4683 84.0756 88.9858 83.3077 89.4026C80.8628 91.5194 89.9336 94.7998 91.4808 95.069L91.5102 95.0597ZM157.193 65.8202C155.996 63.8684 155.361 60.872 157.031 59.0061C159.322 57.3649 160.747 60.9598 160.853 62.7961C161.02 64.5554 160.661 66.228 160.34 67.9598C160.008 67.9544 159.666 68.0171 159.323 68.0993C158.563 67.3941 157.755 66.7173 157.203 65.8301L157.193 65.8202ZM109.76 45.9008C110.26 45.7236 110.752 45.4974 110.988 45.4036C113.622 44.2365 116.266 43.0793 118.947 42.0593C125.768 39.643 132.469 38.0542 139.714 39.6068C141.416 39.9566 143.334 40.2123 144.611 41.5115C144.912 42.7557 143.162 43.6054 142.265 44.1471C140.307 45.1398 138.097 45.4161 135.936 45.6444C133.122 45.8717 130.309 46.0405 127.477 46.131C124.597 46.2304 121.713 45.9687 118.822 46.0973C117.015 46.2337 115.218 46.2825 113.404 46.2529C112.26 46.3417 111.074 46.0686 109.958 46.3237C109.938 46.3429 109.928 46.3524 109.908 46.3716C109.852 46.2146 109.787 46.0476 109.74 45.92L109.76 45.9008ZM91.0457 47.5183C88.2239 47.6186 85.436 48.0318 82.6407 48.2985C78.0989 48.5465 73.0307 49.3617 68.9435 46.8652C68.0577 46.1287 66.0313 44.7294 67.0083 43.4572C68.5026 42.1837 70.5347 42.0412 72.4114 41.8571C75.3727 41.5833 78.3961 41.6911 81.3456 42.1393C85.5045 42.6267 89.5673 43.6298 93.4963 45.0502C95.6619 45.7003 97.742 46.2026 99.7234 47.3767C96.8232 47.4953 93.945 47.4582 91.0553 47.5282L91.0457 47.5183ZM160.085 77.0018C160.35 77.494 160.675 77.9287 160.97 78.3922C162.218 80.2569 162.912 82.5614 162.759 84.8034C162.431 86.9449 160.15 86.8102 159.319 85.0597C158.554 82.3245 159.208 79.3491 159.838 76.6074C159.877 76.608 159.916 76.6087 159.965 76.5997C160.002 76.7369 160.009 76.8639 160.075 76.9919L160.085 77.0018ZM136.103 70.1215C140.262 71.2042 144.603 71.3237 148.874 71.5104C151.068 71.6535 153.271 71.7675 155.478 71.7059C155.332 72.25 155.323 72.7768 155.413 73.2857C147.307 76.6374 138.675 78.2142 130.117 79.9679C130.197 79.8521 130.296 79.7561 130.357 79.64C132.063 76.7402 132.568 73.2939 132.807 69.9897C132.822 69.6874 132.817 69.3848 132.822 69.0727C133.909 69.4612 134.995 69.8497 136.103 70.141L136.103 70.1215ZM103.7 48.2905C104.212 47.3913 105.19 46.6753 106.217 46.5262C107.739 46.551 107.597 48.071 107.881 49.1783C107.121 49.1464 106.36 49.1145 105.599 49.1216C104.848 49.1191 104.115 49.156 103.363 49.1925C103.466 48.8819 103.558 48.5809 103.7 48.2905ZM81.6865 75.1092C80.8038 69.9911 80.8621 64.0198 84.0943 59.7007C87.0278 56.3427 91.0384 53.9587 95.2096 52.4946C95.6702 52.3753 96.1398 52.3049 96.6096 52.2149C96.8304 52.443 97.0713 52.6323 97.2053 52.7906C98.0031 53.5355 98.8105 54.2904 99.4401 55.1789C100.891 57.1347 101.448 59.5151 101.594 61.9083C101.956 64.8418 101.019 67.8614 98.7912 69.8452C94.2306 73.645 88.19 74.8444 82.3902 75.0426C82.1462 75.0484 81.9303 75.1229 81.7524 75.2567C81.7339 75.1978 81.7054 75.1486 81.6868 75.0897L81.6865 75.1092ZM82.71 77.5753C84.0349 77.714 85.3943 77.5312 86.7144 77.3673C93.5313 76.4343 101.972 74.0639 104.441 66.8535C105.825 61.5772 104.668 54.7664 99.7699 51.7102C102.537 51.3942 105.329 51.3227 108.09 51.3384C115.676 51.7158 121.647 52.9841 126.74 59.0588C131.209 63.8743 130.826 71.7725 128.585 77.5716C126.669 81.3657 122.863 83.7823 118.956 85.1824C114.38 86.962 109.418 87.2519 104.548 87.2799C100.136 87.3056 95.5897 87.251 91.604 85.1172C88.1774 83.4024 84.6062 80.9827 82.7199 77.5657L82.71 77.5753ZM97.4596 90.4726C97.4833 90.2192 97.489 89.868 97.4653 89.526C100.271 89.845 103.12 89.8329 105.941 89.8106C108.431 89.6853 110.822 89.6754 113.298 89.2571C115.529 88.8641 117.793 88.2667 119.973 87.4435C119.753 88.367 119.6 89.3599 119.741 90.299C112.577 92.7975 104.883 93.6187 97.3338 92.8028C97.4438 92.0434 97.3698 91.1932 97.4596 90.4726Z" fill="#F2B199"/>
</svg>
